<svg width="183" height="40" viewBox="0 0 183 40" fill="none" xmlns="http://www.w3.org/2000/svg">
<path fill-rule="evenodd" clip-rule="evenodd" d="M45.9158 20.9075H46.2464C46.4642 20.9075 46.6593 20.8778 46.6593 20.6225C46.6593 20.3961 46.4433 20.3607 46.2495 20.3607H45.9158V20.9075ZM45.5404 20.0897H46.2894C46.7698 20.0897 47.0335 20.2485 47.0335 20.6511C47.0335 20.9769 46.8354 21.1351 46.5066 21.1636L47.0452 21.9979H46.6636L46.1435 21.1764H45.9159V21.9979H45.5404V20.0897ZM47.5688 21.0502C47.5688 20.2636 46.9676 19.6929 46.2253 19.6929C45.4819 19.6929 44.8825 20.2636 44.8825 21.0502C44.8825 21.8402 45.4819 22.4104 46.2253 22.4104C46.9676 22.4104 47.5688 21.8402 47.5688 21.0502ZM44.4482 21.0495C44.4482 20.1227 45.2457 19.3676 46.2253 19.3676C47.2044 19.3676 48 20.1227 48 21.0495C48 21.9798 47.2044 22.7355 46.2253 22.7355C45.2457 22.7355 44.4482 21.9798 44.4482 21.0495Z" fill="white"/>
<path fill-rule="evenodd" clip-rule="evenodd" d="M9.20575 4.55499C6.55021 4.55499 4.30076 6.19209 3.51189 8.45865C3.49287 8.50868 3.4757 8.56163 3.45975 8.61166L3.32909 9.09918L0 22.7736H8.38682C10.8927 22.7736 13.0262 21.2686 13.8378 19.1585L14.1543 17.8559L17.3926 4.55499H9.20575Z" fill="#034EA2"/>
<path fill-rule="evenodd" clip-rule="evenodd" d="M25.0262 -6.10352e-05C22.2835 -6.10352e-05 19.9709 1.74757 19.2575 4.13165C19.2035 4.31026 19.1599 4.49177 19.1256 4.67677L13.6102 27.3314H21.7971C24.6017 27.3314 26.956 25.5029 27.6105 23.0344V23.0356H27.6142L33.2216 -6.10352e-05H25.0262Z" fill="#F37021"/>
<path fill-rule="evenodd" clip-rule="evenodd" d="M38.642 4.55499C36.0803 4.55499 33.8952 6.07864 33.0364 8.22304C32.9929 8.33183 32.8401 8.78502 32.8401 8.78502L29.4356 22.7736H37.6237C40.4375 22.7736 42.7967 20.9364 43.4439 18.4569L43.4433 18.4581H43.4439L46.827 4.55499H38.642Z" fill="#51B848"/>
<path d="M4.10128 33.7038V35.7993H6.48204V36.7142H4.10128V39.8919H3.00018V32.7692H6.7102V33.7038H4.10128Z" fill="white"/>
<path d="M12.4863 34.8844C12.4863 35.5402 12.2483 36.0649 11.7721 36.4584C11.2761 36.8716 10.585 37.0782 9.69886 37.0782C9.43433 37.0782 9.18303 37.0586 8.94495 37.0192V39.8919H7.84385V33.0349C8.38613 32.7856 9.04746 32.661 9.82782 32.661C10.6743 32.661 11.3323 32.8611 11.8019 33.2611C12.2582 33.6546 12.4863 34.1957 12.4863 34.8844ZM11.3852 34.8745C11.3852 33.9695 10.8694 33.5169 9.83774 33.5169C9.49385 33.5169 9.19625 33.5661 8.94495 33.6645V36.1633C9.13012 36.1961 9.3682 36.2125 9.65918 36.2125C10.2147 36.2125 10.6412 36.0912 10.9388 35.8485C11.2364 35.6189 11.3852 35.2943 11.3852 34.8745Z" fill="white"/>
<path d="M15.9399 33.7038V39.8919H14.819V33.7038H13.1624V32.7692H17.5866V33.7038H15.9399Z" fill="white"/>
<path d="M25.0615 39.8919L24.0497 37.639C23.8182 37.1274 23.4512 36.8716 22.9486 36.8716H22.3137V39.8919H21.2126V33.0447C21.7946 32.7889 22.4757 32.661 23.2561 32.661C24.1026 32.661 24.754 32.8479 25.2103 33.2218C25.6534 33.5891 25.8749 34.0941 25.8749 34.7368C25.8749 35.714 25.3624 36.3142 24.3374 36.5372V36.5568C24.668 36.7274 24.9491 37.0618 25.1805 37.5603L26.2519 39.8919H25.0615ZM24.7738 34.786C24.7738 33.9399 24.2745 33.5169 23.2759 33.5169C22.8857 33.5169 22.565 33.5661 22.3137 33.6645V36.0649H23.1569C24.2348 36.0649 24.7738 35.6386 24.7738 34.786Z" fill="white"/>
<path d="M31.4379 36.8126C31.4379 36.9897 31.4346 37.1241 31.428 37.216L27.8767 37.7079C27.9891 38.6654 28.5347 39.1442 29.5135 39.1442C30.0954 39.1442 30.5881 39.036 30.9915 38.8195L31.309 39.6262C30.8262 39.8755 30.2046 40.0001 29.444 40.0001C28.6108 40.0001 27.9627 39.7509 27.4998 39.2524C27.0434 38.7671 26.8153 38.0948 26.8153 37.2356C26.8153 36.4158 27.0302 35.7534 27.4601 35.2484C27.8966 34.7368 28.4851 34.481 29.2258 34.481C29.9136 34.481 30.4559 34.6909 30.8527 35.1107C31.2428 35.5304 31.4379 36.0977 31.4379 36.8126ZM30.3964 36.6454C30.3897 35.7272 29.9929 35.2681 29.206 35.2681C28.7827 35.2681 28.4488 35.4189 28.2041 35.7206C27.9462 36.0289 27.8139 36.4552 27.8073 36.9995L30.3964 36.6454Z" fill="white"/>
<path d="M35.0064 39.8427C34.8345 39.9214 34.6096 39.9607 34.3319 39.9607C33.3531 39.9607 32.8638 39.4426 32.8638 38.4064V35.396H32.1396V34.5892H32.8638V33.3595L33.9252 33.0349V34.5892H35.0064V35.396H33.9252V38.3473C33.9252 38.7933 34.1633 39.0163 34.6394 39.0163C34.7783 39.0163 34.9006 38.9933 35.0064 38.9474V39.8427Z" fill="white"/>
<path d="M40.0686 39.6262C39.599 39.8755 38.9576 40.0001 38.1441 40.0001C36.6032 40.0001 35.8328 39.4459 35.8328 38.3375C35.8328 37.6685 36.1635 37.1897 36.8248 36.9012C37.3076 36.6913 38.0449 36.5601 39.0369 36.5076V36.1731C39.0369 35.5698 38.66 35.2681 37.9061 35.2681C37.3836 35.2681 36.8909 35.3763 36.428 35.5927L36.1502 34.8549C36.719 34.6056 37.3406 34.481 38.0152 34.481C39.3841 34.481 40.0686 35.0811 40.0686 36.2814V39.6262ZM39.0369 37.2258C38.3227 37.2652 37.8234 37.3373 37.539 37.4422C37.0827 37.6062 36.8545 37.8981 36.8545 38.3178C36.8545 38.9212 37.2745 39.2229 38.1144 39.2229C38.531 39.2229 38.8385 39.177 39.0369 39.0852V37.2258Z" fill="white"/>
<path d="M42.6195 33.0152C42.6195 33.1857 42.5567 33.33 42.431 33.4481C42.3054 33.5661 42.1533 33.6251 41.9747 33.6251C41.7962 33.6251 41.6441 33.5661 41.5184 33.4481C41.3928 33.33 41.3299 33.1857 41.3299 33.0152C41.3299 32.8447 41.3928 32.7004 41.5184 32.5823C41.6441 32.4643 41.7962 32.4052 41.9747 32.4052C42.1533 32.4052 42.3054 32.4643 42.431 32.5823C42.5567 32.7004 42.6195 32.8447 42.6195 33.0152ZM41.4291 39.8919V34.5892H42.5203V39.8919H41.4291Z" fill="white"/>
<path d="M43.9091 39.8919V32.1691H45.0003V39.8919H43.9091Z" fill="white"/>
<path d="M63.1105 14.7973L59.3677 8.82919L59.3352 8.84213L59.4066 14.7973H57V4.98419H59.1666L62.9678 11.153L62.9937 11.1271L62.8835 4.98419H65.29V14.7973H63.1105Z" fill="white"/>
<path d="M72.8081 14.7973V10.8747H69.5907V14.7973H67.0804V4.98419H69.5907V8.67383H72.8081V4.98419H75.3185V14.7973H72.8081Z" fill="white"/>
<path d="M83.4334 14.7973L82.9533 13.3797H79.5413L79.0224 14.7973H76.3239L80.2678 4.98419H82.2463L86.1578 14.7973H83.4334ZM81.2798 8.03947H81.2409L80.2289 11.3925H82.2917L81.2798 8.03947ZM82.3176 4.51166L79.0354 3.08111L79.71 1.52758L82.9274 3.22352L82.3176 4.51166Z" fill="white"/>
<path d="M94.9538 7.18503V14.7973H92.4434V7.18503H90.5039V4.98419H96.8803V7.18503H94.9538Z" fill="white"/>
<path d="M103.62 14.7973V10.8747H100.403V14.7973H97.8922V4.98419H100.403V8.67383H103.62V4.98419H106.13V14.7973H103.62Z" fill="white"/>
<path d="M115.426 10.9135C115.426 11.5824 115.37 12.124 115.257 12.5382C115.106 13.069 114.836 13.5308 114.446 13.9235C113.75 14.6312 112.833 14.9851 111.696 14.9851C111.142 14.9851 110.632 14.9052 110.165 14.7456C109.638 14.5643 109.205 14.2946 108.868 13.9364C108.453 13.5006 108.176 13.0345 108.037 12.5382C107.977 12.3138 107.934 12.0614 107.908 11.7809C107.89 11.5565 107.882 11.2674 107.882 10.9135V4.98419H110.392V10.9135C110.392 11.1724 110.405 11.3947 110.431 11.5802C110.466 11.8176 110.524 12.0182 110.606 12.1822C110.805 12.5836 111.16 12.7842 111.67 12.7842C112.198 12.7842 112.552 12.5879 112.734 12.1952C112.807 12.0355 112.859 11.837 112.89 11.5997C112.907 11.427 112.915 11.1983 112.915 10.9135V4.98419H115.426V10.9135Z" fill="white"/>
<path d="M127.128 9.89077C127.128 11.3321 126.622 12.5447 125.61 13.5286C124.602 14.4996 123.374 14.9851 121.926 14.9851C120.516 14.9851 119.307 14.5082 118.299 13.5545C117.27 12.5879 116.756 11.4076 116.756 10.0138C116.756 9.27151 116.883 8.57242 117.138 7.91649C117.272 7.56694 117.486 7.20013 117.781 6.81607C118.801 5.47399 120.187 4.80295 121.938 4.80295C123.383 4.80295 124.607 5.29058 125.61 6.26586C126.622 7.24545 127.128 8.45375 127.128 9.89077ZM124.618 9.90372C124.618 9.114 124.375 8.4408 123.891 7.88412C123.376 7.29723 122.73 7.00379 121.951 7.00379C121.164 7.00379 120.516 7.2886 120.005 7.85823C119.512 8.40628 119.266 9.07516 119.266 9.86488C119.266 10.6719 119.515 11.3537 120.012 11.9104C120.527 12.4929 121.182 12.7842 121.977 12.7842C122.743 12.7842 123.381 12.4908 123.891 11.9039C124.375 11.3472 124.618 10.6805 124.618 9.90372ZM124.254 3.00991L123.632 1.70883L126.817 -6.10352e-05L127.524 1.56642L124.254 3.00991ZM122.561 4.12328L121.951 3.35946L121.342 4.12328H119.188L121.257 1.92244H122.691L124.689 4.12328H122.561Z" fill="white"/>
<path d="M138.233 11.1271C137.948 12.2793 137.344 13.2114 136.423 13.9235C135.511 14.6312 134.458 14.9851 133.264 14.9851C131.829 14.9851 130.607 14.4931 129.599 13.5092C128.587 12.521 128.081 11.3105 128.081 9.87782C128.081 8.44943 128.583 7.24329 129.586 6.25938C130.585 5.28843 131.803 4.80295 133.238 4.80295C135.107 4.80295 136.549 5.57108 137.565 7.10735C137.92 7.63814 138.142 8.17325 138.233 8.71267H135.6C135.163 7.57341 134.371 7.00379 133.225 7.00379C132.451 7.00379 131.813 7.29076 131.312 7.8647C130.832 8.41707 130.592 9.08379 130.592 9.86488C130.592 10.6546 130.832 11.3299 131.312 11.8909C131.818 12.4865 132.46 12.7842 133.238 12.7842C134.311 12.7842 135.098 12.2319 135.6 11.1271H138.233Z" fill="white"/>
<path d="M57 39.691V24.5905H60.8629V36.3044H65.3448V39.691H57Z" fill="white"/>
<path d="M82.1641 32.1408C82.1641 34.3587 81.3855 36.2247 79.8283 37.7387C78.2778 39.2328 76.3879 39.9799 74.1587 39.9799C71.9893 39.9799 70.1294 39.2461 68.5789 37.7786C66.9951 36.2911 66.2032 34.4749 66.2032 32.33C66.2032 31.1879 66.3995 30.1121 66.7921 29.1028C66.9984 28.5649 67.3278 28.0004 67.7803 27.4094C69.3508 25.3442 71.4836 24.3116 74.1786 24.3116C76.4013 24.3116 78.2845 25.062 79.8283 26.5628C81.3855 28.0702 82.1641 29.9295 82.1641 32.1408ZM78.3011 32.1607C78.3011 30.9455 77.9285 29.9096 77.1832 29.053C76.3913 28.1498 75.3964 27.6983 74.1986 27.6983C72.9875 27.6983 71.9893 28.1366 71.2041 29.0131C70.4455 29.8565 70.0661 30.8857 70.0661 32.1009C70.0661 33.3427 70.4488 34.3919 71.2141 35.2485C72.0059 36.145 73.0141 36.5932 74.2385 36.5932C75.4164 36.5932 76.3979 36.1417 77.1832 35.2386C77.9285 34.382 78.3011 33.356 78.3011 32.1607Z" fill="white"/>
<path d="M93.6531 39.691L87.8936 30.5072L87.8437 30.5271L87.9535 39.691H84.2503V24.5905H87.5842L93.4335 34.0831L93.4734 34.0433L93.3037 24.5905H97.007V39.691H93.6531Z" fill="white"/>
<path d="M115.214 31.9017C115.214 34.2193 114.448 36.1483 112.918 37.6889C111.381 39.2295 109.454 39.9998 107.138 39.9998C104.903 39.9998 103.006 39.2395 101.449 37.7188C99.8851 36.1849 99.1031 34.3056 99.1031 32.081C99.1031 29.8498 99.8984 27.9871 101.489 26.493C103.046 25.0388 104.949 24.3116 107.198 24.3116C108.875 24.3116 110.429 24.7997 111.86 25.7759C113.344 26.7852 114.312 28.0768 114.765 29.6506H110.432C109.7 28.3491 108.589 27.6983 107.099 27.6983C105.887 27.6983 104.889 28.1299 104.104 28.9932C103.345 29.8299 102.966 30.8592 102.966 32.081C102.966 33.356 103.335 34.4185 104.074 35.2685C104.853 36.1649 105.867 36.6132 107.119 36.6132C107.99 36.6132 108.742 36.4173 109.374 36.0255C110.053 35.6005 110.506 34.9862 110.732 34.1827H106.22V31.1049H115.194C115.2 31.2244 115.207 31.3572 115.214 31.5033V31.9017Z" fill="white"/>
<path d="M138.521 34.0433C138.082 35.8163 137.154 37.2507 135.736 38.3463C134.332 39.4354 132.712 39.9799 130.875 39.9799C128.666 39.9799 126.786 39.2229 125.235 37.7089C123.678 36.1882 122.9 34.3255 122.9 32.1209C122.9 29.9229 123.672 28.0668 125.215 26.5528C126.753 25.0587 128.626 24.3116 130.835 24.3116C133.71 24.3116 135.929 25.4936 137.493 27.8577C138.039 28.6744 138.381 29.4979 138.521 30.3279H134.469C133.796 28.5748 132.579 27.6983 130.815 27.6983C129.624 27.6983 128.643 28.1399 127.871 29.0231C127.132 29.8731 126.763 30.899 126.763 32.1009C126.763 33.3162 127.132 34.3554 127.871 35.2187C128.649 36.1351 129.637 36.5932 130.835 36.5932C132.486 36.5932 133.697 35.7433 134.469 34.0433H138.521Z" fill="white"/>
<path d="M149.341 39.691V33.6548H144.39V39.691H140.528V24.5905H144.39V30.2682H149.341V24.5905H153.204V39.691H149.341Z" fill="white"/>
<path d="M165.692 39.691L164.953 37.5096H159.703L158.904 39.691H154.752L160.82 24.5905H163.865L169.884 39.691H165.692ZM162.378 29.292H162.318L160.761 34.4517H163.935L162.378 29.292ZM163.276 23.2657L162.338 22.0904L161.399 23.2657H158.085L161.27 19.8791H163.476L166.55 23.2657H163.276Z" fill="white"/>
<path d="M183 33.7146C183 34.7439 182.913 35.5772 182.74 36.2147C182.508 37.0315 182.092 37.7421 181.493 38.3463C180.421 39.4354 179.011 39.9799 177.26 39.9799C176.409 39.9799 175.623 39.8571 174.905 39.6114C174.093 39.3325 173.427 38.9174 172.908 38.3663C172.27 37.6956 171.844 36.9784 171.631 36.2147C171.538 35.8694 171.471 35.481 171.431 35.0493C171.404 34.704 171.391 34.2591 171.391 33.7146V24.5905H175.254V33.7146C175.254 34.113 175.274 34.455 175.314 34.7405C175.367 35.1058 175.457 35.4146 175.584 35.6669C175.89 36.2845 176.435 36.5932 177.221 36.5932C178.032 36.5932 178.578 36.2911 178.858 35.6868C178.971 35.4411 179.051 35.1357 179.097 34.7704C179.124 34.5048 179.137 34.1529 179.137 33.7146V24.5905H183V33.7146Z" fill="white"/>
</svg>
