<svg width="146" height="32" viewBox="0 0 146 32" fill="none" xmlns="http://www.w3.org/2000/svg">
<path fill-rule="evenodd" clip-rule="evenodd" d="M36.3497 16.7258H36.6115C36.7839 16.7258 36.9383 16.7021 36.9383 16.4978C36.9383 16.3167 36.7674 16.2883 36.6139 16.2883H36.3497V16.7258ZM36.0526 16.072H36.6456C37.0258 16.072 37.2347 16.1991 37.2347 16.5211C37.2347 16.7818 37.0778 16.9084 36.8175 16.9312L37.2439 17.5986H36.9418L36.53 16.9414H36.3498V17.5986H36.0526V16.072ZM37.6584 16.8402C37.6584 16.211 37.1825 15.7544 36.5949 15.7544C36.0063 15.7544 35.5318 16.211 35.5318 16.8402C35.5318 17.4722 36.0063 17.9283 36.5949 17.9283C37.1825 17.9283 37.6584 17.4722 37.6584 16.8402ZM35.188 16.8399C35.188 16.0985 35.8193 15.4944 36.5949 15.4944C37.3699 15.4944 37.9998 16.0985 37.9998 16.8399C37.9998 17.5841 37.3699 18.1887 36.5949 18.1887C35.8193 18.1887 35.188 17.5841 35.188 16.8399Z" fill="#034EA2"/>
<path fill-rule="evenodd" clip-rule="evenodd" d="M7.28788 3.64429C5.18558 3.64429 3.40477 4.95396 2.78024 6.7672C2.76519 6.80723 2.75159 6.84958 2.73897 6.88961L2.63553 7.27962L0 18.2191H6.63956C8.62337 18.2191 10.3124 17.0151 10.9549 15.3271L11.2055 14.285L13.7691 3.64429H7.28788Z" fill="#034EA2"/>
<path fill-rule="evenodd" clip-rule="evenodd" d="M19.8125 0C17.6413 0 15.8104 1.3981 15.2456 3.30536C15.2029 3.44824 15.1684 3.59345 15.1412 3.74145L10.7749 21.8651H17.2561C19.4765 21.8651 21.3403 20.4023 21.8585 18.4275V18.4285H21.8614L26.3006 0H19.8125Z" fill="#F37021"/>
<path fill-rule="evenodd" clip-rule="evenodd" d="M30.5916 3.64429C28.5636 3.64429 26.8338 4.8632 26.1539 6.57871C26.1194 6.66574 25.9985 7.0283 25.9985 7.0283L23.3032 18.2191H29.7854C32.013 18.2191 33.8808 16.7494 34.3931 14.7658L34.3926 14.7667H34.3931L37.0714 3.64429H30.5916Z" fill="#51B848"/>
<path d="M3.24671 26.963V28.6394H5.13147V29.3713H3.24671V31.9134H2.375V26.2153H5.3121V26.963H3.24671Z" fill="#034EA2"/>
<path d="M9.88487 27.9074C9.88487 28.4321 9.69639 28.8519 9.31944 29.1667C8.92678 29.4972 8.37967 29.6625 7.67812 29.6625C7.4687 29.6625 7.26975 29.6468 7.08127 29.6153V31.9134H6.20957V26.4278C6.63888 26.2284 7.16242 26.1287 7.78021 26.1287C8.45035 26.1287 8.97128 26.2888 9.343 26.6088C9.70424 26.9236 9.88487 27.3565 9.88487 27.9074ZM9.01316 27.8996C9.01316 27.1755 8.6048 26.8135 7.78806 26.8135C7.51582 26.8135 7.28022 26.8528 7.08127 26.9315V28.9306C7.22787 28.9568 7.41634 28.9699 7.64671 28.9699C8.08648 28.9699 8.42417 28.8728 8.65977 28.6787C8.89536 28.4951 9.01316 28.2354 9.01316 27.8996Z" fill="#034EA2"/>
<path d="M12.6189 26.963V31.9134H11.7315V26.963H10.42V26.2153H13.9226V26.963H12.6189Z" fill="#034EA2"/>
<path d="M19.8402 31.9134L19.0392 30.1111C18.8559 29.7019 18.5654 29.4972 18.1675 29.4972H17.6649V31.9134H16.7932V26.4357C17.2539 26.2311 17.7931 26.1287 18.4109 26.1287C19.0811 26.1287 19.5968 26.2783 19.958 26.5773C20.3088 26.8712 20.4842 27.2752 20.4842 27.7894C20.4842 28.5712 20.0784 29.0512 19.2669 29.2296V29.2454C19.5287 29.3818 19.7512 29.6494 19.9344 30.0481L20.7826 31.9134H19.8402ZM19.6125 27.8287C19.6125 27.1519 19.2172 26.8135 18.4266 26.8135C18.1177 26.8135 17.8638 26.8528 17.6649 26.9315V28.8519H18.3324C19.1858 28.8519 19.6125 28.5108 19.6125 27.8287Z" fill="#034EA2"/>
<path d="M24.8882 29.45C24.8882 29.5917 24.8856 29.6992 24.8804 29.7727L22.0689 30.1662C22.1579 30.9322 22.5898 31.3153 23.3647 31.3153C23.8254 31.3153 24.2155 31.2287 24.5348 31.0555L24.7861 31.7009C24.4039 31.9003 23.9118 32 23.3097 32C22.6501 32 22.137 31.8006 21.7705 31.4018C21.4093 31.0136 21.2286 30.4758 21.2286 29.7884C21.2286 29.1326 21.3988 28.6026 21.7391 28.1986C22.0846 27.7894 22.5506 27.5847 23.137 27.5847C23.6814 27.5847 24.1108 27.7526 24.4249 28.0884C24.7338 28.4242 24.8882 28.8781 24.8882 29.45ZM24.0636 29.3162C24.0584 28.5816 23.7443 28.2144 23.1213 28.2144C22.7862 28.2144 22.5218 28.335 22.3281 28.5764C22.1239 28.823 22.0192 29.164 22.0139 29.5995L24.0636 29.3162Z" fill="#034EA2"/>
<path d="M27.7133 31.8741C27.5772 31.937 27.3992 31.9685 27.1793 31.9685C26.4044 31.9685 26.017 31.554 26.017 30.725V28.3167H25.4437V27.6713H26.017V26.6875L26.8573 26.4278V27.6713H27.7133V28.3167H26.8573V30.6778C26.8573 31.0346 27.0458 31.2129 27.4227 31.2129C27.5327 31.2129 27.6295 31.1946 27.7133 31.1579V31.8741Z" fill="#034EA2"/>
<path d="M31.7208 31.7009C31.3491 31.9003 30.8412 32 30.1973 32C28.9774 32 28.3675 31.5566 28.3675 30.6699C28.3675 30.1347 28.6293 29.7517 29.1528 29.5208C29.535 29.3529 30.1188 29.248 30.9041 29.206V28.9384C30.9041 28.4557 30.6057 28.2144 30.0088 28.2144C29.5952 28.2144 29.2052 28.3009 28.8387 28.4741L28.6188 27.8838C29.069 27.6844 29.5612 27.5847 30.0952 27.5847C31.1789 27.5847 31.7208 28.0648 31.7208 29.025V31.7009ZM30.9041 29.7806C30.3386 29.812 29.9434 29.8698 29.7182 29.9537C29.357 30.0849 29.1764 30.3184 29.1764 30.6542C29.1764 31.1369 29.5088 31.3782 30.1737 31.3782C30.5036 31.3782 30.747 31.3415 30.9041 31.268V29.7806Z" fill="#034EA2"/>
<path d="M33.7403 26.4121C33.7403 26.5485 33.6906 26.6639 33.5911 26.7584C33.4916 26.8528 33.3712 26.9 33.2299 26.9C33.0885 26.9 32.9681 26.8528 32.8686 26.7584C32.7691 26.6639 32.7194 26.5485 32.7194 26.4121C32.7194 26.2757 32.7691 26.1602 32.8686 26.0658C32.9681 25.9713 33.0885 25.9241 33.2299 25.9241C33.3712 25.9241 33.4916 25.9713 33.5911 26.0658C33.6906 26.1602 33.7403 26.2757 33.7403 26.4121ZM32.7979 31.9134V27.6713H33.6618V31.9134H32.7979Z" fill="#034EA2"/>
<path d="M34.7612 31.9134V25.7352H35.6251V31.9134H34.7612Z" fill="#034EA2"/>
<path d="M50.0498 11.8379L47.0793 7.06337L47.0535 7.07373L47.1102 11.8379H45.2002V3.98739H46.9197L49.9365 8.92243L49.9571 8.90171L49.8696 3.98739H51.7796V11.8379H50.0498Z" fill="#072D94"/>
<path d="M57.7463 11.8379V8.69975H55.1928V11.8379H53.2005V3.98739H55.1928V6.93909H57.7463V3.98739H59.7387V11.8379H57.7463Z" fill="#072D94"/>
<path d="M66.1791 11.8379L65.7981 10.7038H63.0901L62.6783 11.8379H60.5366L63.6667 3.98739H65.2369L68.3413 11.8379H66.1791ZM64.4699 6.4316H64.439L63.6359 9.11403H65.273L64.4699 6.4316ZM65.2936 3.60936L62.6886 2.46493L63.224 1.22211L65.7775 2.57886L65.2936 3.60936Z" fill="#072D94"/>
<path d="M75.3222 5.74805V11.8379H73.3299V5.74805H71.7906V3.98739H76.8512V5.74805H75.3222Z" fill="#072D94"/>
<path d="M82.2002 11.8379V8.69975H79.6467V11.8379H77.6544V3.98739H79.6467V6.93909H82.2002V3.98739H84.1926V11.8379H82.2002Z" fill="#072D94"/>
<path d="M91.5699 8.73083C91.5699 9.26593 91.5253 9.69919 91.4361 10.0306C91.3159 10.4552 91.1014 10.8246 90.7925 11.1388C90.24 11.705 89.5124 11.9881 88.6097 11.9881C88.1704 11.9881 87.7654 11.9242 87.3947 11.7965C86.976 11.6515 86.6328 11.4357 86.3651 11.1491C86.0356 10.8005 85.816 10.4276 85.7061 10.0306C85.6581 9.85109 85.6238 9.64913 85.6032 9.42473C85.5894 9.24522 85.5826 9.01391 85.5826 8.73083V3.98739H87.5749V8.73083C87.5749 8.93796 87.5852 9.11576 87.6058 9.2642C87.6333 9.45408 87.6796 9.61461 87.7448 9.7458C87.9027 10.0669 88.1841 10.2274 88.5891 10.2274C89.0078 10.2274 89.2893 10.0703 89.4334 9.75615C89.4918 9.62842 89.5329 9.46961 89.557 9.27974C89.5707 9.14165 89.5776 8.95868 89.5776 8.73083V3.98739H91.5699V8.73083Z" fill="#072D94"/>
<path d="M100.857 7.91263C100.857 9.0657 100.456 10.0358 99.6526 10.8229C98.8529 11.5997 97.8782 11.9881 96.7284 11.9881C95.6095 11.9881 94.6502 11.6066 93.8506 10.8436C93.0337 10.0703 92.6253 9.12611 92.6253 8.01102C92.6253 7.41723 92.7265 6.85796 92.929 6.33321C93.0354 6.05358 93.2053 5.76014 93.4387 5.45288C94.2487 4.37922 95.3487 3.84239 96.7387 3.84239C97.885 3.84239 98.8563 4.2325 99.6526 5.01272C100.456 5.79638 100.857 6.76302 100.857 7.91263ZM98.8649 7.92299C98.8649 7.29122 98.6727 6.75267 98.2883 6.30732C97.8799 5.83781 97.3668 5.60306 96.749 5.60306C96.1243 5.60306 95.6095 5.83091 95.2045 6.28661C94.8133 6.72505 94.6176 7.26015 94.6176 7.89192C94.6176 8.5375 94.815 9.08296 95.2097 9.5283C95.6181 9.99436 96.1381 10.2274 96.7696 10.2274C97.3771 10.2274 97.8833 9.99263 98.2883 9.52312C98.6727 9.07778 98.8649 8.5444 98.8649 7.92299ZM98.5766 2.40797L98.0824 1.3671L100.61 0L101.171 1.25318L98.5766 2.40797ZM97.2329 3.29866L96.749 2.6876L96.2651 3.29866H94.5559L96.1981 1.53799H97.3359L98.9215 3.29866H97.2329Z" fill="#072D94"/>
<path d="M109.671 8.90171C109.444 9.82347 108.966 10.5692 108.235 11.1388C107.51 11.705 106.675 11.9881 105.727 11.9881C104.588 11.9881 103.618 11.5945 102.819 10.8074C102.016 10.0168 101.614 9.04844 101.614 7.90228C101.614 6.75957 102.012 5.79466 102.808 5.00754C103.601 4.23077 104.567 3.84239 105.707 3.84239C107.19 3.84239 108.334 4.4569 109.141 5.68591C109.422 6.11054 109.599 6.53863 109.671 6.97016H107.581C107.234 6.05876 106.606 5.60306 105.697 5.60306C105.082 5.60306 104.576 5.83263 104.178 6.29179C103.797 6.73368 103.606 7.26706 103.606 7.89192C103.606 8.52369 103.797 9.06397 104.178 9.51277C104.579 9.98918 105.089 10.2274 105.707 10.2274C106.558 10.2274 107.183 9.7855 107.581 8.90171H109.671Z" fill="#072D94"/>
<path d="M45.2002 31.7528V19.6725H48.266V29.0435H51.823V31.7528H45.2002Z" fill="#072D94"/>
<path d="M65.1717 25.7126C65.1717 27.487 64.5538 28.9798 63.3179 30.191C62.0874 31.3863 60.5875 31.9839 58.8182 31.9839C57.0965 31.9839 55.6203 31.3969 54.3898 30.2229C53.1328 29.0329 52.5043 27.5799 52.5043 25.864C52.5043 24.9503 52.6601 24.0897 52.9717 23.2822C53.1354 22.8519 53.3969 22.4004 53.756 21.9276C55.0024 20.2754 56.6951 19.4493 58.834 19.4493C60.598 19.4493 62.0926 20.0496 63.3179 21.2502C64.5538 22.4561 65.1717 23.9436 65.1717 25.7126ZM62.1058 25.7286C62.1058 24.7564 61.8101 23.9277 61.2186 23.2424C60.5901 22.5199 59.8005 22.1587 58.8499 22.1587C57.8887 22.1587 57.0965 22.5093 56.4733 23.2105C55.8712 23.8852 55.5702 24.7086 55.5702 25.6808C55.5702 26.6742 55.8738 27.5135 56.4812 28.1988C57.1097 28.916 57.9098 29.2746 58.8816 29.2746C59.8164 29.2746 60.5954 28.9134 61.2186 28.1909C61.8101 27.5056 62.1058 26.6848 62.1058 25.7286Z" fill="#072D94"/>
<path d="M74.29 31.7528L69.7189 24.4058L69.6793 24.4217L69.7665 31.7528H66.8274V19.6725H69.4733L74.1157 27.2665L74.1474 27.2346L74.0127 19.6725H76.9518V31.7528H74.29Z" fill="#072D94"/>
<path d="M91.4016 25.5214C91.4016 27.3754 90.7942 28.9187 89.5795 30.1511C88.3595 31.3836 86.8305 31.9999 84.9926 31.9999C83.2181 31.9999 81.7129 31.3916 80.4771 30.175C79.236 28.9479 78.6154 27.4445 78.6154 25.6648C78.6154 23.8799 79.2465 22.3897 80.5088 21.1945C81.7446 20.031 83.2551 19.4493 85.0402 19.4493C86.3711 19.4493 87.6043 19.8398 88.7398 20.6207C89.9175 21.4282 90.6859 22.4615 91.0451 23.7205H87.6069C87.026 22.6793 86.144 22.1587 84.9609 22.1587C83.9997 22.1587 83.2075 22.504 82.5843 23.1946C81.9823 23.8639 81.6812 24.6874 81.6812 25.6648C81.6812 26.6848 81.9743 27.5348 82.5606 28.2148C83.1785 28.9319 83.9839 29.2905 84.9768 29.2905C85.6687 29.2905 86.2654 29.1338 86.7672 28.8204C87.3059 28.4804 87.665 27.989 87.8446 27.3462H84.2638V24.8839H91.3857C91.391 24.9795 91.3963 25.0858 91.4016 25.2027V25.5214Z" fill="#072D94"/>
<path d="M109.9 27.2346C109.551 28.653 108.814 29.8005 107.689 30.6771C106.575 31.5483 105.289 31.9839 103.831 31.9839C102.078 31.9839 100.586 31.3783 99.3553 30.1671C98.1195 28.9505 97.5015 27.4604 97.5015 25.6967C97.5015 23.9383 98.1142 22.4535 99.3395 21.2423C100.559 20.047 102.046 19.4493 103.8 19.4493C106.081 19.4493 107.842 20.3949 109.084 22.2862C109.517 22.9396 109.789 23.5983 109.9 24.2624H106.683C106.15 22.8599 105.183 22.1587 103.784 22.1587C102.838 22.1587 102.059 22.5119 101.447 23.2185C100.86 23.8985 100.567 24.7192 100.567 25.6808C100.567 26.6529 100.86 27.4843 101.447 28.1749C102.065 28.908 102.849 29.2746 103.8 29.2746C105.109 29.2746 106.071 28.5946 106.683 27.2346H109.9Z" fill="#072D94"/>
<path d="M118.487 31.7528V26.9239H114.558V31.7528H111.492V19.6725H114.558V24.2145H118.487V19.6725H121.553V31.7528H118.487Z" fill="#072D94"/>
<path d="M131.463 31.7528L130.877 30.0077H126.71L126.076 31.7528H122.781L127.597 19.6725H130.014L134.791 31.7528H131.463ZM128.833 23.4336H128.786L127.55 27.5614H130.069L128.833 23.4336ZM129.546 18.6126L128.802 17.6723L128.057 18.6126H125.427L127.954 15.9033H129.705L132.145 18.6126H129.546Z" fill="#072D94"/>
<path d="M145.2 26.9717C145.2 27.7951 145.132 28.4618 144.994 28.9718C144.809 29.6252 144.479 30.1936 144.004 30.6771C143.154 31.5483 142.034 31.9839 140.645 31.9839C139.969 31.9839 139.346 31.8856 138.775 31.6891C138.131 31.466 137.603 31.1339 137.191 30.693C136.684 30.1565 136.346 29.5827 136.177 28.9718C136.103 28.6955 136.05 28.3848 136.019 28.0395C135.997 27.7632 135.987 27.4073 135.987 26.9717V19.6725H139.053V26.9717C139.053 27.2904 139.069 27.564 139.1 27.7924C139.142 28.0846 139.214 28.3316 139.314 28.5335C139.557 29.0276 139.99 29.2746 140.613 29.2746C141.258 29.2746 141.691 29.0329 141.913 28.5495C142.002 28.3529 142.066 28.1085 142.103 27.8163C142.124 27.6039 142.134 27.3223 142.134 26.9717V19.6725H145.2V26.9717Z" fill="#072D94"/>
</svg>
