<svg width="40" height="40" viewBox="0 0 40 40" fill="none" xmlns="http://www.w3.org/2000/svg">
<g filter="url(#filter0_b_8966_255633)">
<g clip-path="url(#clip0_8966_255633)">
<rect width="40" height="40" rx="20" fill="white" fill-opacity="0.54"/>
<mask id="mask0_8966_255633" style="mask-type:alpha" maskUnits="userSpaceOnUse" x="0" y="0" width="40" height="40">
<circle cx="20" cy="20" r="20" fill="#9FBFFC"/>
</mask>
<g mask="url(#mask0_8966_255633)">
<circle cx="20" cy="20" r="20" fill="url(#paint0_radial_8966_255633)"/>
<circle cx="19.1815" cy="15.4418" r="7.7193" fill="url(#paint1_radial_8966_255633)"/>
<ellipse cx="19.8835" cy="39.0675" rx="14.7368" ry="14.7368" fill="url(#paint2_radial_8966_255633)"/>
<path opacity="0.3" d="M29.6007 21.9359C30.4916 21.8723 32.1461 20.8541 32.4007 19.1996C32.4007 20.5359 34.0552 21.8087 35.2007 21.9359C34.2674 22.1269 32.4007 23.5778 32.4007 24.7996C32.4007 23.2723 30.3643 22.1269 29.6007 21.9359Z" fill="white"/>
<path opacity="0.3" d="M4.00067 19.945C4.76431 19.8905 6.18249 19.0177 6.40067 17.5995C6.40067 18.745 7.81885 19.8359 8.80067 19.945C8.00067 20.1086 6.40067 21.3523 6.40067 22.3995C6.40067 21.0905 4.65522 20.1086 4.00067 19.945Z" fill="white"/>
<path opacity="0.1" d="M25.6008 5.95357C26.2371 5.90811 27.419 5.18084 27.6008 3.99902C27.6008 4.95357 28.7826 5.86266 29.6008 5.95357C28.9341 6.08993 27.6008 7.1263 27.6008 7.99902C27.6008 6.90811 26.1462 6.08993 25.6008 5.95357Z" fill="white"/>
</g>
</g>
<rect x="0.75" y="0.75" width="38.5" height="38.5" rx="19.25" stroke="#C1D0F6" stroke-width="1.5" stroke-miterlimit="10"/>
</g>
<defs>
<filter id="filter0_b_8966_255633" x="-36.9231" y="-36.9231" width="113.846" height="113.846" filterUnits="userSpaceOnUse" color-interpolation-filters="sRGB">
<feFlood flood-opacity="0" result="BackgroundImageFix"/>
<feGaussianBlur in="BackgroundImageFix" stdDeviation="18.4615"/>
<feComposite in2="SourceAlpha" operator="in" result="effect1_backgroundBlur_8966_255633"/>
<feBlend mode="normal" in="SourceGraphic" in2="effect1_backgroundBlur_8966_255633" result="shape"/>
</filter>
<radialGradient id="paint0_radial_8966_255633" cx="0" cy="0" r="1" gradientUnits="userSpaceOnUse" gradientTransform="translate(8.30409 30.7602) rotate(-49.7931) scale(36.0869 51.9343)">
<stop stop-color="#81ACFF"/>
<stop offset="1" stop-color="#1264FF"/>
</radialGradient>
<radialGradient id="paint1_radial_8966_255633" cx="0" cy="0" r="1" gradientUnits="userSpaceOnUse" gradientTransform="translate(21.4037 11.4652) rotate(111.922) scale(10.3381 17.2665)">
<stop stop-color="#E6EFFF"/>
<stop offset="1" stop-color="#9CBDFF"/>
</radialGradient>
<radialGradient id="paint2_radial_8966_255633" cx="0" cy="0" r="1" gradientUnits="userSpaceOnUse" gradientTransform="translate(23.8601 28.0733) rotate(107.227) scale(15.7964 26.3827)">
<stop stop-color="#E6EFFF"/>
<stop offset="1" stop-color="#9CBDFF"/>
</radialGradient>
<clipPath id="clip0_8966_255633">
<rect width="40" height="40" rx="20" fill="white"/>
</clipPath>
</defs>
</svg>
