<svg width="26" height="26" viewBox="0 0 26 26" fill="none" xmlns="http://www.w3.org/2000/svg">
<g clip-path="url(#clip0_3751_17406)">
<rect width="26" height="26" rx="13" fill="#F0FBFF" fill-opacity="0.16"/>
<path d="M9.1461 11.5699C8.6169 11.5699 8.25452 11.6904 8.45934 13.063C8.66417 14.4356 8.92923 14.8239 9.38615 14.6515C9.62712 15.7832 10.2045 16.6256 10.6837 17.0612C10.7078 18.4579 10.6837 19.0835 10.6837 19.0835C8.54183 19.2522 7.69936 20.9853 8.25266 22.4775C8.80597 23.9696 13.8376 26.1847 16.5337 24.6444C19.2298 23.104 20.0722 19.3968 16.6264 19.1317C16.4095 19.1076 16.048 19.0835 16.048 19.0835C16.048 17.8073 16.0239 17.0612 16.0239 17.0612C16.6982 16.4571 17.127 15.6262 17.2288 14.7266C17.4457 14.8712 17.9508 14.7989 18.2158 13.2576C18.4809 11.7163 17.7274 11.923 17.7339 11.5727C17.7821 9.14168 17.6143 7.28807 14.1193 7.38445C10.6244 7.48084 9.31478 6.94885 9.1461 11.5699Z" fill="url(#paint0_linear_3751_17406)"/>
<path d="M18.2209 13.2548C17.9559 14.7961 17.4508 14.8684 17.2339 14.7238C17.1321 15.6234 16.7033 16.4543 16.0291 17.0584C16.0291 17.0584 16.0457 17.5728 16.0513 18.4792C15.4804 19.0474 14.7204 19.5988 13.9113 19.6099C12.4099 19.6313 11.4627 18.735 10.6953 18.064C10.6953 17.786 10.6953 17.456 10.6851 17.0612C11.4497 17.7804 12.4108 18.431 13.3089 18.431C14.6815 18.431 16.0291 16.6015 16.511 15.4699C16.9929 14.3383 17.0281 9.72371 16.3423 8.92202C15.5888 8.04341 14.8261 8.89792 13.598 8.82934C12.37 8.76075 12.0104 8.17038 11.0716 8.22599C9.60536 8.31032 9.55531 12.4624 9.21795 12.4383C9.14381 12.0407 9.09284 11.7645 9.05762 11.5727H9.14566C9.31434 6.9507 10.6378 7.48083 14.1291 7.38445C17.6204 7.28806 17.7872 9.14538 17.7436 11.5727C17.7325 11.9202 18.486 11.7145 18.2209 13.2548Z" fill="url(#paint1_linear_3751_17406)"/>
<path d="M16.7495 5.95319C15.2981 4.2905 11.7308 2.74922 10.159 3.89754C9.3128 4.27938 9.3128 5.2275 8.86145 5.56023C8.41009 5.89295 7.61953 6.46479 7.86142 7.19326C8.10332 7.92173 8.56394 8.20533 8.61677 8.97644C8.6696 9.74754 7.92167 10.4278 8.49629 10.9116C9.25163 9.91344 10.1886 6.67888 11.4889 6.80029C12.7893 6.92171 16.7495 5.95319 16.7495 5.95319Z" fill="url(#paint2_linear_3751_17406)"/>
<path d="M9.25237 12.6652C9.73616 12.6652 9.06701 8.79482 10.5221 8.03947C11.7622 7.46485 11.9123 8.22483 13.4545 8.22483C14.9967 8.22483 15.5407 7.52881 16.513 8.49639C17.4852 9.46398 16.9059 12.3658 17.5102 12.427C17.7827 12.427 17.7224 11.7615 18.0246 11.5502C18.3267 11.3389 18.5686 11.4575 18.6594 9.10159C18.6594 7.10618 18.8402 6.04314 17.0839 5.6548C16.2674 5.44349 16.2368 4.98936 15.4212 5.08018C14.6056 5.17101 13.9476 3.92631 12.156 4.38508C10.8585 4.7178 11.1801 5.24052 10.4322 5.62422C9.19305 5.80958 8.83067 6.01718 8.83067 6.56214C8.83067 7.10711 9.16247 7.46856 9.13281 8.31566C9.10315 9.16276 8.19488 10.3064 8.49702 10.9135C8.79916 11.5206 9.04105 11.5178 9.04105 11.9413C9.04105 12.3649 8.95023 12.7254 9.25237 12.6652Z" fill="url(#paint3_linear_3751_17406)"/>
<path d="M3.25 22.3897C4.75884 20.6445 6.90162 19.2914 10.6858 19.0801C8.27607 19.6102 8.55411 22.3332 13.5292 22.4796C18.0298 22.2349 18.1354 19.5036 16.6322 19.1283C18.9974 19.2562 22.8269 20.4935 25.1875 23.4731C24.7658 28.1155 16.7638 28.2703 13.5514 28.1517C10.3391 28.033 3.94603 25.64 3.25 22.3897Z" fill="url(#paint4_linear_3751_17406)"/>
</g>
<rect x="0.75" y="0.75" width="24.5" height="24.5" rx="12.25" stroke="#C1D0F6" stroke-width="1.5" stroke-miterlimit="10"/>
<defs>
<linearGradient id="paint0_linear_3751_17406" x1="7.9088" y1="19.7891" x2="12.6253" y2="5.84059" gradientUnits="userSpaceOnUse">
<stop stop-color="#FBDAD0"/>
<stop offset="1" stop-color="#FDE5DE"/>
</linearGradient>
<linearGradient id="paint1_linear_3751_17406" x1="9.47827" y1="18.094" x2="25.7663" y2="-0.00590164" gradientUnits="userSpaceOnUse">
<stop stop-color="#FAD2C6"/>
<stop offset="1" stop-color="#FBDAD0"/>
</linearGradient>
<linearGradient id="paint2_linear_3751_17406" x1="10.2557" y1="8.19002" x2="12.1262" y2="3.18441" gradientUnits="userSpaceOnUse">
<stop offset="0.00833962" stop-color="#20588C"/>
<stop offset="0.924183" stop-color="#054178"/>
</linearGradient>
<linearGradient id="paint3_linear_3751_17406" x1="11.2288" y1="9.59143" x2="13.3272" y2="3.90997" gradientUnits="userSpaceOnUse">
<stop offset="0.00833962" stop-color="#19446D"/>
<stop offset="0.924183" stop-color="#05427B"/>
</linearGradient>
<linearGradient id="paint4_linear_3751_17406" x1="21.9748" y1="26.8434" x2="17.4242" y2="15.8674" gradientUnits="userSpaceOnUse">
<stop stop-color="#306DE4"/>
<stop offset="1" stop-color="#769DEA"/>
</linearGradient>
<clipPath id="clip0_3751_17406">
<rect width="26" height="26" rx="13" fill="white"/>
</clipPath>
</defs>
</svg>
