<svg width="1440" height="114" viewBox="0 0 1440 114" fill="none"
    xmlns="http://www.w3.org/2000/svg">
    <g clip-path="url(#clip0_1244_553116)">
        <rect x="-1" y="-36" width="1441" height="150" fill="url(#paint0_linear_1244_553116)"/>
        <path d="M5.89408 32.8421C15.993 31.7186 33.0118 32.2658 44.5343 35.7479C56.0568 39.23 63.9125 36.914 62.8114 34.0053C61.7104 31.0967 55.5466 28.6105 43.9879 28.2258C40.9701 28.182 35.8401 29.1633 36.346 25.8303C36.6498 24.2744 44.8528 26.0238 44.3679 21.9916C43.883 17.9594 35.2144 15.9631 27.5202 16.2848C19.826 16.6066 10.8952 18.1813 12.4219 21.1297C13.9486 24.0781 20.4172 21.7537 18.7608 24.9252C17.1043 28.0968 0.184321 24.6872 2.28549 31.2374C2.72226 32.9738 5.89408 32.8421 5.89408 32.8421Z" fill="url(#paint1_linear_1244_553116)"/>
        <path d="M5.89408 32.8421C15.993 31.7186 33.0118 32.2658 44.5343 35.7479C56.0568 39.23 63.9125 36.914 62.8114 34.0053C61.7104 31.0967 55.5466 28.6105 43.9879 28.2258C40.9701 28.182 35.8401 29.1633 36.346 25.8303C36.6498 24.2744 44.8528 26.0238 44.3679 21.9916C43.883 17.9594 35.2144 15.9631 27.5202 16.2848C19.826 16.6066 10.8952 18.1813 12.4219 21.1297C13.9486 24.0781 20.4172 21.7537 18.7608 24.9252C17.1043 28.0968 0.184321 24.6872 2.28549 31.2374C2.72226 32.9738 5.89408 32.8421 5.89408 32.8421Z" fill="url(#paint2_linear_1244_553116)"/>
        <path d="M1391.63 32.8421C1381.53 31.7186 1364.51 32.2658 1352.99 35.7479C1341.47 39.23 1333.61 36.914 1334.71 34.0053C1335.81 31.0967 1341.98 28.6105 1353.54 28.2258C1356.55 28.182 1361.68 29.1633 1361.18 25.8303C1360.87 24.2744 1352.67 26.0238 1353.16 21.9916C1353.64 17.9594 1362.31 15.9631 1370 16.2848C1377.7 16.6066 1386.63 18.1813 1385.1 21.1297C1383.58 24.0781 1377.11 21.7537 1378.76 24.9252C1380.42 28.0968 1397.34 24.6872 1395.24 31.2374C1394.8 32.9738 1391.63 32.8421 1391.63 32.8421Z" fill="url(#paint3_linear_1244_553116)"/>
        <path d="M1391.63 32.8421C1381.53 31.7186 1364.51 32.2658 1352.99 35.7479C1341.47 39.23 1333.61 36.914 1334.71 34.0053C1335.81 31.0967 1341.98 28.6105 1353.54 28.2258C1356.55 28.182 1361.68 29.1633 1361.18 25.8303C1360.87 24.2744 1352.67 26.0238 1353.16 21.9916C1353.64 17.9594 1362.31 15.9631 1370 16.2848C1377.7 16.6066 1386.63 18.1813 1385.1 21.1297C1383.58 24.0781 1377.11 21.7537 1378.76 24.9252C1380.42 28.0968 1397.34 24.6872 1395.24 31.2374C1394.8 32.9738 1391.63 32.8421 1391.63 32.8421Z" fill="url(#paint4_linear_1244_553116)"/>
        <path d="M1113.29 123.859C1124.33 114.499 1144.35 111.886 1160.88 110.638C1170.73 110.084 1182.66 112.013 1187.91 108.008C1193.17 104.003 1194.14 101.595 1203.09 103.115C1212.04 104.636 1267.02 120.181 1285.02 144.964C1206.05 136.539 1113.29 123.859 1113.29 123.859Z" fill="url(#paint5_linear_1244_553116)"/>
        <path d="M1259.32 85.7364C1259.32 85.7364 1258.54 89.0203 1259.9 90.1617C1261.25 91.3031 1262.89 88.3061 1263.96 86.4506C1268.81 91.7303 1267.61 87.6654 1267.17 85.7364C1268.83 87.3984 1269.51 87.8322 1272.73 88.4063C1268.81 81.5647 1267.14 77.6466 1263.79 79.1017C1261.83 79.9628 1257.83 82.8796 1253.36 89.0003C1254.94 88.9603 1257.51 86.8444 1259.32 85.7364Z" fill="url(#paint6_linear_1244_553116)"/>
        <path d="M1239.31 120.952C1274.02 118.095 1376.52 115.3 1376.52 115.3C1285.02 115.3 1281.83 102.917 1275.64 93.192C1274.54 91.4566 1273.58 89.8547 1272.73 88.3529C1269.51 87.8122 1268.83 87.3784 1267.17 85.683C1267.61 87.612 1268.81 91.6902 1263.96 86.3972C1262.89 88.2527 1261.25 91.2497 1259.9 90.1083C1258.54 88.9669 1259.32 85.683 1259.32 85.683C1257.51 86.811 1254.94 88.9269 1253.36 88.9135C1248.58 95.5015 1243.25 105.707 1239.31 120.952Z" fill="url(#paint7_linear_1244_553116)"/>
        <path d="M1239.31 120.952C1274.02 118.095 1376.52 115.3 1376.52 115.3C1285.02 115.3 1281.83 102.917 1275.64 93.192C1274.54 91.4566 1273.58 89.8547 1272.73 88.3529C1269.51 87.8122 1268.83 87.3784 1267.17 85.683C1267.61 87.612 1268.81 91.6902 1263.96 86.3972C1262.89 88.2527 1261.25 91.2497 1259.9 90.1083C1258.54 88.9669 1259.32 85.683 1259.32 85.683C1257.51 86.811 1254.94 88.9269 1253.36 88.9135C1248.58 95.5015 1243.25 105.707 1239.31 120.952Z" fill="url(#paint8_linear_1244_553116)"/>
        <path d="M1234.08 110.265C1234.44 113.879 1234.73 117.014 1235.55 117.772C1234.08 118.817 1231.56 117.587 1231.56 117.587C1232.2 115.876 1232.97 115.21 1232.85 110.358C1232.74 105.505 1234.08 110.265 1234.08 110.265Z" fill="#CBCAE0"/>
        <path d="M1228.08 95.9232C1229.14 95.6368 1229.63 93.9573 1230.09 94.0424C1230.55 94.1276 1229.22 95.451 1230.25 96.225C1231.28 96.999 1231.88 94.7235 1232.47 94.5997C1233.05 94.4758 1232.47 96.4804 1233.46 97.2699C1234.46 98.0593 1234.32 95.8071 1234.9 95.3117C1235.48 94.8164 1235.77 98.485 1237.12 98.3612C1238.46 98.2373 1236.53 95.7297 1237.12 95.3504C1237.34 95.1956 1237.8 95.513 1238.35 95.9619C1238.2 95.5981 1238.05 95.1879 1237.9 94.8009C1236.96 92.1152 1235.97 89.2593 1231.99 91.767C1230.43 92.889 1229.11 94.3001 1228.08 95.9232Z" fill="url(#paint9_linear_1244_553116)"/>
        <path d="M1225.72 109.305C1227.86 111.364 1236.19 111.503 1236.19 111.503C1240.93 111.573 1243.89 108.547 1241.89 103.663C1240.21 99.5299 1239.21 97.9587 1238.36 95.9232C1237.81 95.4743 1237.35 95.1492 1237.12 95.3118C1236.54 95.691 1238.46 98.1987 1237.12 98.3225C1235.79 98.4463 1235.49 94.7777 1234.9 95.2731C1234.32 95.7684 1234.48 98.0284 1233.47 97.2312C1232.47 96.434 1233.06 94.4294 1232.47 94.561C1231.88 94.6926 1231.3 96.999 1230.25 96.225C1229.21 95.4511 1230.58 94.1508 1230.09 94.0502C1229.6 93.9496 1229.15 95.6446 1228.08 95.9309C1225.12 100.281 1222.9 106.519 1225.72 109.305Z" fill="url(#paint10_linear_1244_553116)"/>
        <path d="M1225.72 109.305C1227.86 111.364 1236.19 111.503 1236.19 111.503C1240.93 111.573 1243.89 108.547 1241.89 103.663C1240.21 99.5299 1239.21 97.9587 1238.36 95.9232C1237.81 95.4743 1237.35 95.1492 1237.12 95.3118C1236.54 95.691 1238.46 98.1987 1237.12 98.3225C1235.79 98.4463 1235.49 94.7777 1234.9 95.2731C1234.32 95.7684 1234.48 98.0284 1233.47 97.2312C1232.47 96.434 1233.06 94.4294 1232.47 94.561C1231.88 94.6926 1231.3 96.999 1230.25 96.225C1229.21 95.4511 1230.58 94.1508 1230.09 94.0502C1229.6 93.9496 1229.15 95.6446 1228.08 95.9309C1225.12 100.281 1222.9 106.519 1225.72 109.305Z" fill="url(#paint11_linear_1244_553116)"/>
        <path d="M288.228 123.859C277.191 114.499 257.167 111.886 240.642 110.638C230.795 110.084 218.865 112.013 213.61 108.008C208.354 104.003 207.384 101.595 198.432 103.115C189.479 104.636 134.502 120.181 116.497 144.964C195.473 136.539 288.228 123.859 288.228 123.859Z" fill="url(#paint12_linear_1244_553116)"/>
        <path d="M142.32 85.7364C142.32 85.7364 141.54 89.0203 142.895 90.1617C144.249 91.3031 145.891 88.3061 146.959 86.4506C151.812 91.7303 150.604 87.6654 150.17 85.7364C151.832 87.3984 152.506 87.8322 155.73 88.4063C151.805 81.5647 150.137 77.6466 146.793 79.1017C144.83 79.9628 140.825 82.8796 136.353 89.0003C137.942 88.9603 140.512 86.8444 142.32 85.7364Z" fill="url(#paint13_linear_1244_553116)"/>
        <path d="M122.31 120.952C157.018 118.095 259.523 115.3 259.523 115.3C168.023 115.3 164.827 102.917 158.64 93.192C157.539 91.4566 156.578 89.8547 155.73 88.3529C152.506 87.8122 151.832 87.3784 150.17 85.683C150.604 87.612 151.812 91.6902 146.959 86.3972C145.891 88.2527 144.249 91.2497 142.894 90.1083C141.539 88.9669 142.32 85.683 142.32 85.683C140.512 86.811 137.942 88.9269 136.353 88.9135C131.574 95.5015 126.248 105.707 122.31 120.952Z" fill="url(#paint14_linear_1244_553116)"/>
        <path d="M122.31 120.952C157.018 118.095 259.523 115.3 259.523 115.3C168.023 115.3 164.827 102.917 158.64 93.192C157.539 91.4566 156.578 89.8547 155.73 88.3529C152.506 87.8122 151.832 87.3784 150.17 85.683C150.604 87.612 151.812 91.6902 146.959 86.3972C145.891 88.2527 144.249 91.2497 142.894 90.1083C141.539 88.9669 142.32 85.683 142.32 85.683C140.512 86.811 137.942 88.9269 136.353 88.9135C131.574 95.5015 126.248 105.707 122.31 120.952Z" fill="url(#paint15_linear_1244_553116)"/>
        <path d="M117.082 110.265C117.438 113.879 117.733 117.014 118.553 117.772C117.082 118.817 114.559 117.587 114.559 117.587C115.202 115.876 115.968 115.21 115.852 110.358C115.736 105.505 117.082 110.265 117.082 110.265Z" fill="#CBCAE0"/>
        <path d="M111.084 95.9232C112.144 95.6368 112.632 93.9573 113.089 94.0424C113.545 94.1276 112.222 95.451 113.251 96.225C114.281 96.999 114.884 94.7235 115.465 94.5997C116.045 94.4758 115.465 96.4804 116.463 97.2699C117.462 98.0593 117.315 95.8071 117.895 95.3117C118.476 94.8164 118.77 98.485 120.116 98.3612C121.463 98.2373 119.528 95.7297 120.116 95.3504C120.341 95.1956 120.797 95.513 121.347 95.9619C121.2 95.5981 121.045 95.1879 120.898 94.8009C119.962 92.1152 118.971 89.2593 114.985 91.767C113.43 92.889 112.105 94.3001 111.084 95.9232Z" fill="url(#paint16_linear_1244_553116)"/>
        <path d="M108.724 109.305C110.86 111.364 119.188 111.503 119.188 111.503C123.932 111.573 126.889 108.547 124.892 103.663C123.205 99.5299 122.214 97.9587 121.355 95.9232C120.806 95.4743 120.349 95.1492 120.124 95.3118C119.536 95.691 121.463 98.1987 120.124 98.3225C118.786 98.4463 118.491 94.7777 117.903 95.2731C117.315 95.7684 117.478 98.0284 116.471 97.2312C115.465 96.434 116.061 94.4294 115.473 94.561C114.885 94.6926 114.297 96.999 113.252 96.225C112.207 95.4511 113.577 94.1508 113.089 94.0502C112.602 93.9496 112.145 95.6446 111.085 95.9309C108.12 100.281 105.899 106.519 108.724 109.305Z" fill="url(#paint17_linear_1244_553116)"/>
        <path d="M108.724 109.305C110.86 111.364 119.188 111.503 119.188 111.503C123.932 111.573 126.889 108.547 124.892 103.663C123.205 99.5299 122.214 97.9587 121.355 95.9232C120.806 95.4743 120.349 95.1492 120.124 95.3118C119.536 95.691 121.463 98.1987 120.124 98.3225C118.786 98.4463 118.491 94.7777 117.903 95.2731C117.315 95.7684 117.478 98.0284 116.471 97.2312C115.465 96.434 116.061 94.4294 115.473 94.561C114.885 94.6926 114.297 96.999 113.252 96.225C112.207 95.4511 113.577 94.1508 113.089 94.0502C112.602 93.9496 112.145 95.6446 111.085 95.9309C108.12 100.281 105.899 106.519 108.724 109.305Z" fill="url(#paint18_linear_1244_553116)"/>
        <path d="M83.299 113.036C85.8745 113.036 87.9623 109.905 87.9623 106.043C87.9623 102.181 85.8745 99.0498 83.299 99.0498C80.7236 99.0498 78.6357 102.181 78.6357 106.043C78.6357 109.905 80.7236 113.036 83.299 113.036Z" fill="#FEB03E"/>
        <path d="M55.6633 112.986C58.2388 112.986 60.3266 109.855 60.3266 105.993C60.3266 102.131 58.2388 99 55.6633 99C53.0878 99 51 102.131 51 105.993C51 109.855 53.0878 112.986 55.6633 112.986Z" fill="#FEB03E"/>
        <path d="M71.5311 53.4863C60.2232 53.4241 36.0279 52.9474 34.4569 55.0366C24.7738 54.5391 6.68855 53.6645 1.14648 54.3568C4.4626 51.8697 32.5294 50.9039 41.0601 51.0075C48.3639 51.4469 64.5051 51.8282 71.5311 53.4863Z" fill="#FFC16F"/>
        <path d="M61.3464 106.644V106.681C14.6678 106.681 -0.490985 106.266 -0.490985 106.266C-3.79053 77.5281 -4.29209 64.3839 0.794011 54.6676C0.898279 54.55 1.01661 54.4456 1.14635 54.3568C6.70085 53.6645 22.1374 53.221 34.4692 55.0449C30.038 64.5124 35.2941 106.544 61.3464 106.644Z" fill="url(#paint19_linear_1244_553116)"/>
        <g opacity="0.62">
            <path d="M15.3848 91.1209C21.8839 90.9666 27.0258 85.5043 26.8695 78.9207C26.7132 72.337 21.3179 67.1249 14.8188 67.2792C8.31962 67.4335 3.17773 72.8957 3.33404 79.4794C3.49034 86.0631 8.88565 91.2752 15.3848 91.1209Z" fill="url(#paint20_linear_1244_553116)"/>
            <path d="M11.5823 67.7219C9.00458 68.4988 7.34076 69.7048 5.87524 71.4948C5.83017 71.5002 5.80674 71.502 5.80674 71.502L4.48722 73.4055C4.48722 73.4055 0.177173 80.7186 6.42323 87.5649L23.1353 70.7683C20.1591 67.7562 15.6634 66.4907 11.5841 67.7201L11.5823 67.7219Z" fill="url(#paint21_linear_1244_553116)"/>
        </g>
        <path d="M20.9844 83.1398C18.7329 86.5539 14.138 87.4948 10.7239 85.2416C7.31155 82.9883 6.37059 78.3935 8.62385 74.9812C10.8753 71.5671 15.4702 70.6261 18.8861 72.8794C22.2985 75.1308 23.2394 79.7256 20.9862 83.1398H20.9844Z" fill="url(#paint22_linear_1244_553116)"/>
        <g style="mix-blend-mode:screen">
            <path d="M20.7773 74.8945L10.4556 85.2522L9.85352 85.099L20.3159 74.6367L20.7773 74.8945Z" fill="#E6E8E2"/>
        </g>
        <g style="mix-blend-mode:multiply">
            <path d="M20.7771 74.8948L10.5707 85.1371L9.4729 84.517L19.9173 74.0367L20.7771 74.8948Z" fill="#E6E8E2"/>
        </g>
        <path d="M18.91 85.7065C16.3304 87.2982 13.0298 87.2477 10.5008 85.5785C6.90635 83.2045 5.91311 78.3501 8.28535 74.7557C8.91626 73.7986 9.72924 73.009 10.699 72.4106C13.2786 70.8189 16.5792 70.8712 19.1082 72.5386C20.8496 73.6868 22.0375 75.4461 22.4557 77.4903C22.8739 79.5344 22.4719 81.6182 21.3219 83.3595C20.6909 84.3167 19.878 85.1063 18.9081 85.7029L18.91 85.7065ZM11.1245 73.1028C10.2556 73.6381 9.52915 74.3448 8.96133 75.2046C6.83424 78.4258 7.72654 82.7773 10.9478 84.9044C13.2137 86.4005 16.1736 86.4438 18.4845 85.0179C19.3534 84.4826 20.0799 83.7759 20.6477 82.9161C21.677 81.3551 22.0393 79.4876 21.6644 77.6561C21.2894 75.8247 20.2241 74.2474 18.663 73.2181C16.3953 71.722 13.4372 71.6769 11.1245 73.1028Z" fill="url(#paint23_linear_1244_553116)"/>
        <path d="M78.7808 106.681C72.8699 106.681 67.6511 106.681 63.0583 106.644C41.089 106.544 33.5117 106.279 33.5117 106.279C31.0992 77.7188 30.7344 64.6782 34.4567 55.0448C35.779 52.9184 45.2756 51.9111 54.8011 51.9733C63.9909 52.0272 73.2098 53.0676 75.1124 55.0448C78.2212 60.533 79.0171 81.4495 78.7808 106.681Z" fill="url(#paint24_linear_1244_553116)"/>
        <path d="M75.942 69.2628C63.5066 67.6503 41.8689 69.2628 37.3921 72.3716C35.4232 74.2121 32.9403 87.3771 35.6512 106.681C73.3265 106.619 74.3586 106.681 74.3586 106.681L75.942 69.2628Z" fill="url(#paint25_linear_1244_553116)"/>
        <path d="M89.2803 82.2454C92.3601 82.3614 94.3539 83.2941 94.3166 86.2164C94.2793 89.1387 91.1166 89.5325 91.1166 89.5325L89.2803 82.2454Z" fill="#FEB03E"/>
        <path d="M55.1952 106.279C56.3268 103.949 58.0553 95.9699 49.7402 89.3169C48.5422 88.5211 47.8127 79.4059 48.2106 75.7498C48.6085 72.0938 49.6116 69.9466 58.1589 69.0513C66.7062 68.1559 74.6028 68.2223 80.2236 69.8803C85.8444 71.5384 87.8548 74.668 91.6725 87.7832C94.8684 89.0019 99.4446 95.0331 95.8176 105.098C77.7862 105.102 55.1952 106.279 55.1952 106.279Z" fill="url(#paint26_linear_1244_553116)"/>
        <path opacity="0.7" d="M38.5151 75.6007C38.5151 75.6007 37.8684 87.261 37.4912 89.6942C40.0736 90.0714 44.853 90.0465 44.853 90.0465C45.9266 82.8339 45.8769 77.4453 44.3183 76.3178C42.7597 75.1903 38.5151 75.6007 38.5151 75.6007Z" fill="url(#paint27_linear_1244_553116)"/>
        <path d="M55.0756 105.073H-1.0166V108.285H55.0756V105.073Z" fill="#FF7F33"/>
        <path d="M97.1526 105.073H55.0793V108.285H97.1526V105.073Z" fill="#FFC6A5"/>
        <path d="M68.6211 95.6674C68.9334 97.2906 69.0585 98.9443 68.9942 100.596H87.6017C87.8256 98.0591 87.4732 96.5627 87.0256 95.6674C81.5623 95.5182 68.6211 95.6674 68.6211 95.6674Z" fill="#FFC6A5"/>
        <path d="M86.2044 96.8114H69.6238V97.1472H86.2044V96.8114Z" fill="#FEB03E"/>
        <path d="M86.6158 97.9305H70.0352V98.2663H86.6158V97.9305Z" fill="#FEB03E"/>
        <path d="M86.6158 99.0498H70.0352V99.6218H86.6158V99.0498Z" fill="#FEB03E"/>
        <path d="M95.8737 99.9671C97.048 98.6802 96.6674 96.4211 95.0237 94.9212C93.3799 93.4213 91.0955 93.2486 89.9212 94.5356C88.7469 95.8225 89.1274 98.0816 90.7712 99.5815C92.4149 101.081 94.6994 101.254 95.8737 99.9671Z" fill="url(#paint28_linear_1244_553116)"/>
        <path d="M94.4126 94.4363L90.7317 99.5431C90.0817 98.9492 89.6108 98.1854 89.3721 97.3379L92.0291 93.6694C92.8816 93.6856 93.7106 93.9523 94.4126 94.4363Z" fill="url(#paint29_linear_1244_553116)"/>
        <path d="M96.369 96.9855L93.6042 100.824C92.759 100.777 91.9449 100.49 91.2581 99.9949L94.9597 94.8798L95.0219 94.9336C95.644 95.4869 96.1087 96.1947 96.369 96.9855Z" fill="url(#paint30_linear_1244_553116)"/>
        <path d="M66.7289 100.561C67.9032 99.2744 67.5226 97.0153 65.8789 95.5154C64.2352 94.0155 61.9507 93.8429 60.7764 95.1298C59.6021 96.4167 59.9827 98.6759 61.6264 100.176C63.2701 101.676 65.5546 101.848 66.7289 100.561Z" fill="url(#paint31_linear_1244_553116)"/>
        <path d="M65.268 95.0332L61.5871 100.14C60.9372 99.5461 60.4663 98.7823 60.2275 97.9348L62.8846 94.2664C63.7371 94.2825 64.566 94.5492 65.268 95.0332Z" fill="url(#paint32_linear_1244_553116)"/>
        <path d="M67.2318 97.5824L64.467 101.421C63.6218 101.374 62.8077 101.087 62.1208 100.592L65.81 95.4601L65.8722 95.514C66.5013 96.0703 66.9706 96.7843 67.2318 97.5824Z" fill="url(#paint33_linear_1244_553116)"/>
        <path d="M54.4862 89.1594C63.7547 88.9315 76.8161 88.4133 88.7832 88.8154C84.5924 79.5095 84.953 73.0638 75.1042 71.9778C65.2553 70.8918 53.8686 72.6825 53.3297 75.5219C52.7908 78.3613 52.8654 84.836 54.4862 89.1594Z" fill="url(#paint34_linear_1244_553116)"/>
        <path d="M82.2243 74.8876L72.2469 88.72L69.25 88.7739L80.3175 73.4741C81.014 73.8571 81.6554 74.3325 82.2243 74.8876Z" fill="url(#paint35_linear_1244_553116)"/>
        <path d="M77.1392 72.3135L65.2011 88.8692L58.9502 89.0392H54.4445C53.7972 87.1621 53.3797 85.2135 53.2009 83.236L62.3203 72.0441C66.5492 71.5486 70.82 71.525 75.0542 71.9736C75.7549 72.0485 76.4509 72.162 77.1392 72.3135Z" fill="url(#paint36_linear_1244_553116)"/>
        <path d="M84.1574 77.4825L76.0868 88.6744C75.0878 88.6744 74.093 88.6744 73.1064 88.7076L82.7273 75.4141C83.2786 76.0489 83.7582 76.7426 84.1574 77.4825Z" fill="url(#paint37_linear_1244_553116)"/>
        <path d="M49.3005 83.1074C49.5409 84.6577 49.9637 87.9365 49.7731 90.0298C47.286 90.2454 44.4341 88.8816 44.6372 86.1127C44.8403 83.3437 49.3005 83.1074 49.3005 83.1074Z" fill="#FEB03E"/>
        <path d="M44.6379 114.018C47.2134 114.018 49.3012 110.887 49.3012 107.025C49.3012 103.163 47.2134 100.032 44.6379 100.032C42.0624 100.032 39.9746 103.163 39.9746 107.025C39.9746 110.887 42.0624 114.018 44.6379 114.018Z" fill="#FEB03E"/>
        <path d="M43.5883 111.854C45.3145 111.854 46.7138 110.076 46.7138 107.883C46.7138 105.69 45.3145 103.912 43.5883 103.912C41.8622 103.912 40.4629 105.69 40.4629 107.883C40.4629 110.076 41.8622 111.854 43.5883 111.854Z" fill="#FCE7C0"/>
        <path d="M18.1818 114.018C20.7573 114.018 22.8451 110.887 22.8451 107.025C22.8451 103.163 20.7573 100.032 18.1818 100.032C15.6064 100.032 13.5186 103.163 13.5186 107.025C13.5186 110.887 15.6064 114.018 18.1818 114.018Z" fill="#FEB03E"/>
        <path d="M17.1303 111.854C18.8565 111.854 20.2558 110.076 20.2558 107.883C20.2558 105.69 18.8565 103.912 17.1303 103.912C15.4042 103.912 14.0049 105.69 14.0049 107.883C14.0049 110.076 15.4042 111.854 17.1303 111.854Z" fill="#FCE7C0"/>
        <path d="M1321.93 99.3243V115H1349.93V85L1321.93 99.3243Z" fill="#FCE7C0"/>
        <path d="M1352.93 50.2263V117.531H1428.78V7L1352.93 50.2263Z" fill="#FFD89E"/>
        <path d="M1428.78 7L1465.93 21.4523V117.531H1428.78V7Z" fill="url(#paint38_linear_1244_553116)"/>
        <path d="M1357.33 53.6354L1425.37 14.7888V117.53H1357.33V53.6354Z" fill="#FFC6A5"/>
        <path d="M1359.04 117.53V54.8344L1384.11 40.7817V117.53H1359.04Z" fill="url(#paint39_linear_1244_553116)"/>
        <path d="M1359.04 117.53V54.8344L1384.11 40.7817V117.53H1359.04Z" fill="url(#paint40_linear_1244_553116)"/>
        <path d="M1387.21 117.531V39.069L1422.97 19.1849V117.531H1387.21Z" fill="url(#paint41_linear_1244_553116)"/>
        <g opacity="0.34">
            <path d="M1422.96 30.5624V49.7858L1392.43 97.5305H1387.21V86.5853L1422.96 30.5624Z" fill="url(#paint42_linear_1244_553116)"/>
            <path d="M1422.96 54.3613V73.5522L1407.63 97.5305H1395.41L1422.96 54.3613Z" fill="url(#paint43_linear_1244_553116)"/>
            <path d="M1384.11 51.2213V70.404L1366.76 97.5305H1359.04V90.5001L1384.11 51.2213Z" fill="url(#paint44_linear_1244_553116)"/>
            <path d="M1376.55 45.0228L1359.04 72.3369V66.0324L1370.16 48.6033L1376.55 45.0228Z" fill="url(#paint45_linear_1244_553116)"/>
            <path d="M1421.33 20.0902L1387.21 73.4624V39.0608L1394.44 35.0481L1394.44 35.04L1398.28 32.9031L1421.33 20.0902Z" fill="url(#paint46_linear_1244_553116)"/>
        </g>
    </g>
    <defs>
        <linearGradient id="paint0_linear_1244_553116" x1="-89.5" y1="39.0003" x2="1493" y2="97.0002" gradientUnits="userSpaceOnUse">
            <stop stop-color="#FEE4B5"/>
            <stop offset="0.493292" stop-color="#D5E9F9"/>
            <stop offset="0.744772" stop-color="#DFE7EC"/>
            <stop offset="0.899769" stop-color="#FFE8BA"/>
            <stop offset="1" stop-color="#FFE2B0"/>
        </linearGradient>
        <linearGradient id="paint1_linear_1244_553116" x1="85.452" y1="45.8147" x2="4.5065" y2="23.8983" gradientUnits="userSpaceOnUse">
            <stop stop-color="#B9D4FF"/>
            <stop offset="1" stop-color="#B9D4FF" stop-opacity="0"/>
        </linearGradient>
        <linearGradient id="paint2_linear_1244_553116" x1="66" y1="27.9999" x2="5.50001" y2="30.9999" gradientUnits="userSpaceOnUse">
            <stop offset="0.000303591" stop-color="#FFD1B9"/>
            <stop offset="1" stop-color="#FCE7C0"/>
        </linearGradient>
        <linearGradient id="paint3_linear_1244_553116" x1="1312.07" y1="45.8147" x2="1393.02" y2="23.8983" gradientUnits="userSpaceOnUse">
            <stop stop-color="#B9D4FF"/>
            <stop offset="1" stop-color="#B9D4FF" stop-opacity="0"/>
        </linearGradient>
        <linearGradient id="paint4_linear_1244_553116" x1="1331.52" y1="27.9999" x2="1392.02" y2="30.9999" gradientUnits="userSpaceOnUse">
            <stop offset="0.000303591" stop-color="#FFD1B9"/>
            <stop offset="1" stop-color="#FCE7C0"/>
        </linearGradient>
        <linearGradient id="paint5_linear_1244_553116" x1="1202.51" y1="102.975" x2="1147.02" y2="126.8" gradientUnits="userSpaceOnUse">
            <stop stop-color="#D9E8F4"/>
            <stop offset="1" stop-color="#E1F2FF"/>
        </linearGradient>
        <linearGradient id="paint6_linear_1244_553116" x1="1263.53" y1="65.2998" x2="1263.04" y2="90.4139" gradientUnits="userSpaceOnUse">
            <stop offset="0.641738" stop-color="#DAE9F5"/>
            <stop offset="1" stop-color="#E7F8FF"/>
        </linearGradient>
        <linearGradient id="paint7_linear_1244_553116" x1="1307.92" y1="85.683" x2="1307.92" y2="120.952" gradientUnits="userSpaceOnUse">
            <stop offset="0.641738" stop-color="#CBE9EF"/>
            <stop offset="1" stop-color="#A4DCDF"/>
        </linearGradient>
        <linearGradient id="paint8_linear_1244_553116" x1="1264.52" y1="117.3" x2="1287.02" y2="103.8" gradientUnits="userSpaceOnUse">
            <stop offset="0.120369" stop-color="#D0E6F8"/>
            <stop offset="1" stop-color="#E0F0FA"/>
        </linearGradient>
        <linearGradient id="paint9_linear_1244_553116" x1="1233.47" y1="82.0071" x2="1233.09" y2="98.3611" gradientUnits="userSpaceOnUse">
            <stop offset="0.641738" stop-color="#DAE9F5"/>
            <stop offset="1" stop-color="#E7F8FF"/>
        </linearGradient>
        <linearGradient id="paint10_linear_1244_553116" x1="1233.47" y1="94.0459" x2="1233.47" y2="111.504" gradientUnits="userSpaceOnUse">
            <stop offset="0.641738" stop-color="#D3EFF1"/>
            <stop offset="1" stop-color="#C8E8EE"/>
        </linearGradient>
        <linearGradient id="paint11_linear_1244_553116" x1="1234.02" y1="104.3" x2="1242.52" y2="102.8" gradientUnits="userSpaceOnUse">
            <stop offset="0.120369" stop-color="#CFE6F8"/>
            <stop offset="1" stop-color="#DAE9F5"/>
        </linearGradient>
        <linearGradient id="paint12_linear_1244_553116" x1="199.009" y1="102.975" x2="254.497" y2="126.8" gradientUnits="userSpaceOnUse">
            <stop stop-color="#D9E8F4"/>
            <stop offset="1" stop-color="#E1F2FF"/>
        </linearGradient>
        <linearGradient id="paint13_linear_1244_553116" x1="146.523" y1="65.2998" x2="146.042" y2="90.4139" gradientUnits="userSpaceOnUse">
            <stop offset="0.641738" stop-color="#DAE9F5"/>
            <stop offset="1" stop-color="#E7F8FF"/>
        </linearGradient>
        <linearGradient id="paint14_linear_1244_553116" x1="190.916" y1="85.683" x2="190.916" y2="120.952" gradientUnits="userSpaceOnUse">
            <stop offset="0.641738" stop-color="#CBE9EF"/>
            <stop offset="1" stop-color="#A4DCDF"/>
        </linearGradient>
        <linearGradient id="paint15_linear_1244_553116" x1="147.523" y1="117.3" x2="170.023" y2="103.8" gradientUnits="userSpaceOnUse">
            <stop offset="0.120369" stop-color="#D0E6F8"/>
            <stop offset="1" stop-color="#E0F0FA"/>
        </linearGradient>
        <linearGradient id="paint16_linear_1244_553116" x1="116.47" y1="82.0071" x2="116.085" y2="98.3611" gradientUnits="userSpaceOnUse">
            <stop offset="0.641738" stop-color="#DAE9F5"/>
            <stop offset="1" stop-color="#E7F8FF"/>
        </linearGradient>
        <linearGradient id="paint17_linear_1244_553116" x1="116.473" y1="94.0459" x2="116.473" y2="111.504" gradientUnits="userSpaceOnUse">
            <stop offset="0.641738" stop-color="#D3EFF1"/>
            <stop offset="1" stop-color="#C8E8EE"/>
        </linearGradient>
        <linearGradient id="paint18_linear_1244_553116" x1="117.025" y1="104.3" x2="125.525" y2="102.8" gradientUnits="userSpaceOnUse">
            <stop offset="0.120369" stop-color="#CFE6F8"/>
            <stop offset="1" stop-color="#DAE9F5"/>
        </linearGradient>
        <linearGradient id="paint19_linear_1244_553116" x1="49" y1="75.2001" x2="-17.5" y2="118.7" gradientUnits="userSpaceOnUse">
            <stop stop-color="#FCE7C0"/>
            <stop offset="1" stop-color="#FF7F33"/>
        </linearGradient>
        <linearGradient id="paint20_linear_1244_553116" x1="46.599" y1="87.6617" x2="6.57445" y2="76.9123" gradientUnits="userSpaceOnUse">
            <stop offset="0.43" stop-color="#EFD03D"/>
            <stop offset="0.65" stop-color="#F05123"/>
        </linearGradient>
        <linearGradient id="paint21_linear_1244_553116" x1="20.8774" y1="80.3198" x2="3.48451" y2="74.9555" gradientUnits="userSpaceOnUse">
            <stop stop-color="#EFD03D"/>
            <stop offset="0.6" stop-color="#F1822B"/>
        </linearGradient>
        <linearGradient id="paint22_linear_1244_553116" x1="8.62431" y1="74.984" x2="20.9843" y2="83.1432" gradientUnits="userSpaceOnUse">
            <stop stop-color="white"/>
            <stop offset="1" stop-color="#E4E4E4"/>
        </linearGradient>
        <linearGradient id="paint23_linear_1244_553116" x1="7.89904" y1="71.3678" x2="18.3416" y2="82.9946" gradientUnits="userSpaceOnUse">
            <stop stop-color="white"/>
            <stop offset="1" stop-color="#D9D9D8"/>
        </linearGradient>
        <linearGradient id="paint24_linear_1244_553116" x1="76.9998" y1="50.2001" x2="28.9998" y2="112.7" gradientUnits="userSpaceOnUse">
            <stop stop-color="#FFC774"/>
            <stop offset="1" stop-color="#FFC6A5"/>
        </linearGradient>
        <linearGradient id="paint25_linear_1244_553116" x1="26" y1="109.2" x2="60.5" y2="86.0001" gradientUnits="userSpaceOnUse">
            <stop stop-color="#FF7F33"/>
            <stop offset="1" stop-color="#FF9C61"/>
        </linearGradient>
        <linearGradient id="paint26_linear_1244_553116" x1="71.5478" y1="67.7124" x2="73.6287" y2="107.995" gradientUnits="userSpaceOnUse">
            <stop stop-color="#FCE7C0"/>
            <stop offset="0.584724" stop-color="#FFCE74"/>
            <stop offset="1" stop-color="#FF7F33"/>
        </linearGradient>
        <linearGradient id="paint27_linear_1244_553116" x1="34.8813" y1="102.772" x2="49.4331" y2="99.6994" gradientUnits="userSpaceOnUse">
            <stop stop-color="#C1D9FF"/>
            <stop offset="1" stop-color="#E3F1F5"/>
        </linearGradient>
        <linearGradient id="paint28_linear_1244_553116" x1="97.5933" y1="108.561" x2="102.548" y2="98.3386" gradientUnits="userSpaceOnUse">
            <stop stop-color="#C1D9FF"/>
            <stop offset="1" stop-color="#E3F1F5"/>
        </linearGradient>
        <linearGradient id="paint29_linear_1244_553116" x1="91.8923" y1="93.6694" x2="91.8923" y2="99.5431" gradientUnits="userSpaceOnUse">
            <stop stop-color="#FFFEFD"/>
            <stop offset="1" stop-color="#FFFEFD" stop-opacity="0"/>
        </linearGradient>
        <linearGradient id="paint30_linear_1244_553116" x1="93.8135" y1="94.8798" x2="93.8135" y2="100.824" gradientUnits="userSpaceOnUse">
            <stop stop-color="#FFFEFD"/>
            <stop offset="1" stop-color="#FFFEFD" stop-opacity="0"/>
        </linearGradient>
        <linearGradient id="paint31_linear_1244_553116" x1="68.4485" y1="109.155" x2="73.4035" y2="98.9329" gradientUnits="userSpaceOnUse">
            <stop stop-color="#C1D9FF"/>
            <stop offset="1" stop-color="#E3F1F5"/>
        </linearGradient>
        <linearGradient id="paint32_linear_1244_553116" x1="62.7478" y1="94.2664" x2="62.7478" y2="100.14" gradientUnits="userSpaceOnUse">
            <stop stop-color="#FFFEFD"/>
            <stop offset="1" stop-color="#FFFEFD" stop-opacity="0"/>
        </linearGradient>
        <linearGradient id="paint33_linear_1244_553116" x1="64.6763" y1="95.4601" x2="64.6763" y2="101.421" gradientUnits="userSpaceOnUse">
            <stop stop-color="#FFFEFD"/>
            <stop offset="1" stop-color="#FFFEFD" stop-opacity="0"/>
        </linearGradient>
        <linearGradient id="paint34_linear_1244_553116" x1="41.5" y1="104.5" x2="83.5" y2="72" gradientUnits="userSpaceOnUse">
            <stop stop-color="#C1D9FF"/>
            <stop offset="1" stop-color="#E3F1F5"/>
        </linearGradient>
        <linearGradient id="paint35_linear_1244_553116" x1="75.7372" y1="73.4741" x2="75.7372" y2="88.7739" gradientUnits="userSpaceOnUse">
            <stop stop-color="#FFFEFD"/>
            <stop offset="1" stop-color="#FFFEFD" stop-opacity="0"/>
        </linearGradient>
        <linearGradient id="paint36_linear_1244_553116" x1="65.17" y1="71.6539" x2="65.17" y2="89.0392" gradientUnits="userSpaceOnUse">
            <stop stop-color="#FFFEFD"/>
            <stop offset="1" stop-color="#FFFEFD" stop-opacity="0"/>
        </linearGradient>
        <linearGradient id="paint37_linear_1244_553116" x1="78.6319" y1="75.4141" x2="78.6319" y2="88.7076" gradientUnits="userSpaceOnUse">
            <stop stop-color="#FFFEFD"/>
            <stop offset="1" stop-color="#FFFEFD" stop-opacity="0"/>
        </linearGradient>
        <linearGradient id="paint38_linear_1244_553116" x1="1424.5" y1="-4.0332" x2="1473.64" y2="118.422" gradientUnits="userSpaceOnUse">
            <stop stop-color="#FADA9E"/>
            <stop offset="1" stop-color="#FEB03E"/>
        </linearGradient>
        <linearGradient id="paint39_linear_1244_553116" x1="1350.95" y1="147.269" x2="1396.76" y2="139.604" gradientUnits="userSpaceOnUse">
            <stop stop-color="#C1D9FF"/>
            <stop offset="1" stop-color="#E3F1F5"/>
        </linearGradient>
        <linearGradient id="paint40_linear_1244_553116" x1="1350.95" y1="147.269" x2="1396.76" y2="139.604" gradientUnits="userSpaceOnUse">
            <stop stop-color="#FCE7C0"/>
            <stop offset="1" stop-color="#FFEECF"/>
        </linearGradient>
        <linearGradient id="paint41_linear_1244_553116" x1="1375.68" y1="166.198" x2="1440.89" y2="154.921" gradientUnits="userSpaceOnUse">
            <stop stop-color="#FCE7C0"/>
            <stop offset="1" stop-color="#FFEECF"/>
        </linearGradient>
        <linearGradient id="paint42_linear_1244_553116" x1="1405.09" y1="30.5624" x2="1405.09" y2="97.5305" gradientUnits="userSpaceOnUse">
            <stop stop-color="#FFFEFD"/>
            <stop offset="1" stop-color="#FFFEFD" stop-opacity="0"/>
        </linearGradient>
        <linearGradient id="paint43_linear_1244_553116" x1="1409.19" y1="54.3613" x2="1409.19" y2="97.5305" gradientUnits="userSpaceOnUse">
            <stop stop-color="#FFFEFD"/>
            <stop offset="1" stop-color="#FFFEFD" stop-opacity="0"/>
        </linearGradient>
        <linearGradient id="paint44_linear_1244_553116" x1="1371.57" y1="51.2213" x2="1371.57" y2="97.5305" gradientUnits="userSpaceOnUse">
            <stop stop-color="#FFFEFD"/>
            <stop offset="1" stop-color="#FFFEFD" stop-opacity="0"/>
        </linearGradient>
        <linearGradient id="paint45_linear_1244_553116" x1="1367.79" y1="45.0228" x2="1367.79" y2="72.3369" gradientUnits="userSpaceOnUse">
            <stop stop-color="#FFFEFD"/>
            <stop offset="1" stop-color="#FFFEFD" stop-opacity="0"/>
        </linearGradient>
        <linearGradient id="paint46_linear_1244_553116" x1="1404.27" y1="20.0902" x2="1404.27" y2="73.4624" gradientUnits="userSpaceOnUse">
            <stop stop-color="#FFFEFD"/>
            <stop offset="1" stop-color="#FFFEFD" stop-opacity="0"/>
        </linearGradient>
        <clipPath id="clip0_1244_553116">
            <rect width="1441" height="250" fill="white" transform="translate(-1 -86)"/>
        </clipPath>
    </defs>
</svg>
