<svg width="303" height="104" viewBox="0 0 303 104" fill="none" xmlns="http://www.w3.org/2000/svg">
<g clip-path="url(#clip0_9622_141)">
<rect width="375" height="261" fill="url(#paint0_linear_9622_141)"/>
<mask id="mask0_9622_141" style="mask-type:alpha" maskUnits="userSpaceOnUse" x="-27" y="-19" width="430" height="223">
<rect x="-27" y="-19" width="430" height="222.695" fill="url(#paint1_linear_9622_141)"/>
</mask>
<g mask="url(#mask0_9622_141)">
<g style="mix-blend-mode:soft-light" opacity="0.7">
<path d="M145.225 87.3802C38.2029 105.217 77.8527 181.938 -41.8857 152.322H-88.3922L-101.68 -44.7773H367.814C347.882 -17.464 264.813 67.4488 145.225 87.3802Z" fill="url(#paint2_linear_9622_141)"/>
</g>
<g style="mix-blend-mode:screen" opacity="0.1">
<mask id="mask1_9622_141" style="mask-type:alpha" maskUnits="userSpaceOnUse" x="256" y="92" width="106" height="115">
<path d="M297.735 142.611C288.243 139.447 269.259 144.721 256.604 156.322L262.404 206.945L361.014 186.38V92.5156C351.171 96.7342 330.746 106.226 327.793 110.445C324.101 115.718 322.519 117.827 316.719 117.827C310.918 117.827 306.172 122.573 306.172 129.956C306.172 137.338 307.227 145.775 297.735 142.611Z" fill="url(#paint3_linear_9622_141)"/>
</mask>
<g mask="url(#mask1_9622_141)">
<path d="M260.687 93.8161C261.258 93.8161 261.726 93.3505 261.726 92.783C261.726 92.2156 261.258 91.75 260.687 91.75C260.117 91.75 259.648 92.2156 259.648 92.783C259.648 93.3578 260.117 93.8161 260.687 93.8161Z" fill="#A8A8A8"/>
<path d="M266.539 93.8469C267.128 93.8469 267.607 93.3714 267.607 92.7848C267.607 92.1982 267.128 91.7227 266.539 91.7227C265.949 91.7227 265.471 92.1982 265.471 92.7848C265.471 93.3714 265.949 93.8469 266.539 93.8469Z" fill="#A8A8A8"/>
<path d="M272.391 93.8806C273.001 93.8806 273.495 93.3888 273.495 92.7821C273.495 92.1754 273.001 91.6836 272.391 91.6836C271.781 91.6836 271.286 92.1754 271.286 92.7821C271.286 93.3888 271.781 93.8806 272.391 93.8806Z" fill="#A8A8A8"/>
<path d="M278.242 93.9193C278.871 93.9193 279.376 93.41 279.376 92.7917C279.376 92.166 278.864 91.6641 278.242 91.6641C277.62 91.6641 277.108 92.1733 277.108 92.7917C277.108 93.41 277.613 93.9193 278.242 93.9193Z" fill="#A8A8A8"/>
<path d="M284.093 93.9491C284.74 93.9491 285.264 93.4279 285.264 92.7851C285.264 92.1422 284.74 91.6211 284.093 91.6211C283.447 91.6211 282.923 92.1422 282.923 92.7851C282.923 93.4279 283.447 93.9491 284.093 93.9491Z" fill="#A8A8A8"/>
<path d="M289.946 93.9491C290.592 93.9491 291.116 93.4279 291.116 92.7851C291.116 92.1422 290.592 91.6211 289.946 91.6211C289.299 91.6211 288.775 92.1422 288.775 92.7851C288.775 93.4279 289.299 93.9491 289.946 93.9491Z" fill="#A8A8A8"/>
<path d="M295.796 93.9625C296.451 93.9625 296.981 93.4349 296.981 92.784C296.981 92.1331 296.451 91.6055 295.796 91.6055C295.142 91.6055 294.611 92.1331 294.611 92.784C294.611 93.4349 295.142 93.9625 295.796 93.9625Z" fill="#A8A8A8"/>
<path d="M301.649 93.9625C302.303 93.9625 302.834 93.4349 302.834 92.784C302.834 92.1331 302.303 91.6055 301.649 91.6055C300.994 91.6055 300.464 92.1331 300.464 92.784C300.464 93.4349 300.994 93.9625 301.649 93.9625Z" fill="#A8A8A8"/>
<path d="M260.688 99.7009C261.298 99.7009 261.792 99.2091 261.792 98.6024C261.792 97.9957 261.298 97.5039 260.688 97.5039C260.078 97.5039 259.583 97.9957 259.583 98.6024C259.583 99.2091 260.078 99.7009 260.688 99.7009Z" fill="#A8A8A8"/>
<path d="M266.539 99.7525C267.175 99.7525 267.687 99.236 267.687 98.6104C267.687 97.9775 267.168 97.4609 266.539 97.4609C265.909 97.4609 265.383 97.9775 265.383 98.6104C265.39 99.236 265.902 99.7525 266.539 99.7525Z" fill="#A8A8A8"/>
<path d="M272.39 99.7963C273.053 99.7963 273.59 99.2622 273.59 98.6032C273.59 97.9443 273.053 97.4102 272.39 97.4102C271.728 97.4102 271.19 97.9443 271.19 98.6032C271.19 99.2622 271.728 99.7963 272.39 99.7963Z" fill="#A8A8A8"/>
<path d="M278.243 99.8098C278.913 99.8098 279.457 99.2691 279.457 98.6022C279.457 97.9352 278.913 97.3945 278.243 97.3945C277.572 97.3945 277.028 97.9352 277.028 98.6022C277.028 99.2691 277.572 99.8098 278.243 99.8098Z" fill="#A8A8A8"/>
<path d="M284.094 99.8474C284.781 99.8474 285.344 99.2945 285.344 98.6034C285.344 97.9195 284.788 97.3594 284.094 97.3594C283.399 97.3594 282.843 97.9123 282.843 98.6034C282.843 99.2945 283.406 99.8474 284.094 99.8474Z" fill="#A8A8A8"/>
<path d="M289.946 99.8609C290.645 99.8609 291.212 99.2974 291.212 98.6023C291.212 97.9072 290.645 97.3438 289.946 97.3438C289.247 97.3438 288.681 97.9072 288.681 98.6023C288.681 99.2974 289.247 99.8609 289.946 99.8609Z" fill="#A8A8A8"/>
<path d="M295.798 99.8609C296.497 99.8609 297.063 99.2974 297.063 98.6023C297.063 97.9072 296.497 97.3438 295.798 97.3438C295.099 97.3438 294.532 97.9072 294.532 98.6023C294.532 99.2974 295.099 99.8609 295.798 99.8609Z" fill="#A8A8A8"/>
<path d="M301.648 99.8609C302.347 99.8609 302.914 99.2974 302.914 98.6023C302.914 97.9072 302.347 97.3438 301.648 97.3438C300.949 97.3438 300.383 97.9072 300.383 98.6023C300.383 99.2974 300.949 99.8609 301.648 99.8609Z" fill="#A8A8A8"/>
<path d="M260.686 105.603C261.34 105.603 261.871 105.076 261.871 104.425C261.871 103.774 261.34 103.246 260.686 103.246C260.032 103.246 259.501 103.774 259.501 104.425C259.501 105.076 260.032 105.603 260.686 105.603Z" fill="#A8A8A8"/>
<path d="M266.539 105.654C267.219 105.654 267.775 105.109 267.775 104.425C267.775 103.741 267.226 103.195 266.539 103.195C265.859 103.195 265.303 103.741 265.303 104.425C265.303 105.109 265.859 105.654 266.539 105.654Z" fill="#A8A8A8"/>
<path d="M272.39 105.681C273.089 105.681 273.656 105.118 273.656 104.423C273.656 103.728 273.089 103.164 272.39 103.164C271.692 103.164 271.125 103.728 271.125 104.423C271.125 105.118 271.692 105.681 272.39 105.681Z" fill="#A8A8A8"/>
<path d="M278.242 105.732C278.97 105.732 279.559 105.146 279.559 104.423C279.559 103.7 278.97 103.113 278.242 103.113C277.515 103.113 276.926 103.7 276.926 104.423C276.926 105.146 277.515 105.732 278.242 105.732Z" fill="#A8A8A8"/>
<path d="M284.094 105.746C284.825 105.746 285.425 105.156 285.425 104.422C285.425 103.694 284.833 103.098 284.094 103.098C283.362 103.098 282.763 103.687 282.763 104.422C282.763 105.156 283.362 105.746 284.094 105.746Z" fill="#A8A8A8"/>
<path d="M289.946 105.763C290.692 105.763 291.291 105.167 291.291 104.425C291.291 103.682 290.692 103.086 289.946 103.086C289.199 103.086 288.6 103.682 288.6 104.425C288.6 105.167 289.207 105.763 289.946 105.763Z" fill="#A8A8A8"/>
<path d="M295.797 105.784C296.55 105.784 297.158 105.181 297.158 104.431C297.158 103.682 296.55 103.078 295.797 103.078C295.044 103.078 294.437 103.682 294.437 104.431C294.437 105.173 295.044 105.784 295.797 105.784Z" fill="#A8A8A8"/>
<path d="M301.649 105.784C302.402 105.784 303.009 105.181 303.009 104.431C303.009 103.682 302.402 103.078 301.649 103.078C300.895 103.078 300.288 103.682 300.288 104.431C300.288 105.173 300.895 105.784 301.649 105.784Z" fill="#A8A8A8"/>
</g>
</g>
<g style="mix-blend-mode:screen" opacity="0.1" clip-path="url(#clip1_9622_141)">
<mask id="mask2_9622_141" style="mask-type:alpha" maskUnits="userSpaceOnUse" x="-149" y="6" width="290" height="319">
<path d="M26.3685 145.791C52.6671 137.025 105.266 151.635 140.331 183.778L124.259 324.04L-148.957 267.059V6.99219C-121.684 18.6805 -65.0931 44.9792 -56.9112 56.6676C-46.6838 71.2781 -42.3007 77.1225 -26.2291 77.1225C-10.1575 77.1225 2.99193 90.272 2.99194 110.727C2.99194 131.181 0.0698242 154.558 26.3685 145.791Z" fill="url(#paint4_linear_9622_141)"/>
</mask>
<g mask="url(#mask2_9622_141)">
<path d="M12.094 40.4701C12.0828 40.4701 12.0738 40.4611 12.0738 40.4499C12.0738 40.4387 12.0828 40.4297 12.094 40.4297C12.1052 40.4297 12.1143 40.4387 12.1143 40.4499C12.1143 40.4611 12.1052 40.4701 12.094 40.4701Z" fill="#A8A8A8"/>
<path d="M4.13182 40.4941C4.10971 40.4941 4.09179 40.4762 4.09179 40.4541C4.09179 40.432 4.10971 40.4141 4.13182 40.4141C4.15394 40.4141 4.17188 40.432 4.17188 40.4541C4.17188 40.4762 4.15394 40.4941 4.13182 40.4941Z" fill="#A8A8A8"/>
<path d="M28.0175 48.408C27.9954 48.408 27.9775 48.3901 27.9775 48.368C27.9775 48.3459 27.9954 48.328 28.0175 48.328C28.0397 48.328 28.0576 48.3459 28.0576 48.368C28.0576 48.3901 28.0397 48.408 28.0175 48.408Z" fill="#A8A8A8"/>
<path d="M20.0565 48.4397C20.0168 48.4397 19.987 48.4099 19.987 48.3702C19.987 48.3305 20.0168 48.3008 20.0565 48.3008C20.0962 48.3008 20.126 48.3305 20.126 48.3702C20.1161 48.4099 20.0863 48.4397 20.0565 48.4397Z" fill="#A8A8A8"/>
<path d="M12.0946 48.4767C12.0341 48.4767 11.9851 48.4277 11.9851 48.3673C11.9851 48.3068 12.0341 48.2578 12.0946 48.2578C12.1551 48.2578 12.2041 48.3068 12.2041 48.3673C12.2041 48.4277 12.1551 48.4767 12.0946 48.4767Z" fill="#A8A8A8"/>
<path d="M4.13175 48.5294C4.04379 48.5294 3.9725 48.4581 3.9725 48.3702C3.9725 48.2822 4.04379 48.2109 4.13175 48.2109C4.21971 48.2109 4.29102 48.2822 4.29102 48.3702C4.29102 48.4581 4.21971 48.5294 4.13175 48.5294Z" fill="#A8A8A8"/>
<path d="M43.9424 56.3262C43.9203 56.3262 43.9023 56.3082 43.9023 56.2861C43.9023 56.264 43.9203 56.2461 43.9424 56.2461C43.9645 56.2461 43.9824 56.264 43.9824 56.2861C43.9824 56.3082 43.9645 56.3262 43.9424 56.3262Z" fill="#A8A8A8"/>
<path d="M35.98 56.3739C35.9304 56.3739 35.8907 56.3342 35.8907 56.2846C35.8907 56.235 35.9304 56.1953 35.98 56.1953C36.0296 56.1953 36.0693 56.235 36.0693 56.2846C36.0693 56.3342 36.0296 56.3739 35.98 56.3739Z" fill="#A8A8A8"/>
<path d="M28.0181 56.415C27.9466 56.415 27.8887 56.3571 27.8887 56.2856C27.8887 56.2142 27.9466 56.1562 28.0181 56.1562C28.0895 56.1562 28.1475 56.2142 28.1475 56.2856C28.1475 56.3571 28.0895 56.415 28.0181 56.415Z" fill="#A8A8A8"/>
<path d="M20.0558 56.4817C19.9464 56.4817 19.8568 56.3927 19.8568 56.2838C19.8568 56.175 19.9464 56.0859 20.0558 56.0859C20.1653 56.0859 20.2549 56.175 20.2549 56.2838C20.2549 56.3927 20.1653 56.4817 20.0558 56.4817Z" fill="#A8A8A8"/>
<path d="M12.0955 56.5018C11.9761 56.5018 11.8765 56.4028 11.8765 56.2841C11.8765 56.1654 11.9761 56.0664 12.0955 56.0664C12.2149 56.0664 12.3145 56.1654 12.3145 56.2841C12.3145 56.4028 12.2149 56.5018 12.0955 56.5018Z" fill="#A8A8A8"/>
<path d="M4.13265 56.55C3.98424 56.55 3.86395 56.4303 3.86395 56.2828C3.86395 56.1352 3.98424 56.0156 4.13265 56.0156C4.28106 56.0156 4.40137 56.1352 4.40137 56.2828C4.40137 56.4303 4.28106 56.55 4.13265 56.55Z" fill="#A8A8A8"/>
<path d="M59.8655 64.2201C59.8543 64.2201 59.8453 64.2111 59.8453 64.1999C59.8453 64.1887 59.8543 64.1797 59.8655 64.1797C59.8767 64.1797 59.8857 64.1887 59.8857 64.1999C59.8857 64.2111 59.8767 64.2201 59.8655 64.2201Z" fill="#A8A8A8"/>
<path d="M51.9042 64.2678C51.8645 64.2678 51.8347 64.238 51.8347 64.1984C51.8347 64.1587 51.8645 64.1289 51.9042 64.1289C51.9439 64.1289 51.9736 64.1587 51.9736 64.1984C51.9637 64.238 51.9339 64.2678 51.9042 64.2678Z" fill="#A8A8A8"/>
<path d="M43.9419 64.329C43.8704 64.329 43.8125 64.2711 43.8125 64.1997C43.8125 64.1282 43.8704 64.0703 43.9419 64.0703C44.0134 64.0703 44.0713 64.1282 44.0713 64.1997C44.0713 64.2711 44.0134 64.329 43.9419 64.329Z" fill="#A8A8A8"/>
<path d="M35.9797 64.3997C35.8702 64.3997 35.7806 64.3107 35.7806 64.2018C35.7806 64.093 35.8702 64.0039 35.9797 64.0039C36.0891 64.0039 36.1787 64.093 36.1787 64.2018C36.1787 64.3107 36.0891 64.3997 35.9797 64.3997Z" fill="#A8A8A8"/>
<path d="M28.019 64.4359C27.887 64.4359 27.7801 64.3296 27.7801 64.1984C27.7801 64.0673 27.887 63.9609 28.019 63.9609C28.1509 63.9609 28.2578 64.0673 28.2578 64.1984C28.2578 64.3296 28.1509 64.4359 28.019 64.4359Z" fill="#A8A8A8"/>
<path d="M20.0557 64.508C19.8853 64.508 19.7472 64.3707 19.7472 64.2013C19.7472 64.0319 19.8853 63.8945 20.0557 63.8945C20.2261 63.8945 20.3643 64.0319 20.3643 64.2013C20.3643 64.3707 20.2261 64.508 20.0557 64.508Z" fill="#A8A8A8"/>
<path d="M12.0939 64.558C11.8948 64.558 11.7455 64.3997 11.7455 64.2117C11.7455 64.0138 11.9048 63.8555 12.0939 63.8555C12.283 63.8555 12.4521 64.0138 12.4521 64.2117C12.4422 64.3997 12.283 64.558 12.0939 64.558Z" fill="#A8A8A8"/>
<path d="M4.13157 64.5763C3.9227 64.5763 3.75339 64.4079 3.75339 64.2002C3.75339 63.9926 3.9227 63.8242 4.13157 63.8242C4.34044 63.8242 4.50977 63.9926 4.50977 64.2002C4.50977 64.4079 4.34044 64.5763 4.13157 64.5763Z" fill="#A8A8A8"/>
<path d="M67.8262 72.1582C67.8041 72.1582 67.7861 72.1403 67.7861 72.1182C67.7861 72.096 67.8041 72.0781 67.8262 72.0781C67.8483 72.0781 67.8662 72.096 67.8662 72.1182C67.8662 72.1403 67.8483 72.1582 67.8262 72.1582Z" fill="#A8A8A8"/>
<path d="M59.8651 72.2267C59.8047 72.2267 59.7556 72.1777 59.7556 72.1173C59.7556 72.0568 59.8047 72.0078 59.8651 72.0078C59.9256 72.0078 59.9746 72.0568 59.9746 72.1173C59.9746 72.1777 59.9256 72.2267 59.8651 72.2267Z" fill="#A8A8A8"/>
<path d="M51.9048 72.2957C51.8059 72.2957 51.7256 72.2155 51.7256 72.1166C51.7256 72.0177 51.8059 71.9375 51.9048 71.9375C52.0038 71.9375 52.084 72.0177 52.084 72.1166C52.084 72.2155 52.0038 72.2957 51.9048 72.2957Z" fill="#A8A8A8"/>
<path d="M43.9418 72.3539C43.8099 72.3539 43.7029 72.2476 43.7029 72.1164C43.7029 71.9852 43.8099 71.8789 43.9418 71.8789C44.0737 71.8789 44.1807 71.9852 44.1807 72.1164C44.1807 72.2476 44.0737 72.3539 43.9418 72.3539Z" fill="#A8A8A8"/>
<path d="M35.9805 72.4221C35.8101 72.4221 35.672 72.2848 35.672 72.1153C35.672 71.9459 35.8101 71.8086 35.9805 71.8086C36.1509 71.8086 36.2891 71.9459 36.2891 72.1153C36.2891 72.2848 36.1509 72.4221 35.9805 72.4221Z" fill="#A8A8A8"/>
<path d="M28.0187 72.4721C27.8196 72.4721 27.6703 72.3138 27.6703 72.1258C27.6703 71.9279 27.8296 71.7695 28.0187 71.7695C28.2078 71.7695 28.377 71.9279 28.377 72.1258C28.367 72.3138 28.2078 72.4721 28.0187 72.4721Z" fill="#A8A8A8"/>
<path d="M20.0556 72.5304C19.8248 72.5304 19.6376 72.3443 19.6376 72.1148C19.6376 71.8853 19.8248 71.6992 20.0556 71.6992C20.2865 71.6992 20.4736 71.8853 20.4736 72.1148C20.4736 72.3443 20.2865 72.5304 20.0556 72.5304Z" fill="#A8A8A8"/>
<path d="M12.0947 72.5825C11.836 72.5825 11.627 72.3747 11.627 72.1174C11.627 71.8601 11.836 71.6523 12.0947 71.6523C12.3535 71.6523 12.5625 71.8601 12.5625 72.1174C12.5525 72.3747 12.3535 72.5825 12.0947 72.5825Z" fill="#A8A8A8"/>
<path d="M4.13207 72.6226C3.85174 72.6226 3.6245 72.3967 3.6245 72.1179C3.6245 71.8392 3.85174 71.6133 4.13207 71.6133C4.41239 71.6133 4.63965 71.8392 4.63965 72.1179C4.63965 72.3967 4.41239 72.6226 4.13207 72.6226Z" fill="#A8A8A8"/>
<path d="M75.7891 80.0723C75.7669 80.0723 75.749 80.0543 75.749 80.0322C75.749 80.0101 75.7669 79.9922 75.7891 79.9922C75.8112 79.9922 75.8291 80.0101 75.8291 80.0322C75.8291 80.0543 75.8112 80.0723 75.7891 80.0723Z" fill="#A8A8A8"/>
<path d="M67.8276 80.1611C67.7562 80.1611 67.6982 80.1031 67.6982 80.0317C67.6982 79.9603 67.7562 79.9023 67.8276 79.9023C67.8991 79.9023 67.957 79.9603 67.957 80.0317C67.957 80.1031 67.8991 80.1611 67.8276 80.1611Z" fill="#A8A8A8"/>
<path d="M59.8654 80.2317C59.7559 80.2317 59.6664 80.1427 59.6664 80.0338C59.6664 79.925 59.7559 79.8359 59.8654 79.8359C59.9749 79.8359 60.0645 79.925 60.0645 80.0338C60.0645 80.1427 59.9749 80.2317 59.8654 80.2317Z" fill="#A8A8A8"/>
<path d="M51.9038 80.32C51.7444 80.32 51.6152 80.1915 51.6152 80.0331C51.6152 79.8746 51.7444 79.7461 51.9038 79.7461C52.0632 79.7461 52.1924 79.8746 52.1924 80.0331C52.1924 80.1915 52.0632 80.32 51.9038 80.32Z" fill="#A8A8A8"/>
<path d="M43.9415 80.3901C43.7425 80.3901 43.5932 80.2317 43.5932 80.0437C43.5932 79.8458 43.7524 79.6875 43.9415 79.6875C44.1306 79.6875 44.2998 79.8458 44.2998 80.0437C44.2899 80.2317 44.1306 80.3901 43.9415 80.3901Z" fill="#A8A8A8"/>
<path d="M35.9804 80.4484C35.7496 80.4484 35.5624 80.2623 35.5624 80.0328C35.5624 79.8033 35.7496 79.6172 35.9804 79.6172C36.2113 79.6172 36.3984 79.8033 36.3984 80.0328C36.3984 80.2623 36.2113 80.4484 35.9804 80.4484Z" fill="#A8A8A8"/>
<path d="M28.0186 80.4966C27.7598 80.4966 27.5508 80.2888 27.5508 80.0315C27.5508 79.7742 27.7598 79.5664 28.0186 79.5664C28.2773 79.5664 28.4863 79.7742 28.4863 80.0315C28.4764 80.2888 28.2773 80.4966 28.0186 80.4966Z" fill="#A8A8A8"/>
<path d="M20.0566 80.5569C19.7653 80.5569 19.5291 80.3221 19.5291 80.0324C19.5291 79.7428 19.7653 79.508 20.0566 79.508C20.3479 79.508 20.5841 79.7428 20.5841 80.0324C20.5841 80.3221 20.3479 80.5569 20.0566 80.5569Z" fill="#A8A8A8"/>
<path d="M12.0946 80.6049C11.7758 80.6049 11.5174 80.3479 11.5174 80.031C11.5174 79.714 11.7758 79.457 12.0946 79.457C12.4134 79.457 12.6719 79.714 12.6719 80.031C12.6719 80.3479 12.4134 80.6049 12.0946 80.6049Z" fill="#A8A8A8"/>
<path d="M4.13294 80.645C3.79456 80.645 3.5159 80.3679 3.5159 80.0315C3.5159 79.695 3.79456 79.418 4.13294 79.418C4.47132 79.418 4.75 79.695 4.75 80.0315C4.75 80.3778 4.47132 80.645 4.13294 80.645Z" fill="#A8A8A8"/>
<path d="M83.7518 88.0178C83.7121 88.0178 83.6823 87.988 83.6823 87.9484C83.6823 87.9087 83.7121 87.8789 83.7518 87.8789C83.7915 87.8789 83.8213 87.9087 83.8213 87.9484C83.8114 87.988 83.7816 88.0178 83.7518 88.0178Z" fill="#A8A8A8"/>
<path d="M75.7895 88.079C75.7181 88.079 75.6601 88.0211 75.6601 87.9497C75.6601 87.8782 75.7181 87.8203 75.7895 87.8203C75.861 87.8203 75.9189 87.8782 75.9189 87.9497C75.9189 88.0211 75.861 88.079 75.7895 88.079Z" fill="#A8A8A8"/>
<path d="M67.8279 88.1659C67.7085 88.1659 67.609 88.0669 67.609 87.9482C67.609 87.8294 67.7085 87.7305 67.8279 87.7305C67.9474 87.7305 68.0469 87.8294 68.0469 87.9482C68.0469 88.0669 67.9474 88.1659 67.8279 88.1659Z" fill="#A8A8A8"/>
<path d="M59.8653 88.2541C59.6949 88.2541 59.5568 88.1168 59.5568 87.9474C59.5568 87.778 59.6949 87.6406 59.8653 87.6406C60.0357 87.6406 60.1738 87.778 60.1738 87.9474C60.1738 88.1168 60.0357 88.2541 59.8653 88.2541Z" fill="#A8A8A8"/>
<path d="M51.904 88.3263C51.6952 88.3263 51.5258 88.1579 51.5258 87.9502C51.5258 87.7426 51.6952 87.5742 51.904 87.5742C52.1129 87.5742 52.2822 87.7426 52.2822 87.9502C52.2822 88.1579 52.1129 88.3263 51.904 88.3263Z" fill="#A8A8A8"/>
<path d="M43.942 88.3825C43.7001 88.3825 43.5041 88.1876 43.5041 87.9471C43.5041 87.7066 43.7001 87.5117 43.942 87.5117C44.1838 87.5117 44.3799 87.7066 44.3799 87.9471C44.3799 88.1876 44.1838 88.3825 43.942 88.3825Z" fill="#A8A8A8"/>
<path d="M35.9807 88.4546C35.7004 88.4546 35.4731 88.2287 35.4731 87.95C35.4731 87.6713 35.7004 87.4453 35.9807 87.4453C36.261 87.4453 36.4883 87.6713 36.4883 87.95C36.4883 88.2287 36.261 88.4546 35.9807 88.4546Z" fill="#A8A8A8"/>
<path d="M28.0185 88.5228C27.6997 88.5228 27.4412 88.2659 27.4412 87.9489C27.4412 87.632 27.6997 87.375 28.0185 87.375C28.3373 87.375 28.5957 87.632 28.5957 87.9489C28.5957 88.2659 28.3373 88.5228 28.0185 88.5228Z" fill="#A8A8A8"/>
<path d="M20.0564 88.583C19.7046 88.583 19.4194 88.2995 19.4194 87.9497C19.4194 87.5999 19.7046 87.3164 20.0564 87.3164C20.4082 87.3164 20.6934 87.5999 20.6934 87.9497C20.6934 88.2995 20.4082 88.583 20.0564 88.583Z" fill="#A8A8A8"/>
<path d="M12.0945 88.6312C11.7153 88.6312 11.4078 88.3255 11.4078 87.9484C11.4078 87.5713 11.7153 87.2656 12.0945 87.2656C12.4738 87.2656 12.7812 87.5713 12.7812 87.9484C12.7812 88.3255 12.4738 88.6312 12.0945 88.6312Z" fill="#A8A8A8"/>
<path d="M4.13186 88.6713C3.73377 88.6713 3.40534 88.3447 3.40534 87.9489C3.40534 87.5531 3.73377 87.2266 4.13186 87.2266C4.52996 87.2266 4.8584 87.5531 4.8584 87.9489C4.8584 88.3546 4.52996 88.6713 4.13186 88.6713Z" fill="#A8A8A8"/>
<path d="M91.7139 95.9043C91.6917 95.9043 91.6738 95.8864 91.6738 95.8642C91.6738 95.8421 91.6917 95.8242 91.7139 95.8242C91.736 95.8242 91.7539 95.8421 91.7539 95.8642C91.7539 95.8864 91.736 95.9043 91.7139 95.9043Z" fill="#A8A8A8"/>
<path d="M83.7515 95.9931C83.68 95.9931 83.6221 95.9352 83.6221 95.8637C83.6221 95.7923 83.68 95.7344 83.7515 95.7344C83.8229 95.7344 83.8809 95.7923 83.8809 95.8637C83.8809 95.9352 83.8229 95.9931 83.7515 95.9931Z" fill="#A8A8A8"/>
<path d="M75.7889 96.0838C75.6694 96.0838 75.5699 95.9849 75.5699 95.8661C75.5699 95.7474 75.6694 95.6484 75.7889 95.6484C75.9083 95.6484 76.0078 95.7474 76.0078 95.8661C76.0078 95.9849 75.9083 96.0838 75.7889 96.0838Z" fill="#A8A8A8"/>
<path d="M67.8282 96.1721C67.6578 96.1721 67.5197 96.0348 67.5197 95.8653C67.5197 95.6959 67.6578 95.5586 67.8282 95.5586C67.9986 95.5586 68.1367 95.6959 68.1367 95.8653C68.1367 96.0348 67.9986 96.1721 67.8282 96.1721Z" fill="#A8A8A8"/>
<path d="M59.8656 96.2604C59.6457 96.2604 59.4675 96.0832 59.4675 95.8646C59.4675 95.646 59.6457 95.4688 59.8656 95.4688C60.0854 95.4688 60.2637 95.646 60.2637 95.8646C60.2637 96.0832 60.0854 96.2604 59.8656 96.2604Z" fill="#A8A8A8"/>
<path d="M51.9033 96.3286C51.6446 96.3286 51.4356 96.1208 51.4356 95.8635C51.4356 95.6062 51.6446 95.3984 51.9033 95.3984C52.1621 95.3984 52.3711 95.6062 52.3711 95.8635C52.3711 96.1208 52.1621 96.3286 51.9033 96.3286Z" fill="#A8A8A8"/>
<path d="M43.9409 96.4088C43.6386 96.4088 43.3935 96.1651 43.3935 95.8645C43.3935 95.564 43.6386 95.3203 43.9409 95.3203C44.2432 95.3203 44.4883 95.564 44.4883 95.8645C44.4883 96.1651 44.2432 96.4088 43.9409 96.4088Z" fill="#A8A8A8"/>
<path d="M35.9787 96.477C35.6403 96.477 35.3616 96.1999 35.3616 95.8635C35.3616 95.5271 35.6403 95.25 35.9787 95.25C36.317 95.25 36.5957 95.5271 36.5957 95.8635C36.5957 96.2098 36.317 96.477 35.9787 96.477Z" fill="#A8A8A8"/>
<path d="M28.0184 96.5491C27.6391 96.5491 27.3317 96.2434 27.3317 95.8664C27.3317 95.4893 27.6391 95.1836 28.0184 95.1836C28.3976 95.1836 28.7051 95.4893 28.7051 95.8664C28.7051 96.2434 28.3976 96.5491 28.0184 96.5491Z" fill="#A8A8A8"/>
<path d="M20.0563 96.6171C19.6383 96.6171 19.3099 96.2807 19.3099 95.875C19.3099 95.4594 19.6483 95.1328 20.0563 95.1328C20.4743 95.1328 20.8027 95.4692 20.8027 95.875C20.8027 96.2807 20.4644 96.6171 20.0563 96.6171Z" fill="#A8A8A8"/>
<path d="M12.0954 96.6574C11.6557 96.6574 11.2992 96.303 11.2992 95.8658C11.2992 95.4286 11.6557 95.0742 12.0954 95.0742C12.5351 95.0742 12.8916 95.4286 12.8916 95.8658C12.8916 96.303 12.5351 96.6574 12.0954 96.6574Z" fill="#A8A8A8"/>
<path d="M4.13176 96.6975C3.67005 96.6975 3.29577 96.3254 3.29577 95.8663C3.29577 95.4073 3.67005 95.0352 4.13176 95.0352C4.59347 95.0352 4.96777 95.4073 4.96777 95.8663C4.96777 96.3254 4.59347 96.6975 4.13176 96.6975Z" fill="#A8A8A8"/>
<path d="M99.6748 103.822C99.6527 103.822 99.6348 103.804 99.6348 103.782C99.6348 103.76 99.6527 103.742 99.6748 103.742C99.6969 103.742 99.7148 103.76 99.7148 103.782C99.7148 103.804 99.6969 103.822 99.6748 103.822Z" fill="#A8A8A8"/>
<path d="M91.7134 103.911C91.6419 103.911 91.584 103.853 91.584 103.782C91.584 103.71 91.6419 103.652 91.7134 103.652C91.7848 103.652 91.8428 103.71 91.8428 103.782C91.8428 103.853 91.7848 103.911 91.7134 103.911Z" fill="#A8A8A8"/>
<path d="M83.7517 103.998C83.6323 103.998 83.5328 103.899 83.5328 103.78C83.5328 103.661 83.6323 103.562 83.7517 103.562C83.8712 103.562 83.9707 103.661 83.9707 103.78C83.9707 103.899 83.8712 103.998 83.7517 103.998Z" fill="#A8A8A8"/>
<path d="M75.7891 104.086C75.6187 104.086 75.4806 103.949 75.4806 103.779C75.4806 103.61 75.6187 103.473 75.7891 103.473C75.9595 103.473 76.0977 103.61 76.0977 103.779C76.0977 103.949 75.9595 104.086 75.7891 104.086Z" fill="#A8A8A8"/>
<path d="M67.8275 104.178C67.6076 104.178 67.4294 104.001 67.4294 103.783C67.4294 103.564 67.6076 103.387 67.8275 103.387C68.0474 103.387 68.2256 103.564 68.2256 103.783C68.2256 104.001 68.0474 104.178 67.8275 104.178Z" fill="#A8A8A8"/>
<path d="M59.8659 104.267C59.5971 104.267 59.3782 104.049 59.3782 103.782C59.3782 103.515 59.5971 103.297 59.8659 103.297C60.1346 103.297 60.3535 103.515 60.3535 103.782C60.3535 104.049 60.1346 104.267 59.8659 104.267Z" fill="#A8A8A8"/>
<path d="M51.9042 104.355C51.5854 104.355 51.327 104.098 51.327 103.781C51.327 103.464 51.5854 103.207 51.9042 103.207C52.223 103.207 52.4814 103.464 52.4814 103.781C52.4814 104.098 52.223 104.355 51.9042 104.355Z" fill="#A8A8A8"/>
<path d="M43.9421 104.415C43.5904 104.415 43.3052 104.131 43.3052 103.782C43.3052 103.432 43.5904 103.148 43.9421 103.148C44.2939 103.148 44.5791 103.432 44.5791 103.782C44.5791 104.131 44.2939 104.415 43.9421 104.415Z" fill="#A8A8A8"/>
<path d="M35.9809 104.483C35.5906 104.483 35.2743 104.169 35.2743 103.781C35.2743 103.393 35.5906 103.078 35.9809 103.078C36.3711 103.078 36.6875 103.393 36.6875 103.781C36.6875 104.169 36.3711 104.483 35.9809 104.483Z" fill="#A8A8A8"/>
<path d="M28.0183 104.572C27.5785 104.572 27.2221 104.217 27.2221 103.78C27.2221 103.343 27.5785 102.988 28.0183 102.988C28.458 102.988 28.8145 103.343 28.8145 103.78C28.8145 104.217 28.458 104.572 28.0183 104.572Z" fill="#A8A8A8"/>
<path d="M20.0556 104.612C19.5939 104.612 19.2196 104.239 19.2196 103.78C19.2196 103.321 19.5939 102.949 20.0556 102.949C20.5173 102.949 20.8916 103.321 20.8916 103.78C20.8916 104.239 20.5173 104.612 20.0556 104.612Z" fill="#A8A8A8"/>
<path d="M12.0934 104.68C11.5957 104.68 11.1877 104.274 11.1877 103.779C11.1877 103.285 11.5957 102.879 12.0934 102.879C12.591 102.879 12.999 103.285 12.999 103.779C12.999 104.274 12.591 104.68 12.0934 104.68Z" fill="#A8A8A8"/>
<path d="M4.13305 104.752C3.59439 104.752 3.15773 104.318 3.15773 103.782C3.15773 103.247 3.59439 102.812 4.13305 102.812C4.67172 102.812 5.1084 103.247 5.1084 103.782C5.1084 104.318 4.67172 104.752 4.13305 104.752Z" fill="#A8A8A8"/>
</g>
</g>
<g opacity="0.2" filter="url(#filter0_f_9622_141)">
<path d="M-9.89855 12.0199C1.77514 28.5944 16.1252 23.1641 36.8208 38.7908C45.1875 44.255 39.0017 37.8074 40.4975 32.9754C41.9932 28.1433 34.5122 23.1949 22.5212 18.7226C10.5302 14.2502 18.0309 4.1082 11.0249 -6.77185C4.01885 -17.6519 5.38282 -14.6271 -10.9155 -13.5173C-27.2138 -12.4076 -24.4749 -26.1246 -40.1126 -35.1913C-55.7502 -44.258 -49.3752 -33.6143 -55.3814 -28.3061C-61.3875 -22.9978 -50.3238 -21.7481 -42.3608 -18.0592C-34.3979 -14.3703 -21.5722 -4.55462 -9.89855 12.0199Z" fill="url(#paint5_linear_9622_141)"/>
</g>
<g opacity="0.4" filter="url(#filter1_f_9622_141)">
<path d="M200.225 139.229C81.4202 160.168 54.8143 87.2286 -73.2036 32.1455L-124.064 28.9689L-56.7203 -86.9409L467.52 -174.294C443.021 -132.397 332.979 115.831 200.225 139.229Z" fill="url(#paint6_linear_9622_141)"/>
</g>
<g opacity="0.2" filter="url(#filter2_f_9622_141)">
<path d="M231.854 46.2649C226.159 48.6339 225.649 48.6175 219.921 52.0069C214.034 53.4054 216.104 45.7542 218.515 43.7982C220.926 41.8421 221.882 41.3248 222.488 37.1185C223.094 32.9122 227.265 30.2832 232.267 33.5098C237.27 36.7365 236.876 33.1486 240.431 33.7746C243.986 34.4006 237.549 43.8959 231.854 46.2649Z" fill="url(#paint7_linear_9622_141)"/>
<path d="M302.74 -14.4737C301.341 -22.4828 298.617 -40.8212 305.494 -48.23C332.526 -52.9944 313.405 25.0269 301.386 27.2917C289.367 29.5565 265.691 43.3888 259.596 47.1646C253.501 50.9403 235.396 56.6747 231.574 54.8916C227.752 53.1086 249.055 44.7885 252.101 42.9481C255.147 41.1078 258.352 34.3557 261.812 29.9902C265.272 25.6248 268.348 12.6158 276.764 8.90682C285.179 5.19789 285.855 -5.39844 290.218 -6.91606C294.581 -8.43368 304.14 -6.46465 302.74 -14.4737Z" fill="url(#paint8_linear_9622_141)"/>
</g>
<g opacity="0.2" filter="url(#filter3_f_9622_141)">
<path d="M65.6553 47.7748C71.101 50.0133 71.5879 49.9955 77.0691 53.2079C82.6935 54.5192 80.6874 47.2241 78.378 45.3666C76.0685 43.5091 75.154 43.0191 74.5587 39.0064C73.9634 34.9937 69.9717 32.501 65.2093 35.6011C60.4469 38.7011 60.8088 35.2747 57.418 35.8865C54.0272 36.4984 60.2096 45.5364 65.6553 47.7748Z" fill="url(#paint9_linear_9622_141)"/>
</g>
<g opacity="0.4">
<path opacity="0.3" d="M223.904 56.8132C217.648 57.4088 217.173 58.0724 216.806 68.0473C216.805 68.0549 216.8 68.0617 216.794 68.0666C216.788 68.0714 216.78 68.0741 216.772 68.0741C216.765 68.0741 216.757 68.0714 216.751 68.0666C216.745 68.0617 216.74 68.0549 216.738 68.0473C216.37 58.0724 215.894 57.4088 209.639 56.8132C209.631 56.8113 209.625 56.807 209.62 56.8008C209.615 56.7947 209.612 56.7871 209.612 56.7792C209.612 56.7714 209.615 56.7638 209.62 56.7576C209.625 56.7514 209.631 56.7471 209.639 56.7453C215.894 56.1496 216.37 55.486 216.738 45.5111C216.74 45.5035 216.745 45.4967 216.751 45.4919C216.757 45.487 216.765 45.4844 216.772 45.4844C216.78 45.4844 216.788 45.487 216.794 45.4919C216.8 45.4967 216.805 45.5035 216.806 45.5111C217.173 55.486 217.648 56.1496 223.904 56.7453C223.912 56.7471 223.918 56.7514 223.923 56.7576C223.928 56.7638 223.931 56.7714 223.931 56.7792C223.931 56.7871 223.928 56.7947 223.923 56.8008C223.918 56.807 223.912 56.8113 223.904 56.8132Z" fill="url(#paint10_radial_9622_141)"/>
<path opacity="0.2" d="M199.695 30.5397C193.439 31.1354 192.964 31.799 192.597 41.7739C192.596 41.7815 192.591 41.7883 192.585 41.7931C192.579 41.798 192.571 41.8006 192.563 41.8006C192.556 41.8006 192.548 41.798 192.542 41.7931C192.536 41.7883 192.531 41.7815 192.53 41.7739C192.161 31.799 191.685 31.1354 185.43 30.5397C185.422 30.5379 185.416 30.5336 185.411 30.5274C185.406 30.5212 185.403 30.5136 185.403 30.5058C185.403 30.4979 185.406 30.4903 185.411 30.4842C185.416 30.478 185.422 30.4737 185.43 30.4718C191.685 29.8762 192.161 29.2126 192.53 19.2377C192.531 19.2301 192.536 19.2233 192.542 19.2184C192.548 19.2136 192.556 19.2109 192.563 19.2109C192.571 19.2109 192.579 19.2136 192.585 19.2184C192.591 19.2233 192.596 19.2301 192.597 19.2377C192.964 29.2126 193.439 29.8762 199.695 30.4718C199.703 30.4737 199.709 30.478 199.714 30.4842C199.719 30.4903 199.722 30.4979 199.722 30.5058C199.722 30.5136 199.719 30.5212 199.714 30.5274C199.709 30.5336 199.703 30.5379 199.695 30.5397Z" fill="url(#paint11_radial_9622_141)"/>
</g>
<g opacity="0.5">
<path opacity="0.3" d="M113.516 63.2726C109.507 63.6544 109.202 64.0797 108.967 70.4728C108.966 70.4777 108.963 70.482 108.959 70.4851C108.955 70.4882 108.951 70.4899 108.946 70.4899C108.941 70.4899 108.936 70.4882 108.932 70.4851C108.928 70.482 108.925 70.4777 108.924 70.4728C108.687 64.0797 108.383 63.6544 104.374 63.2726C104.369 63.2714 104.364 63.2686 104.361 63.2647C104.358 63.2607 104.356 63.2558 104.356 63.2508C104.356 63.2458 104.358 63.2409 104.361 63.237C104.364 63.233 104.369 63.2302 104.374 63.2291C108.383 62.8473 108.687 62.422 108.924 56.0289C108.925 56.024 108.928 56.0196 108.932 56.0165C108.936 56.0134 108.941 56.0117 108.946 56.0117C108.951 56.0117 108.955 56.0134 108.959 56.0165C108.963 56.0196 108.966 56.024 108.967 56.0289C109.202 62.422 109.507 62.8473 113.516 63.2291C113.521 63.2302 113.525 63.233 113.529 63.237C113.532 63.2409 113.533 63.2458 113.533 63.2508C113.533 63.2558 113.532 63.2607 113.529 63.2647C113.525 63.2686 113.521 63.2714 113.516 63.2726Z" fill="url(#paint12_radial_9622_141)"/>
<path opacity="0.3" d="M113.516 63.2726C109.507 63.6544 109.202 64.0797 108.967 70.4728C108.966 70.4777 108.963 70.482 108.959 70.4851C108.955 70.4882 108.951 70.4899 108.946 70.4899C108.941 70.4899 108.936 70.4882 108.932 70.4851C108.928 70.482 108.925 70.4777 108.924 70.4728C108.687 64.0797 108.383 63.6544 104.374 63.2726C104.369 63.2714 104.364 63.2686 104.361 63.2647C104.358 63.2607 104.356 63.2558 104.356 63.2508C104.356 63.2458 104.358 63.2409 104.361 63.237C104.364 63.233 104.369 63.2302 104.374 63.2291C108.383 62.8473 108.687 62.422 108.924 56.0289C108.925 56.024 108.928 56.0196 108.932 56.0165C108.936 56.0134 108.941 56.0117 108.946 56.0117C108.951 56.0117 108.955 56.0134 108.959 56.0165C108.963 56.0196 108.966 56.024 108.967 56.0289C109.202 62.422 109.507 62.8473 113.516 63.2291C113.521 63.2302 113.525 63.233 113.529 63.237C113.532 63.2409 113.533 63.2458 113.533 63.2508C113.533 63.2558 113.532 63.2607 113.529 63.2647C113.525 63.2686 113.521 63.2714 113.516 63.2726Z" fill="url(#paint13_radial_9622_141)"/>
</g>
<g opacity="0.7">
<path opacity="0.3" d="M60.8893 31.6945C56.88 32.0762 56.5754 32.5015 56.3403 38.8947C56.3392 38.8995 56.3364 38.9039 56.3324 38.907C56.3285 38.9101 56.3236 38.9118 56.3186 38.9118C56.3135 38.9118 56.3087 38.9101 56.3047 38.907C56.3008 38.9039 56.298 38.8995 56.2968 38.8947C56.0605 32.5015 55.7559 32.0762 51.7466 31.6945C51.7418 31.6933 51.7374 31.6905 51.7343 31.6865C51.7312 31.6826 51.7295 31.6777 51.7295 31.6727C51.7295 31.6677 51.7312 31.6628 51.7343 31.6588C51.7374 31.6549 51.7418 31.6521 51.7466 31.6509C55.7559 31.2692 56.0605 30.8439 56.2968 24.4507C56.298 24.4459 56.3008 24.4415 56.3047 24.4384C56.3087 24.4353 56.3135 24.4336 56.3186 24.4336C56.3236 24.4336 56.3285 24.4353 56.3324 24.4384C56.3364 24.4415 56.3392 24.4459 56.3403 24.4507C56.5754 30.8439 56.88 31.2692 60.8893 31.6509C60.8942 31.6521 60.8985 31.6549 60.9016 31.6588C60.9047 31.6628 60.9064 31.6677 60.9064 31.6727C60.9064 31.6777 60.9047 31.6826 60.9016 31.6865C60.8985 31.6905 60.8942 31.6933 60.8893 31.6945Z" fill="url(#paint14_radial_9622_141)"/>
<path opacity="0.3" d="M60.8893 31.6945C56.88 32.0762 56.5754 32.5015 56.3403 38.8947C56.3392 38.8995 56.3364 38.9039 56.3324 38.907C56.3285 38.9101 56.3236 38.9118 56.3186 38.9118C56.3135 38.9118 56.3087 38.9101 56.3047 38.907C56.3008 38.9039 56.298 38.8995 56.2968 38.8947C56.0605 32.5015 55.7559 32.0762 51.7466 31.6945C51.7418 31.6933 51.7374 31.6905 51.7343 31.6865C51.7312 31.6826 51.7295 31.6777 51.7295 31.6727C51.7295 31.6677 51.7312 31.6628 51.7343 31.6588C51.7374 31.6549 51.7418 31.6521 51.7466 31.6509C55.7559 31.2692 56.0605 30.8439 56.2968 24.4507C56.298 24.4459 56.3008 24.4415 56.3047 24.4384C56.3087 24.4353 56.3135 24.4336 56.3186 24.4336C56.3236 24.4336 56.3285 24.4353 56.3324 24.4384C56.3364 24.4415 56.3392 24.4459 56.3403 24.4507C56.5754 30.8439 56.88 31.2692 60.8893 31.6509C60.8942 31.6521 60.8985 31.6549 60.9016 31.6588C60.9047 31.6628 60.9064 31.6677 60.9064 31.6727C60.9064 31.6777 60.9047 31.6826 60.9016 31.6865C60.8985 31.6905 60.8942 31.6933 60.8893 31.6945Z" fill="url(#paint15_radial_9622_141)"/>
</g>
<path opacity="0.3" d="M175.549 87.9016C172.491 88.1928 172.259 88.5172 172.08 93.3937C172.079 93.3975 172.076 93.4008 172.073 93.4031C172.07 93.4055 172.067 93.4068 172.063 93.4068C172.059 93.4068 172.055 93.4055 172.052 93.4031C172.049 93.4008 172.047 93.3975 172.046 93.3937C171.866 88.5172 171.634 88.1928 168.576 87.9016C168.572 87.9007 168.569 87.8986 168.566 87.8956C168.564 87.8926 168.562 87.8889 168.562 87.885C168.562 87.8812 168.564 87.8775 168.566 87.8745C168.569 87.8715 168.572 87.8693 168.576 87.8684C171.634 87.5772 171.866 87.2528 172.046 82.3764C172.047 82.3726 172.049 82.3693 172.052 82.3669C172.055 82.3646 172.059 82.3633 172.063 82.3633C172.067 82.3633 172.07 82.3646 172.073 82.3669C172.076 82.3693 172.079 82.3726 172.08 82.3764C172.259 87.2528 172.491 87.5772 175.549 87.8684C175.553 87.8693 175.556 87.8715 175.559 87.8745C175.561 87.8775 175.562 87.8812 175.562 87.885C175.562 87.8889 175.561 87.8926 175.559 87.8956C175.556 87.8986 175.553 87.9007 175.549 87.9016Z" fill="url(#paint16_radial_9622_141)"/>
<path opacity="0.3" d="M258.701 29.972C255.643 30.2632 255.41 30.5876 255.231 35.464C255.23 35.4678 255.228 35.4711 255.225 35.4735C255.222 35.4758 255.218 35.4771 255.214 35.4771C255.21 35.4771 255.207 35.4758 255.204 35.4735C255.201 35.4711 255.199 35.4678 255.198 35.464C255.017 30.5876 254.785 30.2632 251.727 29.972C251.723 29.9711 251.72 29.9689 251.718 29.9659C251.715 29.9629 251.714 29.9592 251.714 29.9554C251.714 29.9515 251.715 29.9478 251.718 29.9448C251.72 29.9418 251.723 29.9397 251.727 29.9388C254.785 29.6476 255.017 29.3231 255.198 24.4467C255.199 24.4429 255.201 24.4396 255.204 24.4373C255.207 24.4349 255.21 24.4336 255.214 24.4336C255.218 24.4336 255.222 24.4349 255.225 24.4373C255.228 24.4396 255.23 24.4429 255.231 24.4467C255.41 29.3231 255.643 29.6476 258.701 29.9388C258.704 29.9397 258.708 29.9418 258.71 29.9448C258.712 29.9478 258.714 29.9515 258.714 29.9554C258.714 29.9592 258.712 29.9629 258.71 29.9659C258.708 29.9689 258.704 29.9711 258.701 29.972Z" fill="url(#paint17_radial_9622_141)"/>
<path opacity="0.3" d="M258.701 29.972C255.643 30.2632 255.41 30.5876 255.231 35.464C255.23 35.4678 255.228 35.4711 255.225 35.4735C255.222 35.4758 255.218 35.4771 255.214 35.4771C255.21 35.4771 255.207 35.4758 255.204 35.4735C255.201 35.4711 255.199 35.4678 255.198 35.464C255.017 30.5876 254.785 30.2632 251.727 29.972C251.723 29.9711 251.72 29.9689 251.718 29.9659C251.715 29.9629 251.714 29.9592 251.714 29.9554C251.714 29.9515 251.715 29.9478 251.718 29.9448C251.72 29.9418 251.723 29.9397 251.727 29.9388C254.785 29.6476 255.017 29.3231 255.198 24.4467C255.199 24.4429 255.201 24.4396 255.204 24.4373C255.207 24.4349 255.21 24.4336 255.214 24.4336C255.218 24.4336 255.222 24.4349 255.225 24.4373C255.228 24.4396 255.23 24.4429 255.231 24.4467C255.41 29.3231 255.643 29.6476 258.701 29.9388C258.704 29.9397 258.708 29.9418 258.71 29.9448C258.712 29.9478 258.714 29.9515 258.714 29.9554C258.714 29.9592 258.712 29.9629 258.71 29.9659C258.708 29.9689 258.704 29.9711 258.701 29.972Z" fill="url(#paint18_radial_9622_141)"/>
</g>
</g>
<defs>
<filter id="filter0_f_9622_141" x="-62.3608" y="-43.984" width="108.933" height="90.1248" filterUnits="userSpaceOnUse" color-interpolation-filters="sRGB">
<feFlood flood-opacity="0" result="BackgroundImageFix"/>
<feBlend mode="normal" in="SourceGraphic" in2="BackgroundImageFix" result="shape"/>
<feGaussianBlur stdDeviation="2.63137" result="effect1_foregroundBlur_9622_141"/>
</filter>
<filter id="filter1_f_9622_141" x="-155.64" y="-205.87" width="654.737" height="380.351" filterUnits="userSpaceOnUse" color-interpolation-filters="sRGB">
<feFlood flood-opacity="0" result="BackgroundImageFix"/>
<feBlend mode="normal" in="SourceGraphic" in2="BackgroundImageFix" result="shape"/>
<feGaussianBlur stdDeviation="15.7882" result="effect1_foregroundBlur_9622_141"/>
</filter>
<filter id="filter2_f_9622_141" x="213.996" y="-50.5447" width="107.351" height="107.877" filterUnits="userSpaceOnUse" color-interpolation-filters="sRGB">
<feFlood flood-opacity="0" result="BackgroundImageFix"/>
<feBlend mode="normal" in="SourceGraphic" in2="BackgroundImageFix" result="shape"/>
<feGaussianBlur stdDeviation="1.05255" result="effect1_foregroundBlur_9622_141"/>
</filter>
<filter id="filter3_f_9622_141" x="54.3446" y="32.1039" width="28.4649" height="23.3658" filterUnits="userSpaceOnUse" color-interpolation-filters="sRGB">
<feFlood flood-opacity="0" result="BackgroundImageFix"/>
<feBlend mode="normal" in="SourceGraphic" in2="BackgroundImageFix" result="shape"/>
<feGaussianBlur stdDeviation="1.05255" result="effect1_foregroundBlur_9622_141"/>
</filter>
<linearGradient id="paint0_linear_9622_141" x1="375.001" y1="-2.62587e-05" x2="387.175" y2="260.431" gradientUnits="userSpaceOnUse">
<stop stop-color="#306DE4"/>
<stop offset="1" stop-color="#1250DC"/>
</linearGradient>
<linearGradient id="paint1_linear_9622_141" x1="188" y1="-19" x2="188" y2="203.695" gradientUnits="userSpaceOnUse">
<stop stop-color="#D9D9D9" stop-opacity="0"/>
<stop offset="0.229167" stop-color="#D9D9D9" stop-opacity="0.65"/>
<stop offset="0.651042" stop-color="#D9D9D9" stop-opacity="0.44"/>
<stop offset="1" stop-color="#D9D9D9" stop-opacity="0"/>
</linearGradient>
<linearGradient id="paint2_linear_9622_141" x1="239.367" y1="-73.5672" x2="281.445" y2="29.4113" gradientUnits="userSpaceOnUse">
<stop stop-color="white"/>
<stop offset="1" stop-color="white" stop-opacity="0"/>
</linearGradient>
<linearGradient id="paint3_linear_9622_141" x1="345.724" y1="190.187" x2="265.148" y2="116.667" gradientUnits="userSpaceOnUse">
<stop stop-color="#769DEA"/>
<stop offset="1" stop-color="#ACC0F3"/>
</linearGradient>
<linearGradient id="paint4_linear_9622_141" x1="-106.592" y1="277.609" x2="116.657" y2="73.9072" gradientUnits="userSpaceOnUse">
<stop stop-color="#769DEA"/>
<stop offset="1" stop-color="#ACC0F3"/>
</linearGradient>
<linearGradient id="paint5_linear_9622_141" x1="7.54557" y1="-0.933649" x2="-23.6917" y2="39.5089" gradientUnits="userSpaceOnUse">
<stop stop-color="white"/>
<stop offset="1" stop-color="#1F0076" stop-opacity="0"/>
</linearGradient>
<linearGradient id="paint6_linear_9622_141" x1="177.403" y1="263.259" x2="140.314" y2="-20.9043" gradientUnits="userSpaceOnUse">
<stop stop-color="white"/>
<stop offset="1" stop-color="white" stop-opacity="0"/>
</linearGradient>
<linearGradient id="paint7_linear_9622_141" x1="269.66" y1="-49.6815" x2="322.925" y2="0.707357" gradientUnits="userSpaceOnUse">
<stop stop-color="white"/>
<stop offset="1" stop-color="white" stop-opacity="0"/>
</linearGradient>
<linearGradient id="paint8_linear_9622_141" x1="269.66" y1="-49.6815" x2="322.925" y2="0.707357" gradientUnits="userSpaceOnUse">
<stop stop-color="white"/>
<stop offset="1" stop-color="white" stop-opacity="0"/>
</linearGradient>
<linearGradient id="paint9_linear_9622_141" x1="29.182" y1="-43.659" x2="-21.4593" y2="4.65365" gradientUnits="userSpaceOnUse">
<stop stop-color="white"/>
<stop offset="1" stop-color="white" stop-opacity="0"/>
</linearGradient>
<radialGradient id="paint10_radial_9622_141" cx="0" cy="0" r="1" gradientUnits="userSpaceOnUse" gradientTransform="translate(216.771 56.7792) rotate(90) scale(11.2948 7.15917)">
<stop stop-color="white"/>
<stop offset="0.622917" stop-color="white" stop-opacity="0"/>
</radialGradient>
<radialGradient id="paint11_radial_9622_141" cx="0" cy="0" r="1" gradientUnits="userSpaceOnUse" gradientTransform="translate(192.562 30.5058) rotate(90) scale(11.2948 7.15917)">
<stop stop-color="white"/>
<stop offset="0.622917" stop-color="white" stop-opacity="0"/>
</radialGradient>
<radialGradient id="paint12_radial_9622_141" cx="0" cy="0" r="1" gradientUnits="userSpaceOnUse" gradientTransform="translate(108.945 63.2508) rotate(90) scale(7.2391 4.58846)">
<stop stop-color="white"/>
<stop offset="0.622917" stop-color="white" stop-opacity="0"/>
</radialGradient>
<radialGradient id="paint13_radial_9622_141" cx="0" cy="0" r="1" gradientUnits="userSpaceOnUse" gradientTransform="translate(108.945 63.2508) rotate(90) scale(7.2391 4.58846)">
<stop stop-color="white"/>
<stop offset="0.622917" stop-color="white" stop-opacity="0"/>
</radialGradient>
<radialGradient id="paint14_radial_9622_141" cx="0" cy="0" r="1" gradientUnits="userSpaceOnUse" gradientTransform="translate(56.318 31.6727) rotate(90) scale(7.2391 4.58846)">
<stop stop-color="white"/>
<stop offset="0.622917" stop-color="white" stop-opacity="0"/>
</radialGradient>
<radialGradient id="paint15_radial_9622_141" cx="0" cy="0" r="1" gradientUnits="userSpaceOnUse" gradientTransform="translate(56.318 31.6727) rotate(90) scale(7.2391 4.58846)">
<stop stop-color="white"/>
<stop offset="0.622917" stop-color="white" stop-opacity="0"/>
</radialGradient>
<radialGradient id="paint16_radial_9622_141" cx="0" cy="0" r="1" gradientUnits="userSpaceOnUse" gradientTransform="translate(172.062 87.885) rotate(90) scale(5.52176 3.49993)">
<stop stop-color="white"/>
<stop offset="0.622917" stop-color="white" stop-opacity="0"/>
</radialGradient>
<radialGradient id="paint17_radial_9622_141" cx="0" cy="0" r="1" gradientUnits="userSpaceOnUse" gradientTransform="translate(255.214 29.9554) rotate(90) scale(5.52176 3.49993)">
<stop stop-color="white"/>
<stop offset="0.622917" stop-color="white" stop-opacity="0"/>
</radialGradient>
<radialGradient id="paint18_radial_9622_141" cx="0" cy="0" r="1" gradientUnits="userSpaceOnUse" gradientTransform="translate(255.214 29.9554) rotate(90) scale(5.52176 3.49993)">
<stop stop-color="white"/>
<stop offset="0.622917" stop-color="white" stop-opacity="0"/>
</radialGradient>
<clipPath id="clip0_9622_141">
<rect width="303" height="104" fill="white"/>
</clipPath>
<clipPath id="clip1_9622_141">
<rect width="366.287" height="364.182" fill="white" transform="matrix(-1 0 0 1 153.826 33.9453)"/>
</clipPath>
</defs>
</svg>
