<svg width="197" height="42" viewBox="0 0 197 42" fill="none"
    xmlns="http://www.w3.org/2000/svg">
    <path d="M14.4086 14.793C15.6652 16.0956 16.2936 17.8641 16.2936 20.0954V30.8074H11.7941V20.6563C11.7941 19.5161 11.4815 18.6211 10.8532 17.9683C10.2494 17.3645 9.40956 17.061 8.33987 17.061C5.7806 17.061 4.50249 18.5046 4.50249 21.3888V30.8074H0V13.3616H4.49942V15.314C5.56911 13.6865 7.30084 12.8712 9.69767 12.8712C11.6286 12.8712 13.1979 13.5118 14.4086 14.7899V14.793Z" fill="#F05123"/>
    <path d="M34.5393 14.7929C35.796 16.0955 36.4243 17.864 36.4243 20.0953V30.8074H31.9249V20.6562C31.9249 19.5161 31.6122 18.6211 30.9839 17.9682C30.3801 17.3644 29.5403 17.061 28.4706 17.061C25.9113 17.061 24.6332 18.5046 24.6332 21.3888V30.8074H20.1338V6.93433H24.6332V15.317C25.7029 13.6895 27.4346 12.8742 29.8315 12.8742C31.7624 12.8742 33.3317 13.5148 34.5424 14.7929H34.5393Z" fill="#F05123"/>
    <path d="M53.5179 15.4213V13.3616H58.0173V30.8074H53.5179V28.7478C52.1693 30.4458 50.272 31.2948 47.8323 31.2948C45.3925 31.2948 43.5045 30.4121 41.831 28.6436C40.179 26.8536 39.3545 24.6652 39.3545 22.0845C39.3545 19.5038 40.179 17.3522 41.831 15.5592C43.5045 13.7693 45.506 12.8712 47.8323 12.8712C50.2751 12.8712 52.1693 13.7202 53.5179 15.4182V15.4213ZM48.669 27.0038C50.0636 27.0038 51.2161 26.5502 52.1233 25.643C53.052 24.7143 53.5179 23.5281 53.5179 22.0845C53.5179 20.6409 53.052 19.467 52.1233 18.5598C51.2161 17.6311 50.0636 17.1652 48.669 17.1652C47.2745 17.1652 46.122 17.6311 45.2148 18.5598C44.3075 19.467 43.8539 20.6409 43.8539 22.0845C43.8539 23.5281 44.3075 24.7143 45.2148 25.643C46.122 26.5502 47.2745 27.0038 48.669 27.0038Z" fill="#F05123"/>
    <path d="M77.7043 15.5592C79.3778 17.3491 80.2176 19.5253 80.2176 22.0845C80.2176 24.6438 79.3809 26.8751 77.7043 28.6436C76.0768 30.4121 74.0754 31.2948 71.703 31.2948C69.3307 31.2948 67.3753 30.4458 66.0512 28.7478V41.0843H61.5518V13.3616H66.0512V15.4213C67.3783 13.7233 69.2602 12.8743 71.703 12.8743C74.1459 12.8743 76.0523 13.7692 77.7043 15.5623V15.5592ZM70.8663 27.0038C72.2609 27.0038 73.4133 26.5502 74.3206 25.643C75.2493 24.7143 75.7151 23.5281 75.7151 22.0845C75.7151 20.6409 75.2493 19.467 74.3206 18.5598C73.4133 17.6311 72.2609 17.1652 70.8663 17.1652C69.4717 17.1652 68.3193 17.6311 67.412 18.5598C66.5048 19.467 66.0512 20.6409 66.0512 22.0845C66.0512 23.5281 66.5048 24.7143 67.412 25.643C68.3193 26.5502 69.4717 27.0038 70.8663 27.0038Z" fill="#F05123"/>
    <path d="M92.9863 13.3616V17.6893H89.0447V24.9472C89.0447 25.7839 89.3818 26.3326 90.0561 26.587C90.522 26.7494 91.4967 26.7954 92.9863 26.7249V30.8074C89.9151 31.1568 87.742 30.8657 86.4609 29.9339C85.1828 29.0267 84.5422 27.3655 84.5422 24.9441V17.6863H81.5078V13.3585H84.5422V9.83381L89.0416 8.47296V13.3585H92.9832L92.9863 13.3616Z" fill="#F05123"/>
    <path d="M110.57 14.7929C111.826 16.0955 112.452 17.864 112.452 20.0953V30.8074H107.952V20.6562C107.952 19.5161 107.64 18.6211 107.011 17.9682C106.407 17.3644 105.571 17.061 104.498 17.061C101.939 17.061 100.661 18.5046 100.661 21.3888V30.8074H96.1611V6.93433H100.661V15.317C101.73 13.6895 103.462 12.8742 105.859 12.8742C107.79 12.8742 109.359 13.5148 110.57 14.7929Z" fill="#F05123"/>
    <path d="M127.808 22.7833V13.3646H132.307V30.8105H127.808V28.8581C126.738 30.4856 125.003 31.3009 122.609 31.3009C120.703 31.3009 119.121 30.6603 117.865 29.3822C116.633 28.0796 116.017 26.3111 116.017 24.0798V13.3616H120.516V23.5128C120.516 24.6529 120.832 25.5479 121.457 26.2008C122.061 26.8046 122.898 27.108 123.97 27.108C126.53 27.108 127.808 25.6674 127.808 22.7802V22.7833Z" fill="#F05123"/>
    <path d="M155.377 41.0132C166.428 40.7509 175.171 31.4634 174.905 20.2691C174.639 9.0748 165.466 0.212694 154.415 0.475045C143.365 0.737396 134.622 10.0249 134.887 21.2192C135.153 32.4135 144.327 41.2756 155.377 41.0132Z" fill="url(#paint0_linear_1342_90141)"/>
    <path d="M149.414 1.22741C145.031 2.54841 142.202 4.59888 139.71 7.6424C139.633 7.6516 139.593 7.65466 139.593 7.65466L137.35 10.8913C137.35 10.8913 130.021 23.3259 140.642 34.9667L169.057 6.40722C163.997 1.28564 156.353 -0.865968 149.417 1.22435L149.414 1.22741Z" fill="url(#paint1_linear_1342_90141)"/>
    <path d="M165.397 27.4421C161.569 33.2472 153.756 34.8471 147.951 31.0159C142.149 27.1847 140.549 19.3721 144.38 13.5701C148.209 7.76499 156.021 6.16508 161.829 9.99629C167.631 13.8244 169.231 21.6371 165.4 27.4421H165.397Z" fill="url(#paint2_linear_1342_90141)"/>
    <g style="mix-blend-mode:screen">
        <path d="M165.045 13.4229L147.494 31.0343L146.471 30.7737L164.26 12.9846L165.045 13.4229Z" fill="#E6E8E2"/>
    </g>
    <g style="mix-blend-mode:multiply">
        <path d="M165.045 13.4229L147.691 30.8381L145.824 29.7838L163.583 11.964L165.045 13.4229Z" fill="#E6E8E2"/>
    </g>
    <path d="M161.869 31.8066C157.483 34.513 151.871 34.4272 147.571 31.589C141.46 27.5524 139.771 19.2984 143.804 13.1869C144.877 11.5594 146.259 10.2169 147.908 9.19935C152.294 6.49298 157.906 6.58186 162.207 9.41696C165.167 11.3694 167.187 14.3608 167.898 17.8364C168.609 21.3121 167.926 24.8552 165.97 27.816C164.898 29.4435 163.515 30.786 161.866 31.8005L161.869 31.8066ZM148.632 10.3763C147.154 11.2866 145.919 12.4881 144.954 13.9501C141.337 19.4272 142.854 26.826 148.331 30.4427C152.184 32.9866 157.217 33.0602 161.146 30.6358C162.623 29.7255 163.859 28.524 164.824 27.062C166.574 24.4078 167.19 21.2324 166.553 18.1184C165.915 15.0044 164.104 12.3226 161.45 10.5725C157.594 8.02853 152.564 7.95191 148.632 10.3763Z" fill="url(#paint3_linear_1342_90141)"/>
    <path d="M195.492 33.7805H176.299C175.466 33.7805 174.791 34.4556 174.791 35.2884V39.6315C174.791 40.4643 175.466 41.1395 176.299 41.1395H195.492C196.325 41.1395 197 40.4643 197 39.6315V35.2884C197 34.4556 196.325 33.7805 195.492 33.7805Z" fill="url(#paint4_linear_1342_90141)"/>
    <path d="M177.991 39.6497C177.877 39.5363 177.822 39.3984 177.822 39.2298C177.822 39.0613 177.877 38.9203 177.991 38.813C178.104 38.7057 178.242 38.6536 178.405 38.6536C178.567 38.6536 178.705 38.7057 178.818 38.813C178.929 38.9203 178.987 39.0582 178.987 39.2298C178.987 39.4015 178.932 39.5363 178.818 39.6497C178.705 39.7631 178.567 39.8183 178.405 39.8183C178.242 39.8183 178.101 39.7631 177.991 39.6497Z" fill="white"/>
    <path d="M180.418 39.564C180.072 39.377 179.799 39.1196 179.603 38.7885C179.404 38.4575 179.306 38.0867 179.306 37.6698C179.306 37.253 179.404 36.8821 179.603 36.5511C179.802 36.2201 180.072 35.9626 180.418 35.7787C180.765 35.5918 181.154 35.4998 181.586 35.4998C181.951 35.4998 182.279 35.5642 182.573 35.6929C182.867 35.8216 183.112 36.0055 183.315 36.2446L182.689 36.8208C182.404 36.4929 182.052 36.3274 181.632 36.3274C181.371 36.3274 181.142 36.3856 180.936 36.499C180.731 36.6124 180.575 36.7718 180.458 36.9771C180.345 37.1825 180.286 37.4124 180.286 37.6729C180.286 37.9334 180.345 38.1663 180.458 38.3686C180.572 38.5709 180.731 38.7303 180.936 38.8468C181.142 38.9602 181.371 39.0184 181.632 39.0184C182.052 39.0184 182.404 38.8529 182.689 38.5219L183.315 39.0981C183.115 39.3433 182.867 39.5272 182.57 39.6559C182.273 39.7847 181.945 39.849 181.58 39.849C181.151 39.849 180.765 39.7571 180.418 39.5701V39.564Z" fill="white"/>
    <path d="M184.731 39.561C184.382 39.374 184.106 39.1135 183.91 38.7825C183.71 38.4514 183.612 38.0806 183.612 37.6699C183.612 37.2592 183.71 36.8883 183.91 36.5573C184.109 36.2263 184.382 35.9688 184.731 35.7819C185.08 35.5949 185.473 35.4999 185.911 35.4999C186.349 35.4999 186.739 35.5949 187.088 35.7819C187.437 35.9688 187.71 36.2293 187.909 36.5573C188.109 36.8852 188.21 37.2592 188.21 37.6699C188.21 38.0806 188.109 38.4514 187.909 38.7825C187.71 39.1135 187.434 39.3709 187.088 39.561C186.742 39.7479 186.349 39.8429 185.911 39.8429C185.473 39.8429 185.083 39.7479 184.731 39.561ZM186.582 38.8438C186.781 38.7304 186.938 38.571 187.054 38.3656C187.171 38.1603 187.226 37.9304 187.226 37.6699C187.226 37.4094 187.168 37.1795 187.054 36.9741C186.941 36.7688 186.785 36.6125 186.582 36.496C186.383 36.3826 186.159 36.3244 185.911 36.3244C185.663 36.3244 185.439 36.3826 185.24 36.496C185.041 36.6094 184.884 36.7688 184.768 36.9741C184.654 37.1795 184.596 37.4094 184.596 37.6699C184.596 37.9304 184.654 38.1633 184.768 38.3656C184.881 38.5679 185.038 38.7273 185.24 38.8438C185.439 38.9572 185.663 39.0154 185.911 39.0154C186.159 39.0154 186.383 38.9572 186.582 38.8438Z" fill="white"/>
    <path d="M192.761 39.7723L192.755 37.2529L191.52 39.3279H191.082L189.853 37.305V39.7692H188.942V35.5702H189.745L191.318 38.1785L192.866 35.5702H193.662L193.675 39.7692H192.764L192.761 39.7723Z" fill="white"/>
    <path d="M190.377 24.6285C189.745 25.4437 188.838 26.1088 187.802 26.3786C186.634 26.6851 185.558 26.5962 184.571 26.1242C182.91 25.3794 181.749 23.7151 181.749 21.778C181.749 19.1483 183.882 17.0151 186.512 17.0151C186.591 17.0151 186.668 17.0243 186.744 17.0273C186.784 17.0273 186.824 17.0304 186.864 17.0335C187.02 17.0457 187.177 17.0641 187.327 17.0917C188.357 17.2541 189.319 17.7323 189.947 18.4893C190.082 18.6303 190.208 18.7805 190.324 18.9399L193.429 15.8259C193.429 15.8259 193.426 15.8228 193.423 15.8197C191.75 13.8367 189.261 12.5739 186.478 12.5739C186.239 12.5739 186.003 12.5923 185.767 12.6107C185.279 12.6597 184.792 12.7456 184.305 12.8743C183.376 13.1164 182.536 13.4597 181.779 13.901C181.721 13.9378 181.66 13.9715 181.601 14.0114C181.479 14.0849 181.365 14.1677 181.246 14.2474C179.392 15.5592 178.043 17.5484 177.553 19.8594C177.531 19.9666 177.513 20.0739 177.494 20.1812C177.473 20.3099 177.451 20.4386 177.436 20.5704C177.307 21.7075 177.399 22.8906 177.718 24.1166C178.116 25.646 178.794 26.9425 179.738 28.0122C179.79 28.0674 179.839 28.1256 179.891 28.1808C179.998 28.2942 180.112 28.4045 180.225 28.5118C180.348 28.6283 180.467 28.7417 180.596 28.852C180.667 28.9133 180.74 28.9685 180.814 29.0267C180.982 29.1616 181.151 29.2934 181.329 29.416C181.372 29.4466 181.414 29.4711 181.457 29.5018C182.898 30.4611 184.62 31.0251 186.475 31.0251C186.787 31.0251 187.094 31.0097 187.397 30.9791C187.41 30.9791 187.419 30.9791 187.431 30.976C187.728 30.9454 188.023 30.8994 188.311 30.8412H188.317C190.361 30.4182 192.151 29.3025 193.448 27.7486L190.367 24.6407L190.377 24.6285Z" fill="#F05123"/>
    <defs>
        <linearGradient id="paint0_linear_1342_90141" x1="208.451" y1="35.1315" x2="140.397" y2="16.8543" gradientUnits="userSpaceOnUse">
            <stop offset="0.43" stop-color="#EFD03D"/>
            <stop offset="0.65" stop-color="#F05123"/>
        </linearGradient>
        <linearGradient id="paint1_linear_1342_90141" x1="165.218" y1="22.6478" x2="135.645" y2="13.5268" gradientUnits="userSpaceOnUse">
            <stop stop-color="#EFD03D"/>
            <stop offset="0.6" stop-color="#F1822B"/>
        </linearGradient>
        <linearGradient id="paint2_linear_1342_90141" x1="144.381" y1="13.5748" x2="165.397" y2="27.4481" gradientUnits="userSpaceOnUse">
            <stop stop-color="white"/>
            <stop offset="1" stop-color="#E4E4E4"/>
        </linearGradient>
        <linearGradient id="paint3_linear_1342_90141" x1="143.147" y1="7.42629" x2="160.903" y2="27.1955" gradientUnits="userSpaceOnUse">
            <stop stop-color="white"/>
            <stop offset="1" stop-color="#D9D9D8"/>
        </linearGradient>
        <linearGradient id="paint4_linear_1342_90141" x1="218.228" y1="56.0107" x2="157.223" y2="21.0052" gradientUnits="userSpaceOnUse">
            <stop offset="0.21" stop-color="#EFD03D"/>
            <stop offset="0.61" stop-color="#F05123"/>
        </linearGradient>
    </defs>
</svg>
