<svg width="425" height="202" viewBox="0 0 425 202" fill="none" xmlns="http://www.w3.org/2000/svg">
<g opacity="0.78">
<ellipse cx="216.738" cy="155.99" rx="111.575" ry="19.7867" fill="url(#paint0_linear_1959_11504)"/>
<g opacity="0.6" filter="url(#filter0_f_1959_11504)">
<path d="M254.912 151.043C244.268 154.791 208.784 156.143 172.137 159.462C142.11 174.782 42.126 184.565 97.5899 151.795C113.773 134.485 158.017 136.561 174.983 148.411C251.676 147.239 254.351 145.548 254.912 151.043Z" fill="url(#paint1_linear_1959_11504)"/>
</g>
<path d="M253.185 151.593C252.208 151.595 251.24 151.403 250.338 151.03C249.435 150.656 248.617 150.108 247.928 149.418L212.157 113.628C211.469 112.941 210.924 112.125 210.553 111.228C210.181 110.332 209.991 109.371 209.993 108.401C209.997 106.441 210.782 104.564 212.176 103.181C213.57 101.798 215.459 101.024 217.427 101.027C219.395 101.031 221.281 101.813 222.67 103.201L258.441 139.01C259.474 140.044 260.176 141.359 260.459 142.789C260.741 144.22 260.592 145.702 260.03 147.048C259.467 148.394 258.517 149.544 257.299 150.353C256.081 151.162 254.649 151.594 253.185 151.593Z" fill="url(#paint2_linear_1959_11504)"/>
<path d="M165.611 97.6758C177.156 109.059 204.33 125.883 227.594 96.6395C225.438 103.698 220.919 107.275 216.552 111.579C198.781 124.186 177.321 122.128 160.457 105.494C143.593 88.8605 141.155 63.6402 155.937 49.1637C160.216 44.413 165.952 38.9932 173.389 38.3691C139.348 56.217 155.181 87.3908 165.611 97.6758Z" fill="url(#paint3_linear_1959_11504)"/>
<path d="M212.928 54.0203C228.666 69.6285 231.062 92.5587 218.271 105.237C211.971 111.484 210.296 112.655 201.762 114.217C226.49 99.0685 220.088 75.9542 205.883 61.1978C195.578 50.9733 170.73 40.5661 152.787 61.1978C153.757 58.7934 156.875 53.0876 161.284 48.716C174.064 36.0381 197.188 38.4134 212.928 54.0203Z" fill="url(#paint4_linear_1959_11504)"/>
<path d="M219.521 104.005C232.272 91.2552 229.883 68.1949 214.186 52.4987C198.488 36.8024 175.425 34.414 162.674 47.164C149.923 59.9141 152.311 82.9743 168.009 98.6706C183.707 114.367 206.769 116.755 219.521 104.005Z" fill="url(#paint5_radial_1959_11504)"/>
<path d="M216.055 50.7464C199.085 33.7919 174.155 31.2115 160.372 44.9841C146.588 58.7567 149.17 83.6668 166.133 100.621C183.095 117.576 208.031 120.158 221.815 106.385C235.599 92.6125 233.023 67.7024 216.055 50.7464ZM214.74 99.3089C204.135 109.905 184.955 107.921 171.9 94.8749C158.845 81.829 156.853 62.6611 167.458 52.0647C178.063 41.4683 197.243 43.4529 210.298 56.4987C223.353 69.5445 225.341 88.7081 214.74 99.3089Z" fill="url(#paint6_linear_1959_11504)"/>
<path d="M234.604 58.001C236.192 58.001 237.48 56.7189 237.48 55.1372C237.48 53.5556 236.192 52.2734 234.604 52.2734C233.016 52.2734 231.729 53.5556 231.729 55.1372C231.729 56.7189 233.016 58.001 234.604 58.001Z" fill="url(#paint7_linear_1959_11504)"/>
<path d="M246.112 58.001C247.7 58.001 248.988 56.7189 248.988 55.1372C248.988 53.5556 247.7 52.2734 246.112 52.2734C244.524 52.2734 243.236 53.5556 243.236 55.1372C243.236 56.7189 244.524 58.001 246.112 58.001Z" fill="url(#paint8_linear_1959_11504)"/>
<path d="M257.612 58.001C259.2 58.001 260.488 56.7189 260.488 55.1372C260.488 53.5556 259.2 52.2734 257.612 52.2734C256.024 52.2734 254.736 53.5556 254.736 55.1372C254.736 56.7189 256.024 58.001 257.612 58.001Z" fill="url(#paint9_linear_1959_11504)"/>
</g>
<defs>
<filter id="filter0_f_1959_11504" x="78.9274" y="136.964" width="178.183" height="38.9049" filterUnits="userSpaceOnUse" color-interpolation-filters="sRGB">
<feFlood flood-opacity="0" result="BackgroundImageFix"/>
<feBlend mode="normal" in="SourceGraphic" in2="BackgroundImageFix" result="shape"/>
<feGaussianBlur stdDeviation="1.09926" result="effect1_foregroundBlur_1959_11504"/>
</filter>
<linearGradient id="paint0_linear_1959_11504" x1="217.043" y1="142.877" x2="216.736" y2="175.777" gradientUnits="userSpaceOnUse">
<stop stop-color="#C2C9D4" stop-opacity="0.88"/>
<stop offset="1" stop-color="#C4CAD5" stop-opacity="0.28"/>
</linearGradient>
<linearGradient id="paint1_linear_1959_11504" x1="232.997" y1="150.581" x2="79.4041" y2="161.124" gradientUnits="userSpaceOnUse">
<stop stop-color="#989DA7"/>
<stop offset="1" stop-color="#C4CAD5" stop-opacity="0"/>
</linearGradient>
<linearGradient id="paint2_linear_1959_11504" x1="223.529" y1="126.31" x2="237.45" y2="111.904" gradientUnits="userSpaceOnUse">
<stop stop-color="#ACB4C4"/>
<stop offset="0.691976" stop-color="#EAF0F9"/>
<stop offset="1" stop-color="#D5DAE3"/>
</linearGradient>
<linearGradient id="paint3_linear_1959_11504" x1="160.257" y1="111.3" x2="201.606" y2="60.607" gradientUnits="userSpaceOnUse">
<stop offset="0.0103351" stop-color="#9EA6B6"/>
<stop offset="1" stop-color="#DAE0E7"/>
</linearGradient>
<linearGradient id="paint4_linear_1959_11504" x1="235.356" y1="127.002" x2="162.911" y2="48.6576" gradientUnits="userSpaceOnUse">
<stop offset="0.0103351" stop-color="#9EA6B6"/>
<stop offset="1" stop-color="#DAE0E7"/>
</linearGradient>
<radialGradient id="paint5_radial_1959_11504" cx="0" cy="0" r="1" gradientUnits="userSpaceOnUse" gradientTransform="translate(152.387 79.4237) rotate(-1.40944) scale(72.9227 173.582)">
<stop stop-color="#C2C9D4" stop-opacity="0.64"/>
<stop offset="1" stop-color="#C4CAD5" stop-opacity="0"/>
</radialGradient>
<linearGradient id="paint6_linear_1959_11504" x1="136.281" y1="128.512" x2="223.916" y2="31.0078" gradientUnits="userSpaceOnUse">
<stop stop-color="#B8BFCC"/>
<stop offset="0.784797" stop-color="#EAEFF4"/>
<stop offset="0.998036" stop-color="#C0C7D5"/>
</linearGradient>
<linearGradient id="paint7_linear_1959_11504" x1="234.604" y1="55.8532" x2="236.396" y2="52.7769" gradientUnits="userSpaceOnUse">
<stop stop-color="#A6AFBF" stop-opacity="0.67"/>
<stop offset="1" stop-color="#9FA5AF" stop-opacity="0.05"/>
</linearGradient>
<linearGradient id="paint8_linear_1959_11504" x1="246.112" y1="55.8532" x2="247.904" y2="52.7769" gradientUnits="userSpaceOnUse">
<stop stop-color="#A6AFBF" stop-opacity="0.67"/>
<stop offset="1" stop-color="#9FA5AF" stop-opacity="0.05"/>
</linearGradient>
<linearGradient id="paint9_linear_1959_11504" x1="257.612" y1="55.8532" x2="259.404" y2="52.7769" gradientUnits="userSpaceOnUse">
<stop stop-color="#A6AFBF" stop-opacity="0.67"/>
<stop offset="1" stop-color="#9FA5AF" stop-opacity="0.05"/>
</linearGradient>
</defs>
</svg>
