<svg width="41" height="40" viewBox="0 0 41 40" fill="none" xmlns="http://www.w3.org/2000/svg">
<path d="M17.9829 7.91564C17.8037 7.93897 17.6395 8.0323 17.5337 8.17897C17.0379 8.86479 16.7379 9.67977 16.6246 10.5123C16.5779 10.8498 16.2831 11.0906 15.9429 11.0847C15.5685 11.0783 15.2383 10.7195 15.3054 10.3214C15.5771 8.35647 16.7187 6.474 18.5662 5.65068C18.902 5.50068 19.0528 5.10653 18.9029 4.76987C18.7529 4.43404 18.3587 4.28237 18.0229 4.43237C17.2829 4.76237 16.6171 5.23569 16.0479 5.81985C15.7412 3.10906 13.4388 0.994102 10.6497 0.982436C9.52636 0.978269 8.58388 1.90242 8.58388 3.02573C8.58388 5.84018 10.737 8.21097 13.5655 8.4598C13.9704 8.49563 14.2521 8.88062 14.1529 9.27478C14.1067 9.55244 13.8113 9.82144 13.4463 9.78977C11.8851 9.65336 10.4718 8.98612 9.3922 7.97064C9.26053 7.84647 9.08387 7.78148 8.90304 7.78981C4.29221 7.99664 1.58876 10.614 0.756524 15.0247C-0.0859599 19.4771 1.2171 24.9708 3.6348 28.5736C5.44594 31.2715 7.91439 33.0627 11.1412 32.5872C11.3727 32.5531 11.5667 32.3957 11.6557 32.1793C14.092 26.2484 17.8621 20.9093 22.6686 16.6146C24.1888 15.2523 25.9582 14.5369 27.8304 14.4975C28.2748 14.4882 28.5792 14.0507 28.4461 13.6266C26.9271 8.78504 22.9347 7.2689 17.9829 7.91564ZM7.69723 13.6089C5.5931 15.3313 5.51727 19.1379 6.37559 22.1454C6.47642 22.4995 6.27142 22.8679 5.91726 22.9695C5.56568 23.0706 5.19544 22.8667 5.09311 22.5112C4.14438 19.1839 4.18671 14.7596 6.85224 12.5772C7.13724 12.3439 7.55723 12.3856 7.79056 12.6706C8.02389 12.9555 7.98139 13.3755 7.69723 13.6089Z" fill="url(#paint0_linear_1152_116773)"/>
<path d="M39.8391 19.2322C38.2417 19.2189 36.7792 19.513 35.3825 20.133C35.2001 19.8755 35.0051 19.6255 34.8009 19.3839C35.2984 18.6256 35.63 17.8089 35.7909 16.9506C35.8592 16.5889 35.62 16.2406 35.2584 16.1731C34.8967 16.1056 34.5484 16.3431 34.4809 16.7056C34.3709 17.2906 34.1601 17.8531 33.8501 18.3864C30.9363 15.6744 27.2367 14.8673 23.9888 17.2763C23.951 17.3042 23.9173 17.3352 23.8874 17.3684C23.6289 17.6568 23.6662 18.1212 23.9983 18.3563C25.0014 19.0662 26.0022 19.852 26.9145 20.7224C27.3513 21.1391 27.0505 21.8714 26.4543 21.8714C26.2889 21.8714 26.1232 21.8102 25.9942 21.6871C24.9898 20.7287 23.86 19.8706 22.7403 19.1049C22.4923 18.9353 22.165 18.9544 21.9373 19.1428C21.9212 19.1562 21.9055 19.1704 21.8905 19.1855C21.1785 19.8966 20.4933 20.6324 19.8368 21.3917C19.827 21.4031 19.8176 21.4147 19.8086 21.4266C19.5894 21.717 19.6428 22.1364 19.938 22.3583C21.1024 23.2336 22.1702 24.2099 23.1476 25.2935C23.3725 25.5428 23.3939 25.9228 23.178 26.18C22.912 26.4969 22.4378 26.4977 22.1696 26.2C21.2134 25.1379 20.177 24.1985 19.0589 23.3659C18.7779 23.1566 18.3847 23.2061 18.1586 23.4675C18.1489 23.4788 18.1395 23.4904 18.1305 23.5024C17.4705 24.3761 16.8458 25.2757 16.2577 26.1983C16.2496 26.2111 16.2419 26.2241 16.2348 26.2372C16.0823 26.5158 16.1471 26.8648 16.3934 27.072C16.7816 27.3986 17.1643 27.7475 17.5403 28.1215C17.7824 28.3623 17.8275 28.7499 17.6182 29.0196C17.3675 29.3428 16.8996 29.3656 16.6187 29.0853C16.3651 28.8323 16.1243 28.6063 15.881 28.3912C15.5725 28.1185 15.0956 28.1896 14.878 28.5308C14.8699 28.5435 14.8621 28.5566 14.8548 28.57C13.6912 30.6959 12.7141 32.9256 11.9416 35.2334C11.2687 37.2433 12.9174 39.2541 15.024 38.9958C17.1666 38.7254 19.2804 38.2851 21.3453 37.6843C21.3598 37.6801 21.3739 37.6754 21.3879 37.6704C21.7398 37.5423 21.9226 37.1442 21.7775 36.7929C21.198 35.39 20.4928 34.0585 19.6563 32.7901C19.4534 32.4828 19.5383 32.0693 19.8456 31.8666C20.1533 31.6639 20.5666 31.7487 20.7692 32.056C21.6565 33.4011 22.4359 34.8628 23.0817 36.4599C23.2112 36.7801 23.5601 36.9483 23.8871 36.8532C23.9012 36.8491 23.9153 36.8445 23.9293 36.8394C26.2197 36.006 28.4358 34.9698 30.5486 33.7433C30.5617 33.7357 30.5745 33.7276 30.5869 33.7193C30.8435 33.5464 30.9502 33.2179 30.8383 32.9253C30.1159 31.035 29.2195 29.2189 28.1339 27.4712C27.941 27.1607 28.0092 26.7417 28.3134 26.5389C28.6282 26.3292 29.0515 26.4222 29.2499 26.7409C30.2725 28.3837 31.1587 30.1246 31.8963 31.9686C32.0486 32.3495 32.5008 32.5053 32.8494 32.3029C32.8623 32.2954 32.8751 32.2875 32.8877 32.279C33.4633 31.8915 34.0299 31.4893 34.5862 31.072C37.8042 28.656 37.9989 24.7342 36.1012 21.2747C37.2695 20.7864 38.4962 20.5601 39.8278 20.5655C40.211 20.5671 40.497 20.2621 40.5003 19.9047C40.5033 19.5364 40.2075 19.2355 39.8391 19.2322ZM25.1374 32.3995C24.8128 32.5762 24.4085 32.4551 24.233 32.1329C24.0076 31.7191 23.7682 31.3083 23.5213 30.912C23.3267 30.5995 23.4223 30.1883 23.7348 29.9937C24.0477 29.799 24.4586 29.8946 24.6532 30.2072C24.9137 30.6254 25.1662 31.0587 25.404 31.4952C25.58 31.8185 25.4607 32.2234 25.1374 32.3995Z" fill="#FEC84B"/>
<path d="M21.7775 36.7929C21.9226 37.1442 21.7398 37.5423 21.3879 37.6704L23.8871 36.8532C23.5601 36.9483 23.2112 36.7801 23.0817 36.4599C22.4359 34.8628 21.6565 33.4011 20.7692 32.056C20.5666 31.7487 20.1533 31.6639 19.8456 31.8666C19.5383 32.0693 19.4534 32.4828 19.6563 32.7901C20.4928 34.0585 21.198 35.39 21.7775 36.7929Z" fill="#FEC84B"/>
<path d="M25.1374 32.3995C24.8128 32.5762 24.4085 32.4551 24.233 32.1329C24.0076 31.7191 23.7682 31.3083 23.5213 30.912C23.3267 30.5995 23.4223 30.1883 23.7348 29.9937C24.0477 29.799 24.4586 29.8946 24.6532 30.2072C24.9137 30.6254 25.1662 31.0587 25.404 31.4952C25.58 31.8185 25.4607 32.2234 25.1374 32.3995Z" fill="#FEC84B"/>
<path d="M30.8383 32.9253C30.9502 33.2179 30.8435 33.5464 30.5869 33.7193L32.8494 32.3029C32.5008 32.5053 32.0486 32.3495 31.8963 31.9686C31.1587 30.1246 30.2725 28.3837 29.2499 26.7409C29.0515 26.4222 28.6282 26.3292 28.3134 26.5389C28.0092 26.7417 27.941 27.1607 28.1339 27.4712C29.2195 29.2189 30.1159 31.035 30.8383 32.9253Z" fill="#FEC84B"/>
<path d="M19.938 22.3583C19.6428 22.1364 19.5894 21.717 19.8086 21.4266L18.1586 23.4675C18.3847 23.2061 18.7779 23.1566 19.0589 23.3659C20.177 24.1985 21.2134 25.1379 22.1696 26.2C22.4378 26.4977 22.912 26.4969 23.178 26.18C23.3939 25.9228 23.3725 25.5428 23.1476 25.2935C22.1702 24.2099 21.1024 23.2336 19.938 22.3583Z" fill="#FEC84B"/>
<path d="M16.3934 27.072C16.1471 26.8648 16.0823 26.5158 16.2348 26.2372L14.878 28.5308C15.0956 28.1896 15.5725 28.1185 15.881 28.3912C16.1243 28.6063 16.3651 28.8323 16.6187 29.0853C16.8996 29.3656 17.3675 29.3428 17.6182 29.0196C17.8275 28.7499 17.7824 28.3623 17.5403 28.1215C17.1643 27.7475 16.7816 27.3986 16.3934 27.072Z" fill="#FEC84B"/>
<path d="M23.9983 18.3563C23.6662 18.1212 23.6289 17.6568 23.8874 17.3684L21.9373 19.1428C22.165 18.9544 22.4923 18.9353 22.7403 19.1049C23.86 19.8706 24.9898 20.7287 25.9942 21.6871C26.1232 21.8102 26.2889 21.8714 26.4543 21.8714C27.0505 21.8714 27.3513 21.1391 26.9145 20.7224C26.0022 19.852 25.0014 19.0662 23.9983 18.3563Z" fill="#FEC84B"/>
<defs>
<linearGradient id="paint0_linear_1152_116773" x1="28.4776" y1="32.6636" x2="-2.96037" y2="4.90087" gradientUnits="userSpaceOnUse">
<stop stop-color="#D35900"/>
<stop offset="1" stop-color="#FF9900"/>
</linearGradient>
</defs>
</svg>
