<?xml version="1.0" encoding="UTF-8" standalone="no"?>
<!DOCTYPE svg PUBLIC "-//W3C//DTD SVG 1.1//EN" "http://www.w3.org/Graphics/SVG/1.1/DTD/svg11.dtd">
<svg width="100%" height="100%" viewBox="0 0 241 240" version="1.1" xmlns="http://www.w3.org/2000/svg" xmlns:xlink="http://www.w3.org/1999/xlink" xml:space="preserve" xmlns:serif="http://www.serif.com/" style="fill-rule:evenodd;clip-rule:evenodd;stroke-linecap:round;stroke-linejoin:round;stroke-miterlimit:1.5;">
    <g transform="matrix(1,0,0,1,-8938,0)">
        <g transform="matrix(-1.39603e-16,0.729663,-0.637928,-1.13536e-16,9220.5,-1122.39)">
            <rect id="xin-l敲들" serif:id="xin l敲들" x="1538.24" y="66.052" width="328.919" height="376.218" style="fill:none;"/>
            <clipPath id="_clip1">
                <rect id="xin-l敲들1" serif:id="xin l敲들" x="1538.24" y="66.052" width="328.919" height="376.218"/>
            </clipPath>
            <g clip-path="url(#_clip1)">
                <g transform="matrix(-5.79355e-17,-0.372335,0.325525,-7.12372e-17,1465.5,2099.74)">
                    <g transform="matrix(0.303,0,0,0.439103,4449.01,-80.6512)">
                        <g transform="matrix(3.88583,0.234652,-0.0113828,2.54015,-2031.85,-4725.98)">
                            <path d="M936.283,2933.16C925.493,2946.4 910.192,2954.32 878.896,2956.03C854.141,2957.39 823.271,2964.14 813.612,2936.87C809.073,2924.06 816.556,2908.28 824.816,2898.4C838.007,2882.62 863.14,2864.1 882.445,2858.42C901.75,2852.74 916.917,2836.34 930.278,2843.97C942.462,2850.92 946.56,2872.92 948.686,2897.8C949.596,2908.46 944.175,2923.48 936.283,2933.16Z" style="fill:url(#_Linear2);"/>
                        </g>
                        <g transform="matrix(-3.88583,0.234652,0.0113828,2.54015,5297.44,-4725.98)">
                            <path d="M936.283,2933.16C925.493,2946.4 910.192,2954.32 878.896,2956.03C854.141,2957.39 823.271,2964.14 813.612,2936.87C809.073,2924.06 816.556,2908.28 824.816,2898.4C838.007,2882.62 863.14,2864.1 882.445,2858.42C901.75,2852.74 916.917,2836.34 930.278,2843.97C942.462,2850.92 946.56,2872.92 948.686,2897.8C949.596,2908.46 944.175,2923.48 936.283,2933.16Z" style="fill:url(#_Linear3);"/>
                        </g>
                    </g>
                    <g transform="matrix(0.303,0,0,0.439103,4449.01,-80.6512)">
                        <g transform="matrix(3.88583,0.234652,-0.0113828,2.54015,-2031.85,-4725.98)">
                            <path d="M936.283,2933.16C925.493,2946.4 910.192,2954.32 878.896,2956.03C854.141,2957.39 823.271,2964.14 813.612,2936.87C809.073,2924.06 816.556,2908.28 824.816,2898.4C838.007,2882.62 863.14,2864.1 882.445,2858.42C901.75,2852.74 916.917,2836.34 930.278,2843.97C942.462,2850.92 946.56,2872.92 948.686,2897.8C949.596,2908.46 944.175,2923.48 936.283,2933.16Z" style="fill:url(#_Linear4);"/>
                        </g>
                        <g transform="matrix(-3.88583,0.234652,0.0113828,2.54015,5297.44,-4725.98)">
                            <path d="M936.283,2933.16C925.493,2946.4 910.192,2954.32 878.896,2956.03C854.141,2957.39 823.271,2964.14 813.612,2936.87C809.073,2924.06 816.556,2908.28 824.816,2898.4C838.007,2882.62 863.14,2864.1 882.445,2858.42C901.75,2852.74 916.917,2836.34 930.278,2843.97C942.462,2850.92 946.56,2872.92 948.686,2897.8C949.596,2908.46 944.175,2923.48 936.283,2933.16Z" style="fill:url(#_Linear5);"/>
                        </g>
                    </g>
                    <g transform="matrix(0.303,0,0,0.439103,4449.01,-80.6512)">
                        <g transform="matrix(3.6888,0,1.1367e-32,2.27737,-160.503,-3997.14)">
                            <path d="M339.281,2891.08L363.437,2982.82C363.437,2982.82 394.739,2987.26 421.793,2986.71C448.848,2986.16 484.569,2977.13 484.569,2977.13L494.068,2845.44L339.281,2891.08Z" style="fill:url(#_Linear6);"/>
                        </g>
                        <g transform="matrix(-3.6888,0,-1.1367e-32,2.27737,3426.09,-3997.14)">
                            <path d="M339.281,2891.08L363.437,2982.82C363.437,2982.82 394.739,2987.26 421.793,2986.71C448.848,2986.16 484.569,2977.13 484.569,2977.13L494.068,2845.44L339.281,2891.08Z" style="fill:url(#_Linear7);"/>
                        </g>
                    </g>
                    <g transform="matrix(1,0,0,1,4449.75,-1839.19)">
                        <path d="M329.71,2637.91C329.71,2637.91 227.783,2740.03 246.109,2813.53C260.973,2873.14 321.318,2876.77 321.318,2876.77L353.309,2867.82L383.92,2647.79L329.71,2637.91Z" style="fill:url(#_Radial8);"/>
                    </g>
                    <g transform="matrix(-1,0,0,1,5460.46,-1839.19)">
                        <path d="M329.71,2637.91C329.71,2637.91 227.783,2740.03 246.109,2813.53C260.973,2873.14 321.318,2876.77 321.318,2876.77L353.309,2867.82L383.92,2647.79L329.71,2637.91Z" style="fill:url(#_Radial9);"/>
                    </g>
                    <g transform="matrix(1,0,0,1,3963.35,-181.687)">
                        <path d="M788.845,1253.19C788.845,1253.19 820.957,1276.25 950.118,1278.19C961.606,1264.38 984.263,1240.97 984.263,1240.97C984.263,1240.97 1011.21,1269.69 1018.94,1278.89C1036.93,1277.56 1131.57,1272.44 1183.2,1257.55C1180.37,1150.78 1151.14,984.169 1125.96,910.757C1100.79,837.345 1112.73,757.802 1112.73,757.802C1112.73,757.802 1065.43,715.029 997.133,729.027C928.835,743.024 861.687,825.564 849.227,862.338C808.9,981.368 788.845,1253.19 788.845,1253.19Z" style="fill:url(#_Radial10);"/>
                        <clipPath id="_clip11">
                            <path d="M788.845,1253.19C788.845,1253.19 820.957,1276.25 950.118,1278.19C961.606,1264.38 984.263,1240.97 984.263,1240.97C984.263,1240.97 1011.21,1269.69 1018.94,1278.89C1036.93,1277.56 1131.57,1272.44 1183.2,1257.55C1180.37,1150.78 1151.14,984.169 1125.96,910.757C1100.79,837.345 1112.73,757.802 1112.73,757.802C1112.73,757.802 1065.43,715.029 997.133,729.027C928.835,743.024 861.687,825.564 849.227,862.338C808.9,981.368 788.845,1253.19 788.845,1253.19Z"/>
                        </clipPath>
                        <g clip-path="url(#_clip11)">
                            <g transform="matrix(1,0,0,1,485.654,-1663)">
                                <path d="M494.068,2775.91L494.068,2941.9L434.406,2959.21L438.883,2731.95L494.068,2775.91Z" style="fill:url(#_Linear12);"/>
                            </g>
                            <g transform="matrix(-1.01646,0.162716,-7.40076e-16,-0.98381,2238.57,2013.82)">
                                <path d="M1175.89,1040.29C1175.89,1029.54 1167.67,1020.82 1157.53,1020.82L1104.43,1020.82C1094.3,1020.82 1086.07,1029.54 1086.07,1040.29L1086.07,1093.91C1086.07,1104.66 1094.3,1113.38 1104.43,1113.38L1157.53,1113.38C1167.67,1113.38 1175.89,1104.66 1175.89,1093.91L1175.89,1040.29Z" style="fill:white;stroke:rgb(160,178,211);stroke-width:3.65px;"/>
                            </g>
                        </g>
                    </g>
                    <g transform="matrix(0.302938,0.00612615,-0.00460192,0.227565,4453.81,443.742)">
                        <g transform="matrix(3.30033,-1.14503e-17,1.05751e-16,2.80528,-1769.17,-847.591)">
                            <path d="M913.125,804.404L1035.08,1049.94C1035.08,1049.94 961.077,1014.67 944.119,1006.21C941.894,1005.1 940.488,1002.83 940.488,1000.34C940.488,990.109 947.245,963.702 947.245,963.702C947.245,963.702 911.781,943.636 895.907,937.22C893.338,936.182 892.394,933.565 892.844,930.699C897.862,898.761 913.125,804.404 913.125,804.404Z" style="fill:url(#_Linear13);stroke:rgb(160,178,211);stroke-width:3.97px;"/>
                        </g>
                        <g transform="matrix(-3.29763,0.17762,0.0851947,2.80298,4970.8,-1029.03)">
                            <path d="M913.125,804.404L1035.08,1049.94C1035.08,1049.94 961.077,1014.67 944.119,1006.21C941.894,1005.1 940.488,1002.83 940.488,1000.34C940.488,990.109 947.245,963.702 947.245,963.702C947.245,963.702 911.781,943.636 895.907,937.22C893.338,936.182 892.394,933.565 892.844,930.699C897.862,898.761 913.125,804.404 913.125,804.404Z" style="fill:url(#_Linear14);stroke:rgb(160,178,211);stroke-width:3.97px;"/>
                        </g>
                    </g>
                    <g transform="matrix(1,0,0,1,4449.01,-1844.69)">
                        <path d="M494.068,2775.91L561.314,2690.79L424.423,2687.99L494.068,2775.91Z" style="fill:url(#_Linear15);"/>
                        <clipPath id="_clip16">
                            <path d="M494.068,2775.91L561.314,2690.79L424.423,2687.99L494.068,2775.91Z"/>
                        </clipPath>
                        <g clip-path="url(#_clip16)">
                            <g transform="matrix(0.999965,0.00840364,-0.00840364,0.999965,22.4007,-10.0322)">
                                <path d="M434.776,2707.89C434.776,2707.89 453.708,2742.51 492.869,2741.3C532.029,2740.09 554.138,2711.68 554.138,2711.68L506.536,2795.49L468.367,2795.65L434.776,2707.89Z" style="fill:url(#_Linear17);"/>
                            </g>
                        </g>
                    </g>
                    <g transform="matrix(0.977268,0.212008,-0.212008,0.977268,4147.89,-240.412)">
                        <path d="M1170.63,1040.66L1158.25,1086.53C1158.25,1086.53 996.705,1097.49 908.89,1023.81C835.024,961.831 819.321,933.62 814.399,926.265C809.507,918.955 814.198,910.827 817.407,906.588C821.968,900.563 834.399,894.103 839.765,897.633C865.714,914.704 869.342,940.424 940.162,991.499C1015.14,1045.57 1170.63,1040.66 1170.63,1040.66Z" style="fill:url(#_Linear18);"/>
                    </g>
                    <g transform="matrix(-1.47149e-17,0.835788,1,9.76947e-17,4161.65,-229.218)">
                        <g transform="matrix(-1.16889e-16,1,1.19648,1.7606e-17,-1932.88,287.359)">
                            <path d="M204.93,2438.07L204.93,2377.1C204.93,2243.72 334.489,2135.44 494.068,2135.44C653.648,2135.44 783.207,2243.72 783.207,2377.1L783.207,2438.07C767.167,2317.26 643.743,2223.15 494.068,2223.15C344.394,2223.15 220.97,2317.26 204.93,2438.07Z" style="fill:rgb(242,111,33);"/>
                        </g>
                        <g transform="matrix(1.07493,2.39162e-19,-2.86152e-19,1.08148,-57.9154,114.338)">
                            <path d="M978.042,349.475L969.492,349.475C835.02,364.306 730.273,478.431 730.273,616.828C730.273,755.225 835.02,869.35 969.492,884.181L978.042,884.181L978.042,873.057C978.042,873.057 979.173,872.844 981.246,872.509L981.246,864.676C1079.73,824.956 1170.61,728.898 1170.61,616.828C1170.61,504.757 1079.73,408.7 981.246,368.98L981.246,361.052C979.173,360.718 978.042,360.504 978.042,360.504L978.042,349.475Z" style="fill:rgb(255,207,141);"/>
                        </g>
                        <g transform="matrix(1.07493,0,0,1.07493,-54.326,118.384)">
                            <path d="M978.042,884.986C839.486,874.154 730.273,758.145 730.273,616.828C730.273,475.511 839.486,359.501 978.042,348.67L978.042,360.504C978.042,360.504 1033.99,371.057 1079.75,360.113C1188.93,394.358 1268.24,496.404 1268.24,616.828C1268.24,737.189 1189.02,839.192 1079.91,873.489C1034.12,862.478 978.042,873.057 978.042,873.057L978.042,884.986Z" style="fill:url(#_Radial19);"/>
                        </g>
                    </g>
                    <g transform="matrix(1,0,0,1,4449.01,-1844.69)">
                        <path d="M218.54,2448.75C218.54,2448.75 229.883,2499.01 218.119,2540.12C220.138,2545.5 222.377,2550.8 224.827,2556.02L763.31,2556.02C765.736,2550.85 767.956,2545.6 769.961,2540.28C758.125,2499.14 769.496,2448.75 769.496,2448.75L218.54,2448.75Z" style="fill:url(#_Linear20);"/>
                    </g>
                    <g transform="matrix(0.878011,-0.0374912,0.0399531,0.935665,4005.68,-1462.82)">
                        <path d="M948.709,2648.92C967.042,2621.64 1031.22,2613.06 1072.89,2610.35C1148.44,2605.43 1175.54,2616.04 1195.84,2635.54C1220.48,2659.22 1229.15,2693.12 1231.43,2721.05C1233.71,2749.09 1232.16,2770.58 1218.83,2802.08C1196.16,2855.66 1152.38,2863.66 1107.25,2872.15C1069.5,2879.26 1020.13,2872.57 993.426,2854.08C965.318,2834.62 943.312,2809.83 937.539,2755.58C933.348,2716.18 933.109,2672.13 948.709,2648.92Z" style="fill:url(#_Radial21);"/>
                        <clipPath id="_clip22">
                            <path d="M948.709,2648.92C967.042,2621.64 1031.22,2613.06 1072.89,2610.35C1148.44,2605.43 1175.54,2616.04 1195.84,2635.54C1220.48,2659.22 1229.15,2693.12 1231.43,2721.05C1233.71,2749.09 1232.16,2770.58 1218.83,2802.08C1196.16,2855.66 1152.38,2863.66 1107.25,2872.15C1069.5,2879.26 1020.13,2872.57 993.426,2854.08C965.318,2834.62 943.312,2809.83 937.539,2755.58C933.348,2716.18 933.109,2672.13 948.709,2648.92Z"/>
                        </clipPath>
                        <g clip-path="url(#_clip22)">
                            <g transform="matrix(0.999981,0.00649804,-0.00594423,0.999981,35.6619,-48.8141)">
                                <path d="M948.709,2648.92C967.042,2621.64 1031.22,2613.06 1072.89,2610.35C1148.44,2605.43 1175.54,2616.04 1195.84,2635.54C1220.48,2659.22 1229.15,2693.12 1231.43,2721.05C1233.71,2749.09 1232.16,2770.58 1218.83,2802.08C1196.16,2855.66 1152.38,2863.66 1107.25,2872.15C1069.5,2879.26 1020.13,2872.57 993.426,2854.08C965.318,2834.62 943.312,2809.83 937.539,2755.58C933.348,2716.18 933.109,2672.13 948.709,2648.92Z" style="fill:url(#_Radial23);"/>
                                <clipPath id="_clip24">
                                    <path d="M948.709,2648.92C967.042,2621.64 1031.22,2613.06 1072.89,2610.35C1148.44,2605.43 1175.54,2616.04 1195.84,2635.54C1220.48,2659.22 1229.15,2693.12 1231.43,2721.05C1233.71,2749.09 1232.16,2770.58 1218.83,2802.08C1196.16,2855.66 1152.38,2863.66 1107.25,2872.15C1069.5,2879.26 1020.13,2872.57 993.426,2854.08C965.318,2834.62 943.312,2809.83 937.539,2755.58C933.348,2716.18 933.109,2672.13 948.709,2648.92Z"/>
                                </clipPath>
                                <g clip-path="url(#_clip24)">
                                    <g>
                                        <g transform="matrix(1.0154,-0.114292,0.109313,1.06165,-2071.73,1913.5)">
                                            <path d="M2732.96,1149.23C2806.72,1175.97 2886.5,1195.61 3009.55,1196.38C3079.21,1196.82 3184.93,1161.56 3184.93,1161.56L3180,1089.01C3180,1089.01 3074.28,1124.27 3004.62,1123.83C2881.57,1123.06 2801.78,1103.43 2728.03,1076.68C2653.97,1049.83 2658.91,1122.38 2732.96,1149.23Z" style="fill:url(#_Linear25);"/>
                                        </g>
                                        <g transform="matrix(1.0154,-0.114292,0.109313,1.06165,-2074.15,1895.2)">
                                            <path d="M2730.35,1085.43C2804.11,1112.18 2883.89,1131.82 3006.95,1132.59C3076.6,1133.02 3182.32,1097.76 3182.32,1097.76L3180,1089.01C3180,1089.01 3074.28,1124.27 3004.62,1123.83C2881.57,1123.06 2801.78,1103.43 2728.03,1076.68C2653.97,1049.83 2656.3,1058.58 2730.35,1085.43Z" style="fill:url(#_Linear26);"/>
                                        </g>
                                    </g>
                                    <g transform="matrix(1.0154,-0.114292,0.109313,1.06165,-2178.2,844.988)">
                                        <g transform="matrix(0.0752308,-3.46945e-18,0,0.0752308,2721.09,2207.39)">
                                            <g>
                                                <g transform="matrix(1,0,0,1,2115,-1023.93)">
                                                    <path d="M184.214,287.013C194.506,298.523 202.414,312.014 207.449,326.609C212.013,339.841 214.228,353.796 214.656,367.765C216.24,419.437 218.043,471.104 220.33,522.75C197.79,519.456 175.264,516.065 152.754,512.576C150.62,464.024 148.964,415.452 147.557,366.874C147.128,352.065 142.507,337.602 132.485,326.472C122.645,315.894 109.02,310.3 94.894,308.369C88.423,307.485 81.82,307.154 75.322,307.942C71.133,308.45 66.985,309.44 63.1,311.102C60.576,312.182 58.173,313.546 55.976,315.192C43.905,324.236 40.339,340.066 39.805,354.36C39.714,356.803 39.708,359.249 39.77,361.693C40.901,406.125 42.316,450.551 44.201,494.957C22.057,491.199 -0.072,487.342 -22.181,483.384C-25.606,399.735 -27.017,321.456 -28.271,237.736C-6.445,240.866 15.391,243.919 37.238,246.897C37.421,256.382 37.607,265.867 37.797,275.352C40.581,271.444 43.792,267.839 47.399,264.672C49.916,262.464 52.62,260.471 55.474,258.721C72.721,248.144 93.951,247.223 113.518,249.717C126.707,251.399 139.638,255.12 151.487,261.195C163.947,267.583 174.975,276.472 184.213,286.968L184.214,287.013Z" style="fill:rgb(240,81,35);fill-rule:nonzero;"/>
                                                </g>
                                                <g transform="matrix(1,0,0,1,2115,-1023.93)">
                                                    <path d="M489.4,319.945C500.255,331.645 508.565,345.515 513.816,360.583C518.459,373.904 520.729,387.961 521.228,402.036C523.116,455.253 525.036,508.47 527.238,561.675C504.176,559.184 481.124,556.599 458.083,553.918C455.946,503.768 454.1,453.605 452.335,403.44C451.802,388.29 447.005,373.484 436.53,362.267C426.262,351.632 412.133,346.35 397.642,344.834C390.823,344.121 383.878,344.011 377.091,345.102C372.783,345.795 368.538,346.989 364.588,348.861C362.099,350.04 359.737,351.487 357.576,353.195C345.259,362.932 341.713,379.4 341.297,394.327C341.226,396.861 341.243,399.397 341.33,401.931C342.909,448.024 344.627,494.114 346.651,540.19C323.867,537.227 301.096,534.167 278.338,531.011C273.143,413.708 270.145,292.595 266.274,175.304C288.835,177.643 311.403,179.914 333.978,182.119C335.535,225.62 336.96,269.126 338.375,312.633C341.203,308.5 344.473,304.67 348.162,301.281C350.732,298.919 353.5,296.774 356.429,294.875C374.008,283.474 395.897,281.799 416.25,283.787C429.611,285.091 442.784,288.426 454.941,294.172C468.039,300.364 479.692,309.265 489.447,319.95L489.4,319.945Z" style="fill:rgb(240,81,35);fill-rule:nonzero;"/>
                                                </g>
                                                <g transform="matrix(1,0,0,1,2115,-1023.93)">
                                                    <path d="M784.094,352.774C783.699,342.139 783.294,331.503 782.88,320.869C806.344,322.362 829.813,323.778 853.287,325.117C856.825,416.176 859.258,500.164 862.135,591.241C838.764,589.633 815.4,587.931 792.043,586.135C791.681,575.536 791.324,564.937 790.97,554.339C786.523,559.736 781.488,564.652 775.912,568.879C772.142,571.737 768.132,574.277 763.936,576.462C745.538,586.043 724.37,588.233 703.943,586.442C687.128,584.967 670.635,580.622 655.501,573.094C637.922,564.349 622.644,551.665 609.401,537.271C596.563,523.009 585.901,506.764 578.667,488.957C571.799,472.051 568.156,453.981 567.505,435.761C566.913,419.174 568.773,402.435 574.137,386.679C579.935,369.647 589.77,354.311 602.317,341.464C616.134,327.547 632.962,316.751 651.874,311.281C665.498,307.341 679.793,306.203 693.912,307.213C709.478,308.327 724.937,311.666 739.255,317.959C756.831,325.682 772.097,337.779 784.092,352.727L784.094,352.774ZM714.58,521.878C729.201,523.075 744.212,520.963 757.01,513.462C760.835,511.221 764.403,508.552 767.66,505.547C771.185,502.295 774.353,498.654 777.032,494.674C785.165,482.595 788.113,468.031 787.631,453.634C787.298,443.696 785.389,433.801 781.545,424.61C777.526,415.004 771.458,406.383 764.039,399.099C756.727,391.612 748.102,385.448 738.523,381.207C729.333,377.139 719.428,374.887 709.421,374.151C694.915,373.083 680.059,375.297 667.405,382.786C663.456,385.123 659.785,387.916 656.447,391.063C653.225,394.023 650.316,397.324 647.828,400.925C639.531,412.933 636.677,427.569 637.186,441.971C637.536,451.88 639.423,461.739 643.15,470.943C647.067,480.614 652.958,489.375 660.187,496.879C667.481,504.296 676.059,510.409 685.567,514.655C694.727,518.746 704.597,521.06 714.58,521.878Z" style="fill:rgb(240,81,35);fill-rule:nonzero;"/>
                                                </g>
                                                <g transform="matrix(1,0,0,1,2115,-1023.93)">
                                                    <path d="M1163.98,372.647C1177.14,386.436 1188.05,402.391 1195.32,420.05C1202.32,437.044 1205.81,455.296 1206.22,473.644C1206.58,489.567 1204.68,505.571 1199.95,520.804C1193.87,540.401 1183.12,558.278 1168.88,573.037C1154.73,588.174 1137.23,600.031 1117.33,606.111C1103.96,610.198 1089.9,611.64 1075.95,611.018C1061.92,610.393 1047.95,607.779 1034.83,602.715C1015.82,595.378 999.192,582.903 986.647,566.864C988.451,634.67 990.228,702.478 992.304,770.276C969.08,768.805 945.862,767.23 922.651,765.551C917.591,619.76 914.333,473.907 908.706,328.136C932.261,329.358 955.821,330.501 979.385,331.566C979.793,342.273 980.186,352.981 980.567,363.689C984.972,358.092 989.97,352.958 995.519,348.489C1006.29,339.813 1019,333.895 1032.42,330.685C1044.06,327.905 1056.09,327.079 1068.02,327.516C1084.98,328.137 1101.81,331.604 1117.35,338.521C1135.14,346.441 1150.68,358.569 1163.98,372.695L1163.98,372.647ZM1061.32,543.629C1070.19,544.016 1079.16,543.23 1087.71,540.745C1097.93,537.773 1107.26,532.332 1114.94,524.963C1122.84,517.379 1128.8,507.986 1132.12,497.538C1134.78,489.159 1135.75,480.323 1135.53,471.554C1135.29,461.73 1133.53,451.923 1129.81,442.803C1125.85,433.09 1119.73,424.406 1112.16,417.165C1104.71,409.715 1095.88,403.712 1086.1,399.763C1076.91,396.054 1067.07,394.194 1057.19,393.805C1048.28,393.454 1039.29,394.28 1030.73,396.82C1020.5,399.854 1011.19,405.375 1003.57,412.833C1000.09,416.154 996.969,419.853 994.333,423.88C986.306,436.138 983.414,450.802 983.839,465.293C984.128,475.135 985.89,484.949 989.504,494.127C993.366,503.935 999.299,512.806 1006.68,520.315C1014.09,527.697 1022.86,533.655 1032.56,537.598C1041.7,541.31 1051.49,543.2 1061.32,543.629Z" style="fill:rgb(240,81,35);fill-rule:nonzero;"/>
                                                </g>
                                                <g transform="matrix(1,0,0,1,2115,-1023.93)">
                                                    <path d="M1403.28,342.088C1403.97,364.547 1404.56,387.009 1405.07,409.473C1384.45,409.39 1363.84,409.24 1343.23,409.024C1344.13,445.98 1344.8,482.942 1345.3,519.906C1345.42,528.375 1348.12,536.856 1355.23,541.987C1357.13,543.359 1359.23,544.44 1361.42,545.274C1366.98,547.239 1373.19,547.583 1379.04,547.876C1388.39,548.346 1397.79,548.134 1407.14,547.739C1407.33,569.035 1407.46,590.331 1407.58,611.628C1385.82,614.041 1363.39,614.97 1341.75,610.978C1329.07,608.636 1316.36,604.423 1305.93,596.638C1303.26,594.697 1300.75,592.54 1298.44,590.196C1282.92,574.504 1277.12,551.933 1275.43,530.541C1275.12,526.627 1274.94,522.703 1274.87,518.777C1274.25,481.84 1273.49,444.905 1272.51,407.975C1256.61,407.692 1240.71,407.37 1224.82,407.009C1224.19,384.569 1223.5,362.132 1222.72,339.697C1238.64,340.046 1254.57,340.357 1270.49,340.631C1269.85,321.745 1269.15,302.861 1268.39,283.98C1291.75,276.94 1315.07,269.765 1338.34,262.451C1339.45,288.829 1340.43,315.214 1341.28,341.602C1361.93,341.812 1382.57,341.958 1403.22,342.04L1403.28,342.088Z" style="fill:rgb(240,81,35);fill-rule:nonzero;"/>
                                                </g>
                                                <g transform="matrix(1,0,0,1,2115,-1023.93)">
                                                    <path d="M1678.54,361.697C1682.85,365.997 1686.76,370.701 1690.18,375.739C1703.5,395.338 1708.56,419.079 1708.69,442.494C1708.99,497.614 1708.59,552.739 1707.85,607.855C1684.86,608.572 1661.86,609.187 1638.86,609.704C1639.33,557.421 1639.53,505.132 1639.14,452.848C1639.03,437.906 1634.95,422.823 1624.1,412.057C1613.56,401.993 1599.01,398.571 1584.79,398.789C1577.58,398.9 1570.32,399.716 1563.38,401.741C1558.78,403.082 1554.34,404.966 1550.27,407.496C1547.7,409.091 1545.29,410.938 1543.1,413.015C1528.94,426.406 1525.74,447.176 1525.95,465.769C1526.48,514.327 1526.58,562.89 1526.49,611.45C1503.27,611.651 1480.06,611.754 1456.84,611.76C1456.55,479.97 1455,368.987 1449.25,237.062C1472.79,237.04 1496.33,236.937 1519.87,236.751C1521.8,281.981 1523.3,327.232 1524.36,372.491C1527.68,367.245 1531.56,362.35 1535.97,357.984C1539.02,354.967 1542.33,352.207 1545.84,349.739C1562.91,337.735 1583.99,333.419 1604.56,333.069C1616.86,332.859 1629.24,334.354 1640.95,338.199C1655.19,342.874 1668.03,351.029 1678.54,361.697Z" style="fill:rgb(240,81,35);fill-rule:nonzero;"/>
                                                </g>
                                                <g transform="matrix(1,0,0,1,2115,-1023.93)">
                                                    <path d="M1943.43,472.933C1944.05,424.82 1944.06,376.693 1943.36,328.581C1966.14,327.302 1988.91,325.927 2011.68,324.452C2012.8,416.224 2011.18,500.899 2008.06,592.632C1985.62,594.232 1963.17,595.725 1940.71,597.115C1941.01,586.845 1941.3,576.573 1941.57,566.302C1937.62,572.532 1932.99,578.331 1927.68,583.458C1918.31,592.506 1906.96,599.232 1894.65,603.439C1884.2,607.013 1873.2,608.814 1862.19,609.379C1850.62,609.973 1838.93,608.853 1827.84,605.402C1813.72,601.005 1801.12,592.852 1790.83,582.279C1787.38,578.59 1784.24,574.615 1781.45,570.408C1767.97,550.102 1763.39,525.418 1763.54,501.382C1763.86,446.493 1763.55,391.595 1762.42,336.717C1785.53,335.917 1808.65,335.025 1831.76,334.039C1832.72,385.975 1832.9,437.929 1832.46,489.872C1832.33,504.496 1835.83,519.599 1846.31,530.347C1856.39,540.211 1870.55,543.138 1884.24,542.407C1891.32,542.03 1898.41,540.905 1905.14,538.616C1909.58,537.105 1913.85,535.079 1917.77,532.489C1920.34,530.786 1922.75,528.843 1924.96,526.688C1939.16,512.82 1943.18,491.994 1943.43,472.887L1943.43,472.933Z" style="fill:rgb(240,81,35);fill-rule:nonzero;"/>
                                                </g>
                                                <g transform="matrix(1,0,0,1,2115,-1023.93)">
                                                    <path d="M2333.81,733.565C2388.98,724.906 2438.68,695.406 2479.78,658.552C2502.19,638.454 2522.42,615.935 2540.45,591.844C2566.77,556.687 2588.67,517.972 2604.23,476.868C2618.33,439.604 2627.05,400.155 2627.85,360.24C2628.65,320.132 2621.19,280.086 2605.28,243.223C2599.79,230.51 2593.35,218.211 2586.06,206.443C2545.14,140.45 2476.53,89.934 2398.82,78.819C2377.48,75.767 2355.75,75.746 2334.39,78.617C2324.35,79.967 2314.41,81.944 2304.61,84.516C2255.81,97.333 2211.9,124.749 2175.42,159.197C2152.43,180.913 2132.16,205.507 2114.87,231.976C2074.25,294.159 2049.74,367.487 2050.42,442.12C2050.63,465.205 2053.22,488.265 2058.25,510.798C2061.89,527.08 2066.8,543.078 2072.92,558.6C2077.71,570.751 2083.24,582.612 2089.47,594.093C2094.34,603.074 2099.64,611.824 2105.35,620.297C2139.47,670.933 2189.4,713.31 2249.19,729.298C2258.87,731.887 2268.74,733.761 2278.7,734.882C2297.03,736.946 2315.6,736.423 2333.81,733.565Z" style="fill:url(#_Linear27);fill-rule:nonzero;"/>
                                                </g>
                                                <g transform="matrix(1,0,0,1,2115,-1023.93)">
                                                    <path d="M2261.61,99.815C2231.75,114.092 2203.84,132.247 2179.51,154.742C2157.24,175.329 2138.25,199.134 2121.38,224.279C2120.8,224.4 2120.23,224.522 2119.64,224.617C2109.06,243.221 2098.22,261.679 2087.16,280.002C2083.41,287.296 2080.35,294.997 2077.39,302.64C2072.33,315.733 2067.96,329.098 2064.25,342.636C2055.08,376.131 2049.97,410.861 2050.47,445.628C2050.86,473.262 2054.86,500.809 2062.52,527.367C2075.55,572.49 2098.99,613.975 2128.42,650.401C2268.47,486.217 2421.14,332.642 2548.26,157.636C2502.25,110.076 2438.99,78.398 2372.34,76.064C2357.79,75.555 2343.2,76.437 2328.82,78.69C2305.53,82.339 2282.89,89.593 2261.64,99.755L2261.61,99.815Z" style="fill:url(#_Linear28);fill-rule:nonzero;"/>
                                                </g>
                                                <g transform="matrix(1,0,0,1,2115,-1023.93)">
                                                    <path d="M2490.29,488.597C2484.72,497.736 2478.59,506.537 2471.94,514.93C2466.91,521.288 2461.58,527.412 2455.97,533.266C2422.39,568.298 2377.34,594.926 2328.18,598.48C2320.66,599.024 2313.09,599.015 2305.58,598.422C2295.23,597.605 2284.97,595.678 2275.03,592.661C2262.04,588.716 2249.64,582.913 2238.22,575.587C2226.37,567.987 2215.59,558.769 2206.18,548.318C2197.87,539.099 2190.63,528.935 2184.55,518.121C2179.17,508.557 2174.7,498.487 2171.16,488.102C2159.38,453.53 2158.15,415.903 2166.09,380.349C2171.32,356.917 2180.46,334.42 2192.66,313.761C2220.77,266.14 2266.03,227.35 2320,212.903C2327.75,210.829 2335.64,209.274 2343.6,208.285C2353.11,207.103 2362.73,206.73 2372.3,207.214C2384.06,207.809 2395.75,209.7 2407.09,212.875C2421,216.771 2434.35,222.597 2446.7,230.086C2459.59,237.911 2471.38,247.543 2481.59,258.65C2490.14,267.957 2497.58,278.282 2503.72,289.332C2508.78,298.435 2512.95,308.023 2516.2,317.916C2518.92,326.174 2520.99,334.642 2522.41,343.215C2530.82,393.671 2516.66,445.449 2490.33,488.591L2490.29,488.597Z" style="fill:url(#_Linear29);fill-rule:nonzero;"/>
                                                </g>
                                                <g transform="matrix(1,0,0,1,2115,-1023.93)">
                                                    <path d="M2492.63,277.863C2410.33,378.393 2317.17,478.974 2231.58,576.576C2226.68,575.713 2221.79,574.847 2216.89,573.978C2304.19,475.184 2397.91,374.657 2481.53,272.594C2485.23,274.355 2488.93,276.111 2492.63,277.863Z" style="fill:rgb(230,232,226);fill-rule:nonzero;"/>
                                                </g>
                                                <g transform="matrix(1,0,0,1,2115,-1023.93)">
                                                    <path d="M2492.63,277.863C2411.13,377.413 2319.4,476.555 2234.59,573.16C2225.81,568.519 2217.02,563.901 2208.22,559.302C2296.57,459.93 2388.26,361.472 2471.91,257.985C2478.81,264.626 2485.71,271.251 2492.63,277.863Z" style="fill:rgb(230,232,226);fill-rule:nonzero;"/>
                                                </g>
                                                <g transform="matrix(1,0,0,1,2115,-1023.93)">
                                                    <path d="M2436.39,563.864C2402.56,591.033 2360.74,609.684 2316.85,610.001C2309.2,610.057 2301.55,609.556 2293.98,608.485C2284.3,607.115 2274.75,604.809 2265.52,601.603C2253.82,597.542 2242.63,592.039 2232.24,585.311C2219.76,577.228 2208.41,567.438 2198.5,556.359C2189.75,546.578 2182.12,535.808 2175.72,524.358C2170.05,514.235 2165.34,503.582 2161.6,492.599C2149.18,456.092 2147.84,416.384 2156.17,378.832C2161.65,354.107 2171.25,330.359 2184.08,308.542C2199.61,282.096 2219.88,258.452 2244.02,239.498C2260.64,226.453 2279.1,215.698 2298.84,208.116C2326.66,197.429 2356.94,193.232 2386.56,197.083C2397.09,198.453 2407.49,200.82 2417.57,204.159C2429.6,208.141 2441.16,213.504 2451.98,220.101C2478.33,236.179 2500.05,259.34 2514.32,286.72C2522.88,303.146 2528.7,320.929 2531.8,339.181C2533.21,347.492 2534.06,355.896 2534.36,364.319C2535.98,409.782 2521.46,454.584 2497.96,493.148C2481.64,519.966 2460.86,544.129 2436.34,563.772L2436.39,563.864ZM2255.02,257.491C2233.34,274.293 2215.17,295.34 2201.18,318.904C2189.63,338.381 2181,359.613 2176.06,381.726C2168.44,415.829 2169.75,451.975 2181.36,485.038C2184.73,494.641 2188.95,503.948 2194.01,512.785C2199.73,522.788 2206.51,532.185 2214.28,540.704C2223.09,550.372 2233.16,558.892 2244.2,565.914C2253.33,571.724 2263.14,576.473 2273.37,579.999C2281.43,582.775 2289.74,584.793 2298.17,586.032C2304.96,587.029 2311.82,587.523 2318.68,587.528C2358.45,587.554 2396.59,571.113 2427.43,546.675C2449.39,529.286 2467.99,507.826 2482.6,483.954C2507.61,443.017 2520.92,394.014 2512.78,346.153C2510,329.816 2504.79,313.895 2497.12,299.198C2484.37,274.78 2464.93,254.178 2441.34,239.965C2431.87,234.255 2421.76,229.611 2411.27,226.142C2402.49,223.241 2393.44,221.162 2384.28,219.919C2357.28,216.256 2329.61,219.99 2304.2,229.658C2286.52,236.383 2269.96,245.908 2255.02,257.491Z" style="fill:url(#_Linear30);fill-rule:nonzero;"/>
                                                </g>
                                                <g transform="matrix(1,0,0,1,2115,-1023.93)">
                                                    <path d="M2884.4,512.03C2801.22,531.819 2717.02,549.11 2632.87,564.173C2628.42,564.969 2624.39,567.369 2621.11,570.418C2614.95,576.147 2611.05,584.351 2610.31,592.714C2608.11,617.812 2605.81,642.903 2603.48,667.991C2603.34,669.463 2603.29,670.944 2603.34,672.422C2603.56,679.66 2606.38,688.257 2613.67,691.214C2614.61,691.598 2615.6,691.864 2616.61,692.008C2618.1,692.221 2619.61,692.166 2621.09,691.898C2704.42,676.755 2787.76,659.391 2870.1,639.555C2874.51,638.495 2878.26,635.533 2881.24,632.23C2887.34,625.47 2891.18,616.427 2892.23,607.416C2895.14,582.377 2898.01,557.333 2900.78,532.277C2901.58,525.003 2899.97,515.388 2892.23,512.395C2891.16,511.98 2890.02,511.732 2888.87,511.644C2887.37,511.528 2885.86,511.682 2884.4,512.03Z" style="fill:url(#_Linear31);fill-rule:nonzero;"/>
                                                </g>
                                                <g transform="matrix(1,0,0,1,2115,-1023.93)">
                                                    <path d="M2646.29,660.543C2644.77,658.511 2644.53,655.881 2644.76,653.429C2645.03,650.604 2645.97,647.848 2647.73,645.593C2649.19,643.712 2651.14,642.186 2653.52,641.741C2655.53,641.366 2657.45,641.927 2658.76,643.529C2660.3,645.489 2660.52,648.126 2660.28,650.524C2660,653.405 2659.02,656.139 2657.31,658.479C2655.88,660.425 2653.94,662.097 2651.51,662.553C2649.45,662.939 2647.53,662.256 2646.29,660.543Z" style="fill:white;fill-rule:nonzero;"/>
                                                </g>
                                                <g transform="matrix(1,0,0,1,2115,-1023.93)">
                                                    <path d="M2678.68,652.884C2674.17,650.256 2671.06,645.948 2669.24,641.117C2666.91,635.135 2666.58,628.572 2667.18,622.24C2667.85,615.272 2669.75,608.455 2672.98,602.237C2675.99,596.452 2680,591.201 2685.08,587.082C2689.7,583.284 2695.14,580.548 2701.03,579.399C2705.25,578.575 2709.72,578.532 2713.79,580.07C2717.51,581.479 2720.52,584.103 2722.66,587.432C2719.59,591.249 2716.52,595.07 2713.45,598.895C2711.28,595.597 2708.04,593.21 2704.02,592.964C2702.77,592.888 2701.52,593 2700.3,593.238C2696.76,593.93 2693.54,595.636 2690.8,597.951C2687.75,600.52 2685.41,603.799 2683.66,607.353C2681.76,611.26 2680.63,615.491 2680.21,619.807C2679.83,623.721 2679.98,627.792 2681.3,631.531C2682.34,634.455 2684.13,637.108 2686.8,638.749C2689.5,640.34 2692.66,640.597 2695.69,640.001C2702.16,638.731 2707.01,633.749 2710.51,628.446C2712.91,631.291 2715.31,634.146 2717.69,637.011C2714.83,641.595 2711.23,645.723 2706.89,648.967C2702.93,651.929 2698.38,654.072 2693.51,655.03C2688.46,656.024 2683.18,655.621 2678.67,652.993L2678.68,652.884Z" style="fill:white;fill-rule:nonzero;"/>
                                                </g>
                                                <g transform="matrix(1,0,0,1,2115,-1023.93)">
                                                    <path d="M2735.38,641.514C2730.89,638.935 2727.84,634.617 2726.06,629.824C2723.82,623.877 2723.51,617.371 2724.14,611.1C2724.84,604.16 2726.77,597.375 2729.97,591.169C2732.98,585.339 2737.01,580.055 2742.06,575.843C2746.68,571.997 2752.1,569.147 2758,567.918C2763,566.878 2768.28,567.05 2772.89,569.425C2777.31,571.707 2780.4,575.704 2782.22,580.271C2784.52,586.042 2784.76,592.454 2784.11,598.566C2783.37,605.642 2781.34,612.547 2778.16,618.914C2775.14,624.981 2771.09,630.538 2766.05,635.084C2761.54,639.1 2756.17,642.151 2750.23,643.397C2745.18,644.456 2739.92,644.089 2735.38,641.514ZM2760.84,623.674C2763.82,620.951 2766.11,617.559 2767.85,613.933C2769.76,609.968 2770.9,605.676 2771.35,601.304C2771.76,597.454 2771.65,593.459 2770.37,589.77C2769.39,586.95 2767.68,584.43 2765.07,582.899C2762.49,581.418 2759.47,581.22 2756.6,581.818C2753.2,582.527 2750.12,584.272 2747.53,586.557C2744.56,589.173 2742.26,592.458 2740.52,596C2738.64,599.918 2737.49,604.151 2737.05,608.473C2736.65,612.372 2736.78,616.431 2738.06,620.167C2739.05,623.038 2740.74,625.698 2743.35,627.336C2745.89,628.901 2748.91,629.164 2751.79,628.561C2755.21,627.843 2758.27,626.014 2760.84,623.674Z" style="fill:white;fill-rule:nonzero;"/>
                                                </g>
                                                <g transform="matrix(1,0,0,1,2115,-1023.93)">
                                                    <path d="M2838.45,622.706C2840.09,607.911 2841.71,593.114 2843.31,578.315C2836.66,591.631 2830.06,604.975 2823.52,618.35C2821.66,618.774 2819.79,619.196 2817.93,619.618C2814.08,608.905 2810.1,598.236 2806,587.615C2804.45,602.104 2802.89,616.59 2801.3,631.075C2797.4,631.941 2793.5,632.801 2789.6,633.656C2792.24,609.345 2794.83,585.029 2797.34,560.704C2800.8,559.951 2804.26,559.194 2807.72,558.433C2813.07,571.741 2818.22,585.129 2823.18,598.589C2831.3,582.155 2839.52,565.766 2847.8,549.413C2851.2,548.632 2854.59,547.847 2857.98,547.059C2855.41,571.364 2852.76,595.66 2850.05,619.95C2846.2,620.853 2842.35,621.75 2838.5,622.642L2838.45,622.706Z" style="fill:white;fill-rule:nonzero;"/>
                                                </g>
                                                <g transform="matrix(1,0,0,1,2115,-1023.93)">
                                                    <path d="M2831.38,385.479C2822.49,399.083 2810.45,411.534 2795.76,418.823C2782.67,425.344 2767.56,428.751 2753.4,423.68C2750.12,422.625 2746.96,421.185 2744.01,419.397C2741.52,417.882 2739.18,416.12 2737.02,414.151C2723.8,402.074 2718.86,383.596 2719.79,366.167C2721.1,341.574 2733.26,317.719 2751.58,301.415C2761.47,292.614 2773.45,285.883 2786.52,283.293C2787.54,283.09 2788.58,283.02 2789.61,282.862C2790.12,282.758 2790.65,282.698 2791.18,282.638C2793.21,282.412 2795.25,282.266 2797.29,282.278C2809.79,281.983 2822.86,285.979 2831.01,295.918C2832.71,297.656 2834.26,299.545 2835.65,301.537C2849.88,283.356 2863.97,265.064 2877.86,246.625C2877.86,246.625 2877.8,246.575 2877.78,246.552C2873.11,240.978 2867.8,235.951 2861.94,231.644C2857.52,228.39 2852.79,225.549 2847.84,223.173C2829.11,214.185 2807.82,212.374 2787.56,216.325C2784.36,216.948 2781.22,217.84 2778.08,218.726C2771.36,220.798 2764.81,223.409 2758.49,226.501C2746.26,232.432 2734.75,239.801 2724.3,248.482C2723.5,249.194 2722.65,249.861 2721.87,250.598C2720.19,252.017 2718.62,253.564 2717.01,255.055C2691.06,280.012 2672.37,312.87 2664.34,347.975C2663.98,349.609 2663.67,351.252 2663.34,352.892C2662.97,354.859 2662.59,356.827 2662.3,358.808C2659.77,376.089 2660.2,393.711 2663.37,410.879C2666.95,430.274 2674.07,449.341 2686.68,464.728C2687.32,465.446 2687.9,466.207 2688.54,466.926C2689.85,468.395 2691.23,469.795 2692.64,471.163C2694.13,472.63 2695.62,474.095 2697.21,475.462C2698.07,476.222 2699,476.901 2699.91,477.604C2701.99,479.25 2704.09,480.866 2706.31,482.311C2706.83,482.668 2707.4,482.955 2707.92,483.312C2718.81,490.062 2731.17,494.249 2743.92,495.505C2753.41,496.438 2763.01,495.775 2772.34,493.84C2776.45,492.988 2780.5,491.9 2784.49,490.591C2784.65,490.559 2784.8,490.52 2784.94,490.45C2788.91,489.137 2792.81,487.602 2796.63,485.898L2796.71,485.881C2825.71,472.783 2849.65,449.583 2867.44,423.533C2855.55,410.759 2843.46,398.158 2831.25,385.686L2831.38,385.479Z" style="fill:rgb(240,81,35);fill-rule:nonzero;"/>
                                                </g>
                                            </g>
                                        </g>
                                    </g>
                                </g>
                            </g>
                        </g>
                    </g>
                    <g transform="matrix(0.303,0,0,0.439103,4446.73,-100.802)">
                        <g transform="matrix(3.2883,0.194206,-0.28144,2.26907,-7476.59,-4064.84)">
                            <path d="M2839.89,1908.76L2827.84,1998.16C2827.84,1998.16 2871.4,2043.05 2951.41,2036.31C3052.27,2027.82 3067.88,1974.04 3067.88,1974.04L3040.69,1888.91L2839.89,1908.76" style="fill:url(#_Radial32);"/>
                        </g>
                        <g transform="matrix(3.30028,-0.0122924,0.0313087,4.0025,-8105.44,-6821.99)">
                            <ellipse cx="2940.09" cy="1917.47" rx="100.924" ry="19.507" style="fill:url(#_Radial33);"/>
                        </g>
                        <g transform="matrix(-0.0935223,-0.00226646,-0.00314786,0.0618494,1760.85,967.703)">
                            <path d="M1050.5,2044.96C997.583,2046.54 944.625,2045.21 891.667,2045.67C823.583,2046 755.75,2019.79 706.25,1972.88C651.458,1922.83 620.542,1848.96 621,1775C621.167,1687.08 623.25,1599.25 622,1511.33C531.292,1510.67 440.625,1511.46 349.958,1510.96C287.792,1510.12 226.667,1485.88 180.083,1444.92C133.667,1404.75 101.917,1348.04 92.375,1287.38C88.083,1262.62 88.917,1237.46 88.875,1212.5C88.958,1104.08 88.833,995.708 88.917,887.292C89,819.917 115.917,752.917 163.042,704.667C203.417,661.958 258.458,633.333 316.667,625.083C342.875,621.083 369.417,622.417 395.833,622.208C471.208,622.042 546.625,622.542 622,622C622.542,548 622.042,474 622.208,400C622.542,370.875 620.75,341.458 625.708,312.583C634.833,254.875 663.875,200.667 706.792,161.042C756.875,113.083 826.5,87.125 895.667,88.875C981.833,89.708 1068,87.583 1154.17,87.792C1191.88,88.5 1229.75,86.125 1267.38,89.333C1333.42,94.708 1396.88,125.958 1441.29,175.167C1485.79,223.375 1511.38,288.292 1511.75,353.875C1511.92,443.083 1511.62,532.25 1511.88,621.458C1603.83,621.667 1695.79,620.792 1787.75,621.292C1847.54,623.875 1906.71,646.208 1951.83,685.833C2010.17,735.375 2045.29,810.917 2045.5,887.458C2045.46,981.917 2045.46,1076.38 2045.46,1170.83C2044.75,1222.25 2049.92,1275.08 2033.04,1324.71C2001.04,1430.42 1898.25,1509.17 1787.75,1512.04C1695.92,1512.38 1604.08,1511.92 1512.25,1512.25C1511.96,1602.71 1512.25,1693.17 1512.12,1783.62C1510.67,1843.88 1488.5,1903.5 1449.33,1949.5C1399.12,2010.46 1320.71,2046.5 1241.79,2045.5C1178.04,2045.08 1114.21,2046.21 1050.5,2044.96Z" style="fill:rgb(232,55,25);"/>
                        </g>
                    </g>
                    <g transform="matrix(-0.880639,0.135747,-0.152347,-0.988327,7504.88,765.994)">
                        <path d="M2903.67,512.421C2903.2,512.836 2901.84,514.607 2902.64,516.157C2903.51,517.852 2905.76,518.147 2906.31,517.843C2921.24,509.27 2946.95,500.386 2969.2,504.536C2993.88,509.14 2998.28,516.586 3003.8,520.557C3011.43,526.042 3025.42,515.522 3021.7,507.473C3018.07,499.63 2995.4,484.991 2962.24,486.928C2935.62,488.484 2915.29,502.442 2903.67,512.421Z"/>
                    </g>
                    <g transform="matrix(-0.904546,0.318598,-0.318429,-0.904066,7473.76,-83.9098)">
                        <path d="M2756.55,287.715C2762.45,289.603 2765.42,283.284 2771.99,281.96C2778.82,280.584 2784.41,281.197 2788.81,278.124C2796.07,273.045 2795.57,264.999 2789.67,260.23C2784.2,255.808 2776.73,256.816 2768.64,258.52C2759.45,260.451 2755.91,264.44 2751.58,269.195C2746.72,274.532 2745.04,284.026 2756.55,287.715Z"/>
                    </g>
                    <g transform="matrix(0.904546,0.318598,0.318429,-0.904066,2412.39,-83.9098)">
                        <path d="M2756.55,287.715C2762.45,289.603 2765.42,283.284 2771.99,281.96C2778.82,280.584 2784.41,281.197 2788.81,278.124C2796.07,273.045 2795.57,264.999 2789.67,260.23C2784.2,255.808 2776.73,256.816 2768.64,258.52C2759.45,260.451 2755.91,264.44 2751.58,269.195C2746.72,274.532 2745.04,284.026 2756.55,287.715Z"/>
                    </g>
                    <g transform="matrix(0.880639,0.135747,0.152347,-0.988327,2381.28,765.994)">
                        <path d="M2903.67,512.421C2903.2,512.836 2901.84,514.607 2902.64,516.157C2903.51,517.852 2905.76,518.147 2906.31,517.843C2921.24,509.27 2946.95,500.386 2969.2,504.536C2993.88,509.14 2998.28,516.586 3003.8,520.557C3011.43,526.042 3025.42,515.522 3021.7,507.473C3018.07,499.63 2995.4,484.991 2962.24,486.928C2935.62,488.484 2915.29,502.442 2903.67,512.421Z"/>
                    </g>
                    <g transform="matrix(9.14209e-17,1.49302,-1.62081,9.9246e-17,9179.41,70.4956)">
                        <path d="M490.617,2596.92C491.504,2594.09 490.427,2591.04 487.896,2589.23C485.366,2587.42 481.894,2587.22 479.132,2588.71C469.687,2593.86 463.381,2603.14 463.381,2613.72C463.381,2624.28 469.663,2633.55 479.074,2638.71C481.843,2640.21 485.33,2640.01 487.872,2638.2C490.415,2636.38 491.501,2633.33 490.612,2630.48C489.013,2625.34 488.018,2619.63 488.018,2613.72C488.018,2607.8 489.018,2602.08 490.617,2596.92Z" style="fill:rgb(0,15,42);"/>
                        <clipPath id="_clip34">
                            <path d="M490.617,2596.92C491.504,2594.09 490.427,2591.04 487.896,2589.23C485.366,2587.42 481.894,2587.22 479.132,2588.71C469.687,2593.86 463.381,2603.14 463.381,2613.72C463.381,2624.28 469.663,2633.55 479.074,2638.71C481.843,2640.21 485.33,2640.01 487.872,2638.2C490.415,2636.38 491.501,2633.33 490.612,2630.48C489.013,2625.34 488.018,2619.63 488.018,2613.72C488.018,2607.8 489.018,2602.08 490.617,2596.92Z"/>
                        </clipPath>
                        <g clip-path="url(#_clip34)">
                            <g transform="matrix(4.71832e-17,-0.709806,0.709275,4.00063e-17,-1380.47,2963.34)">
                                <ellipse cx="492.562" cy="2649.29" rx="30.588" ry="30.237" style="fill:url(#_Linear35);"/>
                            </g>
                        </g>
                    </g>
                    <g transform="matrix(-0.250602,-1.01852,1.11829,-0.275149,2954.78,1799.57)">
                        <path d="M809.073,2209.7C808.29,2208.41 806.794,2207.6 805.169,2207.6C803.544,2207.6 802.048,2208.41 801.266,2209.7C792.916,2223.2 774.075,2255.4 774.075,2271.2C774.075,2286.83 788.008,2299.52 805.169,2299.52C822.33,2299.52 836.263,2286.83 836.263,2271.2C836.263,2255.4 817.422,2223.2 809.073,2209.7Z" style="fill:url(#_Radial36);"/>
                    </g>
                    <g transform="matrix(-0.569304,-0.487293,0.535023,-0.625068,4478.64,2104.45)">
                        <path d="M809.073,2209.7C808.29,2208.41 806.794,2207.6 805.169,2207.6C803.544,2207.6 802.048,2208.41 801.266,2209.7C792.916,2223.2 774.075,2255.4 774.075,2271.2C774.075,2286.83 788.008,2299.52 805.169,2299.52C822.33,2299.52 836.263,2286.83 836.263,2271.2C836.263,2255.4 817.422,2223.2 809.073,2209.7Z" style="fill:url(#_Radial37);"/>
                    </g>
                </g>
            </g>
        </g>
    </g>
    <defs>
        <linearGradient id="_Linear2" x1="0" y1="0" x2="1" y2="0" gradientUnits="userSpaceOnUse" gradientTransform="matrix(-40.9864,-67.4867,-67.3743,49.2806,902.057,2953.24)"><stop offset="0" style="stop-color:rgb(255,144,54);stop-opacity:1"/><stop offset="1" style="stop-color:rgb(255,191,103);stop-opacity:1"/></linearGradient>
        <linearGradient id="_Linear3" x1="0" y1="0" x2="1" y2="0" gradientUnits="userSpaceOnUse" gradientTransform="matrix(-40.9864,-67.4867,-67.3743,49.2806,902.057,2953.24)"><stop offset="0" style="stop-color:rgb(255,144,54);stop-opacity:1"/><stop offset="1" style="stop-color:rgb(255,191,103);stop-opacity:1"/></linearGradient>
        <linearGradient id="_Linear4" x1="0" y1="0" x2="1" y2="0" gradientUnits="userSpaceOnUse" gradientTransform="matrix(0.0951468,32.4809,-30.77,2.84244,948.697,2869.94)"><stop offset="0" style="stop-color:rgb(242,111,33);stop-opacity:1"/><stop offset="0.45" style="stop-color:rgb(243,117,35);stop-opacity:0.71"/><stop offset="1" style="stop-color:rgb(247,132,41);stop-opacity:0"/></linearGradient>
        <linearGradient id="_Linear5" x1="0" y1="0" x2="1" y2="0" gradientUnits="userSpaceOnUse" gradientTransform="matrix(0.0951468,32.4809,30.77,-2.84244,954.272,2869.42)"><stop offset="0" style="stop-color:rgb(242,111,33);stop-opacity:1"/><stop offset="0.45" style="stop-color:rgb(243,117,35);stop-opacity:0.71"/><stop offset="1" style="stop-color:rgb(247,132,41);stop-opacity:0"/></linearGradient>
        <linearGradient id="_Linear6" x1="0" y1="0" x2="1" y2="0" gradientUnits="userSpaceOnUse" gradientTransform="matrix(3.92789e-15,-71.698,64.1473,4.39024e-15,483.209,2971.95)"><stop offset="0" style="stop-color:rgb(0,36,104);stop-opacity:1"/><stop offset="0.55" style="stop-color:rgb(0,32,91);stop-opacity:1"/><stop offset="1" style="stop-color:rgb(0,15,42);stop-opacity:1"/></linearGradient>
        <linearGradient id="_Linear7" x1="0" y1="0" x2="1" y2="0" gradientUnits="userSpaceOnUse" gradientTransform="matrix(-3.92789e-15,-71.698,-64.1473,4.39024e-15,489.083,2971.95)"><stop offset="0" style="stop-color:rgb(0,36,104);stop-opacity:1"/><stop offset="0.55" style="stop-color:rgb(0,32,91);stop-opacity:1"/><stop offset="1" style="stop-color:rgb(0,15,42);stop-opacity:1"/></linearGradient>
        <radialGradient id="_Radial8" cx="0" cy="0" r="1" gradientUnits="userSpaceOnUse" gradientTransform="matrix(-70.0077,-13.0396,25.7779,-138.398,313.912,2777.44)"><stop offset="0" style="stop-color:white;stop-opacity:1"/><stop offset="0.52" style="stop-color:rgb(242,245,251);stop-opacity:1"/><stop offset="1" style="stop-color:rgb(198,214,239);stop-opacity:1"/></radialGradient>
        <radialGradient id="_Radial9" cx="0" cy="0" r="1" gradientUnits="userSpaceOnUse" gradientTransform="matrix(-70.0077,-13.0396,25.7779,-138.398,313.912,2777.44)"><stop offset="0" style="stop-color:white;stop-opacity:1"/><stop offset="0.52" style="stop-color:rgb(242,245,251);stop-opacity:1"/><stop offset="1" style="stop-color:rgb(198,214,239);stop-opacity:1"/></radialGradient>
        <radialGradient id="_Radial10" cx="0" cy="0" r="1" gradientUnits="userSpaceOnUse" gradientTransform="matrix(-217.124,-2.26928,2.02807,-194.046,986.02,1115.72)"><stop offset="0" style="stop-color:white;stop-opacity:1"/><stop offset="0.6" style="stop-color:rgb(245,248,252);stop-opacity:1"/><stop offset="0.81" style="stop-color:rgb(222,231,246);stop-opacity:1"/><stop offset="1" style="stop-color:rgb(198,214,239);stop-opacity:1"/></radialGradient>
        <linearGradient id="_Linear12" x1="0" y1="0" x2="1" y2="0" gradientUnits="userSpaceOnUse" gradientTransform="matrix(-54.1902,-0.0762341,0.0762341,-54.1902,500.366,2851.32)"><stop offset="0" style="stop-color:rgb(130,149,181);stop-opacity:1"/><stop offset="0.17" style="stop-color:rgb(94,121,167);stop-opacity:0.56"/><stop offset="0.37" style="stop-color:rgb(62,96,154);stop-opacity:0.16"/><stop offset="1" style="stop-color:rgb(49,86,149);stop-opacity:0"/></linearGradient>
        <linearGradient id="_Linear13" x1="0" y1="0" x2="1" y2="0" gradientUnits="userSpaceOnUse" gradientTransform="matrix(-1.14431,-88.6218,56.5862,-1.79215,1033.96,963.151)"><stop offset="0" style="stop-color:white;stop-opacity:1"/><stop offset="1" style="stop-color:rgb(130,149,181);stop-opacity:1"/></linearGradient>
        <linearGradient id="_Linear14" x1="0" y1="0" x2="1" y2="0" gradientUnits="userSpaceOnUse" gradientTransform="matrix(-1.14431,-88.6218,-56.5862,1.79215,1033.96,963.151)"><stop offset="0" style="stop-color:white;stop-opacity:1"/><stop offset="1" style="stop-color:rgb(130,149,181);stop-opacity:1"/></linearGradient>
        <linearGradient id="_Linear15" x1="0" y1="0" x2="1" y2="0" gradientUnits="userSpaceOnUse" gradientTransform="matrix(1.80237e-15,-29.435,29.435,1.80237e-15,492.869,2731.95)"><stop offset="0" style="stop-color:rgb(255,144,54);stop-opacity:1"/><stop offset="1" style="stop-color:rgb(242,111,33);stop-opacity:1"/></linearGradient>
        <linearGradient id="_Linear17" x1="0" y1="0" x2="1" y2="0" gradientUnits="userSpaceOnUse" gradientTransform="matrix(1.56721,43.719,-43.719,1.56721,493.567,2746.63)"><stop offset="0" style="stop-color:rgb(46,159,237);stop-opacity:1"/><stop offset="1" style="stop-color:rgb(21,115,205);stop-opacity:1"/></linearGradient>
        <linearGradient id="_Linear18" x1="0" y1="0" x2="1" y2="0" gradientUnits="userSpaceOnUse" gradientTransform="matrix(-268.978,-196.109,196.109,-268.978,1085.1,1108.2)"><stop offset="0" style="stop-color:rgb(16,80,159);stop-opacity:1"/><stop offset="0.09" style="stop-color:rgb(18,95,178);stop-opacity:1"/><stop offset="0.19" style="stop-color:rgb(20,109,197);stop-opacity:1"/><stop offset="0.47" style="stop-color:rgb(21,115,205);stop-opacity:1"/><stop offset="0.79" style="stop-color:rgb(25,123,211);stop-opacity:1"/><stop offset="0.9" style="stop-color:rgb(35,141,224);stop-opacity:1"/><stop offset="1" style="stop-color:rgb(46,160,237);stop-opacity:1"/></linearGradient>
        <radialGradient id="_Radial19" cx="0" cy="0" r="1" gradientUnits="userSpaceOnUse" gradientTransform="matrix(-323.316,6.11805e-13,7.14366e-13,273.381,1081.11,609.211)"><stop offset="0" style="stop-color:rgb(255,191,103);stop-opacity:1"/><stop offset="0.6" style="stop-color:rgb(255,183,94);stop-opacity:1"/><stop offset="0.81" style="stop-color:rgb(255,164,74);stop-opacity:1"/><stop offset="1" style="stop-color:rgb(255,144,54);stop-opacity:1"/></radialGradient>
        <linearGradient id="_Linear20" x1="0" y1="0" x2="1" y2="0" gradientUnits="userSpaceOnUse" gradientTransform="matrix(4.63943e-15,-75.7677,75.7677,4.63943e-15,494.068,2526.61)"><stop offset="0" style="stop-color:rgb(253,158,72);stop-opacity:1"/><stop offset="1" style="stop-color:rgb(238,130,57);stop-opacity:1"/></linearGradient>
        <radialGradient id="_Radial21" cx="0" cy="0" r="1" gradientUnits="userSpaceOnUse" gradientTransform="matrix(-41.6683,137.775,-157.716,-52.1431,1090.45,2728.8)"><stop offset="0" style="stop-color:rgb(2,30,89);stop-opacity:1"/><stop offset="0.49" style="stop-color:rgb(6,47,115);stop-opacity:1"/><stop offset="1" style="stop-color:rgb(19,95,192);stop-opacity:1"/></radialGradient>
        <radialGradient id="_Radial23" cx="0" cy="0" r="1" gradientUnits="userSpaceOnUse" gradientTransform="matrix(-123.907,1.15905,-0.867344,-101.362,1044.03,2746.32)"><stop offset="0" style="stop-color:rgb(46,159,237);stop-opacity:1"/><stop offset="0.51" style="stop-color:rgb(40,144,226);stop-opacity:1"/><stop offset="1" style="stop-color:rgb(19,95,192);stop-opacity:1"/></radialGradient>
        <linearGradient id="_Linear25" x1="0" y1="0" x2="1" y2="0.0235551" gradientUnits="userSpaceOnUse" gradientTransform="matrix(264.737,-5.54553,5.54553,264.737,2848.96,1147.43)"><stop offset="0" style="stop-color:white;stop-opacity:1"/><stop offset="0.57" style="stop-color:rgb(246,248,252);stop-opacity:1"/><stop offset="0.79" style="stop-color:rgb(227,235,247);stop-opacity:1"/><stop offset="1" style="stop-color:rgb(209,222,242);stop-opacity:1"/></linearGradient>
        <linearGradient id="_Linear26" x1="0" y1="0" x2="1" y2="0.0235551" gradientUnits="userSpaceOnUse" gradientTransform="matrix(264.737,-5.54553,5.54553,264.737,2849.49,1164.72)"><stop offset="0" style="stop-color:white;stop-opacity:1"/><stop offset="0.57" style="stop-color:rgb(246,248,252);stop-opacity:1"/><stop offset="0.79" style="stop-color:rgb(227,235,247);stop-opacity:1"/><stop offset="1" style="stop-color:rgb(209,222,242);stop-opacity:1"/></linearGradient>
        <linearGradient id="_Linear27" x1="0" y1="0" x2="1" y2="-0.0309948" gradientUnits="userSpaceOnUse" gradientTransform="matrix(-984.19,-264.325,264.325,-984.19,3054.6,548.07)"><stop offset="0" style="stop-color:rgb(239,208,61);stop-opacity:1"/><stop offset="0.43" style="stop-color:rgb(239,208,61);stop-opacity:1"/><stop offset="0.65" style="stop-color:rgb(240,81,35);stop-opacity:1"/><stop offset="1" style="stop-color:rgb(240,81,35);stop-opacity:1"/></linearGradient>
        <linearGradient id="_Linear28" x1="0" y1="0" x2="1" y2="-0.037819" gradientUnits="userSpaceOnUse" gradientTransform="matrix(-427.69,-131.907,131.907,-427.69,2429.36,367.53)"><stop offset="0" style="stop-color:rgb(239,208,61);stop-opacity:1"/><stop offset="0.6" style="stop-color:rgb(241,130,43);stop-opacity:1"/><stop offset="1" style="stop-color:rgb(241,130,43);stop-opacity:1"/></linearGradient>
        <linearGradient id="_Linear29" x1="0" y1="0" x2="1" y2="-0.0834266" gradientUnits="userSpaceOnUse" gradientTransform="matrix(303.92,200.634,-200.634,303.92,2128.03,236.317)"><stop offset="0" style="stop-color:white;stop-opacity:1"/><stop offset="1" style="stop-color:rgb(228,228,228);stop-opacity:1"/></linearGradient>
        <linearGradient id="_Linear30" x1="0" y1="0" x2="1" y2="-0.106152" gradientUnits="userSpaceOnUse" gradientTransform="matrix(256.78,285.9,-285.9,256.78,2110.18,147.399)"><stop offset="0" style="stop-color:white;stop-opacity:1"/><stop offset="1" style="stop-color:rgb(217,217,216);stop-opacity:1"/></linearGradient>
        <linearGradient id="_Linear31" x1="0" y1="0" x2="1" y2="-0.0748189" gradientUnits="userSpaceOnUse" gradientTransform="matrix(-882.26,-506.248,506.248,-882.26,3196,850.023)"><stop offset="0" style="stop-color:rgb(239,208,61);stop-opacity:1"/><stop offset="0.21" style="stop-color:rgb(239,208,61);stop-opacity:1"/><stop offset="0.61" style="stop-color:rgb(240,81,35);stop-opacity:1"/><stop offset="1" style="stop-color:rgb(240,81,35);stop-opacity:1"/></linearGradient>
        <radialGradient id="_Radial32" cx="0" cy="0" r="1" gradientUnits="userSpaceOnUse" gradientTransform="matrix(142.81,-12.0972,-6.14929,-72.5939,2947.52,1982.08)"><stop offset="0" style="stop-color:white;stop-opacity:1"/><stop offset="0.48" style="stop-color:rgb(240,244,251);stop-opacity:1"/><stop offset="1" style="stop-color:rgb(198,214,239);stop-opacity:1"/></radialGradient>
        <radialGradient id="_Radial33" cx="0" cy="0" r="1" gradientUnits="userSpaceOnUse" gradientTransform="matrix(-110.96,-0.832241,-0.203574,27.1419,2936.84,1918.28)"><stop offset="0" style="stop-color:white;stop-opacity:1"/><stop offset="0.54" style="stop-color:rgb(243,246,252);stop-opacity:1"/><stop offset="1" style="stop-color:rgb(198,214,239);stop-opacity:1"/></radialGradient>
        <linearGradient id="_Linear35" x1="0" y1="0" x2="1" y2="0" gradientUnits="userSpaceOnUse" gradientTransform="matrix(-8.90852e-13,-16.782,15.4473,-9.67826e-13,492.562,2635.83)"><stop offset="0" style="stop-color:rgb(226,62,45);stop-opacity:1"/><stop offset="1" style="stop-color:rgb(254,99,67);stop-opacity:1"/></linearGradient>
        <radialGradient id="_Radial36" cx="0" cy="0" r="1" gradientUnits="userSpaceOnUse" gradientTransform="matrix(23.8195,-1.09979,1.91597,34.423,815.471,2264.55)"><stop offset="0" style="stop-color:rgb(147,220,255);stop-opacity:1"/><stop offset="1" style="stop-color:rgb(94,194,250);stop-opacity:1"/></radialGradient>
        <radialGradient id="_Radial37" cx="0" cy="0" r="1" gradientUnits="userSpaceOnUse" gradientTransform="matrix(23.8195,-1.09979,1.91597,34.423,815.471,2264.55)"><stop offset="0" style="stop-color:rgb(147,220,255);stop-opacity:1"/><stop offset="1" style="stop-color:rgb(94,194,250);stop-opacity:1"/></radialGradient>
    </defs>
</svg>
