<svg width="25" height="32" viewBox="0 0 25 32" fill="none" xmlns="http://www.w3.org/2000/svg">
<path d="M18 1H0L24 25V7C24 3.68629 21.3137 1 18 1Z" fill="#0355A1"/>
<path d="M19.2632 6.14007C18.9894 5.92328 18.5865 5.96222 18.3621 6.22858L14.8398 10.4103L13.6237 9.06281C13.3903 8.80416 12.9863 8.77837 12.7201 9.00417C12.4524 9.23124 12.4248 9.62721 12.6596 9.88735L14.3746 11.7876C14.4993 11.9257 14.6797 12.003 14.8675 11.9999C15.0554 11.9968 15.2331 11.9136 15.3529 11.7714L19.3545 7.02071C19.5801 6.75283 19.5385 6.35804 19.2632 6.14007Z" fill="white"/>
</svg>
