<svg width="28" height="28" viewBox="0 0 28 28" fill="none" xmlns="http://www.w3.org/2000/svg">
<path d="M13.9997 6.18339V24.8851C13.8013 24.8851 13.5913 24.8501 13.428 24.7567L13.3813 24.7334C11.1413 23.5084 7.23301 22.2251 4.70134 21.8867L4.36301 21.8401C3.24301 21.7001 2.33301 20.6501 2.33301 19.5301V5.43672C2.33301 4.04839 3.46467 2.99839 4.85301 3.11506C7.30301 3.31339 11.013 4.55006 13.0897 5.84506L13.3813 6.02006C13.5563 6.12506 13.778 6.18339 13.9997 6.18339Z" fill="url(#paint0_linear_914_229468)"/>
<path d="M25.6667 5.44829V19.53C25.6667 20.65 24.7567 21.7 23.6367 21.84L23.2517 21.8866C20.7083 22.225 16.7883 23.52 14.5483 24.7566C14.3967 24.85 14.21 24.885 14 24.885V6.18329C14.2217 6.18329 14.4433 6.12495 14.6183 6.01995L14.8167 5.89162C16.8933 4.58495 20.615 3.33662 23.065 3.12662H23.135C24.5233 3.00995 25.6667 4.04829 25.6667 5.44829Z" fill="url(#paint1_linear_914_229468)"/>
<path d="M9.04199 10.78H6.41699C5.93866 10.78 5.54199 10.3834 5.54199 9.90503C5.54199 9.4267 5.93866 9.03003 6.41699 9.03003H9.04199C9.52033 9.03003 9.91699 9.4267 9.91699 9.90503C9.91699 10.3834 9.52033 10.78 9.04199 10.78Z" fill="white"/>
<path d="M9.91699 14.28H6.41699C5.93866 14.28 5.54199 13.8834 5.54199 13.405C5.54199 12.9267 5.93866 12.53 6.41699 12.53H9.91699C10.3953 12.53 10.792 12.9267 10.792 13.405C10.792 13.8834 10.3953 14.28 9.91699 14.28Z" fill="white"/>
<defs>
<linearGradient id="paint0_linear_914_229468" x1="12.2911" y1="21.6956" x2="-0.529112" y2="14.828" gradientUnits="userSpaceOnUse">
<stop stop-color="#1250DC"/>
<stop offset="1" stop-color="#306DE4"/>
</linearGradient>
<linearGradient id="paint1_linear_914_229468" x1="23.9581" y1="21.6972" x2="11.1409" y2="14.8275" gradientUnits="userSpaceOnUse">
<stop stop-color="#1250DC"/>
<stop offset="1" stop-color="#306DE4"/>
</linearGradient>
</defs>
</svg>
