<svg width="32" height="32" viewBox="0 0 32 32" fill="none" xmlns="http://www.w3.org/2000/svg">
<path d="M13.1272 17.8972C12.8467 17.5465 12.5716 17.2024 12.2971 16.8569C11.9015 16.3593 11.4946 15.8701 11.115 15.3604C10.5309 14.5758 10.1196 13.7082 9.94717 12.7375C9.83798 12.1221 9.91135 11.5348 10.1845 10.9649C10.9333 9.39675 11.6698 7.82281 12.4112 6.25146C12.4196 6.23083 12.4348 6.21374 12.4544 6.20312C12.4395 6.40575 12.4311 6.60902 12.4086 6.81078C12.3223 7.58631 12.4783 8.3243 12.734 9.05085C13.1009 10.0931 13.6649 11.0195 14.3503 11.88C16.6907 14.8184 19.0292 17.7582 21.3657 20.6994C22.4358 22.0416 23.5184 23.3751 24.5951 24.7111C24.6193 24.7411 24.642 24.7723 24.6694 24.8086L21.0519 27.7957C19.3869 25.7283 17.7299 23.6703 16.0623 21.5994C14.398 23.6659 12.7346 25.7315 11.0721 27.7961L7.45117 24.8897L13.1272 17.8972Z" fill="#769DEA"/>
<path d="M19.5698 16.9916L16.6621 13.3261C16.8477 13.0956 17.0326 12.8807 17.2016 12.6537C17.6815 12.0085 18.1618 11.3635 18.6273 10.708C18.8525 10.391 19.0025 10.0308 19.1331 9.64046C18.9658 9.61327 18.8061 9.57939 18.6445 9.56256C17.501 9.44363 16.3496 9.41909 15.2021 9.48919C14.8784 9.5084 14.5562 9.51746 14.2336 9.53516C14.1655 9.53904 14.1324 9.51574 14.1042 9.45381C13.5802 8.25986 13.3643 7.01348 13.4642 5.71294C13.4737 5.59124 13.4907 5.46997 13.4974 5.34827C13.5015 5.27512 13.5345 5.24512 13.6033 5.22484C14.0382 5.09638 14.488 5.02557 14.9412 5.01423C15.6192 4.99805 16.2983 4.99265 16.9761 5.01423C17.555 5.03344 18.1253 5.13291 18.668 5.35172C19.1585 5.54938 19.5364 5.85925 19.7705 6.3521C20.3926 7.66192 21.038 8.96052 21.6612 10.2699C21.8274 10.6202 21.9681 10.9821 22.082 11.3527C22.26 11.9297 22.1942 12.5113 22.0352 13.0844C21.8494 13.7467 21.545 14.3698 21.1366 14.9233C20.652 15.5866 20.1486 16.2366 19.6529 16.8919C19.6313 16.9213 19.6069 16.9476 19.5698 16.9916Z" fill="#769DEA"/>
</svg>
