<svg width="41" height="40" viewBox="0 0 41 40" fill="none" xmlns="http://www.w3.org/2000/svg">
<path d="M22.3788 25.6024H18.6145C11.0126 25.6024 8.03003 19.4548 10.529 14.6238L11.2366 13.2558C12.6904 10.4454 16.2991 8.7417 19.6636 8.7417H21.3297C24.6942 8.7417 28.303 10.4454 29.7567 13.2558L30.4644 14.6238C32.9632 19.4549 29.9807 25.6024 22.3788 25.6024Z" fill="url(#paint0_linear_914_229245)"/>
<g clip-path="url(#clip0_914_229245)">
<path d="M33.5366 36.6667H7.45674C6.83615 36.6667 6.33301 36.1635 6.33301 35.5429C6.33301 29.5476 11.1931 24.6875 17.1885 24.6875H23.8049C29.8002 24.6875 34.6604 29.5476 34.6604 35.5429C34.6604 36.1636 34.1572 36.6667 33.5366 36.6667Z" fill="url(#paint1_linear_914_229245)"/>
<path d="M18.4639 36.9169L14.308 33.3162C13.655 32.7504 13.4002 31.8509 13.6597 31.0267L15.5972 24.8724C15.615 24.8159 15.6978 24.8277 15.6996 24.8869C15.8846 31.1183 17.8387 35.3165 18.6348 36.7803C18.6938 36.8889 18.5574 36.9979 18.4639 36.9169Z" fill="url(#paint2_linear_914_229245)"/>
<path d="M22.8318 36.6386L26.5451 33.0379C27.1286 32.4721 27.3563 31.5726 27.1244 30.7484L25.3932 24.5941C25.3773 24.5375 25.3033 24.5494 25.3017 24.6086C25.1365 30.84 23.3904 35.0382 22.6791 36.502C22.6264 36.6106 22.7483 36.7196 22.8318 36.6386Z" fill="url(#paint3_linear_914_229245)"/>
<path d="M20.4965 39.0723C23.1708 39.0723 25.3388 27.8664 25.3388 25.1921C25.3388 22.5178 23.1708 20.3499 20.4965 20.3499C17.8222 20.3499 15.6543 22.5178 15.6543 25.1921C15.6543 27.8664 17.8222 39.0723 20.4965 39.0723Z" fill="url(#paint4_linear_914_229245)"/>
</g>
<path fill-rule="evenodd" clip-rule="evenodd" d="M17.4456 25.9467C14.7943 24.8169 12.8976 22.2593 12.721 19.2397C11.5903 18.9203 10.7617 17.8809 10.7617 16.648C10.7617 15.4076 11.6003 14.3631 12.7415 14.0505C13.1107 10.0921 16.442 6.99365 20.4969 6.99365C24.5519 6.99365 27.8832 10.0921 28.2524 14.0506C29.3934 14.3632 30.2319 15.4077 30.2319 16.648C30.2319 17.8809 29.4035 18.9202 28.2729 19.2397C28.0963 22.2591 26.1998 24.8165 23.5489 25.9465C23.2109 27.3178 21.9728 28.3347 20.4972 28.3347C19.0217 28.3347 17.7836 27.3179 17.4456 25.9467Z" fill="url(#paint5_linear_914_229245)"/>
<path d="M16.3223 11.9047C16.2833 11.9145 16.2453 11.925 16.2066 11.9362C14.8415 12.3323 14.1028 13.3632 14.1919 14.4262C14.2621 15.2686 13.1315 15.7957 12.0695 15.4186C12.0683 15.4181 12.0671 15.4177 12.0659 15.4173C11.8469 15.339 11.6807 15.154 11.626 14.9279C11.132 12.8854 11.6809 10.7769 13.1769 9.07373C14.5265 9.84046 15.7689 11.052 16.3223 11.9047Z" fill="url(#paint6_linear_914_229245)"/>
<path d="M28.9419 9.95204C29.6749 10.9091 29.8971 12.1615 29.5369 13.312C29.4037 13.7377 29.2947 14.1708 29.2124 14.6098C29.1922 14.7135 29.1699 14.8179 29.1454 14.9222C29.0979 15.1173 28.9713 15.2813 28.7978 15.3742C28.7675 15.3907 28.7366 15.4052 28.7035 15.4167L28.7006 15.4181C28.335 15.5477 27.9621 15.5707 27.6324 15.5103C26.8342 15.3649 26.0115 15.3815 25.2428 15.6405C21.6647 16.8454 17.3576 15.9026 14.2834 12.8989C13.9883 12.611 13.7126 12.3109 13.4556 12.002C13.3591 11.8869 13.2656 11.7703 13.1742 11.6522C13.1687 11.6452 13.1634 11.6382 13.158 11.6311C12.3368 10.5496 12.5295 9.00262 13.5818 8.14419C15.4364 6.63138 17.8046 5.72412 20.385 5.72412C23.8729 5.72412 26.9733 7.38164 28.9419 9.95204Z" fill="url(#paint7_linear_914_229245)"/>
<path d="M20.4971 3.33325C16.9394 3.33325 13.8909 4.87633 12.6124 7.06895C12.4086 7.41849 12.4461 7.85862 12.7013 8.17267L15.5275 11.6521C15.8215 12.0141 16.3103 12.1519 16.7508 11.999C17.8815 11.6064 19.1528 11.3859 20.4971 11.3859C21.8413 11.3859 23.1126 11.6065 24.2434 11.999C24.6839 12.1519 25.1726 12.0141 25.4666 11.6521L28.2929 8.17267C28.548 7.85862 28.5856 7.41849 28.3818 7.06895C27.1033 4.87633 24.0548 3.33325 20.4971 3.33325Z" fill="url(#paint8_linear_914_229245)"/>
<path d="M22.5895 6.36616H21.2761V5.05271C21.2761 4.86989 21.1279 4.72168 20.945 4.72168H19.7704C19.5876 4.72168 19.4394 4.86989 19.4394 5.05271V6.36616H18.1259C17.9431 6.36616 17.7949 6.51437 17.7949 6.69718V7.87179C17.7949 8.05461 17.9431 8.20282 18.1259 8.20282H19.4394V9.51627C19.4394 9.69909 19.5876 9.8473 19.7704 9.8473H20.945C21.1279 9.8473 21.2761 9.69909 21.2761 9.51627V8.20282H22.5895C22.7723 8.20282 22.9205 8.05461 22.9205 7.87179V6.69718C22.9205 6.51437 22.7723 6.36616 22.5895 6.36616Z" fill="url(#paint9_linear_914_229245)"/>
<defs>
<linearGradient id="paint0_linear_914_229245" x1="12.4791" y1="14.534" x2="18.2811" y2="25.708" gradientUnits="userSpaceOnUse">
<stop stop-color="#280E6C"/>
<stop offset="1" stop-color="#1A0A48"/>
</linearGradient>
<linearGradient id="paint1_linear_914_229245" x1="30.512" y1="34.9124" x2="24.4347" y2="20.5412" gradientUnits="userSpaceOnUse">
<stop stop-color="#769DEA"/>
<stop offset="1" stop-color="#ACC0F3"/>
</linearGradient>
<linearGradient id="paint2_linear_914_229245" x1="14.2825" y1="29.3129" x2="24.0292" y2="32.5511" gradientUnits="userSpaceOnUse">
<stop stop-color="#EAF6FF"/>
<stop offset="1" stop-color="#B3DAFE"/>
</linearGradient>
<linearGradient id="paint3_linear_914_229245" x1="26.5679" y1="29.0346" x2="17.681" y2="31.6727" gradientUnits="userSpaceOnUse">
<stop stop-color="#EAF6FF"/>
<stop offset="1" stop-color="#B3DAFE"/>
</linearGradient>
<linearGradient id="paint4_linear_914_229245" x1="27.7063" y1="48.9476" x2="8.41953" y2="36.5126" gradientUnits="userSpaceOnUse">
<stop stop-color="#306CF6"/>
<stop offset="1" stop-color="#5689ED"/>
</linearGradient>
<linearGradient id="paint5_linear_914_229245" x1="15.2674" y1="13.2649" x2="25.6582" y2="20.2502" gradientUnits="userSpaceOnUse">
<stop stop-color="#FFDFCF"/>
<stop offset="1" stop-color="#FFA78F"/>
</linearGradient>
<linearGradient id="paint6_linear_914_229245" x1="12.0824" y1="11.296" x2="14.7839" y2="14.3462" gradientUnits="userSpaceOnUse">
<stop stop-color="#280E6C"/>
<stop offset="1" stop-color="#1A0A48"/>
</linearGradient>
<linearGradient id="paint7_linear_914_229245" x1="14.8648" y1="9.30565" x2="17.9318" y2="16.8269" gradientUnits="userSpaceOnUse">
<stop stop-color="#280E6C"/>
<stop offset="1" stop-color="#1A0A48"/>
</linearGradient>
<linearGradient id="paint8_linear_914_229245" x1="32.4319" y1="16.6639" x2="25.1912" y2="0.0856299" gradientUnits="userSpaceOnUse">
<stop stop-color="#306CF6"/>
<stop offset="1" stop-color="#5689ED"/>
</linearGradient>
<linearGradient id="paint9_linear_914_229245" x1="22.1699" y1="9.09667" x2="18.5456" y2="5.47231" gradientUnits="userSpaceOnUse">
<stop stop-color="#F79009"/>
<stop offset="1" stop-color="#FDB022"/>
</linearGradient>
<clipPath id="clip0_914_229245">
<rect width="28.3274" height="11.9792" fill="white" transform="translate(6.33301 24.6875)"/>
</clipPath>
</defs>
</svg>
