<svg width="28" height="28" viewBox="0 0 28 28" fill="none" xmlns="http://www.w3.org/2000/svg">
<path d="M13.125 21.2918H10.5C9.21667 21.2918 8.16667 22.3418 8.16667 23.6251V23.9168H7C6.52167 23.9168 6.125 24.3134 6.125 24.7918C6.125 25.2701 6.52167 25.6668 7 25.6668H21C21.4783 25.6668 21.875 25.2701 21.875 24.7918C21.875 24.3134 21.4783 23.9168 21 23.9168H19.8333V23.6251C19.8333 22.3418 18.7833 21.2918 17.5 21.2918H14.875V18.6201C14.5833 18.6551 14.2917 18.6668 14 18.6668C13.7083 18.6668 13.4167 18.6551 13.125 18.6201V21.2918Z" fill="url(#paint0_linear_914_229359)"/>
<path d="M21.5602 13.5799C22.3302 13.2883 23.0068 12.8099 23.5435 12.2733C24.6285 11.0716 25.3402 9.63659 25.3402 7.95659C25.3402 6.27659 24.0218 4.95825 22.3418 4.95825H21.6885C20.9302 3.40659 19.3435 2.33325 17.5002 2.33325H10.5002C8.65682 2.33325 7.07016 3.40659 6.31182 4.95825H5.65849C3.97849 4.95825 2.66016 6.27659 2.66016 7.95659C2.66016 9.63659 3.37182 11.0716 4.45682 12.2733C4.99349 12.8099 5.67016 13.2883 6.44016 13.5799C7.65349 16.5666 10.5702 18.6666 14.0002 18.6666C17.4302 18.6666 20.3468 16.5666 21.5602 13.5799ZM17.3135 9.85825L16.5902 10.7449C16.4735 10.8733 16.3918 11.1299 16.4035 11.3049L16.4735 12.4483C16.5202 13.1483 16.0185 13.5099 15.3652 13.2533L14.3035 12.8333C14.1402 12.7749 13.8602 12.7749 13.6968 12.8333L12.6352 13.2533C11.9818 13.5099 11.4802 13.1483 11.5268 12.4483L11.5968 11.3049C11.6085 11.1299 11.5268 10.8733 11.4102 10.7449L10.6868 9.85825C10.2318 9.32158 10.4302 8.72658 11.1068 8.55159L12.2152 8.27159C12.3902 8.22492 12.6002 8.06159 12.6935 7.90992L13.3118 6.95325C13.6968 6.35825 14.3035 6.35825 14.6885 6.95325L15.3068 7.90992C15.4002 8.06159 15.6102 8.22492 15.7852 8.27159L16.8935 8.55159C17.5702 8.72658 17.7685 9.32158 17.3135 9.85825Z" fill="url(#paint1_linear_914_229359)"/>
<defs>
<linearGradient id="paint0_linear_914_229359" x1="19.5685" y1="24.6348" x2="15.8535" y2="16.3314" gradientUnits="userSpaceOnUse">
<stop stop-color="#1250DC"/>
<stop offset="1" stop-color="#306DE4"/>
</linearGradient>
<linearGradient id="paint1_linear_914_229359" x1="22.0187" y1="16.2746" x2="11.0649" y2="1.06439" gradientUnits="userSpaceOnUse">
<stop stop-color="#1250DC"/>
<stop offset="1" stop-color="#306DE4"/>
</linearGradient>
</defs>
</svg>
