<svg width="41" height="40" viewBox="0 0 41 40" fill="none" xmlns="http://www.w3.org/2000/svg">
<path d="M10.5332 6.99219H29.2816V12.1366H10.5332V6.99219Z" fill="url(#paint0_linear_1669_158372)"/>
<path d="M10.5332 6.99219H29.2816V12.1366H10.5332V6.99219Z" fill="url(#paint1_linear_1669_158372)"/>
<path d="M10.5332 6.99219H29.2816V12.1366H10.5332V6.99219Z" fill="url(#paint2_linear_1669_158372)"/>
<path d="M29.7763 36.6003H9.894C8.11179 36.6003 6.66699 35.1683 6.66699 33.4018V14.1555C6.66699 12.389 8.11179 10.957 9.894 10.957H29.7763C31.5585 10.957 33.0033 12.389 33.0033 14.1555V33.4018C33.0033 35.1683 31.5585 36.6003 29.7763 36.6003Z" fill="url(#paint3_linear_1669_158372)"/>
<rect x="6.66699" y="17.1914" width="26.3363" height="12.4751" fill="url(#paint4_linear_1669_158372)"/>
<g opacity="0.59">
<path d="M28.2044 22.7383H20.4753C20.1216 22.7383 19.835 23.0486 19.835 23.4313C19.835 23.8141 20.1216 24.1244 20.4753 24.1244H28.2044C28.5581 24.1244 28.8448 23.8141 28.8448 23.4313C28.8448 23.0485 28.5581 22.7383 28.2044 22.7383Z" fill="#459BFF"/>
<path d="M25.3794 25.5095C25.3794 25.1267 25.0682 24.8164 24.6843 24.8164H20.5302C20.1462 24.8164 19.835 25.1267 19.835 25.5095C19.835 25.8923 20.1462 26.2025 20.5302 26.2025H24.6843C25.0682 26.2026 25.3794 25.8923 25.3794 25.5095Z" fill="#459BFF"/>
<path d="M28.1411 26.2025C28.5297 26.2025 28.8445 25.8922 28.8445 25.5095C28.8445 25.1266 28.5296 24.8164 28.1411 24.8164H26.7756C26.3872 24.8164 26.0723 25.1267 26.0723 25.5095C26.0723 25.8922 26.3872 26.2025 26.7756 26.2025H28.1411Z" fill="#459BFF"/>
</g>
<path d="M15.9665 22.6614H14.3681V21.063C14.3681 20.8405 14.1877 20.6602 13.9653 20.6602H12.5358C12.3134 20.6602 12.133 20.8405 12.133 21.063V22.6614H10.5347C10.3122 22.6614 10.1318 22.8417 10.1318 23.0642V24.4936C10.1318 24.7161 10.3122 24.8965 10.5347 24.8965H12.1331V26.4949C12.1331 26.7173 12.3134 26.8977 12.5359 26.8977H13.9653C14.1878 26.8977 14.3682 26.7173 14.3682 26.4949V24.8965H15.9665C16.189 24.8965 16.3694 24.7161 16.3694 24.4936V23.0642C16.3693 22.8417 16.189 22.6614 15.9665 22.6614Z" fill="#FF9538"/>
<path d="M30.3249 8.70503H9.48973C8.17191 8.70503 7.10352 7.63671 7.10352 6.31881V5.71818C7.10358 4.40036 8.17191 3.33203 9.48973 3.33203H30.3249C31.6427 3.33203 32.7111 4.40036 32.7111 5.71825V6.31888C32.7111 7.63671 31.6428 8.70503 30.3249 8.70503Z" fill="url(#paint5_linear_1669_158372)"/>
<path d="M33.426 27.1067L37.7094 31.3901C38.9159 32.5966 38.9159 34.5527 37.7094 35.7592C36.5029 36.9657 34.5468 36.9657 33.3403 35.7592L29.0569 31.4758C27.8504 30.2693 27.8504 28.3132 29.0569 27.1067C30.2634 25.9002 32.2195 25.9002 33.426 27.1067Z" fill="url(#paint6_linear_1669_158372)"/>
<path d="M31.1986 33.6175L33.3403 35.7592C34.5468 36.9657 36.5029 36.9657 37.7094 35.7592C38.9159 34.5527 38.9159 32.5966 37.7094 31.3901L35.5677 29.2484L31.1986 33.6175Z" fill="url(#paint7_linear_1669_158372)"/>
<defs>
<linearGradient id="paint0_linear_1669_158372" x1="19.2262" y1="7.05761" x2="20.857" y2="13.0587" gradientUnits="userSpaceOnUse">
<stop stop-color="#EAF9FA"/>
<stop offset="1" stop-color="#B3DAFE"/>
</linearGradient>
<linearGradient id="paint1_linear_1669_158372" x1="26.536" y1="11.3832" x2="24.6795" y2="4.61734" gradientUnits="userSpaceOnUse">
<stop stop-color="#1250DC"/>
<stop offset="1" stop-color="#306DE4"/>
</linearGradient>
<linearGradient id="paint2_linear_1669_158372" x1="26.3258" y1="5.71141" x2="26.4411" y2="12.1806" gradientUnits="userSpaceOnUse">
<stop stop-color="#175BB7" stop-opacity="0"/>
<stop offset="1" stop-color="#175BB7"/>
</linearGradient>
<linearGradient id="paint3_linear_1669_158372" x1="39.4418" y1="50.1261" x2="11.3025" y2="14.1041" gradientUnits="userSpaceOnUse">
<stop stop-color="#306CF6"/>
<stop offset="1" stop-color="#5689ED"/>
</linearGradient>
<linearGradient id="paint4_linear_1669_158372" x1="10.408" y1="21.8039" x2="25.2047" y2="46.4961" gradientUnits="userSpaceOnUse">
<stop stop-color="#EAF6FF"/>
<stop offset="1" stop-color="#B3DAFE"/>
</linearGradient>
<linearGradient id="paint5_linear_1669_158372" x1="28.9609" y1="7.91817" x2="27.4338" y2="0.640023" gradientUnits="userSpaceOnUse">
<stop stop-color="#F79009"/>
<stop offset="1" stop-color="#FDB022"/>
</linearGradient>
<linearGradient id="paint6_linear_1669_158372" x1="29.6842" y1="27.734" x2="37.0821" y2="35.1319" gradientUnits="userSpaceOnUse">
<stop stop-color="#F79009"/>
<stop offset="1" stop-color="#FDB022"/>
</linearGradient>
<linearGradient id="paint7_linear_1669_158372" x1="32.2846" y1="30.3344" x2="37.5283" y2="35.5781" gradientUnits="userSpaceOnUse">
<stop stop-color="#F79009"/>
<stop offset="1" stop-color="#FDB022"/>
</linearGradient>
</defs>
</svg>
