<svg width="33" height="32" viewBox="0 0 33 32" fill="none" xmlns="http://www.w3.org/2000/svg">
<g clip-path="url(#clip0_1669_158416)">
<path fill-rule="evenodd" clip-rule="evenodd" d="M21.962 24.0533C22.3319 22.2251 24.0589 20.7723 25.9151 20.7723C27.7025 20.7723 28.9907 22.1197 28.9554 23.8522C30.8884 23.9028 31.4265 21.3573 31.4265 21.3573C31.5892 20.6456 31.8323 19.258 32.0359 17.896C32.1026 17.4755 32.0513 17.0447 31.8878 16.6516C31.3825 15.4721 30.7718 14.3405 30.0633 13.2707C29.3929 12.2707 28.2686 11.6784 26.9852 11.6571C26.2198 11.6449 25.4685 11.6376 24.9011 11.6376L24.8962 11.6327C24.8231 10.409 23.931 9.47179 22.6787 9.35967C21.8639 9.28715 18.6366 9.23413 17.0875 9.23413C16.472 9.23413 15.589 9.24266 14.6957 9.25729V9.25363H14.6883H3.94724C3.81053 9.25355 3.67515 9.28042 3.54883 9.3327C3.42251 9.38498 3.30774 9.46164 3.21107 9.55831C3.11441 9.65497 3.03774 9.76975 2.98546 9.89606C2.93318 10.0224 2.90632 10.1578 2.9064 10.2945V10.2993C2.9064 10.5741 3.01554 10.8376 3.20982 11.0319C3.4041 11.2262 3.66761 11.3353 3.94236 11.3353H6.10752C6.36824 11.3545 6.61204 11.4716 6.79005 11.6631C6.96806 11.8545 7.0671 12.1062 7.06731 12.3676V12.3731C7.06771 12.5099 7.04113 12.6455 6.98908 12.7721C6.93702 12.8986 6.86053 13.0137 6.76397 13.1106C6.66741 13.2076 6.55267 13.2845 6.42634 13.3371C6.3 13.3897 6.16453 13.4168 6.02769 13.417H4.91738C4.6415 13.417 4.37691 13.5266 4.18183 13.7217C3.98675 13.9167 3.87716 14.1813 3.87716 14.4572C3.87708 14.5939 3.90392 14.7292 3.95616 14.8555C4.0084 14.9818 4.08501 15.0965 4.18162 15.1932C4.27822 15.2898 4.39292 15.3665 4.51917 15.4188C4.64541 15.4711 4.78073 15.4981 4.91738 15.4981H6.02769C6.30374 15.4981 6.56848 15.6077 6.76368 15.8029C6.95887 15.9981 7.06853 16.2628 7.06853 16.5389C7.06853 16.8149 6.95887 17.0797 6.76368 17.2749C6.56848 17.4701 6.30374 17.5797 6.02769 17.5797H1.87409C1.59815 17.5797 1.3335 17.6893 1.13832 17.8844C0.943144 18.0794 0.833414 18.344 0.833252 18.62C0.833252 18.896 0.942911 19.1607 1.13811 19.3559C1.3333 19.5511 1.59804 19.6608 1.87409 19.6608H6.02769C6.30374 19.6608 6.56848 19.7705 6.76368 19.9657C6.95887 20.1608 7.06853 20.4256 7.06853 20.7016C7.06821 20.9775 6.95841 21.2419 6.76325 21.4368C6.56809 21.6318 6.30353 21.7413 6.02769 21.7413H4.7431C4.46721 21.7413 4.20263 21.8509 4.00755 22.0459C3.81247 22.241 3.70287 22.5056 3.70287 22.7815C3.70287 23.0574 3.81245 23.3221 4.00751 23.5173C4.20257 23.7124 4.46716 23.8222 4.7431 23.8223L8.84186 23.8193L9.18251 22.9704C9.88026 21.6834 11.2684 20.7717 12.7383 20.7717C14.5951 20.7717 15.9138 22.2257 15.7688 24.0551H21.9614L21.962 24.0533ZM11.6383 13.9015H10.2416C10.2403 13.9016 10.2391 13.9021 10.2381 13.903C10.2371 13.9038 10.2364 13.905 10.2361 13.9063L10.1076 14.8204L10.1074 14.8215L10.1075 14.8227C10.1077 14.8234 10.108 14.8241 10.1085 14.8247C10.1089 14.8253 10.1096 14.8257 10.1102 14.8261C10.1109 14.8264 10.1117 14.8265 10.1124 14.8265H11.1521C11.2031 14.8251 11.2538 14.835 11.3005 14.8556C11.3472 14.8763 11.3887 14.9071 11.422 14.9458C11.4552 14.9845 11.4795 15.0301 11.4929 15.0794C11.5063 15.1287 11.5085 15.1803 11.4994 15.2305C11.4816 15.3409 11.4258 15.4417 11.3418 15.5154C11.2577 15.5892 11.1505 15.6313 11.0387 15.6346H9.99787C9.99723 15.6345 9.9966 15.6346 9.996 15.6348C9.99541 15.635 9.99486 15.6353 9.99437 15.6357C9.99337 15.6365 9.99267 15.6376 9.99239 15.6388L9.80591 16.9667C9.7881 17.0771 9.73235 17.1778 9.64826 17.2516C9.56417 17.3253 9.45701 17.3675 9.34521 17.3707C9.2942 17.3722 9.24351 17.3622 9.19683 17.3416C9.15016 17.321 9.10869 17.2901 9.07546 17.2514C9.04222 17.2127 9.01806 17.167 9.00474 17.1178C8.99142 17.0685 8.98928 17.0169 8.99847 16.9667L9.48233 13.5224C9.5015 13.4058 9.56061 13.2995 9.64955 13.2217C9.73849 13.1438 9.85171 13.0994 9.96984 13.0958H11.7511C11.8021 13.0944 11.8528 13.1043 11.8995 13.125C11.9461 13.1456 11.9876 13.1764 12.0208 13.2151C12.0541 13.2539 12.0782 13.2995 12.0916 13.3488C12.1049 13.398 12.107 13.4497 12.0978 13.4999C12.0798 13.6097 12.024 13.7099 11.9402 13.7832C11.8564 13.8564 11.7496 13.8983 11.6383 13.9015ZM15.3715 13.3701C15.5166 13.4988 15.6187 13.669 15.664 13.8576C15.7146 14.0712 15.7229 14.2928 15.6884 14.5096C15.646 14.8471 15.5079 15.1653 15.2904 15.4268C15.1576 15.5838 14.9889 15.7065 14.7986 15.7845C14.7978 15.7854 14.7973 15.7866 14.7973 15.7878C14.7973 15.7884 14.7974 15.789 14.7976 15.7895C14.7979 15.7901 14.7982 15.7907 14.7986 15.7912L15.1448 16.79C15.238 17.0581 14.9985 17.3707 14.7005 17.3707H14.681C14.6087 17.3728 14.5376 17.3519 14.478 17.3109C14.4184 17.2699 14.3734 17.2111 14.3495 17.1428L13.9309 15.924C13.9303 15.9231 13.9295 15.9223 13.9285 15.9218C13.9276 15.9213 13.9265 15.921 13.9254 15.921H13.0357C13.035 15.921 13.0343 15.9212 13.0336 15.9215C13.0331 15.9217 13.0327 15.9219 13.0323 15.9222C13.0313 15.923 13.0306 15.924 13.0302 15.9252L12.8839 16.9661C12.8661 17.0765 12.8104 17.1772 12.7263 17.251C12.6422 17.3247 12.535 17.3668 12.4232 17.3701C12.3722 17.3716 12.3215 17.3616 12.2749 17.341C12.2282 17.3203 12.1867 17.2895 12.1535 17.2508C12.1202 17.2121 12.0961 17.1664 12.0828 17.1172C12.0694 17.0679 12.0673 17.0163 12.0765 16.9661L12.5604 13.5218C12.5795 13.4052 12.6386 13.2989 12.7276 13.2211C12.8165 13.1432 12.9297 13.0987 13.0479 13.0952H14.4251C14.4251 13.0952 15.0296 13.0763 15.3715 13.3701ZM19.1619 13.4712C19.1453 13.5744 19.0933 13.6685 19.0147 13.7373C18.9362 13.8062 18.8361 13.8455 18.7316 13.8484H17.1296C17.1283 13.8485 17.1271 13.8489 17.1262 13.8497C17.1252 13.8505 17.1244 13.8515 17.1241 13.8527L16.9967 14.757C16.9965 14.7578 16.9965 14.7585 16.9967 14.7593C16.9968 14.76 16.9972 14.7607 16.9976 14.7613C16.9981 14.7619 16.9987 14.7624 16.9994 14.7627C17.0001 14.763 17.0008 14.7632 17.0016 14.7631H18.246C18.2936 14.7617 18.341 14.771 18.3846 14.7902C18.4282 14.8095 18.467 14.8382 18.4981 14.8744C18.5291 14.9105 18.5517 14.9532 18.5642 14.9992C18.5767 15.0452 18.5787 15.0934 18.5702 15.1403C18.5536 15.2435 18.5016 15.3376 18.423 15.4065C18.3445 15.4753 18.2443 15.5146 18.1399 15.5176H16.8949C16.8937 15.5176 16.8925 15.5181 16.8915 15.5188C16.8906 15.5196 16.8898 15.5206 16.8895 15.5218L16.7365 16.6102C16.7365 16.6117 16.7371 16.6132 16.7381 16.6143C16.7391 16.6154 16.7405 16.6161 16.742 16.6163H18.3429C18.3905 16.6149 18.4379 16.6241 18.4815 16.6434C18.5251 16.6626 18.5639 16.6914 18.595 16.7275C18.626 16.7637 18.6486 16.8063 18.6611 16.8524C18.6736 16.8984 18.6756 16.9466 18.6671 16.9935C18.6505 17.0966 18.5984 17.1908 18.5199 17.2596C18.4414 17.3285 18.3412 17.3678 18.2368 17.3707H16.2502C16.1966 17.3715 16.1435 17.3604 16.0946 17.3384C16.0458 17.3163 16.0024 17.2838 15.9675 17.2431C15.9326 17.2024 15.9071 17.1545 15.8928 17.1028C15.8784 17.0512 15.8756 16.997 15.8846 16.9441L16.3654 13.5242C16.3846 13.4076 16.4437 13.3013 16.5326 13.2235C16.6216 13.1457 16.7348 13.1012 16.8529 13.0977H18.8389C18.8861 13.0965 18.9329 13.1059 18.9761 13.125C19.0192 13.1441 19.0576 13.1726 19.0885 13.2083C19.1194 13.244 19.142 13.2861 19.1546 13.3315C19.1673 13.377 19.1698 13.4247 19.1619 13.4712ZM22.4898 13.4712C22.4732 13.5744 22.4212 13.6685 22.3426 13.7373C22.2641 13.8062 22.1639 13.8455 22.0595 13.8484H20.4574C20.4562 13.8485 20.455 13.8489 20.454 13.8497C20.4531 13.8505 20.4523 13.8515 20.452 13.8527L20.3252 14.757C20.3251 14.7574 20.3251 14.7578 20.325 14.7582C20.325 14.7585 20.3251 14.7589 20.3252 14.7593C20.3253 14.76 20.3256 14.7607 20.3261 14.7613C20.3264 14.7617 20.3268 14.762 20.3272 14.7623C20.3274 14.7624 20.3276 14.7626 20.3279 14.7627C20.3286 14.763 20.3293 14.7632 20.3301 14.7631H21.5745C21.6221 14.7617 21.6695 14.771 21.7131 14.7902C21.7567 14.8095 21.7955 14.8382 21.8265 14.8744C21.8576 14.9105 21.8802 14.9532 21.8927 14.9992C21.9052 15.0452 21.9072 15.0934 21.8986 15.1403C21.8821 15.2435 21.83 15.3376 21.7515 15.4065C21.673 15.4753 21.5728 15.5146 21.4684 15.5176H20.2228L20.2214 15.5178C20.2207 15.518 20.22 15.5184 20.2194 15.5188L20.2188 15.5194C20.2181 15.52 20.2176 15.5209 20.2173 15.5218L20.0644 16.6102C20.0644 16.6117 20.0649 16.6132 20.0659 16.6143C20.067 16.6154 20.0684 16.6161 20.0699 16.6163H21.6707C21.7184 16.6149 21.7658 16.6241 21.8094 16.6434C21.853 16.6626 21.8918 16.6914 21.9228 16.7275C21.9539 16.7637 21.9765 16.8063 21.989 16.8524C22.0015 16.8984 22.0035 16.9466 21.9949 16.9935C21.9784 17.0966 21.9263 17.1908 21.8478 17.2596C21.7692 17.3285 21.6691 17.3678 21.5647 17.3707H19.5781C19.5245 17.3715 19.4714 17.3604 19.4225 17.3384C19.3737 17.3163 19.3302 17.2838 19.2954 17.2431C19.2605 17.2024 19.235 17.1545 19.2206 17.1028C19.2063 17.0512 19.2035 16.997 19.2125 16.9441L19.6933 13.5242C19.7124 13.4076 19.7716 13.3013 19.8605 13.2235C19.9494 13.1457 20.0627 13.1012 20.1808 13.0977H22.1668C22.214 13.0965 22.2608 13.1059 22.304 13.125C22.3471 13.1441 22.3855 13.1726 22.4164 13.2083C22.4473 13.244 22.4698 13.2861 22.4825 13.3315C22.4952 13.377 22.4977 13.4247 22.4898 13.4712ZM24.8054 13.0806C25.3496 13.0806 26.0541 13.0879 26.761 13.0995C27.6178 13.1135 28.3673 13.5072 28.8171 14.1787C29.2974 14.9029 29.7292 15.6582 30.1096 16.4396C30.3107 16.8491 29.9408 17.3823 29.4563 17.3823H24.2613L24.8054 13.0806ZM3.25905 14.4739C3.25905 13.8992 2.79318 13.4333 2.21851 13.4333C1.64384 13.4333 1.17798 13.8992 1.17798 14.4739C1.17798 15.0486 1.64384 15.5144 2.21851 15.5144C2.79318 15.5144 3.25905 15.0486 3.25905 14.4739ZM13.135 15.1667H14.0978C14.7926 15.1667 14.8736 14.5074 14.8706 14.5074C14.9863 13.8023 14.2801 13.848 14.2801 13.848H13.3178L13.135 15.1667Z" fill="#769DEA"/>
<path d="M13.7088 25.8396C14.7046 24.9113 14.858 23.4573 14.0513 22.5919C13.2447 21.7266 11.7835 21.7776 10.7877 22.7059C9.79188 23.6342 9.63854 25.0882 10.4452 25.9535C11.2518 26.8189 12.713 26.7678 13.7088 25.8396Z" fill="#769DEA"/>
<path d="M26.8846 25.8396C27.8804 24.9113 28.0338 23.4573 27.2271 22.5919C26.4205 21.7266 24.9593 21.7776 23.9635 22.7059C22.9677 23.6342 22.8143 25.0882 23.621 25.9535C24.4276 26.8189 25.8888 26.7678 26.8846 25.8396Z" fill="#769DEA"/>
</g>
<defs>
<clipPath id="clip0_1669_158416">
<rect width="32" height="32" fill="white" transform="translate(0.333252)"/>
</clipPath>
</defs>
</svg>
