<svg width="41" height="40" viewBox="0 0 41 40" fill="none" xmlns="http://www.w3.org/2000/svg">
<ellipse opacity="0.1" cx="20.5" cy="37.2771" rx="12.5" ry="1.25" fill="url(#paint0_linear_1669_158391)"/>
<path d="M20.4996 1.66675C12.2161 1.66675 5.5 8.38113 5.5 16.6646C5.5 25.2085 14.6997 32.9012 18.6896 36.8243C19.6942 37.812 21.3052 37.812 22.3097 36.8243C26.2995 32.9012 35.4993 25.2086 35.4993 16.6646C35.4992 8.38103 28.7831 1.66675 20.4996 1.66675Z" fill="url(#paint1_linear_1669_158391)"/>
<path d="M20.6042 26.6667C26.1267 26.6667 30.6042 22.1901 30.6042 16.6673C30.6042 11.1446 26.1267 6.66675 20.6042 6.66675C15.0818 6.66675 10.6042 11.1445 10.6042 16.6673C10.6042 22.1902 15.0818 26.6667 20.6042 26.6667Z" fill="#EDF0F3"/>
<path fill-rule="evenodd" clip-rule="evenodd" d="M22.2708 12.5002C22.2708 11.5797 21.5246 10.8335 20.6041 10.8335C19.6836 10.8335 18.9374 11.5797 18.9374 12.5002V15.0002H16.4374C15.5169 15.0002 14.7708 15.7464 14.7708 16.6668C14.7708 17.5873 15.5169 18.3335 16.4374 18.3335H18.9374V20.8335C18.9374 21.754 19.6836 22.5002 20.6041 22.5002C21.5246 22.5002 22.2708 21.754 22.2708 20.8335V18.3335H24.7708C25.6912 18.3335 26.4374 17.5873 26.4374 16.6668C26.4374 15.7464 25.6912 15.0002 24.7707 15.0002H22.2708V12.5002Z" fill="url(#paint2_linear_1669_158391)"/>
<defs>
<linearGradient id="paint0_linear_1669_158391" x1="29.3388" y1="38.161" x2="28.9888" y2="34.6605" gradientUnits="userSpaceOnUse">
<stop stop-color="#306DE4"/>
<stop offset="1" stop-color="#769DEA"/>
</linearGradient>
<linearGradient id="paint1_linear_1669_158391" x1="42.8333" y1="56.5001" x2="2.26709" y2="14.2454" gradientUnits="userSpaceOnUse">
<stop stop-color="#306CF6"/>
<stop offset="1" stop-color="#5689ED"/>
</linearGradient>
<linearGradient id="paint2_linear_1669_158391" x1="24.7289" y1="20.7916" x2="16.4793" y2="12.542" gradientUnits="userSpaceOnUse">
<stop stop-color="#F79009"/>
<stop offset="1" stop-color="#FDB022"/>
</linearGradient>
</defs>
</svg>
