<svg width="32" height="32" viewBox="0 0 32 32" fill="none" xmlns="http://www.w3.org/2000/svg">
<path fill-rule="evenodd" clip-rule="evenodd" d="M8.64221 10.6954C8.63593 10.6993 8.62966 10.7032 8.62327 10.707L4.99618 8.87122C5.00125 8.86822 5.00614 8.86504 5.01103 8.86186C5.01837 8.85708 5.0257 8.85231 5.03366 8.84816L15.543 3.30948C15.6803 3.23707 15.8332 3.19922 15.9885 3.19922C16.1437 3.19922 16.2966 3.23707 16.4339 3.30948L19.7641 5.06537H19.7612L8.67517 10.6761C8.66371 10.6819 8.65294 10.6887 8.64221 10.6954ZM15.7529 14.3154L12.0312 12.4315C12.0381 12.4276 12.0447 12.4234 12.0514 12.4192L12.0514 12.4192L12.0514 12.4192C12.0619 12.4126 12.0724 12.406 12.0837 12.4004L23.1005 6.82422L26.9439 8.84824C26.9514 8.85228 26.9585 8.85691 26.9656 8.86155C26.9707 8.86487 26.9758 8.86819 26.9811 8.87131L16.2249 14.3154C16.1517 14.3522 16.0709 14.3714 15.9889 14.3714C15.907 14.3714 15.8261 14.3522 15.7529 14.3154ZM16.6148 15.0856C16.552 15.1168 16.4868 15.1431 16.4199 15.1643V28.3983C16.4221 28.3972 16.4244 28.3964 16.4267 28.3957C16.429 28.395 16.4313 28.3943 16.4335 28.3931L26.9428 22.8573C27.0957 22.7754 27.2236 22.6536 27.3129 22.5049C27.4022 22.3561 27.4497 22.186 27.4503 22.0126V9.69197C27.4503 9.66891 27.4481 9.64584 27.4458 9.62278L27.4442 9.60547L16.6148 15.0856ZM15.3618 15.0876C15.4242 15.1188 15.489 15.145 15.5555 15.1661V28.3992C15.5515 28.3972 15.5472 28.3966 15.5431 28.3946L5.03377 22.8588C4.88014 22.7774 4.75151 22.6559 4.66162 22.5071C4.57173 22.3583 4.52397 22.1878 4.52344 22.014V9.69427C4.52344 9.66906 4.52571 9.64536 4.52795 9.62194C4.52847 9.61644 4.529 9.61095 4.52949 9.60547L8.15659 11.4412C8.15607 11.447 8.15552 11.4528 8.15496 11.4585C8.15275 11.4816 8.15053 11.5046 8.15053 11.5277V17.0664C8.15038 17.1378 8.16627 17.2084 8.19703 17.2729C8.2278 17.3373 8.27264 17.3941 8.32827 17.4389C8.38389 17.4838 8.44887 17.5155 8.51841 17.5319C8.58795 17.5483 8.66028 17.5488 8.73006 17.5335L9.34707 17.4008C9.42674 17.3839 9.50943 17.3877 9.58719 17.4119C9.66496 17.4362 9.73518 17.48 9.79109 17.5392L10.7368 18.5253C10.8025 18.5943 10.8873 18.642 10.9804 18.6623C11.0735 18.6826 11.1705 18.6745 11.2589 18.6391C11.3473 18.6037 11.4232 18.5427 11.4766 18.4638C11.53 18.3849 11.5585 18.2919 11.5585 18.1966V13.2548C11.5585 13.2278 11.5611 13.2026 11.5637 13.1776C11.5641 13.1737 11.5645 13.1698 11.5648 13.166L15.3618 15.0876Z" fill="#769DEA"/>
</svg>
