<svg width="33" height="32" viewBox="0 0 33 32" fill="none" xmlns="http://www.w3.org/2000/svg">
<path fill-rule="evenodd" clip-rule="evenodd" d="M26.245 8.34081C26.245 8.9435 26.245 9.54619 26.2737 10.1776C26.3885 16.2332 26.532 24.47 16.4871 27.9426L16.2001 28L15.9131 27.9426C5.85422 24.475 6.01132 16.2285 6.1261 10.2038L6.1266 10.1776C6.1553 9.54619 6.1553 8.9435 6.1553 8.34081C6.1553 7.85291 6.52839 7.47982 7.01629 7.47982C10.6037 7.47982 13.3302 6.44664 15.5975 4.23677C15.9418 3.92108 16.4584 3.92108 16.8028 4.23677C19.0701 6.44664 21.7966 7.47982 25.384 7.47982C25.8719 7.47982 26.245 7.85291 26.245 8.34081ZM20.907 11.262C20.3526 10.7077 19.6156 10.4023 18.8316 10.4023C18.0476 10.4023 17.3105 10.7077 16.7561 11.262L14.7615 13.2567L18.9124 17.4076L20.907 15.4129C22.0514 14.2685 22.0514 12.4065 20.907 11.262ZM14.3007 20.8008C13.5168 20.8008 12.7797 20.4955 12.2253 19.9411C11.0809 18.7967 11.0809 16.9346 12.2253 15.7902L14.2199 13.7955L18.3708 17.9465L16.3762 19.9411C15.8218 20.4955 15.0847 20.8008 14.3007 20.8008Z" fill="#769DEA"/>
</svg>
