<svg width="28" height="28" viewBox="0 0 28 28" fill="none" xmlns="http://www.w3.org/2000/svg">
<path d="M18.888 2.33334H9.11134C4.86467 2.33334 2.33301 4.86501 2.33301 9.11168V18.8767C2.33301 23.135 4.86467 25.6667 9.11134 25.6667H18.8763C23.123 25.6667 25.6547 23.135 25.6547 18.8883V9.11168C25.6663 4.86501 23.1347 2.33334 18.888 2.33334Z" fill="url(#paint0_linear_914_229520)"/>
<path d="M8.02637 22.05C7.54803 22.05 7.15137 21.6533 7.15137 21.175V18.76C7.15137 18.2817 7.54803 17.885 8.02637 17.885C8.5047 17.885 8.90137 18.2817 8.90137 18.76V21.175C8.90137 21.665 8.5047 22.05 8.02637 22.05Z" fill="white"/>
<path d="M14 22.05C13.5217 22.05 13.125 21.6533 13.125 21.175V16.3333C13.125 15.855 13.5217 15.4583 14 15.4583C14.4783 15.4583 14.875 15.855 14.875 16.3333V21.175C14.875 21.665 14.4783 22.05 14 22.05Z" fill="white"/>
<path d="M19.9727 22.05C19.4943 22.05 19.0977 21.6533 19.0977 21.175V13.9183C19.0977 13.44 19.4943 13.0433 19.9727 13.0433C20.451 13.0433 20.8477 13.44 20.8477 13.9183V21.175C20.8477 21.665 20.4627 22.05 19.9727 22.05Z" fill="white"/>
<path d="M20.8485 6.79001C20.8485 6.73168 20.8251 6.66168 20.8135 6.60335C20.8018 6.55668 20.7901 6.49835 20.7785 6.45168C20.7551 6.40501 20.7201 6.37001 20.6968 6.32335C20.6618 6.27668 20.6268 6.21835 20.5801 6.18335C20.5685 6.17168 20.5685 6.16001 20.5568 6.16001C20.5218 6.13668 20.4868 6.12501 20.4518 6.10168C20.4051 6.06668 20.3468 6.03168 20.2885 6.00835C20.2301 5.98501 20.1718 5.98501 20.1135 5.97335C20.0668 5.96168 20.0318 5.95001 19.9851 5.95001H16.5668C16.0885 5.95001 15.6918 6.34668 15.6918 6.82501C15.6918 7.30335 16.0885 7.70001 16.5668 7.70001H18.0251C15.2485 10.6167 11.7485 12.67 7.81681 13.6617C7.35014 13.7783 7.05847 14.2567 7.17514 14.7233C7.26847 15.12 7.63014 15.3883 8.02681 15.3883C8.09681 15.3883 8.16681 15.3767 8.23681 15.365C12.4018 14.3267 16.1235 12.1683 19.0985 9.11168V10.2433C19.0985 10.7217 19.4951 11.1183 19.9735 11.1183C20.4518 11.1183 20.8485 10.7217 20.8485 10.2433V6.82501C20.8485 6.81335 20.8485 6.80168 20.8485 6.79001Z" fill="white"/>
<defs>
<linearGradient id="paint0_linear_914_229520" x1="22.2393" y1="22.2496" x2="5.74018" y2="5.75865" gradientUnits="userSpaceOnUse">
<stop stop-color="#1250DC"/>
<stop offset="1" stop-color="#306DE4"/>
</linearGradient>
</defs>
</svg>
