<svg width="25" height="24" viewBox="0 0 25 24" fill="none" xmlns="http://www.w3.org/2000/svg">
<path d="M10.8427 3.44875C11.767 3.09326 12.7903 3.09326 13.7146 3.44875L20.3299 5.99312C21.1023 6.29019 21.612 7.03227 21.612 7.85981V16.695C21.612 17.5226 21.1023 18.2646 20.3299 18.5617L13.7146 21.1061C12.7903 21.4616 11.767 21.4616 10.8427 21.1061L4.22736 18.5617C3.45497 18.2646 2.94531 17.5226 2.94531 16.695V7.85981C2.94531 7.03227 3.45497 6.29019 4.22735 5.99312L10.8427 3.44875ZM13.2359 4.69321C12.6197 4.45621 11.9376 4.45621 11.3214 4.69321L9.47541 5.40319L16.93 8.22527L19.5263 7.11259L13.2359 4.69321ZM20.2786 8.24078L12.9453 11.3836V19.9547C13.0434 19.9294 13.1405 19.8983 13.2359 19.8616L19.8513 17.3172C20.1088 17.2182 20.2786 16.9709 20.2786 16.695V8.24078ZM11.612 19.9547V11.3836L4.27865 8.24078V16.695C4.27865 16.9709 4.44853 17.2182 4.70599 17.3172L11.3214 19.8616C11.4168 19.8983 11.5139 19.9294 11.612 19.9547ZM5.03098 7.11259L12.2786 10.2187L15.1637 8.98227L7.60734 6.12168L5.03098 7.11259Z" fill="#1250DC"/>
<rect x="13" y="12" width="12" height="12" rx="6" fill="#EDF0F3"/>
<path d="M18.5157 19.7653C18.6621 19.6189 18.6621 19.3814 18.5157 19.235C18.3692 19.0885 18.1318 19.0885 17.9853 19.235L16.8603 20.36C16.7139 20.5064 16.7139 20.7439 16.8603 20.8903C17.0068 21.0367 17.2442 21.0367 17.3907 20.8903L18.5157 19.7653ZM22.713 14.2879C21.6879 13.2628 20.0258 13.2628 19.0007 14.2879L15.2884 18.0002C14.2632 19.0253 14.2632 20.6874 15.2884 21.7125C16.3135 22.7376 17.9756 22.7376 19.0007 21.7125L22.713 18.0002C23.7381 16.9751 23.7381 15.313 22.713 14.2879ZM17.4097 16.9395L20.0613 19.5912L18.4704 21.1822C17.7381 21.9144 16.5509 21.9144 15.8187 21.1822C15.0865 20.4499 15.0865 19.2628 15.8187 18.5305L17.4097 16.9395ZM22.1827 17.4699L20.5917 19.0609L17.94 16.4092L19.531 14.8182C20.2632 14.086 21.4504 14.086 22.1827 14.8182C22.9149 15.5505 22.9149 16.7376 22.1827 17.4699Z" fill="#1250DC" stroke="#1250DC" stroke-width="0.375" stroke-linecap="round" stroke-linejoin="round"/>
</svg>
