<svg width="40" height="40" viewBox="0 0 40 40" fill="none" xmlns="http://www.w3.org/2000/svg">
<g filter="url(#filter0_d_1382_77215)">
<circle cx="19.9984" cy="19.9999" r="8.85" stroke="#020B27" stroke-width="1.5" shape-rendering="crispEdges"/>
</g>
<path d="M16.8516 16.2002V23.8248C16.8516 24.7777 17.624 25.5502 18.5769 25.5502C19.5298 25.5502 20.3023 24.7777 20.3023 23.8248V21.5846H22.4685C23.3448 21.5846 24.0552 20.8742 24.0552 19.9979C24.0552 19.1215 23.3448 18.4111 22.4685 18.4111H20.3023V17.6236H22.8739C23.7503 17.6236 24.4607 16.9132 24.4607 16.0369C24.4607 15.1606 23.7503 14.4502 22.8739 14.4502H18.6016C17.6351 14.4502 16.8516 15.2337 16.8516 16.2002Z" stroke="#020B27" stroke-width="1.5"/>
<defs>
<filter id="filter0_d_1382_77215" x="0.398438" y="0.399902" width="39.1992" height="39.2002" filterUnits="userSpaceOnUse" color-interpolation-filters="sRGB">
<feFlood flood-opacity="0" result="BackgroundImageFix"/>
<feColorMatrix in="SourceAlpha" type="matrix" values="0 0 0 0 0 0 0 0 0 0 0 0 0 0 0 0 0 0 127 0" result="hardAlpha"/>
<feOffset/>
<feGaussianBlur stdDeviation="5"/>
<feComposite in2="hardAlpha" operator="out"/>
<feColorMatrix type="matrix" values="0 0 0 0 0.980392 0 0 0 0 0.694118 0 0 0 0 0.223529 0 0 0 0.35 0"/>
<feBlend mode="normal" in2="BackgroundImageFix" result="effect1_dropShadow_1382_77215"/>
<feBlend mode="normal" in="SourceGraphic" in2="effect1_dropShadow_1382_77215" result="shape"/>
</filter>
</defs>
</svg>
