<svg width="24" height="24" viewBox="0 0 24 24" fill="none" xmlns="http://www.w3.org/2000/svg">
<path d="M5.23529 4.23529C5.23529 3.00078 6.23607 2 7.47059 2H16.4118C17.6463 2 18.6471 3.00078 18.6471 4.23529V17.6471C18.6471 18.8816 17.6463 19.8824 16.4118 19.8824H12.7714C13.0549 19.5391 13.3018 19.1646 13.5062 18.7647H16.4118C17.029 18.7647 17.5294 18.2643 17.5294 17.6471V4.23529C17.5294 3.61803 17.029 3.11765 16.4118 3.11765H7.47059C6.85333 3.11765 6.35294 3.61803 6.35294 4.23529V10.0549C5.96328 10.1651 5.58936 10.3128 5.23529 10.4938V4.23529ZM8.02941 4.79412C7.72078 4.79412 7.47059 5.04431 7.47059 5.35294V7.58824C7.47059 7.89686 7.72078 8.14706 8.02941 8.14706H15.8529C16.1616 8.14706 16.4118 7.89686 16.4118 7.58824V5.35294C16.4118 5.04431 16.1616 4.79412 15.8529 4.79412H8.02941ZM8.58824 7.02941V5.91176H15.2941V7.02941H8.58824ZM20.3235 6.47059H19.7647V9.26471H20.3235C20.6322 9.26471 20.8824 9.01451 20.8824 8.70588V7.02941C20.8824 6.72078 20.6322 6.47059 20.3235 6.47059ZM20.3235 10.3824H19.7647V13.1765H20.3235C20.6322 13.1765 20.8824 12.9263 20.8824 12.6176V10.9412C20.8824 10.6325 20.6322 10.3824 20.3235 10.3824ZM20.3235 14.2941H19.7647V17.0882H20.3235C20.6322 17.0882 20.8824 16.838 20.8824 16.5294V14.8529C20.8824 14.5443 20.6322 14.2941 20.3235 14.2941ZM8.02941 21C10.8071 21 13.0588 18.7483 13.0588 15.9706C13.0588 13.1929 10.8071 10.9412 8.02941 10.9412C5.25174 10.9412 3 13.1929 3 15.9706C3 18.7483 5.25174 21 8.02941 21ZM8.02941 13.1765C8.33804 13.1765 8.58824 13.4267 8.58824 13.7353V15.4118H10.2647C10.5733 15.4118 10.8235 15.662 10.8235 15.9706C10.8235 16.2792 10.5733 16.5294 10.2647 16.5294H8.58824V18.2059C8.58824 18.5145 8.33804 18.7647 8.02941 18.7647C7.72078 18.7647 7.47059 18.5145 7.47059 18.2059L7.47059 16.5294H5.79412C5.48549 16.5294 5.23529 16.2792 5.23529 15.9706C5.23529 15.662 5.48549 15.4118 5.79412 15.4118H7.47059V13.7353C7.47059 13.4267 7.72078 13.1765 8.02941 13.1765Z" fill="#020B27"/>
</svg>
