<svg width="24" height="24" viewBox="0 0 24 24" fill="none" xmlns="http://www.w3.org/2000/svg">
<path d="M10.9182 17.792C11.1894 18.0028 11.5144 18.1079 11.8393 18.1079C12.1643 18.1079 12.4893 18.0028 12.7599 17.792C14.4113 16.5097 18.2523 13.1271 18.2523 9.41295C18.2529 5.87698 15.3753 3 11.8393 3C8.30337 3 5.42578 5.87698 5.42578 9.41356C5.42578 13.1277 9.26679 16.5103 10.9182 17.792ZM11.8393 4.08725C14.7761 4.08725 17.1656 6.47678 17.1656 9.41356C17.1656 12.7375 13.2836 16.0095 12.0936 16.9337C11.942 17.0515 11.7379 17.0515 11.5856 16.9337C10.3957 16.0101 6.51363 12.7381 6.51363 9.41356C6.51303 6.47617 8.90256 4.08725 11.8393 4.08725Z" fill="#020B27" stroke="#020B27" stroke-width="0.3"/>
<path d="M14.6545 9.31356C14.6545 7.76242 13.3926 6.5 11.8409 6.5C10.2892 6.5 9.02734 7.76181 9.02734 9.31356C9.02734 10.8653 10.2892 12.1271 11.8409 12.1271C13.3926 12.1271 14.6545 10.8647 14.6545 9.31356ZM10.1146 9.31356C10.1146 8.36161 10.889 7.58725 11.8409 7.58725C12.7928 7.58725 13.5672 8.36161 13.5672 9.31356C13.5672 10.2655 12.7928 11.0399 11.8409 11.0399C10.889 11.0399 10.1146 10.2655 10.1146 9.31356Z" fill="#020B27" stroke="#020B27" stroke-width="0.3"/>
<path d="M17.0361 15.1411C16.7534 15.0408 16.4423 15.1882 16.3415 15.4703C16.2406 15.7529 16.3886 16.064 16.6707 16.1649C17.8564 16.5871 18.5933 17.164 18.5933 17.6707C18.5933 18.6064 16.0244 19.9117 11.8403 19.9117C7.65617 19.9117 5.08725 18.6064 5.08725 17.6707C5.08725 17.1646 5.82416 16.5877 7.00987 16.1649C7.29255 16.064 7.43993 15.7529 7.33906 15.4703C7.23879 15.1882 6.92893 15.0402 6.64443 15.1411C4.93926 15.7487 4 16.6469 4 17.6707C4 19.8325 8.03973 20.9989 11.8403 20.9989C15.6408 20.9989 19.6805 19.8325 19.6805 17.6707C19.6805 16.6469 18.7413 15.7487 17.0361 15.1411Z" fill="#020B27" stroke="#020B27" stroke-width="0.3"/>
</svg>
