<svg width="270" height="122" viewBox="0 0 270 122" fill="none" xmlns="http://www.w3.org/2000/svg">
<path d="M135.001 121.809C209.275 121.809 269.486 114.486 269.486 105.452C269.486 96.4191 209.275 89.0962 135.001 89.0962C60.7266 89.0962 0.515625 96.4191 0.515625 105.452C0.515625 114.486 60.7266 121.809 135.001 121.809Z" fill="url(#paint0_linear_1631_203542)"/>
<path opacity="0.58" d="M233.139 44.5526H230.43V41.8447H227.368V44.5526H224.658V47.6149H227.368V50.3258H230.43V47.6149H233.139V44.5526Z" fill="url(#paint1_linear_1631_203542)"/>
<path opacity="0.58" d="M63.5174 75.9518H58.8722V70.9229H53.6237V75.9518H48.9785V81.6388H53.6237V86.6733H58.8722V81.6388H63.5174V75.9518Z" fill="url(#paint2_linear_1631_203542)"/>
<path opacity="0.58" d="M208.906 73.2439H206.584V70.9229H203.959V73.2439H201.637V75.8687H203.959V78.1923H206.584V75.8687H208.906V73.2439Z" fill="url(#paint3_linear_1631_203542)"/>
<g filter="url(#filter0_f_1631_203542)">
<path d="M93.7707 104.592C129.57 102.525 158.462 98.6261 158.304 95.8824C158.146 93.1388 128.996 92.5898 93.1971 94.6563C57.3979 96.7227 28.5053 100.622 28.6637 103.366C28.8221 106.109 57.9715 106.658 93.7707 104.592Z" fill="url(#paint4_linear_1631_203542)"/>
</g>
<path d="M137.465 99.8992C165.01 99.8992 187.319 77.5896 187.319 50.0453C187.319 22.501 165.01 0.191406 137.465 0.191406C109.921 0.191406 87.6113 22.501 87.6113 50.0453C87.6113 77.5896 109.921 99.8992 137.465 99.8992Z" fill="url(#paint5_linear_1631_203542)"/>
<path d="M79.1242 99.559C78.94 99.5593 78.756 99.5463 78.5734 99.5202C77.6574 99.3874 76.9905 98.8699 76.5913 97.982C76.3224 97.3838 76.1742 96.6871 76.1249 95.7892C76.113 95.5697 76.1164 95.3432 76.1192 95.1241C76.1207 95.0231 76.1222 94.9185 76.1222 94.8152C76.1043 93.4835 76.2476 92.1647 76.3744 91.1642C76.5495 89.7829 76.7965 88.3899 77.0354 87.0421C77.1053 86.6479 77.1776 86.2404 77.247 85.8388C77.3065 85.493 77.3507 85.1244 77.3812 84.7121C77.4114 84.3026 77.2914 83.9181 77.0343 83.6003C76.8022 83.3136 76.5674 83.0475 76.3367 82.8095C75.9062 82.3654 75.4662 81.9167 75.0406 81.4826C74.3179 80.7455 73.5706 79.9834 72.8477 79.2218C71.9215 78.2459 71.0971 77.2364 70.3974 76.2215C70.0239 75.68 69.5575 74.9532 69.2599 74.1318C69.0244 73.4827 68.9516 72.9248 69.0307 72.3763C69.097 71.9178 69.2858 71.4936 69.5918 71.1153C69.9585 70.6619 70.4415 70.2943 71.112 69.958C72.1323 69.4463 73.2263 69.1428 74.162 68.9131C75.8371 68.5026 77.4969 68.2488 78.8996 68.0546C79.7061 67.943 80.6437 67.8114 81.567 67.6672C81.9428 67.6086 82.4137 67.4857 82.7215 67.0525C82.8998 66.8013 83.0485 66.5475 83.163 66.2985C83.4201 65.74 83.676 65.1697 83.9234 64.6182C84.1494 64.1145 84.3831 63.5936 84.6169 63.0837C85.2797 61.6383 86.096 59.9421 87.126 58.3216C87.5245 57.6947 88.0182 56.9692 88.6587 56.342C89.1501 55.8608 89.6095 55.5624 90.105 55.4029C90.3275 55.3306 90.5588 55.2935 90.7915 55.293C91.104 55.293 91.4219 55.3633 91.7363 55.5021C92.2509 55.7293 92.7244 56.0974 93.2262 56.6608C94.0157 57.5474 94.6249 58.5565 95.1654 59.515C96.0292 61.0463 96.764 62.6163 97.6018 64.5023L97.7092 64.7443C97.9377 65.2596 98.1739 65.7924 98.4188 66.3106C98.8911 67.3105 99.2183 67.5604 100.261 67.7167C100.78 67.7944 101.308 67.8663 101.818 67.9358C102.171 67.9839 102.535 68.0335 102.893 68.0846C105.079 68.3966 106.904 68.7171 108.704 69.2677C109.601 69.5421 110.262 69.8188 110.847 70.1647C111.423 70.5051 111.831 70.8681 112.13 71.3071C112.492 71.8394 112.633 72.4338 112.561 73.1241C112.502 73.6953 112.317 74.2619 111.98 74.9076C111.348 76.1168 110.517 77.1628 109.713 78.113C108.462 79.5921 107.077 80.9721 105.854 82.1897C105.608 82.4356 105.363 82.6912 105.126 82.9385C105.004 83.066 104.878 83.1979 104.753 83.3266C104.276 83.8182 104.099 84.4381 104.225 85.169C104.369 85.9946 104.513 86.8344 104.652 87.646L104.785 88.4207C105.052 89.9763 105.34 91.8255 105.448 93.7429C105.492 94.5137 105.524 95.527 105.384 96.5276C105.293 97.1783 105.142 97.6909 104.911 98.1409C104.522 98.8994 103.942 99.3427 103.14 99.4962C102.917 99.538 102.691 99.5587 102.465 99.558C102.21 99.558 101.945 99.5344 101.654 99.486C100.594 99.3095 99.5973 98.9191 98.7618 98.5605C97.1824 97.8825 95.6613 97.0431 94.3814 96.3114C94.1693 96.1902 93.9573 96.0687 93.7454 95.9469C93.0935 95.5728 92.4194 95.1859 91.7504 94.8162C91.5449 94.7025 91.3034 94.6131 91.0118 94.5428C90.9262 94.5222 90.8386 94.5118 90.7508 94.5119C90.519 94.5119 90.2769 94.5811 90.0107 94.7235C89.3557 95.0739 88.7831 95.3919 88.2602 95.6957C86.7082 96.5974 85.1852 97.4674 83.6152 98.201C82.7403 98.6098 81.6926 99.0666 80.5554 99.3551C80.0087 99.4944 79.5535 99.559 79.1242 99.559Z" fill="url(#paint6_linear_1631_203542)"/>
<path d="M78.5184 99.5144C77.6308 99.3691 76.9828 98.8546 76.5913 97.9848C76.3224 97.3867 76.1742 96.6899 76.1249 95.792C76.1129 95.5725 76.1164 95.3461 76.1192 95.127C76.1207 95.0259 76.1222 94.9213 76.1222 94.8181C76.1043 93.4863 76.2476 92.1675 76.3744 91.167C76.5495 89.7857 76.7965 88.3927 77.0354 87.0449C77.1053 86.6507 77.1776 86.2432 77.2469 85.8416C77.3064 85.4958 77.3507 85.1273 77.3812 84.7149C77.4114 84.3054 77.2914 83.9209 77.0343 83.6031C76.8021 83.3164 76.5674 83.0503 76.3367 82.8123C75.9062 82.3682 75.4662 81.9195 75.0406 81.4855C74.3179 80.7484 73.5706 79.9862 72.8476 79.2246C71.9215 78.2488 71.0971 77.2393 70.3974 76.2244C70.0239 75.6829 69.5574 74.956 69.2599 74.1346C69.0244 73.4856 68.9516 72.9277 69.0307 72.3792C69.097 71.9207 69.2858 71.4965 69.5918 71.1182C69.6986 70.9862 69.8142 70.8626 69.9376 70.748C69.0709 73.2229 69.8972 75.7245 77.4214 81.7342C78.6616 82.8769 79.3498 83.0223 77.7347 89.3043C76.4197 94.4181 77.5591 98.0344 78.5184 99.5144Z" fill="url(#paint7_radial_1631_203542)"/>
<path d="M104.669 98.5399C104.295 99.0546 103.792 99.3672 103.145 99.491C102.922 99.5328 102.696 99.5535 102.47 99.5529C102.215 99.5529 101.95 99.5293 101.658 99.4808C100.599 99.3043 99.6021 98.914 98.7666 98.5554C97.1872 97.8773 95.666 97.0379 94.3862 96.3063C94.1741 96.185 93.9621 96.0635 93.7502 95.9417C93.0983 95.5676 92.4243 95.1808 91.7552 94.811C91.5497 94.6973 91.3083 94.608 91.0167 94.5376C90.931 94.5171 90.8435 94.5067 90.7556 94.5067C90.5238 94.5067 90.2818 94.576 90.0155 94.7184C89.3604 95.0688 88.7879 95.3868 88.2651 95.6905C86.7131 96.5922 85.19 97.4622 83.62 98.1959C82.7451 98.6047 81.6974 99.0614 80.5602 99.3499C80.5432 99.3543 80.5264 99.3585 80.5098 99.3625C85.4783 96.7324 87.2247 88.8541 90.1074 88.7886C94.2047 88.7881 101.799 99.1675 104.669 98.5399Z" fill="url(#paint8_radial_1631_203542)"/>
<path d="M84.3385 69.7481C85.8367 67.9074 86.8452 60.4726 88.1978 60.7772C89.5504 61.0817 89.1878 71.9398 86.6952 73.4406C83.3848 75.8028 73.9299 73.6886 74.3892 71.6652C74.8486 69.6418 82.9945 72.1826 84.3385 69.7481Z" fill="url(#paint9_radial_1631_203542)"/>
<path opacity="0.76" d="M111.167 73.2859C108.17 73.299 99.7245 76.357 94.9115 78.0559C93.092 78.6045 92.6754 79.075 92.1314 75.3929C91.5873 71.7108 90.9525 62.8726 91.9434 61.0171C92.9344 59.1616 97.9083 68.6519 97.7267 69.7229C97.5451 70.7939 94.0942 73.5391 95.91 74.4788C98.5435 75.7985 108.773 69.896 110.378 71.1157C111.984 72.3354 112.382 73.0019 111.167 73.2859Z" fill="url(#paint10_radial_1631_203542)"/>
<path opacity="0.76" d="M88.9746 84.4561C91.6487 83.8983 97.007 89.776 96.462 91.703C95.9171 93.63 92.9203 88.1945 90.1052 88.7925C87.2901 89.3905 85.9279 94.4973 84.3841 93.5338C82.8403 92.5702 85.3841 85.8086 88.9746 84.4561Z" fill="url(#paint11_radial_1631_203542)"/>
<path d="M112.182 74.4946C112.122 74.6314 112.054 74.7714 111.98 74.9147C111.348 76.124 110.517 77.17 109.713 78.1202C108.462 79.5992 107.076 80.9793 105.854 82.1969C105.607 82.4428 105.363 82.6984 105.126 82.9456C105.004 83.0732 104.878 83.2051 104.753 83.3338C104.276 83.8255 104.099 84.4454 104.225 85.1762C104.369 86.0018 104.513 86.8415 104.652 87.6533L104.785 88.4279C104.805 88.5438 104.825 88.6614 104.845 88.7806C103.55 86.7492 101.796 84.1842 101.92 83.1256C102.108 81.5275 107.882 79.8611 112.182 74.4946Z" fill="url(#paint12_radial_1631_203542)"/>
<path d="M83.2445 79.0744C84.5223 79.3862 85.7974 78.5377 86.0926 77.1794C86.3878 75.821 85.5913 74.4671 84.3135 74.1553C83.0358 73.8436 81.7607 74.692 81.4655 76.0503C81.1703 77.4087 81.9668 78.7626 83.2445 79.0744Z" fill="#44240E"/>
<path d="M82.6811 77.0731C83.1137 77.1787 83.5783 76.7403 83.7188 76.094C83.8592 75.4478 83.6223 74.8382 83.1897 74.7327C82.757 74.6271 82.2924 75.0654 82.1519 75.7117C82.0115 76.358 82.2484 76.9675 82.6811 77.0731Z" fill="#FEF7FA"/>
<path d="M84.3156 78.5111C84.6196 78.5852 84.9229 78.3834 84.9931 78.0602C85.0634 77.7371 84.8739 77.415 84.5699 77.3408C84.2659 77.2667 83.9626 77.4685 83.8924 77.7916C83.8222 78.1148 84.0116 78.4369 84.3156 78.5111Z" fill="#FEF7FA"/>
<path d="M96.9106 78.8029C98.1883 79.1147 99.4634 78.2663 99.7586 76.9079C100.054 75.5495 99.2573 74.1956 97.9795 73.8839C96.7018 73.5721 95.4267 74.4205 95.1315 75.7788C94.8363 77.1372 95.6328 78.4911 96.9106 78.8029Z" fill="#44240E"/>
<path d="M96.3471 76.8109C96.7797 76.9165 97.2444 76.4781 97.3848 75.8318C97.5253 75.1855 97.2884 74.576 96.8557 74.4705C96.423 74.3649 95.9584 74.8032 95.818 75.4495C95.6775 76.0958 95.9144 76.7053 96.3471 76.8109Z" fill="#FEF7FA"/>
<path d="M97.9719 78.2532C98.2758 78.3274 98.5792 78.1256 98.6494 77.8024C98.7196 77.4793 98.5301 77.1572 98.2262 77.083C97.9222 77.0089 97.6189 77.2107 97.5486 77.5338C97.4784 77.857 97.6679 78.1791 97.9719 78.2532Z" fill="#FEF7FA"/>
<path d="M87.9698 81.4766C88.5737 82.6695 89.9113 83.3973 91.5375 83.3508C93.1636 83.3044 93.9001 82.6386 94.2158 81.7558" stroke="#231F20" stroke-miterlimit="10" stroke-linecap="round"/>
<path d="M136.399 57.0451C131.381 44.2564 120.998 36.4692 115.886 38.052C112.73 39.0333 107.365 44.0664 107.996 47.5485C108.785 52.7716 114.655 50.714 120.62 58.6278C128.383 68.9157 127.878 69.074 130.087 71.2899C133.243 74.4554 142.71 74.4554 147.444 68.1244C155.365 56.0954 166.348 29.79 192.92 7.91629C197.653 3.86443 201.945 1.71188 201.945 1.42699C201.945 1.14209 195.16 1.52195 179.539 11.8415C163.886 22.1611 147.444 36.4692 136.399 57.0451Z" fill="url(#paint13_linear_1631_203542)"/>
<defs>
<filter id="filter0_f_1631_203542" x="25.6621" y="90.4043" width="135.643" height="18.4395" filterUnits="userSpaceOnUse" color-interpolation-filters="sRGB">
<feFlood flood-opacity="0" result="BackgroundImageFix"/>
<feBlend mode="normal" in="SourceGraphic" in2="BackgroundImageFix" result="shape"/>
<feGaussianBlur stdDeviation="1.5" result="effect1_foregroundBlur_1631_203542"/>
</filter>
<linearGradient id="paint0_linear_1631_203542" x1="135.001" y1="83.1485" x2="135.001" y2="121.809" gradientUnits="userSpaceOnUse">
<stop stop-color="#B0CAFE" stop-opacity="0.51"/>
<stop offset="1" stop-color="#CFDDF8" stop-opacity="0"/>
</linearGradient>
<linearGradient id="paint1_linear_1631_203542" x1="223.187" y1="46.1261" x2="233.768" y2="44.4902" gradientUnits="userSpaceOnUse">
<stop stop-color="#B2CBFB"/>
<stop offset="1" stop-color="#EAF1FF"/>
</linearGradient>
<linearGradient id="paint2_linear_1631_203542" x1="46.4558" y1="78.874" x2="64.6589" y2="76.2763" gradientUnits="userSpaceOnUse">
<stop stop-color="#B2CBFB"/>
<stop offset="1" stop-color="#EAF1FF"/>
</linearGradient>
<linearGradient id="paint3_linear_1631_203542" x1="200.375" y1="74.5926" x2="209.445" y2="73.1904" gradientUnits="userSpaceOnUse">
<stop stop-color="#B2CBFB"/>
<stop offset="1" stop-color="#EAF1FF"/>
</linearGradient>
<linearGradient id="paint4_linear_1631_203542" x1="108.457" y1="85.704" x2="107.444" y2="109.978" gradientUnits="userSpaceOnUse">
<stop offset="0.025906" stop-color="#1350DD"/>
<stop offset="1" stop-color="#F4F7FF" stop-opacity="0"/>
</linearGradient>
<linearGradient id="paint5_linear_1631_203542" x1="153.697" y1="0.191407" x2="118.401" y2="99.8992" gradientUnits="userSpaceOnUse">
<stop stop-color="#82A5FD"/>
<stop offset="1" stop-color="#1B57EF"/>
</linearGradient>
<linearGradient id="paint6_linear_1631_203542" x1="80.7901" y1="104.73" x2="94.313" y2="56.3586" gradientUnits="userSpaceOnUse">
<stop stop-color="#F99A19"/>
<stop offset="0.15" stop-color="#FBB323"/>
<stop offset="0.35" stop-color="#FDCD2D"/>
<stop offset="0.55" stop-color="#FEDF34"/>
<stop offset="0.77" stop-color="#FFEA39"/>
<stop offset="1" stop-color="#FFEE3A"/>
</linearGradient>
<radialGradient id="paint7_radial_1631_203542" cx="0" cy="0" r="1" gradientUnits="userSpaceOnUse" gradientTransform="translate(75.843 92.5044) rotate(-85.6028) scale(25.8366 3.92349)">
<stop offset="0.02" stop-color="#ED7B14"/>
<stop offset="0.91" stop-color="#FFEE3A" stop-opacity="0"/>
</radialGradient>
<radialGradient id="paint8_radial_1631_203542" cx="0" cy="0" r="1" gradientUnits="userSpaceOnUse" gradientTransform="translate(92.4147 99.5579) rotate(-48.6818) scale(18.5469 27.7943)">
<stop offset="0.15913" stop-color="#ED7B14"/>
<stop offset="0.581859" stop-color="#FFEE3A" stop-opacity="0"/>
</radialGradient>
<radialGradient id="paint9_radial_1631_203542" cx="0" cy="0" r="1" gradientUnits="userSpaceOnUse" gradientTransform="translate(79.451 67.6445) rotate(39.7327) scale(9.72478 18.5906)">
<stop offset="0.12" stop-color="#FFF0B8"/>
<stop offset="0.4" stop-color="#FFEFAF" stop-opacity="0.85"/>
<stop offset="1" stop-color="#FFEB99" stop-opacity="0.5"/>
</radialGradient>
<radialGradient id="paint10_radial_1631_203542" cx="0" cy="0" r="1" gradientUnits="userSpaceOnUse" gradientTransform="translate(101.089 69.9662) rotate(-37.6093) scale(15.7961 7.28609)">
<stop offset="0.12" stop-color="#FFF0B8"/>
<stop offset="0.4" stop-color="#FFEFAF" stop-opacity="0.85"/>
<stop offset="1" stop-color="#FFEB99" stop-opacity="0.5"/>
</radialGradient>
<radialGradient id="paint11_radial_1631_203542" cx="0" cy="0" r="1" gradientUnits="userSpaceOnUse" gradientTransform="translate(89.1715 91.7386) rotate(-51.4709) scale(7.80552 3.29418)">
<stop offset="0.12" stop-color="#FFF0B8"/>
<stop offset="0.4" stop-color="#FFEFAF" stop-opacity="0.85"/>
<stop offset="1" stop-color="#FFEB99" stop-opacity="0"/>
</radialGradient>
<radialGradient id="paint12_radial_1631_203542" cx="0" cy="0" r="1" gradientUnits="userSpaceOnUse" gradientTransform="translate(105.915 84.1131) rotate(-68.9337) scale(10.0198 6.34885)">
<stop offset="0.02" stop-color="#ED7B14"/>
<stop offset="0.15" stop-color="#F1921C" stop-opacity="0.8"/>
<stop offset="0.36" stop-color="#F6B326" stop-opacity="0.52"/>
<stop offset="0.54" stop-color="#FACC2F" stop-opacity="0.29"/>
<stop offset="0.7" stop-color="#FDDF35" stop-opacity="0.13"/>
<stop offset="0.83" stop-color="#FEEA39" stop-opacity="0.04"/>
<stop offset="0.91" stop-color="#FFEE3A" stop-opacity="0"/>
</radialGradient>
<linearGradient id="paint13_linear_1631_203542" x1="125.483" y1="66.6143" x2="164.896" y2="-4.41708" gradientUnits="userSpaceOnUse">
<stop stop-color="#ABCDF6"/>
<stop offset="1" stop-color="#F2F6FA"/>
</linearGradient>
</defs>
</svg>
