<svg width="24" height="24" viewBox="0 0 24 24" fill="none" xmlns="http://www.w3.org/2000/svg">
<path d="M9.07091 13.6064C9.60343 13.6064 10.0351 13.1747 10.0351 12.6422C10.0351 12.1096 9.60343 11.6779 9.07091 11.6779C8.53839 11.6779 8.10669 12.1096 8.10669 12.6422C8.10669 13.1747 8.53839 13.6064 9.07091 13.6064ZM12.285 3.64281C12.285 3.45537 12.2031 3.27726 12.0609 3.15515C11.9187 3.03303 11.7303 2.97906 11.545 3.00739L2.54568 4.383C2.23182 4.43097 2 4.70092 2 5.01843V18.9803C2 19.2977 2.23177 19.5677 2.54559 19.6157L11.5449 20.9926C11.7302 21.021 11.9187 20.967 12.0609 20.8449C12.2031 20.7228 12.285 20.5446 12.285 20.3572V11.9994L18.9345 11.9994L17.6529 13.1226C17.3861 13.3564 17.3591 13.7625 17.5925 14.0297C17.8259 14.2968 18.2313 14.3239 18.4981 14.0901L21.0651 11.8403C21.2044 11.7182 21.2843 11.5419 21.2843 11.3565C21.2843 11.1712 21.2044 10.9948 21.0651 10.8728L18.4981 8.62294C18.2313 8.38916 17.8259 8.41624 17.5925 8.68341C17.3591 8.95059 17.3861 9.35669 17.6529 9.59047L18.9345 10.7137L12.285 10.7137V3.64281ZM10.9993 4.39135V19.6085L3.28562 18.4283V5.57045L10.9993 4.39135ZM14.2134 19.7131H13.5706V13.285H14.8562V19.0702C14.8562 19.4253 14.5684 19.7131 14.2134 19.7131ZM13.5706 9.4281V4.28562H14.2134C14.5684 4.28562 14.8562 4.57342 14.8562 4.92843V9.4281H13.5706Z" fill="#020B27"/>
</svg>
