<svg width="18" height="18" viewBox="0 0 18 18" fill="none" xmlns="http://www.w3.org/2000/svg">
<mask id="path-1-inside-1_1382_45643" fill="white">
<path d="M3.44111 16.0644C3.48061 16.1039 3.5289 16.139 3.58157 16.1697C5.09144 17.3153 6.96562 18 9.0022 18C11.0388 18 12.9129 17.3109 14.4228 16.1653C14.4755 16.1346 14.5194 16.1039 14.5633 16.06C16.6525 14.4097 18 11.8639 18 8.99781C18 4.03804 13.962 0 9.0022 0C4.04243 0 0 4.04243 0 9.0022C0 11.8639 1.34748 14.414 3.44111 16.0644V16.0644ZM8.99781 16.6832C7.39137 16.6832 5.89905 16.1873 4.66569 15.3402C5.31529 13.5274 7.03585 12.2941 8.99781 12.2941C10.2312 12.2941 11.3899 12.7725 12.259 13.6416C12.7418 14.1244 13.1017 14.7081 13.3255 15.3402C12.0922 16.1873 10.6042 16.6832 8.99781 16.6832V16.6832ZM6.14484 8.12436C6.14484 6.55304 7.42648 5.2714 8.99781 5.2714C10.5691 5.2714 11.8508 6.55304 11.8508 8.12436C11.8508 9.69568 10.5691 10.9773 8.99781 10.9773C7.42648 10.9773 6.14484 9.69568 6.14484 8.12436ZM8.99781 1.32114C13.2334 1.32114 16.6789 4.76664 16.6789 9.0022C16.6789 11.1353 15.8054 13.0666 14.3965 14.4579C14.1068 13.8127 13.6986 13.2158 13.1895 12.7067C12.6759 12.1931 12.079 11.7893 11.4338 11.4996C12.4828 10.7403 13.1675 9.51134 13.1675 8.11997C13.1675 5.82004 11.2977 3.95026 8.99781 3.95026C6.69788 3.95026 4.82809 5.82004 4.82809 8.11997C4.82809 9.51134 5.5128 10.7403 6.56181 11.4952C5.26262 12.0834 4.20044 13.1236 3.59912 14.4535C2.1902 13.0666 1.31675 11.1353 1.31675 9.0022C1.31675 4.76664 4.76225 1.32114 8.99781 1.32114Z"/>
</mask>
<path d="M3.44111 16.0644C3.48061 16.1039 3.5289 16.139 3.58157 16.1697C5.09144 17.3153 6.96562 18 9.0022 18C11.0388 18 12.9129 17.3109 14.4228 16.1653C14.4755 16.1346 14.5194 16.1039 14.5633 16.06C16.6525 14.4097 18 11.8639 18 8.99781C18 4.03804 13.962 0 9.0022 0C4.04243 0 0 4.04243 0 9.0022C0 11.8639 1.34748 14.414 3.44111 16.0644V16.0644ZM8.99781 16.6832C7.39137 16.6832 5.89905 16.1873 4.66569 15.3402C5.31529 13.5274 7.03585 12.2941 8.99781 12.2941C10.2312 12.2941 11.3899 12.7725 12.259 13.6416C12.7418 14.1244 13.1017 14.7081 13.3255 15.3402C12.0922 16.1873 10.6042 16.6832 8.99781 16.6832V16.6832ZM6.14484 8.12436C6.14484 6.55304 7.42648 5.2714 8.99781 5.2714C10.5691 5.2714 11.8508 6.55304 11.8508 8.12436C11.8508 9.69568 10.5691 10.9773 8.99781 10.9773C7.42648 10.9773 6.14484 9.69568 6.14484 8.12436ZM8.99781 1.32114C13.2334 1.32114 16.6789 4.76664 16.6789 9.0022C16.6789 11.1353 15.8054 13.0666 14.3965 14.4579C14.1068 13.8127 13.6986 13.2158 13.1895 12.7067C12.6759 12.1931 12.079 11.7893 11.4338 11.4996C12.4828 10.7403 13.1675 9.51134 13.1675 8.11997C13.1675 5.82004 11.2977 3.95026 8.99781 3.95026C6.69788 3.95026 4.82809 5.82004 4.82809 8.11997C4.82809 9.51134 5.5128 10.7403 6.56181 11.4952C5.26262 12.0834 4.20044 13.1236 3.59912 14.4535C2.1902 13.0666 1.31675 11.1353 1.31675 9.0022C1.31675 4.76664 4.76225 1.32114 8.99781 1.32114Z" fill="#020B27"/>
<path d="M3.58157 16.1697L10.0289 7.67209L9.51423 7.28159L8.95619 6.95607L3.58157 16.1697ZM14.4228 16.1653L9.0482 6.95168L8.49016 7.2772L7.9755 7.6677L14.4228 16.1653ZM14.5633 16.06L7.95146 7.6897L7.46193 8.0764L7.02081 8.51751L14.5633 16.06ZM4.66569 15.3402L-5.3757 11.7418L-8.14845 19.4793L-1.3733 24.1327L4.66569 15.3402ZM13.3255 15.3402L19.3645 24.1327L26.1137 19.4971L23.3802 11.7791L13.3255 15.3402ZM14.3965 14.4579L4.66561 18.8269L10.959 32.8439L21.8915 22.0475L14.3965 14.4579ZM11.4338 11.4996L5.17933 2.85907L-9.76308 13.6751L7.06483 21.2305L11.4338 11.4996ZM6.56181 11.4952L10.9609 21.2126L27.7587 13.6081L12.7925 2.83751L6.56181 11.4952ZM3.59912 14.4535L-3.88392 22.055L7.01663 32.7857L13.3185 18.8481L3.59912 14.4535ZM-4.10136 23.6068C-3.2533 24.4549 -2.41326 25.0216 -1.79306 25.3834L8.95619 6.95607C9.47105 7.25641 10.2145 7.75285 10.9836 8.5219L-4.10136 23.6068ZM-2.86576 24.6673C0.40857 27.1517 4.52648 28.6667 9.0022 28.6667V7.33333C9.40476 7.33333 9.77431 7.47893 10.0289 7.67209L-2.86576 24.6673ZM9.0022 28.6667C13.4937 28.6667 17.609 27.1373 20.8702 24.663L7.9755 7.6677C8.21692 7.48452 8.58388 7.33333 9.0022 7.33333V28.6667ZM19.7974 25.379C20.3617 25.0498 21.2192 24.489 22.1058 23.6025L7.02081 8.51751C7.38989 8.14843 7.77416 7.82167 8.16197 7.53543C8.53557 7.25968 8.85422 7.06484 9.0482 6.95168L19.7974 25.379ZM21.1751 24.4303C25.6888 20.8649 28.6667 15.2975 28.6667 8.99781H7.33333C7.33333 8.43039 7.6163 7.95445 7.95146 7.6897L21.1751 24.4303ZM28.6667 8.99781C28.6667 -1.853 19.853 -10.6667 9.0022 -10.6667V10.6667C8.07092 10.6667 7.33333 9.92908 7.33333 8.99781H28.6667ZM9.0022 -10.6667C-1.84861 -10.6667 -10.6667 -1.84861 -10.6667 9.0022H10.6667C10.6667 9.93347 9.93347 10.6667 9.0022 10.6667V-10.6667ZM-10.6667 9.0022C-10.6667 15.2963 -7.68927 20.8729 -3.16216 24.4414L10.0444 7.68735C10.3842 7.95523 10.6667 8.43157 10.6667 9.0022H-10.6667ZM8.99781 6.01658C9.62029 6.01658 10.2217 6.2159 10.7047 6.54764L-1.3733 24.1327C1.57643 26.1586 5.16245 27.3499 8.99781 27.3499V6.01658ZM14.7071 18.9385C13.8496 21.3313 11.5757 22.9607 8.99781 22.9607V1.62741C2.49602 1.62741 -3.21903 5.72352 -5.3757 11.7418L14.7071 18.9385ZM8.99781 22.9607C7.41673 22.9607 5.85808 22.3256 4.71649 21.184L19.8014 6.09908C16.9217 3.21937 13.0456 1.62741 8.99781 1.62741V22.9607ZM4.71649 21.184C4.032 20.4995 3.55634 19.7073 3.27084 18.9012L23.3802 11.7791C22.647 9.70893 21.4515 7.74918 19.8014 6.09908L4.71649 21.184ZM7.28654 6.54764C7.76414 6.21961 8.36898 6.01658 8.99781 6.01658V27.3499C12.8395 27.3499 16.4202 26.1549 19.3645 24.1327L7.28654 6.54764ZM16.8115 8.12436C16.8115 12.4441 13.3175 15.9381 8.99781 15.9381V-5.39527C1.53544 -5.39527 -4.52182 0.661999 -4.52182 8.12436H16.8115ZM8.99781 15.9381C4.67809 15.9381 1.1841 12.4441 1.1841 8.12436H22.5174C22.5174 0.661999 16.4602 -5.39527 8.99781 -5.39527V15.9381ZM1.1841 8.12436C1.1841 3.80465 4.67809 0.310657 8.99781 0.310657V21.644C16.4602 21.644 22.5174 15.5867 22.5174 8.12436H1.1841ZM8.99781 0.310657C13.3175 0.310657 16.8115 3.80465 16.8115 8.12436H-4.52182C-4.52182 15.5867 1.53544 21.644 8.99781 21.644V0.310657ZM8.99781 11.9878C7.34232 11.9878 6.01219 10.6577 6.01219 9.0022H27.3455C27.3455 -1.12439 19.1244 -9.34553 8.99781 -9.34553V11.9878ZM6.01219 9.0022C6.01219 8.1624 6.36857 7.39457 6.90145 6.86833L21.8915 22.0475C25.2423 18.7386 27.3455 14.1083 27.3455 9.0022H6.01219ZM24.1274 10.089C23.314 8.27737 22.1692 6.60147 20.7319 5.16418L5.64699 20.2491C5.228 19.8301 4.89962 19.3481 4.66561 18.8269L24.1274 10.089ZM20.7319 5.16418C19.2686 3.70089 17.5858 2.5693 15.8028 1.76876L7.06483 21.2305C6.57224 21.0093 6.08323 20.6854 5.64699 20.2491L20.7319 5.16418ZM17.6883 20.1402C21.3629 17.4803 23.8342 13.1084 23.8342 8.11997H2.50085C2.50085 5.91431 3.60274 4.00028 5.17933 2.85907L17.6883 20.1402ZM23.8342 8.11997C23.8342 -0.0709931 17.1888 -6.71641 8.99781 -6.71641V14.6169C5.4067 14.6169 2.50085 11.7111 2.50085 8.11997H23.8342ZM8.99781 -6.71641C0.806842 -6.71641 -5.83858 -0.0709931 -5.83858 8.11997H15.4948C15.4948 11.7111 12.5889 14.6169 8.99781 14.6169V-6.71641ZM-5.83858 8.11997C-5.83858 13.1035 -3.37002 17.4894 0.33114 20.153L12.7925 2.83751C14.3956 3.99122 15.4948 5.91922 15.4948 8.11997H-5.83858ZM2.16276 1.77794C-1.44877 3.41289 -4.42916 6.31891 -6.12022 10.059L13.3185 18.8481C12.83 19.9283 11.974 20.7539 10.9609 21.2126L2.16276 1.77794ZM11.0822 6.85211C11.6286 7.39007 11.9834 8.16522 11.9834 9.0022H-9.34991C-9.34991 14.1054 -7.24825 18.7431 -3.88392 22.055L11.0822 6.85211ZM11.9834 9.0022C11.9834 10.6577 10.6533 11.9878 8.99781 11.9878V-9.34553C-1.12878 -9.34553 -9.34991 -1.12439 -9.34991 9.0022H11.9834Z" fill="#020B27" mask="url(#path-1-inside-1_1382_45643)"/>
</svg>
