<svg width="44" height="44" viewBox="0 0 44 44" fill="none" xmlns="http://www.w3.org/2000/svg">
<path d="M44 22.592C44 28.3032 41.8837 33.5195 38.3936 37.4973C34.259 42.2097 28.1962 44 21.4396 44C8.97986 44 0 34.6688 0 22.1916C0 12.7003 4.72391 4.97648 13.0057 1.63157C15.6112 0.579237 18.4578 0 21.4396 0C33.8994 0 44 10.1147 44 22.592Z" fill="#F1D333"/>
<path d="M25.5654 30.6283C24.6359 30.9246 23.6198 31.0878 22.5552 31.0878C20.5894 31.0878 18.789 30.5313 17.3941 29.6079C16.9468 29.3117 16.3446 29.5879 16.2844 30.1211C16.2596 30.3405 16.246 30.5635 16.2443 30.7892C16.2221 33.78 18.3163 36.3241 21.1205 36.9825L23.2678 36.8246C26.3719 36.5963 27.7703 32.8251 25.5654 30.6283Z" fill="#A55A3C"/>
<path d="M28.8283 30.12C28.768 29.5873 28.1652 29.3126 27.7182 29.6085C27.0789 30.0316 26.3538 30.3765 25.5674 30.6272C25.5728 30.734 25.576 30.8415 25.576 30.9496C25.576 33.7884 23.7016 36.189 21.123 36.9823C21.5579 37.0844 22.0096 37.1416 22.4733 37.1476C25.9975 37.1937 28.8687 34.3507 28.8687 30.8371C28.8687 30.5946 28.8549 30.3553 28.8283 30.12Z" fill="#783C28"/>
<path d="M16.6436 15.2605L18.2672 17.47C18.3669 17.6055 18.5063 17.7068 18.6661 17.7597L21.2691 18.6212C21.7888 18.7932 21.9924 19.4199 21.6731 19.8645L20.0736 22.0914C19.9754 22.2282 19.9222 22.3919 19.9213 22.5602L19.9064 25.3021C19.9035 25.8495 19.3703 26.2368 18.8488 26.0704L16.2366 25.2373C16.0763 25.1862 15.9039 25.1862 15.7436 25.2373L13.1314 26.0704C12.6099 26.2368 12.0767 25.8494 12.0738 25.3021L12.0589 22.5602C12.058 22.3919 12.0048 22.2281 11.9066 22.0914L10.3071 19.8645C9.98769 19.4199 10.1913 18.7932 10.7111 18.6212L13.3141 17.7597C13.4739 17.7068 13.6133 17.6056 13.7129 17.47L15.3366 15.2605C15.6605 14.8194 16.3195 14.8194 16.6436 15.2605Z" fill="#EAB14D"/>
<path d="M16.6436 14.0808L18.2672 16.2903C18.3669 16.4258 18.5063 16.5271 18.6661 16.58L21.2691 17.4415C21.7888 17.6135 21.9924 18.2402 21.6731 18.6848L20.0736 20.9117C19.9754 21.0485 19.9222 21.2122 19.9213 21.3805L19.9064 24.1224C19.9035 24.6698 19.3703 25.0572 18.8488 24.8908L16.2366 24.0576C16.0763 24.0065 15.9039 24.0065 15.7436 24.0576L13.1314 24.8908C12.6099 25.0571 12.0767 24.6697 12.0738 24.1224L12.0589 21.3805C12.058 21.2122 12.0048 21.0484 11.9066 20.9117L10.3071 18.6848C9.98769 18.2403 10.1913 17.6135 10.7111 17.4415L13.3141 16.58C13.4739 16.5271 13.6133 16.4259 13.7129 16.2903L15.3366 14.0808C15.6605 13.6397 16.3195 13.6397 16.6436 14.0808Z" fill="#F9F48E"/>
<path d="M15.5842 20.3618C14.4189 19.292 13.8931 17.7182 13.7941 16.1802L13.7129 16.2906C13.6133 16.4263 13.4739 16.5275 13.3141 16.5804L10.711 17.4418C10.1914 17.6138 9.98772 18.2405 10.307 18.6852L11.9066 20.9121C12.0047 21.0488 12.058 21.2126 12.0589 21.3809L12.0737 24.1227C12.0767 24.6701 12.6098 25.0575 13.1314 24.8911L15.7436 24.058C15.9039 24.0068 16.0762 24.0068 16.2365 24.058L18.8487 24.8911C19.3703 25.0574 19.9034 24.6701 19.9064 24.1227L19.917 22.1619C18.2572 22.1581 16.7835 21.4628 15.5842 20.3618Z" fill="#F9EF63"/>
<path d="M29.7257 15.2605L31.3493 17.47C31.4489 17.6055 31.5883 17.7068 31.7481 17.7597L34.3512 18.6212C34.8708 18.7932 35.0745 19.4199 34.7552 19.8645L33.1556 22.0914C33.0575 22.2282 33.0042 22.3919 33.0033 22.5602L32.9885 25.3021C32.9855 25.8495 32.4524 26.2368 31.9308 26.0704L29.3186 25.2373C29.1583 25.1862 28.986 25.1862 28.8257 25.2373L26.2134 26.0704C25.6919 26.2368 25.1588 25.8494 25.1558 25.3021L25.1409 22.5602C25.14 22.3919 25.0868 22.2281 24.9886 22.0914L23.3891 19.8645C23.0697 19.4199 23.2734 18.7932 23.7931 18.6212L26.3962 17.7597C26.556 17.7068 26.6953 17.6056 26.795 17.47L28.4186 15.2605C28.7425 14.8194 29.4015 14.8194 29.7257 15.2605Z" fill="#EAB14D"/>
<path d="M29.7257 14.0808L31.3493 16.2903C31.4489 16.4258 31.5883 16.5271 31.7481 16.58L34.3512 17.4415C34.8708 17.6135 35.0745 18.2402 34.7552 18.6848L33.1556 20.9117C33.0575 21.0485 33.0042 21.2122 33.0033 21.3805L32.9885 24.1224C32.9855 24.6698 32.4524 25.0572 31.9308 24.8908L29.3186 24.0576C29.1583 24.0065 28.986 24.0065 28.8257 24.0576L26.2134 24.8908C25.6919 25.0571 25.1588 24.6697 25.1558 24.1224L25.1409 21.3805C25.14 21.2122 25.0868 21.0484 24.9886 20.9117L23.3891 18.6848C23.0697 18.2403 23.2734 17.6135 23.7931 17.4415L26.3962 16.58C26.556 16.5271 26.6953 16.4259 26.795 16.2903L28.4186 14.0808C28.7425 13.6397 29.4015 13.6397 29.7257 14.0808Z" fill="#F9F48E"/>
<path d="M28.6623 20.3618C27.497 19.292 26.9713 17.7182 26.8722 16.1802L26.791 16.2906C26.6914 16.4263 26.552 16.5275 26.3922 16.5804L23.7891 17.4418C23.2695 17.6138 23.0658 18.2405 23.3851 18.6852L24.9847 20.9121C25.0828 21.0488 25.1361 21.2126 25.137 21.3809L25.1518 24.1227C25.1548 24.6701 25.6879 25.0575 26.2095 24.8911L28.8217 24.058C28.982 24.0068 29.1543 24.0068 29.3146 24.058L31.9269 24.8911C32.4484 25.0574 32.9815 24.6701 32.9845 24.1227L32.9951 22.1619C31.3353 22.1581 29.8617 21.4628 28.6623 20.3618Z" fill="#F9EF63"/>
</svg>
