<svg width="44" height="44" viewBox="0 0 44 44" fill="none" xmlns="http://www.w3.org/2000/svg">
<path d="M44 22.592C44 28.3032 41.8837 33.5195 38.3936 37.4973C34.259 42.2097 28.1962 44 21.4396 44C8.97986 44 0 34.6688 0 22.1916C0 12.7003 4.72391 4.97648 13.0057 1.63157C15.6112 0.579237 18.4578 0 21.4396 0C33.8994 0 44 10.1147 44 22.592Z" fill="#C1C8D1"/>
<path d="M17.3656 19.6183C17.9314 19.6183 18.448 19.9798 18.8414 20.5755C19.0661 20.9157 19.5992 20.7631 19.6001 20.3555C19.6001 20.35 19.6001 20.3445 19.6001 20.3389C19.6001 18.2187 18.5996 16.5 17.3655 16.5C16.1313 16.5 15.1309 18.2187 15.1309 20.3389V20.3555C15.1318 20.7631 15.6649 20.9157 15.8896 20.5755C16.2833 19.9798 16.7997 19.6183 17.3656 19.6183Z" fill="#6D7D92"/>
<path d="M27.9789 19.7643C28.5447 19.7643 29.0612 20.1258 29.4547 20.7215C29.6794 21.0617 30.2124 20.9091 30.2134 20.5015C30.2134 20.496 30.2134 20.4905 30.2134 20.4849C30.2134 18.3647 29.2129 16.646 27.9788 16.646C26.7446 16.646 25.7441 18.3647 25.7441 20.4849V20.5015C25.7451 20.9091 26.2782 21.0617 26.5028 20.7215C26.8966 20.1258 27.413 19.7643 27.9789 19.7643Z" fill="#6D7D92"/>
<path d="M12.3551 32.743C14.7777 32.743 16.7415 30.7791 16.7415 28.3566C16.7415 25.9341 14.7777 23.9702 12.3551 23.9702C9.9326 23.9702 7.96875 25.9341 7.96875 28.3566C7.96875 30.7791 9.9326 32.743 12.3551 32.743Z" fill="#A8B1BD"/>
<path d="M31.8629 32.512C34.2855 32.512 36.2493 30.5482 36.2493 28.1256C36.2493 25.7031 34.2855 23.7393 31.8629 23.7393C29.4404 23.7393 27.4766 25.7031 27.4766 28.1256C27.4766 30.5482 29.4404 32.512 31.8629 32.512Z" fill="#A8B1BD"/>
<path d="M22.7508 33.4589C19.739 33.4589 16.9074 32.2861 14.7776 30.1563C14.4986 29.8773 14.4986 29.4248 14.7776 29.1458C15.0568 28.8668 15.5091 28.8668 15.7882 29.1458C17.648 31.0056 20.1207 32.0298 22.7507 32.0298C25.3809 32.0298 27.8535 31.0056 29.7133 29.1458C29.9924 28.8668 30.4447 28.8668 30.7239 29.1458C31.0029 29.4248 31.0029 29.8773 30.7239 30.1563C28.5943 32.286 25.7626 33.4589 22.7508 33.4589Z" fill="#6D7D92"/>
</svg>
