<svg width="44" height="44" viewBox="0 0 44 44" fill="none" xmlns="http://www.w3.org/2000/svg">
<path d="M44 22.592C44 28.3032 41.8837 33.5195 38.3936 37.4973C34.259 42.2097 28.1962 44 21.4396 44C8.97986 44 0 34.6688 0 22.1916C0 12.7003 4.72391 4.97648 13.0057 1.63157C15.6112 0.579237 18.4578 0 21.4396 0C33.8994 0 44 10.1147 44 22.592Z" fill="#C1C8D1"/>
<path d="M16.5668 23.5335C17.6931 23.5335 18.6062 22.6204 18.6062 21.494C18.6062 20.3677 17.6931 19.4546 16.5668 19.4546C15.4404 19.4546 14.5273 20.3677 14.5273 21.494C14.5273 22.6204 15.4404 23.5335 16.5668 23.5335Z" fill="#6D7D92"/>
<path d="M25.8266 23.5335C26.9529 23.5335 27.866 22.6204 27.866 21.494C27.866 20.3677 26.9529 19.4546 25.8266 19.4546C24.7002 19.4546 23.7871 20.3677 23.7871 21.494C23.7871 22.6204 24.7002 23.5335 25.8266 23.5335Z" fill="#6D7D92"/>
<path d="M21.0932 32.5698C22.971 32.5453 24.7181 33.0981 26.1688 34.0617C26.7133 34.4234 27.3763 33.8178 27.0828 33.2337C25.9911 31.0613 23.7301 29.5783 21.1253 29.6124C18.5992 29.6454 16.4116 31.1245 15.3433 33.2484C15.049 33.8334 15.7196 34.4322 16.2644 34.0689C17.6531 33.143 19.3117 32.5931 21.0932 32.5698Z" fill="#6D7D92"/>
<path d="M11.1152 19.5156C10.7069 19.5156 10.3206 19.455 9.96972 19.3322C9.70152 19.2383 9.56017 18.9447 9.654 18.6764C9.74792 18.4082 10.0414 18.2669 10.3098 18.3607C11.8313 18.8932 14.5607 17.6981 15.6677 15.4151C15.7917 15.1594 16.0995 15.0528 16.3553 15.1766C16.6111 15.3006 16.7179 15.6085 16.5938 15.8642C15.9818 17.1263 14.9176 18.1921 13.5972 18.865C12.7544 19.2946 11.895 19.5156 11.1152 19.5156Z" fill="#A7B1BE"/>
<path d="M30.8564 19.5155C30.0766 19.5155 29.2174 19.2945 28.3745 18.865C27.0542 18.192 25.9899 17.1263 25.3779 15.8642C25.2538 15.6086 25.3606 15.3006 25.6164 15.1766C25.8722 15.0528 26.18 15.1594 26.304 15.4151C27.4111 17.6983 30.1404 18.8935 31.6618 18.3607C31.9303 18.2667 32.2237 18.4082 32.3176 18.6764C32.4115 18.9447 32.2702 19.2383 32.0019 19.3322C31.651 19.455 31.2646 19.5155 30.8564 19.5155Z" fill="#A7B1BE"/>
<path d="M36.6018 30.725C36.6018 30.9644 36.5799 31.1987 36.5381 31.426C36.2085 33.2146 34.6087 34.065 32.7248 34.065C30.6015 34.065 29.2676 32.9146 29.2676 30.7913C29.2676 28.668 32.7573 23.5352 32.7573 23.5352C32.7573 23.5352 36.6018 28.6017 36.6018 30.725Z" fill="#A7B1BE"/>
<path d="M34.587 31.959C32.4637 31.959 30.7275 30.2377 30.7424 28.1143C30.7552 26.2836 32.7626 23.5337 32.7626 23.5337C32.7626 23.5337 28.918 28.6002 28.918 30.7235C28.918 32.8469 30.6393 34.5682 32.7626 34.5682C34.6465 34.5682 36.2127 33.2129 36.5423 31.4244C35.9694 31.7636 35.3012 31.959 34.587 31.959Z" fill="#A7B1BE"/>
</svg>
