<svg width="44" height="44" viewBox="0 0 44 44" fill="none" xmlns="http://www.w3.org/2000/svg">
<path d="M44 22.592C44 28.3032 41.8837 33.5195 38.3936 37.4973C34.259 42.2097 28.1962 44 21.4396 44C8.97986 44 0 34.6688 0 22.1916C0 12.7003 4.72391 4.97648 13.0057 1.63157C15.6112 0.579237 18.4578 0 21.4396 0C33.8994 0 44 10.1147 44 22.592Z" fill="#F1D333"/>
<path d="M17.3675 19.6183C17.9334 19.6183 18.4499 19.9798 18.8434 20.5755C19.068 20.9157 19.6011 20.7631 19.6021 20.3555C19.6021 20.35 19.6021 20.3445 19.6021 20.3389C19.6021 18.2187 18.6016 16.5 17.3674 16.5C16.1333 16.5 15.1328 18.2187 15.1328 20.3389V20.3555C15.1338 20.7631 15.6669 20.9157 15.8915 20.5755C16.2852 19.9798 16.8017 19.6183 17.3675 19.6183Z" fill="#783C28"/>
<path d="M27.9828 19.7643C28.5486 19.7643 29.0651 20.1258 29.4586 20.7215C29.6833 21.0617 30.2163 20.9091 30.2173 20.5015C30.2173 20.496 30.2173 20.4905 30.2173 20.4849C30.2173 18.3647 29.2168 16.646 27.9827 16.646C26.7485 16.646 25.748 18.3647 25.748 20.4849V20.5015C25.749 20.9091 26.2821 21.0617 26.5067 20.7215C26.9005 20.1258 27.4169 19.7643 27.9828 19.7643Z" fill="#783C28"/>
<path d="M12.3551 32.7435C14.7777 32.7435 16.7415 30.7796 16.7415 28.3571C16.7415 25.9346 14.7777 23.9707 12.3551 23.9707C9.9326 23.9707 7.96875 25.9346 7.96875 28.3571C7.96875 30.7796 9.9326 32.7435 12.3551 32.7435Z" fill="#FA870A"/>
<path d="M31.8629 32.512C34.2855 32.512 36.2493 30.5482 36.2493 28.1256C36.2493 25.7031 34.2855 23.7393 31.8629 23.7393C29.4404 23.7393 27.4766 25.7031 27.4766 28.1256C27.4766 30.5482 29.4404 32.512 31.8629 32.512Z" fill="#FA870A"/>
<path d="M22.7508 33.4585C19.739 33.4585 16.9074 32.2856 14.7776 30.1558C14.4986 29.8768 14.4986 29.4244 14.7776 29.1453C15.0568 28.8663 15.5091 28.8663 15.7882 29.1453C17.648 31.0051 20.1207 32.0293 22.7507 32.0293C25.3809 32.0293 27.8535 31.0051 29.7133 29.1453C29.9924 28.8663 30.4448 28.8663 30.7239 29.1453C31.0029 29.4244 31.0029 29.8768 30.7239 30.1558C28.5943 32.2855 25.7626 33.4585 22.7508 33.4585Z" fill="#783C28"/>
</svg>
