<svg width="44" height="44" viewBox="0 0 44 44" fill="none" xmlns="http://www.w3.org/2000/svg">
<path d="M44 22.592C44 28.3032 41.8837 33.5195 38.3936 37.4973C34.259 42.2097 28.1962 44 21.4396 44C8.97986 44 0 34.6688 0 22.1916C0 12.7003 4.72391 4.97648 13.0057 1.63157C15.6112 0.579237 18.4578 0 21.4396 0C33.8994 0 44 10.1147 44 22.592Z" fill="#F1D333"/>
<path d="M16.5709 24.9053C17.8225 24.9053 18.8371 23.685 18.8371 22.1797C18.8371 20.6744 17.8225 19.4541 16.5709 19.4541C15.3193 19.4541 14.3047 20.6744 14.3047 22.1797C14.3047 23.685 15.3193 24.9053 16.5709 24.9053Z" fill="#EAB14D"/>
<path d="M16.5609 23.5335C17.6873 23.5335 18.6004 22.6204 18.6004 21.494C18.6004 20.3677 17.6873 19.4546 16.5609 19.4546C15.4346 19.4546 14.5215 20.3677 14.5215 21.494C14.5215 22.6204 15.4346 23.5335 16.5609 23.5335Z" fill="#783C28"/>
<path d="M25.8563 24.9058C27.1049 24.9058 28.117 23.6855 28.117 22.1802C28.117 20.6749 27.1049 19.4546 25.8563 19.4546C24.6078 19.4546 23.5957 20.6749 23.5957 22.1802C23.5957 23.6855 24.6078 24.9058 25.8563 24.9058Z" fill="#EAB14D"/>
<path d="M25.8344 23.5335C26.9607 23.5335 27.8738 22.6204 27.8738 21.494C27.8738 20.3677 26.9607 19.4546 25.8344 19.4546C24.708 19.4546 23.7949 20.3677 23.7949 21.494C23.7949 22.6204 24.708 23.5335 25.8344 23.5335Z" fill="#783C28"/>
<path d="M21.0913 32.5708C22.969 32.5463 24.7162 33.0991 26.1669 34.0627C26.7113 34.4244 27.3744 33.8188 27.0808 33.2347C25.9892 31.0623 23.7282 29.5793 21.1233 29.6134C18.5972 29.6464 16.4097 31.1255 15.3413 33.2494C15.047 33.8344 15.7177 34.4331 16.2625 34.0699C17.6512 33.144 19.3097 32.5941 21.0913 32.5708Z" fill="#783C28"/>
<path d="M11.1152 19.5156C10.7069 19.5156 10.3206 19.455 9.96972 19.3322C9.70152 19.2383 9.56017 18.9447 9.654 18.6764C9.74792 18.4082 10.0414 18.2669 10.3098 18.3607C11.8313 18.8932 14.5607 17.6981 15.6677 15.4151C15.7917 15.1594 16.0995 15.0528 16.3553 15.1766C16.6111 15.3006 16.7179 15.6085 16.5938 15.8642C15.9818 17.1263 14.9176 18.1921 13.5972 18.865C12.7544 19.2946 11.895 19.5156 11.1152 19.5156Z" fill="#EAB14D"/>
<path d="M30.8525 19.5155C30.0727 19.5155 29.2135 19.2945 28.3706 18.865C27.0503 18.192 25.986 17.1263 25.374 15.8642C25.2499 15.6086 25.3567 15.3006 25.6125 15.1766C25.8683 15.0528 26.1761 15.1594 26.3001 15.4151C27.4072 17.6983 30.1365 18.8935 31.6579 18.3607C31.9264 18.2667 32.2198 18.4082 32.3137 18.6764C32.4076 18.9447 32.2663 19.2383 31.998 19.3322C31.6471 19.455 31.2607 19.5155 30.8525 19.5155Z" fill="#EAB14D"/>
<path d="M36.6057 30.7235C36.6057 30.9629 36.5838 31.1973 36.542 31.4245C36.2124 33.2131 34.6126 34.0635 32.7287 34.0635C30.6054 34.0635 29.2715 32.9132 29.2715 30.7898C29.2715 28.6665 32.7612 23.5337 32.7612 23.5337C32.7612 23.5337 36.6057 28.6002 36.6057 30.7235Z" fill="#9DC6FB"/>
<path d="M34.587 31.959C32.4637 31.959 30.7275 30.2377 30.7424 28.1143C30.7553 26.2836 32.7626 23.5337 32.7626 23.5337C32.7626 23.5337 28.918 28.6002 28.918 30.7235C28.918 32.8469 30.6393 34.5682 32.7626 34.5682C34.6465 34.5682 36.2127 33.2129 36.5423 31.4244C35.9694 31.7636 35.3012 31.959 34.587 31.959Z" fill="#61A3E0"/>
</svg>
