<svg width="44" height="44" viewBox="0 0 44 44" fill="none" xmlns="http://www.w3.org/2000/svg">
<path d="M44 22.592C44 28.3032 41.8837 33.5195 38.3936 37.4973C34.259 42.2097 28.1962 44 21.4396 44C8.97986 44 0 34.6688 0 22.1916C0 12.7003 4.72391 4.97648 13.0057 1.63157C15.6112 0.579237 18.4578 0 21.4396 0C33.8994 0 44 10.1147 44 22.592Z" fill="#C1C8D1"/>
<rect x="12.375" y="30.2476" width="19.25" height="2.0625" rx="1.03125" fill="#6D7D92"/>
<path d="M16.4666 20.9347C17.5624 20.9347 18.4507 19.6337 18.4507 18.0289C18.4507 16.424 17.5624 15.123 16.4666 15.123C15.3708 15.123 14.4824 16.424 14.4824 18.0289C14.4824 19.6337 15.3708 20.9347 16.4666 20.9347Z" fill="#6D7D92"/>
<path d="M27.6072 20.9357C28.703 20.9357 29.5913 19.6347 29.5913 18.0299C29.5913 16.425 28.703 15.124 27.6072 15.124C26.5114 15.124 25.623 16.425 25.623 18.0299C25.623 19.6347 26.5114 20.9357 27.6072 20.9357Z" fill="#6D7D92"/>
</svg>
