<svg width="44" height="44" viewBox="0 0 44 44" fill="none" xmlns="http://www.w3.org/2000/svg">
<path d="M44 22.592C44 28.3032 41.8837 33.5195 38.3936 37.4973C34.259 42.2097 28.1962 44 21.4396 44C8.97986 44 0 34.6688 0 22.1916C0 12.7003 4.72391 4.97648 13.0057 1.63157C15.6112 0.579237 18.4578 0 21.4396 0C33.8994 0 44 10.1147 44 22.592Z" fill="#C1C8D1"/>
<path d="M25.5673 30.6278C24.6378 30.9241 23.6217 31.0873 22.5571 31.0873C20.5913 31.0873 18.791 30.5308 17.3961 29.6074C16.9487 29.3112 16.3466 29.5874 16.2863 30.1206C16.2615 30.34 16.248 30.563 16.2463 30.7887C16.2241 33.7795 18.3182 36.3236 21.1224 36.9821L23.2698 36.8241C26.3739 36.5958 27.7722 32.8246 25.5673 30.6278Z" fill="#8A97A8"/>
<path d="M28.8264 30.12C28.766 29.5873 28.1632 29.3126 27.7162 29.6085C27.077 30.0316 26.3519 30.3765 25.5654 30.6272C25.5708 30.734 25.574 30.8415 25.574 30.9496C25.574 33.7884 23.6996 36.189 21.1211 36.9823C21.5559 37.0844 22.0077 37.1416 22.4713 37.1476C25.9955 37.1937 28.8668 34.3507 28.8668 30.8371C28.8668 30.5946 28.853 30.3553 28.8264 30.12Z" fill="#8A97A8"/>
<path d="M16.6475 15.2615L18.2712 17.4709C18.3708 17.6065 18.5102 17.7078 18.67 17.7607L21.273 18.6221C21.7927 18.7941 21.9963 19.4208 21.6771 19.8655L20.0775 22.0924C19.9793 22.2291 19.9261 22.3929 19.9252 22.5612L19.9104 25.303C19.9074 25.8505 19.3742 26.2378 18.8527 26.0714L16.2405 25.2383C16.0802 25.1872 15.9078 25.1872 15.7475 25.2383L13.1353 26.0714C12.6138 26.2377 12.0806 25.8504 12.0777 25.303L12.0628 22.5612C12.0619 22.3929 12.0087 22.229 11.9105 22.0924L10.311 19.8655C9.99159 19.4209 10.1952 18.7941 10.715 18.6221L13.318 17.7607C13.4778 17.7078 13.6172 17.6066 13.7169 17.4709L15.3405 15.2615C15.6644 14.8204 16.3234 14.8204 16.6475 15.2615Z" fill="#A7B1BE"/>
<path d="M16.6475 14.0808L18.2712 16.2903C18.3708 16.4258 18.5102 16.5271 18.67 16.58L21.273 17.4415C21.7927 17.6135 21.9963 18.2402 21.6771 18.6848L20.0775 20.9117C19.9793 21.0485 19.9261 21.2122 19.9252 21.3805L19.9104 24.1224C19.9074 24.6698 19.3742 25.0572 18.8527 24.8908L16.2405 24.0576C16.0802 24.0065 15.9078 24.0065 15.7475 24.0576L13.1353 24.8908C12.6138 25.0571 12.0806 24.6697 12.0777 24.1224L12.0628 21.3805C12.0619 21.2122 12.0087 21.0484 11.9105 20.9117L10.311 18.6848C9.99159 18.2403 10.1952 17.6135 10.715 17.4415L13.318 16.58C13.4778 16.5271 13.6172 16.4259 13.7169 16.2903L15.3405 14.0808C15.6644 13.6397 16.3234 13.6397 16.6475 14.0808Z" fill="#E2E5E9"/>
<path d="M15.5881 20.3608C14.4228 19.291 13.897 17.7173 13.798 16.1792L13.7168 16.2896C13.6172 16.4253 13.4778 16.5265 13.318 16.5794L10.7149 17.4408C10.1953 17.6128 9.99162 18.2396 10.3109 18.6842L11.9105 20.9111C12.0086 21.0478 12.0619 21.2116 12.0628 21.3799L12.0776 24.1218C12.0806 24.6692 12.6137 25.0565 13.1353 24.8901L15.7475 24.057C15.9078 24.0058 16.0801 24.0058 16.2404 24.057L18.8526 24.8901C19.3742 25.0564 19.9073 24.6691 19.9103 24.1218L19.9209 22.161C18.2611 22.1571 16.7874 21.4618 15.5881 20.3608Z" fill="#E2E5E9"/>
<path d="M29.7296 15.2615L31.3532 17.4709C31.4528 17.6065 31.5922 17.7078 31.752 17.7607L34.3551 18.6221C34.8747 18.7941 35.0784 19.4208 34.7591 19.8655L33.1595 22.0924C33.0614 22.2291 33.0081 22.3929 33.0072 22.5612L32.9924 25.303C32.9894 25.8505 32.4563 26.2378 31.9347 26.0714L29.3225 25.2383C29.1622 25.1872 28.9899 25.1872 28.8296 25.2383L26.2174 26.0714C25.6958 26.2377 25.1627 25.8504 25.1597 25.303L25.1449 22.5612C25.1439 22.3929 25.0907 22.229 24.9925 22.0924L23.393 19.8655C23.0736 19.4209 23.2773 18.7941 23.797 18.6221L26.4001 17.7607C26.5599 17.7078 26.6992 17.6066 26.7989 17.4709L28.4225 15.2615C28.7464 14.8204 29.4054 14.8204 29.7296 15.2615Z" fill="#A7B1BE"/>
<path d="M29.7296 14.0808L31.3532 16.2903C31.4528 16.4258 31.5922 16.5271 31.752 16.58L34.3551 17.4415C34.8747 17.6135 35.0784 18.2402 34.7591 18.6848L33.1595 20.9117C33.0614 21.0485 33.0081 21.2122 33.0072 21.3805L32.9924 24.1224C32.9894 24.6698 32.4563 25.0572 31.9347 24.8908L29.3225 24.0576C29.1622 24.0065 28.9899 24.0065 28.8296 24.0576L26.2174 24.8908C25.6958 25.0571 25.1627 24.6697 25.1597 24.1224L25.1449 21.3805C25.1439 21.2122 25.0907 21.0484 24.9925 20.9117L23.393 18.6848C23.0736 18.2403 23.2773 17.6135 23.797 17.4415L26.4001 16.58C26.5599 16.5271 26.6992 16.4259 26.7989 16.2903L28.4225 14.0808C28.7464 13.6397 29.4054 13.6397 29.7296 14.0808Z" fill="#E2E5E9"/>
<path d="M28.6604 20.3608C27.4951 19.291 26.9693 17.7173 26.8702 16.1792L26.7891 16.2896C26.6894 16.4253 26.5501 16.5265 26.3902 16.5794L23.7872 17.4408C23.2675 17.6128 23.0639 18.2396 23.3832 18.6842L24.9827 20.9111C25.0809 21.0478 25.1341 21.2116 25.135 21.3799L25.1499 24.1218C25.1528 24.6692 25.686 25.0565 26.2075 24.8901L28.8197 24.057C28.98 24.0058 29.1524 24.0058 29.3127 24.057L31.9249 24.8901C32.4464 25.0564 32.9796 24.6691 32.9826 24.1218L32.9932 22.161C31.3334 22.1571 29.8598 21.4618 28.6604 20.3608Z" fill="#E2E5E9"/>
</svg>
