<svg width="44" height="44" viewBox="0 0 44 44" fill="none" xmlns="http://www.w3.org/2000/svg">
<path d="M44 22.592C44 28.3032 41.8837 33.5195 38.3936 37.4973C34.259 42.2097 28.1962 44 21.4396 44C8.97986 44 0 34.6688 0 22.1916C0 12.7003 4.72391 4.97648 13.0057 1.63157C15.6112 0.579237 18.4578 0 21.4396 0C33.8994 0 44 10.1147 44 22.592Z" fill="#F1D333"/>
<rect x="12.375" y="30.2471" width="19.25" height="2.0625" rx="1.03125" fill="#783C28"/>
<path d="M16.4666 20.9338C17.5624 20.9338 18.4507 19.6328 18.4507 18.0279C18.4507 16.4231 17.5624 15.1221 16.4666 15.1221C15.3708 15.1221 14.4824 16.4231 14.4824 18.0279C14.4824 19.6328 15.3708 20.9338 16.4666 20.9338Z" fill="#783C28"/>
<path d="M27.6052 20.9338C28.7011 20.9338 29.5894 19.6328 29.5894 18.0279C29.5894 16.4231 28.7011 15.1221 27.6052 15.1221C26.5094 15.1221 25.6211 16.4231 25.6211 18.0279C25.6211 19.6328 26.5094 20.9338 27.6052 20.9338Z" fill="#783C28"/>
</svg>
