<svg width="44" height="44" viewBox="0 0 44 44" fill="none" xmlns="http://www.w3.org/2000/svg">
<path d="M44 22.592C44 28.3032 41.8837 33.5195 38.3936 37.4973C34.259 42.2097 28.1962 44 21.4396 44C8.97986 44 0 34.6688 0 22.1916C0 12.7003 4.72391 4.97648 13.0057 1.63157C15.6112 0.579237 18.4578 0 21.4396 0C33.8994 0 44 10.1147 44 22.592Z" fill="#C1C8D1"/>
<path d="M14.6075 25.4354C13.4588 25.4354 12.3104 24.9977 11.4359 24.122C11.188 23.8737 11.188 23.4714 11.4359 23.2232C11.6838 22.9751 12.0856 22.9751 12.3334 23.2232C13.5872 24.4789 15.6276 24.4789 16.8817 23.2232C17.1296 22.975 17.5314 22.9751 17.7792 23.2233C18.0269 23.4715 18.027 23.8739 17.7791 24.122C16.9048 24.9975 15.756 25.4354 14.6075 25.4354Z" fill="#6D7D92"/>
<path d="M9.2592 22.4895C9.16951 22.4895 9.07871 22.4657 8.99655 22.4158C8.75674 22.2702 8.68025 21.9575 8.82554 21.7175C10.9537 18.2023 14.4262 18.5379 14.5733 18.5541C14.852 18.5845 15.0533 18.8354 15.0229 19.1146C14.9927 19.3931 14.7418 19.594 14.465 19.5651C14.3427 19.553 11.4776 19.2983 9.6938 22.2445C9.59835 22.4023 9.43081 22.4895 9.2592 22.4895Z" fill="#A7B1BE"/>
<path d="M24.8472 33.5929C24.7222 33.5929 24.5955 33.5637 24.477 33.502C22.1989 32.3155 19.9843 32.3155 17.7062 33.502C17.3124 33.7067 16.827 33.5537 16.6221 33.1591C16.4172 32.7648 16.5706 32.2786 16.9645 32.0735C19.7029 30.6474 22.4802 30.6474 25.2187 32.0735C25.6126 32.2786 25.7659 32.7647 25.561 33.1591C25.4179 33.4349 25.1375 33.5929 24.8472 33.5929Z" fill="#6D7D92"/>
<path d="M35.5914 16.8312C34.6876 17.1587 34.2204 18.1569 34.548 19.0607L36.1062 23.3601L40.5654 25.4469L37.821 17.8745C37.4935 16.9708 36.4953 16.5037 35.5914 16.8312Z" fill="#8A97A8"/>
<path d="M29.5438 15.5356C29.3865 15.6893 28.4831 15.8702 28.4111 16.0634C28.2222 16.5706 28.3278 17.1637 28.7311 17.5766L36.4508 25.4799L38.2765 23.6966L29.5438 15.5356Z" fill="#8A97A8"/>
<path d="M25.1708 19.2039L33.5387 26.4175L35.4234 24.2312L27.0555 17.0176C26.4518 16.4972 25.5405 16.5647 25.0201 17.1684C24.4996 17.7721 24.5671 18.6834 25.1708 19.2039Z" fill="#8A97A8"/>
<path d="M26.2624 18.0518C25.8154 17.6664 25.2 17.6043 24.6992 17.8426C24.7448 17.6017 24.8512 17.369 25.0228 17.1699C25.5433 16.5661 26.4546 16.4986 27.0583 17.0191L35.4261 24.2327L34.576 25.2187L26.2624 18.0518Z" fill="#8A97A8"/>
<path d="M23.5552 22.4475L32.3558 29.1263L34.1008 26.8269L25.3002 20.1482C24.6653 19.6663 23.7599 19.7904 23.2781 20.4254C22.7961 21.0603 22.9203 21.9657 23.5552 22.4475Z" fill="#8A97A8"/>
<path d="M33.2547 27.8632L24.4541 21.1844C24.0265 20.8599 23.4766 20.8113 23.0156 21.0075C23.0577 20.803 23.1434 20.6042 23.278 20.4268C23.7599 19.7919 24.6652 19.6677 25.3001 20.1496L34.1007 26.8284L32.3557 29.1277L32.3172 29.0984L33.2547 27.8632Z" fill="#8A97A8"/>
<path d="M38.9848 24.1146L34.3349 19.709L28.4823 26.4981L24.5368 23.8216C23.8771 23.3741 22.9797 23.5462 22.5322 24.2058C22.0847 24.8654 22.2568 25.7629 22.9164 26.2103L31.5844 32.5028C33.9868 34.5739 37.0687 34.3138 39.1397 31.9115L39.3912 31.5785C41.4622 29.1761 41.3872 26.1856 38.9848 24.1146Z" fill="#8A97A8"/>
<path d="M27.8171 27.46L23.6289 24.619C23.2553 24.3656 22.8055 24.3112 22.4043 24.4312C22.4387 24.3536 22.4792 24.2776 22.5286 24.205C22.9761 23.5453 23.8735 23.3733 24.5332 23.8208L28.4787 26.4973L27.8171 27.46Z" fill="#8A97A8"/>
<path d="M37.6281 24.3255L29.9084 16.4222C29.5083 16.0127 28.9247 15.8934 28.416 16.0642C28.488 15.8709 28.6012 15.6895 28.7585 15.5358C29.3287 14.9788 30.2424 14.9896 30.7994 15.5598L38.5192 23.4631L37.6281 24.3255Z" fill="#8A97A8"/>
<path d="M36.078 30.8913C38.347 28.675 38.3898 25.0389 36.1734 22.7698L33.7968 20.3366L34.3366 19.7104L39.5413 24.1973C41.9437 26.2684 42.2123 29.8948 40.1413 32.2971C38.0702 34.6995 34.4438 34.9681 32.0415 32.8971L31.5859 32.5043C33.1883 32.6379 34.8374 32.1031 36.078 30.8913Z" fill="#8A97A8"/>
</svg>
