<svg width="44" height="44" viewBox="0 0 44 44" fill="none" xmlns="http://www.w3.org/2000/svg">
<path d="M44 22.592C44 28.3032 41.8837 33.5195 38.3936 37.4973C34.259 42.2097 28.1962 44 21.4396 44C8.97986 44 0 34.6688 0 22.1916C0 12.7003 4.72391 4.97648 13.0057 1.63157C15.6112 0.579237 18.4578 0 21.4396 0C33.8994 0 44 10.1147 44 22.592Z" fill="#F1D333"/>
<path d="M14.6095 25.4359C13.4607 25.4359 12.3124 24.9982 11.4378 24.1225C11.19 23.8742 11.19 23.4719 11.4378 23.2237C11.6858 22.9756 12.0875 22.9756 12.3354 23.2237C13.5892 24.4794 15.6295 24.4794 16.8837 23.2237C17.1315 22.9755 17.5334 22.9756 17.7811 23.2238C18.0289 23.472 18.029 23.8744 17.781 24.1225C16.9068 24.998 15.7579 25.4359 14.6095 25.4359Z" fill="#783C28"/>
<path d="M9.25725 22.489C9.16756 22.489 9.07676 22.4652 8.9946 22.4153C8.75479 22.2697 8.6783 21.957 8.82358 21.717C10.9517 18.2018 14.4243 18.5374 14.5713 18.5536C14.8501 18.584 15.0514 18.8349 15.021 19.1141C14.9907 19.3926 14.7398 19.5935 14.463 19.5646C14.3407 19.5525 11.4757 19.2978 9.69185 22.244C9.5964 22.4018 9.42886 22.489 9.25725 22.489Z" fill="#EAB14D"/>
<path d="M24.8452 33.5924C24.7203 33.5924 24.5935 33.5632 24.475 33.5015C22.197 32.315 19.9823 32.315 17.7043 33.5015C17.3104 33.7062 16.8251 33.5532 16.6201 33.1587C16.4153 32.7643 16.5686 32.2782 16.9625 32.073C19.701 30.6469 22.4782 30.6469 25.2167 32.073C25.6106 32.2782 25.7639 32.7642 25.5591 33.1587C25.4159 33.4344 25.1356 33.5924 24.8452 33.5924Z" fill="#783C28"/>
<path d="M35.5895 16.8312C34.6857 17.1587 34.2185 18.1569 34.546 19.0607L36.1042 23.3601L40.5634 25.4469L37.819 17.8745C37.4916 16.9708 36.4934 16.5037 35.5895 16.8312Z" fill="#C3724F"/>
<path d="M29.5418 15.5352C29.3846 15.6888 28.4811 15.8697 28.4091 16.0629C28.2202 16.5702 28.3258 17.1632 28.7291 17.5761L36.4489 25.4794L38.2745 23.6962L29.5418 15.5352Z" fill="#E7A52E"/>
<path d="M25.1708 19.2034L33.5387 26.417L35.4234 24.2307L27.0555 17.0171C26.4518 16.4967 25.5405 16.5642 25.0201 17.1679C24.4996 17.7716 24.5671 18.6829 25.1708 19.2034Z" fill="#E7A52E"/>
<path d="M26.2585 18.0513C25.8115 17.6659 25.1961 17.6038 24.6953 17.8421C24.7409 17.6012 24.8473 17.3685 25.0189 17.1694C25.5394 16.5656 26.4507 16.4982 27.0544 17.0186L35.4221 24.2322L34.5721 25.2182L26.2585 18.0513Z" fill="#C3724F"/>
<path d="M23.5552 22.448L32.3558 29.1267L34.1008 26.8274L25.3002 20.1487C24.6653 19.6668 23.7599 19.7909 23.2781 20.4259C22.7961 21.0608 22.9203 21.9662 23.5552 22.448Z" fill="#E7A52E"/>
<path d="M33.2547 27.8627L24.4541 21.1839C24.0265 20.8594 23.4766 20.8108 23.0156 21.007C23.0577 20.8025 23.1434 20.6037 23.278 20.4263C23.7599 19.7914 24.6652 19.6672 25.3001 20.1491L34.1007 26.8279L32.3557 29.1272L32.3172 29.0979L33.2547 27.8627Z" fill="#C3724F"/>
<path d="M38.9829 24.1141L34.333 19.7085L28.4804 26.4976L24.5348 23.8212C23.8752 23.3736 22.9777 23.5457 22.5303 24.2053C22.0828 24.8649 22.2548 25.7624 22.9144 26.2098L31.5824 32.5023C33.9848 34.5734 37.0667 34.3133 39.1378 31.911L39.3893 31.5781C41.4602 29.1757 41.3853 26.1852 38.9829 24.1141Z" fill="#E7A52E"/>
<path d="M27.819 27.4605L23.6309 24.6195C23.2573 24.3661 22.8075 24.3117 22.4062 24.4317C22.4407 24.3541 22.4812 24.2781 22.5306 24.2055C22.978 23.5458 23.8755 23.3738 24.5351 23.8213L28.4807 26.4978L27.819 27.4605Z" fill="#C3724F"/>
<path d="M37.6242 24.3255L29.9045 16.4222C29.5044 16.0127 28.9208 15.8934 28.4121 16.0642C28.4841 15.8709 28.5972 15.6895 28.7546 15.5358C29.3248 14.9788 30.2385 14.9896 30.7955 15.5598L38.5153 23.4631L37.6242 24.3255Z" fill="#C3724F"/>
<path d="M36.0741 30.8898C38.3431 28.6735 38.3859 25.0375 36.1695 22.7684L33.7929 20.3351L34.3326 19.709L39.5374 24.1959C41.9398 26.2669 42.2084 29.8933 40.1374 32.2956C38.0663 34.698 34.4399 34.9667 32.0376 32.8956L31.582 32.5028C33.1844 32.6364 34.8335 32.1016 36.0741 30.8898Z" fill="#C3724F"/>
</svg>
