<svg width="694" height="222" viewBox="0 0 694 222" fill="none" xmlns="http://www.w3.org/2000/svg">
<g clip-path="url(#clip0_5009_60608)">
<mask id="mask0_5009_60608" style="mask-type:alpha" maskUnits="userSpaceOnUse" x="0" y="0" width="694" height="222">
<path d="M0 0H694V210C694 216.627 688.627 222 682 222H12C5.37259 222 0 216.627 0 210V0Z" fill="url(#paint0_linear_5009_60608)"/>
</mask>
<g mask="url(#mask0_5009_60608)">
<path d="M-0.5 54H693.5V210C693.5 216.627 688.127 222 681.5 222H11.5C4.87259 222 -0.5 216.627 -0.5 210V54Z" fill="url(#paint1_linear_5009_60608)"/>
<path d="M310.593 223.196C298.407 209.942 276.767 205.689 258.937 203.431C248.32 202.346 235.54 204.615 229.752 198.926C223.964 193.237 222.841 189.888 213.254 191.691C203.667 193.493 144.993 213.114 126.421 246.667C211.16 237.638 310.593 223.196 310.593 223.196Z" fill="url(#paint2_linear_5009_60608)"/>
<path d="M150.938 190.937C150.938 190.937 150.156 194.221 151.513 195.362C152.869 196.503 154.513 193.506 155.582 191.651C160.44 196.93 159.23 192.866 158.796 190.937C160.46 192.599 161.135 193.032 164.362 193.606C160.433 186.765 158.763 182.847 155.415 184.302C153.45 185.163 149.441 188.08 144.964 194.201C146.554 194.16 149.127 192.045 150.938 190.937Z" fill="url(#paint3_linear_5009_60608)"/>
<path d="M130.903 226.152C165.65 223.295 268.269 220.5 268.269 220.5C176.667 220.5 173.468 208.117 167.274 198.392C166.171 196.656 165.209 195.055 164.36 193.553C161.133 193.012 160.458 192.578 158.794 190.883C159.229 192.812 160.438 196.89 155.58 191.597C154.511 193.453 152.867 196.45 151.511 195.308C150.154 194.167 150.936 190.883 150.936 190.883C149.125 192.011 146.553 194.127 144.962 194.113C140.178 200.701 134.846 210.907 130.903 226.152Z" fill="url(#paint4_linear_5009_60608)"/>
<path d="M130.903 226.152C165.65 223.295 268.269 220.5 268.269 220.5C176.667 220.5 173.468 208.117 167.274 198.392C166.171 196.656 165.209 195.055 164.36 193.553C161.133 193.012 160.458 192.578 158.794 190.883C159.229 192.812 160.438 196.89 155.58 191.597C154.511 193.453 152.867 196.45 151.511 195.308C150.154 194.167 150.936 190.883 150.936 190.883C149.125 192.011 146.553 194.127 144.962 194.113C140.178 200.701 134.846 210.907 130.903 226.152Z" fill="url(#paint5_linear_5009_60608)"/>
<path d="M125.671 215.465C126.028 219.08 126.322 222.214 127.144 222.973C125.671 224.018 123.145 222.787 123.145 222.787C123.789 221.076 124.556 220.411 124.439 215.558C124.323 210.705 125.671 215.465 125.671 215.465Z" fill="#CBCAE0"/>
<path d="M119.67 201.123C120.732 200.837 121.22 199.157 121.677 199.243C122.134 199.328 120.809 200.651 121.84 201.425C122.87 202.199 123.475 199.924 124.056 199.8C124.637 199.676 124.056 201.681 125.055 202.47C126.055 203.26 125.907 201.007 126.489 200.512C127.07 200.017 127.364 203.685 128.712 203.561C130.061 203.438 128.123 200.93 128.712 200.551C128.937 200.396 129.394 200.713 129.944 201.162C129.797 200.798 129.642 200.388 129.495 200.001C128.557 197.315 127.566 194.459 123.575 196.967C122.018 198.089 120.693 199.5 119.67 201.123Z" fill="url(#paint6_linear_5009_60608)"/>
<path d="M117.305 214.505C119.443 216.564 127.78 216.703 127.78 216.703C132.53 216.773 135.49 213.747 133.491 208.863C131.802 204.73 130.81 203.159 129.95 201.123C129.4 200.674 128.943 200.349 128.718 200.512C128.129 200.891 130.058 203.399 128.718 203.523C127.377 203.647 127.083 199.978 126.494 200.473C125.905 200.969 126.068 203.229 125.061 202.431C124.053 201.634 124.65 199.63 124.061 199.761C123.472 199.893 122.883 202.199 121.837 201.425C120.791 200.651 122.163 199.351 121.675 199.25C121.187 199.15 120.729 200.845 119.668 201.131C116.7 205.481 114.477 211.719 117.305 214.505Z" fill="url(#paint7_linear_5009_60608)"/>
<path d="M117.305 214.505C119.443 216.564 127.78 216.703 127.78 216.703C132.53 216.773 135.49 213.747 133.491 208.863C131.802 204.73 130.81 203.159 129.95 201.123C129.4 200.674 128.943 200.349 128.718 200.512C128.129 200.891 130.058 203.399 128.718 203.523C127.377 203.647 127.083 199.978 126.494 200.473C125.905 200.969 126.068 203.229 125.061 202.431C124.053 201.634 124.65 199.63 124.061 199.761C123.472 199.893 122.883 202.199 121.837 201.425C120.791 200.651 122.163 199.351 121.675 199.25C121.187 199.15 120.729 200.845 119.668 201.131C116.7 205.481 114.477 211.719 117.305 214.505Z" fill="url(#paint8_linear_5009_60608)"/>
<path d="M585.006 228.859C573.957 219.499 553.911 216.886 537.367 215.638C527.51 215.084 515.566 217.013 510.305 213.008C505.044 209.003 504.073 206.595 495.11 208.115C486.148 209.636 431.11 225.181 413.085 249.964C492.148 241.539 585.006 228.859 585.006 228.859Z" fill="url(#paint9_linear_5009_60608)"/>
<path d="M536.234 190.736C536.234 190.736 537.016 194.02 535.659 195.162C534.303 196.303 532.659 193.306 531.59 191.451C526.732 196.73 527.941 192.665 528.376 190.736C526.712 192.398 526.037 192.832 522.81 193.406C526.739 186.565 528.409 182.647 531.757 184.102C533.721 184.963 537.731 187.88 542.208 194C540.617 193.96 538.045 191.844 536.234 190.736Z" fill="url(#paint10_linear_5009_60608)"/>
<path d="M556.269 225.952C521.522 223.095 418.903 220.299 418.903 220.299C510.505 220.299 513.704 207.917 519.898 198.192C521.001 196.456 521.963 194.854 522.811 193.352C526.039 192.812 526.714 192.378 528.378 190.683C527.943 192.612 526.734 196.69 531.592 191.397C532.661 193.252 534.305 196.249 535.661 195.108C537.018 193.967 536.236 190.683 536.236 190.683C538.047 191.811 540.619 193.927 542.21 193.913C546.994 200.501 552.326 210.707 556.269 225.952Z" fill="url(#paint11_linear_5009_60608)"/>
<path d="M556.269 225.952C521.522 223.095 418.903 220.299 418.903 220.299C510.505 220.299 513.704 207.917 519.898 198.192C521.001 196.456 521.963 194.854 522.811 193.352C526.039 192.812 526.714 192.378 528.378 190.683C527.943 192.612 526.734 196.69 531.592 191.397C532.661 193.252 534.305 196.249 535.661 195.108C537.018 193.967 536.236 190.683 536.236 190.683C538.047 191.811 540.619 193.927 542.21 193.913C546.994 200.501 552.326 210.707 556.269 225.952Z" fill="url(#paint12_linear_5009_60608)"/>
<path d="M-24.5985 147.842C-14.4884 146.719 2.54928 147.266 14.0846 150.748C25.6199 154.23 33.4842 151.914 32.382 149.005C31.2797 146.097 25.1091 143.611 13.5376 143.226C10.5165 143.182 5.38074 144.163 5.88724 140.83C6.19128 139.275 14.4035 141.024 13.918 136.992C13.4326 132.96 4.75438 130.963 -2.94836 131.285C-10.6511 131.607 -19.5919 133.181 -18.0634 136.13C-16.535 139.078 -10.0593 136.754 -11.7176 139.925C-13.3759 143.097 -30.3146 139.687 -28.2111 146.238C-27.7739 147.974 -24.5985 147.842 -24.5985 147.842Z" fill="url(#paint13_linear_5009_60608)"/>
<path d="M-24.5985 147.842C-14.4884 146.719 2.54928 147.266 14.0846 150.748C25.6199 154.23 33.4842 151.914 32.382 149.005C31.2797 146.097 25.1091 143.611 13.5376 143.226C10.5165 143.182 5.38074 144.163 5.88724 140.83C6.19128 139.275 14.4035 141.024 13.918 136.992C13.4326 132.96 4.75438 130.963 -2.94836 131.285C-10.6511 131.607 -19.5919 133.181 -18.0634 136.13C-16.535 139.078 -10.0593 136.754 -11.7176 139.925C-13.3759 143.097 -30.3146 139.687 -28.2111 146.238C-27.7739 147.974 -24.5985 147.842 -24.5985 147.842Z" fill="url(#paint14_linear_5009_60608)"/>
<path d="M76.4681 221.15C78.7502 221.15 80.6003 218.378 80.6003 214.96C80.6003 211.542 78.7502 208.771 76.4681 208.771C74.186 208.771 72.3359 211.542 72.3359 214.96C72.3359 218.378 74.186 221.15 76.4681 221.15Z" fill="#FF9C61"/>
<path d="M51.9798 221.105C54.2619 221.105 56.112 218.334 56.112 214.915C56.112 211.497 54.2619 208.726 51.9798 208.726C49.6977 208.726 47.8477 211.497 47.8477 214.915C47.8477 218.334 49.6977 221.105 51.9798 221.105Z" fill="#FF9C61"/>
<path d="M66.0419 168.441C56.0219 168.386 34.5824 167.964 33.1903 169.813C24.6101 169.373 8.58467 168.599 3.67383 169.211C6.61225 167.01 31.4824 166.155 39.0415 166.247C45.5133 166.636 59.8161 166.973 66.0419 168.441Z" fill="#FFE2AB"/>
<path d="M57.0176 215.492V215.525C15.6555 215.525 2.22325 215.158 2.22325 215.158C-0.700488 189.721 -1.14493 178.087 3.36189 169.487C3.45428 169.382 3.55914 169.29 3.6741 169.211C8.59596 168.599 22.2743 168.206 33.2016 169.82C29.2751 178.2 33.9325 215.404 57.0176 215.492Z" fill="url(#paint15_linear_5009_60608)"/>
<g opacity="0.69">
<path d="M15.4217 199.357C21.6811 199.209 26.6333 193.954 26.4827 187.62C26.3322 181.286 21.1359 176.272 14.8766 176.421C8.61719 176.569 3.665 181.824 3.81554 188.158C3.96608 194.492 9.16234 199.506 15.4217 199.357Z" fill="url(#paint16_linear_5009_60608)"/>
<path d="M12.0415 176.847C9.55887 177.594 7.95644 178.754 6.54498 180.476C6.50158 180.482 6.47901 180.483 6.47901 180.483L5.20818 182.315C5.20818 182.315 1.05713 189.35 7.07276 195.936L23.1682 179.777C20.3019 176.88 15.9721 175.662 12.0432 176.845L12.0415 176.847Z" fill="url(#paint17_linear_5009_60608)"/>
<path d="M21.0969 191.679C18.9285 194.964 14.5032 195.869 11.215 193.701C7.92851 191.533 7.02226 187.113 9.1924 183.83C11.3608 180.546 15.7861 179.64 19.0761 181.808C22.3625 183.974 23.2688 188.395 21.0986 191.679H21.0969Z" fill="url(#paint18_linear_5009_60608)"/>
<g style="mix-blend-mode:screen">
<path d="M20.8958 183.749L10.9549 193.714L10.375 193.566L20.4514 183.501L20.8958 183.749Z" fill="#E6E8E2"/>
</g>
<g style="mix-blend-mode:multiply">
<path d="M20.8989 183.748L11.069 193.602L10.0117 193.005L20.0707 182.923L20.8989 183.748Z" fill="#E6E8E2"/>
</g>
<path d="M19.0978 194.149C16.6135 195.681 13.4347 195.632 10.9989 194.026C7.53708 191.742 6.58049 187.072 8.86521 183.614C9.47285 182.694 10.2558 181.934 11.1899 181.358C13.6742 179.827 16.853 179.877 19.2888 181.481C20.9659 182.586 22.11 184.279 22.5128 186.245C22.9155 188.212 22.5284 190.216 21.4208 191.892C20.8131 192.812 20.0301 193.572 19.0961 194.146L19.0978 194.149ZM11.5996 182.024C10.7628 182.539 10.0631 183.219 9.51625 184.046C7.46764 187.145 8.32702 191.331 11.4294 193.378C13.6117 194.817 16.4624 194.859 18.6881 193.487C19.5249 192.972 20.2246 192.292 20.7715 191.465C21.7628 189.963 22.1117 188.167 21.7506 186.405C21.3895 184.643 20.3635 183.125 18.86 182.135C16.676 180.696 13.827 180.652 11.5996 182.024Z" fill="url(#paint19_linear_5009_60608)"/>
</g>
<path d="M72.47 215.525C67.2323 215.525 62.6079 215.525 58.5382 215.492C39.0711 215.404 32.3568 215.169 32.3568 215.169C30.2191 189.89 29.8959 178.347 33.1943 169.821C34.366 167.939 42.7809 167.047 51.2215 167.102C59.3646 167.15 67.5335 168.071 69.2194 169.821C71.9742 174.678 72.6794 193.192 72.47 215.525Z" fill="url(#paint20_linear_5009_60608)"/>
<path d="M69.9534 182.406C58.9343 180.978 39.7611 182.406 35.7942 185.157C34.0495 186.786 31.8493 198.439 34.2515 215.525C67.6357 215.47 68.5503 215.525 68.5503 215.525L69.9534 182.406Z" fill="url(#paint21_linear_5009_60608)"/>
<path d="M81.7695 193.896C84.4986 193.999 86.2653 194.825 86.2323 197.411C86.1992 199.998 83.3967 200.347 83.3967 200.347L81.7695 193.896Z" fill="#FF7F33"/>
<path d="M51.5652 215.169C52.5679 213.107 54.0996 206.044 46.7315 200.156C45.67 199.451 45.0235 191.383 45.3761 188.147C45.7287 184.911 46.6176 183.011 54.1914 182.218C61.7652 181.426 68.7623 181.484 73.743 182.952C78.7236 184.419 80.505 187.189 83.8879 198.798C86.7198 199.877 90.7748 205.215 87.5609 214.123C71.5832 214.127 51.5652 215.169 51.5652 215.169Z" fill="url(#paint22_linear_5009_60608)"/>
<path d="M46.7354 200.156C45.6739 199.451 45.0274 191.383 45.38 188.147C45.7326 184.911 46.6215 183.011 54.1953 182.218C61.7691 181.426 68.7662 181.484 73.7469 182.952C78.7275 184.419 80.5089 187.189 83.8918 198.798C80.1943 199.61 56.2695 201.38 46.7354 200.156Z" fill="url(#paint23_radial_5009_60608)"/>
<path d="M35.8809 189.43C35.8809 189.43 36.2151 198.336 35.8809 200.489C38.1692 200.823 42.4042 200.801 42.4042 200.801C43.3555 194.417 43.3114 189.648 41.9303 188.65C40.5493 187.652 35.8809 189.43 35.8809 189.43Z" fill="url(#paint24_linear_5009_60608)"/>
<path d="M50.0682 214.215H3.98784C3.25458 214.215 2.66016 214.809 2.66016 215.543C2.66016 216.276 3.25458 216.87 3.98784 216.87H50.0682C50.8014 216.87 51.3959 216.276 51.3959 215.543C51.3959 214.809 50.8014 214.215 50.0682 214.215Z" fill="url(#paint25_linear_5009_60608)"/>
<path d="M87.2839 214.215H50.9507C50.2175 214.215 49.623 214.809 49.623 215.543C49.623 216.276 50.2175 216.87 50.9507 216.87H87.2839C88.0172 216.87 88.6116 216.276 88.6116 215.543C88.6116 214.809 88.0172 214.215 87.2839 214.215Z" fill="url(#paint26_linear_5009_60608)"/>
<path d="M63.4609 205.776C63.7376 207.213 63.8486 208.677 63.7915 210.139H80.2798C80.4781 207.893 80.1659 206.569 79.7692 205.776C74.9281 205.644 63.4609 205.776 63.4609 205.776Z" fill="#FFC6A5"/>
<path d="M79.0456 206.79H64.3535V207.087H79.0456V206.79Z" fill="#FEB03E"/>
<path d="M79.4109 207.779H64.7188V208.076H79.4109V207.779Z" fill="#FEB03E"/>
<path d="M79.4109 208.771H64.7188V209.277H79.4109V208.771Z" fill="#FEB03E"/>
<path d="M87.6156 209.582C88.6562 208.443 88.319 206.443 86.8624 205.116C85.4059 203.788 83.3817 203.635 82.3411 204.774C81.3006 205.914 81.6378 207.913 83.0943 209.241C84.5508 210.568 86.5751 210.721 87.6156 209.582Z" fill="url(#paint27_linear_5009_60608)"/>
<path d="M86.3141 204.688L83.0524 209.208C82.4765 208.682 82.0592 208.006 81.8477 207.256L84.2021 204.009C84.9575 204.023 85.692 204.259 86.3141 204.688Z" fill="url(#paint28_linear_5009_60608)"/>
<path d="M88.0503 206.943L85.6004 210.34C84.8515 210.299 84.1301 210.045 83.5215 209.607L86.8015 205.079L86.8566 205.127C87.4078 205.616 87.8197 206.243 88.0503 206.943Z" fill="url(#paint29_linear_5009_60608)"/>
<path d="M61.7856 210.108C62.8261 208.969 62.4889 206.97 61.0324 205.642C59.5758 204.315 57.5516 204.162 56.511 205.301C55.4705 206.44 55.8077 208.439 57.2642 209.767C58.7207 211.095 60.745 211.247 61.7856 210.108Z" fill="url(#paint30_linear_5009_60608)"/>
<path d="M60.4918 205.215L57.2301 209.735C56.6542 209.209 56.2369 208.533 56.0254 207.783L58.3798 204.536C59.1352 204.55 59.8697 204.786 60.4918 205.215Z" fill="url(#paint31_linear_5009_60608)"/>
<path d="M62.23 207.471L59.7801 210.869C59.0312 210.828 58.3098 210.573 57.7012 210.135L60.9702 205.593L61.0253 205.64C61.5827 206.133 61.9986 206.765 62.23 207.471Z" fill="url(#paint32_linear_5009_60608)"/>
<path d="M50.9394 200.015C59.1523 199.814 70.726 199.355 81.3301 199.711C77.6166 191.474 77.9362 185.769 69.2091 184.808C60.4819 183.846 50.3921 185.431 49.9146 187.945C49.4371 190.458 49.5032 196.189 50.9394 200.015Z" fill="url(#paint33_linear_5009_60608)"/>
<path d="M75.52 187.384L66.679 199.627L64.0234 199.675L73.8304 186.133C74.4476 186.472 75.016 186.893 75.52 187.384Z" fill="url(#paint34_linear_5009_60608)"/>
<path d="M71.0106 185.106L60.4323 199.76L54.8933 199.911H50.9007C50.3272 198.249 49.9572 196.524 49.7988 194.774L57.8795 184.868C61.6267 184.429 65.4112 184.408 69.1631 184.805C69.784 184.872 70.4007 184.972 71.0106 185.106Z" fill="url(#paint35_linear_5009_60608)"/>
<path d="M77.2298 189.68L70.0784 199.587C69.1932 199.587 68.3117 199.587 67.4375 199.616L75.9626 187.85C76.4511 188.412 76.876 189.025 77.2298 189.68Z" fill="url(#paint36_linear_5009_60608)"/>
<path d="M45.6381 195.184C45.8512 196.556 46.2497 198.642 46.0807 200.495C43.8769 200.686 42.0353 199.77 42.2153 197.32C42.3953 194.869 45.6381 195.184 45.6381 195.184Z" fill="#FF7F33"/>
<path d="M42.2122 222.019C44.4944 222.019 46.3444 219.248 46.3444 215.829C46.3444 212.411 44.4944 209.64 42.2122 209.64C39.9301 209.64 38.0801 212.411 38.0801 215.829C38.0801 219.248 39.9301 222.019 42.2122 222.019Z" fill="#FF9C61"/>
<path d="M41.2812 220.104C42.8107 220.104 44.0507 218.53 44.0507 216.589C44.0507 214.648 42.8107 213.074 41.2812 213.074C39.7517 213.074 38.5117 214.648 38.5117 216.589C38.5117 218.53 39.7517 220.104 41.2812 220.104Z" fill="#FFC6A5"/>
<path d="M18.7728 222.019C21.0549 222.019 22.905 219.248 22.905 215.829C22.905 212.411 21.0549 209.64 18.7728 209.64C16.4907 209.64 14.6406 212.411 14.6406 215.829C14.6406 219.248 16.4907 222.019 18.7728 222.019Z" fill="#FF9C61"/>
<path d="M17.8359 220.104C19.3654 220.104 20.6053 218.53 20.6053 216.589C20.6053 214.648 19.3654 213.074 17.8359 213.074C16.3063 213.074 15.0664 214.648 15.0664 216.589C15.0664 218.53 16.3063 220.104 17.8359 220.104Z" fill="#FFC6A5"/>
<path d="M599.5 187.635V225.178H618.653V177.848L599.5 187.635Z" fill="#FFE7B8"/>
<path d="M620.703 166.408V225.562H672.587V136.873L620.703 166.408Z" fill="#FFDFAF"/>
<path d="M672.59 136.873L698.002 146.748V225.562H672.59V136.873Z" fill="url(#paint37_linear_5009_60608)"/>
<path d="M623.711 168.738L670.255 142.195V225.563H623.711V168.738Z" fill="#FFC6A5"/>
<path d="M624.883 225.563V169.558L642.032 159.956V225.563H624.883Z" fill="url(#paint38_linear_5009_60608)"/>
<path d="M624.883 225.563V169.558L642.032 159.956V225.563H624.883Z" fill="url(#paint39_linear_5009_60608)"/>
<path d="M644.15 225.563V158.785L668.614 145.199V225.563H644.15Z" fill="url(#paint40_linear_5009_60608)"/>
<g opacity="0.34">
<path d="M668.61 152.974V166.108L647.723 198.731H644.152V191.252L668.61 152.974Z" fill="url(#paint41_linear_5009_60608)"/>
<path d="M668.609 169.235V182.348L658.121 198.732H649.764L668.609 169.235Z" fill="url(#paint42_linear_5009_60608)"/>
<path d="M642.032 167.09V180.197L630.166 198.732H624.883V193.928L642.032 167.09Z" fill="url(#paint43_linear_5009_60608)"/>
<path d="M636.861 162.854L624.883 181.517V177.21L632.492 165.301L636.861 162.854Z" fill="url(#paint44_linear_5009_60608)"/>
<path d="M667.494 145.818L644.152 182.286V158.78L649.095 156.039L649.101 156.033L651.728 154.573L667.494 145.818Z" fill="url(#paint45_linear_5009_60608)"/>
</g>
<path d="M302.671 214.465C303.028 218.08 303.322 221.214 304.144 221.973C302.671 223.018 300.145 221.787 300.145 221.787C300.789 220.076 301.556 219.411 301.439 214.558C301.323 209.705 302.671 214.465 302.671 214.465Z" fill="#CBCAE0"/>
<path d="M296.67 200.123C297.732 199.837 298.22 198.157 298.677 198.243C299.134 198.328 297.809 199.651 298.84 200.425C299.87 201.199 300.475 198.924 301.056 198.8C301.637 198.676 301.056 200.681 302.055 201.47C303.055 202.26 302.907 200.007 303.489 199.512C304.07 199.017 304.364 202.685 305.712 202.561C307.061 202.438 305.123 199.93 305.712 199.551C305.937 199.396 306.394 199.713 306.944 200.162C306.797 199.798 306.642 199.388 306.495 199.001C305.557 196.315 304.566 193.459 300.575 195.967C299.018 197.089 297.693 198.5 296.67 200.123Z" fill="url(#paint46_linear_5009_60608)"/>
<path d="M294.305 213.505C296.443 215.564 304.78 215.703 304.78 215.703C309.53 215.773 312.49 212.747 310.491 207.863C308.802 203.73 307.81 202.159 306.95 200.123C306.4 199.674 305.943 199.349 305.718 199.512C305.129 199.891 307.058 202.399 305.718 202.523C304.377 202.647 304.083 198.978 303.494 199.473C302.905 199.969 303.068 202.229 302.061 201.431C301.053 200.634 301.65 198.63 301.061 198.761C300.472 198.893 299.883 201.199 298.837 200.425C297.791 199.651 299.163 198.351 298.675 198.25C298.187 198.15 297.729 199.845 296.668 200.131C293.7 204.481 291.477 210.719 294.305 213.505Z" fill="url(#paint47_linear_5009_60608)"/>
<path d="M294.305 213.505C296.443 215.564 304.78 215.703 304.78 215.703C309.53 215.773 312.49 212.747 310.491 207.863C308.802 203.73 307.81 202.159 306.95 200.123C306.4 199.674 305.943 199.349 305.718 199.512C305.129 199.891 307.058 202.399 305.718 202.523C304.377 202.647 304.083 198.978 303.494 199.473C302.905 199.969 303.068 202.229 302.061 201.431C301.053 200.634 301.65 198.63 301.061 198.761C300.472 198.893 299.883 201.199 298.837 200.425C297.791 199.651 299.163 198.351 298.675 198.25C298.187 198.15 297.729 199.845 296.668 200.131C293.7 204.481 291.477 210.719 294.305 213.505Z" fill="url(#paint48_linear_5009_60608)"/>
<path d="M570.874 211.02C571.386 216.205 571.808 220.702 572.986 221.79C570.874 223.289 567.251 221.524 567.251 221.524C568.173 219.07 569.274 218.115 569.107 211.153C568.94 204.192 570.874 211.02 570.874 211.02Z" fill="#CBCAE0"/>
<path d="M562.265 190.445C563.788 190.035 564.488 187.625 565.144 187.747C565.8 187.87 563.899 189.768 565.377 190.878C566.856 191.989 567.723 188.725 568.556 188.547C569.39 188.369 568.556 191.245 569.99 192.377C571.424 193.51 571.213 190.279 572.046 189.568C572.88 188.858 573.302 194.121 575.237 193.943C577.171 193.765 574.392 190.168 575.237 189.624C575.559 189.402 576.215 189.857 577.004 190.501C576.793 189.979 576.57 189.391 576.359 188.836C575.014 184.983 573.591 180.886 567.867 184.483C565.634 186.093 563.732 188.117 562.265 190.445Z" fill="url(#paint49_linear_5009_60608)"/>
<path d="M558.872 209.642C561.939 212.596 573.9 212.796 573.9 212.796C580.713 212.895 584.959 208.554 582.092 201.548C579.668 195.619 578.246 193.365 577.012 190.445C576.223 189.801 575.567 189.335 575.245 189.568C574.4 190.112 577.167 193.709 575.245 193.887C573.322 194.065 572.899 188.802 572.054 189.512C571.21 190.223 571.443 193.465 569.998 192.321C568.553 191.178 569.409 188.302 568.564 188.491C567.719 188.68 566.875 191.988 565.374 190.878C563.873 189.768 565.841 187.902 565.141 187.758C564.44 187.614 563.785 190.045 562.262 190.456C558.005 196.696 554.814 205.645 558.872 209.642Z" fill="url(#paint50_linear_5009_60608)"/>
<path d="M558.872 209.642C561.939 212.596 573.9 212.796 573.9 212.796C580.713 212.895 584.959 208.554 582.092 201.548C579.668 195.619 578.246 193.365 577.012 190.445C576.223 189.801 575.567 189.335 575.245 189.568C574.4 190.112 577.167 193.709 575.245 193.887C573.322 194.065 572.899 188.802 572.054 189.512C571.21 190.223 571.443 193.465 569.998 192.321C568.553 191.178 569.409 188.302 568.564 188.491C567.719 188.68 566.875 191.988 565.374 190.878C563.873 189.768 565.841 187.902 565.141 187.758C564.44 187.614 563.785 190.045 562.262 190.456C558.005 196.696 554.814 205.645 558.872 209.642Z" fill="url(#paint51_linear_5009_60608)"/>
<path d="M327.874 211.02C328.386 216.205 328.808 220.702 329.986 221.79C327.874 223.289 324.251 221.524 324.251 221.524C325.173 219.07 326.274 218.115 326.107 211.153C325.94 204.192 327.874 211.02 327.874 211.02Z" fill="#CBCAE0"/>
<path d="M319.265 190.445C320.788 190.035 321.488 187.625 322.144 187.747C322.8 187.87 320.899 189.768 322.377 190.878C323.856 191.989 324.723 188.725 325.556 188.547C326.39 188.369 325.556 191.245 326.99 192.377C328.424 193.51 328.213 190.279 329.046 189.568C329.88 188.858 330.302 194.121 332.237 193.943C334.171 193.765 331.392 190.168 332.237 189.624C332.559 189.402 333.215 189.857 334.004 190.501C333.793 189.979 333.57 189.391 333.359 188.836C332.014 184.983 330.591 180.886 324.867 184.483C322.634 186.093 320.732 188.117 319.265 190.445Z" fill="url(#paint52_linear_5009_60608)"/>
<path d="M315.872 209.642C318.939 212.596 330.9 212.796 330.9 212.796C337.713 212.895 341.959 208.554 339.092 201.548C336.668 195.619 335.246 193.365 334.012 190.445C333.223 189.801 332.567 189.335 332.245 189.568C331.4 190.112 334.167 193.709 332.245 193.887C330.322 194.065 329.899 188.802 329.054 189.512C328.21 190.223 328.443 193.465 326.998 192.321C325.553 191.178 326.409 188.302 325.564 188.491C324.719 188.68 323.875 191.988 322.374 190.878C320.873 189.768 322.841 187.902 322.141 187.758C321.44 187.614 320.785 190.045 319.262 190.456C315.005 196.696 311.814 205.645 315.872 209.642Z" fill="url(#paint53_linear_5009_60608)"/>
<path d="M315.872 209.642C318.939 212.596 330.9 212.796 330.9 212.796C337.713 212.895 341.959 208.554 339.092 201.548C336.668 195.619 335.246 193.365 334.012 190.445C333.223 189.801 332.567 189.335 332.245 189.568C331.4 190.112 334.167 193.709 332.245 193.887C330.322 194.065 329.899 188.802 329.054 189.512C328.21 190.223 328.443 193.465 326.998 192.321C325.553 191.178 326.409 188.302 325.564 188.491C324.719 188.68 323.875 191.988 322.374 190.878C320.873 189.768 322.841 187.902 322.141 187.758C321.44 187.614 320.785 190.045 319.262 190.456C315.005 196.696 311.814 205.645 315.872 209.642Z" fill="url(#paint54_linear_5009_60608)"/>
</g>
</g>
<defs>
<linearGradient id="paint0_linear_5009_60608" x1="347.769" y1="111" x2="347.444" y2="222.001" gradientUnits="userSpaceOnUse">
<stop stop-color="#D9D9D9" stop-opacity="0"/>
<stop offset="1" stop-color="#D9D9D9"/>
</linearGradient>
<linearGradient id="paint1_linear_5009_60608" x1="-0.499997" y1="138" x2="694.53" y2="150.755" gradientUnits="userSpaceOnUse">
<stop stop-color="#FFEDCC"/>
<stop offset="0.388379" stop-color="#E7F3FB"/>
<stop offset="0.579647" stop-color="#E3EFF6"/>
<stop offset="0.911887" stop-color="#FEF0D5"/>
<stop offset="1" stop-color="#FFEDCE"/>
</linearGradient>
<linearGradient id="paint2_linear_5009_60608" x1="213.871" y1="191.516" x2="302.085" y2="213.303" gradientUnits="userSpaceOnUse">
<stop stop-color="#D1E6F8"/>
<stop offset="1" stop-color="#E1F2FF"/>
</linearGradient>
<linearGradient id="paint3_linear_5009_60608" x1="155.145" y1="170.5" x2="154.664" y2="195.614" gradientUnits="userSpaceOnUse">
<stop offset="0.641738" stop-color="#CAE7FF"/>
<stop offset="1" stop-color="#F2FBFF"/>
</linearGradient>
<linearGradient id="paint4_linear_5009_60608" x1="199.586" y1="190.883" x2="199.586" y2="226.152" gradientUnits="userSpaceOnUse">
<stop offset="0.641738" stop-color="#CBE9EF"/>
<stop offset="1" stop-color="#A4DCDF"/>
</linearGradient>
<linearGradient id="paint5_linear_5009_60608" x1="156.144" y1="222.5" x2="178.656" y2="208.978" gradientUnits="userSpaceOnUse">
<stop offset="0.120369" stop-color="#D0E6F8"/>
<stop offset="1" stop-color="#E0F0FA"/>
</linearGradient>
<linearGradient id="paint6_linear_5009_60608" x1="125.062" y1="187.207" x2="124.677" y2="203.561" gradientUnits="userSpaceOnUse">
<stop offset="0.641738" stop-color="#DAE9F5"/>
<stop offset="1" stop-color="#E7F8FF"/>
</linearGradient>
<linearGradient id="paint7_linear_5009_60608" x1="125.062" y1="199.246" x2="125.062" y2="216.705" gradientUnits="userSpaceOnUse">
<stop offset="0.641738" stop-color="#D3EFF1"/>
<stop offset="1" stop-color="#C8E8EE"/>
</linearGradient>
<linearGradient id="paint8_linear_5009_60608" x1="125.615" y1="209.5" x2="134.123" y2="207.997" gradientUnits="userSpaceOnUse">
<stop offset="0.120369" stop-color="#CFE6F8"/>
<stop offset="1" stop-color="#DAE9F5"/>
</linearGradient>
<linearGradient id="paint9_linear_5009_60608" x1="495.688" y1="207.975" x2="572.934" y2="234.562" gradientUnits="userSpaceOnUse">
<stop stop-color="#D1E6F8"/>
<stop offset="1" stop-color="#E1F2FF"/>
</linearGradient>
<linearGradient id="paint10_linear_5009_60608" x1="532.027" y1="170.3" x2="532.508" y2="195.414" gradientUnits="userSpaceOnUse">
<stop offset="0.641738" stop-color="#CAE7FF"/>
<stop offset="1" stop-color="#F2FBFF"/>
</linearGradient>
<linearGradient id="paint11_linear_5009_60608" x1="487.586" y1="190.683" x2="487.586" y2="225.952" gradientUnits="userSpaceOnUse">
<stop offset="0.641738" stop-color="#CBE9EF"/>
<stop offset="1" stop-color="#A4DCDF"/>
</linearGradient>
<linearGradient id="paint12_linear_5009_60608" x1="531.028" y1="222.299" x2="508.516" y2="208.777" gradientUnits="userSpaceOnUse">
<stop offset="0.120369" stop-color="#D0E6F8"/>
<stop offset="1" stop-color="#E0F0FA"/>
</linearGradient>
<linearGradient id="paint13_linear_5009_60608" x1="55.0477" y1="160.815" x2="-25.9754" y2="138.853" gradientUnits="userSpaceOnUse">
<stop stop-color="#B9D4FF"/>
<stop offset="1" stop-color="#B9D4FF" stop-opacity="0"/>
</linearGradient>
<linearGradient id="paint14_linear_5009_60608" x1="35.5741" y1="143" x2="-24.9927" y2="146.007" gradientUnits="userSpaceOnUse">
<stop offset="0.000303591" stop-color="#FFD1B9"/>
<stop offset="1" stop-color="#FCE7C0"/>
</linearGradient>
<linearGradient id="paint15_linear_5009_60608" x1="58.4829" y1="140.749" x2="27.5363" y2="231.207" gradientUnits="userSpaceOnUse">
<stop offset="0.310766" stop-color="#FFD68A"/>
<stop offset="0.991928" stop-color="#FE7321"/>
</linearGradient>
<linearGradient id="paint16_linear_5009_60608" x1="45.4844" y1="196.029" x2="6.94216" y2="185.667" gradientUnits="userSpaceOnUse">
<stop offset="0.43" stop-color="#EFD03D"/>
<stop offset="0.65" stop-color="#F05123"/>
</linearGradient>
<linearGradient id="paint17_linear_5009_60608" x1="20.9937" y1="188.966" x2="4.24569" y2="183.795" gradientUnits="userSpaceOnUse">
<stop stop-color="#EFD03D"/>
<stop offset="0.6" stop-color="#F1822B"/>
</linearGradient>
<linearGradient id="paint18_linear_5009_60608" x1="9.19284" y1="183.833" x2="21.0888" y2="191.695" gradientUnits="userSpaceOnUse">
<stop stop-color="white"/>
<stop offset="1" stop-color="#E4E4E4"/>
</linearGradient>
<linearGradient id="paint19_linear_5009_60608" x1="8.49315" y1="180.355" x2="18.5381" y2="191.552" gradientUnits="userSpaceOnUse">
<stop stop-color="white"/>
<stop offset="1" stop-color="#D9D9D8"/>
</linearGradient>
<linearGradient id="paint20_linear_5009_60608" x1="65.1321" y1="180.58" x2="23.4902" y2="229.567" gradientUnits="userSpaceOnUse">
<stop offset="0.177173" stop-color="#FDD396"/>
<stop offset="0.623119" stop-color="#FF7F33"/>
</linearGradient>
<linearGradient id="paint21_linear_5009_60608" x1="32.7884" y1="211.117" x2="66.0035" y2="195.156" gradientUnits="userSpaceOnUse">
<stop stop-color="#FEB03E"/>
<stop offset="1" stop-color="#FF7F33"/>
</linearGradient>
<linearGradient id="paint22_linear_5009_60608" x1="77.9751" y1="181.465" x2="76.6489" y2="218.64" gradientUnits="userSpaceOnUse">
<stop stop-color="#FFA876"/>
<stop offset="0.77" stop-color="#FFC36B"/>
<stop offset="0.928599" stop-color="#FF7F33"/>
</linearGradient>
<radialGradient id="paint23_radial_5009_60608" cx="0" cy="0" r="1" gradientUnits="userSpaceOnUse" gradientTransform="translate(76.6499 184.563) rotate(125.248) scale(9.21249 32.1991)">
<stop stop-color="#FCE7C0"/>
<stop offset="0.77" stop-color="#FFCE74" stop-opacity="0"/>
</radialGradient>
<linearGradient id="paint24_linear_5009_60608" x1="48.7372" y1="192.528" x2="36.7829" y2="200.507" gradientUnits="userSpaceOnUse">
<stop stop-color="#C1D9FF"/>
<stop offset="1" stop-color="#E3F1F5" stop-opacity="0.68"/>
</linearGradient>
<linearGradient id="paint25_linear_5009_60608" x1="27.028" y1="214.215" x2="27.028" y2="216.87" gradientUnits="userSpaceOnUse">
<stop stop-color="#FCE7C0"/>
<stop offset="1" stop-color="#FEB03E"/>
</linearGradient>
<linearGradient id="paint26_linear_5009_60608" x1="69.1173" y1="214.215" x2="69.1173" y2="216.87" gradientUnits="userSpaceOnUse">
<stop stop-color="#FFC6A5"/>
<stop offset="1" stop-color="#FF7F33"/>
</linearGradient>
<linearGradient id="paint27_linear_5009_60608" x1="89.1394" y1="217.188" x2="93.5221" y2="208.137" gradientUnits="userSpaceOnUse">
<stop stop-color="#C1D9FF"/>
<stop offset="1" stop-color="#E3F1F5"/>
</linearGradient>
<linearGradient id="paint28_linear_5009_60608" x1="89.4929" y1="202.708" x2="84.088" y2="209.214" gradientUnits="userSpaceOnUse">
<stop stop-color="#FFFEFD"/>
<stop offset="1" stop-color="#FFFEFD" stop-opacity="0"/>
</linearGradient>
<linearGradient id="paint29_linear_5009_60608" x1="89.9388" y1="204.035" x2="85.7923" y2="210.345" gradientUnits="userSpaceOnUse">
<stop stop-color="#FFFEFD"/>
<stop offset="1" stop-color="#FFFEFD" stop-opacity="0"/>
</linearGradient>
<linearGradient id="paint30_linear_5009_60608" x1="63.3094" y1="217.715" x2="67.6921" y2="208.663" gradientUnits="userSpaceOnUse">
<stop stop-color="#C1D9FF"/>
<stop offset="1" stop-color="#E3F1F5"/>
</linearGradient>
<linearGradient id="paint31_linear_5009_60608" x1="63.3556" y1="203.593" x2="58.2653" y2="209.741" gradientUnits="userSpaceOnUse">
<stop stop-color="#FFFEFD"/>
<stop offset="1" stop-color="#FFFEFD" stop-opacity="0"/>
</linearGradient>
<linearGradient id="paint32_linear_5009_60608" x1="64.6827" y1="204.478" x2="59.9724" y2="210.874" gradientUnits="userSpaceOnUse">
<stop stop-color="#FFFEFD"/>
<stop offset="1" stop-color="#FFFEFD" stop-opacity="0"/>
</linearGradient>
<linearGradient id="paint33_linear_5009_60608" x1="39.4323" y1="213.594" x2="76.6177" y2="184.787" gradientUnits="userSpaceOnUse">
<stop stop-color="#C1D9FF"/>
<stop offset="1" stop-color="#E3F1F5"/>
</linearGradient>
<linearGradient id="paint34_linear_5009_60608" x1="80.6379" y1="177.482" x2="66.4808" y2="196.969" gradientUnits="userSpaceOnUse">
<stop stop-color="#FFFEFD"/>
<stop offset="1" stop-color="#FFFEFD" stop-opacity="0"/>
</linearGradient>
<linearGradient id="paint35_linear_5009_60608" x1="73.9884" y1="177.925" x2="60.2732" y2="196.085" gradientUnits="userSpaceOnUse">
<stop stop-color="#FFFEFD"/>
<stop offset="1" stop-color="#FFFEFD" stop-opacity="0"/>
</linearGradient>
<linearGradient id="paint36_linear_5009_60608" x1="84.1792" y1="182.792" x2="72.3512" y2="199.628" gradientUnits="userSpaceOnUse">
<stop stop-color="#FFFEFD"/>
<stop offset="1" stop-color="#FFFEFD" stop-opacity="0"/>
</linearGradient>
<linearGradient id="paint37_linear_5009_60608" x1="672.59" y1="136.937" x2="703.215" y2="213.028" gradientUnits="userSpaceOnUse">
<stop stop-color="#FCE7C0"/>
<stop offset="1" stop-color="#FEB03E"/>
</linearGradient>
<linearGradient id="paint38_linear_5009_60608" x1="619.353" y1="232.716" x2="650.681" y2="227.467" gradientUnits="userSpaceOnUse">
<stop stop-color="#C1D9FF"/>
<stop offset="1" stop-color="#E3F1F5"/>
</linearGradient>
<linearGradient id="paint39_linear_5009_60608" x1="619.353" y1="232.716" x2="650.681" y2="227.467" gradientUnits="userSpaceOnUse">
<stop stop-color="#FCE7C0"/>
<stop offset="1" stop-color="#FFEECF"/>
</linearGradient>
<linearGradient id="paint40_linear_5009_60608" x1="636.262" y1="245.649" x2="680.869" y2="237.927" gradientUnits="userSpaceOnUse">
<stop stop-color="#FCE7C0"/>
<stop offset="1" stop-color="#FFEECF"/>
</linearGradient>
<linearGradient id="paint41_linear_5009_60608" x1="656.381" y1="152.974" x2="656.381" y2="198.731" gradientUnits="userSpaceOnUse">
<stop stop-color="#FFFEFD"/>
<stop offset="1" stop-color="#FFFEFD" stop-opacity="0"/>
</linearGradient>
<linearGradient id="paint42_linear_5009_60608" x1="659.186" y1="169.235" x2="659.186" y2="198.732" gradientUnits="userSpaceOnUse">
<stop stop-color="#FFFEFD"/>
<stop offset="1" stop-color="#FFFEFD" stop-opacity="0"/>
</linearGradient>
<linearGradient id="paint43_linear_5009_60608" x1="633.458" y1="167.09" x2="633.458" y2="198.732" gradientUnits="userSpaceOnUse">
<stop stop-color="#FFFEFD"/>
<stop offset="1" stop-color="#FFFEFD" stop-opacity="0"/>
</linearGradient>
<linearGradient id="paint44_linear_5009_60608" x1="630.872" y1="162.854" x2="630.872" y2="181.517" gradientUnits="userSpaceOnUse">
<stop stop-color="#FFFEFD"/>
<stop offset="1" stop-color="#FFFEFD" stop-opacity="0"/>
</linearGradient>
<linearGradient id="paint45_linear_5009_60608" x1="655.823" y1="145.818" x2="655.823" y2="182.286" gradientUnits="userSpaceOnUse">
<stop stop-color="#FFFEFD"/>
<stop offset="1" stop-color="#FFFEFD" stop-opacity="0"/>
</linearGradient>
<linearGradient id="paint46_linear_5009_60608" x1="302.062" y1="186.207" x2="301.677" y2="202.561" gradientUnits="userSpaceOnUse">
<stop offset="0.641738" stop-color="#DAE9F5"/>
<stop offset="1" stop-color="#E7F8FF"/>
</linearGradient>
<linearGradient id="paint47_linear_5009_60608" x1="302.062" y1="198.246" x2="302.062" y2="215.705" gradientUnits="userSpaceOnUse">
<stop offset="0.641738" stop-color="#D3EFF1"/>
<stop offset="1" stop-color="#C8E8EE"/>
</linearGradient>
<linearGradient id="paint48_linear_5009_60608" x1="302.615" y1="208.5" x2="311.123" y2="206.997" gradientUnits="userSpaceOnUse">
<stop offset="0.120369" stop-color="#CFE6F8"/>
<stop offset="1" stop-color="#DAE9F5"/>
</linearGradient>
<linearGradient id="paint49_linear_5009_60608" x1="570.001" y1="170.482" x2="569.448" y2="193.943" gradientUnits="userSpaceOnUse">
<stop offset="0.641738" stop-color="#DAE9F5"/>
<stop offset="1" stop-color="#E7F8FF"/>
</linearGradient>
<linearGradient id="paint50_linear_5009_60608" x1="570" y1="187.752" x2="570" y2="212.797" gradientUnits="userSpaceOnUse">
<stop offset="0.641738" stop-color="#D3EFF1"/>
<stop offset="1" stop-color="#C8E8EE"/>
</linearGradient>
<linearGradient id="paint51_linear_5009_60608" x1="570.793" y1="202.462" x2="582.999" y2="200.305" gradientUnits="userSpaceOnUse">
<stop offset="0.120369" stop-color="#CFE6F8"/>
<stop offset="1" stop-color="#DAE9F5"/>
</linearGradient>
<linearGradient id="paint52_linear_5009_60608" x1="327.001" y1="170.482" x2="326.448" y2="193.943" gradientUnits="userSpaceOnUse">
<stop offset="0.641738" stop-color="#DAE9F5"/>
<stop offset="1" stop-color="#E7F8FF"/>
</linearGradient>
<linearGradient id="paint53_linear_5009_60608" x1="327" y1="187.752" x2="327" y2="212.797" gradientUnits="userSpaceOnUse">
<stop offset="0.641738" stop-color="#D3EFF1"/>
<stop offset="1" stop-color="#C8E8EE"/>
</linearGradient>
<linearGradient id="paint54_linear_5009_60608" x1="327.793" y1="202.462" x2="339.999" y2="200.305" gradientUnits="userSpaceOnUse">
<stop offset="0.120369" stop-color="#CFE6F8"/>
<stop offset="1" stop-color="#DAE9F5"/>
</linearGradient>
<clipPath id="clip0_5009_60608">
<rect width="694" height="222" fill="white"/>
</clipPath>
</defs>
</svg>
