<svg width="48" height="48" viewBox="0 0 48 48" fill="none" xmlns="http://www.w3.org/2000/svg">
<g id="Layer_1" clip-path="url(#clip0_4958_2023)">
<path id="Vector" d="M23.9215 20.8916L24.0785 48.0004H19.8541L0 36.5921L23.9215 20.8916Z" fill="#F2F3FA"/>
<path id="Vector_2" d="M28.1458 18.8037L48 32.1656L24.0785 45.907L4.21875 34.5042L28.1458 18.8037Z" fill="#9FBBE6"/>
<path id="Vector_3" d="M28.8867 23.6152V37.6356L33.5992 34.9287V20.9082L28.8867 23.6152Z" fill="#2E6CD1"/>
<path id="Vector_4" d="M34.9338 21.6729V35.6933L33.5986 34.9287V20.9082L34.9338 21.6729Z" fill="#4684E9"/>
<path id="Vector_5" d="M42.2779 15.4326L23.6748 26.121V42.1619L30.2218 38.4001V24.3796L34.9343 21.6726V35.6931L42.2779 31.4735V15.4326Z" fill="#97BCE6"/>
<path id="Vector_6" d="M36.0389 11.4082L24.0781 26.171V29.8659L47.9996 16.1245V12.4296L36.0389 11.4082ZM46.569 15.3152L25.5031 27.4156V26.2156L36.0332 13.384L46.5634 14.1152V15.3152H46.569Z" fill="#B8D0F4"/>
<path id="Vector_7" d="M47.9996 34.259L24.0781 48.0004V45.9074L47.9996 32.166V34.259Z" fill="#B8D0F4"/>
<g id="Group">
<path id="Vector_8" d="M16.1851 0L4.21875 14.7628V18.4577L28.1458 4.71628V1.0214L16.1851 0Z" fill="#B8D0F4"/>
<path id="Vector_9" d="M23.6744 26.1212L10.7432 18.6924V34.7333L23.6744 42.1621V26.1212Z" fill="#2E6CD1"/>
</g>
<path id="Vector_10" d="M4.21875 36.5913L24.0785 47.9997V45.9067L4.21875 34.5039V36.5913Z" fill="#4684E9"/>
<g id="Group_2">
<g id="Group_3">
<path id="Vector_11" d="M18.4569 42.0677L16.4316 40.9068V37.251L18.4569 38.4119V42.0677Z" fill="#4684E9"/>
<path id="Vector_12" d="M18.4569 38.412L16.4316 37.2511L18.4401 36.0957L20.4653 37.2566L18.4569 38.412Z" fill="#9FBBE6"/>
<path id="Vector_13" d="M18.457 38.4122V42.068L20.4654 40.9127V37.2568L18.457 38.4122Z" fill="#A3C3F4"/>
</g>
<path id="Vector_14" d="M19.9265 37.1167V22.7334L17.0205 24.4022V37.1111C17.0205 37.3232 17.1664 37.5408 17.4469 37.7027C18.0191 38.032 18.9392 38.032 19.5002 37.7027C19.7807 37.5408 19.9209 37.3287 19.9209 37.1111L19.9265 37.1167Z" fill="url(#paint0_linear_4958_2023)"/>
<g id="Group_4">
<path id="Vector_15" d="M18.4569 27.5501L16.4316 26.3892V22.7334L18.4569 23.8999V27.5501Z" fill="#4684E9"/>
<path id="Vector_16" d="M18.4569 23.9L16.4316 22.7335L18.4401 21.5781L20.4653 22.7446L18.4569 23.9Z" fill="#9FBBE6"/>
<path id="Vector_17" d="M18.457 23.9005V27.5507L20.4654 26.3953V22.7451L18.457 23.9005Z" fill="#A3C3F4"/>
</g>
</g>
<g id="Group_5">
<g id="Group_6">
<path id="Vector_18" d="M12.9532 38.9085L10.9336 37.7476V34.0918L12.9532 35.2527V38.9085Z" fill="#4684E9"/>
<path id="Vector_19" d="M12.9532 35.2528L10.9336 34.0919L12.942 32.9365L14.9673 34.0975L12.9532 35.2528Z" fill="#9FBBE6"/>
<path id="Vector_20" d="M12.9531 35.253V38.9088L14.9672 37.7535V34.0977L12.9531 35.253Z" fill="#A3C3F4"/>
</g>
<path id="Vector_21" d="M14.4226 33.9575V19.5742L11.5166 21.2431V33.9519C11.5166 34.164 11.6625 34.3817 11.943 34.5435C12.5152 34.8728 13.4353 34.8728 13.9963 34.5435C14.2768 34.3817 14.417 34.1696 14.417 33.9519L14.4226 33.9575Z" fill="url(#paint1_linear_4958_2023)"/>
<g id="Group_7">
<path id="Vector_22" d="M12.9532 24.391L10.9336 23.23V19.5742L12.9532 20.7407V24.391Z" fill="#4684E9"/>
<path id="Vector_23" d="M12.9532 20.7408L10.9336 19.5743L12.942 18.4189L14.9673 19.5855L12.9532 20.7408Z" fill="#9FBBE6"/>
<path id="Vector_24" d="M12.9531 20.7413V24.3915L14.9672 23.2418V19.5859L12.9531 20.7413Z" fill="#A3C3F4"/>
</g>
</g>
<g id="Group_8">
<g id="Group_9">
<path id="Vector_25" d="M7.33775 35.682L5.3125 34.5155V30.8652L7.33775 32.0262V35.682Z" fill="#4684E9"/>
<path id="Vector_26" d="M7.33775 32.0262L5.3125 30.8653L7.32653 29.71L9.34616 30.8709L7.33775 32.0262Z" fill="#9FBBE6"/>
<path id="Vector_27" d="M7.33789 32.0264V35.6823L9.34631 34.5269V30.8711L7.33789 32.0264Z" fill="#A3C3F4"/>
</g>
<path id="Vector_28" d="M8.8074 30.7309V16.3477L5.90137 18.0165V30.7253C5.90137 30.9374 6.04723 31.1551 6.32773 31.317C6.89996 31.6463 7.82002 31.6463 8.38103 31.317C8.66154 31.1551 8.80179 30.943 8.80179 30.7253L8.8074 30.7309Z" fill="url(#paint2_linear_4958_2023)"/>
<g id="Group_10">
<path id="Vector_29" d="M7.33775 21.1644L5.3125 20.0035V16.3477L7.33775 17.5086V21.1644Z" fill="#4684E9"/>
<path id="Vector_30" d="M7.33775 17.5087L5.3125 16.3477L7.32653 15.1924L9.34616 16.3589L7.33775 17.5087Z" fill="#9FBBE6"/>
<path id="Vector_31" d="M7.33789 17.5091V21.165L9.34631 20.0096V16.3594L7.33789 17.5091Z" fill="#A3C3F4"/>
</g>
</g>
<g id="Group_11">
<g id="Group_12">
<path id="Vector_32" d="M24.0731 45.2933L22.0479 44.1324V40.4766L24.0731 41.6375V45.2933Z" fill="#4684E9"/>
<path id="Vector_33" d="M24.0731 41.6376L22.0479 40.4766L24.0619 39.3213L26.0815 40.4822L24.0731 41.6376Z" fill="#9FBBE6"/>
<path id="Vector_34" d="M24.0732 41.6378V45.2936L26.0817 44.1382V40.4824L24.0732 41.6378Z" fill="#A3C3F4"/>
</g>
<path id="Vector_35" d="M25.5427 40.3422V25.959L22.6367 27.6278V40.3367C22.6367 40.5488 22.7826 40.7664 23.0631 40.9283C23.6353 41.2576 24.5554 41.2576 25.1164 40.9283C25.3969 40.7664 25.5371 40.5543 25.5371 40.3367L25.5427 40.3422Z" fill="url(#paint3_linear_4958_2023)"/>
<g id="Group_13">
<path id="Vector_36" d="M24.0731 30.7816L22.0479 29.6151V25.9648L24.0731 27.1258V30.7816Z" fill="#4684E9"/>
<path id="Vector_37" d="M24.0731 27.1258L22.0479 25.9649L24.0619 24.8096L26.0815 25.9705L24.0731 27.1258Z" fill="#9FBBE6"/>
<path id="Vector_38" d="M24.0732 27.1261V30.7819L26.0817 29.6265V25.9707L24.0732 27.1261Z" fill="#A3C3F4"/>
</g>
</g>
<g id="Group_14">
<g id="Group_15">
<path id="Vector_39" d="M40.213 36.0228L38.1934 34.8563V31.2061L40.213 32.367V36.0228Z" fill="#4684E9"/>
<path id="Vector_40" d="M40.213 32.3671L38.1934 31.2061L40.2018 30.0508L42.227 31.2117L40.213 32.3671Z" fill="#9FBBE6"/>
<path id="Vector_41" d="M40.2129 32.3673V36.0231L42.2269 34.8677V31.2119L40.2129 32.3673Z" fill="#A3C3F4"/>
</g>
<path id="Vector_42" d="M41.6824 31.0717V16.6885L38.7764 18.3573V31.0662C38.7764 31.2782 38.9222 31.4959 39.2027 31.6578C39.775 31.9871 40.695 31.9871 41.256 31.6578C41.5365 31.4959 41.6768 31.2838 41.6768 31.0662L41.6824 31.0717Z" fill="url(#paint4_linear_4958_2023)"/>
<g id="Group_16">
<path id="Vector_43" d="M40.213 21.5052L38.1934 20.3443V16.6885L40.213 17.855V21.5052Z" fill="#4684E9"/>
<path id="Vector_44" d="M40.213 17.8551L38.1934 16.6886L40.2018 15.5332L42.227 16.6997L40.213 17.8551Z" fill="#9FBBE6"/>
<path id="Vector_45" d="M40.2129 17.8555V21.5058L42.2269 20.3504V16.7002L40.2129 17.8555Z" fill="#A3C3F4"/>
</g>
</g>
<g id="Group_17">
<g id="Group_18">
<path id="Vector_46" d="M44.8475 33.3597L42.8223 32.1988V28.543L44.8475 29.7095V33.3597Z" fill="#4684E9"/>
<path id="Vector_47" d="M44.8475 29.7096L42.8223 28.543L44.8307 27.3877L46.8559 28.5542L44.8475 29.7096Z" fill="#9FBBE6"/>
<path id="Vector_48" d="M44.8477 29.71V33.3603L46.8561 32.2049V28.5547L44.8477 29.71Z" fill="#A3C3F4"/>
</g>
<path id="Vector_49" d="M46.3113 28.4086V14.0254L43.4053 15.6942V28.4031C43.4053 28.6152 43.5511 28.8328 43.8316 28.9947C44.4039 29.324 45.3239 29.324 45.8849 28.9947C46.1654 28.8328 46.3057 28.6207 46.3057 28.4031L46.3113 28.4086Z" fill="url(#paint5_linear_4958_2023)"/>
<g id="Group_19">
<path id="Vector_50" d="M44.8475 18.848L42.8223 17.6871V14.0312L44.8475 15.1922V18.848Z" fill="#4684E9"/>
<path id="Vector_51" d="M44.8475 15.1923L42.8223 14.0313L44.8307 12.876L46.8559 14.0369L44.8475 15.1923Z" fill="#9FBBE6"/>
<path id="Vector_52" d="M44.8477 15.1925V18.8483L46.8561 17.6929V14.0371L44.8477 15.1925Z" fill="#A3C3F4"/>
</g>
</g>
<g id="Group_20">
<g id="Group_21">
<path id="Vector_53" d="M28.701 42.6371L26.6758 41.4705V37.8203L28.701 38.9812V42.6371Z" fill="#4684E9"/>
<path id="Vector_54" d="M28.701 38.9813L26.6758 37.8204L28.6898 36.665L30.7151 37.826L28.701 38.9813Z" fill="#9FBBE6"/>
<path id="Vector_55" d="M28.7012 38.9815V42.6373L30.7152 41.482V37.8262L28.7012 38.9815Z" fill="#A3C3F4"/>
</g>
<path id="Vector_56" d="M30.1707 37.686V23.3027L27.2646 24.9716V37.6804C27.2646 37.8925 27.4105 38.1102 27.691 38.272C28.2632 38.6013 29.1833 38.6013 29.7443 38.272C30.0248 38.1102 30.1651 37.8981 30.1651 37.6804L30.1707 37.686Z" fill="url(#paint6_linear_4958_2023)"/>
<g id="Group_22">
<path id="Vector_57" d="M28.701 28.1195L26.6758 26.9585V23.3027L28.701 24.4637V28.1195Z" fill="#4684E9"/>
<path id="Vector_58" d="M28.701 24.4637L26.6758 23.3028L28.6898 22.1475L30.7151 23.3084L28.701 24.4637Z" fill="#9FBBE6"/>
<path id="Vector_59" d="M28.7012 24.4639V28.1198L30.7152 26.9644V23.3086L28.7012 24.4639Z" fill="#A3C3F4"/>
</g>
</g>
<path id="Vector_60" d="M25.5088 26.2105V27.4105L46.5691 15.3101V14.1157L36.0389 13.3789L25.5088 26.2105Z" fill="#4684E9"/>
<path id="Vector_61" d="M24.707 25.7525V26.9525L45.7729 14.8521V13.6521L35.2428 12.9209L24.707 25.7525Z" fill="#B5CFF4"/>
<g id="Group_23">
<g id="Group_24">
<path id="Vector_62" d="M40.0667 16.9455L39.8984 16.8506L40.1172 16.7725L40.2799 16.8673L40.0667 16.9455Z" fill="#1F4889"/>
<path id="Vector_63" d="M39.433 17.6478L39.2646 17.5529V17.2627L39.4273 17.3576L39.433 17.6478Z" fill="#1D437F"/>
<path id="Vector_64" d="M39.4273 17.3584L39.2646 17.2636L39.3937 17.1631L39.562 17.258L39.4273 17.3584Z" fill="#224F96"/>
<path id="Vector_65" d="M38.9056 17.604L38.7373 17.5091L38.9561 17.4365L39.1244 17.5314L38.9056 17.604Z" fill="#1F4788"/>
<path id="Vector_66" d="M39.562 17.2581L39.3937 17.1632L38.9785 16.6943L39.1468 16.7892L39.562 17.2581Z" fill="#183769"/>
<path id="Vector_67" d="M38.2435 18.0386L38.0752 17.9437L38.3052 17.7539L38.4735 17.8544L38.2435 18.0386Z" fill="#235097"/>
<path id="Vector_68" d="M38.2435 18.3295L38.0752 18.2346V17.9443L38.2435 18.0392V18.3295Z" fill="#1D437F"/>
<path id="Vector_69" d="M38.9056 16.5044L38.7373 16.4039L38.9224 16.2979L39.0907 16.3983L38.9056 16.5044Z" fill="#214C91"/>
<path id="Vector_70" d="M39.0902 16.3983L38.9219 16.2979L39.337 15.377L39.5053 15.4718L39.0902 16.3983Z" fill="#224F96"/>
<path id="Vector_71" d="M39.3763 15.5271L39.208 15.4267V15.1309L39.3763 15.2313V15.5271Z" fill="#1D437F"/>
<path id="Vector_72" d="M39.3763 15.2316L39.208 15.1311L40.0607 14.6455L40.229 14.7404L39.3763 15.2316Z" fill="#214C91"/>
<path id="Vector_73" d="M38.4737 17.855L38.3054 17.7545L38.2998 16.002L38.4681 16.0968L38.4737 17.855Z" fill="#1D437F"/>
<path id="Vector_74" d="M38.2376 16.1807L38.0693 16.0803V15.79L38.2376 15.8849V16.1807Z" fill="#1D437F"/>
<path id="Vector_75" d="M40.2289 14.7402V15.036L39.9989 15.2147L39.4715 16.3198L40.0662 16.9449L40.2794 16.8667L40.285 17.157L39.4323 17.6481L39.4266 17.3579L39.5613 17.2574L39.1461 16.7886L38.9049 16.9281V17.6035L39.1237 17.5309V17.8212L38.2429 18.3291V18.0388L38.4729 17.8547L38.4673 16.0965L38.2373 16.1802V15.8844L39.1181 15.3765V15.6723L38.8993 15.8454L38.9049 16.504L39.09 16.3979L39.5052 15.4714L39.3762 15.5272V15.2314L40.2289 14.7402Z" fill="#2C65C0"/>
<path id="Vector_76" d="M38.2376 15.885L38.0693 15.7901L38.9501 15.2822L39.1184 15.3771L38.2376 15.885Z" fill="#214C91"/>
</g>
<g id="Group_25">
<path id="Vector_77" d="M37.4359 17.995L37.2676 17.9001L37.2788 17.8945L37.4415 17.9894L37.4359 17.995Z" fill="#214C91"/>
<path id="Vector_78" d="M36.5667 18.9491L36.3984 18.8542L36.6285 18.7705L36.7968 18.871L36.5667 18.9491Z" fill="#1F4888"/>
<path id="Vector_79" d="M37.8675 16.097L37.6992 16.0021L37.9292 15.8682L38.0975 15.963L37.8675 16.097Z" fill="#214C91"/>
<path id="Vector_80" d="M35.9046 19.3843L35.7363 19.2838L35.9663 19.0996L36.1346 19.1945L35.9046 19.3843Z" fill="#235097"/>
<path id="Vector_81" d="M35.9046 19.6749L35.7419 19.5744L35.7363 19.2842L35.9046 19.3846V19.6749Z" fill="#1D437F"/>
<path id="Vector_82" d="M37.4417 17.9888L37.279 17.8939L37.2734 16.5879L37.4417 16.6884V17.9888Z" fill="#1D437F"/>
<path id="Vector_83" d="M37.4468 18.7876L37.2785 18.6927L36.4033 17.543L36.5716 17.6434L37.4468 18.7876Z" fill="#183769"/>
<path id="Vector_84" d="M37.2064 16.4764L37.0381 16.3815L37.7001 16.002L37.8684 16.0968L37.2064 16.4764Z" fill="#214C91"/>
<path id="Vector_85" d="M37.2064 16.7725L37.0381 16.6776V16.3818L37.2064 16.4767V16.7725Z" fill="#1D437F"/>
<path id="Vector_86" d="M36.1349 19.1948L35.9665 19.0999L35.9609 17.3418L36.1292 17.4423L36.1349 19.1948Z" fill="#1D437F"/>
<path id="Vector_87" d="M36.1292 17.096L35.9609 17.0012L36.3929 16.75L36.5612 16.8505L36.1292 17.096Z" fill="#214C91"/>
<path id="Vector_88" d="M35.8988 17.5206L35.7305 17.4257V17.1299L35.8988 17.2303V17.5206Z" fill="#1D437F"/>
<path id="Vector_89" d="M35.8988 17.2298L35.7305 17.1293L35.9605 17.001L36.1288 17.0959L35.8988 17.2298Z" fill="#214C91"/>
<path id="Vector_90" d="M38.0976 15.9629V16.2587L37.8676 16.4429L37.8732 18.5415L37.4468 18.7871L36.5716 17.6429L36.5604 17.6485L36.566 18.9489L36.7961 18.8708V19.161L35.904 19.6745V19.3843L36.1341 19.1945L36.1285 17.442L35.8984 17.5201V17.2299L36.1285 17.0959L36.5604 16.8503L37.4356 17.9945L37.4412 17.9889V16.6885L37.2056 16.7722V16.4764L37.8676 16.0968L38.0976 15.9629Z" fill="#2C65C0"/>
</g>
<g id="Group_26">
<path id="Vector_91" d="M35.6068 19.5235L35.4385 19.4286L35.5956 19.3672L35.7639 19.4621L35.6068 19.5235Z" fill="#20498A"/>
<path id="Vector_92" d="M35.0296 20.1761L34.8613 20.0812V19.791L35.0296 19.8859V20.1761Z" fill="#1D437F"/>
<path id="Vector_93" d="M35.0296 19.8856L34.8613 19.7908L35.0128 19.668L35.1811 19.7629L35.0296 19.8856Z" fill="#235097"/>
<path id="Vector_94" d="M35.1804 19.7636L35.0121 19.6687L34.9111 19.3896L35.0794 19.4845L35.1804 19.7636Z" fill="#1A3B70"/>
<path id="Vector_95" d="M34.2884 20.2767L34.1201 20.1818L34.2716 20.126L34.4399 20.2209L34.2884 20.2767Z" fill="#1F4889"/>
<path id="Vector_96" d="M34.4857 19.4674L34.3174 19.3725L34.8111 19.0879L34.9794 19.1828L34.4857 19.4674Z" fill="#214C91"/>
<path id="Vector_97" d="M33.7054 20.6447L33.5371 20.5498L33.6942 20.4326L33.8625 20.5275L33.7054 20.6447Z" fill="#234F96"/>
<path id="Vector_98" d="M33.7054 20.9349L33.5371 20.84V20.5498L33.7054 20.6447V20.9349Z" fill="#1D437F"/>
<path id="Vector_99" d="M34.9786 19.1828L34.8103 19.0879L34.5635 18.3623L34.7318 18.4572L34.9786 19.1828Z" fill="#1A3B71"/>
<path id="Vector_100" d="M33.8626 20.5277L33.6943 20.4328L34.3451 17.9268L34.5078 18.0272L33.8626 20.5277Z" fill="#214B8E"/>
<path id="Vector_101" d="M35.6072 19.5236L35.7586 19.4622V19.7525L35.0237 20.1766V19.8864L35.1752 19.7692L35.0798 19.4901L34.3841 19.892L34.2944 20.2827L34.4459 20.2269V20.5171L33.7109 20.9413V20.6511L33.8624 20.5339L34.5132 18.0334L34.9564 17.7822L35.6128 19.5348L35.6072 19.5236ZM34.4851 19.4678L34.9788 19.1832L34.732 18.4576H34.7264L34.4851 19.4678Z" fill="#2C65C0"/>
<path id="Vector_102" d="M34.5074 18.0274L34.3447 17.9269L34.7823 17.6758L34.9506 17.7707L34.5074 18.0274Z" fill="#214C91"/>
</g>
<g id="Group_27">
<g id="Group_28">
<g id="Clip path group">
<mask id="mask0_4958_2023" style="mask-type:luminance" maskUnits="userSpaceOnUse" x="32" y="20" width="2" height="2">
<g id="clippath">
<path id="Vector_103" d="M32.7796 21.093L32.6113 20.9981C32.7235 20.9311 32.8133 20.853 32.875 20.7637L33.0433 20.8586C32.9872 20.9423 32.8974 21.026 32.7796 21.093Z" fill="white"/>
</g>
</mask>
<g mask="url(#mask0_4958_2023)">
<g id="Group_29">
<g id="Group_30">
<path id="Vector_104" d="M32.7796 21.093L32.6113 20.9981C32.7235 20.9311 32.8133 20.853 32.875 20.7637L33.0433 20.8586C32.9872 20.9423 32.8974 21.026 32.7796 21.093Z" fill="#24539D"/>
</g>
</g>
</g>
</g>
</g>
<g id="Group_31">
<g id="Clip path group_2">
<mask id="mask1_4958_2023" style="mask-type:luminance" maskUnits="userSpaceOnUse" x="32" y="20" width="2" height="1">
<g id="clippath-1">
<path id="Vector_105" d="M33.0433 20.8582L32.875 20.7634C32.9367 20.6685 32.9704 20.568 32.9704 20.4564C32.9704 20.3392 32.9423 20.2666 32.8918 20.2275L33.0601 20.3224C33.1106 20.3615 33.1387 20.434 33.1387 20.5513C33.1387 20.6629 33.105 20.7689 33.0489 20.8582H33.0433Z" fill="white"/>
</g>
</mask>
<g mask="url(#mask1_4958_2023)">
<g id="Group_32">
<g id="Group_33">
<path id="Vector_106" d="M33.0433 20.8582L32.875 20.7634C32.9367 20.6685 32.9704 20.568 32.9704 20.4564C32.9704 20.3392 32.9423 20.2666 32.8918 20.2275L33.0601 20.3224C33.1106 20.3615 33.1387 20.434 33.1387 20.5513C33.1387 20.6629 33.105 20.7689 33.0489 20.8582H33.0433Z" fill="#24539D"/>
</g>
</g>
</g>
</g>
</g>
<g id="Group_34">
<g id="Clip path group_3">
<mask id="mask2_4958_2023" style="mask-type:luminance" maskUnits="userSpaceOnUse" x="32" y="20" width="2" height="1">
<g id="clippath-2">
<path id="Vector_107" d="M32.8857 20.2217L33.054 20.3166V20.3221L32.8857 20.2273V20.2217Z" fill="white"/>
</g>
</mask>
<g mask="url(#mask2_4958_2023)">
<g id="Group_35">
<g id="Group_36">
<path id="Vector_108" d="M33.054 20.3221L32.8857 20.2273V20.2217L33.054 20.3166V20.3221Z" fill="#24539D"/>
</g>
</g>
</g>
</g>
</g>
<g id="Group_37">
<g id="Clip path group_4">
<mask id="mask3_4958_2023" style="mask-type:luminance" maskUnits="userSpaceOnUse" x="33" y="19" width="1" height="1">
<g id="clippath-3">
<path id="Vector_109" d="M33.2566 19.8759L33.4249 19.9708C33.3632 19.9373 33.279 19.9317 33.1781 19.9708L33.0098 19.8759C33.1107 19.8368 33.1949 19.8424 33.2566 19.8759Z" fill="white"/>
</g>
</mask>
<g mask="url(#mask3_4958_2023)">
<g id="Group_38">
<g id="Group_39">
<path id="Vector_110" d="M33.1781 19.9708L33.0098 19.8759C33.1107 19.8368 33.1949 19.8424 33.2566 19.8759L33.4249 19.9708C33.3632 19.9373 33.279 19.9317 33.1781 19.9708Z" fill="#24539D"/>
</g>
</g>
</g>
</g>
</g>
<path id="Vector_111" d="M32.3871 21.3159L32.2188 21.221L32.6171 20.9922L32.7798 21.0927L32.3871 21.3159Z" fill="#214C91"/>
<path id="Vector_112" d="M31.7193 21.7849L31.5566 21.69L31.781 21.5059L31.9493 21.6007L31.7193 21.7849Z" fill="#235097"/>
<path id="Vector_113" d="M31.7249 22.0746L31.5566 21.9797V21.6895L31.7193 21.7843L31.7249 22.0746Z" fill="#1D437F"/>
<g id="Group_40">
<g id="Clip path group_5">
<mask id="mask4_4958_2023" style="mask-type:luminance" maskUnits="userSpaceOnUse" x="32" y="19" width="1" height="2">
<g id="clippath-4">
<path id="Vector_114" d="M32.6956 20.093L32.5273 19.9981C32.6395 19.9311 32.7293 19.853 32.791 19.7637L32.9593 19.8586C32.8976 19.9479 32.8078 20.026 32.6956 20.093Z" fill="white"/>
</g>
</mask>
<g mask="url(#mask4_4958_2023)">
<g id="Group_41">
<g id="Group_42">
<path id="Vector_115" d="M32.6956 20.093L32.5273 19.9981C32.6395 19.9311 32.7293 19.853 32.791 19.7637L32.9593 19.8586C32.8976 19.9479 32.8078 20.026 32.6956 20.093Z" fill="#24539D"/>
</g>
</g>
</g>
</g>
</g>
<g id="Group_43">
<g id="Clip path group_6">
<mask id="mask5_4958_2023" style="mask-type:luminance" maskUnits="userSpaceOnUse" x="32" y="18" width="2" height="2">
<g id="clippath-5">
<path id="Vector_116" d="M32.6732 19.0776L32.5049 18.9827C32.7573 18.8376 32.9537 18.7762 33.0939 18.8097L33.2622 18.9046C33.122 18.8711 32.92 18.9325 32.6732 19.0776Z" fill="white"/>
</g>
</mask>
<g mask="url(#mask5_4958_2023)">
<g id="Group_44">
<g id="Group_45">
<path id="Vector_117" d="M32.6732 19.0776L32.5049 18.9827C32.7573 18.8376 32.9537 18.7762 33.0939 18.8097L33.2622 18.9046C33.122 18.8711 32.92 18.9325 32.6732 19.0776Z" fill="#24539D"/>
</g>
</g>
</g>
</g>
</g>
<g id="Group_46">
<g id="Clip path group_7">
<mask id="mask6_4958_2023" style="mask-type:luminance" maskUnits="userSpaceOnUse" x="33" y="18" width="1" height="1">
<g id="clippath-6">
<path id="Vector_118" d="M33.1782 18.8375L33.3465 18.9324C33.3465 18.9324 33.296 18.91 33.2679 18.9045L33.0996 18.8096C33.1277 18.8152 33.1557 18.8263 33.1782 18.8375Z" fill="white"/>
</g>
</mask>
<g mask="url(#mask6_4958_2023)">
<g id="Group_47">
<g id="Group_48">
<path id="Vector_119" d="M33.2679 18.9103L33.0996 18.8154C33.1277 18.821 33.1557 18.8322 33.1782 18.8433L33.3465 18.9382C33.3465 18.9382 33.296 18.9159 33.2679 18.9103Z" fill="#24539D"/>
</g>
</g>
</g>
</g>
</g>
<g id="Group_49">
<g id="Clip path group_8">
<mask id="mask7_4958_2023" style="mask-type:luminance" maskUnits="userSpaceOnUse" x="32" y="19" width="2" height="1">
<g id="clippath-7">
<path id="Vector_120" d="M32.8191 19.29L32.9874 19.3849C33.0322 19.4128 33.0547 19.4742 33.0547 19.5691C33.0547 19.6696 33.0266 19.7645 32.9593 19.8538L32.791 19.7589C32.8527 19.6696 32.8864 19.5747 32.8864 19.4742C32.8864 19.3793 32.8639 19.3179 32.8191 19.29Z" fill="white"/>
</g>
</mask>
<g mask="url(#mask7_4958_2023)">
<g id="Group_50">
<g id="Group_51">
<path id="Vector_121" d="M32.9593 19.8596L32.791 19.7647C32.8527 19.6754 32.8864 19.5806 32.8864 19.4801C32.8864 19.3852 32.8639 19.3238 32.8191 19.2959L32.9874 19.3908C33.0322 19.4187 33.0547 19.4801 33.0547 19.575C33.0547 19.6754 33.0266 19.7703 32.9593 19.8596Z" fill="#24539D"/>
</g>
</g>
</g>
</g>
</g>
<path id="Vector_122" d="M32.3812 20.2725L32.2129 20.1776L32.5271 19.999L32.6954 20.0939L32.3812 20.2725Z" fill="#214C91"/>
<path id="Vector_123" d="M31.9496 21.6001L31.7812 21.5052V19.7471L31.9439 19.842L31.9496 21.6001Z" fill="#1D437F"/>
<path id="Vector_124" d="M31.9437 19.5015L31.7754 19.401L32.5103 18.9824L32.673 19.0773L31.9437 19.5015Z" fill="#214C91"/>
<path id="Vector_125" d="M31.7135 19.9259L31.5508 19.831V19.5352L31.7135 19.63V19.9259Z" fill="#1D437F"/>
<path id="Vector_126" d="M33.4691 20.004C33.5364 20.0709 33.5645 20.1714 33.5645 20.3054C33.5645 20.5454 33.4972 20.7575 33.3625 20.9528C33.2279 21.1537 33.0315 21.3212 32.7847 21.4663L31.7244 22.0747V21.7844L31.9544 21.6002V19.8421L31.7188 19.9258V19.63L31.9488 19.4961L32.6781 19.0775C32.9305 18.9323 33.1269 18.8709 33.2671 18.9044C33.413 18.9323 33.4803 19.0607 33.4859 19.2784C33.4859 19.3956 33.4635 19.5072 33.4074 19.63C33.3513 19.7472 33.2784 19.8589 33.1774 19.9649C33.3064 19.9202 33.4018 19.9314 33.4691 19.9984V20.004ZM33.0427 20.8579C33.1044 20.763 33.1381 20.6626 33.1325 20.5509C33.1325 20.4337 33.1044 20.3612 33.054 20.3221C33.0035 20.2886 32.9193 20.3054 32.8127 20.3668L32.3807 20.6123V21.3156L32.7791 21.0868C32.8913 21.0198 32.981 20.9416 33.0427 20.8523V20.8579ZM32.3807 19.6244V20.2719L32.6949 20.0933C32.8071 20.0263 32.8969 19.9482 32.9586 19.8589C33.0203 19.7696 33.054 19.6747 33.054 19.5742C33.054 19.457 33.0259 19.3956 32.9586 19.3789C32.8969 19.3621 32.8015 19.39 32.6781 19.457L32.3807 19.63V19.6244Z" fill="#2C65C0"/>
<path id="Vector_127" d="M31.7135 19.6302L31.5508 19.5353L31.7752 19.4014L31.9435 19.5018L31.7135 19.6302Z" fill="#214C91"/>
</g>
</g>
<path id="Vector_128" d="M36.0389 11.4082L24.0781 26.171V29.8659L47.9996 16.1245V12.4296L36.0389 11.4082ZM46.569 15.3152L25.5031 27.4156V26.2156L36.0332 13.384L46.5634 14.1152V15.3152H46.569Z" fill="#A3C3F4"/>
<path id="Vector_129" d="M36.0392 11.4084L16.1851 0L4.21875 14.7628L24.0785 26.1712L36.0392 11.4084Z" fill="#B5CFF4"/>
<path id="Vector_130" d="M24.0785 29.8659L4.21875 18.4576V14.7627L24.0785 26.1711V29.8659Z" fill="#4684E9"/>
<path id="Vector_131" d="M36.0397 11.4084L16.1855 0L28.1463 1.0214L48.0004 12.4298L36.0397 11.4084Z" fill="#E2E9FC"/>
</g>
<defs>
<linearGradient id="paint0_linear_4958_2023" x1="17.0149" y1="30.3408" x2="19.9265" y2="30.3408" gradientUnits="userSpaceOnUse">
<stop offset="0.22" stop-color="#4684E9"/>
<stop offset="0.89" stop-color="#9FBEF4"/>
</linearGradient>
<linearGradient id="paint1_linear_4958_2023" x1="11.5166" y1="27.1817" x2="14.4226" y2="27.1817" gradientUnits="userSpaceOnUse">
<stop offset="0.22" stop-color="#4684E9"/>
<stop offset="0.89" stop-color="#9FBEF4"/>
</linearGradient>
<linearGradient id="paint2_linear_4958_2023" x1="5.90137" y1="23.9551" x2="8.8074" y2="23.9551" gradientUnits="userSpaceOnUse">
<stop offset="0.22" stop-color="#4684E9"/>
<stop offset="0.89" stop-color="#9FBEF4"/>
</linearGradient>
<linearGradient id="paint3_linear_4958_2023" x1="22.6367" y1="33.5664" x2="25.5427" y2="33.5664" gradientUnits="userSpaceOnUse">
<stop offset="0.27" stop-color="#4684E9"/>
<stop offset="0.34" stop-color="#5B91EB"/>
<stop offset="0.79" stop-color="#D7E2FB"/>
</linearGradient>
<linearGradient id="paint4_linear_4958_2023" x1="38.7764" y1="24.2959" x2="41.6824" y2="24.2959" gradientUnits="userSpaceOnUse">
<stop offset="0.27" stop-color="#4684E9"/>
<stop offset="0.34" stop-color="#5B91EB"/>
<stop offset="0.79" stop-color="#D7E2FB"/>
</linearGradient>
<linearGradient id="paint5_linear_4958_2023" x1="43.4053" y1="21.6328" x2="46.3113" y2="21.6328" gradientUnits="userSpaceOnUse">
<stop offset="0.27" stop-color="#4684E9"/>
<stop offset="0.34" stop-color="#5B91EB"/>
<stop offset="0.79" stop-color="#D7E2FB"/>
</linearGradient>
<linearGradient id="paint6_linear_4958_2023" x1="27.2646" y1="30.9102" x2="30.1707" y2="30.9102" gradientUnits="userSpaceOnUse">
<stop offset="0.27" stop-color="#4684E9"/>
<stop offset="0.34" stop-color="#5B91EB"/>
<stop offset="0.79" stop-color="#D7E2FB"/>
</linearGradient>
<clipPath id="clip0_4958_2023">
<rect width="48" height="48" fill="white"/>
</clipPath>
</defs>
</svg>
