<svg width="20" height="20" viewBox="0 0 20 20" fill="none" xmlns="http://www.w3.org/2000/svg">
<path d="M10.1668 14.75C9.91683 14.75 9.75016 14.6667 9.5835 14.5L6.0835 11C5.75016 10.6667 5.75016 10.1667 6.0835 9.83333C6.41683 9.5 6.91683 9.5 7.25016 9.83333L10.1668 12.75L16.6668 6.25C17.0002 5.91667 17.5002 5.91667 17.8335 6.25C18.1668 6.58333 18.1668 7.08333 17.8335 7.41667L10.7502 14.5C10.6668 14.6667 10.4168 14.75 10.1668 14.75Z" fill="#0355A1"/>
<path d="M5.99984 14.75C5.74984 14.75 5.58317 14.6667 5.4165 14.5L1.9165 11C1.58317 10.6667 1.58317 10.1667 1.9165 9.83333C2.24984 9.5 2.74984 9.5 3.08317 9.83333L6.58317 13.3333C6.9165 13.6667 6.9165 14.1667 6.58317 14.5C6.49984 14.6667 6.24984 14.75 5.99984 14.75ZM10.4165 10.4167C10.1665 10.4167 9.99984 10.3333 9.83317 10.1667C9.49984 9.83333 9.49984 9.33333 9.83317 9L12.4998 6.25C12.8332 5.91667 13.3332 5.91667 13.6665 6.25C13.9998 6.58333 13.9998 7.08333 13.6665 7.41667L10.9998 10.1667C10.8332 10.3333 10.6665 10.4167 10.4165 10.4167Z" fill="#0355A1"/>
</svg>
