<svg width="426" height="200" viewBox="0 0 426 200" fill="none" xmlns="http://www.w3.org/2000/svg">
<ellipse cx="213.289" cy="150.538" rx="132.208" ry="23.3503" fill="url(#paint0_linear_5384_94915)"/>
<g filter="url(#filter0_f_5384_94915)">
<path d="M200.381 155.077C208.848 145.997 193.774 143.446 193.868 136.267C193.963 129.089 170.424 131.16 165.865 131.727C139.813 134.97 120.371 138.17 120.276 145.348C120.181 152.526 165.693 154.623 200.381 155.077Z" fill="url(#paint1_linear_5384_94915)"/>
</g>
<path d="M233.507 58.5293C233.818 59.3743 233.842 60.2967 233.576 61.1541C233.31 62.0115 232.77 62.7562 232.037 63.273L192.409 91.2413C191.971 91.5501 191.477 91.7692 190.954 91.8863C190.431 92.0034 189.89 92.0161 189.361 91.9237C188.293 91.737 187.341 91.1337 186.715 90.2463C186.088 89.3588 185.838 88.2601 186.019 87.1917C186.201 86.1234 186.799 85.1729 187.683 84.5494L227.311 56.5811C227.823 56.2205 228.411 55.983 229.03 55.887C229.65 55.791 230.283 55.8391 230.882 56.0274C231.481 56.2158 232.03 56.5394 232.485 56.9732C232.94 57.4071 233.29 57.9395 233.507 58.5293Z" fill="url(#paint2_linear_5384_94915)"/>
<path d="M289.017 90.8159L274.396 138.242L206.502 150.511L173.539 138.549L162.071 92.0839L248.795 78.5977L289.017 90.8159Z" fill="url(#paint3_linear_5384_94915)"/>
<path d="M146.432 90.4315C142.069 87.0764 145.523 87.4619 155.706 86.2215C165.888 84.9811 243.221 73.77 243.743 73.8008C244.266 73.8317 289.32 87.1176 289.32 87.1176L286.857 96.7514L243.638 83.5618L157.739 96.7512L146.432 90.4315Z" fill="url(#paint4_linear_5384_94915)"/>
<path d="M200.95 99.1486C201.028 99.2062 201.121 99.2403 201.218 99.247C201.301 99.2548 201.385 99.2297 201.45 99.177C201.484 99.1494 201.509 99.1136 201.524 99.0731C201.54 99.031 201.546 98.9858 201.541 98.9411C201.535 98.8917 201.52 98.8438 201.496 98.8001C201.471 98.7527 201.438 98.7097 201.399 98.6728C200.239 97.5653 199.227 96.3141 198.39 94.9502C198.331 94.8561 198.245 94.7822 198.143 94.7385C198.049 94.6952 197.942 94.6871 197.842 94.7158C197.8 94.7285 197.761 94.7517 197.73 94.7833C197.699 94.8148 197.677 94.8536 197.665 94.896C197.654 94.943 197.653 94.9916 197.661 95.0391C197.669 95.0866 197.688 95.1319 197.714 95.1722C198.599 96.6104 199.666 97.93 200.889 99.0985L200.95 99.1486ZM195.854 91.1033C195.901 91.1362 195.953 91.1612 196.008 91.1775C196.06 91.1934 196.114 91.1995 196.168 91.1956C196.215 91.1929 196.261 91.1801 196.303 91.1578C196.341 91.1367 196.374 91.1061 196.397 91.0688C196.421 91.0319 196.435 90.9896 196.437 90.9459C196.441 90.8983 196.434 90.8505 196.418 90.8056C195.931 89.4248 195.572 88.003 195.345 86.5579C195.325 86.4548 195.271 86.3614 195.19 86.2937C195.108 86.2206 195.006 86.1748 194.896 86.1628C194.85 86.1566 194.802 86.1604 194.757 86.1741C194.712 86.1878 194.67 86.211 194.635 86.2421C194.604 86.2735 194.581 86.3121 194.568 86.3544C194.555 86.3968 194.552 86.4417 194.561 86.4852C194.794 87.9722 195.162 89.4355 195.659 90.8575C195.696 90.9581 195.764 91.0443 195.854 91.1033ZM194.459 82.5543C194.518 82.596 194.585 82.6254 194.655 82.6406C194.719 82.6552 194.786 82.6535 194.849 82.6358C194.905 82.6202 194.955 82.5869 194.992 82.5409C195.026 82.4946 195.045 82.4385 195.044 82.3808C195.05 81.0254 195.168 79.6729 195.396 78.3367C195.408 78.2388 195.382 78.14 195.322 78.0612C195.257 77.9717 195.166 77.9038 195.061 77.8668C194.967 77.8306 194.862 77.8309 194.769 77.8677C194.728 77.8846 194.693 77.9113 194.666 77.9455C194.638 77.9797 194.62 78.0201 194.613 78.063C194.389 79.4341 194.273 80.8206 194.267 82.2098C194.268 82.2746 194.285 82.3381 194.317 82.3945C194.353 82.4567 194.401 82.5109 194.459 82.5536L194.459 82.5543ZM195.812 74.5955L195.888 74.6491C195.98 74.6957 196.087 74.7084 196.187 74.6851C196.23 74.6749 196.27 74.6543 196.303 74.6252C196.335 74.5961 196.36 74.5593 196.375 74.5182C196.802 73.2993 197.348 72.1251 198.006 71.0126C198.029 70.9725 198.041 70.9279 198.044 70.8822C198.046 70.8364 198.038 70.7908 198.02 70.7485C197.98 70.6482 197.908 70.5633 197.815 70.5062C197.726 70.4474 197.62 70.4197 197.513 70.4274C197.468 70.4301 197.424 70.4434 197.386 70.4662C197.347 70.489 197.314 70.5207 197.29 70.5586C196.616 71.6979 196.058 72.901 195.624 74.1501C195.599 74.227 195.604 74.3105 195.638 74.3841C195.675 74.469 195.735 74.542 195.812 74.5948L195.812 74.5955ZM200.475 76.1084C201.047 76.51 201.64 76.8803 202.253 77.2178C202.301 77.2445 202.352 77.2635 202.406 77.2741C202.456 77.2844 202.507 77.2853 202.558 77.2768C202.603 77.2693 202.646 77.2517 202.684 77.2254C202.72 77.2001 202.748 77.1662 202.766 77.1269C202.785 77.0862 202.793 77.0417 202.791 76.997C202.789 76.9481 202.777 76.9 202.756 76.8555C202.733 76.8073 202.703 76.7629 202.666 76.7242C202.627 76.6838 202.583 76.6493 202.534 76.6221C201.095 75.8217 199.765 74.8415 198.576 73.7055C198.536 73.6667 198.49 73.6342 198.44 73.609C198.392 73.5848 198.34 73.5685 198.286 73.5607C198.237 73.5539 198.186 73.5566 198.137 73.5685C198.094 73.5794 198.053 73.6001 198.018 73.6288C197.986 73.6579 197.96 73.6946 197.945 73.7357C197.93 73.7768 197.926 73.821 197.932 73.8643C197.946 73.9668 197.997 74.0611 198.074 74.1308C198.823 74.849 199.625 75.5101 200.475 76.1084ZM206.826 78.9672C206.883 79.0075 206.948 79.0363 207.016 79.052C208.651 79.4068 210.268 79.4736 211.779 79.2482C211.822 79.2418 211.863 79.2252 211.899 79.1999C211.934 79.1746 211.963 79.1413 211.983 79.1027C212.001 79.0612 212.01 79.0162 212.009 78.9709C212.009 78.9255 211.998 78.8809 211.978 78.8399C211.935 78.7436 211.862 78.6628 211.771 78.6085C211.683 78.5538 211.578 78.5292 211.475 78.5386C210.062 78.7497 208.547 78.6877 207.015 78.3556C206.965 78.3446 206.914 78.3428 206.863 78.3501C206.818 78.3565 206.775 78.3727 206.737 78.3976C206.701 78.4216 206.672 78.4544 206.653 78.4928C206.633 78.5324 206.623 78.5762 206.624 78.6205C206.629 78.6858 206.651 78.7488 206.687 78.8036C206.727 78.8641 206.778 78.916 206.838 78.9561L206.826 78.9672ZM195.027 70.3734C195.101 70.4266 195.188 70.4592 195.279 70.4681C195.358 70.477 195.438 70.4575 195.504 70.4131C195.534 70.3921 195.559 70.3651 195.577 70.3338C195.595 70.3025 195.607 70.2676 195.61 70.2316C195.617 70.1499 195.596 70.0682 195.552 69.9992C194.743 68.6686 194.152 67.2774 193.801 65.8804C193.774 65.7781 193.712 65.688 193.627 65.6245C193.542 65.5573 193.438 65.5185 193.33 65.514C193.281 65.5127 193.233 65.5213 193.188 65.5391C193.147 65.5559 193.111 65.5823 193.082 65.6161C193.055 65.6498 193.036 65.6899 193.029 65.7326C193.02 65.7786 193.023 65.8259 193.035 65.8711C193.408 67.35 194.036 68.8222 194.895 70.2297C194.93 70.2855 194.974 70.3345 195.027 70.3741L195.027 70.3734ZM199.846 67.9725C199.927 68.0314 200.024 68.0648 200.125 68.0686C200.168 68.0709 200.21 68.0643 200.251 68.0495C200.291 68.0346 200.328 68.0117 200.358 67.9821C201.273 67.0527 202.328 66.27 203.484 65.6617C203.523 65.6417 203.557 65.6122 203.581 65.5759C203.606 65.5396 203.62 65.4977 203.624 65.4542C203.628 65.407 203.622 65.3595 203.606 65.3147C203.589 65.2654 203.564 65.2193 203.531 65.1787C203.462 65.0928 203.369 65.03 203.263 64.9986C203.169 64.9673 203.066 64.9736 202.976 65.0162C201.768 65.6474 200.665 66.4611 199.708 67.4285C199.677 67.4604 199.655 67.4993 199.643 67.5418C199.631 67.5843 199.629 67.6291 199.638 67.6724C199.659 67.7749 199.715 67.8672 199.796 67.9341L199.846 67.9725ZM215.387 77.7456C215.458 77.7957 215.541 77.8274 215.627 77.8376C215.704 77.8476 215.781 77.832 215.847 77.7934C216.701 77.286 217.442 76.6124 218.026 75.8132C218.244 75.5066 218.433 75.1811 218.591 74.8407C218.609 74.7976 218.617 74.7513 218.615 74.7048C218.613 74.6584 218.601 74.6129 218.58 74.5715C218.532 74.4735 218.455 74.3929 218.359 74.3411C218.31 74.3126 218.257 74.2925 218.201 74.2815C218.15 74.2708 218.097 74.27 218.045 74.279C217.999 74.2876 217.955 74.3067 217.917 74.3351C217.881 74.3624 217.854 74.3986 217.837 74.44C217.694 74.7496 217.525 75.0464 217.332 75.3273C216.791 76.0722 216.104 76.7 215.311 77.1729C215.274 77.1956 215.243 77.2274 215.222 77.2652C215.2 77.303 215.189 77.3457 215.188 77.3892C215.189 77.49 215.228 77.587 215.296 77.6617C215.324 77.6927 215.354 77.721 215.387 77.7463L215.387 77.7456ZM192.887 61.893C192.934 61.9264 192.986 61.952 193.041 61.9691C193.091 61.9838 193.143 61.9899 193.194 61.987C193.241 61.9843 193.287 61.9719 193.329 61.9506C193.368 61.9303 193.401 61.9006 193.424 61.8643C193.448 61.8279 193.463 61.7862 193.466 61.7429C193.593 60.4471 193.941 59.1823 194.495 58.0027C194.514 57.9596 194.523 57.9129 194.521 57.866C194.519 57.8192 194.507 57.7732 194.486 57.7314C194.439 57.6323 194.361 57.5505 194.264 57.4978C194.172 57.4442 194.065 57.4234 193.959 57.4387C193.915 57.4449 193.873 57.4618 193.836 57.4879C193.8 57.514 193.77 57.5485 193.75 57.5884C193.17 58.8248 192.805 60.1503 192.672 61.5084C192.668 61.5812 192.685 61.6537 192.722 61.7168C192.762 61.7874 192.819 61.8478 192.887 61.893ZM207.052 64.271C207.103 64.3078 207.161 64.3351 207.222 64.3515C207.279 64.367 207.339 64.3706 207.397 64.362C208.786 64.1121 210.296 64.1664 211.821 64.5207C211.915 64.5451 212.014 64.532 212.097 64.4843C212.134 64.4616 212.164 64.4303 212.185 64.3932C212.206 64.3561 212.217 64.3144 212.218 64.2718C212.218 64.1733 212.182 64.0782 212.117 64.004C212.047 63.9212 211.954 63.861 211.849 63.8311C210.204 63.4481 208.575 63.3911 207.077 63.6635C207.032 63.6696 206.988 63.6858 206.95 63.7108C206.914 63.7349 206.885 63.7678 206.865 63.8062C206.845 63.846 206.836 63.8897 206.836 63.9339C206.837 63.9825 206.848 64.0304 206.868 64.0746C206.909 64.1563 206.97 64.2264 207.045 64.2782L207.052 64.271ZM218.414 70.8785C218.478 70.9243 218.553 70.9548 218.631 70.9676C218.701 70.9801 218.773 70.9724 218.839 70.9453C218.897 70.9201 218.944 70.8747 218.97 70.8177C218.997 70.7574 219.003 70.6898 218.986 70.6258C218.637 69.0881 217.743 67.5754 216.447 66.331C216.366 66.2535 216.263 66.2029 216.152 66.1863C216.104 66.178 216.056 66.1798 216.009 66.1917C215.963 66.2035 215.919 66.2251 215.881 66.2549C215.848 66.2844 215.822 66.3218 215.806 66.3637C215.79 66.4056 215.785 66.4508 215.791 66.4951C215.806 66.5997 215.857 66.6959 215.935 66.767C217.093 67.8736 217.887 69.2229 218.188 70.5921C218.204 70.65 218.231 70.7042 218.268 70.7513C218.308 70.8022 218.358 70.8453 218.414 70.8785ZM195.899 54.6926C195.986 54.7556 196.092 54.7886 196.199 54.7866C196.245 54.7867 196.29 54.7762 196.331 54.7561C196.371 54.7359 196.407 54.7066 196.434 54.6704C196.581 54.4638 196.727 54.2572 196.873 54.0533C197.456 53.2319 198.103 52.408 198.792 51.5977C198.821 51.565 198.84 51.5256 198.849 51.4832C198.858 51.4377 198.856 51.391 198.846 51.346C198.818 51.2435 198.757 51.153 198.672 51.0886C198.587 51.0207 198.483 50.9814 198.374 50.9763C198.327 50.9732 198.281 50.9805 198.238 50.9976C198.195 51.0147 198.157 51.0412 198.126 51.0752C197.426 51.8938 196.769 52.7308 196.177 53.5655C196.03 53.7752 195.88 53.9843 195.733 54.1908C195.711 54.2281 195.697 54.27 195.692 54.3133C195.688 54.3566 195.693 54.4003 195.708 54.4414C195.74 54.5389 195.804 54.6237 195.888 54.6833L195.899 54.6926ZM200.945 48.7437C201.025 48.802 201.121 48.8356 201.22 48.8402C201.263 48.8431 201.305 48.8373 201.346 48.8233C201.386 48.8093 201.423 48.7873 201.454 48.7587C202.373 47.8718 203.362 46.9974 204.395 46.1578C204.43 46.1308 204.457 46.0956 204.475 46.0554C204.492 46.0129 204.499 45.967 204.495 45.9215C204.491 45.8712 204.476 45.8222 204.452 45.7777C204.427 45.7291 204.394 45.685 204.354 45.6473C204.313 45.608 204.266 45.5752 204.214 45.5502C204.165 45.526 204.112 45.5101 204.057 45.5031C204.007 45.4966 203.956 45.5 203.907 45.5131C203.862 45.5251 203.821 45.5474 203.787 45.5782C202.741 46.4315 201.74 47.3167 200.812 48.2062C200.782 48.2372 200.759 48.2752 200.747 48.3168C200.736 48.3614 200.734 48.4081 200.744 48.4533C200.753 48.5033 200.772 48.5509 200.8 48.5936C200.828 48.6401 200.865 48.6817 200.907 48.7167L200.945 48.7437ZM207.094 43.7368C207.168 43.7924 207.256 43.8274 207.348 43.8381C207.429 43.8485 207.51 43.83 207.579 43.7859C208.675 43.023 209.81 42.2948 210.948 41.6201C210.987 41.5991 211.021 41.5687 211.045 41.5316C211.069 41.4937 211.083 41.4507 211.086 41.4062C211.088 41.3576 211.081 41.309 211.064 41.2634C211.045 41.2134 211.017 41.1671 210.982 41.1262C210.945 41.0833 210.902 41.0463 210.854 41.0163C210.807 40.987 210.755 40.9653 210.701 40.9521C210.65 40.9392 210.598 40.9357 210.546 40.942C210.499 40.9472 210.454 40.9631 210.414 40.9885C209.263 41.6693 208.117 42.4069 207.008 43.1771C206.973 43.2015 206.944 43.2346 206.925 43.2732C206.906 43.3132 206.897 43.3573 206.898 43.4016C206.9 43.4501 206.911 43.4977 206.932 43.5418C206.954 43.5901 206.984 43.6344 207.02 43.6728C207.043 43.6942 207.067 43.7138 207.092 43.7314L207.094 43.7368ZM214.072 39.6233C214.138 39.6704 214.215 39.7012 214.295 39.7133C214.367 39.7251 214.44 39.7153 214.506 39.6851C215.739 39.0777 217.009 38.5468 218.309 38.0953C218.351 38.0816 218.39 38.0582 218.422 38.0268C218.452 37.9958 218.474 37.9578 218.486 37.9162C218.498 37.8718 218.5 37.8254 218.491 37.7802C218.482 37.7306 218.464 37.683 218.437 37.64C218.408 37.5935 218.372 37.5518 218.331 37.5163C218.289 37.4799 218.241 37.4503 218.19 37.4285C218.141 37.4072 218.088 37.394 218.035 37.3893C217.986 37.3852 217.936 37.3906 217.889 37.4054C216.564 37.8677 215.269 38.4098 214.011 39.0284C213.972 39.0469 213.938 39.075 213.912 39.1102C213.887 39.1454 213.871 39.1865 213.866 39.2296C213.857 39.3283 213.886 39.4268 213.949 39.5043C213.983 39.5508 214.025 39.5911 214.073 39.6233L214.072 39.6233Z" fill="url(#paint5_linear_5384_94915)"/>
<path d="M225.407 38.7941L220.176 37.3365L223.975 36.1888L225.407 38.7941Z" fill="url(#paint6_linear_5384_94915)"/>
<path d="M237.35 36.6006L221.442 28.793L222.96 33.1005L220.177 37.3394L223.976 36.1922L226.867 44.1275L237.35 36.6006Z" fill="url(#paint7_linear_5384_94915)"/>
<path d="M237.353 36.5932L222.96 33.092L220.178 37.3335L223.977 36.1857L237.353 36.5932Z" fill="url(#paint8_linear_5384_94915)"/>
<path d="M168.899 138.978C183.376 135.782 233.649 126.274 237.996 126.888C242.342 127.501 269.478 138.089 269.478 138.089L200.77 152.129L168.899 138.978Z" fill="url(#paint9_linear_5384_94915)"/>
<path d="M150.17 95.1445C153.857 106.943 162.489 134.151 163.429 137.166C164.368 140.18 164.931 141.875 170.003 143.947C175.074 146.019 192.167 152.802 194.609 153.743C197.05 154.684 198.177 155.344 202.216 154.59C206.254 153.837 200.243 106.021 200.243 106.021C200.243 106.021 190.476 107.78 185.874 106.744C181.273 105.708 150.17 95.1445 150.17 95.1445Z" fill="url(#paint10_linear_5384_94915)"/>
<path d="M287.918 93.0078C283.489 108.575 277.067 129.927 275.999 133.598C274.332 139.228 273.798 141.888 266.256 143.172C258.715 144.456 207.147 153.887 203.578 154.419C200.009 154.951 198.68 155.522 198.368 152.253C198.055 148.984 196.349 106.668 196.349 106.668L287.918 93.0078Z" fill="url(#paint11_linear_5384_94915)"/>
<g filter="url(#filter1_f_5384_94915)">
<path d="M151.447 92.4251C150.113 92.6115 149.985 92.613 150.005 93.9834C150.039 96.4093 151.663 97.8696 153.26 101.007C154.442 101.336 186.068 112.101 188.747 112.985C191.427 113.869 194.338 113.198 200.991 112.425C207.644 111.652 281.622 100.891 284.075 100.552C286.528 100.213 287.35 99.3298 286.916 98.1494C287.745 97.7657 287.357 94.9004 287.357 94.9004C287.234 93.0761 287.178 93.1517 287.152 92.4228C287.126 91.6938 285.942 92.0148 265.571 94.7184C241.761 97.7741 200.474 103.702 197.499 104.182C194.524 104.661 191.167 104.476 186.302 103.083C181.437 101.69 151.447 92.4251 151.447 92.4251Z" fill="url(#paint12_linear_5384_94915)"/>
</g>
<path d="M145.917 87.4541C144.488 87.6773 144.351 87.6791 144.372 89.3202C144.393 90.9614 144.422 93.2736 144.37 93.8569C144.368 94.9523 145.148 95.2661 145.931 95.3086C146.443 95.3363 146.722 95.8113 147.005 96.6623C147.288 97.5133 147.697 97.5082 148.964 97.9025C150.23 98.2968 183.42 110.347 186.289 111.406C189.158 112.464 191.848 112.331 198.973 111.406C206.097 110.481 285.318 97.5933 287.946 97.1869C290.573 96.7804 291.453 95.7231 290.988 94.3095C291.876 93.8499 291.461 90.4185 291.461 90.4185C291.329 88.2336 291.269 88.3243 291.241 87.4512C290.828 86.6293 289.945 86.9627 268.13 90.2005C242.632 93.86 198.418 100.96 195.233 101.534C192.047 102.108 188.452 101.887 183.242 100.218C178.033 98.5495 145.917 87.4541 145.917 87.4541Z" fill="url(#paint13_linear_5384_94915)"/>
<path d="M280.329 72.7058C279.896 73.4952 279.215 74.1215 278.393 74.4879C277.571 74.8543 276.652 74.9404 275.779 74.7329L228.536 63.5006C228.015 63.3766 227.523 63.151 227.09 62.8367C226.657 62.5223 226.291 62.1254 226.012 61.6685C225.449 60.7459 225.276 59.6352 225.533 58.5808C225.79 57.5264 226.454 56.6147 227.381 56.0463C228.307 55.4778 229.419 55.2991 230.472 55.5495L277.715 66.7818C278.324 66.9272 278.891 67.2111 279.372 67.6115C279.853 68.0118 280.234 68.518 280.487 69.0907C280.74 69.6634 280.857 70.2873 280.83 70.9142C280.802 71.5411 280.631 72.1541 280.329 72.7058Z" fill="url(#paint14_linear_5384_94915)"/>
<path d="M283.265 69.7872C283.575 70.6321 283.599 71.5545 283.334 72.4119C283.068 73.2693 282.527 74.014 281.795 74.5308L242.167 102.499C241.729 102.808 241.235 103.027 240.712 103.144C240.189 103.261 239.648 103.274 239.119 103.181C238.051 102.995 237.099 102.391 236.472 101.504C235.846 100.617 235.596 99.5179 235.777 98.4495C235.959 97.3812 236.557 96.4307 237.441 95.8072L277.069 67.8389C277.581 67.4783 278.169 67.2409 278.788 67.1449C279.407 67.0489 280.041 67.0969 280.64 67.2852C281.239 67.4736 281.787 67.7972 282.243 68.2311C282.698 68.6649 283.048 69.1973 283.265 69.7872Z" fill="url(#paint15_linear_5384_94915)"/>
<defs>
<filter id="filter0_f_5384_94915" x="118.275" y="129.012" width="86.6875" height="28.0664" filterUnits="userSpaceOnUse" color-interpolation-filters="sRGB">
<feFlood flood-opacity="0" result="BackgroundImageFix"/>
<feBlend mode="normal" in="SourceGraphic" in2="BackgroundImageFix" result="shape"/>
<feGaussianBlur stdDeviation="1" result="effect1_foregroundBlur_5384_94915"/>
</filter>
<filter id="filter1_f_5384_94915" x="142.586" y="84.6686" width="152.28" height="36.1511" filterUnits="userSpaceOnUse" color-interpolation-filters="sRGB">
<feFlood flood-opacity="0" result="BackgroundImageFix"/>
<feBlend mode="normal" in="SourceGraphic" in2="BackgroundImageFix" result="shape"/>
<feGaussianBlur stdDeviation="3.70866" result="effect1_foregroundBlur_5384_94915"/>
</filter>
<linearGradient id="paint0_linear_5384_94915" x1="213.65" y1="135.063" x2="213.29" y2="173.888" gradientUnits="userSpaceOnUse">
<stop stop-color="#C2C9D4" stop-opacity="0.88"/>
<stop offset="1" stop-color="#C4CAD5" stop-opacity="0.28"/>
</linearGradient>
<linearGradient id="paint1_linear_5384_94915" x1="192.685" y1="146.317" x2="119.724" y2="144.306" gradientUnits="userSpaceOnUse">
<stop stop-color="#989DA7"/>
<stop offset="1" stop-color="#C4CAD5" stop-opacity="0"/>
</linearGradient>
<linearGradient id="paint2_linear_5384_94915" x1="205.205" y1="81.0133" x2="231.026" y2="58.4688" gradientUnits="userSpaceOnUse">
<stop stop-color="#D0D6E1"/>
<stop offset="1" stop-color="#BCC1CB"/>
</linearGradient>
<linearGradient id="paint3_linear_5384_94915" x1="286.586" y1="112.834" x2="169.703" y2="100.528" gradientUnits="userSpaceOnUse">
<stop stop-color="#B1B9C7"/>
<stop offset="0.331158" stop-color="#999FAB"/>
<stop offset="0.357976" stop-color="#9097A3"/>
<stop offset="0.38492" stop-color="#9AA2AE"/>
<stop offset="1" stop-color="#AFB7C7"/>
</linearGradient>
<linearGradient id="paint4_linear_5384_94915" x1="279.562" y1="101.062" x2="144.376" y2="90.8817" gradientUnits="userSpaceOnUse">
<stop stop-color="#B7C1D2"/>
<stop offset="0.176385" stop-color="#BFC8DB"/>
<stop offset="0.269976" stop-color="#B6BECD"/>
<stop offset="0.330336" stop-color="#BCC3D1"/>
<stop offset="1" stop-color="#D6DCE7"/>
</linearGradient>
<linearGradient id="paint5_linear_5384_94915" x1="223.483" y1="43.4941" x2="197.075" y2="110.05" gradientUnits="userSpaceOnUse">
<stop stop-color="#B8BFCC"/>
<stop offset="1" stop-color="#F3F5F7"/>
</linearGradient>
<linearGradient id="paint6_linear_5384_94915" x1="223.529" y1="36.6733" x2="227.978" y2="34.7455" gradientUnits="userSpaceOnUse">
<stop stop-color="#B8BFCC"/>
<stop offset="1" stop-color="#C8CDD9"/>
</linearGradient>
<linearGradient id="paint7_linear_5384_94915" x1="203.749" y1="36.2333" x2="239.685" y2="39.0211" gradientUnits="userSpaceOnUse">
<stop stop-color="#B8BFCC"/>
<stop offset="1" stop-color="#F3F5F7"/>
</linearGradient>
<linearGradient id="paint8_linear_5384_94915" x1="233.914" y1="36.4722" x2="228.434" y2="42.0093" gradientUnits="userSpaceOnUse">
<stop stop-color="#B8BFCC"/>
<stop offset="1" stop-color="#C8CDD9"/>
</linearGradient>
<linearGradient id="paint9_linear_5384_94915" x1="264.916" y1="136.405" x2="156.206" y2="146.585" gradientUnits="userSpaceOnUse">
<stop stop-color="#9298A4"/>
<stop offset="1" stop-color="#9499A3"/>
</linearGradient>
<linearGradient id="paint10_linear_5384_94915" x1="204.079" y1="133.6" x2="155.073" y2="134.731" gradientUnits="userSpaceOnUse">
<stop offset="0.110688" stop-color="#E7EAEE"/>
<stop offset="0.204799" stop-color="#C1C7D4"/>
<stop offset="1" stop-color="#C8CEDA"/>
</linearGradient>
<linearGradient id="paint11_linear_5384_94915" x1="317.259" y1="110.646" x2="196.358" y2="121.922" gradientUnits="userSpaceOnUse">
<stop stop-color="#D0D5DE"/>
<stop offset="0.881792" stop-color="#E9ECF0"/>
<stop offset="1" stop-color="#D9DDE3"/>
</linearGradient>
<linearGradient id="paint12_linear_5384_94915" x1="172.41" y1="108.226" x2="189.429" y2="32.7807" gradientUnits="userSpaceOnUse">
<stop stop-color="#B8BFCC"/>
<stop offset="1" stop-color="#F3F5F7" stop-opacity="0"/>
</linearGradient>
<linearGradient id="paint13_linear_5384_94915" x1="291.955" y1="99.9383" x2="144.215" y2="99.4352" gradientUnits="userSpaceOnUse">
<stop offset="0.0801479" stop-color="#DADEE5"/>
<stop offset="0.652035" stop-color="#E2E5EC"/>
<stop offset="0.708858" stop-color="#BEC4D0"/>
<stop offset="1" stop-color="#B9BFCC"/>
</linearGradient>
<linearGradient id="paint14_linear_5384_94915" x1="271.675" y1="73.1614" x2="273.352" y2="66.9869" gradientUnits="userSpaceOnUse">
<stop stop-color="#CAD0DB"/>
<stop offset="1" stop-color="#E3E9F2"/>
</linearGradient>
<linearGradient id="paint15_linear_5384_94915" x1="241.259" y1="101.773" x2="278.304" y2="69.0849" gradientUnits="userSpaceOnUse">
<stop stop-color="#D0D6E1"/>
<stop offset="1" stop-color="#E3E9F2"/>
</linearGradient>
</defs>
</svg>
