<svg width="450" height="202" viewBox="0 0 450 202" fill="none" xmlns="http://www.w3.org/2000/svg">
<rect width="450" height="202" fill="white"/>
<path d="M225 178.005C294.693 178.005 351.19 168.247 351.19 156.209C351.19 144.171 294.693 134.412 225 134.412C155.307 134.412 98.8101 144.171 98.8101 156.209C98.8101 168.247 155.307 178.005 225 178.005Z" fill="url(#paint0_linear_4344_111403)"/>
<path opacity="0.58" d="M333.059 81.3548H329.958V78.2617H326.454V81.3548H323.352V84.8526H326.454V87.9491H329.958V84.8526H333.059V81.3548Z" fill="url(#paint1_radial_4344_111403)"/>
<path opacity="0.58" d="M138.136 117.588H132.701V112.168H126.56V117.588H121.125V123.718H126.56V129.145H132.701V123.718H138.136V117.588Z" fill="url(#paint2_radial_4344_111403)"/>
<path opacity="0.58" d="M305.559 127.261H302.974V124.684H300.054V127.261H297.469V130.176H300.054V132.756H302.974V130.176H305.559V127.261Z" fill="url(#paint3_radial_4344_111403)"/>
<path d="M216.457 114.841C216.457 114.841 213.583 108.07 212.071 103.203C210.558 98.3362 204.261 104.589 204.008 104.357C203.755 104.124 209.947 115.79 209.947 115.79L216.457 114.841Z" fill="url(#paint4_linear_4344_111403)"/>
<path d="M211.11 104.013C212.5 108.497 215.036 114.55 215.439 115.508L216.634 115.333C216.634 115.333 213.76 108.558 212.248 103.695C211.595 101.6 210.055 101.568 208.493 102.191C209.623 102.028 210.621 102.432 211.11 104.013Z" fill="url(#paint5_radial_4344_111403)"/>
<path d="M195.936 58.3408C195.936 58.3408 197.419 54.7823 201.129 56.2252C204.838 57.6682 204.198 61.9319 202.038 69.4279L195.936 58.3408Z" fill="#EBC199"/>
<path d="M201.72 68.5466C201.72 68.5466 202.943 65.5628 206.07 66.7734C209.196 67.984 208.642 71.5548 206.832 77.8362L201.72 68.5466Z" fill="#EBC199"/>
<path d="M199.566 56.5846C202.17 56.8007 202.916 58.586 203.577 60.6037C203.65 60.3484 203.706 60.0882 203.744 59.8252C203.556 58.052 202.77 56.8618 201.131 56.2259C198.38 55.1539 196.855 56.8373 196.24 57.7749C197.213 57.0709 198.367 56.6581 199.566 56.5846Z" fill="#F3DBB9"/>
<path d="M203.739 59.8242C203.618 60.7386 203.283 61.6116 202.761 62.3718C201.35 63.9045 199.602 63.5947 198.24 62.5308L202.035 69.4277C203.242 65.2415 203.971 62.0539 203.739 59.8242Z" fill="#D4B08B"/>
<path d="M206.07 66.7777C202.964 65.5549 201.72 68.5508 201.72 68.5508L201.928 68.9299C204.068 66.7614 206.632 67.8579 208.067 69.9653C208.104 69.7329 208.136 69.5006 208.173 69.2723C208.08 68.7054 207.836 68.1742 207.465 67.735C207.095 67.2959 206.613 66.9651 206.07 66.7777Z" fill="#F3DBB9"/>
<path d="M208.172 69.2706C207.813 71.484 206.904 74.1091 204.556 72.2136C203.439 71.4188 202.734 70.2448 202.025 69.1035L206.831 77.8388C207.939 73.9909 208.567 71.162 208.172 69.2706Z" fill="#D4B08B"/>
<path d="M222.163 94.7203L202.753 104.132C199.316 105.286 195.089 104.988 192.921 102.004L142.535 37.0546C140.379 34.0057 139.89 32.5586 140.55 31.0586L139.633 32.8643C138.312 35.5668 138.166 36.8549 140.334 39.8387L190.434 105.84C192.603 108.824 197.042 109.562 200.27 107.964L220.19 98.3725C224.128 96.31 224.915 93.3181 225.033 90.0205C225.002 90.9851 224.721 91.9252 224.218 92.749C223.715 93.5727 223.007 94.2519 222.163 94.7203Z" fill="url(#paint6_linear_4344_111403)"/>
<path d="M223.637 85.4165C225.802 88.4043 225.508 92.8922 222.158 94.7428L202.747 104.155C199.311 105.308 195.08 105.015 192.915 102.031L142.534 37.0568C139.395 32.9317 139.684 30.7509 142.334 29.5811L164.227 21.1067C168.527 19.305 171.299 19.8675 173.468 22.8513L223.637 85.4165Z" fill="url(#paint7_radial_4344_111403)"/>
<path d="M219.135 82.5983L191.498 96.6896L148.495 41.0417L176.857 29.4531L219.135 82.5983Z" fill="white"/>
<g opacity="0.1">
<path d="M173.467 22.8513C171.299 19.8675 168.527 19.305 164.226 21.1067L148.68 27.1313L202.253 58.7461L173.467 22.8513Z" fill="white"/>
</g>
<path d="M155.697 31.4934L155.13 30.7311L161.729 28.2324L162.308 28.9784L155.697 31.4934Z" fill="url(#paint8_radial_4344_111403)"/>
<path d="M225.927 65.8285L223.339 88.75L253.519 92.1566L256.107 69.235L225.927 65.8285Z" fill="url(#paint9_linear_4344_111403)"/>
<path d="M225.927 65.8285L223.339 88.75L253.519 92.1566L256.107 69.235L225.927 65.8285Z" fill="url(#paint10_radial_4344_111403)"/>
<path d="M218.59 69.1152C218.59 69.1152 218.232 77.4755 221.056 82.4362C223.881 87.3969 236.366 87.8656 237.797 86.3289C239.228 84.7922 234.072 76.004 229.722 76.7662L232.539 69.5636L218.59 69.1152Z" fill="url(#paint11_linear_4344_111403)"/>
<path d="M229.718 76.7584L232.539 69.5558L218.59 69.1074C218.59 69.1074 218.529 70.5504 218.656 72.5885L228.593 72.9064L225.773 80.1131C228.919 79.5587 232.486 84.0099 233.676 87.0956C235.714 87.0956 237.345 86.8143 237.793 86.3211C239.224 84.7885 234.051 75.9962 229.718 76.7584Z" fill="url(#paint12_radial_4344_111403)"/>
<path d="M191.666 67.882C191.511 69.2597 194.201 72.5736 204.461 71.6239C214.72 70.6741 215.601 69.6266 217.659 70.0505C219.718 70.4744 229.725 71.7543 232.036 71.6524C234.347 71.5505 235.643 73.613 238.358 73.344C238.358 73.344 238.599 74.5954 241.472 74.5954C241.472 74.5954 241.472 76.1851 243.392 77.9338C245.312 79.6825 242.459 82.8252 242.687 84.1744C242.687 84.1744 240.934 86.0046 231.734 83.4407C222.534 80.8768 221.695 79.6743 215.389 79.6539C209.083 79.6336 208.292 82.3891 207.876 84.2111C207.461 86.0332 209.507 89.3878 218.801 91.8213C228.094 94.2548 228.506 94.2426 233.719 95.3064C239.834 96.5293 244.493 101.788 255.233 104.245C265.974 106.703 274.155 105.468 279.731 107.009L311.097 123.281L314.574 92.4654C301.632 89.0305 291.505 84.9636 281.158 77.1471C276.642 73.7353 266.863 65.5422 265.293 63.4308C263.569 61.1104 254.734 54.0527 252.05 53.9292C248.328 53.758 241.713 56.6358 235.211 57.1127C230.16 57.4842 222.531 57.5107 217.455 58.788C215.556 59.269 199.557 63.0843 197.89 64.0585C196.223 65.0327 192.032 64.5639 191.666 67.882Z" fill="url(#paint13_linear_4344_111403)"/>
<path d="M217.642 70.0521C219.681 70.4597 229.708 71.756 232.019 71.6541C234.33 71.5521 235.627 73.6147 238.341 73.3457C238.341 73.3457 238.582 74.5971 241.455 74.5971C241.455 74.5971 241.455 76.1868 243.375 77.9354C243.589 78.1267 243.758 78.3617 243.873 78.6243C244.374 77.377 245.674 73.3954 244.651 72.4579C242.222 70.2362 237.011 65.1763 233.646 65.3246C231.334 65.4265 220.011 65.7486 217.952 65.3246C215.894 64.9007 215.017 67.8469 204.762 68.7967C196.838 69.5304 193.438 67.7205 192.37 66.2246C191.958 66.6861 191.705 67.2676 191.649 67.8836C191.494 69.2613 194.184 72.5753 204.444 71.6255C214.704 70.6758 215.584 69.6282 217.642 70.0521Z" fill="url(#paint14_radial_4344_111403)"/>
<path d="M255.219 90.5476C244.479 88.1019 240.117 93.7188 234.023 92.4756C228.806 91.4158 227.815 92.981 218.534 90.5476C211.246 88.6358 207.842 85.004 208.315 82.7539C208.117 83.2243 207.965 83.7131 207.862 84.2132C207.455 86.0393 209.493 89.3899 218.787 91.8234C228.08 94.2569 228.492 94.2446 233.705 95.3085C239.82 96.5314 244.479 101.79 255.219 104.248C265.96 106.706 274.141 105.47 279.717 107.011L311.092 123.283L312.926 104.248L282.762 90.5476C277.166 89.019 265.96 93.0096 255.219 90.5476Z" fill="url(#paint15_radial_4344_111403)"/>
<path d="M215.373 83.4412C221.675 83.4412 221.385 84.1641 230.589 86.7239C242.729 90.1004 242.671 84.8896 242.671 84.1749C242.671 84.1749 240.918 86.0051 231.718 83.4412C222.518 80.8773 221.679 79.6748 215.373 79.6544C209.067 79.634 208.276 82.3895 207.861 84.2116C207.806 84.4718 207.799 84.7397 207.84 85.0023C208.313 83.217 209.621 83.4249 215.373 83.4412Z" fill="url(#paint16_linear_4344_111403)"/>
<path d="M209.699 82.2057C208.566 82.6622 208.097 83.2329 207.893 84.0522C207.783 84.5278 207.794 85.0236 207.926 85.4937C208.058 85.9638 208.306 86.3933 208.647 86.7424C209.462 87.6392 209.699 87.7737 213.755 88.6949C215.067 88.9925 215.915 87.7166 216.245 86.4C216.575 85.0834 216.755 83.0698 214.708 82.6051C211.272 81.8225 210.82 81.745 209.699 82.2057Z" fill="#FBDBB6"/>
<path d="M191.894 65.9328C191.69 66.0632 192.709 66.96 193.235 66.9355C193.761 66.9111 197.144 65.1216 198.917 64.0822C198.917 64.0822 198.628 63.8091 198.428 63.8499C198.228 63.8906 194.079 64.5061 191.894 65.9328Z" fill="#FBDBB6"/>
<path d="M192.004 65.8594L191.894 65.9287C191.69 66.0591 192.709 66.9559 193.235 66.9314C193.337 66.9172 193.437 66.8912 193.533 66.854C193.064 66.8743 192.131 66.1325 192.004 65.8594Z" fill="#F0D9DF"/>
<path d="M178.772 88.3456C176.041 86.3076 173.664 76.8468 169.992 71.3276C166.319 65.8085 160.082 61.5896 158.048 64.3981C157.16 65.621 156.438 68.03 159.589 72.7461C162.74 77.4623 161.97 82.5289 161.745 86.4584C161.521 90.3878 162.561 99.5796 162.76 103.468C162.96 107.357 161.603 111.189 167.199 114.03C172.796 116.871 171.235 119.736 172.498 120.319C173.762 120.902 188.289 129.054 189.985 131.639C191.681 134.223 195.064 135.58 197.017 137.61C198.969 139.64 224.576 181.918 224.576 181.918L240.473 144.784C240.473 144.784 224.417 128.765 223.76 127.783C223.104 126.8 223.813 120.038 217.895 115.872C213.533 112.811 210.704 110.573 210.704 110.573C210.704 110.573 207.692 103.807 194.261 95.9273C185.485 90.775 178.772 88.3456 178.772 88.3456Z" fill="url(#paint17_linear_4344_111403)"/>
<path d="M201.441 120.315C199.016 113.386 190.236 107.463 178.309 106.672C172.048 106.265 168.212 105.38 168.021 101.496C167.829 97.611 164.222 87.5713 164.446 83.6582C164.67 79.7451 163.651 76.9162 160.496 72.196C158.05 68.5519 157.818 65.7679 159.848 63.4648C159.178 63.4835 158.536 63.7375 158.034 64.1823C156.294 65.4826 156.069 67.4432 159.224 72.1552C162.379 76.8673 161.972 82.5413 161.747 86.4545C161.523 90.3676 162.563 99.5757 162.762 103.464C162.962 107.353 161.605 111.185 167.201 114.026C172.798 116.867 171.237 119.732 172.5 120.315C173.764 120.898 188.291 129.05 189.987 131.635C191.683 134.219 195.066 135.576 197.019 137.606C198.971 139.636 224.578 181.914 224.578 181.914L235.477 155.806C229.771 147.699 221.684 155.708 214.893 143.374C210.409 133.795 203.163 125.235 201.441 120.315Z" fill="url(#paint18_radial_4344_111403)"/>
<path d="M156.644 65.6286C156.644 65.3881 157.952 65.2495 158.274 65.6979C158.596 66.1463 161.254 70.8054 160.492 71.7592C160.492 71.7592 159.411 72.1668 159.069 71.6858C158.943 71.5187 156.501 68.9222 156.644 65.6286Z" fill="#FBDCB7"/>
<path d="M168.793 51.0991L180.667 45.279C181.566 44.8433 182.595 44.7531 183.557 45.0255C184.518 45.2979 185.346 45.9139 185.881 46.756L189.069 52.0698C189.538 52.859 189.682 53.7992 189.47 54.6922C189.258 55.5852 188.707 56.3611 187.932 56.8563C188.23 57.3459 189.752 59.9567 189.752 59.9567L184.493 58.7517L176.565 63.078C174.447 64.2621 171.687 63.6596 170.433 61.7517L167.077 56.6304C165.802 54.6723 166.587 52.1869 168.793 51.0991Z" fill="#FBE9CF"/>
<path d="M170.494 58.6421C169.896 57.5685 169.521 56.6977 169.37 56.0297C169.22 55.3617 169.262 54.8113 169.499 54.3786C169.743 53.9421 170.212 53.5302 170.908 53.1427C171.603 52.7552 172.197 52.5747 172.69 52.6012C173.189 52.6238 173.679 52.877 174.161 53.3607C174.646 53.8338 175.189 54.6106 175.791 55.691C176.615 57.1698 176.996 58.2981 176.934 59.076C176.872 59.8538 176.338 60.523 175.331 61.0835C174.325 61.644 173.472 61.7479 172.771 61.3951C172.077 61.0386 171.318 60.1209 170.494 58.6421ZM171.136 55.8159C171.235 56.0883 171.354 56.3581 171.494 56.6252C171.63 56.8855 171.871 57.3263 172.217 57.9475C172.563 58.5687 172.873 59.0774 173.147 59.4735C173.421 59.8695 173.629 60.1163 173.772 60.2137C173.911 60.3044 174.038 60.3178 174.153 60.2538C174.747 59.9228 175.101 59.6457 175.216 59.4226C175.257 59.3377 175.278 59.2243 175.278 59.0824C175.286 58.9368 175.271 58.799 175.234 58.6692C175.197 58.5393 175.127 58.3574 175.023 58.1232C174.888 57.8178 174.612 57.2904 174.194 56.5409C173.773 55.7846 173.422 55.2017 173.14 54.7921C172.862 54.372 172.643 54.105 172.482 53.9911C172.324 53.8666 172.188 53.8364 172.073 53.9003C171.803 54.0508 171.591 54.1866 171.437 54.3076C171.286 54.4182 171.173 54.5564 171.098 54.7225C171.018 54.8817 170.98 55.0357 170.983 55.1843C170.983 55.3262 171.034 55.5367 171.136 55.8159Z" fill="#C14E2C"/>
<path d="M179.88 58.0585L176.432 51.8699L175.166 52.5753C175 52.6588 174.871 52.6732 174.779 52.6185C174.665 52.5578 174.541 52.4059 174.405 52.1629C174.191 51.778 174.199 51.5216 174.428 51.3937L178.115 49.3397C178.507 49.1215 178.761 49.1171 178.877 49.3264C179.212 49.9274 179.218 50.3182 178.893 50.4987L177.753 51.1206L178.99 53.1259L181.297 57.2426C181.368 57.3709 181.412 57.4572 181.428 57.5015C181.453 57.611 181.348 57.7317 181.112 57.8633C180.43 58.2433 180.019 58.3083 179.88 58.0585Z" fill="#C14E2C"/>
<path d="M183.346 56.1144L179.226 48.7206C179.848 48.2326 180.419 47.8438 180.939 47.5541C181.857 47.0425 182.603 46.8794 183.175 47.065C183.754 47.2467 184.273 47.7495 184.732 48.5733C185.274 49.5456 185.401 50.3461 185.114 50.9749C184.925 51.3813 184.693 51.6961 184.419 51.9194C184.062 52.1984 183.633 52.477 183.133 52.7554L184.606 55.399C184.678 55.5273 184.718 55.6154 184.727 55.6635C184.759 55.7693 184.657 55.888 184.421 56.0197C183.847 56.3394 183.489 56.371 183.346 56.1144ZM182.379 51.3306C182.41 51.3223 182.434 51.3178 182.451 51.317C182.472 51.3057 182.549 51.2625 182.684 51.1872C182.826 51.1082 182.953 51.0334 183.064 50.9627C183.175 50.892 183.285 50.804 183.394 50.6988C183.507 50.583 183.568 50.4696 183.576 50.3584C183.585 50.0882 183.49 49.7741 183.29 49.4162C183.091 49.0583 182.875 48.7981 182.643 48.6354C182.407 48.466 182.228 48.4152 182.107 48.4829C181.621 48.7538 181.333 48.9275 181.243 49.0042C181.153 49.0809 181.14 49.1766 181.203 49.2914L182.276 51.2159C182.317 51.2901 182.352 51.3284 182.379 51.3306Z" fill="#C14E2C"/>
<path d="M210.603 56.7342C219.021 57.9151 226.805 52.0652 227.989 43.6681C229.173 35.271 223.308 27.5066 214.89 26.3257C206.473 25.1448 198.689 30.9947 197.505 39.3917C196.321 47.7888 202.186 55.5533 210.603 56.7342Z" fill="url(#paint19_linear_4344_111403)"/>
<path opacity="0.5" d="M212.427 46.9771C212.598 47.2318 212.716 47.5174 212.772 47.8168C212.829 48.1162 212.823 48.4232 212.756 48.7195C212.688 49.0158 212.56 49.2951 212.38 49.5408C212.199 49.7864 211.969 49.9933 211.704 50.149C211.18 50.4518 210.553 50.541 209.959 50.3976C209.365 50.2542 208.849 49.8896 208.521 49.3811C208.194 48.8726 208.08 48.2604 208.204 47.6744C208.328 47.0884 208.681 46.5748 209.187 46.2427C209.445 46.0762 209.735 45.9629 210.04 45.9096C210.345 45.8564 210.658 45.8643 210.961 45.9329C211.264 46.0016 211.55 46.1294 211.802 46.3089C212.053 46.4883 212.266 46.7156 212.427 46.9771ZM212.273 29.7572C212.337 29.326 212.586 29.1724 213.051 29.2779L216.571 30.0757C217.03 30.1797 217.189 30.4259 217.068 30.844L213.424 44.128C213.302 44.5482 213.026 44.6958 212.644 44.6093L210.196 44.0543C209.761 43.9558 209.603 43.7097 209.7 43.2839L212.273 29.7572Z" fill="#CE2500"/>
<path d="M213.408 46.3639C213.579 46.6185 213.696 46.9041 213.753 47.2035C213.809 47.5029 213.804 47.81 213.736 48.1062C213.669 48.4025 213.541 48.6818 213.36 48.9275C213.18 49.1731 212.95 49.38 212.685 49.5358C212.16 49.8385 211.534 49.9277 210.94 49.7843C210.345 49.6409 209.83 49.2763 209.502 48.7678C209.174 48.2594 209.061 47.6471 209.185 47.0611C209.309 46.4751 209.661 45.9615 210.167 45.6294C210.426 45.4629 210.716 45.3496 211.021 45.2964C211.326 45.2431 211.639 45.2511 211.942 45.3197C212.244 45.3883 212.53 45.5161 212.782 45.6956C213.034 45.875 213.247 46.1023 213.408 46.3639ZM213.253 29.1439C213.317 28.7128 213.567 28.5591 214.032 28.6646L217.552 29.4624C218.011 29.5665 218.169 29.8126 218.048 30.2307L214.404 43.5147C214.283 43.9349 214.007 44.0825 213.625 43.996L211.177 43.441C210.742 43.3425 210.583 43.0964 210.68 42.6707L213.253 29.1439Z" fill="url(#paint20_linear_4344_111403)"/>
<defs>
<linearGradient id="paint0_linear_4344_111403" x1="225" y1="126.486" x2="225" y2="178.005" gradientUnits="userSpaceOnUse">
<stop stop-color="#FEDAB0" stop-opacity="0.33"/>
<stop offset="1" stop-color="#FFF8F2" stop-opacity="0.21"/>
</linearGradient>
<radialGradient id="paint1_radial_4344_111403" cx="0" cy="0" r="1" gradientUnits="userSpaceOnUse" gradientTransform="translate(328.206 83.1054) rotate(90) scale(4.84369 4.85346)">
<stop stop-color="#FB8C09"/>
<stop offset="1" stop-color="#FFBE60"/>
</radialGradient>
<radialGradient id="paint2_radial_4344_111403" cx="0" cy="0" r="1" gradientUnits="userSpaceOnUse" gradientTransform="translate(129.631 120.656) rotate(90) scale(8.48828 8.5054)">
<stop stop-color="#FB8C09"/>
<stop offset="1" stop-color="#FFBE60"/>
</radialGradient>
<radialGradient id="paint3_radial_4344_111403" cx="0" cy="0" r="1" gradientUnits="userSpaceOnUse" gradientTransform="translate(301.514 128.72) rotate(90) scale(4.03641 4.04455)">
<stop stop-color="#FB8C09"/>
<stop offset="1" stop-color="#FFBE60"/>
</radialGradient>
<linearGradient id="paint4_linear_4344_111403" x1="207.531" y1="106.654" x2="215.049" y2="118.372" gradientUnits="userSpaceOnUse">
<stop offset="0.01" stop-color="#FCC7A6"/>
<stop offset="1" stop-color="#F5D8C5"/>
</linearGradient>
<radialGradient id="paint5_radial_4344_111403" cx="0" cy="0" r="1" gradientUnits="userSpaceOnUse" gradientTransform="translate(212.04 104.245) rotate(69.0867) scale(12.0294 5.97685)">
<stop stop-color="#F9A775"/>
<stop offset="1" stop-color="#F4DBC2" stop-opacity="0"/>
</radialGradient>
<linearGradient id="paint6_linear_4344_111403" x1="181.85" y1="31.0586" x2="181.85" y2="108.787" gradientUnits="userSpaceOnUse">
<stop stop-color="#DE8532"/>
<stop offset="1" stop-color="#E98516"/>
</linearGradient>
<radialGradient id="paint7_radial_4344_111403" cx="0" cy="0" r="1" gradientUnits="userSpaceOnUse" gradientTransform="translate(182.641 62.4305) rotate(90) scale(42.3504 42.3781)">
<stop stop-color="#FB8C09"/>
<stop offset="1" stop-color="#FFBE60"/>
</radialGradient>
<radialGradient id="paint8_radial_4344_111403" cx="0" cy="0" r="1" gradientUnits="userSpaceOnUse" gradientTransform="translate(158.719 29.8629) rotate(90) scale(1.63047 3.58907)">
<stop stop-color="#FB8C09"/>
<stop offset="1" stop-color="#FFBE60"/>
</radialGradient>
<linearGradient id="paint9_linear_4344_111403" x1="235.166" y1="83.5061" x2="259.601" y2="69.6091" gradientUnits="userSpaceOnUse">
<stop offset="0.01" stop-color="#FCC7A6"/>
<stop offset="1" stop-color="#DD996E"/>
</linearGradient>
<radialGradient id="paint10_radial_4344_111403" cx="0" cy="0" r="1" gradientUnits="userSpaceOnUse" gradientTransform="translate(243.02 79.1805) rotate(-35.1498) scale(15.8194 89.0735)">
<stop stop-color="#EF9762"/>
<stop offset="1" stop-color="#F4DBC2" stop-opacity="0"/>
</radialGradient>
<linearGradient id="paint11_linear_4344_111403" x1="224.092" y1="75.7285" x2="232.442" y2="92.0597" gradientUnits="userSpaceOnUse">
<stop offset="0.01" stop-color="#FEBC93"/>
<stop offset="1" stop-color="#E79C6D"/>
</linearGradient>
<radialGradient id="paint12_radial_4344_111403" cx="0" cy="0" r="1" gradientUnits="userSpaceOnUse" gradientTransform="translate(223.657 66.3401) rotate(68.3945) scale(22.1402 13.9401)">
<stop stop-color="#F9A775"/>
<stop offset="1" stop-color="#F4DBC2" stop-opacity="0"/>
</radialGradient>
<linearGradient id="paint13_linear_4344_111403" x1="226.494" y1="79.4171" x2="306.322" y2="113.29" gradientUnits="userSpaceOnUse">
<stop offset="0.01" stop-color="#FCC7A6"/>
<stop offset="0.79246" stop-color="#F5D8C5"/>
<stop offset="0.96367" stop-color="#F5D8C5" stop-opacity="0"/>
</linearGradient>
<radialGradient id="paint14_radial_4344_111403" cx="0" cy="0" r="1" gradientUnits="userSpaceOnUse" gradientTransform="translate(234.868 73.2731) rotate(-167.723) scale(80.5114 8.67376)">
<stop stop-color="#F9A775"/>
<stop offset="1" stop-color="#F4DBC2" stop-opacity="0"/>
</radialGradient>
<radialGradient id="paint15_radial_4344_111403" cx="0" cy="0" r="1" gradientUnits="userSpaceOnUse" gradientTransform="translate(276.852 108.125) rotate(16.9339) scale(32.7615 15.8187)">
<stop stop-color="#F9A775"/>
<stop offset="1" stop-color="#F4DBC2" stop-opacity="0"/>
</radialGradient>
<linearGradient id="paint16_linear_4344_111403" x1="224.679" y1="81.2211" x2="224.321" y2="83.052" gradientUnits="userSpaceOnUse">
<stop stop-color="#FFDAC8"/>
<stop offset="1" stop-color="#FACBAD" stop-opacity="0"/>
</linearGradient>
<linearGradient id="paint17_linear_4344_111403" x1="180.863" y1="107.031" x2="225.494" y2="157.01" gradientUnits="userSpaceOnUse">
<stop offset="0.01" stop-color="#FCC7A6"/>
<stop offset="0.729235" stop-color="#F5D8C5"/>
<stop offset="1" stop-color="#F5D8C5" stop-opacity="0"/>
</linearGradient>
<radialGradient id="paint18_radial_4344_111403" cx="0" cy="0" r="1" gradientUnits="userSpaceOnUse" gradientTransform="translate(191.658 133.999) rotate(51.1022) scale(40.1162 17.4461)">
<stop stop-color="#F9A775"/>
<stop offset="1" stop-color="#F4DBC2" stop-opacity="0"/>
</radialGradient>
<linearGradient id="paint19_linear_4344_111403" x1="221.937" y1="27.5182" x2="198.109" y2="48.5129" gradientUnits="userSpaceOnUse">
<stop stop-color="#FFAC92"/>
<stop offset="1" stop-color="#EF3E17"/>
</linearGradient>
<linearGradient id="paint20_linear_4344_111403" x1="217.019" y1="29.0622" x2="222.293" y2="46.1499" gradientUnits="userSpaceOnUse">
<stop stop-color="white"/>
<stop offset="1" stop-color="#FFE5DD"/>
</linearGradient>
</defs>
</svg>
