<svg width="328" height="154" viewBox="0 0 328 154" fill="none" xmlns="http://www.w3.org/2000/svg">
    <path
        d="M152 148.844C215.789 148.844 267.5 139.666 267.5 128.344C267.5 117.022 215.789 107.844 152 107.844C88.2111 107.844 36.5 117.022 36.5 128.344C36.5 139.666 88.2111 148.844 152 148.844Z"
        fill="url(#paint0_radial_3947_597644)" />
    <g filter="url(#filter0_f_3947_597644)">
        <path
            d="M127.121 132.033C159.546 131.564 185.188 126.17 185.121 121.533C185.054 116.896 173.925 109.064 141.5 109.534C109.075 110.003 55.9337 112.397 56.0008 117.033C56.0679 121.67 87.5 124.034 127.121 132.033Z"
            fill="url(#paint1_linear_3947_597644)" />
    </g>
    <path
        d="M187.886 35.4235L127.757 37.3621C124.838 37.4567 122.467 39.9677 122.467 42.9787V126.747C122.467 129.821 125.548 132.683 128.5 132.533L188.656 128.945C191.534 128.798 193.844 126.222 193.817 123.192L193.085 40.6248C193.058 37.6598 190.731 35.3315 187.886 35.4235Z"
        fill="url(#paint2_linear_3947_597644)" />
    <path
        d="M189.893 35.3023L130.37 37.2606C127.482 37.3559 125.139 39.876 125.139 42.893V126.886C125.139 129.969 127.51 132.347 130.432 132.197L190.656 129.104C193.505 128.957 195.793 126.374 195.767 123.335L195.044 40.522C195.014 37.5471 192.71 35.2123 189.893 35.3023Z"
        fill="url(#paint3_linear_3947_597644)" fill-opacity="0.4" />
    <path
        d="M190.854 39.7051L129.432 41.7731L129.475 121.899C129.475 124.461 131.451 126.442 133.878 126.321L187.239 123.639C189.616 123.52 191.525 121.372 191.505 118.838L190.854 39.7051Z"
        fill="url(#paint4_linear_3947_597644)" fill-opacity="0.4" />
    <path
        d="M129.432 41.7715C129.444 64.7472 130.955 118.337 132.161 123.012C152.692 123.746 188.094 121.793 191.5 118.494L191.048 63.6649L129.432 41.7715Z"
        fill="url(#paint5_linear_3947_597644)" />
    <path
        d="M129.689 42.0883C129.811 64.2406 132.341 111.963 139.621 119.922C158.49 121.724 191.282 120.496 210.229 109.495C204.247 104.559 190.654 84.1895 190.463 40.084L129.689 42.0883Z"
        fill="url(#paint6_linear_3947_597644)" />
    <path
        d="M138.092 41.5894C138.356 43.0016 139.724 43.6554 141.08 43.6088L177.407 42.3681C178.671 42.3254 179.953 41.7287 180.211 40.4584C180.798 37.567 179.727 32.9887 176.895 32.3585C176.664 32.3146 176.428 32.3022 176.194 32.3217C173.706 32.4531 171.189 32.5359 169.187 32.5885C166.893 32.6483 165.078 30.5651 163.205 29.3816C162.31 28.8152 161.133 28.4932 159.732 28.5372C158.833 28.5553 157.947 28.7582 157.13 29.1332C154.846 30.2129 152.494 32.8389 150.089 32.9164L143.419 33.1333C141.222 33.199 137.318 37.4224 138.092 41.5894Z"
        fill="url(#paint7_linear_3947_597644)" />
    <path
        d="M168.754 36.5555C168.754 36.7021 168.663 36.8466 168.497 36.9557C168.307 37.0719 168.09 37.1353 167.868 37.1391L149.575 37.7436C149.455 37.7517 149.336 37.7442 149.218 37.7213C149.111 37.7013 149.008 37.6648 148.912 37.6129C148.831 37.5694 148.761 37.5086 148.706 37.4348C148.659 37.3719 148.634 37.2961 148.633 37.2179C148.634 37.1385 148.659 37.0612 148.705 36.9965C148.759 36.9192 148.829 36.8542 148.909 36.8059C149.004 36.7472 149.107 36.703 149.215 36.6745C149.331 36.6442 149.451 36.6287 149.571 36.6285L167.864 36.0272C167.979 36.0232 168.093 36.0336 168.204 36.0581C168.306 36.0797 168.404 36.1169 168.495 36.1685C168.571 36.2113 168.636 36.2706 168.686 36.342C168.731 36.404 168.755 36.4789 168.754 36.5555Z"
        fill="url(#paint8_linear_3947_597644)" />
    <path
        d="M185.721 53.7117C185.721 53.8589 185.492 54.0087 185.081 54.1276C184.575 54.2605 184.055 54.3341 183.532 54.3471L138.212 56.0044C137.917 56.0199 137.621 56.0199 137.325 56.0044C137.07 55.9915 136.815 55.9608 136.564 55.9124C136.386 55.8819 136.214 55.8262 136.052 55.7468C135.932 55.6811 135.871 55.6082 135.871 55.5326C135.871 55.457 135.932 55.3788 136.052 55.3052C136.212 55.2143 136.384 55.1456 136.563 55.1009C136.813 55.0332 137.067 54.9827 137.324 54.9497C137.617 54.9128 137.913 54.8909 138.208 54.884L183.52 53.2372C183.799 53.2268 184.079 53.2305 184.358 53.2484C184.597 53.2628 184.835 53.2942 185.069 53.3423C185.235 53.373 185.396 53.4277 185.546 53.5047C185.66 53.5697 185.721 53.6387 185.721 53.7117Z"
        fill="url(#paint9_linear_3947_597644)" />
    <path
        d="M185.798 63.7244C185.798 63.8716 185.568 64.0221 185.158 64.141C184.652 64.2748 184.132 64.3496 183.608 64.3638L138.231 66.1131C137.935 66.1286 137.639 66.1286 137.343 66.1131C137.087 66.1007 136.832 66.0704 136.58 66.0224C136.402 65.9924 136.229 65.9367 136.067 65.8568C135.948 65.7911 135.887 65.7188 135.887 65.6419C135.887 65.5651 135.948 65.4882 136.067 65.4139C136.228 65.3221 136.4 65.2531 136.58 65.2089C136.83 65.1416 137.084 65.0917 137.342 65.0597C137.625 65.0236 137.927 64.9986 138.229 64.994L183.598 63.2526C183.878 63.2414 184.159 63.2447 184.438 63.2624C184.678 63.2773 184.916 63.3092 185.152 63.3577C185.317 63.3888 185.478 63.4427 185.628 63.5181C185.74 63.5772 185.797 63.6515 185.798 63.7244Z"
        fill="url(#paint10_linear_3947_597644)" />
    <path
        d="M185.875 73.7547C185.875 73.9026 185.645 74.0537 185.235 74.1753C184.728 74.3112 184.206 74.3868 183.681 74.4007L138.25 76.2407C137.953 76.2565 137.657 76.2565 137.36 76.2407C137.104 76.229 136.849 76.1991 136.597 76.1513C136.419 76.1217 136.246 76.0661 136.083 75.9864C135.964 75.9207 135.902 75.8484 135.902 75.7722C135.902 75.6959 135.964 75.6164 136.083 75.5428C136.244 75.4516 136.416 75.3822 136.596 75.3365C136.846 75.2702 137.101 75.221 137.358 75.1893C137.653 75.1504 137.95 75.127 138.248 75.119L183.673 73.2895C183.954 73.2777 184.235 73.2803 184.515 73.2974C184.755 73.3113 184.993 73.342 185.228 73.3894C185.395 73.4195 185.556 73.474 185.707 73.551C185.817 73.6121 185.875 73.6811 185.875 73.7547Z"
        fill="url(#paint11_linear_3947_597644)" />
    <path opacity="0.58"
        d="M83.0625 87.1587C96.0106 90.6912 95.8559 82.0061 105.058 80.5332C105.84 84.0676 113.484 90.6909 117.062 90.9846C110.214 92.4569 102.096 101.142 93.5162 97.7557C91.6424 94.2235 83.3759 90.9849 83.0625 87.1587Z"
        fill="url(#paint12_linear_3947_597644)" />
    <path opacity="0.58"
        d="M204.062 78.6464C205.89 75.8071 210.897 73.5332 210.897 73.5332C213.562 77.3213 221.395 72.5868 223.062 75.2368C221.235 75.9964 218.062 81.488 219.227 83.3835C214.896 84.7083 207.897 76.7535 204.062 78.6464Z"
        fill="url(#paint13_linear_3947_597644)" />
    <path
        d="M199 135C208.113 135 215.5 127.613 215.5 118.5C215.5 109.387 208.113 102 199 102C189.887 102 182.5 109.387 182.5 118.5C182.5 127.613 189.887 135 199 135Z"
        fill="url(#paint14_radial_3947_597644)" />
    <path opacity="0.6"
        d="M198.14 123.21L193.816 127.578C193.264 128.136 192.746 128.136 192.223 127.608L189.885 125.245C189.366 124.722 189.366 124.194 189.918 123.629L194.239 119.268L190.374 115.36C189.819 114.803 189.819 114.279 190.341 113.751L192.679 111.389C193.202 110.865 193.72 110.865 194.279 111.422L198.14 115.33L201.747 111.686C202.299 111.125 202.821 111.125 203.339 111.653L205.678 114.015C206.197 114.543 206.197 115.067 205.645 115.624L202.038 119.268L206.083 123.373C206.634 123.93 206.634 124.458 206.112 124.982L203.795 127.344C203.277 127.868 202.755 127.868 202.203 127.311L198.14 123.21Z"
        fill="#F9C375" />
    <path
        d="M199.14 122.21L194.816 126.578C194.264 127.136 193.746 127.136 193.223 126.608L190.885 124.245C190.366 123.722 190.366 123.194 190.918 122.629L195.239 118.268L191.374 114.36C190.819 113.803 190.819 113.279 191.341 112.751L193.679 110.389C194.202 109.865 194.72 109.865 195.279 110.422L199.14 114.33L202.747 110.686C203.299 110.125 203.821 110.125 204.339 110.653L206.678 113.015C207.197 113.543 207.197 114.067 206.645 114.624L203.038 118.268L207.083 122.373C207.634 122.93 207.634 123.458 207.112 123.982L204.795 126.344C204.277 126.868 203.755 126.868 203.203 126.311L199.14 122.21Z"
        fill="url(#paint15_linear_3947_597644)" />
    <defs>
        <filter id="filter0_f_3947_597644" x="53" y="106.514" width="135.121" height="28.5195"
            filterUnits="userSpaceOnUse" color-interpolation-filters="sRGB">
            <feFlood flood-opacity="0" result="BackgroundImageFix" />
            <feBlend mode="normal" in="SourceGraphic" in2="BackgroundImageFix" result="shape" />
            <feGaussianBlur stdDeviation="1.5" result="effect1_foregroundBlur_3947_597644" />
        </filter>
        <radialGradient id="paint0_radial_3947_597644" cx="0" cy="0" r="1" gradientUnits="userSpaceOnUse"
            gradientTransform="translate(53.0948 118.413) rotate(4.33803) scale(235.769 151.982)">
            <stop stop-color="#C8D9F3" stop-opacity="0.64" />
            <stop offset="1" stop-color="#8DC5FE" stop-opacity="0" />
        </radialGradient>
        <linearGradient id="paint1_linear_3947_597644" x1="143.621" y1="128.534" x2="84.6211" y2="128.534"
            gradientUnits="userSpaceOnUse">
            <stop offset="0.025906" stop-color="#1350DD" />
            <stop offset="1" stop-color="#F4F7FF" stop-opacity="0" />
        </linearGradient>
        <linearGradient id="paint2_linear_3947_597644" x1="209.181" y1="18.3372" x2="75.7027" y2="123.142"
            gradientUnits="userSpaceOnUse">
            <stop stop-color="#FFD79D" />
            <stop offset="0.188424" stop-color="#FEBE61" />
            <stop offset="0.380513" stop-color="#FEB03E" />
            <stop offset="0.473611" stop-color="#F49100" />
            <stop offset="0.9" stop-color="#FEB03E" />
            <stop offset="0.963542" stop-color="#FEB03E" />
            <stop offset="1" stop-color="#FEB03E" />
        </linearGradient>
        <linearGradient id="paint3_linear_3947_597644" x1="129.132" y1="132.331" x2="203.555" y2="58.2583"
            gradientUnits="userSpaceOnUse">
            <stop offset="0.0104167" stop-color="#FA9400" />
            <stop offset="1" stop-color="#F9D9AC" />
        </linearGradient>
        <linearGradient id="paint4_linear_3947_597644" x1="132.942" y1="126.44" x2="199.452" y2="61.3534"
            gradientUnits="userSpaceOnUse">
            <stop offset="0.0104167" stop-color="#FA9400" />
            <stop offset="1" stop-color="#F9D9AC" />
        </linearGradient>
        <linearGradient id="paint5_linear_3947_597644" x1="173.941" y1="30.0476" x2="144.294" y2="33.2355"
            gradientUnits="userSpaceOnUse">
            <stop stop-color="#FFE1CA" />
            <stop offset="1" stop-color="#FFFAF0" stop-opacity="0.49" />
        </linearGradient>
        <linearGradient id="paint6_linear_3947_597644" x1="277.501" y1="139" x2="144.765" y2="24.0626"
            gradientUnits="userSpaceOnUse">
            <stop stop-color="#FFF1D7" />
            <stop offset="1" stop-color="#FFFEFC" />
        </linearGradient>
        <linearGradient id="paint7_linear_3947_597644" x1="171" y1="22" x2="124.417" y2="32.182"
            gradientUnits="userSpaceOnUse">
            <stop stop-color="#D5E8FF" />
            <stop offset="1" stop-color="#A4D1FF" />
        </linearGradient>
        <linearGradient id="paint8_linear_3947_597644" x1="149.864" y1="37.5982" x2="149.914" y2="35.3412"
            gradientUnits="userSpaceOnUse">
            <stop stop-color="#ADC8FC" />
            <stop offset="1" stop-color="#D2E2FF" />
        </linearGradient>
        <linearGradient id="paint9_linear_3947_597644" x1="182.85" y1="53.6444" x2="182.844" y2="55.2725"
            gradientUnits="userSpaceOnUse">
            <stop stop-color="#FFCD85" />
            <stop offset="1" stop-color="#F4970E" />
        </linearGradient>
        <linearGradient id="paint10_linear_3947_597644" x1="182.924" y1="63.673" x2="182.917" y2="65.356"
            gradientUnits="userSpaceOnUse">
            <stop stop-color="#FFCD85" />
            <stop offset="1" stop-color="#F4970E" />
        </linearGradient>
        <linearGradient id="paint11_linear_3947_597644" x1="182.997" y1="73.7227" x2="182.99" y2="75.4594"
            gradientUnits="userSpaceOnUse">
            <stop stop-color="#FFCD85" />
            <stop offset="1" stop-color="#F4970E" />
        </linearGradient>
        <linearGradient id="paint12_linear_3947_597644" x1="77.163" y1="89.6199" x2="117.186" y2="77.9328"
            gradientUnits="userSpaceOnUse">
            <stop stop-color="#B2CBFB" />
            <stop offset="1" stop-color="#EAF1FF" />
        </linearGradient>
        <linearGradient id="paint13_linear_3947_597644" x1="200.766" y1="78.5814" x2="223.111" y2="72.018"
            gradientUnits="userSpaceOnUse">
            <stop stop-color="#B2CBFB" />
            <stop offset="1" stop-color="#EAF1FF" />
        </linearGradient>
        <radialGradient id="paint14_radial_3947_597644" cx="0" cy="0" r="1" gradientUnits="userSpaceOnUse"
            gradientTransform="translate(199 118.5) rotate(-135) scale(23.3345)">
            <stop stop-color="#E46D04" />
            <stop offset="1" stop-color="#FBA409" />
        </radialGradient>
        <linearGradient id="paint15_linear_3947_597644" x1="199" y1="110" x2="199" y2="127"
            gradientUnits="userSpaceOnUse">
            <stop stop-color="#FEFAF3" />
            <stop offset="1" stop-color="#FEFAF3" stop-opacity="0.96" />
        </linearGradient>
    </defs>
</svg>
