<svg width="241" height="240" viewBox="0 0 241 240" fill="none" xmlns="http://www.w3.org/2000/svg">
<g clip-path="url(#clip0_9646_288850)">
<mask id="mask0_9646_288850" style="mask-type:luminance" maskUnits="userSpaceOnUse" x="0" y="0" width="241" height="241">
<path d="M240.874 240.007L240.874 0.00683594L0.874039 0.00683594L0.874039 240.007L240.874 240.007Z" fill="white"/>
</mask>
<g mask="url(#mask0_9646_288850)">
<path d="M25.6062 138.577L29.6039 144.925C29.6039 144.925 35.5707 143.855 40.3029 138.188L36.3053 131.839C31.573 137.506 25.6062 138.577 25.6062 138.577Z" fill="#FFCF8D"/>
<path d="M200.664 72.9233C200.664 72.9233 201.182 79.6873 206.967 85.6031L214.488 81.8589C208.697 75.9532 208.179 69.1892 208.179 69.1892L200.664 72.9233Z" fill="#D3DEFF"/>
<path d="M164.487 19.5344C164.487 19.5344 171.791 22.1788 180.678 18.9523L180.334 9.33556C171.432 12.572 164.143 9.91763 164.143 9.91763L164.487 19.5344Z" fill="#2EA0ED"/>
<path d="M36.313 168.61C36.313 168.61 40.8389 173.701 49.0444 174.938L52.8056 167.379C44.5853 166.143 40.0595 161.052 40.0595 161.052L36.313 168.61Z" fill="#2EA0ED"/>
<path d="M84.5688 65.7351C84.5688 65.7351 87.3733 69.5452 96.2805 65.4268L95.9671 61.8674C87.0561 65.9744 84.2515 62.1643 84.2515 62.1643L84.5688 65.7351Z" fill="#2EA0ED"/>
<path d="M86.4367 24.3795C86.4367 24.3795 86.9314 30.3399 92.0521 35.5145L98.655 32.1778C93.5344 27.0031 93.0429 21.0572 93.0429 21.0572L86.4367 24.3795Z" fill="#D3DEFF"/>
<path d="M187.441 42.4812L189.699 46.7518C189.699 46.7518 201.893 39.2951 206.91 32.5529L204.652 28.2823C199.635 35.0245 187.441 42.4812 187.441 42.4812Z" fill="#FFBF67"/>
<path d="M62.2084 20.2213C62.2084 20.2213 66.8486 21.4903 72.1655 19.0467L71.821 16.0908C66.4962 18.5378 61.8559 17.2687 61.8559 17.2687L62.2084 20.2213Z" fill="#2EA0ED"/>
<path d="M54.2106 45.6964L45.6648 43.5696L47.097 37.8147L55.6428 39.9414L54.2106 45.6964Z" fill="#FFBF67"/>
<path d="M141.747 13.5025L144.222 13.8771C143.821 11.4494 144.852 9.71182 144.852 9.71182L142.378 9.33727C142.378 9.33727 141.351 11.0756 141.747 13.5025Z" fill="#2EA0ED"/>
<path d="M221.93 130.265L223.772 130.484C223.418 128.697 224.14 127.385 224.14 127.385L222.298 127.167C222.298 127.167 221.576 128.478 221.93 130.265Z" fill="#FFCF8D"/>
<path d="M48.8234 151.515L50.1325 153.492C51.5893 151.668 53.4657 151.286 53.4657 151.286L52.1566 149.308C52.1566 149.308 50.2779 149.687 48.8234 151.515Z" fill="#FF8D8D"/>
<path d="M216.719 108.318C218.427 108.362 219.478 109.292 219.478 109.292L220.058 107.653C220.058 107.653 219.004 106.724 217.296 106.68L216.719 108.318Z" fill="#D3DEFF"/>
<path d="M214.49 58.5727L215.757 59.1457C215.909 57.7843 216.72 57.0098 216.72 57.0098L215.455 56.4379C215.455 56.4379 214.642 57.2113 214.49 58.5727Z" fill="#2EA0ED"/>
<path d="M222.989 86.0425L224.326 87.4201C225.212 85.7486 226.653 85.1667 226.653 85.1667L225.314 83.7866C225.314 83.7866 223.873 84.3734 222.989 86.0425Z" fill="#2EA0ED"/>
<path d="M203.251 98.6097L205.615 98.8875C205.159 96.5871 206.083 94.9028 206.083 94.9028L203.724 94.6254C203.724 94.6254 202.8 96.3098 203.251 98.6097Z" fill="#FF8D8D"/>
<path d="M64.4235 53.1676L65.9204 53.8678C66.1223 52.2554 67.0992 51.3476 67.0992 51.3476L65.6023 50.6474C65.6023 50.6474 64.6283 51.5566 64.4235 53.1676Z" fill="#2EA0ED"/>
<path d="M72.4882 38.8587L74.4451 38.7979C73.7958 36.9828 74.3426 35.4976 74.3426 35.4976L72.3857 35.5583C72.3857 35.5583 71.8354 37.0437 72.4882 38.8587Z" fill="#FF8D8D"/>
<path d="M196.739 172.459C195.03 175.22 194.148 178.325 196.285 181.155C197.176 182.282 197.833 182.939 198.508 183.828C196.963 180.873 198.376 178.174 200.303 175.308C201.973 172.769 204.363 169.383 202.309 166.396C201.484 165.224 200.055 163.746 199.413 162.834C201.627 166.049 198.374 169.799 196.739 172.459Z" fill="#FF9036"/>
<path d="M212.526 181.952C212.561 182 212.618 182.017 212.654 182.066C214.196 183.594 213.994 185.261 213.481 187.171C212.963 189.056 213.185 190.812 214.528 192.294C215.597 193.442 217.344 193.956 218.382 195.082C216.675 193.229 217.056 191.341 217.567 189.104C218.067 187.114 217.477 185.584 215.853 184.369C214.976 183.704 214.105 183.066 213.233 182.428C213.14 182.362 212.309 181.799 212.309 181.799C212.309 181.799 212.371 181.843 212.526 181.952Z" fill="#FF9036"/>
<path d="M200.284 185.445C200.324 185.481 200.355 185.496 200.395 185.532C200.434 185.569 200.482 185.629 200.522 185.665L200.497 185.598C201.852 186.872 203.579 187.207 205.434 186.849C207.705 186.36 210.112 185.2 212.456 184.839C212.456 184.839 214.589 184.325 216.828 185.269C216.652 185.076 216.454 184.892 216.279 184.7C215.568 183.907 215.172 183.538 215.096 183.541C213.831 182.232 212.399 181.167 210.465 181.245C209.112 181.287 207.532 181.827 205.906 182.384C204.122 183 202.293 183.634 200.6 183.596C200.6 183.596 198.629 183.714 197.291 182.278C197.242 182.218 197.172 182.167 197.124 182.108C197.935 183.379 199.314 184.439 200.284 185.445Z" fill="#FFBF67"/>
<path d="M46.6819 55.4926C46.296 55.6447 45.9117 55.8369 45.5518 56.036C45.0823 56.2957 44.6058 56.5797 44.1536 56.8707C43.9588 56.9989 43.5119 57.2257 43.369 57.4478C42.7207 58.6035 42.9354 59.9155 43.2041 61.1771C43.5867 62.8664 44.0092 64.5539 44.4317 66.2415C44.8455 67.9134 45.2437 69.594 45.5793 71.3092C45.5983 71.3804 45.6103 71.476 45.6293 71.5472C45.1664 71.0061 44.7349 70.4477 44.319 69.8806C42.7334 67.7532 41.0226 65.695 39.2126 63.753C38.7688 63.2831 38.3249 62.8133 37.8654 62.3521C37.4891 61.9675 37.1096 61.503 36.5974 61.3161C36.37 61.2376 36.1319 61.2875 35.9355 61.3757C35.155 61.6644 34.4367 62.1026 33.7341 62.5321C33.2733 62.8075 32.7255 63.1105 32.3669 63.5337C32.2067 63.7245 32.18 64.0458 32.1587 64.3029C31.9789 66.712 32.3044 69.1481 32.6527 71.5512C32.8671 73.0473 33.0971 74.5347 33.2802 76.0481C33.3125 76.4391 33.3535 76.8456 33.3857 77.2365C32.548 76.5349 31.8477 75.6755 31.1562 74.8317C30.3797 73.8714 29.5806 72.944 28.583 72.249C28.1787 71.9616 27.6596 71.7991 27.1991 71.8904C26.6517 72.0092 26.1212 72.3435 25.6517 72.6032C25.1666 72.8716 24.6971 73.1313 24.2535 73.438C23.9648 73.6181 23.6049 73.8172 23.3838 74.0826C23.0634 74.4642 23.106 74.9107 23.1573 75.3729C23.2498 76.0575 23.3737 76.7248 23.5132 77.3834C23.6923 78.2246 23.9497 79.0224 24.2227 79.8116C23.5668 79.4386 22.9577 79.0397 22.2791 78.6997C21.1667 78.1296 19.8714 77.7833 18.653 78.1302C17.8465 78.3719 17.0587 78.869 16.3404 79.3072C15.9891 79.522 15.6308 79.761 15.3055 80.0228C15.3055 80.0228 14.9419 80.3261 15.1869 80.2518C16.7773 79.8014 18.315 80.5859 19.6772 81.3858C20.432 81.8267 21.1799 82.2919 21.994 82.6182C22.7925 82.9532 23.5117 82.9233 24.2679 82.6276C24.3235 82.6173 24.4574 82.5637 24.6608 82.4511C25.6188 82.003 26.5649 81.4592 27.4033 80.8319C27.7373 80.5858 28.1026 80.3225 28.2614 79.9076C28.5565 79.1108 27.9884 78.1578 27.7414 77.4155C27.7051 77.313 27.6601 77.1948 27.6395 77.0835C28.0277 77.5637 28.4246 78.0595 28.8685 78.5294C29.614 79.3229 30.4831 80.0072 31.4917 80.3895C31.9395 80.571 32.457 80.6935 32.9331 80.5936C33.4806 80.4748 33.9953 80.1491 34.4805 79.8808C35.256 79.4722 36.1341 79.0274 36.7485 78.4014C37.0948 78.0668 37.1547 77.5839 37.1591 77.1114C37.1654 76.4948 37.1075 75.8728 37.0496 75.2507C36.9511 74.038 36.7883 72.82 36.6098 71.6106C36.3595 69.8278 36.0605 68.031 35.9057 66.2363C36.601 66.9758 37.2649 67.7327 37.9218 68.5139C38.7886 69.5265 39.6256 70.5964 40.4228 71.668C41.109 72.576 41.771 73.4771 42.5494 74.2932C43.302 75.0625 44.2057 75.8094 45.2352 76.1187C45.4869 76.2043 45.7407 76.1457 45.9771 76.0558C46.7576 75.7671 47.4759 75.329 48.1785 74.8994C48.8654 74.4786 49.6739 74.0927 49.7971 73.2069C49.8624 72.6598 49.7176 72.0655 49.6387 71.5164C49.5305 70.8404 49.4066 70.1731 49.2828 69.5058C49.0367 68.2112 48.7438 66.9425 48.4421 65.6582C47.9973 63.8195 47.5368 61.9894 47.1077 60.142C46.7594 58.6995 46.1877 56.8901 46.939 55.5139C46.9913 55.4237 46.9583 55.401 46.887 55.42C46.8158 55.439 46.7132 55.4753 46.6819 55.4926Z" fill="#2EA0ED"/>
<path d="M15.301 80.0176C15.303 80.016 15.3039 80.0147 15.3061 80.0143C15.3079 80.0116 15.307 80.0129 15.301 80.0176Z" fill="#2EA0ED" stroke="black" stroke-width="0.997295" stroke-miterlimit="10"/>
<path d="M15.1047 85.2456C15.1067 85.2441 15.1076 85.2427 15.1098 85.2423C15.1116 85.2396 15.1107 85.241 15.1047 85.2456Z" fill="#2EA0ED"/>
<path d="M18.6628 78.139C17.8385 78.3618 17.0634 78.8709 16.3459 79.3075C15.9862 79.5315 15.6266 79.7555 15.3072 80.0205C15.2827 80.0284 14.9354 80.324 15.1895 80.2582C16.77 79.8024 18.3125 80.5842 19.6794 81.3742C20.4354 81.8267 21.1784 82.2888 21.9876 82.6217C22.7967 82.9545 23.5121 82.9127 24.2656 82.621C24.3241 82.6183 24.4594 82.5693 24.6637 82.4494C25.6153 82.002 26.5563 81.4717 27.409 80.8349C27.4483 80.8061 27.4876 80.7772 27.5268 80.7483C25.8965 81.1501 24.2181 79.8129 24.2181 79.8129C23.5765 79.4475 22.942 79.0368 22.2839 78.7038C21.2492 78.1739 20.0565 77.8406 18.93 78.0636C18.8453 78.0856 18.7492 78.1057 18.6628 78.139Z" fill="#1573CD"/>
<path d="M27.1974 71.8939C26.6507 72.0016 26.113 72.3402 25.6436 72.6037C25.1742 72.8672 24.7048 73.1308 24.2492 73.427C24.0335 73.5719 23.7778 73.7221 23.5675 73.907C25.1041 73.9582 27.3619 76.7465 27.3619 76.7465L27.6802 77.2274C27.6675 77.1789 27.6389 77.1295 27.6261 77.081C28.031 77.5754 28.4284 78.0613 28.8668 78.5261C29.618 79.3125 30.4786 80.0029 31.4933 80.3935C31.9427 80.5653 32.4583 80.6937 32.925 80.5967C32.925 80.5967 33.8697 80.3478 33.265 76.0463C33.3186 76.4467 33.3565 76.846 33.3943 77.2453C32.5422 76.5476 31.8445 75.6693 31.1522 74.831C30.3796 73.8844 29.5827 72.9441 28.5799 72.2447C28.1851 71.9653 27.6714 71.8053 27.1974 71.8939Z" fill="#1573CD"/>
<path d="M45.3835 70.3676C45.3822 70.361 45.3795 70.3476 45.3795 70.3476C45.3808 70.3543 45.3822 70.361 45.3835 70.3676Z" fill="#2EA0ED"/>
<path d="M35.929 61.3619C35.1658 61.6557 34.4315 62.1105 33.7358 62.5303C33.2677 62.8141 32.7377 63.1071 32.3732 63.531L32.3475 63.5543L32.6731 63.4231C32.6731 63.4231 33.8662 63.3714 35.8977 66.2331C36.5973 66.9795 37.2596 67.7363 37.9091 68.5047C38.7914 69.5301 39.6223 70.602 40.4288 71.6728C41.1083 72.5777 41.7879 73.4826 42.5574 74.3061C43.3049 75.0793 44.2145 75.7992 45.2297 76.1193C45.3742 76.1755 45.5095 76.1699 45.6577 76.1526C45.7825 76.1097 46.2824 75.6802 45.5918 71.5098C45.139 70.9843 44.7364 70.4367 44.3222 69.8762C42.721 67.7476 41.0298 65.7004 39.2114 63.7452C38.7679 63.2815 38.3127 62.8049 37.8563 62.3529C37.4826 61.9662 37.1008 61.4933 36.6066 61.3094C36.4738 61.266 36.3268 61.2588 36.1903 61.2889C36.0912 61.3085 36.0037 61.3411 35.929 61.3619Z" fill="#1573CD"/>
<path fill-rule="evenodd" clip-rule="evenodd" d="M160.747 39.5599C160.747 39.5599 152.977 33.2214 143.481 31.1507C133.985 29.0801 124.862 32.3345 124.862 32.3345L113.841 50.2855L162.562 62.0352L160.747 39.5599Z" fill="url(#paint0_radial_9646_288850)"/>
<path fill-rule="evenodd" clip-rule="evenodd" d="M141.056 42.8624C141.295 42.9314 141.538 42.9878 141.779 43.0519C142.089 43.1333 142.428 43.0984 142.706 42.9516C143.012 42.7972 143.236 42.5108 143.317 42.1872C143.416 41.8029 143.505 41.4168 143.61 41.0341C144.024 41.1377 144.436 41.2476 144.85 41.3518C145.134 41.4211 145.44 41.387 145.699 41.2627C145.955 41.1417 146.164 40.9312 146.276 40.6774C146.323 40.5743 146.348 40.4634 146.376 40.3544C146.497 39.8807 146.62 39.4074 146.741 38.9336C146.817 38.6392 146.77 38.3149 146.609 38.0488C146.473 37.8148 146.254 37.6252 145.998 37.5208C145.883 37.4726 145.761 37.4473 145.641 37.4153C145.297 37.3262 144.953 37.2398 144.61 37.149C144.691 36.8251 144.776 36.5024 144.859 36.1789C144.89 36.0513 144.931 35.9249 144.941 35.7929C144.964 35.5301 144.893 35.2592 144.742 35.0357C144.568 34.7674 144.279 34.5723 143.962 34.4987C143.568 34.4012 143.178 34.2908 142.785 34.1906C142.612 34.1494 142.442 34.0946 142.267 34.0645C141.96 34.0104 141.636 34.0725 141.378 34.2353C141.121 34.3937 140.931 34.6472 140.856 34.9333C140.755 35.3228 140.656 35.7127 140.554 36.1021C140.135 35.9951 139.717 35.8834 139.297 35.7776C139.021 35.7187 138.727 35.7468 138.476 35.867C138.155 36.0149 137.91 36.3037 137.823 36.6379C137.716 37.0506 137.61 37.4632 137.504 37.8759C137.449 38.1013 137.366 38.326 137.388 38.5627C137.414 39.062 137.794 39.5267 138.295 39.669C138.713 39.7782 139.132 39.884 139.55 39.9932C139.45 40.3888 139.347 40.7836 139.246 41.1789C139.185 41.4439 139.219 41.7303 139.345 41.9773C139.506 42.3025 139.823 42.552 140.183 42.6403C140.475 42.7132 140.764 42.7931 141.056 42.8624Z" fill="#E83719"/>
<path fill-rule="evenodd" clip-rule="evenodd" d="M96.0509 138.344C78.1477 126.79 68.4021 107.293 73.1926 88.6891L74.9147 82.0009L77.1155 82.5676C84.8902 88.8395 113.638 51.989 137.681 58.1801C161.725 64.3712 159.458 121.089 178.937 108.786L181.138 109.353L179.416 116.041C174.475 135.227 155.536 147.781 133.407 148.588L126.07 177.084L88.5626 167.426L96.0509 138.344Z" fill="url(#paint1_linear_9646_288850)"/>
<mask id="mask1_9646_288850" style="mask-type:luminance" maskUnits="userSpaceOnUse" x="71" y="57" width="111" height="121">
<path d="M96.0509 138.344C78.1477 126.79 68.4021 107.293 73.1926 88.6891L74.9147 82.0009L77.1155 82.5676C84.8902 88.8395 113.638 51.989 137.681 58.1801C161.725 64.3712 159.458 121.089 178.937 108.786L181.138 109.353L179.416 116.041C174.475 135.227 155.536 147.781 133.407 148.588L126.07 177.084L88.5626 167.426L96.0509 138.344Z" fill="white"/>
</mask>
<g mask="url(#mask1_9646_288850)">
<path fill-rule="evenodd" clip-rule="evenodd" d="M74.726 82.7357C72.6848 105.229 90.8471 127.68 117.986 134.669C145.126 141.657 171.873 130.769 180.949 110.087L183.197 107.182C183.197 107.182 178.672 106.919 178.971 105.483C180.223 99.1676 183.707 91.5677 183.973 90.9917C182.032 71.0858 164.961 52.5338 140.741 46.2973C116.532 40.0637 92.6358 48.0529 81.3153 64.5317C81.2895 64.9034 80.6824 73.4228 78.695 79.6626C78.2633 81.0641 73.0705 77.7712 73.0705 77.7712L74.726 82.7357Z" fill="#FFCF8D"/>
</g>
<path fill-rule="evenodd" clip-rule="evenodd" d="M96.0509 138.344C78.1477 126.79 68.4021 107.293 73.1926 88.6891L76.4415 76.0714L78.6423 76.6381C89.8736 60.0744 113.638 51.989 137.681 58.1801C161.725 64.3712 178.629 82.9283 180.464 102.856L182.665 103.423L179.416 116.041C174.475 135.227 155.536 147.781 133.407 148.588L126.07 177.084L88.5626 167.426L96.0509 138.344Z" fill="url(#paint2_linear_9646_288850)"/>
<path fill-rule="evenodd" clip-rule="evenodd" d="M99.0051 131.946C99.0051 131.946 102.001 144.189 114.188 147.037C126.375 149.884 135.536 142.933 135.536 142.933L110.633 171.019L104.141 169.484L99.0051 131.946Z" fill="url(#paint3_linear_9646_288850)"/>
<path fill-rule="evenodd" clip-rule="evenodd" d="M75.389 82.1208C73.3164 104.606 91.2781 127.006 118.175 133.931C145.072 140.857 171.618 129.918 180.663 109.228L177.871 108.509C177.871 108.509 178.412 106.066 178.711 104.631C179.966 98.316 183.438 90.7128 183.703 90.1365C181.821 70.2459 164.933 51.741 140.93 45.5603C116.937 39.3823 93.2236 47.4187 81.9624 63.9127C81.936 64.2843 81.3156 72.8002 79.3314 79.0408C78.9003 80.4425 78.1936 82.8429 78.1936 82.8429L75.389 82.1208Z" fill="url(#paint4_radial_9646_288850)"/>
<path fill-rule="evenodd" clip-rule="evenodd" d="M57.9886 222.35C54.4458 222.266 51.1419 220.626 46.6798 215.239C43.1492 210.978 37.9457 206.375 40.9729 200.815C42.3948 198.203 45.8971 197.336 48.5687 197.435C52.8355 197.595 59.1356 199.517 62.6209 202.191C66.1061 204.866 73.2882 202.569 73.8702 206.04C74.399 209.206 68.9095 215.752 65.2522 219.622C63.685 221.28 60.5792 222.412 57.9886 222.35Z" fill="url(#paint5_linear_9646_288850)"/>
<path fill-rule="evenodd" clip-rule="evenodd" d="M62.205 182.626L52.252 197.519L72.4159 212.159C72.4159 212.159 90.6824 200.102 93.7197 193.535C84.4582 189.204 62.205 182.626 62.205 182.626Z" fill="#002468"/>
<path fill-rule="evenodd" clip-rule="evenodd" d="M120.398 237.956C123.27 240.032 126.894 240.724 133.705 239.133C139.093 237.876 146.022 237.356 146.974 231.098C147.421 228.158 145.156 225.349 142.968 223.813C139.474 221.359 133.294 219.079 128.901 219.101C124.508 219.123 120.178 212.95 117.615 215.362C115.279 217.564 115.692 226.097 116.263 231.391C116.509 233.659 118.298 236.439 120.398 237.956Z" fill="url(#paint6_linear_9646_288850)"/>
<path fill-rule="evenodd" clip-rule="evenodd" d="M141.066 203.768L139.984 221.648L115.072 221.112C115.072 221.112 107.817 200.463 109.37 193.396C119.365 195.548 141.066 203.768 141.066 203.768Z" fill="#002468"/>
<path fill-rule="evenodd" clip-rule="evenodd" d="M65.2023 102.183C65.2023 102.183 63.2438 96.5628 61.3421 92.5822C59.9904 88.8005 59.7458 85.3509 57.4503 84.0451C55.758 82.9802 54.2154 85.1572 53.4479 87.3774C52.6455 89.6963 52.7863 90.5386 52.7863 90.5386C52.7863 90.5386 49.6915 88.778 41.9463 89.2043C36.1406 89.5241 31.1397 92.8552 31.1313 101.664C31.1253 108.083 33.1126 112.06 38.3429 115.293C42.9243 118.124 48.1471 116.457 55.9183 118.794C60.8346 120.275 65.2023 102.183 65.2023 102.183Z" fill="url(#paint7_linear_9646_288850)"/>
<path fill-rule="evenodd" clip-rule="evenodd" d="M181.019 130.64C181.019 130.64 185.347 126.553 188.868 123.897C191.81 121.163 193.617 118.214 196.256 118.113C198.248 117.947 198.615 120.59 198.273 122.914C197.917 125.342 197.404 126.025 197.404 126.025C197.404 126.025 200.962 125.888 207.639 129.835C212.645 132.793 215.549 138.054 211.498 145.876C208.546 151.576 204.949 154.191 198.818 154.65C193.447 155.052 189.58 151.166 181.606 149.66C176.56 148.709 181.019 130.64 181.019 130.64Z" fill="url(#paint8_linear_9646_288850)"/>
<path fill-rule="evenodd" clip-rule="evenodd" d="M173.798 178.113C173.798 178.113 174.485 172.987 169.295 167.888C164.105 162.791 157.628 159.314 157.628 159.314L163.24 153.66C163.24 153.66 172.54 159.158 177.142 165.12C181.743 171.082 182.456 177.357 182.126 180.51C181.794 183.662 180.46 185.947 180.46 185.947L176.876 181.708L173.798 178.113Z" fill="url(#paint9_linear_9646_288850)"/>
<path fill-rule="evenodd" clip-rule="evenodd" d="M91.3412 169.36C97.0019 181.434 105.643 139.625 101.799 135.116C90.9389 122.375 69.2708 97.3716 62.4191 92.5341C54.5443 97.6537 47.1858 113.064 47.2437 121.119C53.2152 125.266 85.6809 157.284 91.3412 169.36Z" fill="url(#paint10_linear_9646_288850)"/>
<path fill-rule="evenodd" clip-rule="evenodd" d="M125.322 177.391C114.534 185.229 129.771 143.435 138.408 140.214C154.951 134.045 180.337 124.911 187.752 124.088C192.175 132.374 191.176 149.421 187.234 156.447C180.003 157.194 136.111 169.551 125.322 177.391Z" fill="url(#paint11_linear_9646_288850)"/>
<path fill-rule="evenodd" clip-rule="evenodd" d="M57.3322 187.047C57.3322 187.047 68.7782 195.287 92.4119 201.752C95.1753 199.759 100.444 196.531 100.444 196.531C100.444 196.531 104.036 203.081 105.021 205.136C108.388 205.743 131.576 209.109 141.765 208.814C144.277 187.418 146.3 160.637 143.491 138.236C138.478 140.131 130.085 143.341 130.085 143.341L108.445 166.84L103.328 136.731C103.328 136.731 97.5515 129.884 94.475 126.416C73.7933 151.869 57.3322 187.047 57.3322 187.047Z" fill="url(#paint12_radial_9646_288850)"/>
<mask id="mask2_9646_288850" style="mask-type:luminance" maskUnits="userSpaceOnUse" x="57" y="126" width="88" height="83">
<path d="M57.3322 187.047C57.3322 187.047 68.7782 195.287 92.4119 201.752C95.1753 199.759 100.444 196.531 100.444 196.531C100.444 196.531 104.036 203.081 105.021 205.136C108.388 205.743 131.576 209.109 141.765 208.814C144.277 187.418 146.3 160.637 143.491 138.236C138.478 140.131 130.085 143.341 130.085 143.341L108.445 166.84L103.328 136.731C103.328 136.731 97.5515 129.884 94.475 126.416C73.7933 151.869 57.3322 187.047 57.3322 187.047Z" fill="white"/>
</mask>
<g mask="url(#mask2_9646_288850)">
<path fill-rule="evenodd" clip-rule="evenodd" d="M108.494 166.708L98.585 203.144L86.0381 203.641L106.155 150.105L108.494 166.708Z" fill="url(#paint13_linear_9646_288850)"/>
<path fill-rule="evenodd" clip-rule="evenodd" d="M120.402 179.817C119.997 181.782 121.27 183.66 123.243 184.01L133.153 185.769C135.126 186.119 137.055 184.809 137.46 182.844L139.478 173.044C139.883 171.079 138.61 169.201 136.637 168.851L126.727 167.092C124.754 166.742 122.825 168.052 122.42 170.017L120.402 179.817Z" fill="white" stroke="#A0B2D3" stroke-width="0.692468" stroke-miterlimit="1.5" stroke-linecap="round" stroke-linejoin="round"/>
<path fill-rule="evenodd" clip-rule="evenodd" d="M102.301 126.949L108.453 166.637C108.453 166.637 97.8358 156.509 95.4235 154.148C95.107 153.838 94.9924 153.472 95.128 153.203C95.6852 152.096 98.2681 149.816 98.2681 149.816C98.2681 149.816 90.6739 140.712 88.4106 137.909C88.0945 137.518 87.9599 137.156 88.247 136.943C93.3188 133.181 102.301 126.949 102.301 126.949Z" fill="url(#paint14_linear_9646_288850)" stroke="#A0B2D3" stroke-width="0.601727" stroke-miterlimit="1.5" stroke-linecap="round" stroke-linejoin="round"/>
<path fill-rule="evenodd" clip-rule="evenodd" d="M133.007 134.856L108.453 166.636C108.453 166.636 122.64 162.896 125.893 161.993C126.32 161.875 126.597 161.61 126.608 161.309C126.655 160.071 125.494 156.826 125.494 156.826C125.494 156.826 136.541 152.523 139.876 151.162C140.342 150.971 140.635 150.719 140.487 150.394C137.862 144.651 133.007 134.856 133.007 134.856Z" fill="url(#paint15_linear_9646_288850)" stroke="#A0B2D3" stroke-width="0.601727" stroke-miterlimit="1.5" stroke-linecap="round" stroke-linejoin="round"/>
</g>
<path fill-rule="evenodd" clip-rule="evenodd" d="M57.3322 187.047C57.3322 187.047 68.7782 195.287 92.4119 201.752C95.1753 199.759 100.444 196.531 100.444 196.531C100.444 196.531 104.036 203.081 105.021 205.136C108.388 205.743 131.576 209.109 141.765 208.814C144.277 187.418 146.3 160.637 143.491 138.236C138.478 140.131 130.085 143.341 130.085 143.341L108.445 166.84L103.328 136.731C103.328 136.731 97.5515 129.884 94.475 126.416C73.7933 151.869 57.3322 187.047 57.3322 187.047Z" fill="url(#paint16_radial_9646_288850)"/>
<path fill-rule="evenodd" clip-rule="evenodd" d="M81.9711 63.9035C81.9689 63.9065 81.966 63.911 81.9638 63.9139C81.9374 64.2855 80.4019 72.5657 78.4177 78.8063C77.9867 80.208 77.28 82.6084 77.28 82.6084L179.005 108.802C179.005 108.802 179.545 106.359 179.845 104.923C181.1 98.6086 183.438 90.7139 183.704 90.1376C183.702 90.125 183.701 90.1107 183.7 90.0981L81.9711 63.9035Z" fill="url(#paint17_linear_9646_288850)"/>
<path fill-rule="evenodd" clip-rule="evenodd" d="M112.498 99.5613C112.546 99.2074 112.734 98.8876 113.021 98.6716C113.307 98.4574 113.667 98.3678 114.021 98.4219C118.813 99.1425 135.095 101.6 139.986 102.338C140.336 102.391 140.645 102.594 140.832 102.895C141.018 103.196 141.065 103.564 140.956 103.9C139.08 109.573 131.224 131.047 120.597 128.224C110.022 125.415 111.82 105.024 112.498 99.5613Z" fill="#000F2A"/>
<mask id="mask3_9646_288850" style="mask-type:luminance" maskUnits="userSpaceOnUse" x="111" y="98" width="31" height="31">
<path d="M112.498 99.5613C112.546 99.2074 112.734 98.8876 113.021 98.6716C113.307 98.4574 113.667 98.3678 114.021 98.4219C118.813 99.1425 135.095 101.6 139.986 102.338C140.336 102.391 140.645 102.594 140.832 102.895C141.018 103.196 141.065 103.564 140.956 103.9C139.08 109.573 131.224 131.047 120.597 128.224C110.022 125.415 111.82 105.024 112.498 99.5613Z" fill="white"/>
</mask>
<g mask="url(#mask3_9646_288850)">
<path d="M119.975 135.414C130.287 138.07 140.216 134.127 142.152 126.609C144.088 119.091 137.297 110.844 126.986 108.189C116.674 105.534 106.745 109.476 104.809 116.994C102.873 124.512 109.663 132.759 119.975 135.414Z" fill="url(#paint18_linear_9646_288850)"/>
</g>
<path fill-rule="evenodd" clip-rule="evenodd" d="M115.27 83.5124C115.308 83.6164 115.493 83.9791 115.303 84.2414C115.095 84.528 114.711 84.5093 114.633 84.435C112.472 82.351 110.352 78.2811 105.031 77.0576C100.878 76.1027 98.5619 78.4885 97.5007 79.0468C96.0341 79.8177 94.4469 77.8396 95.3593 76.4635C96.2493 75.1228 101.278 72.5579 106.645 74.2113C112.5 76.0148 114.299 80.9001 115.27 83.5124Z" fill="black"/>
<path fill-rule="evenodd" clip-rule="evenodd" d="M145.072 91.1862C144.988 91.2589 144.651 91.4871 144.69 91.8083C144.734 92.1598 145.079 92.3288 145.184 92.3017C148.082 91.5203 151.904 88.9805 157.155 90.4792C161.252 91.6487 162.128 94.8563 162.788 95.8576C163.7 97.2411 166.045 96.2755 165.91 94.6298C165.779 93.026 162.614 88.3515 157.116 87.2071C151.118 85.9588 147.184 89.3677 145.072 91.1862Z" fill="black"/>
<path fill-rule="evenodd" clip-rule="evenodd" d="M127.689 51.6352C126.812 52.3401 126.046 51.451 124.844 51.6551C123.594 51.8673 122.853 52.5962 121.908 52.3611C120.344 51.973 119.734 50.3155 120.425 49.1211C121.065 48.0137 122.399 47.6973 123.884 47.4585C125.57 47.1865 126.281 47.6428 127.327 48.1672C128.5 48.7558 129.405 50.2573 127.689 51.6352Z" fill="black"/>
<path fill-rule="evenodd" clip-rule="evenodd" d="M149.591 57.276C150.018 58.3168 151.119 57.9085 152.073 58.6677C153.064 59.4569 153.361 60.4531 154.303 60.7041C155.86 61.1195 157.194 59.9626 157.166 58.5832C157.141 57.3042 156.125 56.3828 154.94 55.4566C153.595 54.404 152.752 54.46 151.583 54.4143C150.272 54.363 148.754 55.241 149.591 57.276Z" fill="black"/>
<path fill-rule="evenodd" clip-rule="evenodd" d="M88.8212 128.248C88.8938 126.825 89.8176 125.588 91.1601 125.113C92.5045 124.638 94.0003 125.022 94.9511 126.083C95.4008 126.565 95.6893 126.89 95.6893 126.89C95.6893 126.89 94.2931 143.738 107.526 158.929C120.759 174.119 136.213 184.927 136.213 184.927L132.798 190.501C132.798 190.501 114.216 176.254 102.453 162.901C97.7027 157.508 93.1833 151.144 90.8774 142.664C89.1128 136.167 88.6814 131.514 88.8212 128.248Z" fill="url(#paint19_linear_9646_288850)"/>
<path fill-rule="evenodd" clip-rule="evenodd" d="M131.456 183.884C134.292 178.454 146.161 175.409 153.932 173.958C168.02 171.325 173.35 172.654 177.601 175.772C182.762 179.558 185.149 185.587 186.202 190.666C187.258 195.765 187.447 199.748 185.647 205.84C182.585 216.201 174.536 218.673 166.244 221.265C159.309 223.435 149.881 223.336 144.449 220.55C138.731 217.618 134.041 213.568 131.743 203.734C130.074 196.592 129.044 188.505 131.456 183.884Z" fill="url(#paint20_radial_9646_288850)"/>
<mask id="mask4_9646_288850" style="mask-type:luminance" maskUnits="userSpaceOnUse" x="130" y="172" width="57" height="51">
<path d="M131.456 183.884C134.292 178.454 146.161 175.409 153.932 173.958C168.02 171.325 173.35 172.654 177.601 175.772C182.762 179.558 185.149 185.587 186.202 190.666C187.258 195.765 187.447 199.748 185.647 205.84C182.585 216.201 174.536 218.673 166.244 221.265C159.309 223.435 149.881 223.336 144.449 220.55C138.731 217.618 134.041 213.568 131.743 203.734C130.074 196.592 129.044 188.505 131.456 183.884Z" fill="white"/>
</mask>
<g mask="url(#mask4_9646_288850)">
<path fill-rule="evenodd" clip-rule="evenodd" d="M131.107 172.496C134.315 167.019 147.492 163.815 156.111 162.261C171.739 159.441 177.621 160.703 182.286 163.77C187.948 167.495 190.512 173.503 191.612 178.576C192.714 183.669 192.871 187.656 190.799 193.781C187.275 204.199 178.335 206.779 169.124 209.483C161.42 211.746 150.986 211.77 145.01 209.05C138.72 206.188 133.581 202.192 131.165 192.373C129.411 185.241 128.376 177.155 131.107 172.496Z" fill="url(#paint21_radial_9646_288850)"/>
<mask id="mask5_9646_288850" style="mask-type:luminance" maskUnits="userSpaceOnUse" x="129" y="160" width="64" height="52">
<path d="M131.107 172.496C134.315 167.019 147.492 163.815 156.111 162.261C171.739 159.441 177.621 160.703 182.286 163.77C187.948 167.495 190.512 173.503 191.612 178.576C192.714 183.669 192.871 187.656 190.799 193.781C187.275 204.199 178.335 206.779 169.124 209.483C161.42 211.746 150.986 211.77 145.01 209.05C138.72 206.188 133.581 202.192 131.165 192.373C129.411 185.241 128.376 177.155 131.107 172.496Z" fill="white"/>
</mask>
<g mask="url(#mask5_9646_288850)">
<path fill-rule="evenodd" clip-rule="evenodd" d="M98.835 202.922C113.987 206.429 130.218 208.51 154.748 206.281C168.635 205.019 189.098 196.484 189.098 196.484L186.879 183.209C186.879 183.209 166.416 191.744 152.529 193.006C127.999 195.236 111.766 193.156 96.6161 189.648C81.4024 186.127 83.6232 199.402 98.835 202.922Z" fill="url(#paint22_linear_9646_288850)"/>
<path fill-rule="evenodd" clip-rule="evenodd" d="M96.8285 188.039C111.981 191.547 128.211 193.628 152.744 191.398C166.628 190.135 187.092 181.6 187.092 181.6L186.48 180.032C186.48 180.032 166.017 188.567 152.13 189.829C127.6 192.059 111.367 189.979 96.2171 186.471C81.0034 182.95 81.6168 184.518 96.8285 188.039Z" fill="url(#paint23_linear_9646_288850)"/>
<path d="M145.132 199.884C145.319 200.016 145.478 200.185 145.601 200.38C145.712 200.556 145.791 200.752 145.846 200.953C146.047 201.699 146.25 202.443 146.461 203.186C146.128 203.215 145.794 203.243 145.46 203.269C145.262 202.571 145.071 201.87 144.883 201.169C144.826 200.956 144.71 200.761 144.529 200.634C144.351 200.514 144.137 200.479 143.929 200.499C143.833 200.508 143.738 200.526 143.648 200.56C143.589 200.581 143.534 200.61 143.484 200.647C143.451 200.672 143.422 200.7 143.396 200.731C143.255 200.904 143.258 201.146 143.3 201.355C143.307 201.391 143.315 201.427 143.325 201.462C143.494 202.104 143.667 202.745 143.848 203.383C143.518 203.404 143.188 203.424 142.859 203.442C142.529 202.264 142.225 201.079 141.925 199.893C142.247 199.864 142.57 199.834 142.893 199.803C142.928 199.94 142.963 200.077 142.999 200.214C143.025 200.148 143.059 200.085 143.099 200.026C143.128 199.986 143.159 199.947 143.194 199.912C143.404 199.7 143.704 199.614 143.993 199.583C144.187 199.563 144.385 199.572 144.575 199.62C144.775 199.671 144.964 199.762 145.132 199.883L145.132 199.884Z" fill="#F05123"/>
<path d="M149.608 199.32C149.804 199.453 149.971 199.626 150.098 199.827C150.21 200.005 150.291 200.202 150.346 200.405C150.557 201.171 150.768 201.938 150.983 202.704C150.645 202.746 150.306 202.787 149.967 202.827C149.764 202.106 149.565 201.383 149.366 200.66C149.307 200.442 149.187 200.243 148.999 200.116C148.815 199.996 148.595 199.968 148.382 199.995C148.283 200.008 148.183 200.03 148.09 200.069C148.03 200.094 147.974 200.126 147.924 200.167C147.892 200.192 147.864 200.221 147.839 200.254C147.696 200.437 147.702 200.688 147.748 200.907C147.755 200.944 147.764 200.981 147.774 201.017C147.956 201.682 148.139 202.345 148.327 203.008C147.991 203.043 147.655 203.076 147.319 203.108C146.84 201.421 146.38 199.671 145.92 197.98C146.251 197.937 146.581 197.893 146.911 197.848C147.084 198.475 147.254 199.102 147.424 199.73C147.45 199.66 147.484 199.593 147.525 199.531C147.554 199.488 147.586 199.448 147.621 199.41C147.833 199.184 148.14 199.085 148.438 199.045C148.633 199.018 148.833 199.021 149.027 199.063C149.235 199.109 149.433 199.198 149.609 199.32L149.608 199.32Z" fill="#F05123"/>
<path d="M153.934 198.791C153.892 198.638 153.849 198.485 153.807 198.332C154.147 198.273 154.488 198.214 154.828 198.153C155.183 199.43 155.526 200.71 155.872 201.99C155.533 202.046 155.193 202.101 154.853 202.155C154.811 202.002 154.769 201.849 154.728 201.697C154.683 201.79 154.628 201.879 154.562 201.959C154.518 202.014 154.47 202.064 154.417 202.11C154.187 202.312 153.892 202.417 153.594 202.46C153.349 202.496 153.098 202.489 152.856 202.432C152.574 202.365 152.312 202.232 152.073 202.069C151.84 201.905 151.632 201.705 151.467 201.471C151.311 201.249 151.196 200.999 151.124 200.737C151.059 200.498 151.027 200.248 151.05 200.001C151.074 199.733 151.162 199.477 151.297 199.247C151.446 198.998 151.65 198.784 151.901 198.64C152.082 198.536 152.283 198.471 152.488 198.437C152.714 198.4 152.947 198.396 153.173 198.438C153.451 198.491 153.711 198.614 153.934 198.791L153.934 198.791ZM153.524 201.486C153.737 201.453 153.944 201.371 154.101 201.219C154.148 201.173 154.19 201.122 154.226 201.067C154.265 201.008 154.298 200.944 154.323 200.877C154.397 200.674 154.389 200.452 154.333 200.245C154.294 200.101 154.232 199.964 154.146 199.844C154.055 199.718 153.938 199.613 153.807 199.533C153.677 199.449 153.532 199.389 153.381 199.36C153.235 199.332 153.086 199.333 152.94 199.357C152.729 199.391 152.525 199.474 152.37 199.626C152.321 199.673 152.278 199.726 152.242 199.783C152.206 199.837 152.175 199.895 152.152 199.956C152.075 200.159 152.085 200.381 152.142 200.589C152.181 200.732 152.242 200.869 152.327 200.99C152.416 201.117 152.531 201.224 152.66 201.308C152.79 201.391 152.933 201.451 153.084 201.48C153.229 201.508 153.378 201.508 153.524 201.486Z" fill="#F05123"/>
<path d="M159.433 197.783C159.669 197.938 159.88 198.133 160.045 198.365C160.204 198.588 160.316 198.841 160.386 199.106C160.446 199.337 160.474 199.576 160.459 199.813C160.439 200.119 160.347 200.415 160.194 200.678C160.044 200.946 159.835 201.178 159.572 201.335C159.395 201.44 159.199 201.509 158.997 201.547C158.794 201.586 158.586 201.596 158.381 201.567C158.083 201.525 157.803 201.401 157.568 201.211C157.828 202.19 158.087 203.169 158.35 204.147C158.013 204.205 157.676 204.261 157.338 204.316C156.763 202.215 156.214 200.107 155.631 198.008C155.972 197.945 156.312 197.881 156.653 197.816C156.696 197.971 156.738 198.125 156.781 198.279C156.824 198.183 156.878 198.091 156.942 198.007C157.066 197.844 157.227 197.715 157.408 197.622C157.565 197.542 157.734 197.489 157.906 197.455C158.151 197.406 158.403 197.399 158.649 197.446C158.931 197.501 159.195 197.624 159.434 197.784L159.433 197.783ZM158.555 200.618C158.684 200.593 158.809 200.551 158.923 200.486C159.059 200.408 159.173 200.297 159.258 200.164C159.344 200.027 159.397 199.87 159.409 199.707C159.418 199.576 159.401 199.444 159.368 199.317C159.33 199.175 159.271 199.039 159.187 198.919C159.097 198.792 158.979 198.686 158.846 198.607C158.714 198.524 158.567 198.467 158.414 198.443C158.269 198.42 158.122 198.427 157.98 198.455C157.851 198.48 157.726 198.523 157.612 198.589C157.476 198.668 157.362 198.78 157.279 198.915C157.241 198.975 157.209 199.039 157.185 199.107C157.112 199.312 157.122 199.535 157.178 199.744C157.216 199.886 157.275 200.023 157.358 200.144C157.447 200.273 157.563 200.382 157.694 200.466C157.825 200.548 157.971 200.604 158.124 200.629C158.267 200.651 158.413 200.645 158.555 200.618Z" fill="#F05123"/>
<path d="M162.749 196.522C162.836 196.846 162.922 197.17 163.007 197.495C162.712 197.564 162.417 197.632 162.121 197.7C162.262 198.234 162.399 198.768 162.533 199.304C162.564 199.426 162.632 199.54 162.751 199.591C162.783 199.604 162.817 199.613 162.851 199.617C162.937 199.627 163.027 199.611 163.112 199.595C163.247 199.57 163.381 199.535 163.513 199.497C163.589 199.806 163.665 200.115 163.74 200.424C163.437 200.533 163.12 200.623 162.796 200.639C162.607 200.649 162.411 200.631 162.235 200.553C162.19 200.534 162.147 200.511 162.106 200.485C161.83 200.31 161.669 200.002 161.571 199.697C161.553 199.641 161.537 199.585 161.522 199.528C161.386 198.993 161.248 198.459 161.107 197.926C160.878 197.976 160.65 198.026 160.422 198.075C160.335 197.751 160.248 197.427 160.159 197.104C160.388 197.054 160.617 197.005 160.846 196.954C160.771 196.682 160.696 196.41 160.62 196.138C160.93 195.956 161.238 195.772 161.546 195.587C161.653 195.966 161.758 196.346 161.861 196.727C162.157 196.659 162.452 196.591 162.748 196.522L162.749 196.522Z" fill="#F05123"/>
<path d="M166.751 195.867C166.828 195.915 166.9 195.97 166.966 196.031C167.224 196.271 167.378 196.598 167.461 196.938C167.655 197.738 167.84 198.541 168.019 199.344C167.693 199.433 167.366 199.52 167.039 199.606C166.866 198.845 166.688 198.085 166.502 197.326C166.449 197.109 166.339 196.904 166.147 196.785C165.961 196.675 165.742 196.674 165.539 196.726C165.436 196.752 165.335 196.789 165.243 196.842C165.182 196.877 165.125 196.92 165.076 196.971C165.044 197.003 165.016 197.038 164.992 197.075C164.836 197.318 164.862 197.631 164.929 197.9C165.104 198.604 165.273 199.309 165.439 200.015C165.108 200.098 164.776 200.178 164.444 200.258C163.986 198.344 163.581 196.736 163.044 194.839C163.38 194.758 163.716 194.676 164.052 194.593C164.236 195.244 164.413 195.896 164.585 196.55C164.614 196.463 164.652 196.378 164.7 196.3C164.734 196.246 164.771 196.194 164.813 196.146C165.016 195.914 165.302 195.779 165.595 195.704C165.77 195.659 165.952 195.638 166.133 195.654C166.353 195.673 166.564 195.748 166.751 195.867Z" fill="#F05123"/>
<path d="M170.922 196.579C170.765 195.878 170.599 195.179 170.423 194.482C170.744 194.386 171.065 194.288 171.385 194.189C171.709 195.484 171.994 196.789 172.258 198.098C171.943 198.198 171.627 198.296 171.311 198.393C171.28 198.243 171.249 198.092 171.217 197.942C171.182 198.046 171.136 198.146 171.078 198.239C170.975 198.402 170.836 198.539 170.674 198.642C170.537 198.73 170.386 198.793 170.231 198.839C170.067 198.887 169.896 198.911 169.726 198.899C169.509 198.883 169.301 198.808 169.117 198.689C169.055 198.647 168.997 198.6 168.942 198.549C168.679 198.3 168.529 197.957 168.448 197.607C168.263 196.808 168.07 196.011 167.864 195.218C168.192 195.127 168.519 195.035 168.846 194.942C169.039 195.694 169.221 196.448 169.394 197.204C169.442 197.417 169.544 197.625 169.731 197.745C169.909 197.854 170.122 197.848 170.315 197.791C170.415 197.761 170.512 197.721 170.601 197.664C170.659 197.627 170.713 197.583 170.76 197.532C170.791 197.499 170.819 197.462 170.843 197.423C170.998 197.173 170.984 196.857 170.921 196.579L170.922 196.579Z" fill="#F05123"/>
<path d="M177.401 199.034C178.16 198.719 178.769 198.121 179.229 197.445C179.48 197.077 179.692 196.68 179.866 196.269C180.121 195.668 180.301 195.031 180.382 194.38C180.455 193.791 180.443 193.188 180.317 192.605C180.19 192.019 179.946 191.463 179.591 190.982C179.469 190.816 179.334 190.659 179.189 190.513C178.377 189.694 177.222 189.194 176.073 189.298C175.757 189.326 175.446 189.4 175.151 189.515C175.012 189.569 174.877 189.631 174.746 189.702C174.092 190.055 173.559 190.603 173.156 191.228C172.903 191.622 172.698 192.049 172.542 192.493C172.175 193.535 172.078 194.684 172.345 195.766C172.428 196.101 172.544 196.427 172.694 196.737C172.802 196.962 172.927 197.177 173.068 197.382C173.179 197.542 173.299 197.696 173.427 197.841C173.528 197.955 173.634 198.064 173.745 198.168C174.407 198.787 175.267 199.232 176.177 199.26C176.324 199.265 176.472 199.259 176.618 199.241C176.887 199.208 177.151 199.137 177.401 199.034Z" fill="url(#paint24_linear_9646_288850)"/>
<path d="M174.184 190.071C173.806 190.381 173.47 190.74 173.199 191.15C172.952 191.525 172.763 191.935 172.608 192.358C172.6 192.362 172.593 192.366 172.585 192.369C172.497 192.676 172.406 192.981 172.311 193.285C172.283 193.404 172.266 193.526 172.25 193.647C172.222 193.855 172.206 194.064 172.2 194.273C172.184 194.791 172.231 195.313 172.358 195.817C172.459 196.217 172.611 196.604 172.812 196.964C173.154 197.575 173.632 198.098 174.178 198.526C175.614 195.662 177.267 192.91 178.481 189.933C177.659 189.399 176.646 189.154 175.685 189.348C175.475 189.39 175.269 189.453 175.072 189.535C174.751 189.667 174.453 189.85 174.184 190.07L174.184 190.071Z" fill="url(#paint25_linear_9646_288850)"/>
<path d="M178.793 194.94C178.745 195.092 178.688 195.24 178.622 195.385C178.572 195.495 178.517 195.602 178.457 195.706C178.097 196.33 177.545 196.87 176.855 197.09C176.749 197.123 176.641 197.149 176.531 197.166C176.381 197.19 176.227 197.197 176.075 197.187C175.876 197.174 175.678 197.132 175.49 197.064C175.294 196.994 175.108 196.897 174.938 196.778C174.787 196.672 174.649 196.549 174.524 196.413C174.414 196.292 174.316 196.161 174.229 196.022C173.942 195.56 173.794 195.017 173.785 194.474C173.779 194.115 173.832 193.757 173.936 193.415C174.173 192.627 174.686 191.909 175.408 191.515C175.512 191.458 175.619 191.409 175.73 191.367C175.862 191.318 175.998 191.279 176.136 191.254C176.306 191.222 176.48 191.21 176.653 191.217C176.865 191.226 177.076 191.266 177.279 191.332C177.49 191.402 177.692 191.502 177.876 191.628C178.03 191.734 178.172 191.859 178.298 191.998C178.402 192.113 178.494 192.238 178.575 192.371C178.642 192.482 178.701 192.598 178.751 192.718C179.045 193.422 179.021 194.223 178.794 194.94L178.793 194.94Z" fill="url(#paint26_linear_9646_288850)"/>
<path d="M178.1 191.87C177.27 193.611 176.285 195.391 175.398 197.101C175.325 197.106 175.252 197.11 175.179 197.114C176.087 195.38 177.08 193.6 177.923 191.831C177.982 191.844 178.041 191.857 178.1 191.87Z" fill="#E6E8E2"/>
<path d="M178.1 191.87C177.278 193.594 176.309 195.348 175.43 197.042C175.288 197.004 175.147 196.967 175.005 196.93C175.925 195.185 176.896 193.441 177.735 191.652C177.857 191.724 177.978 191.797 178.1 191.87Z" fill="#E6E8E2"/>
<path d="M178.282 196.217C177.892 196.728 177.359 197.142 176.732 197.296C176.623 197.323 176.512 197.342 176.4 197.352C176.257 197.365 176.113 197.364 175.97 197.349C175.788 197.33 175.61 197.288 175.438 197.226C175.232 197.151 175.036 197.048 174.856 196.921C174.697 196.808 174.551 196.678 174.42 196.533C174.304 196.406 174.2 196.267 174.108 196.12C173.805 195.632 173.649 195.06 173.638 194.486C173.631 194.108 173.687 193.73 173.795 193.369C173.926 192.932 174.134 192.519 174.414 192.161C174.606 191.915 174.833 191.695 175.089 191.518C175.45 191.268 175.868 191.103 176.305 191.058C176.46 191.042 176.617 191.041 176.773 191.055C176.959 191.072 177.142 191.11 177.32 191.169C177.752 191.313 178.142 191.575 178.441 191.924C178.62 192.134 178.764 192.372 178.871 192.627C178.92 192.743 178.961 192.862 178.995 192.983C179.175 193.639 179.122 194.339 178.919 194.98C178.778 195.425 178.564 195.847 178.281 196.216L178.282 196.217ZM174.633 192.385C174.381 192.703 174.194 193.071 174.075 193.461C173.977 193.784 173.927 194.121 173.933 194.46C173.941 194.981 174.085 195.502 174.365 195.943C174.446 196.071 174.538 196.192 174.641 196.303C174.757 196.429 174.887 196.542 175.027 196.639C175.187 196.75 175.36 196.839 175.542 196.903C175.692 196.957 175.849 196.992 176.007 197.009C176.132 197.021 176.258 197.022 176.383 197.012C176.483 197.003 176.583 196.987 176.681 196.963C177.25 196.828 177.738 196.459 178.095 195.998C178.349 195.671 178.541 195.295 178.667 194.899C178.884 194.218 178.905 193.461 178.624 192.793C178.527 192.565 178.398 192.352 178.238 192.164C177.971 191.853 177.622 191.62 177.236 191.494C177.081 191.443 176.921 191.41 176.759 191.396C176.623 191.384 176.487 191.384 176.351 191.398C175.953 191.437 175.57 191.585 175.24 191.813C175.011 191.971 174.807 192.166 174.633 192.385Z" fill="url(#paint27_linear_9646_288850)"/>
<path d="M184.508 193.935C183.387 194.506 182.243 195.045 181.092 195.551C181.031 195.578 180.982 195.627 180.946 195.682C180.877 195.786 180.85 195.919 180.868 196.043C180.923 196.415 180.977 196.788 181.03 197.16C181.033 197.182 181.038 197.204 181.043 197.225C181.071 197.329 181.141 197.445 181.256 197.463C181.271 197.465 181.286 197.466 181.301 197.464C181.323 197.462 181.344 197.456 181.364 197.447C182.503 196.943 183.635 196.406 184.743 195.837C184.803 195.806 184.846 195.75 184.877 195.692C184.941 195.573 184.965 195.429 184.949 195.294C184.904 194.92 184.859 194.547 184.812 194.173C184.798 194.065 184.742 193.93 184.621 193.913C184.605 193.911 184.587 193.911 184.571 193.914C184.549 193.917 184.528 193.925 184.508 193.935Z" fill="url(#paint28_linear_9646_288850)"/>
<path d="M181.616 196.906C181.588 196.881 181.575 196.844 181.57 196.807C181.564 196.766 181.568 196.722 181.585 196.683C181.6 196.651 181.622 196.622 181.655 196.608C181.682 196.595 181.712 196.597 181.736 196.616C181.765 196.639 181.777 196.677 181.782 196.712C181.788 196.755 181.783 196.798 181.767 196.838C181.753 196.871 181.731 196.902 181.698 196.917C181.67 196.93 181.64 196.926 181.616 196.906Z" fill="white"/>
<path d="M182.053 196.684C181.979 196.661 181.92 196.609 181.877 196.545C181.823 196.466 181.796 196.372 181.783 196.278C181.768 196.174 181.772 196.069 181.797 195.967C181.82 195.873 181.859 195.783 181.917 195.706C181.97 195.635 182.039 195.576 182.119 195.54C182.176 195.513 182.24 195.497 182.304 195.506C182.362 195.514 182.414 195.541 182.456 195.583C182.425 195.648 182.394 195.714 182.364 195.781C182.321 195.74 182.267 195.716 182.209 195.727C182.19 195.73 182.173 195.736 182.156 195.743C182.108 195.765 182.068 195.801 182.037 195.844C182.002 195.892 181.98 195.948 181.967 196.005C181.953 196.068 181.952 196.134 181.961 196.198C181.969 196.256 181.985 196.315 182.017 196.365C182.042 196.403 182.076 196.436 182.12 196.451C182.164 196.465 182.21 196.457 182.252 196.438C182.34 196.398 182.392 196.309 182.424 196.22C182.468 196.253 182.512 196.286 182.556 196.32C182.531 196.396 182.494 196.469 182.443 196.531C182.396 196.587 182.339 196.634 182.272 196.664C182.204 196.696 182.127 196.708 182.053 196.685L182.053 196.684Z" fill="white"/>
<path d="M182.824 196.325C182.751 196.303 182.693 196.251 182.651 196.187C182.598 196.108 182.571 196.015 182.559 195.921C182.545 195.818 182.549 195.713 182.573 195.612C182.596 195.517 182.636 195.426 182.693 195.348C182.746 195.276 182.814 195.216 182.894 195.178C182.962 195.146 183.038 195.131 183.112 195.149C183.183 195.168 183.241 195.215 183.283 195.275C183.335 195.351 183.361 195.444 183.373 195.535C183.387 195.64 183.381 195.747 183.358 195.851C183.336 195.949 183.297 196.044 183.24 196.127C183.19 196.201 183.124 196.263 183.043 196.302C182.974 196.334 182.898 196.347 182.824 196.325ZM183.127 195.979C183.16 195.929 183.181 195.872 183.193 195.813C183.207 195.749 183.208 195.683 183.2 195.618C183.192 195.561 183.177 195.503 183.146 195.454C183.122 195.416 183.089 195.385 183.047 195.372C183.005 195.359 182.961 195.367 182.922 195.385C182.876 195.407 182.838 195.443 182.808 195.485C182.775 195.533 182.753 195.589 182.741 195.646C182.727 195.71 182.726 195.775 182.734 195.839C182.742 195.897 182.758 195.956 182.789 196.006C182.813 196.044 182.846 196.077 182.889 196.092C182.931 196.106 182.975 196.099 183.014 196.081C183.061 196.059 183.098 196.022 183.127 195.979Z" fill="white"/>
<path d="M184.233 195.7C184.205 195.479 184.177 195.259 184.149 195.038C184.1 195.254 184.052 195.471 184.004 195.687C183.979 195.7 183.954 195.712 183.929 195.725C183.837 195.582 183.743 195.441 183.648 195.301C183.676 195.516 183.703 195.732 183.731 195.948C183.678 195.974 183.625 196 183.572 196.026C183.526 195.663 183.479 195.301 183.431 194.939C183.478 194.916 183.525 194.894 183.572 194.871C183.694 195.046 183.814 195.223 183.931 195.401C183.991 195.135 184.052 194.869 184.114 194.603C184.16 194.58 184.205 194.557 184.251 194.534C184.298 194.896 184.344 195.258 184.389 195.62C184.337 195.646 184.285 195.673 184.233 195.699L184.233 195.7Z" fill="white"/>
<path d="M183.314 192.277C183.234 192.505 183.104 192.727 182.92 192.883C182.755 193.022 182.551 193.124 182.331 193.098C182.28 193.094 182.23 193.084 182.182 193.068C182.141 193.055 182.101 193.037 182.064 193.016C181.833 192.885 181.699 192.634 181.652 192.377C181.586 192.015 181.678 191.627 181.883 191.328C181.994 191.166 182.142 191.027 182.32 190.945C182.334 190.939 182.349 190.934 182.363 190.928C182.37 190.925 182.377 190.922 182.385 190.92C182.413 190.91 182.441 190.9 182.471 190.894C182.648 190.847 182.849 190.86 183 190.977C183.03 190.996 183.059 191.018 183.085 191.043C183.226 190.73 183.364 190.416 183.499 190.101C183.499 190.101 183.498 190.1 183.498 190.1C183.412 190.035 183.319 189.98 183.22 189.937C183.146 189.905 183.068 189.88 182.989 189.862C182.691 189.796 182.38 189.842 182.104 189.969C182.061 189.989 182.019 190.012 181.977 190.036C181.888 190.089 181.803 190.149 181.724 190.216C181.569 190.344 181.43 190.49 181.311 190.652C181.302 190.665 181.292 190.677 181.283 190.691C181.264 190.717 181.247 190.745 181.229 190.772C180.944 191.223 180.79 191.765 180.797 192.302C180.797 192.327 180.798 192.352 180.799 192.377C180.801 192.407 180.802 192.437 180.805 192.467C180.828 192.726 180.895 192.981 181 193.22C181.118 193.489 181.285 193.742 181.519 193.922C181.53 193.931 181.541 193.94 181.553 193.948C181.577 193.965 181.601 193.981 181.626 193.996C181.652 194.012 181.679 194.028 181.706 194.042C181.721 194.051 181.737 194.057 181.752 194.064C181.787 194.081 181.823 194.098 181.86 194.111C181.868 194.114 181.878 194.117 181.886 194.12C182.065 194.181 182.256 194.2 182.443 194.174C182.582 194.155 182.717 194.113 182.843 194.053C182.899 194.027 182.953 193.997 183.006 193.964C183.008 193.963 183.01 193.962 183.012 193.961C183.064 193.928 183.115 193.893 183.163 193.855L183.164 193.854C183.534 193.565 183.796 193.146 183.961 192.707C183.747 192.562 183.53 192.42 183.313 192.28L183.314 192.277Z" fill="#F05123"/>
</g>
</g>
</g>
</g>
<defs>
<radialGradient id="paint0_radial_9646_288850" cx="0" cy="0" r="1" gradientUnits="userSpaceOnUse" gradientTransform="translate(144.041 44.9436) rotate(-165.264) scale(27.8102 15.1075)">
<stop stop-color="white"/>
<stop offset="0.52" stop-color="#F2F5FB"/>
<stop offset="1" stop-color="#C6D6EF"/>
</radialGradient>
<linearGradient id="paint1_linear_9646_288850" x1="81.3823" y1="119.197" x2="157.534" y2="139.388" gradientUnits="userSpaceOnUse">
<stop stop-color="#F26F21"/>
<stop offset="0.48" stop-color="#DB4C15"/>
<stop offset="0.71" stop-color="#E25619"/>
<stop offset="1" stop-color="#F26F21"/>
</linearGradient>
<linearGradient id="paint2_linear_9646_288850" x1="113.477" y1="147.769" x2="116.68" y2="134.916" gradientUnits="userSpaceOnUse">
<stop stop-color="#F26F21"/>
<stop offset="0.51" stop-color="#EC661E" stop-opacity="0.76"/>
<stop offset="1" stop-color="#DB4C15" stop-opacity="0"/>
</linearGradient>
<linearGradient id="paint3_linear_9646_288850" x1="113.223" y1="150.284" x2="108.501" y2="167.629" gradientUnits="userSpaceOnUse">
<stop stop-color="#2E9FED"/>
<stop offset="1" stop-color="#1573CD"/>
</linearGradient>
<radialGradient id="paint4_radial_9646_288850" cx="0" cy="0" r="1" gradientUnits="userSpaceOnUse" gradientTransform="translate(131.183 83.4127) rotate(-75.1153) scale(46.1963 57.5179)">
<stop stop-color="#FFBF67"/>
<stop offset="0.58" stop-color="#FFB65E"/>
<stop offset="0.8" stop-color="#FFA34A"/>
<stop offset="1" stop-color="#FF9036"/>
</radialGradient>
<linearGradient id="paint5_linear_9646_288850" x1="50.2236" y1="219.012" x2="55.4277" y2="202.181" gradientUnits="userSpaceOnUse">
<stop stop-color="#FF9036"/>
<stop offset="1" stop-color="#FFBF67"/>
</linearGradient>
<linearGradient id="paint6_linear_9646_288850" x1="128.601" y1="239.994" x2="134.636" y2="223.443" gradientUnits="userSpaceOnUse">
<stop stop-color="#FF9036"/>
<stop offset="1" stop-color="#FFBF67"/>
</linearGradient>
<linearGradient id="paint7_linear_9646_288850" x1="46.8062" y1="116.096" x2="43.4555" y2="95.9841" gradientUnits="userSpaceOnUse">
<stop stop-color="#FF9036"/>
<stop offset="1" stop-color="#FFBF67"/>
</linearGradient>
<linearGradient id="paint8_linear_9646_288850" x1="189.509" y1="150.085" x2="200.328" y2="134.464" gradientUnits="userSpaceOnUse">
<stop stop-color="#FF9036"/>
<stop offset="1" stop-color="#FFBF67"/>
</linearGradient>
<linearGradient id="paint9_linear_9646_288850" x1="167.063" y1="158.856" x2="179.661" y2="180.924" gradientUnits="userSpaceOnUse">
<stop stop-color="#10509F"/>
<stop offset="0.2" stop-color="#146BC3"/>
<stop offset="0.43" stop-color="#1573CD"/>
<stop offset="0.68" stop-color="#1368BF"/>
<stop offset="1" stop-color="#10509F"/>
</linearGradient>
<linearGradient id="paint10_linear_9646_288850" x1="66.0695" y1="144.414" x2="90.5011" y2="119.866" gradientUnits="userSpaceOnUse">
<stop stop-color="#C6D6EF"/>
<stop offset="0.25" stop-color="#F1F5FB"/>
<stop offset="0.5" stop-color="white"/>
<stop offset="0.77" stop-color="#F2F6FB"/>
<stop offset="1" stop-color="#C6D6EF"/>
</linearGradient>
<linearGradient id="paint11_linear_9646_288850" x1="161.427" y1="165.655" x2="153.364" y2="133.213" gradientUnits="userSpaceOnUse">
<stop stop-color="#C6D6EF"/>
<stop offset="0.29" stop-color="#F0F4FB"/>
<stop offset="0.57" stop-color="white"/>
<stop offset="0.78" stop-color="#F1F5FB"/>
<stop offset="1" stop-color="#C6D6EF"/>
</linearGradient>
<radialGradient id="paint12_radial_9646_288850" cx="0" cy="0" r="1" gradientUnits="userSpaceOnUse" gradientTransform="translate(109.191 164.972) rotate(-164.563) scale(47.7765 64.3278)">
<stop stop-color="white"/>
<stop offset="0.57" stop-color="#F4F7FC"/>
<stop offset="0.79" stop-color="#DCE6F5"/>
<stop offset="1" stop-color="#C6D6EF"/>
</radialGradient>
<linearGradient id="paint13_linear_9646_288850" x1="104.248" y1="188.022" x2="93.3067" y2="184.366" gradientUnits="userSpaceOnUse">
<stop stop-color="#8295B5"/>
<stop offset="0.17" stop-color="#5E79A7" stop-opacity="0.56"/>
<stop offset="0.37" stop-color="#3E609A" stop-opacity="0.16"/>
<stop offset="1" stop-color="#315695" stop-opacity="0"/>
</linearGradient>
<linearGradient id="paint14_linear_9646_288850" x1="112.382" y1="151.379" x2="117.421" y2="131.807" gradientUnits="userSpaceOnUse">
<stop stop-color="white"/>
<stop offset="0.54" stop-color="#F3F6FC"/>
<stop offset="1" stop-color="#C6D6EF"/>
</linearGradient>
<linearGradient id="paint15_linear_9646_288850" x1="112.381" y1="151.379" x2="117.421" y2="131.807" gradientUnits="userSpaceOnUse">
<stop stop-color="white"/>
<stop offset="0.54" stop-color="#F3F6FC"/>
<stop offset="1" stop-color="#C6D6EF"/>
</linearGradient>
<radialGradient id="paint16_radial_9646_288850" cx="0" cy="0" r="1" gradientUnits="userSpaceOnUse" gradientTransform="translate(98.86 200.604) rotate(-163.4) scale(27.0812 18.63)">
<stop stop-color="#C6D6EF"/>
<stop offset="0.54" stop-color="#EFF3FA" stop-opacity="0.29"/>
<stop offset="1" stop-color="white" stop-opacity="0"/>
</radialGradient>
<linearGradient id="paint17_linear_9646_288850" x1="128.027" y1="95.6754" x2="132.89" y2="77.0143" gradientUnits="userSpaceOnUse">
<stop stop-color="#FD9E48"/>
<stop offset="1" stop-color="#EE8239"/>
</linearGradient>
<linearGradient id="paint18_linear_9646_288850" x1="121.461" y1="126.196" x2="124.748" y2="109.404" gradientUnits="userSpaceOnUse">
<stop stop-color="#E23E2D"/>
<stop offset="1" stop-color="#FE6343"/>
</linearGradient>
<linearGradient id="paint19_linear_9646_288850" x1="135.042" y1="189.475" x2="90.3013" y2="126.901" gradientUnits="userSpaceOnUse">
<stop stop-color="#10509F"/>
<stop offset="0.26" stop-color="#146BC2"/>
<stop offset="0.53" stop-color="#1573CD"/>
<stop offset="0.78" stop-color="#1B7DD4"/>
<stop offset="1" stop-color="#2EA0ED"/>
</linearGradient>
<radialGradient id="paint20_radial_9646_288850" cx="0" cy="0" r="1" gradientUnits="userSpaceOnUse" gradientTransform="translate(158.697 197.814) rotate(-174.425) scale(32.0991 19.6358)">
<stop stop-color="#021E59"/>
<stop offset="0.53" stop-color="#062D71"/>
<stop offset="1" stop-color="#135FC0"/>
</radialGradient>
<radialGradient id="paint21_radial_9646_288850" cx="0" cy="0" r="1" gradientUnits="userSpaceOnUse" gradientTransform="translate(153.831 188.709) rotate(173.345) scale(28.069 20.1091)">
<stop stop-color="#2E9FED"/>
<stop offset="0.5" stop-color="#278FE2"/>
<stop offset="1" stop-color="#135FC0"/>
</radialGradient>
<linearGradient id="paint22_linear_9646_288850" x1="121.917" y1="200.355" x2="182.89" y2="191.744" gradientUnits="userSpaceOnUse">
<stop stop-color="white"/>
<stop offset="0.57" stop-color="#F6F8FC"/>
<stop offset="0.79" stop-color="#E3EBF7"/>
<stop offset="1" stop-color="#D1DEF2"/>
</linearGradient>
<linearGradient id="paint23_linear_9646_288850" x1="121.918" y1="200.354" x2="182.891" y2="191.743" gradientUnits="userSpaceOnUse">
<stop stop-color="white"/>
<stop offset="0.57" stop-color="#F6F8FC"/>
<stop offset="0.79" stop-color="#E3EBF7"/>
<stop offset="1" stop-color="#D1DEF2"/>
</linearGradient>
<linearGradient id="paint24_linear_9646_288850" x1="187.065" y1="193.877" x2="172.08" y2="193.597" gradientUnits="userSpaceOnUse">
<stop stop-color="#EFD03D"/>
<stop offset="0.43" stop-color="#EFD03D"/>
<stop offset="0.65" stop-color="#F05123"/>
<stop offset="1" stop-color="#F05123"/>
</linearGradient>
<linearGradient id="paint25_linear_9646_288850" x1="177.505" y1="193.389" x2="170.93" y2="193.033" gradientUnits="userSpaceOnUse">
<stop stop-color="#EFD03D"/>
<stop offset="0.6" stop-color="#F1822B"/>
<stop offset="1" stop-color="#F1822B"/>
</linearGradient>
<linearGradient id="paint26_linear_9646_288850" x1="172.745" y1="192.511" x2="177.831" y2="194.246" gradientUnits="userSpaceOnUse">
<stop stop-color="white"/>
<stop offset="1" stop-color="#E4E4E4"/>
</linearGradient>
<linearGradient id="paint27_linear_9646_288850" x1="172.183" y1="191.28" x2="176.941" y2="194.405" gradientUnits="userSpaceOnUse">
<stop stop-color="white"/>
<stop offset="1" stop-color="#D9D9D8"/>
</linearGradient>
<linearGradient id="paint28_linear_9646_288850" x1="190.128" y1="197.782" x2="175.665" y2="193.812" gradientUnits="userSpaceOnUse">
<stop stop-color="#EFD03D"/>
<stop offset="0.21" stop-color="#EFD03D"/>
<stop offset="0.61" stop-color="#F05123"/>
<stop offset="1" stop-color="#F05123"/>
</linearGradient>
<clipPath id="clip0_9646_288850">
<rect width="241" height="240" fill="white"/>
</clipPath>
</defs>
</svg>
