<svg width="400" height="400" viewBox="0 0 400 400" fill="none" xmlns="http://www.w3.org/2000/svg">
<g clip-path="url(#clip0_9405_287821)">
<rect width="400" height="400" fill="white"/>
<g clip-path="url(#clip1_9405_287821)">
<path fill-rule="evenodd" clip-rule="evenodd" d="M127.191 385.101C123.544 389.959 119.354 392.378 108.122 393.813C99.2377 394.951 84.8165 396.133 80.6304 386.815C78.6634 382.439 80.9499 376.699 83.6713 373.01C88.0152 367.117 94.8803 360.085 101.69 357.58C108.499 355.071 117.506 353.859 123.024 353.667C128.704 353.464 130.938 355.929 131.702 360.201C132.364 363.9 131.177 379.793 127.191 385.101Z" fill="url(#paint0_linear_9405_287821)"/>
<path fill-rule="evenodd" clip-rule="evenodd" d="M127.191 385.101C123.544 389.959 119.354 392.378 108.122 393.813C99.2377 394.951 84.8165 396.133 80.6304 386.815C78.6634 382.439 80.9499 376.699 83.6713 373.01C88.0152 367.117 94.8803 360.085 101.69 357.58C108.499 355.071 117.506 353.859 123.024 353.667C128.704 353.464 130.938 355.929 131.702 360.201C132.364 363.9 131.177 379.793 127.191 385.101Z" fill="url(#paint1_linear_9405_287821)"/>
<path fill-rule="evenodd" clip-rule="evenodd" d="M167.86 384.62C172.012 388.501 177.632 390.326 188.775 389.153C197.59 388.227 211.803 386.092 214.563 376.313C215.86 371.719 212.821 366.793 209.65 363.91C204.586 359.304 196.903 354.185 189.916 353.346C182.93 352.504 172.364 350.741 167.812 354.074C163.661 357.109 162.743 364.791 162.596 373.337C162.535 377 164.823 381.783 167.86 384.62Z" fill="url(#paint2_linear_9405_287821)"/>
<path fill-rule="evenodd" clip-rule="evenodd" d="M167.86 384.62C172.012 388.501 177.632 390.326 188.775 389.153C197.59 388.227 211.803 386.092 214.563 376.313C215.86 371.719 212.821 366.793 209.65 363.91C204.586 359.304 196.903 354.185 189.916 353.346C182.93 352.504 172.364 350.741 167.812 354.074C163.661 357.109 162.743 364.791 162.596 373.337C162.535 377 164.823 381.783 167.86 384.62Z" fill="url(#paint3_linear_9405_287821)"/>
<path fill-rule="evenodd" clip-rule="evenodd" d="M89.5395 364.359C89.5395 364.359 110.809 370.005 132.524 366.444C139.518 356.44 156.513 328.096 156.513 328.096C156.513 328.096 142.07 307.653 129.712 306.849C117.352 306.049 93.7544 319.756 93.7544 319.756L89.5395 364.357V364.359Z" fill="url(#paint4_linear_9405_287821)"/>
<path fill-rule="evenodd" clip-rule="evenodd" d="M162.539 360.292C162.539 360.292 187.753 365.021 209.465 355.125C211.428 337.523 216.538 310.523 216.538 310.523L180.738 298.338C180.738 298.338 158.811 298.644 157.604 311.083C156.395 323.521 162.539 360.292 162.539 360.292Z" fill="url(#paint5_linear_9405_287821)"/>
<path fill-rule="evenodd" clip-rule="evenodd" d="M185.598 202.604C185.598 202.604 203.167 200.679 219.81 220.456C236.45 240.233 258.762 281.976 245.825 285.355C230.026 289.489 212.531 284.229 201.766 273.029C191 261.825 190.057 233.188 190.057 233.188L185.598 202.604Z" fill="url(#paint6_linear_9405_287821)"/>
<path fill-rule="evenodd" clip-rule="evenodd" d="M224.696 216.85C224.696 216.85 224.604 204.828 224.925 197.753C224.56 191.317 232.168 183.587 237.624 180.652C240.807 178.937 241.491 186.459 241.491 186.459C241.491 186.459 237.628 181.757 244.437 178.817C252.988 175.126 261.355 179.591 266.886 188.644C272.254 197.431 271.859 210.425 268.601 217.48C264.977 225.324 249.89 233.323 249.89 233.323L224.696 216.85Z" fill="url(#paint7_linear_9405_287821)"/>
<path fill-rule="evenodd" clip-rule="evenodd" d="M224.696 216.85C224.696 216.85 224.604 204.828 224.925 197.753C224.56 191.317 232.168 183.587 237.624 180.652C240.807 178.937 241.491 186.459 241.491 186.459C241.491 186.459 237.628 181.757 244.437 178.817C252.988 175.126 261.355 179.591 266.886 188.644C272.254 197.431 271.859 210.425 268.601 217.48C264.977 225.324 249.89 233.323 249.89 233.323L224.696 216.85Z" fill="url(#paint8_linear_9405_287821)"/>
<path fill-rule="evenodd" clip-rule="evenodd" d="M216.559 247.04C216.69 234.902 221.96 217.824 223.85 212.157C224.258 210.934 224.571 210.275 224.571 210.275L266.276 229.081C266.276 229.081 270.325 277.49 244.335 282.462C216.297 287.826 216.399 261.791 216.559 247.04Z" fill="url(#paint9_radial_9405_287821)"/>
<mask id="mask0_9405_287821" style="mask-type:luminance" maskUnits="userSpaceOnUse" x="216" y="210" width="51" height="74">
<path d="M216.559 247.04C216.69 234.902 221.96 217.824 223.85 212.157C224.258 210.934 224.571 210.275 224.571 210.275L266.276 229.081C266.276 229.081 270.325 277.49 244.335 282.462C216.297 287.826 216.399 261.791 216.559 247.04Z" fill="white"/>
</mask>
<g mask="url(#mask0_9405_287821)">
<path d="M216.355 216.992L271.986 240.943" stroke="#A0B2D3" stroke-width="3.33" stroke-linecap="round" stroke-linejoin="round"/>
</g>
<path fill-rule="evenodd" clip-rule="evenodd" d="M87.6938 333.135C87.6938 333.135 105.119 341.766 153.866 342.64C160.037 333.757 166.677 322.08 166.677 322.08C166.677 322.08 177.453 339.261 178.317 342.322C183.783 341.917 211.826 335.928 227.51 331.392C226.65 298.887 216.755 247.109 209.105 224.757C201.455 202.406 186.102 182.304 186.102 182.304C186.102 182.304 171.731 169.282 150.981 173.542C130.23 177.805 107.72 202.11 104.503 213.484C101.287 224.858 87.6976 333.134 87.6976 333.134L87.6938 333.135Z" fill="url(#paint10_radial_9405_287821)"/>
<mask id="mask1_9405_287821" style="mask-type:luminance" maskUnits="userSpaceOnUse" x="87" y="172" width="141" height="171">
<path d="M87.6938 333.135C87.6938 333.135 105.119 341.766 153.866 342.64C160.037 333.757 166.677 322.08 166.677 322.08C166.677 322.08 177.453 339.261 178.317 342.322C183.783 341.917 211.826 335.928 227.51 331.392C226.65 298.887 216.755 247.109 209.105 224.757C201.455 202.406 186.102 182.304 186.102 182.304C186.102 182.304 171.731 169.282 150.981 173.542C130.23 177.805 107.72 202.11 104.503 213.484C101.287 224.858 87.6976 333.134 87.6976 333.134L87.6938 333.135Z" fill="white"/>
</mask>
<g mask="url(#mask1_9405_287821)">
<path fill-rule="evenodd" clip-rule="evenodd" d="M163.815 275.282C163.815 275.282 166.44 298.945 166.632 303.796C166.825 308.647 166.965 322.256 166.965 322.256L165.304 349.146L146.245 348.384L151.709 263.904L163.815 275.28V275.282Z" fill="url(#paint11_linear_9405_287821)"/>
<path fill-rule="evenodd" clip-rule="evenodd" d="M123.357 278.422C123.357 278.422 123.178 298.334 114.317 318.254C110.685 326.42 111.261 324.503 111.261 324.503L91.4988 323.731L113.524 261.638L123.355 275.176V278.422H123.357Z" fill="url(#paint12_linear_9405_287821)"/>
</g>
<path fill-rule="evenodd" clip-rule="evenodd" d="M126.698 200.579L163.751 275.338C163.751 275.338 142.305 264.62 137.153 262.047C136.477 261.71 136.05 261.017 136.05 260.259V249.211C136.05 249.211 120.272 242.822 115.449 240.868C114.667 240.552 114.263 239.686 114.517 238.883C116.775 231.786 126.698 200.579 126.698 200.579Z" fill="url(#paint13_linear_9405_287821)" stroke="#A0B2D3" stroke-width="5.26" stroke-linecap="round" stroke-linejoin="round"/>
<path fill-rule="evenodd" clip-rule="evenodd" d="M177.522 193.015L163.751 275.338C163.751 275.338 176.854 260.165 180.386 256.072C180.927 255.449 181.109 254.589 180.869 253.796L177.872 243.911C177.761 243.545 177.863 243.148 178.136 242.88C180.313 240.752 189.855 231.425 192.846 228.499C193.385 227.973 193.533 227.161 193.211 226.478C190.405 220.493 177.52 193.015 177.52 193.015H177.522Z" fill="url(#paint14_linear_9405_287821)" stroke="#A0B2D3" stroke-width="5.26" stroke-linecap="round" stroke-linejoin="round"/>
<path fill-rule="evenodd" clip-rule="evenodd" d="M208.556 257.754C208.195 254.5 205.406 252.612 202.332 253.534L186.901 258.165C183.827 259.086 181.623 262.475 181.983 265.729L183.785 281.955C184.146 285.209 186.935 287.097 190.009 286.175L205.441 281.544C208.514 280.622 210.718 277.234 210.358 273.98L208.556 257.754Z" fill="white" stroke="#A0B2D3" stroke-width="3.65" stroke-linecap="round" stroke-linejoin="round"/>
<path fill-rule="evenodd" clip-rule="evenodd" d="M106.929 276.935C106.929 276.935 116.365 313.983 101.409 332.295C78.0899 334.094 50.9565 330.185 51.5166 304.874C51.6244 299.985 56.7727 279.101 68.7766 261.142C81.7448 241.743 96.7261 230.478 100.421 228.017C111.009 220.962 121.036 231.689 121.157 242.324C121.286 253.717 106.929 276.937 106.929 276.937V276.935Z" fill="url(#paint15_radial_9405_287821)"/>
<path fill-rule="evenodd" clip-rule="evenodd" d="M123.357 278.437C123.357 278.437 121.677 304.191 114.127 318.254C107.119 318.034 93.8507 319.569 93.7544 298.359C93.6582 277.151 123.357 278.437 123.357 278.437Z" fill="url(#paint16_linear_9405_287821)"/>
<path fill-rule="evenodd" clip-rule="evenodd" d="M123.357 278.437C123.357 278.437 121.677 304.191 114.127 318.254C107.119 318.034 93.8507 319.569 93.7544 298.359C93.6582 277.151 123.357 278.437 123.357 278.437Z" fill="url(#paint17_linear_9405_287821)"/>
<path fill-rule="evenodd" clip-rule="evenodd" d="M113.257 277.313C113.257 277.313 116.365 313.983 101.409 332.295C78.0899 334.094 50.9565 330.185 51.5166 304.874C52.0767 279.564 82.5762 273.86 100.152 273.839C106.542 273.83 113.257 277.313 113.257 277.313Z" fill="url(#paint18_radial_9405_287821)"/>
<mask id="mask2_9405_287821" style="mask-type:luminance" maskUnits="userSpaceOnUse" x="51" y="273" width="63" height="60">
<path d="M113.257 277.313C113.257 277.313 116.365 313.983 101.409 332.295C78.0899 334.094 50.9565 330.185 51.5166 304.874C52.0767 279.564 82.5762 273.86 100.152 273.839C106.542 273.83 113.257 277.313 113.257 277.313Z" fill="white"/>
</mask>
<g mask="url(#mask2_9405_287821)">
<path d="M101.374 271.882C101.374 271.882 104.555 299.944 89.959 338.086" stroke="#A0B2D3" stroke-width="5.26" stroke-linecap="round" stroke-linejoin="round"/>
</g>
<path fill-rule="evenodd" clip-rule="evenodd" d="M163.751 275.34L175.499 212.348L132.811 215.999L163.751 275.34Z" fill="url(#paint19_linear_9405_287821)"/>
<mask id="mask3_9405_287821" style="mask-type:luminance" maskUnits="userSpaceOnUse" x="132" y="212" width="44" height="64">
<path d="M163.751 275.34L175.499 212.348L132.811 215.999L163.751 275.34Z" fill="white"/>
</mask>
<g mask="url(#mask3_9405_287821)">
<path fill-rule="evenodd" clip-rule="evenodd" d="M174.325 226.464C174.325 226.464 171.754 234.688 161.484 236.877C151.216 239.063 138.862 232.842 138.862 232.842L163.32 278.574L166.661 278.273L174.325 226.464Z" fill="url(#paint20_linear_9405_287821)"/>
</g>
<path fill-rule="evenodd" clip-rule="evenodd" d="M190.411 292.33L184.343 306.818C184.343 306.818 139.911 291.161 124.897 277.087C102.273 255.883 96.8858 244.415 90.3151 236.951C89.2258 235.712 91.9145 231.894 93.0077 230.702C94.5608 229.006 97.5902 226.667 99.1126 227.892C106.47 233.815 112.72 247.493 132.037 264.09C150.889 280.285 190.413 292.334 190.413 292.334L190.411 292.33Z" fill="url(#paint21_linear_9405_287821)"/>
<path fill-rule="evenodd" clip-rule="evenodd" d="M172.168 281.085C176.914 272.47 195.157 268.72 207.057 267.156C228.632 264.317 236.602 267.06 242.79 272.624C250.3 279.382 253.423 289.529 254.601 297.977C255.781 306.458 255.741 313.015 252.509 322.825C247.012 339.51 234.608 342.719 221.825 346.102C211.132 348.934 196.847 347.78 188.842 342.634C180.416 337.22 173.64 330.078 170.967 313.696C169.025 301.798 168.13 288.414 172.168 281.083V281.085Z" fill="url(#paint22_radial_9405_287821)"/>
<mask id="mask4_9405_287821" style="mask-type:luminance" maskUnits="userSpaceOnUse" x="169" y="266" width="87" height="82">
<path d="M172.168 281.085C176.914 272.47 195.157 268.72 207.057 267.156C228.632 264.317 236.602 267.06 242.79 272.624C250.3 279.382 253.423 289.529 254.601 297.977C255.781 306.458 255.741 313.015 252.509 322.825C247.012 339.51 234.608 342.719 221.825 346.102C211.132 348.934 196.847 347.78 188.842 342.634C180.416 337.22 173.64 330.078 170.967 313.696C169.025 301.798 168.13 288.414 172.168 281.083V281.085Z" fill="white"/>
</mask>
<g mask="url(#mask4_9405_287821)">
<path fill-rule="evenodd" clip-rule="evenodd" d="M172.576 262.354C177.891 253.701 198.131 249.831 211.326 248.185C235.249 245.202 244.062 247.89 250.881 253.416C259.157 260.126 262.55 270.258 263.799 278.7C265.05 287.176 264.959 293.738 261.314 303.572C255.113 320.302 241.346 323.596 227.162 327.066C215.296 329.97 199.476 328.912 190.642 323.818C181.342 318.458 173.882 311.358 171.028 294.986C168.957 283.095 168.055 269.714 172.577 262.352L172.576 262.354Z" fill="url(#paint23_radial_9405_287821)"/>
<mask id="mask5_9405_287821" style="mask-type:luminance" maskUnits="userSpaceOnUse" x="169" y="246" width="96" height="83">
<path d="M172.576 262.354C177.891 253.701 198.131 249.831 211.326 248.185C235.249 245.202 244.062 247.89 250.881 253.416C259.157 260.126 262.55 270.258 263.799 278.7C265.05 287.176 264.959 293.738 261.314 303.572C255.113 320.302 241.346 323.596 227.162 327.066C215.296 329.97 199.476 328.912 190.642 323.818C181.342 318.458 173.882 311.358 171.028 294.986C168.957 283.095 168.055 269.714 172.577 262.352L172.576 262.354Z" fill="white"/>
</mask>
<g mask="url(#mask5_9405_287821)">
<path fill-rule="evenodd" clip-rule="evenodd" d="M121.146 308.903C143.827 316.252 168.26 321.376 205.631 320.298C226.786 319.689 258.512 307.831 258.512 307.831L256.243 285.807C256.243 285.807 224.517 297.665 203.362 298.274C165.991 299.354 141.554 294.231 118.876 286.879C96.1024 279.5 98.3754 301.522 121.146 308.903Z" fill="url(#paint24_linear_9405_287821)"/>
<path fill-rule="evenodd" clip-rule="evenodd" d="M119.331 284.26C142.012 291.612 166.446 296.737 203.82 295.657C224.973 295.043 256.699 283.186 256.699 283.186L255.902 280.547C255.902 280.547 224.177 292.405 203.021 293.014C165.651 294.095 141.214 288.972 118.536 281.62C95.7617 274.24 96.5624 276.877 119.333 284.258L119.331 284.26Z" fill="url(#paint25_linear_9405_287821)"/>
<path d="M191.583 308.785C191.854 309.023 192.083 309.316 192.253 309.65C192.407 309.95 192.511 310.28 192.576 310.616C192.819 311.86 193.067 313.104 193.325 314.346C192.817 314.359 192.309 314.369 191.801 314.377C191.558 313.21 191.325 312.041 191.1 310.87C191.031 310.514 190.871 310.182 190.605 309.954C190.347 309.738 190.024 309.659 189.707 309.671C189.56 309.677 189.414 309.696 189.275 309.74C189.185 309.769 189.098 309.812 189.019 309.868C188.968 309.904 188.921 309.947 188.879 309.995C188.65 310.263 188.636 310.662 188.683 311.009C188.69 311.069 188.7 311.129 188.712 311.187C188.916 312.257 189.125 313.328 189.347 314.396C188.846 314.396 188.344 314.394 187.844 314.388C187.432 312.377 187.085 310.487 186.72 308.465C187.212 308.452 187.703 308.436 188.194 308.419C188.236 308.649 188.278 308.876 188.321 309.106C188.367 309 188.423 308.899 188.488 308.809C188.534 308.745 188.586 308.685 188.642 308.631C188.979 308.305 189.441 308.195 189.88 308.176C190.176 308.163 190.475 308.199 190.759 308.298C191.058 308.402 191.337 308.571 191.581 308.787L191.583 308.785Z" fill="#F05123"/>
<path d="M198.416 308.332C198.7 308.571 198.939 308.872 199.116 309.216C199.272 309.518 199.378 309.85 199.445 310.19C199.701 311.47 199.957 312.751 200.221 314.03C199.705 314.064 199.187 314.095 198.672 314.126C198.423 312.921 198.181 311.713 197.938 310.506C197.865 310.141 197.7 309.802 197.426 309.574C197.159 309.358 196.826 309.289 196.502 309.312C196.35 309.324 196.196 309.349 196.052 309.403C195.96 309.437 195.871 309.484 195.792 309.545C195.742 309.584 195.696 309.628 195.656 309.678C195.425 309.964 195.413 310.379 195.463 310.741C195.471 310.803 195.482 310.865 195.494 310.924C195.715 312.033 195.939 313.142 196.168 314.25C195.656 314.271 195.144 314.29 194.632 314.307C194.045 311.488 193.49 308.568 192.934 305.744C193.438 305.707 193.943 305.671 194.449 305.632C194.659 306.679 194.865 307.727 195.071 308.774C195.117 308.662 195.173 308.556 195.24 308.46C195.286 308.392 195.338 308.328 195.396 308.271C195.736 307.921 196.21 307.792 196.664 307.758C196.962 307.734 197.265 307.761 197.555 307.85C197.867 307.947 198.16 308.114 198.417 308.332H198.416Z" fill="#F05123"/>
<path d="M205.017 307.918C204.965 307.661 204.913 307.406 204.861 307.15C205.383 307.09 205.902 307.028 206.424 306.965C206.868 309.156 207.261 311.179 207.69 313.372C207.171 313.428 206.651 313.484 206.131 313.536C206.081 313.281 206.029 313.025 205.979 312.77C205.904 312.919 205.812 313.06 205.708 313.185C205.637 313.27 205.56 313.347 205.475 313.418C205.109 313.725 204.653 313.866 204.199 313.906C203.824 313.939 203.445 313.902 203.083 313.781C202.661 313.642 202.274 313.397 201.926 313.102C201.587 312.809 201.287 312.46 201.056 312.059C200.837 311.677 200.685 311.254 200.596 310.816C200.517 310.417 200.49 310.004 200.544 309.601C200.602 309.165 200.758 308.753 200.981 308.39C201.227 307.997 201.555 307.667 201.947 307.457C202.23 307.306 202.54 307.219 202.854 307.187C203.2 307.15 203.552 307.167 203.893 307.262C204.311 307.378 204.694 307.607 205.017 307.92V307.918ZM204.172 312.298C204.497 312.267 204.819 312.155 205.069 311.92C205.144 311.85 205.211 311.771 205.271 311.684C205.335 311.592 205.39 311.49 205.433 311.383C205.562 311.058 205.569 310.693 205.5 310.346C205.452 310.107 205.371 309.875 205.25 309.669C205.123 309.453 204.955 309.27 204.763 309.123C204.572 308.973 204.359 308.857 204.13 308.795C203.912 308.733 203.685 308.72 203.462 308.743C203.139 308.776 202.821 308.892 202.575 309.125C202.498 309.198 202.428 309.281 202.367 309.37C202.307 309.455 202.257 309.547 202.217 309.644C202.084 309.968 202.08 310.334 202.149 310.681C202.197 310.921 202.278 311.15 202.398 311.358C202.523 311.576 202.686 311.765 202.877 311.916C203.067 312.066 203.279 312.178 203.506 312.242C203.724 312.303 203.949 312.319 204.172 312.298Z" fill="#F05123"/>
<path d="M213.437 306.841C213.782 307.121 214.086 307.462 214.317 307.862C214.538 308.244 214.688 308.672 214.773 309.115C214.844 309.499 214.867 309.894 214.825 310.282C214.771 310.782 214.607 311.258 214.353 311.675C214.103 312.099 213.768 312.458 213.354 312.687C213.077 312.842 212.775 312.934 212.465 312.977C212.155 313.019 211.838 313.013 211.53 312.944C211.083 312.843 210.668 312.61 210.327 312.273C210.641 313.906 210.952 315.542 211.27 317.175C210.754 317.235 210.238 317.291 209.723 317.347C209.024 313.837 208.364 310.319 207.654 306.812C208.175 306.745 208.697 306.677 209.218 306.606C209.27 306.864 209.322 307.121 209.374 307.379C209.449 307.225 209.538 307.081 209.642 306.949C209.844 306.695 210.098 306.5 210.381 306.367C210.625 306.251 210.885 306.182 211.149 306.145C211.524 306.091 211.907 306.105 212.277 306.209C212.7 306.328 213.089 306.558 213.437 306.845V306.841ZM211.872 311.403C212.069 311.376 212.263 311.32 212.44 311.225C212.652 311.112 212.835 310.942 212.975 310.732C213.118 310.516 213.212 310.263 213.243 309.997C213.268 309.783 213.252 309.565 213.212 309.354C213.168 309.117 213.089 308.888 212.971 308.681C212.844 308.461 212.677 308.276 212.481 308.134C212.286 307.983 212.069 307.875 211.838 307.819C211.62 307.767 211.397 307.763 211.18 307.794C210.983 307.823 210.789 307.879 210.612 307.975C210.4 308.091 210.217 308.263 210.081 308.475C210.017 308.569 209.963 308.672 209.923 308.78C209.796 309.11 209.792 309.476 209.859 309.825C209.905 310.062 209.984 310.292 210.1 310.5C210.225 310.722 210.391 310.913 210.583 311.063C210.775 311.212 210.991 311.32 211.22 311.376C211.436 311.428 211.659 311.434 211.876 311.405L211.872 311.403Z" fill="#F05123"/>
<path d="M218.566 305.121C218.672 305.661 218.776 306.203 218.878 306.745C218.426 306.828 217.972 306.909 217.519 306.988C217.689 307.879 217.852 308.772 218.012 309.665C218.049 309.869 218.143 310.064 218.318 310.159C218.366 310.184 218.416 310.201 218.466 310.213C218.597 310.238 218.734 310.22 218.863 310.203C219.071 310.176 219.275 310.132 219.479 310.085C219.569 310.6 219.658 311.115 219.746 311.63C219.278 311.779 218.79 311.893 218.299 311.885C218.01 311.881 217.716 311.831 217.454 311.684C217.387 311.648 217.323 311.607 217.263 311.559C216.859 311.243 216.642 310.72 216.519 310.209C216.495 310.116 216.476 310.022 216.459 309.925C216.297 309.034 216.132 308.141 215.96 307.252C215.61 307.31 215.26 307.368 214.91 307.424C214.806 306.884 214.7 306.342 214.592 305.802C214.942 305.746 215.294 305.688 215.645 305.628C215.554 305.173 215.464 304.72 215.37 304.265C215.855 303.998 216.338 303.728 216.819 303.456C216.95 304.091 217.077 304.726 217.202 305.36C217.656 305.281 218.11 305.2 218.562 305.117L218.566 305.121Z" fill="#F05123"/>
<path d="M224.689 304.467C224.8 304.554 224.906 304.652 225 304.76C225.372 305.181 225.578 305.734 225.676 306.301C225.905 307.634 226.119 308.971 226.325 310.309C225.822 310.421 225.32 310.529 224.818 310.637C224.617 309.37 224.411 308.103 224.192 306.837C224.129 306.477 223.978 306.128 223.697 305.912C223.426 305.711 223.093 305.688 222.781 305.752C222.623 305.784 222.468 305.833 222.323 305.912C222.227 305.964 222.138 306.027 222.06 306.105C222.01 306.153 221.963 306.209 221.925 306.269C221.669 306.65 221.682 307.167 221.761 307.617C221.969 308.791 222.167 309.966 222.36 311.142C221.852 311.243 221.342 311.341 220.832 311.436C220.295 308.245 219.813 305.565 219.155 302.394C219.671 302.297 220.189 302.197 220.705 302.097C220.93 303.185 221.145 304.274 221.349 305.366C221.401 305.225 221.467 305.09 221.546 304.967C221.6 304.882 221.661 304.801 221.728 304.727C222.056 304.367 222.5 304.176 222.951 304.083C223.22 304.027 223.497 304.014 223.771 304.058C224.102 304.112 224.417 304.259 224.691 304.473L224.689 304.467Z" fill="#F05123"/>
<path d="M230.951 306.074C230.77 304.907 230.578 303.74 230.368 302.579C230.863 302.455 231.357 302.328 231.852 302.199C232.247 304.417 232.553 306.473 232.853 308.708C232.366 308.84 231.879 308.967 231.392 309.092C231.357 308.841 231.323 308.593 231.286 308.342C231.225 308.51 231.146 308.668 231.049 308.814C230.88 309.073 230.659 309.281 230.405 309.434C230.189 309.563 229.956 309.651 229.716 309.711C229.464 309.773 229.204 309.794 228.946 309.756C228.619 309.707 228.309 309.561 228.039 309.347C227.949 309.272 227.864 309.189 227.785 309.098C227.408 308.662 227.208 308.083 227.114 307.499C226.9 306.168 226.671 304.841 226.425 303.516C226.929 303.402 227.433 303.285 227.935 303.167C228.166 304.421 228.38 305.678 228.578 306.938C228.634 307.293 228.773 307.644 229.046 307.862C229.308 308.058 229.629 308.072 229.927 307.999C230.081 307.96 230.231 307.904 230.37 307.821C230.46 307.767 230.547 307.7 230.622 307.621C230.672 307.568 230.716 307.513 230.757 307.451C231.013 307.057 231.017 306.537 230.946 306.072L230.951 306.074Z" fill="#F05123"/>
<path d="M240.573 310.786C241.748 310.35 242.72 309.432 243.475 308.371C243.887 307.792 244.239 307.163 244.537 306.508C244.974 305.549 245.297 304.521 245.475 303.462C245.634 302.502 245.667 301.51 245.523 300.542C245.378 299.568 245.053 298.629 244.557 297.801C244.385 297.516 244.195 297.244 243.987 296.99C242.822 295.558 241.113 294.617 239.362 294.667C238.881 294.681 238.403 294.77 237.947 294.926C237.732 294.999 237.522 295.088 237.318 295.19C236.298 295.701 235.445 296.544 234.783 297.528C234.366 298.149 234.021 298.826 233.748 299.537C233.107 301.21 232.864 303.086 233.18 304.889C233.278 305.447 233.428 305.995 233.628 306.521C233.775 306.901 233.946 307.268 234.142 307.619C234.296 307.893 234.466 308.159 234.649 308.409C234.791 308.606 234.943 308.797 235.103 308.978C236.055 310.064 237.322 310.886 238.7 311.029C238.923 311.052 239.146 311.056 239.37 311.042C239.78 311.017 240.186 310.928 240.574 310.784L240.573 310.786Z" fill="url(#paint26_linear_9405_287821)"/>
<path d="M236.433 295.736C235.834 296.205 235.295 296.758 234.853 297.402C234.446 297.992 234.125 298.646 233.857 299.325C233.846 299.331 233.832 299.335 233.821 299.341C233.663 299.834 233.5 300.326 233.33 300.814C233.276 301.007 233.242 301.206 233.207 301.402C233.149 301.74 233.107 302.081 233.08 302.425C233.015 303.273 233.041 304.135 233.192 304.974C233.311 305.642 233.511 306.292 233.786 306.905C234.254 307.945 234.935 308.853 235.728 309.615C238.142 305.065 240.873 300.72 242.959 295.962C241.758 294.999 240.241 294.49 238.769 294.708C238.448 294.756 238.13 294.837 237.824 294.949C237.328 295.132 236.86 295.402 236.435 295.734L236.433 295.736Z" fill="url(#paint27_linear_9405_287821)"/>
<path d="M243.021 304.211C242.936 304.456 242.836 304.693 242.724 304.924C242.64 305.1 242.547 305.269 242.447 305.433C241.85 306.419 240.969 307.248 239.905 307.536C239.741 307.58 239.576 307.611 239.408 307.626C239.177 307.649 238.944 307.644 238.713 307.613C238.413 307.57 238.117 307.482 237.836 307.351C237.545 307.216 237.272 307.036 237.022 306.822C236.802 306.633 236.602 306.417 236.425 306.18C236.269 305.97 236.131 305.744 236.009 305.509C235.611 304.72 235.432 303.813 235.465 302.92C235.486 302.332 235.595 301.75 235.78 301.2C236.206 299.931 237.043 298.806 238.169 298.235C238.33 298.153 238.498 298.083 238.669 298.027C238.873 297.96 239.083 297.911 239.295 297.884C239.554 297.85 239.82 297.848 240.082 297.879C240.403 297.915 240.719 298.002 241.021 298.133C241.335 298.27 241.633 298.455 241.902 298.681C242.128 298.872 242.332 299.09 242.513 299.333C242.661 299.533 242.79 299.748 242.901 299.973C242.994 300.162 243.075 300.359 243.14 300.56C243.529 301.748 243.425 303.059 243.021 304.211Z" fill="url(#paint28_linear_9405_287821)"/>
<path d="M242.222 299.099C240.821 301.871 239.181 304.689 237.695 307.403C237.584 307.403 237.474 307.403 237.362 307.401C238.881 304.65 240.532 301.832 241.956 299.019C242.045 299.046 242.133 299.072 242.222 299.101V299.099Z" fill="#E6E8E2"/>
<path d="M242.222 299.1C240.834 301.844 239.22 304.621 237.747 307.308C237.535 307.231 237.324 307.156 237.112 307.081C238.652 304.313 240.267 301.553 241.687 298.704C241.866 298.837 242.043 298.968 242.222 299.101V299.1Z" fill="#E6E8E2"/>
<path d="M242.139 306.255C241.506 307.052 240.663 307.675 239.701 307.862C239.533 307.894 239.364 307.914 239.193 307.919C238.975 307.925 238.756 307.91 238.54 307.869C238.267 307.819 237.999 307.732 237.743 307.611C237.437 307.466 237.149 307.275 236.887 307.048C236.656 306.847 236.444 306.618 236.258 306.367C236.092 306.145 235.946 305.906 235.819 305.655C235.399 304.822 235.209 303.865 235.241 302.922C235.262 302.301 235.378 301.686 235.57 301.105C235.805 300.401 236.154 299.746 236.608 299.188C236.92 298.804 237.281 298.469 237.686 298.203C238.253 297.83 238.902 297.605 239.566 297.576C239.803 297.566 240.041 297.58 240.276 297.62C240.557 297.667 240.832 297.749 241.096 297.865C241.739 298.147 242.309 298.617 242.734 299.223C242.988 299.586 243.188 299.993 243.329 300.421C243.392 300.615 243.446 300.816 243.486 301.019C243.706 302.112 243.567 303.258 243.207 304.288C242.957 305.003 242.599 305.674 242.139 306.251V306.255ZM236.923 299.58C236.515 300.075 236.202 300.66 235.988 301.287C235.813 301.805 235.709 302.355 235.69 302.911C235.659 303.767 235.834 304.637 236.223 305.391C236.336 305.609 236.465 305.817 236.612 306.01C236.777 306.228 236.964 306.429 237.17 306.602C237.403 306.801 237.657 306.965 237.928 307.09C238.151 307.194 238.386 307.268 238.625 307.312C238.813 307.347 239.004 307.36 239.194 307.356C239.348 307.352 239.501 307.337 239.651 307.308C240.524 307.146 241.294 306.591 241.874 305.873C242.285 305.362 242.607 304.766 242.832 304.128C243.217 303.034 243.311 301.792 242.94 300.668C242.813 300.284 242.634 299.919 242.407 299.595C242.028 299.057 241.519 298.637 240.944 298.39C240.713 298.289 240.472 298.22 240.228 298.178C240.024 298.143 239.816 298.129 239.61 298.137C239.002 298.158 238.411 298.363 237.892 298.702C237.53 298.938 237.204 299.236 236.923 299.578V299.58Z" fill="url(#paint29_linear_9405_287821)"/>
<path d="M251.766 303.163C250.021 303.983 248.24 304.747 246.454 305.457C246.36 305.493 246.281 305.568 246.221 305.655C246.11 305.819 246.056 306.033 246.073 306.24C246.125 306.857 246.177 307.474 246.227 308.091C246.229 308.128 246.235 308.163 246.242 308.199C246.277 308.373 246.373 308.569 246.545 308.612C246.568 308.618 246.589 308.62 246.612 308.62C246.645 308.62 246.679 308.612 246.71 308.598C248.479 307.891 250.238 307.129 251.966 306.311C252.059 306.267 252.13 306.18 252.182 306.087C252.288 305.898 252.336 305.663 252.322 305.441C252.286 304.822 252.247 304.205 252.207 303.586C252.195 303.406 252.12 303.181 251.939 303.14C251.914 303.134 251.887 303.132 251.862 303.136C251.83 303.14 251.797 303.15 251.766 303.163Z" fill="url(#paint30_linear_9405_287821)"/>
<path d="M247.137 307.736C247.095 307.694 247.08 307.63 247.076 307.57C247.07 307.501 247.08 307.43 247.109 307.368C247.134 307.316 247.17 307.271 247.22 307.25C247.263 307.233 247.307 307.239 247.343 307.271C247.386 307.312 247.401 307.376 247.405 307.435C247.411 307.507 247.399 307.576 247.372 307.64C247.349 307.692 247.313 307.742 247.261 307.761C247.216 307.779 247.172 307.771 247.137 307.734V307.736Z" fill="white"/>
<path d="M247.817 307.418C247.707 307.374 247.622 307.281 247.563 307.171C247.488 307.036 247.453 306.878 247.441 306.722C247.428 306.55 247.441 306.377 247.488 306.215C247.53 306.062 247.597 305.919 247.692 305.798C247.778 305.686 247.886 305.599 248.011 305.547C248.1 305.511 248.198 305.491 248.294 305.511C248.381 305.53 248.458 305.58 248.519 305.653C248.467 305.757 248.415 305.863 248.363 305.968C248.302 305.896 248.221 305.852 248.132 305.864C248.105 305.867 248.079 305.875 248.052 305.885C247.977 305.916 247.913 305.97 247.863 306.037C247.807 306.112 247.769 306.201 247.744 306.294C247.719 306.396 247.709 306.504 247.719 306.61C247.726 306.706 247.746 306.805 247.79 306.89C247.824 306.955 247.875 307.013 247.94 307.042C248.005 307.069 248.077 307.063 248.14 307.036C248.277 306.978 248.363 306.837 248.419 306.695C248.483 306.755 248.548 306.812 248.612 306.872C248.567 306.996 248.506 307.109 248.423 307.206C248.348 307.295 248.258 307.364 248.154 307.408C248.046 307.453 247.928 307.464 247.819 307.42L247.817 307.418Z" fill="white"/>
<path d="M249.016 306.909C248.906 306.864 248.823 306.772 248.764 306.664C248.691 306.529 248.658 306.373 248.646 306.218C248.633 306.047 248.648 305.875 248.694 305.711C248.737 305.557 248.804 305.414 248.898 305.291C248.985 305.179 249.091 305.088 249.216 305.034C249.322 304.988 249.437 304.97 249.549 305.009C249.655 305.046 249.739 305.131 249.797 305.233C249.87 305.364 249.901 305.518 249.913 305.669C249.924 305.842 249.909 306.018 249.865 306.186C249.822 306.346 249.757 306.496 249.664 306.627C249.582 306.743 249.476 306.839 249.351 306.893C249.245 306.94 249.127 306.953 249.018 306.909H249.016ZM249.503 306.373C249.557 306.294 249.593 306.203 249.618 306.108C249.643 306.004 249.651 305.896 249.643 305.788C249.637 305.694 249.618 305.597 249.576 305.512C249.543 305.449 249.495 305.395 249.432 305.368C249.368 305.343 249.303 305.35 249.241 305.376C249.17 305.406 249.108 305.462 249.06 305.528C249.006 305.603 248.968 305.692 248.945 305.784C248.92 305.887 248.912 305.995 248.92 306.101C248.927 306.197 248.947 306.294 248.989 306.38C249.022 306.446 249.07 306.504 249.133 306.533C249.195 306.56 249.262 306.554 249.324 306.527C249.397 306.496 249.457 306.438 249.503 306.371V306.373Z" fill="white"/>
<path d="M251.204 306.031C251.181 305.667 251.156 305.302 251.131 304.936C251.039 305.285 250.948 305.636 250.858 305.987C250.819 306.004 250.779 306.024 250.74 306.041C250.613 305.798 250.482 305.555 250.35 305.316C250.375 305.673 250.398 306.029 250.421 306.388C250.338 306.425 250.257 306.461 250.174 306.498C250.134 305.898 250.094 305.298 250.051 304.7C250.124 304.668 250.198 304.635 250.271 304.602C250.442 304.903 250.609 305.206 250.771 305.511C250.883 305.079 250.998 304.648 251.114 304.218C251.185 304.186 251.256 304.153 251.327 304.12C251.37 304.72 251.408 305.318 251.447 305.917C251.366 305.956 251.285 305.993 251.204 306.029V306.031Z" fill="white"/>
<path d="M250.092 300.317C249.951 300.683 249.738 301.034 249.445 301.269C249.183 301.481 248.866 301.626 248.535 301.561C248.458 301.549 248.383 301.526 248.311 301.495C248.25 301.468 248.192 301.435 248.136 301.397C247.798 301.157 247.615 300.731 247.565 300.305C247.494 299.703 247.665 299.076 248.002 298.606C248.183 298.351 248.419 298.141 248.696 298.023C248.718 298.014 248.741 298.008 248.762 298C248.773 297.996 248.785 297.992 248.795 297.989C248.839 297.975 248.883 297.964 248.927 297.954C249.201 297.896 249.503 297.938 249.722 298.147C249.766 298.181 249.809 298.222 249.847 298.264C250.086 297.765 250.323 297.265 250.552 296.762C250.552 296.762 250.552 296.762 250.55 296.762C250.425 296.646 250.288 296.546 250.142 296.467C250.032 296.407 249.917 296.357 249.797 296.32C249.351 296.179 248.875 296.222 248.446 296.401C248.379 296.43 248.313 296.463 248.248 296.498C248.109 296.575 247.975 296.665 247.85 296.766C247.605 296.959 247.382 297.184 247.187 297.439C247.172 297.46 247.157 297.479 247.143 297.501C247.112 297.541 247.084 297.585 247.055 297.628C246.585 298.338 246.308 299.211 246.273 300.095C246.273 300.135 246.273 300.178 246.271 300.218C246.271 300.266 246.271 300.317 246.271 300.365C246.285 300.793 246.366 301.219 246.504 301.62C246.66 302.076 246.895 302.508 247.234 302.83C247.251 302.845 247.266 302.861 247.284 302.876C247.318 302.907 247.355 302.934 247.392 302.961C247.43 302.99 247.468 303.019 247.509 303.046C247.53 303.061 247.553 303.073 247.576 303.086C247.628 303.117 247.682 303.148 247.736 303.173C247.749 303.179 247.763 303.185 247.775 303.19C248.04 303.31 248.329 303.36 248.614 303.339C248.825 303.323 249.033 303.267 249.231 303.183C249.318 303.146 249.403 303.102 249.485 303.053C249.489 303.053 249.491 303.05 249.495 303.048C249.578 302.999 249.657 302.947 249.734 302.889C250.317 302.454 250.75 301.792 251.035 301.09C250.723 300.83 250.405 300.573 250.088 300.322V300.317H250.092Z" fill="#F05123"/>
</g>
</g>
<path fill-rule="evenodd" clip-rule="evenodd" d="M132.201 22.8078C132.201 22.8078 116.415 19.8376 101.47 24.208C86.5255 28.5785 76.1864 40.1701 76.1864 40.1701L74.435 73.936L151.972 53.0982L132.203 22.8078H132.201Z" fill="url(#paint31_radial_9405_287821)"/>
<path fill-rule="evenodd" clip-rule="evenodd" d="M124.061 41.9927C124.462 41.9734 124.858 41.9348 125.257 41.9078C125.769 41.8712 126.227 41.6474 126.502 41.2868C126.812 40.901 126.895 40.3571 126.741 39.8325C126.56 39.2076 126.365 38.5846 126.196 37.9578C126.877 37.9019 127.56 37.8575 128.24 37.8035C128.706 37.763 129.116 37.5566 129.383 37.2384C129.651 36.926 129.774 36.5055 129.722 36.0696C129.704 35.8902 129.647 35.7128 129.595 35.5354C129.373 34.7639 129.154 33.9943 128.933 33.2228C128.794 32.7445 128.455 32.2835 128.003 31.9653C127.612 31.6837 127.141 31.5121 126.687 31.4851C126.481 31.4716 126.284 31.4966 126.086 31.5082C125.518 31.5487 124.953 31.595 124.385 31.6336C124.231 31.107 124.083 30.5805 123.931 30.0559C123.869 29.8495 123.823 29.6393 123.727 29.4368C123.54 29.0317 123.211 28.6634 122.809 28.4049C122.335 28.0925 121.758 27.9459 121.242 27.998C120.595 28.052 119.943 28.0847 119.296 28.1349C119.013 28.1619 118.724 28.1658 118.447 28.2101C117.962 28.2853 117.549 28.5438 117.314 28.9179C117.077 29.2863 117.017 29.7608 117.148 30.2275C117.329 30.8621 117.512 31.4947 117.693 32.1293C117.002 32.1813 116.309 32.2276 115.618 32.2836C115.174 32.3356 114.775 32.5266 114.515 32.8352C114.179 33.2209 114.067 33.7764 114.223 34.3203C114.415 34.9915 114.608 35.6627 114.8 36.3358C114.91 36.7003 114.979 37.0803 115.206 37.4236C115.662 38.1565 116.596 38.6599 117.433 38.6174C118.124 38.5692 118.813 38.5133 119.504 38.4651C119.691 39.1073 119.873 39.7515 120.058 40.3938C120.191 40.822 120.48 41.2328 120.869 41.5375C121.371 41.9425 122.033 42.1547 122.624 42.1045C123.103 42.066 123.584 42.039 124.061 41.9927Z" fill="#E83719"/>
<path fill-rule="evenodd" clip-rule="evenodd" d="M138.202 229.118C92.7536 235.666 50.1385 201.121 43.0944 152.026C36.0522 102.93 67.2312 57.7541 112.679 51.2061L131.41 48.5079L131.743 50.8243C169.492 54.7453 201.741 86.164 207.789 128.301C213.832 170.437 191.722 209.686 156.603 224.105L156.934 226.422L138.204 229.12L138.202 229.118Z" fill="url(#paint32_linear_9405_287821)"/>
<mask id="mask6_9405_287821" style="mask-type:luminance" maskUnits="userSpaceOnUse" x="42" y="48" width="167" height="182">
<path d="M138.202 229.118C92.7536 235.666 50.1385 201.121 43.0944 152.026C36.0522 102.93 67.2312 57.7541 112.679 51.2061L131.41 48.5079L131.743 50.8243C169.492 54.7453 201.741 86.164 207.789 128.301C213.832 170.437 191.722 209.686 156.603 224.105L156.934 226.422L138.204 229.12L138.202 229.118Z" fill="white"/>
</mask>
<g mask="url(#mask6_9405_287821)">
<path fill-rule="evenodd" clip-rule="evenodd" d="M226.477 142.621C225.143 185.014 196.118 221.164 155.947 226.981C110.499 233.562 67.8836 198.843 60.8395 149.497C53.7954 100.151 84.9762 54.7472 130.424 48.1665C168.228 42.6928 204.074 65.7949 219.115 102.122C213.77 103.193 211.039 113.016 213.018 124.136C215.004 135.321 221.009 143.609 226.413 142.633C226.434 142.629 226.455 142.625 226.477 142.621Z" fill="#FFCF8D"/>
</g>
<path fill-rule="evenodd" clip-rule="evenodd" d="M227.462 142.486C226.128 184.665 197.103 220.632 156.932 226.42C111.484 232.968 68.869 198.423 61.8248 149.327C54.7807 100.23 85.9616 55.0558 131.41 48.5079C169.213 43.0612 205.059 66.0476 220.1 102.192C214.756 103.256 212.025 113.029 214.003 124.094C215.989 135.223 221.994 143.468 227.399 142.498C227.42 142.494 227.441 142.49 227.462 142.486Z" fill="url(#paint33_radial_9405_287821)"/>
<path fill-rule="evenodd" clip-rule="evenodd" d="M219.592 102.321L61.0261 129.693C61.0261 129.693 50.5908 136.534 53.0312 153.285C55.7507 171.938 69.0018 174.451 69.0018 174.451L225.693 142.507C220.784 141.719 215.781 134.062 214.001 124.094C212.086 113.386 214.582 103.887 219.592 102.321Z" fill="url(#paint34_linear_9405_287821)"/>
<path d="M116.282 161.036C124.211 159.432 129.129 150.636 127.267 141.389C125.404 132.142 117.467 125.946 109.538 127.55C101.609 129.153 96.6906 137.949 98.5528 147.196C100.415 156.443 108.353 162.64 116.282 161.036Z" fill="url(#paint35_linear_9405_287821)"/>
<mask id="mask7_9405_287821" style="mask-type:luminance" maskUnits="userSpaceOnUse" x="98" y="127" width="30" height="35">
<path d="M116.282 161.036C124.211 159.432 129.129 150.636 127.267 141.389C125.404 132.142 117.467 125.946 109.538 127.55C101.609 129.153 96.6906 137.949 98.5528 147.196C100.415 156.443 108.352 162.64 116.282 161.036Z" fill="white"/>
</mask>
<g mask="url(#mask7_9405_287821)">
<path d="M112.011 161.088C118.587 159.758 122.602 152.15 120.98 144.094C119.358 136.039 112.712 130.587 106.136 131.917C99.5607 133.246 95.5452 140.855 97.1675 148.91C98.7898 156.966 105.436 162.418 112.011 161.088Z" fill="black"/>
<path d="M113.271 141.346C114.319 140.675 114.439 138.987 113.54 137.576C112.64 136.165 111.061 135.565 110.013 136.236C108.965 136.907 108.845 138.595 109.745 140.006C110.645 141.417 112.223 142.017 113.271 141.346Z" fill="white"/>
</g>
<path d="M188.067 146.256C195.996 144.653 200.914 135.857 199.052 126.61C197.19 117.363 189.252 111.167 181.323 112.77C173.394 114.374 168.476 123.17 170.338 132.417C172.2 141.664 180.138 147.86 188.067 146.256Z" fill="url(#paint36_linear_9405_287821)"/>
<mask id="mask8_9405_287821" style="mask-type:luminance" maskUnits="userSpaceOnUse" x="169" y="112" width="31" height="35">
<path d="M188.067 146.256C195.996 144.653 200.914 135.857 199.052 126.61C197.19 117.363 189.252 111.167 181.323 112.77C173.394 114.374 168.476 123.17 170.338 132.417C172.2 141.664 180.138 147.86 188.067 146.256Z" fill="white"/>
</mask>
<g mask="url(#mask8_9405_287821)">
<path d="M183.797 146.307C190.372 144.977 194.388 137.369 192.765 129.313C191.143 121.257 184.497 115.805 177.922 117.135C171.346 118.465 167.331 126.073 168.953 134.129C170.575 142.185 177.221 147.637 183.797 146.307Z" fill="black"/>
<path d="M185.056 126.562C186.104 125.891 186.224 124.203 185.324 122.792C184.425 121.381 182.846 120.781 181.798 121.452C180.75 122.123 180.63 123.811 181.529 125.222C182.429 126.633 184.008 127.233 185.056 126.562Z" fill="white"/>
</g>
<path fill-rule="evenodd" clip-rule="evenodd" d="M130.979 168.543C128.8 168.505 126.718 169.679 125.322 171.737C123.927 173.791 123.371 176.505 123.811 179.107C126.658 195.956 136.791 208.466 149.08 208.687C161.75 208.915 172.597 196.006 175.68 178.462C176.069 176.221 175.62 173.893 174.456 172.113C173.293 170.333 171.536 169.282 169.664 169.247C161.736 169.097 149.792 168.883 149.792 168.883C149.792 168.883 138.868 168.686 130.981 168.545L130.979 168.543Z" fill="#000F2A"/>
<mask id="mask9_9405_287821" style="mask-type:luminance" maskUnits="userSpaceOnUse" x="123" y="168" width="53" height="41">
<path d="M130.979 168.543C128.8 168.505 126.718 169.679 125.322 171.737C123.927 173.791 123.371 176.505 123.811 179.107C126.658 195.956 136.791 208.466 149.08 208.687C161.75 208.915 172.597 196.006 175.68 178.462C176.069 176.221 175.62 173.893 174.456 172.113C173.293 170.333 171.536 169.282 169.664 169.247C161.736 169.097 149.792 168.883 149.792 168.883C149.792 168.883 138.868 168.686 130.981 168.545L130.979 168.543Z" fill="white"/>
</mask>
<g mask="url(#mask9_9405_287821)">
<path d="M163.794 224.294C171.656 212.696 167.799 196.329 155.178 187.737C142.558 179.145 125.953 181.582 118.091 193.18C110.228 204.778 114.086 221.145 126.706 229.737C139.327 238.329 155.932 235.892 163.794 224.294Z" fill="url(#paint37_linear_9405_287821)"/>
</g>
<path fill-rule="evenodd" clip-rule="evenodd" d="M126.206 88.9799C125.511 90.6463 123.752 89.9809 122.218 91.1902C120.622 92.4478 120.137 94.0447 118.626 94.4382C116.128 95.0901 114.002 93.2212 114.059 91.007C114.113 88.9549 115.747 87.4852 117.654 86.0097C119.82 84.3317 121.169 84.4301 123.041 84.3684C125.143 84.299 127.564 85.7223 126.206 88.9799Z" fill="black"/>
<path fill-rule="evenodd" clip-rule="evenodd" d="M161.309 83.9016C162.664 85.0936 163.951 83.7203 165.861 84.1331C167.845 84.5613 168.98 85.7821 170.51 85.4697C173.039 84.9567 174.131 82.3413 173.109 80.3779C172.162 78.5572 170.048 77.9574 167.689 77.4694C165.01 76.9159 163.84 77.5967 162.131 78.3662C160.212 79.2284 158.66 81.5737 161.309 83.9016Z" fill="black"/>
<path d="M236.754 177.467C238.486 185.217 242.353 197.366 251.324 212.824C252.605 215.033 255.602 215.467 257.475 213.733L260.591 210.847C262.66 208.932 262.69 205.887 261.076 203.572C253.706 193.011 250.521 188.39 247.54 173.724C242.705 175.184 236.752 177.467 236.752 177.467H236.754Z" fill="#002468"/>
<path d="M237.659 179.276C250.381 174.372 278.659 166.514 314.386 174.777C321.001 176.256 348.076 172.009 329.08 117.513C320.025 98.2416 297.511 74.1385 283.569 96.7739C274.742 108.338 245.463 131.84 221.796 137.296C218.081 138.557 213.143 148.479 219.866 165.189C226.588 181.899 235.447 180.1 237.659 179.274V179.276Z" fill="url(#paint38_linear_9405_287821)"/>
<path d="M249.591 175.446C245.546 176.503 241.562 177.784 237.657 179.28C235.445 180.112 226.598 181.917 219.871 165.191C213.143 148.463 218.087 138.542 221.802 137.298C225.951 136.301 230.006 134.939 233.915 133.227C229.521 145.026 232.622 166.805 249.591 175.448V175.446Z" fill="url(#paint39_linear_9405_287821)"/>
<path d="M333.278 155.704C331.954 164.695 328.239 170.711 322.818 172.605C317.396 174.499 310.754 172.152 304.11 165.968C297.182 159.503 291.173 149.744 287.241 138.478C283.309 127.215 281.883 115.839 283.265 106.456C284.589 97.4643 288.305 91.4487 293.725 89.5547C294.837 89.1631 296.004 88.9491 297.182 88.9143C301.853 88.7658 307.132 91.2616 312.432 96.1933C316.137 99.7325 319.351 103.754 321.986 108.151C324.975 113.058 327.433 118.267 329.319 123.697C333.251 134.943 334.662 146.319 333.278 155.7V155.704Z" fill="url(#paint40_radial_9405_287821)"/>
<path d="M282.941 129.728C287.385 130.538 293.282 130.457 300.04 127.707C303.394 133.828 304.291 138.866 304.291 138.866C299.899 139.954 295.12 141.842 289.166 148.446C285.561 142.839 282.941 129.728 282.941 129.728Z" fill="url(#paint41_linear_9405_287821)"/>
<path d="M304.118 138.91C305.458 138.438 305.662 135.539 304.572 132.432C303.485 129.325 301.516 127.188 300.176 127.658C298.837 128.131 298.633 131.032 299.722 134.137C300.81 137.244 302.778 139.381 304.118 138.91Z" fill="url(#paint42_linear_9405_287821)"/>
<path d="M332.531 122.547C328.405 110.767 322.096 100.517 314.763 93.686C307.145 86.5903 299.258 83.9749 292.597 86.3222C285.938 88.6694 281.409 95.6436 279.887 105.956C278.428 115.878 279.895 127.832 284.021 139.614C288.147 151.399 294.456 161.644 301.789 168.472C307.763 174.038 313.887 176.842 319.478 176.663C321.003 176.624 322.512 176.352 323.955 175.853C330.632 173.506 335.147 166.531 336.665 156.219C337.131 152.953 337.304 149.653 337.183 146.357C336.943 138.8 335.362 130.632 332.529 122.545L332.531 122.547ZM333.284 155.704C331.96 164.697 328.245 170.711 322.823 172.607C317.402 174.499 310.76 172.154 304.116 165.97C297.187 159.505 291.179 149.746 287.247 138.482C283.315 127.219 281.889 115.841 283.27 106.46C284.595 97.4682 288.311 91.4526 293.731 89.5586C294.843 89.169 296.01 88.9529 297.187 88.9182C301.859 88.7697 307.138 91.2655 312.438 96.1991C316.143 99.7364 319.357 103.76 321.992 108.155C324.981 113.062 327.439 118.273 329.325 123.701C333.257 134.947 334.666 146.322 333.284 155.704Z" fill="url(#paint43_linear_9405_287821)"/>
<path d="M335.376 89.5605L357.263 75.1491L348.203 72.6669L360.81 60.6317L339.835 74.7383L348.157 77.1049L335.374 89.5624L335.376 89.5605Z" fill="url(#paint44_linear_9405_287821)"/>
<path d="M314.574 84.27L324.669 75.8435L320.083 74.9505L325.676 68.2617L316.112 76.1154L320.148 77.0258L314.574 84.27Z" fill="url(#paint45_linear_9405_287821)"/>
<path d="M348.059 149.842L371.089 162.09L368.99 153.032L386.138 158.273L363.127 146.641L365.415 154.421L348.059 149.842Z" fill="url(#paint46_linear_9405_287821)"/>
<path d="M338.981 171.207L349.528 179.035L349.383 174.503L357.9 178.769L346.897 170.954L347.135 175.027L338.979 171.207H338.981Z" fill="url(#paint47_linear_9405_287821)"/>
<path fill-rule="evenodd" clip-rule="evenodd" d="M237.102 180.933C237.102 180.933 242.107 177.797 244.587 180.376C247.066 182.954 245.311 187.919 244.482 188.964C243.652 190.012 241.002 191.414 241.002 191.414L237.403 183.649L237.102 180.931V180.933Z" fill="#FFBF67"/>
</g>
</g>
<defs>
<linearGradient id="paint0_linear_9405_287821" x1="115.407" y1="391.925" x2="104.956" y2="373.611" gradientUnits="userSpaceOnUse">
<stop stop-color="#FF9036"/>
<stop offset="1" stop-color="#FFBF67"/>
</linearGradient>
<linearGradient id="paint1_linear_9405_287821" x1="104.993" y1="373.316" x2="105.142" y2="365.618" gradientUnits="userSpaceOnUse">
<stop stop-color="#FF9036" stop-opacity="0"/>
<stop offset="1" stop-color="#F26F21"/>
</linearGradient>
<linearGradient id="paint2_linear_9405_287821" x1="405.807" y1="-55.5281" x2="418.741" y2="-80.6619" gradientUnits="userSpaceOnUse">
<stop stop-color="#FF9036"/>
<stop offset="1" stop-color="#FFBF67"/>
</linearGradient>
<linearGradient id="paint3_linear_9405_287821" x1="185.941" y1="358.957" x2="187.248" y2="373.425" gradientUnits="userSpaceOnUse">
<stop stop-color="#F26F21"/>
<stop offset="1" stop-color="#FFBF67" stop-opacity="0"/>
</linearGradient>
<linearGradient id="paint4_linear_9405_287821" x1="124.78" y1="360.358" x2="125.034" y2="319.998" gradientUnits="userSpaceOnUse">
<stop stop-color="#002468"/>
<stop offset="0.52" stop-color="#001F59"/>
<stop offset="1" stop-color="#000F2A"/>
</linearGradient>
<linearGradient id="paint5_linear_9405_287821" x1="192.891" y1="-353.603" x2="193.146" y2="-393.963" gradientUnits="userSpaceOnUse">
<stop stop-color="#002468"/>
<stop offset="0.52" stop-color="#001F59"/>
<stop offset="1" stop-color="#000F2A"/>
</linearGradient>
<linearGradient id="paint6_linear_9405_287821" x1="2346.3" y1="-2179.97" x2="2375.53" y2="-2215.98" gradientUnits="userSpaceOnUse">
<stop stop-color="#C6D6EF"/>
<stop offset="0.33" stop-color="#F2F6FB"/>
<stop offset="0.72" stop-color="white"/>
<stop offset="0.85" stop-color="#EFF4FB"/>
<stop offset="1" stop-color="#C6D6EF"/>
</linearGradient>
<linearGradient id="paint7_linear_9405_287821" x1="403.017" y1="-231.29" x2="412.094" y2="-256.755" gradientUnits="userSpaceOnUse">
<stop stop-color="#FF9036"/>
<stop offset="1" stop-color="#FFBF67"/>
</linearGradient>
<linearGradient id="paint8_linear_9405_287821" x1="403.017" y1="-231.29" x2="412.094" y2="-256.755" gradientUnits="userSpaceOnUse">
<stop stop-color="#F26F21"/>
<stop offset="1" stop-color="#FFBF67" stop-opacity="0"/>
</linearGradient>
<radialGradient id="paint9_radial_9405_287821" cx="0" cy="0" r="1" gradientUnits="userSpaceOnUse" gradientTransform="translate(142.775 1104.46) rotate(96.3566) scale(41.8346 30.4619)">
<stop stop-color="white"/>
<stop offset="0.53" stop-color="#F2F6FB"/>
<stop offset="1" stop-color="#C6D6EF"/>
</radialGradient>
<radialGradient id="paint10_radial_9405_287821" cx="0" cy="0" r="1" gradientUnits="userSpaceOnUse" gradientTransform="translate(161.467 269.647) rotate(-177.525) scale(73.7962 72.851)">
<stop stop-color="white"/>
<stop offset="0.6" stop-color="#F5F8FC"/>
<stop offset="0.81" stop-color="#DEE7F6"/>
<stop offset="1" stop-color="#C6D6EF"/>
</radialGradient>
<linearGradient id="paint11_linear_9405_287821" x1="150.129" y1="307.15" x2="167.967" y2="306.407" gradientUnits="userSpaceOnUse">
<stop stop-color="white" stop-opacity="0"/>
<stop offset="0.5" stop-color="#E0E4EC" stop-opacity="0.25"/>
<stop offset="1" stop-color="#8295B5"/>
</linearGradient>
<linearGradient id="paint12_linear_9405_287821" x1="106.054" y1="294.113" x2="121.045" y2="297.257" gradientUnits="userSpaceOnUse">
<stop stop-color="white" stop-opacity="0"/>
<stop offset="0.49" stop-color="#DFE4EC" stop-opacity="0.25"/>
<stop offset="1" stop-color="#8295B5"/>
</linearGradient>
<linearGradient id="paint13_linear_9405_287821" x1="133.942" y1="238.671" x2="130.691" y2="220.609" gradientUnits="userSpaceOnUse">
<stop stop-color="white"/>
<stop offset="0.45" stop-color="#DBE0EA"/>
<stop offset="1" stop-color="#8295B5"/>
</linearGradient>
<linearGradient id="paint14_linear_9405_287821" x1="115.86" y1="-88.143" x2="112.61" y2="-106.205" gradientUnits="userSpaceOnUse">
<stop stop-color="white"/>
<stop offset="0.45" stop-color="#DBE0EA"/>
<stop offset="1" stop-color="#8295B5"/>
</linearGradient>
<radialGradient id="paint15_radial_9405_287821" cx="0" cy="0" r="1" gradientUnits="userSpaceOnUse" gradientTransform="translate(89.5655 260.835) rotate(-148.726) scale(25.8721 64.1933)">
<stop stop-color="white"/>
<stop offset="0.47" stop-color="#EFF4FB"/>
<stop offset="1" stop-color="#C6D6EF"/>
</radialGradient>
<linearGradient id="paint16_linear_9405_287821" x1="103.599" y1="311.76" x2="109.277" y2="276.385" gradientUnits="userSpaceOnUse">
<stop stop-color="#FF9036"/>
<stop offset="0.46" stop-color="#FF9D44"/>
<stop offset="1" stop-color="#FFBF67"/>
</linearGradient>
<linearGradient id="paint17_linear_9405_287821" x1="107.058" y1="296.256" x2="117.636" y2="296.967" gradientUnits="userSpaceOnUse">
<stop stop-color="#F26F21"/>
<stop offset="0.46" stop-color="#F68535" stop-opacity="0.72"/>
<stop offset="1" stop-color="#FFBF67" stop-opacity="0"/>
</linearGradient>
<radialGradient id="paint18_radial_9405_287821" cx="0" cy="0" r="1" gradientUnits="userSpaceOnUse" gradientTransform="translate(91.1934 297.954) rotate(-170.691) scale(41.1566 39.3667)">
<stop stop-color="white"/>
<stop offset="0.48" stop-color="#F0F4FB"/>
<stop offset="1" stop-color="#C6D6EF"/>
</radialGradient>
<linearGradient id="paint19_linear_9405_287821" x1="159.138" y1="246.275" x2="156.841" y2="229.693" gradientUnits="userSpaceOnUse">
<stop stop-color="#FF9036"/>
<stop offset="1" stop-color="#F26F21"/>
</linearGradient>
<linearGradient id="paint20_linear_9405_287821" x1="156.155" y1="250.95" x2="174.543" y2="252.872" gradientUnits="userSpaceOnUse">
<stop stop-color="#2E9FED"/>
<stop offset="1" stop-color="#135FC0"/>
</linearGradient>
<linearGradient id="paint21_linear_9405_287821" x1="163.87" y1="289.692" x2="88.017" y2="222.654" gradientUnits="userSpaceOnUse">
<stop stop-color="#10509F"/>
<stop offset="0.09" stop-color="#125FB2"/>
<stop offset="0.19" stop-color="#146DC5"/>
<stop offset="0.47" stop-color="#1573CD"/>
<stop offset="0.79" stop-color="#197BD3"/>
<stop offset="0.9" stop-color="#238DE0"/>
<stop offset="1" stop-color="#2EA0ED"/>
</linearGradient>
<radialGradient id="paint22_radial_9405_287821" cx="0" cy="0" r="1" gradientUnits="userSpaceOnUse" gradientTransform="translate(215.159 305.331) rotate(-170.019) scale(48.9156 32.1746)">
<stop stop-color="#021E59"/>
<stop offset="0.53" stop-color="#062D71"/>
<stop offset="1" stop-color="#135FC0"/>
</radialGradient>
<radialGradient id="paint23_radial_9405_287821" cx="0" cy="0" r="1" gradientUnits="userSpaceOnUse" gradientTransform="translate(204.927 292.247) rotate(176.763) scale(42.6019 33.0849)">
<stop stop-color="#2E9FED"/>
<stop offset="0.5" stop-color="#278FE2"/>
<stop offset="1" stop-color="#135FC0"/>
</radialGradient>
<linearGradient id="paint24_linear_9405_287821" x1="149.867" y1="305.61" x2="243.053" y2="298.438" gradientUnits="userSpaceOnUse">
<stop stop-color="white"/>
<stop offset="0.57" stop-color="#F6F8FC"/>
<stop offset="0.79" stop-color="#E3EBF7"/>
<stop offset="1" stop-color="#D1DEF2"/>
</linearGradient>
<linearGradient id="paint25_linear_9405_287821" x1="1797.92" y1="161.33" x2="1891.1" y2="154.158" gradientUnits="userSpaceOnUse">
<stop stop-color="white"/>
<stop offset="0.57" stop-color="#F6F8FC"/>
<stop offset="0.79" stop-color="#E3EBF7"/>
<stop offset="1" stop-color="#D1DEF2"/>
</linearGradient>
<linearGradient id="paint26_linear_9405_287821" x1="-1264.71" y1="143.927" x2="-1287.45" y2="142.194" gradientUnits="userSpaceOnUse">
<stop stop-color="#EFD03D"/>
<stop offset="0.43" stop-color="#EFD03D"/>
<stop offset="0.65" stop-color="#F05123"/>
<stop offset="1" stop-color="#F05123"/>
</linearGradient>
<linearGradient id="paint27_linear_9405_287821" x1="-566.58" y1="185.899" x2="-576.542" y2="184.738" gradientUnits="userSpaceOnUse">
<stop stop-color="#EFD03D"/>
<stop offset="0.6" stop-color="#F1822B"/>
<stop offset="1" stop-color="#F1822B"/>
</linearGradient>
<linearGradient id="paint28_linear_9405_287821" x1="1488.8" y1="905.412" x2="1496.53" y2="908.515" gradientUnits="userSpaceOnUse">
<stop stop-color="white"/>
<stop offset="1" stop-color="#E4E4E4"/>
</linearGradient>
<linearGradient id="paint29_linear_9405_287821" x1="1549.46" y1="1436.75" x2="1556.84" y2="1441.92" gradientUnits="userSpaceOnUse">
<stop stop-color="white"/>
<stop offset="1" stop-color="#D9D9D8"/>
</linearGradient>
<linearGradient id="paint30_linear_9405_287821" x1="-3023.5" y1="-1015" x2="-3045.5" y2="-1022.2" gradientUnits="userSpaceOnUse">
<stop stop-color="#EFD03D"/>
<stop offset="0.21" stop-color="#EFD03D"/>
<stop offset="0.61" stop-color="#F05123"/>
<stop offset="1" stop-color="#F05123"/>
</linearGradient>
<radialGradient id="paint31_radial_9405_287821" cx="0" cy="0" r="1" gradientUnits="userSpaceOnUse" gradientTransform="translate(109.147 45.295) rotate(166.132) scale(44.5509 24.2467)">
<stop stop-color="white"/>
<stop offset="0.52" stop-color="#F2F5FB"/>
<stop offset="1" stop-color="#C6D6EF"/>
</radialGradient>
<linearGradient id="paint32_linear_9405_287821" x1="126.09" y1="133.991" x2="145.552" y2="242.361" gradientUnits="userSpaceOnUse">
<stop stop-color="#F26F21"/>
<stop offset="1" stop-color="#DB4C15"/>
</linearGradient>
<radialGradient id="paint33_radial_9405_287821" cx="0" cy="0" r="1" gradientUnits="userSpaceOnUse" gradientTransform="translate(171.949 141.248) rotate(-99.6599) scale(92.021 109.797)">
<stop stop-color="#FFBF67"/>
<stop offset="0.64" stop-color="#FFB860"/>
<stop offset="1" stop-color="#FF9036"/>
</radialGradient>
<linearGradient id="paint34_linear_9405_287821" x1="141.728" y1="164.916" x2="134.003" y2="122.702" gradientUnits="userSpaceOnUse">
<stop stop-color="#FD9E48"/>
<stop offset="0.45" stop-color="#F99644"/>
<stop offset="1" stop-color="#EE8239"/>
</linearGradient>
<linearGradient id="paint35_linear_9405_287821" x1="125.009" y1="178.465" x2="115.587" y2="150.399" gradientUnits="userSpaceOnUse">
<stop stop-color="white"/>
<stop offset="0.56" stop-color="#F7FAFD"/>
<stop offset="1" stop-color="#D8E5F5"/>
</linearGradient>
<linearGradient id="paint36_linear_9405_287821" x1="30.6667" y1="-333.295" x2="21.2451" y2="-361.361" gradientUnits="userSpaceOnUse">
<stop stop-color="white"/>
<stop offset="0.56" stop-color="#F7FAFD"/>
<stop offset="1" stop-color="#D8E5F5"/>
</linearGradient>
<linearGradient id="paint37_linear_9405_287821" x1="-982.379" y1="3967.84" x2="-974.166" y2="3951.05" gradientUnits="userSpaceOnUse">
<stop stop-color="#E23E2D"/>
<stop offset="1" stop-color="#FE6343"/>
</linearGradient>
<linearGradient id="paint38_linear_9405_287821" x1="286.728" y1="170.499" x2="267.485" y2="122.949" gradientUnits="userSpaceOnUse">
<stop stop-color="#C9D8F0"/>
<stop offset="0.5" stop-color="white"/>
<stop offset="0.77" stop-color="#F3F6FC"/>
<stop offset="1" stop-color="#C9D8F0"/>
</linearGradient>
<linearGradient id="paint39_linear_9405_287821" x1="216.116" y1="158.922" x2="277.574" y2="155.063" gradientUnits="userSpaceOnUse">
<stop stop-color="#135FC0"/>
<stop offset="1" stop-color="#2E9FED"/>
</linearGradient>
<radialGradient id="paint40_radial_9405_287821" cx="0" cy="0" r="1" gradientUnits="userSpaceOnUse" gradientTransform="translate(294.849 142.156) rotate(129.75) scale(57.7186 40.0227)">
<stop stop-color="#A0B2D3"/>
<stop offset="1" stop-color="#C6D6EF"/>
</radialGradient>
<linearGradient id="paint41_linear_9405_287821" x1="284.323" y1="139.008" x2="296.18" y2="135.076" gradientUnits="userSpaceOnUse">
<stop stop-color="#C9D8F0"/>
<stop offset="1" stop-color="white"/>
</linearGradient>
<linearGradient id="paint42_linear_9405_287821" x1="320.554" y1="322.185" x2="321.518" y2="333.185" gradientUnits="userSpaceOnUse">
<stop stop-color="#C9D8F0"/>
<stop offset="1" stop-color="white"/>
</linearGradient>
<linearGradient id="paint43_linear_9405_287821" x1="1476.06" y1="-924.876" x2="1543.71" y2="-985.808" gradientUnits="userSpaceOnUse">
<stop stop-color="#135FC0"/>
<stop offset="1" stop-color="#2E9FED"/>
</linearGradient>
<linearGradient id="paint44_linear_9405_287821" x1="366.09" y1="57.3302" x2="327.613" y2="98.4031" gradientUnits="userSpaceOnUse">
<stop stop-color="#FFD79D" stop-opacity="0.6"/>
<stop offset="0.19" stop-color="#FEBE61" stop-opacity="0.6"/>
<stop offset="0.38" stop-color="#FEB03E" stop-opacity="0.6"/>
<stop offset="0.47" stop-color="#F49100" stop-opacity="0.6"/>
<stop offset="0.9" stop-color="#FEB03E" stop-opacity="0.6"/>
<stop offset="1" stop-color="#FEB03E" stop-opacity="0.6"/>
</linearGradient>
<linearGradient id="paint45_linear_9405_287821" x1="-40.9749" y1="385.267" x2="-61.9747" y2="403.026" gradientUnits="userSpaceOnUse">
<stop stop-color="#FFD79D" stop-opacity="0.6"/>
<stop offset="0.19" stop-color="#FEBE61" stop-opacity="0.6"/>
<stop offset="0.38" stop-color="#FEB03E" stop-opacity="0.6"/>
<stop offset="0.47" stop-color="#F49100" stop-opacity="0.6"/>
<stop offset="0.9" stop-color="#FEB03E" stop-opacity="0.6"/>
<stop offset="1" stop-color="#FEB03E" stop-opacity="0.6"/>
</linearGradient>
<linearGradient id="paint46_linear_9405_287821" x1="132.928" y1="823.711" x2="119.172" y2="862.757" gradientUnits="userSpaceOnUse">
<stop stop-color="#FFD79D" stop-opacity="0.6"/>
<stop offset="0.19" stop-color="#FEBE61" stop-opacity="0.6"/>
<stop offset="0.38" stop-color="#FEB03E" stop-opacity="0.6"/>
<stop offset="0.47" stop-color="#F49100" stop-opacity="0.6"/>
<stop offset="0.9" stop-color="#FEB03E" stop-opacity="0.6"/>
<stop offset="1" stop-color="#FEB03E" stop-opacity="0.6"/>
</linearGradient>
<linearGradient id="paint47_linear_9405_287821" x1="222.07" y1="518.456" x2="214.612" y2="538.489" gradientUnits="userSpaceOnUse">
<stop stop-color="#FFD79D" stop-opacity="0.6"/>
<stop offset="0.19" stop-color="#FEBE61" stop-opacity="0.6"/>
<stop offset="0.38" stop-color="#FEB03E" stop-opacity="0.6"/>
<stop offset="0.47" stop-color="#F49100" stop-opacity="0.6"/>
<stop offset="0.9" stop-color="#FEB03E" stop-opacity="0.6"/>
<stop offset="1" stop-color="#FEB03E" stop-opacity="0.6"/>
</linearGradient>
<clipPath id="clip0_9405_287821">
<rect width="400" height="400" fill="white"/>
</clipPath>
<clipPath id="clip1_9405_287821">
<rect width="387" height="395" fill="white" transform="translate(7 5)"/>
</clipPath>
</defs>
</svg>
