<svg width="160" height="160" viewBox="0 0 160 160" fill="none" xmlns="http://www.w3.org/2000/svg">
<g id="Group">
<g id="Group_2">
<g id="Clip path group">
<mask id="mask0_6150_939" style="mask-type:luminance" maskUnits="userSpaceOnUse" x="0" y="0" width="160" height="160">
<g id="_clip1">
<path id="search1" d="M159.498 159.673L159.498 0.336426L0.161469 0.336426L0.161469 159.673L159.498 159.673Z" fill="white"/>
</g>
</mask>
<g mask="url(#mask0_6150_939)">
<g id="Group_3">
<g id="Group_4">
<g id="Group_5">
<path id="Vector" fill-rule="evenodd" clip-rule="evenodd" d="M98.4874 95.8748C98.4874 95.8748 105.345 96.9541 109.669 106.459C113.994 115.964 118.263 134.688 113.017 134.665C106.609 134.638 100.503 130.745 97.5451 125.221C94.5876 119.697 97.1065 108.351 97.1065 108.351L98.4874 95.8748Z" fill="url(#paint0_linear_6150_939)"/>
</g>
<g id="Group_6">
<path id="Vector_2" fill-rule="evenodd" clip-rule="evenodd" d="M109.468 106.528C110.643 101.882 115.594 99.1222 120.515 100.368C125.437 101.613 126.682 110.625 125.507 115.27C124.331 119.916 121.177 118.447 116.256 117.201C111.334 115.956 108.292 111.173 109.468 106.528Z" fill="#8295B5"/>
</g>
<g id="Group_7">
<path id="Vector_3" fill-rule="evenodd" clip-rule="evenodd" d="M105.774 119.353C106.234 114.444 108.869 107.715 109.798 105.487C109.999 105.007 110.144 104.75 110.144 104.75C110.144 104.75 109.321 115.674 115.442 117.893C121.562 120.114 125.193 117.117 125.815 113.823C126.437 110.53 125.77 133.561 115.442 134.665C104.3 135.855 105.215 125.319 105.774 119.353Z" fill="url(#paint1_radial_6150_939)"/>
<g id="Clip path group_2">
<mask id="mask1_6150_939" style="mask-type:luminance" maskUnits="userSpaceOnUse" x="105" y="104" width="21" height="31">
<g id="_clip4">
<path id="Vector_4" d="M105.774 119.353C106.234 114.444 108.869 107.715 109.798 105.487C109.999 105.007 110.144 104.75 110.144 104.75C110.144 104.75 109.321 115.674 115.442 117.893C121.562 120.114 125.193 117.117 125.815 113.823C126.437 110.53 125.77 133.561 115.442 134.665C104.3 135.855 105.215 125.319 105.774 119.353Z" fill="white"/>
</g>
</mask>
<g mask="url(#mask1_6150_939)">
<g id="Group_8">
<path id="Vector_5" d="M107.738 103.675C107.738 103.675 105.601 119.583 114.157 121.729C125.738 124.632 130.072 112.087 130.072 112.087" stroke="#A0B2D3" stroke-width="0.706726" stroke-miterlimit="1.5" stroke-linecap="round" stroke-linejoin="round"/>
</g>
</g>
</g>
</g>
<g id="Group_9">
<path id="Vector_6" fill-rule="evenodd" clip-rule="evenodd" d="M50.6278 88.9904C50.6278 88.9904 33.9449 115.426 27.9694 119.759C21.9937 124.093 34.6962 120.934 34.6962 120.934C34.6962 120.934 54.7796 95.7804 56.364 88.7622C56.1145 86.8262 56.0032 85.8075 56.0032 85.8075L50.6278 88.9904Z" fill="url(#paint2_linear_6150_939)"/>
</g>
<g id="Group_10">
<path id="Vector_7" fill-rule="evenodd" clip-rule="evenodd" d="M61.7932 80.4942C61.7932 80.4942 50.8664 91.1491 46.9632 106.905C40.2977 133.809 42.9878 142.034 42.9878 142.034C42.9878 142.034 64.7044 133.546 81.0848 133.375C97.4651 133.204 96.1656 135.95 96.1656 135.95C96.1656 135.95 107.599 94.2024 103.114 88.5579C98.6298 82.9135 89.9425 78.7161 89.9425 78.7161L61.7932 80.4942Z" fill="url(#paint3_radial_6150_939)"/>
</g>
<g id="Group_11">
<path id="Vector_8" fill-rule="evenodd" clip-rule="evenodd" d="M89.6747 123.145C89.3819 124.414 90.1865 125.575 91.4713 125.736L94.6724 126.138C95.9572 126.299 97.2377 125.4 97.5305 124.131L99.3557 116.226C99.6483 114.959 98.8436 113.798 97.5588 113.637L94.3577 113.235C93.0729 113.073 91.7925 113.973 91.4999 115.24L89.6747 123.145Z" fill="white" stroke="#A0B2D3" stroke-width="0.607725" stroke-miterlimit="1.5" stroke-linecap="round" stroke-linejoin="round"/>
</g>
<g id="Group_12">
<g id="Group_13">
<path id="Vector_9" fill-rule="evenodd" clip-rule="evenodd" d="M77.7404 76.8536L84.8311 114.826C84.8311 114.826 76.6162 107.34 74.6424 105.543C74.3834 105.307 74.2803 104.945 74.376 104.608C74.7695 103.22 75.7712 99.6887 75.7712 99.6887C75.7712 99.6887 69.5387 94.847 67.6335 93.3669C67.3251 93.1275 67.2535 92.6908 67.469 92.3652C69.3725 89.4906 77.7404 76.8536 77.7404 76.8536Z" fill="url(#paint4_linear_6150_939)" stroke="#A0B2D3" stroke-width="0.706728" stroke-miterlimit="1.5" stroke-linecap="round" stroke-linejoin="round"/>
</g>
<g id="Group_14">
<path id="Vector_10" fill-rule="evenodd" clip-rule="evenodd" d="M98.7965 92.4665L84.8311 114.825C84.8311 114.825 92.6562 111.057 94.7484 109.682C95.0684 109.472 95.2593 109.112 95.2511 108.73C95.2391 108.17 94.9386 107.082 94.7549 106.289C94.7151 106.116 94.8474 105.948 95.0032 105.863C96.2432 105.191 98.7351 104.727 100.576 104.063C100.905 103.945 101.051 103.554 100.994 103.209C100.498 100.19 98.7965 92.4665 98.7965 92.4665Z" fill="url(#paint5_linear_6150_939)" stroke="#A0B2D3" stroke-width="0.706726" stroke-miterlimit="1.5" stroke-linecap="round" stroke-linejoin="round"/>
</g>
</g>
<g id="Group_15">
<path id="Vector_11" fill-rule="evenodd" clip-rule="evenodd" d="M84.8306 114.826L79.8015 90.5854L97.5379 95.5649L84.8306 114.826Z" fill="url(#paint6_linear_6150_939)"/>
<g id="Clip path group_3">
<mask id="mask2_6150_939" style="mask-type:luminance" maskUnits="userSpaceOnUse" x="79" y="90" width="19" height="25">
<g id="_clip10">
<path id="Vector_12" d="M84.8306 114.826L79.8015 90.5854L97.5379 95.5649L84.8306 114.826Z" fill="white"/>
</g>
</mask>
<g mask="url(#mask2_6150_939)">
<g id="Group_16">
<g id="Group_17">
<path id="Vector_13" fill-rule="evenodd" clip-rule="evenodd" d="M79.8013 96.1627C79.8013 96.1627 82.9342 101.889 87.8517 102.972C92.7691 104.057 95.1337 100.239 95.1337 100.239L90.0821 113.172L80.8538 110.186L79.8013 96.1627Z" fill="url(#paint7_linear_6150_939)"/>
</g>
</g>
</g>
</g>
</g>
<g id="Group_18">
<g id="Group_19">
<path id="Vector_14" fill-rule="evenodd" clip-rule="evenodd" d="M78.4916 94.5962C59.735 88.5938 49.5429 66.8671 55.6965 45.6025C61.8502 24.3365 82.0701 11.4117 101.134 16.3531L101.137 16.3404L112.951 19.7587L112.388 21.7045C124.883 30.8841 130.731 48.5276 125.714 65.8639C120.697 83.2002 106.331 94.9949 90.8643 96.0827L90.3016 98.0271L78.4881 94.6089L78.4916 94.5962Z" fill="url(#paint8_linear_6150_939)"/>
<g id="Clip path group_4">
<mask id="mask3_6150_939" style="mask-type:luminance" maskUnits="userSpaceOnUse" x="53" y="15" width="75" height="84">
<g id="_clip13">
<path id="Vector_15" d="M78.4916 94.5962C59.735 88.5938 49.5429 66.8671 55.6965 45.6025C61.8502 24.3365 82.0701 11.4117 101.134 16.3531L101.137 16.3404L112.951 19.7587L112.388 21.7045C124.883 30.8841 130.731 48.5276 125.714 65.8639C120.697 83.2002 106.331 94.9949 90.8643 96.0827L90.3016 98.0271L78.4881 94.6089L78.4916 94.5962Z" fill="white"/>
</g>
</mask>
<g mask="url(#mask3_6150_939)">
<g id="Group_20">
<g id="Group_21">
<path id="Vector_16" d="M89.7482 98.195C109.083 103.79 129.856 90.7043 136.147 68.9669C142.437 47.2296 131.862 25.0722 112.528 19.4771C93.1927 13.882 72.4195 26.9679 66.1291 48.7053C59.8388 70.4426 70.4134 92.5999 89.7482 98.195Z" fill="#FFCF8D"/>
</g>
</g>
</g>
</g>
</g>
<g id="Group_22">
<path id="Vector_17" d="M90.3015 98.0283C109.636 103.623 130.38 90.6383 136.635 69.0251C142.889 47.412 132.285 25.3554 112.951 19.7602C93.6159 14.1651 72.8717 27.1503 66.6173 48.7634C60.3629 70.3766 70.9667 92.4332 90.3015 98.0283Z" fill="url(#paint9_radial_6150_939)"/>
</g>
</g>
<g id="Group_23">
<path id="Vector_18" fill-rule="evenodd" clip-rule="evenodd" d="M64.5491 91.0589C60.3403 88.9848 54.8253 91.9606 51.7995 104.191C48.7737 116.419 48.6189 125.527 55.6941 126.787C62.7693 128.047 65.6053 116.295 66.6489 108.24C67.8554 98.9267 68.758 93.1343 64.5491 91.0589Z" fill="url(#paint10_radial_6150_939)"/>
</g>
<g id="Group_24">
<path id="Vector_19" fill-rule="evenodd" clip-rule="evenodd" d="M74.4146 104.692C74.4146 104.692 81.741 100.919 87.8611 106.658C93.9812 112.397 92.6827 120.985 92.6827 120.985L77.1732 122.215L74.4146 104.692Z" fill="url(#paint11_linear_6150_939)"/>
</g>
<g id="Group_25">
<path id="Vector_20" fill-rule="evenodd" clip-rule="evenodd" d="M74.4146 104.692C74.4146 104.692 81.741 100.919 87.8611 106.658C93.9812 112.397 92.6827 120.985 92.6827 120.985L77.1732 122.215L74.4146 104.692Z" fill="url(#paint12_linear_6150_939)"/>
</g>
<g id="Group_26">
<path id="Vector_21" fill-rule="evenodd" clip-rule="evenodd" d="M67.8627 105.631C67.8627 105.631 66.7461 96.778 61.1738 92.4312C56.3494 88.6692 50.6279 88.9904 50.6279 88.9904C50.6279 88.9904 52.3084 87.449 53.1875 86.8938C54.0283 86.3626 55.9025 85.6581 55.9025 85.6581C55.9025 85.6581 60.6827 84.2773 66.0618 89.2384C72.0467 94.7575 73.3489 103.118 73.3489 103.118L67.8627 105.631Z" fill="url(#paint13_linear_6150_939)"/>
</g>
<g id="Group_27">
<path id="Vector_22" fill-rule="evenodd" clip-rule="evenodd" d="M73.3034 99.2705C73.3034 99.2705 67.5118 101.721 62.2428 105.483C48.7139 115.144 48.6188 125.527 55.694 126.787C62.7692 128.047 72.36 124.528 82.6984 119.211C80.4048 107.219 73.3034 99.2705 73.3034 99.2705Z" fill="url(#paint14_radial_6150_939)"/>
<g id="Clip path group_5">
<mask id="mask4_6150_939" style="mask-type:luminance" maskUnits="userSpaceOnUse" x="51" y="99" width="32" height="29">
<g id="_clip20">
<path id="Vector_23" d="M73.3034 99.2705C73.3034 99.2705 67.5118 101.721 62.2428 105.483C48.7139 115.144 48.6188 125.527 55.694 126.787C62.7692 128.047 72.36 124.528 82.6984 119.211C80.4048 107.219 73.3034 99.2705 73.3034 99.2705Z" fill="white"/>
</g>
</mask>
<g mask="url(#mask4_6150_939)">
<g id="Group_28">
<path id="Vector_24" d="M68.4163 100.365C68.4163 100.365 73.5205 107.613 75.4088 112.845C77.2972 118.076 78.4284 125.106 78.4284 125.106" stroke="#A0B2D3" stroke-width="0.706726" stroke-miterlimit="1.5" stroke-linecap="round" stroke-linejoin="round"/>
</g>
</g>
</g>
</g>
<g id="Group_29">
<g id="Group_30">
<path id="Vector_25" fill-rule="evenodd" clip-rule="evenodd" d="M85.0309 154.4C86.9013 156.807 91.9313 157.811 97.0347 157.495C101.072 157.246 106.15 157.941 107.481 152.31C108.107 149.665 106.752 146.681 105.322 144.888C103.039 142.024 98.7903 138.865 95.6016 138.14C92.413 137.414 93.056 135.416 90.9504 137.215C89.0305 138.854 86.1687 140.378 85.031 145.246C84.1066 149.2 83.6629 152.639 85.0309 154.4Z" fill="url(#paint15_linear_6150_939)"/>
</g>
<g id="Group_31">
<path id="Vector_26" fill-rule="evenodd" clip-rule="evenodd" d="M60.0195 154.187C62.227 156.717 66.345 158.236 72.4059 157.818C77.2001 157.488 83.2257 158.146 84.8372 152.136C85.5945 149.313 84.002 146.162 82.3145 144.278C79.6196 141.269 74.5924 137.978 70.8106 137.257C67.0289 136.537 63.9465 133.446 61.4368 135.393C59.1482 137.168 58.3549 141.863 58.1763 147.181C58.0995 149.457 58.4049 152.336 60.0195 154.187Z" fill="url(#paint16_linear_6150_939)"/>
</g>
</g>
<g id="Group_32">
<g id="Group_33">
<path id="Vector_27" fill-rule="evenodd" clip-rule="evenodd" d="M85.0309 154.4C86.9013 156.807 91.9313 157.811 97.0347 157.495C101.072 157.246 106.15 157.941 107.481 152.31C108.107 149.665 106.752 146.681 105.322 144.888C103.039 142.024 98.7903 138.865 95.6016 138.14C92.413 137.414 93.056 135.416 90.9504 137.215C89.0305 138.854 86.1687 140.378 85.031 145.246C84.1066 149.2 83.6629 152.639 85.0309 154.4Z" fill="url(#paint17_linear_6150_939)"/>
</g>
<g id="Group_34">
<path id="Vector_28" fill-rule="evenodd" clip-rule="evenodd" d="M60.0195 154.187C62.227 156.717 66.345 158.236 72.4059 157.818C77.2001 157.488 83.2257 158.146 84.8372 152.136C85.5945 149.313 84.002 146.162 82.3145 144.278C79.6196 141.269 74.5924 137.978 70.8106 137.257C67.0289 136.537 63.9465 133.446 61.4368 135.393C59.1482 137.168 58.3549 141.863 58.1763 147.181C58.0995 149.457 58.4049 152.336 60.0195 154.187Z" fill="url(#paint18_linear_6150_939)"/>
</g>
</g>
<g id="Group_35">
<path id="Vector_29" fill-rule="evenodd" clip-rule="evenodd" d="M85.2084 143.016C85.2084 143.016 100.596 144.129 106.268 142.842C107.427 137.638 108.478 121.578 100.255 118.967C93.5473 116.838 89.145 117.834 84.231 122.685C80.5248 126.344 82.5075 133.551 82.5075 133.551L85.2084 143.016Z" fill="url(#paint19_linear_6150_939)"/>
</g>
<g id="Group_36">
<path id="Vector_30" fill-rule="evenodd" clip-rule="evenodd" d="M56.5572 141.917C56.5572 141.917 71.2941 144.318 83.8318 143.075C88.651 131.322 89.2653 121.341 83.5817 118.774C77.8981 116.205 72.099 117.173 66.0921 121.638C60.0853 126.105 51.3235 136.055 51.3235 136.055L56.5572 141.917Z" fill="url(#paint20_linear_6150_939)"/>
</g>
<g id="Group_37">
<path id="Vector_31" fill-rule="evenodd" clip-rule="evenodd" d="M118.227 120.403C118.227 120.403 116.469 120.546 114.495 120.092C112.522 119.638 111.074 118.759 111.074 118.759L116.459 95.5697L123.612 97.2134L118.227 120.403Z" fill="#002468"/>
</g>
<g id="Group_38">
<path id="Vector_32" d="M119.955 96.7386C121.93 97.1925 123.567 97.4047 123.611 97.2126C123.655 97.0205 122.09 96.4968 120.115 96.0429C118.14 95.589 116.503 95.3768 116.459 95.5689C116.415 95.761 117.98 96.2847 119.955 96.7386Z" fill="#0049D1"/>
</g>
<g id="Group_39">
<path id="Vector_33" fill-rule="evenodd" clip-rule="evenodd" d="M122.033 96.7782C122.033 96.7782 121.004 96.7646 119.888 96.508C118.771 96.2514 117.986 95.8484 117.986 95.8484L123.387 72.8071L127.433 73.737L122.033 96.7782Z" fill="url(#paint21_linear_6150_939)"/>
</g>
<g id="Group_40">
<g id="Group_41">
<path id="Vector_34" fill-rule="evenodd" clip-rule="evenodd" d="M125.97 114.53C125.948 114.545 125.926 114.561 125.905 114.576C125.76 114.674 125.621 114.792 125.487 114.927C125.029 115.391 124.633 116.053 124.307 116.736C123.087 118.006 121.187 118.827 118.67 118.629L119.9 113.401C119.9 113.401 119.76 113.355 119.501 113.313C116.936 112.919 116.926 109.89 117.469 105.541C118.012 101.191 119.953 98.7999 123.649 98.7858C127.346 98.7731 129.363 102.491 129.402 106.224C129.441 109.907 127.618 113.362 125.97 114.53Z" fill="url(#paint22_linear_6150_939)"/>
</g>
<g id="Group_42">
<path id="Vector_35" fill-rule="evenodd" clip-rule="evenodd" d="M110.131 107.818C110.429 106.864 110.719 105.831 110.728 105.398C110.747 104.501 110.589 102.246 111.526 100.516C112.464 98.7858 113.752 96.9753 115.142 97.2627C116.532 97.5501 118.733 99.2381 118.122 100.815C117.51 102.39 114.997 102.032 114.997 102.032L112.023 114.901C110.742 112.728 110.283 109.927 110.131 107.818Z" fill="url(#paint23_linear_6150_939)"/>
</g>
</g>
<g id="Group_43">
<g id="Group_44">
<path id="Vector_36" fill-rule="evenodd" clip-rule="evenodd" d="M125.97 114.53C125.948 114.545 125.926 114.561 125.905 114.576C125.76 114.674 125.621 114.792 125.487 114.927C125.029 115.391 124.633 116.053 124.307 116.736C123.087 118.006 121.187 118.827 118.67 118.629L119.9 113.401C119.9 113.401 119.76 113.355 119.501 113.313C116.936 112.919 116.926 109.89 117.469 105.541C118.012 101.191 119.953 98.7999 123.649 98.7858C127.346 98.7731 129.363 102.491 129.402 106.224C129.441 109.907 127.618 113.362 125.97 114.53Z" fill="url(#paint24_radial_6150_939)"/>
</g>
<g id="Group_45">
<path id="Vector_37" fill-rule="evenodd" clip-rule="evenodd" d="M110.131 107.818C110.429 106.864 110.719 105.831 110.728 105.398C110.747 104.501 110.589 102.246 111.526 100.516C112.464 98.7858 113.752 96.9753 115.142 97.2627C116.532 97.5501 118.733 99.2381 118.122 100.815C117.51 102.39 114.997 102.032 114.997 102.032L112.023 114.901C110.742 112.728 110.283 109.927 110.131 107.818Z" fill="url(#paint25_radial_6150_939)"/>
</g>
</g>
<g id="Group_46">
<path id="Vector_38" fill-rule="evenodd" clip-rule="evenodd" d="M138.428 57.0299L66.9369 47.5992C66.9369 47.5992 60.5586 48.2701 59.6591 55.8069C58.6254 64.4687 65.4102 68.5835 65.4102 68.5835L136.129 75.4573L138.428 57.0299Z" fill="url(#paint26_linear_6150_939)"/>
</g>
<g id="Group_47">
<path id="Vector_39" fill-rule="evenodd" clip-rule="evenodd" d="M94.0768 64.6528C94.1162 64.7259 94.2067 65.0144 94.0469 65.194C93.8728 65.3906 93.5904 65.3479 93.5369 65.2868C92.0965 63.5845 90.1018 62.1415 87.2593 61.8857C84.1064 61.6021 82.3422 62.9967 81.5148 63.3294C80.3743 63.7893 79.1268 61.8591 79.9044 60.9106C80.6628 59.9866 84.397 58.2701 88.2993 59.7459C91.432 60.9306 93.0917 62.8823 94.0768 64.6528Z" fill="black"/>
</g>
<g id="Group_48">
<g id="Group_49">
<path id="Vector_40" fill-rule="evenodd" clip-rule="evenodd" d="M116.739 85.1986C107.318 82.9332 102.17 70.6919 105.25 57.8787C108.331 45.0655 118.482 36.5027 127.903 38.7681L133.579 40.1328L133.262 41.4493C139.132 46.2285 141.822 55.9805 139.392 66.088C136.962 76.1955 130.132 83.6584 122.731 85.2468L122.415 86.5633L116.739 85.1986Z" fill="url(#paint27_linear_6150_939)"/>
</g>
<g id="Group_50">
<path id="Vector_41" d="M122.414 86.5639C131.842 88.8308 141.984 80.2748 145.067 67.4533C148.15 54.6319 143.006 42.4004 133.578 40.1335C124.151 37.8665 114.009 46.4226 110.926 59.244C107.843 72.0655 112.987 84.297 122.414 86.5639Z" fill="#2E9FED"/>
</g>
<g id="Group_51">
<path id="Vector_42" d="M123.385 82.5263C131.173 84.399 139.552 77.3309 142.098 66.7393C144.645 56.1477 140.396 46.0434 132.608 44.1707C124.819 42.298 116.441 49.3661 113.895 59.9577C111.348 70.5493 115.597 80.6536 123.385 82.5263Z" fill="url(#paint28_linear_6150_939)"/>
<g id="Clip path group_6">
<mask id="mask5_6150_939" style="mask-type:luminance" maskUnits="userSpaceOnUse" x="113" y="43" width="30" height="40">
<g id="_clip35">
<path id="Vector_43" d="M123.384 82.5263C131.173 84.399 139.551 77.3309 142.098 66.7393C144.644 56.1477 140.395 46.0434 132.607 44.1707C124.819 42.298 116.441 49.3661 113.894 59.9577C111.347 70.5493 115.596 80.6536 123.384 82.5263Z" fill="white"/>
</g>
</mask>
<g mask="url(#mask5_6150_939)">
<g id="Group_52">
<g id="Group_53">
<path id="Vector_44" d="M154.471 38.4482L110.004 32.8961L108.365 46.0187L152.833 51.5708L154.471 38.4482Z" fill="#FFBF67"/>
</g>
<g id="Group_54">
<path id="Vector_45" d="M123.333 78.1705C118.228 76.9438 115.44 70.3249 117.107 63.3869C118.774 56.4489 124.265 51.819 129.37 53.0457C134.476 54.2724 137.263 60.8912 135.596 67.8292C133.929 74.7673 128.439 79.3972 123.333 78.1705Z" fill="url(#paint29_linear_6150_939)"/>
<g id="Clip path group_7">
<mask id="mask6_6150_939" style="mask-type:luminance" maskUnits="userSpaceOnUse" x="116" y="52" width="21" height="27">
<g id="_clip37">
<path id="Vector_46" d="M123.333 78.1705C118.228 76.9438 115.44 70.3249 117.107 63.3869C118.774 56.4489 124.265 51.819 129.37 53.0457C134.476 54.2724 137.263 60.8912 135.596 67.8292C133.929 74.7673 128.439 79.3972 123.333 78.1705Z" fill="white"/>
</g>
</mask>
<g mask="url(#mask6_6150_939)">
<g id="Group_55">
<g id="Group_56">
<path id="Vector_47" d="M122.102 80.0703C117.868 79.0529 115.613 73.3279 117.065 67.2832C118.517 61.2384 123.127 57.1629 127.362 58.1803C131.596 59.1977 133.851 64.9227 132.399 70.9675C130.947 77.0122 126.337 81.0877 122.102 80.0703Z" fill="black"/>
</g>
<g id="Group_57">
<path id="Vector_48" d="M128.262 66.595C127.45 66.4518 126.874 65.3294 126.975 64.0881C127.076 62.8467 127.816 61.9564 128.628 62.0995C129.44 62.2427 130.016 63.3651 129.915 64.6065C129.814 65.8479 129.074 66.7382 128.262 66.595Z" fill="white"/>
</g>
</g>
</g>
</g>
</g>
<g id="Group_58">
<g id="Group_59" opacity="0.3">
<g id="Group_60">
<path id="Vector_49" d="M158.416 23.7219L98.0728 73.7722L106.578 84.0261L166.92 33.9758L158.416 23.7219Z" fill="white"/>
</g>
<g id="Group_61">
<path id="Vector_50" d="M168.177 35.4909L107.834 85.5411L109.959 88.1028L170.302 38.0525L168.177 35.4909Z" fill="white"/>
</g>
</g>
</g>
</g>
</g>
</g>
</g>
</g>
<g id="Group_62">
<path id="Vector_51" fill-rule="evenodd" clip-rule="evenodd" d="M58.2717 123.536C55.7505 119.264 45.9907 118.061 39.623 117.732C28.078 117.135 23.8039 118.878 20.4781 122.012C16.4411 125.817 14.7459 131.2 14.0958 135.624C13.4445 140.065 13.4516 143.461 15.1594 148.412C18.0638 156.834 24.6985 157.994 31.5353 159.229C37.2539 160.263 46.5448 159.526 50.8444 156.537C55.3685 153.391 59.4142 149.004 60.5511 140.334C61.4537 133.451 60.4171 127.17 58.2717 123.536Z" fill="url(#paint30_radial_6150_939)"/>
<g id="Clip path group_8">
<mask id="mask7_6150_939" style="mask-type:luminance" maskUnits="userSpaceOnUse" x="13" y="117" width="48" height="43">
<g id="_clip39">
<path id="Vector_52" d="M58.2717 123.536C55.7505 119.264 45.9907 118.061 39.623 117.732C28.078 117.135 23.8039 118.878 20.4781 122.012C16.4411 125.817 14.7459 131.2 14.0958 135.624C13.4445 140.065 13.4516 143.461 15.1594 148.412C18.0638 156.834 24.6985 157.994 31.5353 159.229C37.2539 160.263 46.5448 159.526 50.8444 156.537C55.3685 153.391 59.4142 149.004 60.5511 140.334C61.4537 133.451 60.4171 127.17 58.2717 123.536Z" fill="white"/>
</g>
</mask>
<g mask="url(#mask7_6150_939)">
<g id="Group_63">
<g id="Group_64">
<path id="Vector_53" fill-rule="evenodd" clip-rule="evenodd" d="M58.0956 113.849C55.2694 109.582 44.4416 108.395 37.3806 108.077C24.5786 107.5 19.8535 109.25 16.1899 112.389C11.743 116.2 9.90352 121.586 9.21548 126.01C8.52625 130.452 8.55908 133.848 10.4887 138.795C13.7703 147.211 21.1335 148.36 28.7212 149.583C35.068 150.607 45.1694 151.606 49.6766 148.184C55.326 143.896 58.7628 139.332 59.4626 130.568C60.0717 122.939 60.5006 117.479 58.0956 113.849Z" fill="url(#paint31_radial_6150_939)"/>
<g id="Clip path group_9">
<mask id="mask8_6150_939" style="mask-type:luminance" maskUnits="userSpaceOnUse" x="8" y="107" width="52" height="44">
<g id="_clip41">
<path id="Vector_54" d="M58.0951 113.849C55.2689 109.582 44.4411 108.395 37.3801 108.077C24.5781 107.5 19.853 109.25 16.1894 112.389C11.7425 116.2 9.90303 121.586 9.21498 126.01C8.52575 130.452 8.55859 133.848 10.4882 138.795C13.7698 147.211 21.133 148.36 28.7207 149.583C35.0675 150.607 45.1689 151.606 49.6761 148.184C55.3255 143.896 58.7623 139.332 59.4621 130.568C60.0712 122.939 60.5001 117.479 58.0951 113.849Z" fill="white"/>
</g>
</mask>
<g mask="url(#mask8_6150_939)">
<g id="Group_65">
<g id="Group_66">
<g id="Group_67">
<path id="Vector_55" fill-rule="evenodd" clip-rule="evenodd" d="M85.5247 135.881C73.3638 140.607 60.2698 144.251 40.2631 145.205C28.937 145.745 11.9779 140.887 11.9779 140.887L13.2437 129.386C13.2437 129.386 30.2028 134.244 41.5289 133.704C61.5356 132.75 74.6311 129.107 86.7905 124.38C99.0008 119.635 97.7334 131.136 85.5247 135.881Z" fill="url(#paint32_linear_6150_939)"/>
</g>
<g id="Group_68">
<path id="Vector_56" fill-rule="evenodd" clip-rule="evenodd" d="M86.5531 123.042C74.3921 127.769 61.2982 131.413 41.2898 132.367C29.9654 132.906 13.0063 128.048 13.0063 128.048L13.4394 126.649C13.4394 126.649 30.3985 131.507 41.7246 130.967C61.7313 130.013 74.8269 126.37 86.9862 121.643C99.1965 116.898 98.7618 118.297 86.5531 123.042Z" fill="url(#paint33_linear_6150_939)"/>
</g>
<g id="Group_69">
<g id="Group_70">
<g id="Group_71">
<g id="Group_72">
<path id="Vector_57" d="M17.8097 136.032C17.899 136.209 17.9493 136.407 17.9647 136.61C17.978 136.785 17.9664 136.962 17.9387 137.137C17.8321 137.807 17.7371 138.48 17.6596 139.154C17.4261 139.1 17.1928 139.044 16.9598 138.987C17.0288 138.348 17.1141 137.71 17.2107 137.074C17.2394 136.886 17.2298 136.687 17.1436 136.521C17.0644 136.375 16.9302 136.285 16.7785 136.246C16.7122 136.23 16.6436 136.22 16.5747 136.224C16.5317 136.227 16.4887 136.235 16.4474 136.25C16.4209 136.26 16.3952 136.272 16.3709 136.287C16.1988 136.394 16.1208 136.614 16.0812 136.811C16.0735 136.85 16.067 136.889 16.0616 136.929C15.98 137.519 15.9094 138.112 15.8534 138.705C15.6314 138.646 15.4097 138.586 15.1883 138.524C15.2844 137.382 15.4303 136.301 15.6079 135.166C15.8385 135.23 16.0694 135.292 16.3007 135.353C16.2792 135.484 16.258 135.616 16.2372 135.747C16.2827 135.688 16.3341 135.634 16.3913 135.588C16.4303 135.557 16.4719 135.53 16.5156 135.508C16.7101 135.407 16.9287 135.411 17.1301 135.461C17.277 135.498 17.416 135.566 17.5336 135.666C17.6488 135.765 17.7405 135.892 17.8099 136.032L17.8097 136.032Z" fill="#F05123"/>
</g>
<g id="Group_73">
<path id="Vector_58" d="M21.1022 136.737C21.1975 136.91 21.2514 137.108 21.2672 137.311C21.2805 137.482 21.2683 137.655 21.2398 137.825C21.1271 138.495 21.0235 139.167 20.9345 139.84C20.684 139.793 20.4337 139.745 20.1836 139.696C20.2665 139.058 20.3631 138.422 20.4686 137.787C20.4997 137.601 20.4903 137.404 20.3994 137.243C20.3135 137.096 20.1693 137.015 20.0136 136.983C19.9401 136.968 19.8645 136.961 19.7891 136.969C19.741 136.974 19.6931 136.985 19.6474 137.003C19.6184 137.015 19.5903 137.03 19.5638 137.048C19.3944 137.16 19.3095 137.371 19.265 137.571C19.2568 137.607 19.2498 137.644 19.2439 137.681C19.1489 138.27 19.0628 138.86 18.9891 139.451C18.7481 139.4 18.5073 139.347 18.2667 139.293C18.4567 137.707 18.7368 136.17 19.0285 134.598C19.273 134.654 19.5177 134.708 19.7627 134.762C19.6541 135.344 19.5461 135.926 19.4429 136.509C19.4936 136.447 19.5506 136.39 19.6135 136.343C19.6554 136.311 19.6998 136.283 19.746 136.26C19.9489 136.159 20.1754 136.155 20.3873 136.198C20.5261 136.226 20.66 136.279 20.7778 136.361C20.9128 136.456 21.0218 136.587 21.1027 136.737L21.1022 136.737Z" fill="#F05123"/>
</g>
<g id="Group_74">
<path id="Vector_59" d="M24.3218 137.415C24.3449 137.279 24.3682 137.143 24.3915 137.006C24.6525 137.046 24.9137 137.085 25.175 137.122C24.9864 138.248 24.8139 139.323 24.6655 140.454C24.401 140.416 24.1366 140.377 23.8724 140.337C23.8897 140.207 23.9074 140.077 23.9255 139.947C23.8572 140.016 23.7821 140.077 23.7013 140.128C23.5684 140.211 23.4215 140.262 23.2713 140.282C23.1369 140.301 23.0013 140.295 22.869 140.273C22.6904 140.244 22.5175 140.183 22.3638 140.083C22.1777 139.963 22.0267 139.791 21.906 139.597C21.7862 139.399 21.7018 139.177 21.665 138.941C21.6318 138.727 21.6375 138.507 21.6725 138.292C21.7093 138.066 21.7785 137.845 21.8856 137.644C21.9937 137.441 22.1387 137.262 22.3064 137.114C22.528 136.921 22.7886 136.781 23.0691 136.745C23.1887 136.73 23.3093 136.733 23.4271 136.753C23.5563 136.774 23.683 136.811 23.8008 136.87C23.9302 136.934 24.0471 137.025 24.1435 137.138C24.2142 137.221 24.2736 137.315 24.3219 137.415L24.3218 137.415ZM23.1269 139.487C23.231 139.503 23.3382 139.504 23.443 139.481C23.5591 139.456 23.6692 139.402 23.7657 139.326C23.8659 139.246 23.9498 139.144 24.0091 139.026C24.0611 138.923 24.0939 138.809 24.112 138.694C24.1304 138.577 24.1338 138.457 24.1153 138.341C24.0948 138.213 24.0469 138.092 23.9772 137.988C23.9115 137.884 23.8264 137.796 23.7253 137.733C23.633 137.676 23.5299 137.642 23.424 137.625C23.3217 137.608 23.2163 137.608 23.1136 137.631C22.9943 137.658 22.8819 137.715 22.7838 137.796C22.6845 137.875 22.6018 137.977 22.543 138.094C22.491 138.198 22.458 138.311 22.4394 138.426C22.4208 138.541 22.4166 138.659 22.4333 138.773C22.4523 138.904 22.4991 139.027 22.5683 139.133C22.6366 139.236 22.7248 139.322 22.8279 139.382C22.9202 139.436 23.0223 139.47 23.1269 139.487Z" fill="#F05123"/>
</g>
<g id="Group_75">
<path id="Vector_60" d="M28.5984 137.99C28.7224 138.179 28.8146 138.394 28.8615 138.623C28.9061 138.841 28.9094 139.068 28.8798 139.292C28.8521 139.502 28.7956 139.709 28.7056 139.9C28.5987 140.127 28.4458 140.326 28.2627 140.486C28.0994 140.633 27.9127 140.749 27.7108 140.815C27.5143 140.878 27.3087 140.894 27.1081 140.87C26.8005 140.833 26.5028 140.706 26.2915 140.462C26.2379 140.399 26.1905 140.331 26.15 140.258C26.0422 141.071 25.9485 141.886 25.8692 142.702C25.5997 142.666 25.3304 142.629 25.0613 142.591C25.2485 140.671 25.4824 139.111 25.7942 137.209C26.0583 137.244 26.3225 137.279 26.5869 137.313C26.5653 137.449 26.5437 137.585 26.5223 137.722C26.5986 137.641 26.6831 137.57 26.7746 137.511C26.9064 137.427 27.0515 137.372 27.2007 137.345C27.3347 137.322 27.4708 137.322 27.6043 137.337C27.7812 137.358 27.954 137.409 28.1094 137.5C28.3086 137.616 28.47 137.791 28.5983 137.99L28.5984 137.99ZM27.0609 140.035C27.1696 140.048 27.2807 140.045 27.3888 140.018C27.5082 139.989 27.6212 139.931 27.7199 139.851C27.8211 139.768 27.9059 139.663 27.965 139.542C28.016 139.437 28.0474 139.322 28.0633 139.206C28.0792 139.091 28.08 138.973 28.0589 138.859C28.0349 138.73 27.9818 138.609 27.9064 138.507C27.8346 138.404 27.7426 138.319 27.6357 138.261C27.5398 138.209 27.4343 138.179 27.3269 138.167C27.219 138.154 27.1086 138.159 27.0016 138.186C26.8814 138.218 26.7685 138.279 26.6698 138.361C26.5712 138.442 26.4884 138.545 26.4297 138.662C26.3768 138.768 26.3439 138.884 26.3266 139.002C26.3095 139.117 26.3074 139.235 26.3269 139.348C26.3492 139.478 26.4004 139.599 26.4739 139.703C26.5485 139.806 26.6438 139.888 26.753 139.945C26.8492 139.994 26.9542 140.023 27.0609 140.035Z" fill="#F05123"/>
</g>
<g id="Group_76">
<path id="Vector_61" d="M31.418 137.804C31.3833 138.088 31.3488 138.372 31.3148 138.657C31.0748 138.638 30.8351 138.619 30.5953 138.599C30.5373 139.061 30.4807 139.523 30.4262 139.985C30.4138 140.09 30.4326 140.197 30.5082 140.266C30.5288 140.285 30.5519 140.3 30.5763 140.312C30.6398 140.342 30.7125 140.351 30.7811 140.36C30.8915 140.374 31.0031 140.379 31.1146 140.383C31.0856 140.644 31.0573 140.905 31.0299 141.166C30.7672 141.176 30.4988 141.168 30.2451 141.099C30.0996 141.06 29.9544 140.999 29.8404 140.893C29.8085 140.864 29.7792 140.832 29.753 140.797C29.5968 140.588 29.5687 140.301 29.5874 140.036C29.5905 139.994 29.5946 139.952 29.5997 139.91C29.6565 139.449 29.7158 138.987 29.7766 138.526C29.5932 138.509 29.4098 138.492 29.2265 138.474C29.2651 138.19 29.3042 137.906 29.3436 137.622C29.5256 137.64 29.7078 137.657 29.89 137.674C29.9223 137.434 29.9548 137.194 29.9873 136.953C30.2693 136.884 30.551 136.812 30.8323 136.738C30.7892 137.074 30.7459 137.41 30.7029 137.746C30.9411 137.766 31.1792 137.785 31.4174 137.803L31.418 137.804Z" fill="#F05123"/>
</g>
<g id="Group_77">
<path id="Vector_62" d="M34.5991 138.283C34.6422 138.339 34.6804 138.4 34.713 138.464C34.8458 138.727 34.8761 139.035 34.8485 139.335C34.785 140.023 34.7225 140.712 34.6621 141.401C34.3815 141.387 34.1009 141.373 33.8203 141.357C33.88 140.706 33.9422 140.055 34.0059 139.404C34.0243 139.215 33.9963 139.021 33.8835 138.876C33.7726 138.738 33.6058 138.683 33.4392 138.674C33.3523 138.669 33.264 138.674 33.1781 138.694C33.1219 138.708 33.0671 138.728 33.0156 138.757C32.9818 138.776 32.9496 138.798 32.9198 138.824C32.7397 138.979 32.6693 139.233 32.6441 139.468C32.5799 140.069 32.5175 140.671 32.4585 141.273C32.1789 141.254 31.8995 141.234 31.6202 141.213C31.7819 139.633 31.9671 138.086 32.1527 136.508C32.4228 136.527 32.693 136.545 32.9632 136.562C32.8995 137.138 32.8354 137.714 32.772 138.29C32.8214 138.224 32.877 138.163 32.9385 138.11C32.9816 138.073 33.0274 138.04 33.0754 138.011C33.2897 137.881 33.5365 137.844 33.7745 137.857C33.9181 137.864 34.0607 137.894 34.1924 137.952C34.3522 138.024 34.4908 138.139 34.5991 138.283Z" fill="#F05123"/>
</g>
<g id="Group_78">
<path id="Vector_63" d="M37.652 139.936C37.6983 139.32 37.744 138.703 37.7889 138.086C38.0641 138.09 38.3394 138.092 38.6148 138.093C38.5375 139.233 38.4566 140.374 38.3722 141.514C38.0926 141.51 37.813 141.506 37.5334 141.5C37.5432 141.372 37.553 141.244 37.5627 141.115C37.5165 141.18 37.4641 141.24 37.4061 141.293C37.3659 141.33 37.323 141.363 37.2779 141.393C37.0592 141.536 36.8022 141.58 36.5547 141.572C36.4034 141.567 36.2531 141.539 36.1135 141.48C35.9537 141.412 35.8122 141.303 35.6982 141.165C35.6528 141.108 35.6128 141.046 35.5788 140.981C35.4462 140.725 35.4153 140.422 35.441 140.128C35.5016 139.43 35.5633 138.733 35.6248 138.036C35.8999 138.045 36.175 138.053 36.4503 138.06C36.396 138.722 36.3412 139.385 36.2868 140.047C36.2713 140.235 36.3033 140.428 36.4195 140.57C36.5351 140.705 36.7058 140.754 36.8739 140.758C36.962 140.761 37.0511 140.753 37.1377 140.73C37.1939 140.715 37.2489 140.693 37.3001 140.662C37.3336 140.642 37.3655 140.618 37.3949 140.592C37.572 140.43 37.6342 140.172 37.652 139.936L37.652 139.936Z" fill="#F05123"/>
</g>
<g id="Group_79">
<path id="Vector_64" d="M42.4618 143.637C42.8602 143.616 43.2552 143.511 43.625 143.336C43.968 143.174 44.2886 142.955 44.5793 142.697C44.806 142.496 45.0149 142.271 45.2037 142.028C45.826 141.228 46.2369 140.224 46.2793 139.189C46.3008 138.664 46.2264 138.141 46.0596 137.655C45.9979 137.476 45.9239 137.301 45.8388 137.134C45.3639 136.199 44.5321 135.462 43.5462 135.259C43.2977 135.208 43.0422 135.192 42.7873 135.21C42.4095 135.237 42.0357 135.34 41.6846 135.505C41.3563 135.659 41.0482 135.865 40.7666 136.106C40.5439 136.297 40.3372 136.51 40.1485 136.74C39.4872 137.547 39.0339 138.576 38.9849 139.645C38.9623 140.137 39.0266 140.628 39.1743 141.087C39.2416 141.296 39.3257 141.499 39.4246 141.692C39.9069 142.633 40.75 143.375 41.7439 143.582C41.9791 143.631 42.2205 143.649 42.4618 143.637Z" fill="url(#paint34_linear_6150_939)"/>
</g>
<g id="Group_80">
<path id="Vector_65" d="M41.8767 135.419C41.4951 135.578 41.1316 135.789 40.8071 136.064C40.5216 136.306 40.27 136.591 40.0425 136.896C40.0354 136.897 40.0283 136.898 40.0213 136.899C39.8735 137.13 39.7234 137.358 39.5711 137.585C39.5204 137.673 39.4771 137.766 39.4353 137.859C39.3639 138.016 39.3005 138.178 39.2446 138.342C39.0928 138.787 38.9968 139.255 38.9817 139.725C38.9705 140.075 39.0052 140.424 39.0855 140.76C39.2276 141.354 39.5085 141.894 39.8592 142.365C40.9372 141.249 42.5258 139.655 43.5713 138.499C44.1862 137.819 44.7925 137.128 45.3736 136.415C44.8154 135.733 44.0257 135.262 43.1671 135.201C42.9984 135.189 42.8283 135.193 42.659 135.212C42.3927 135.243 42.1295 135.314 41.8773 135.419L41.8767 135.419Z" fill="url(#paint35_linear_6150_939)"/>
</g>
<g id="Group_81">
<path id="Vector_66" d="M44.4864 140.724C44.1367 141.269 43.6175 141.689 43.0291 141.861C42.9186 141.893 42.8062 141.917 42.6931 141.931C42.5599 141.947 42.4258 141.95 42.2931 141.94C42.1297 141.927 41.9685 141.894 41.8136 141.84C41.6182 141.773 41.4334 141.675 41.2655 141.55C41.0944 141.423 40.9411 141.269 40.8119 141.093C40.703 140.945 40.6112 140.782 40.5397 140.608C40.479 140.461 40.4328 140.306 40.4019 140.148C40.3221 139.738 40.3475 139.305 40.466 138.899C40.5469 138.621 40.67 138.357 40.8249 138.117C41.1897 137.552 41.7357 137.116 42.3516 136.951C42.4554 136.923 42.5608 136.903 42.6667 136.892C42.7948 136.878 42.9236 136.876 43.0512 136.888C43.2069 136.901 43.3605 136.934 43.5083 136.985C43.6963 137.05 43.8742 137.145 44.0364 137.264C44.2043 137.388 44.355 137.538 44.4827 137.708C44.592 137.855 44.6843 138.016 44.7571 138.188C44.9717 138.695 45.0083 139.281 44.8732 139.831C44.795 140.149 44.6617 140.452 44.4868 140.724L44.4864 140.724Z" fill="url(#paint36_linear_6150_939)"/>
</g>
<g id="Group_82">
<path id="Vector_67" d="M44.5847 137.939C43.4615 139.21 42.3561 140.341 41.1814 141.555C41.1198 141.538 41.0581 141.522 40.9966 141.505C42.1896 140.282 43.3097 139.143 44.4472 137.858C44.4931 137.885 44.5388 137.912 44.5847 137.939Z" fill="#E6E8E2"/>
</g>
<g id="Group_83">
<path id="Vector_68" d="M44.5845 137.939C43.4744 139.196 42.381 140.315 41.2199 141.515C41.1105 141.446 41.0008 141.378 40.8911 141.309C42.0861 140.088 43.2028 138.948 44.3346 137.656C44.4177 137.75 44.501 137.845 44.5845 137.939Z" fill="#E6E8E2"/>
</g>
<g id="Group_84">
<path id="Vector_69" d="M43.7886 141.635C43.5491 141.804 43.2856 141.932 43.0106 142.007C42.5656 142.129 42.0967 142.108 41.6743 141.94C41.5018 141.871 41.338 141.779 41.1875 141.666C41.0073 141.532 40.8458 141.368 40.7098 141.183C40.5951 141.026 40.4985 140.853 40.423 140.67C40.3582 140.512 40.3091 140.347 40.2766 140.177C40.1942 139.746 40.2214 139.292 40.3456 138.866C40.431 138.573 40.5607 138.295 40.7239 138.042C40.9368 137.71 41.2066 137.422 41.5172 137.199C41.7586 137.026 42.0243 136.894 42.3022 136.816C42.748 136.69 43.2191 136.708 43.6431 136.877C43.8083 136.943 43.9652 137.031 44.1099 137.138C44.4171 137.366 44.6684 137.676 44.8357 138.037C44.9453 138.274 45.0184 138.531 45.0533 138.795C45.1025 139.169 45.074 139.556 44.9735 139.924C44.889 140.233 44.755 140.527 44.5841 140.793C44.3713 141.125 44.1006 141.414 43.788 141.634L43.7886 141.635ZM41.6362 137.443C41.3577 137.64 41.1164 137.897 40.9253 138.192C40.7608 138.447 40.6347 138.73 40.5603 139.028C40.4331 139.537 40.4641 140.081 40.6602 140.552C40.7275 140.714 40.8132 140.866 40.9149 141.004C41.0369 141.169 41.1816 141.314 41.3432 141.434C41.4731 141.53 41.6139 141.609 41.762 141.668C42.1428 141.822 42.5664 141.843 42.9686 141.736C43.2181 141.669 43.4578 141.555 43.6754 141.403C43.9554 141.207 44.1975 140.95 44.3884 140.654C44.5389 140.42 44.6572 140.162 44.7329 139.891C44.8259 139.558 44.8529 139.206 44.8081 138.867C44.776 138.626 44.7086 138.391 44.6071 138.177C44.4571 137.859 44.2338 137.587 43.9621 137.388C43.8347 137.295 43.6969 137.218 43.5521 137.16C43.1722 137.008 42.75 136.991 42.3499 137.1C42.0975 137.169 41.8558 137.287 41.6362 137.443Z" fill="url(#paint37_linear_6150_939)"/>
</g>
<g id="Group_85">
<path id="Vector_70" d="M49.5883 141.578C48.5022 141.71 47.4071 141.814 46.3186 141.894C46.1615 141.906 46.0411 142.069 46.0264 142.231C45.9978 142.547 45.9679 142.862 45.9369 143.178C45.9258 143.292 45.9609 143.42 46.0569 143.477C46.0713 143.485 46.0867 143.491 46.1028 143.496C46.1226 143.501 46.1432 143.503 46.1637 143.501C47.232 143.429 48.3094 143.333 49.3755 143.207C49.4307 143.201 49.4816 143.169 49.5228 143.129C49.6009 143.053 49.6518 142.943 49.6672 142.832C49.7115 142.512 49.7547 142.191 49.7961 141.871C49.8094 141.768 49.7844 141.648 49.695 141.598C49.6807 141.59 49.6654 141.584 49.6495 141.581C49.6295 141.576 49.6088 141.576 49.5883 141.578Z" fill="url(#paint38_linear_6150_939)"/>
</g>
<g id="Group_86">
<path id="Vector_71" d="M46.4899 143.144C46.4716 143.118 46.4672 143.084 46.4704 143.052C46.474 143.017 46.4862 142.983 46.5089 142.957C46.529 142.934 46.5549 142.919 46.5839 142.916C46.6104 142.914 46.6348 142.924 46.6515 142.946C46.6701 142.972 46.6743 143.005 46.671 143.037C46.6673 143.073 46.6546 143.106 46.6322 143.133C46.6126 143.157 46.5868 143.174 46.5573 143.176C46.5302 143.178 46.5058 143.167 46.4899 143.144Z" fill="white"/>
</g>
<g id="Group_87">
<path id="Vector_72" d="M46.9084 143.093C46.8524 143.055 46.8112 142.997 46.7868 142.931C46.7581 142.855 46.7525 142.77 46.7608 142.688C46.7697 142.601 46.7941 142.516 46.8364 142.44C46.8761 142.369 46.929 142.308 46.9935 142.263C47.0559 142.219 47.1271 142.192 47.2003 142.186C47.2569 142.181 47.3143 142.188 47.3656 142.213C47.4129 142.236 47.452 142.274 47.4802 142.321C47.4402 142.365 47.4002 142.41 47.3603 142.455C47.3218 142.392 47.2616 142.358 47.1903 142.364C47.1464 142.367 47.1042 142.384 47.0671 142.411C47.0284 142.439 46.9976 142.477 46.9744 142.521C46.9496 142.569 46.935 142.622 46.9294 142.675C46.9242 142.726 46.9267 142.779 46.9431 142.826C46.9569 142.866 46.9807 142.902 47.0138 142.926C47.0478 142.949 47.0881 142.957 47.1287 142.954C47.2072 142.948 47.2725 142.895 47.3206 142.829C47.3516 142.868 47.3823 142.908 47.413 142.948C47.3751 143.003 47.3277 143.05 47.2727 143.084C47.2194 143.117 47.1602 143.136 47.0998 143.141C47.0322 143.147 46.9649 143.133 46.9082 143.094L46.9084 143.093Z" fill="white"/>
</g>
<g id="Group_88">
<path id="Vector_73" d="M47.641 143.031C47.5854 142.993 47.5452 142.935 47.5216 142.869C47.4941 142.793 47.489 142.709 47.4979 142.627C47.5072 142.54 47.5324 142.455 47.5745 142.379C47.6143 142.308 47.6676 142.245 47.7321 142.199C47.7946 142.154 47.8656 142.127 47.9392 142.12C48.0066 142.113 48.0743 142.125 48.1321 142.161C48.1874 142.196 48.2279 142.251 48.2519 142.315C48.2799 142.39 48.2838 142.473 48.2745 142.554C48.2643 142.642 48.2376 142.728 48.1955 142.806C48.1554 142.879 48.1019 142.944 48.0374 142.994C47.9763 143.04 47.9059 143.069 47.8326 143.076C47.765 143.082 47.698 143.069 47.641 143.031ZM47.9713 142.841C48.0094 142.811 48.0398 142.771 48.0627 142.727C48.0882 142.678 48.103 142.625 48.1092 142.57C48.115 142.52 48.1132 142.468 48.0976 142.42C48.0847 142.381 48.0621 142.347 48.0295 142.324C47.9972 142.302 47.9587 142.294 47.92 142.298C47.8778 142.302 47.8372 142.319 47.8022 142.346C47.7641 142.374 47.7337 142.413 47.7108 142.457C47.6859 142.505 47.671 142.558 47.665 142.612C47.6595 142.663 47.6615 142.715 47.6773 142.763C47.6904 142.803 47.7128 142.838 47.7451 142.862C47.777 142.885 47.8153 142.894 47.8539 142.89C47.8963 142.886 47.9365 142.868 47.9713 142.841Z" fill="white"/>
</g>
<g id="Group_89">
<path id="Vector_74" d="M48.9726 142.945C48.9964 142.757 49.0199 142.569 49.0428 142.382C48.955 142.543 48.8678 142.705 48.781 142.866C48.7568 142.869 48.7327 142.872 48.7086 142.874C48.6603 142.731 48.6104 142.588 48.559 142.445C48.5373 142.629 48.5152 142.812 48.4927 142.995C48.4423 143 48.3919 143.005 48.3415 143.011C48.379 142.702 48.4152 142.393 48.4501 142.084C48.4952 142.079 48.54 142.075 48.5851 142.07C48.6522 142.25 48.7171 142.431 48.7795 142.613C48.8877 142.412 48.9965 142.212 49.106 142.013C49.1501 142.008 49.1942 142.003 49.2383 141.998C49.201 142.308 49.1623 142.618 49.1223 142.927C49.0726 142.933 49.0228 142.938 48.9731 142.944L48.9726 142.945Z" fill="white"/>
</g>
<g id="Group_90">
<path id="Vector_75" d="M48.9241 139.8C48.8023 139.974 48.6389 140.124 48.4495 140.2C48.3662 140.233 48.2791 140.256 48.191 140.262C48.089 140.268 47.9875 140.25 47.8953 140.205C47.8483 140.185 47.8037 140.158 47.7625 140.126C47.6318 140.026 47.5398 139.874 47.4967 139.706C47.4703 139.603 47.462 139.494 47.4697 139.385C47.5018 138.937 47.8093 138.513 48.2124 138.384C48.2645 138.368 48.318 138.356 48.3718 138.351C48.3853 138.349 48.3989 138.35 48.4125 138.349C48.4193 138.348 48.4263 138.348 48.4332 138.348C48.46 138.347 48.487 138.348 48.5137 138.351C48.681 138.363 48.8488 138.436 48.9511 138.581C48.9727 138.607 48.9923 138.635 49.0099 138.664C49.2063 138.435 49.402 138.205 49.5965 137.973C49.5965 137.973 49.5959 137.973 49.5955 137.972C49.5367 137.89 49.4692 137.814 49.3945 137.748C49.3352 137.696 49.2716 137.65 49.2042 137.61C48.9682 137.471 48.6938 137.419 48.4222 137.448C48.3799 137.452 48.338 137.46 48.2963 137.469C48.2074 137.488 48.1199 137.515 48.0346 137.55C47.8732 137.614 47.7184 137.698 47.5755 137.804C47.5646 137.813 47.5533 137.821 47.5428 137.83C47.5201 137.847 47.4989 137.866 47.4769 137.884C47.1296 138.185 46.8696 138.607 46.7546 139.07C46.7496 139.091 46.745 139.113 46.7402 139.134C46.7348 139.16 46.7294 139.186 46.725 139.213C46.6867 139.445 46.6896 139.683 46.7268 139.913C46.771 140.185 46.8643 140.447 47.0216 140.662C47.0298 140.673 47.0373 140.684 47.0455 140.694C47.0624 140.715 47.0803 140.736 47.0985 140.756C47.1176 140.777 47.1369 140.799 47.1572 140.819C47.1684 140.831 47.1804 140.841 47.1922 140.851C47.219 140.876 47.2461 140.9 47.2749 140.923C47.2816 140.928 47.2889 140.933 47.2957 140.938C47.5381 141.118 47.8342 141.199 48.1325 141.169C48.1856 141.164 48.2386 141.155 48.2911 141.144C48.2931 141.143 48.2951 141.143 48.297 141.142C48.3485 141.131 48.3995 141.116 48.4498 141.099L48.4509 141.099C48.8213 140.971 49.1444 140.698 49.3873 140.369C49.2344 140.178 49.0792 139.99 48.9223 139.803L48.9241 139.8Z" fill="#F05123"/>
</g>
</g>
</g>
</g>
</g>
</g>
</g>
</g>
</g>
</g>
</g>
</g>
</g>
<g id="Group_91">
<path id="Vector_76" fill-rule="evenodd" clip-rule="evenodd" d="M100.455 79.6988C101.925 79.9589 101.353 83.7166 100.321 85.613C98.9167 88.1921 96.7977 89.8884 94.9217 89.2679C93.0457 88.6473 93.6435 86.4492 95.1298 83.7821C95.932 82.3424 98.9853 79.4387 100.455 79.6988Z" fill="black"/>
<g id="Clip path group_10">
<mask id="mask9_6150_939" style="mask-type:luminance" maskUnits="userSpaceOnUse" x="93" y="79" width="9" height="11">
<g id="_clip49">
<path id="Vector_77" d="M100.455 79.6988C101.925 79.9589 101.353 83.7166 100.321 85.613C98.9167 88.1921 96.7977 89.8884 94.9217 89.2679C93.0457 88.6473 93.6435 86.4492 95.1298 83.7821C95.932 82.3424 98.9853 79.4387 100.455 79.6988Z" fill="white"/>
</g>
</mask>
<g mask="url(#mask9_6150_939)">
<g id="Group_92">
<g id="Group_93">
<path id="Vector_78" d="M93.9913 92.2782C96.5561 92.2782 98.6352 90.2957 98.6352 87.8502C98.6352 85.4046 96.5561 83.4221 93.9913 83.4221C91.4266 83.4221 89.3474 85.4046 89.3474 87.8502C89.3474 90.2957 91.4266 92.2782 93.9913 92.2782Z" fill="url(#paint39_linear_6150_939)"/>
</g>
</g>
</g>
</g>
</g>
<g id="Group_94">
<g id="Group_95">
<path id="Vector_79" fill-rule="evenodd" clip-rule="evenodd" d="M119.62 9.16298L120.52 23.2703C120.52 23.2703 117.282 24.888 106.029 23.7243C93.2243 22.4001 86.4379 15.9154 86.4379 15.9154L91.5164 4.8618L119.62 9.16298Z" fill="url(#paint40_radial_6150_939)"/>
</g>
<g id="Group_96">
<path id="Vector_80" d="M105.152 9.84084C97.3801 8.71295 91.2563 6.58079 91.4743 5.07855C91.6923 3.57632 98.1695 3.27286 105.942 4.40075C113.714 5.52865 119.838 7.66079 119.62 9.16303C119.402 10.6653 112.924 10.9687 105.152 9.84084Z" fill="url(#paint41_radial_6150_939)"/>
</g>
<g id="Group_97">
<path id="Vector_81" fill-rule="evenodd" clip-rule="evenodd" d="M109.465 21.1836C109.254 21.1677 109.044 21.1408 108.833 21.1207C108.563 21.0938 108.303 20.9659 108.125 20.7668C107.927 20.5536 107.834 20.2595 107.865 19.978C107.9 19.6432 107.943 19.3096 107.973 18.9742C107.613 18.9342 107.253 18.8998 106.892 18.8604C106.646 18.8315 106.412 18.714 106.244 18.5387C106.075 18.3666 105.971 18.1375 105.957 17.9025C105.95 17.8064 105.963 17.711 105.973 17.6159C106.016 17.203 106.059 16.7902 106.102 16.3774C106.129 16.1208 106.263 15.8768 106.469 15.7125C106.646 15.5665 106.876 15.4802 107.111 15.4729C107.217 15.4685 107.322 15.4845 107.427 15.4946C107.726 15.5252 108.026 15.5582 108.325 15.5873C108.357 15.3057 108.384 15.0237 108.414 14.7419C108.427 14.6311 108.432 14.5184 108.463 14.4104C108.522 14.1944 108.659 14 108.845 13.8668C109.063 13.7049 109.35 13.6348 109.624 13.67C109.966 13.7088 110.309 13.7363 110.652 13.7727C110.801 13.791 110.953 13.7976 111.101 13.8254C111.361 13.8731 111.601 14.0183 111.758 14.2241C111.916 14.4261 111.992 14.6839 111.967 14.9338C111.933 15.2736 111.896 15.6131 111.862 15.9529C112.227 15.9917 112.593 16.0264 112.958 16.0663C113.195 16.1008 113.421 16.2103 113.585 16.3799C113.797 16.5927 113.906 16.8949 113.877 17.1865C113.839 17.5462 113.802 17.9059 113.765 18.2657C113.741 18.4612 113.741 18.6645 113.654 18.8466C113.485 19.2359 113.046 19.4934 112.605 19.4586C112.24 19.422 111.876 19.3823 111.511 19.3456C111.474 19.69 111.439 20.0346 111.403 20.379C111.373 20.6079 111.261 20.8258 111.087 20.9848C110.864 21.1962 110.538 21.3011 110.225 21.2647C109.971 21.2367 109.717 21.2147 109.465 21.1836Z" fill="#E83719"/>
</g>
</g>
<g id="Group_98">
<path id="Vector_82" fill-rule="evenodd" clip-rule="evenodd" d="M96.0401 47.6034C95.334 48.0505 94.8425 47.3302 93.9383 47.3803C92.9983 47.4325 92.3904 47.9086 91.712 47.6561C90.59 47.2389 90.2785 45.9645 90.8881 45.1406C91.4534 44.3768 92.4645 44.2547 93.5804 44.2026C94.8479 44.1427 95.3347 44.539 96.0625 45.0134C96.8793 45.5459 97.4215 46.7298 96.0401 47.6034Z" fill="black"/>
</g>
<g id="Group_99">
<path id="Vector_83" fill-rule="evenodd" clip-rule="evenodd" d="M118.041 34.1263C118.695 34.6467 119.261 33.9835 120.154 34.1306C121.083 34.2836 121.636 34.8222 122.338 34.6441C123.498 34.35 123.945 33.1165 123.428 32.2319C122.948 31.4117 121.956 31.1816 120.852 31.0097C119.598 30.8139 119.072 31.1555 118.297 31.5489C117.428 31.9905 116.761 33.1092 118.041 34.1263Z" fill="black"/>
</g>
</g>
</g>
</g>
</g>
</g>
</g>
<defs>
<linearGradient id="paint0_linear_6150_939" x1="94.5151" y1="114.793" x2="109.603" y2="104.306" gradientUnits="userSpaceOnUse">
<stop stop-color="#C6D6EF"/>
<stop offset="0.33" stop-color="#F2F6FB"/>
<stop offset="0.72" stop-color="white"/>
<stop offset="0.85" stop-color="#EFF4FB"/>
<stop offset="1" stop-color="#C6D6EF"/>
</linearGradient>
<radialGradient id="paint1_radial_6150_939" cx="0" cy="0" r="1" gradientUnits="userSpaceOnUse" gradientTransform="translate(114.297 119.753) rotate(100.894) scale(16.9758 11.9692)">
<stop stop-color="white"/>
<stop offset="0.53" stop-color="#F2F6FB"/>
<stop offset="1" stop-color="#C6D6EF"/>
</radialGradient>
<linearGradient id="paint2_linear_6150_939" x1="34.1574" y1="118.145" x2="54.6096" y2="88.5971" gradientUnits="userSpaceOnUse">
<stop stop-color="#10509F"/>
<stop offset="0.09" stop-color="#125EB1"/>
<stop offset="0.19" stop-color="#146CC4"/>
<stop offset="0.46" stop-color="#1573CD"/>
<stop offset="0.74" stop-color="#146BC2"/>
<stop offset="1" stop-color="#10509F"/>
</linearGradient>
<radialGradient id="paint3_radial_6150_939" cx="0" cy="0" r="1" gradientUnits="userSpaceOnUse" gradientTransform="translate(72.4919 107.743) rotate(41.7701) scale(27.0649 40.0024)">
<stop stop-color="white"/>
<stop offset="0.55" stop-color="#F3F6FC"/>
<stop offset="1" stop-color="#C6D6EF"/>
</radialGradient>
<linearGradient id="paint4_linear_6150_939" x1="83.3999" y1="102.533" x2="87.1143" y2="88.7235" gradientUnits="userSpaceOnUse">
<stop stop-color="white"/>
<stop offset="0.45" stop-color="#DBE0EA"/>
<stop offset="1" stop-color="#8295B5"/>
</linearGradient>
<linearGradient id="paint5_linear_6150_939" x1="83.3999" y1="102.532" x2="87.1143" y2="88.7233" gradientUnits="userSpaceOnUse">
<stop stop-color="white"/>
<stop offset="0.45" stop-color="#DBE0EA"/>
<stop offset="1" stop-color="#8295B5"/>
</linearGradient>
<linearGradient id="paint6_linear_6150_939" x1="87.3464" y1="102.851" x2="89.4062" y2="95.2764" gradientUnits="userSpaceOnUse">
<stop stop-color="#FF9036"/>
<stop offset="1" stop-color="#F26F21"/>
</linearGradient>
<linearGradient id="paint7_linear_6150_939" x1="82.8147" y1="102.3" x2="90.8845" y2="106.3" gradientUnits="userSpaceOnUse">
<stop stop-color="#2EA0ED"/>
<stop offset="0.55" stop-color="#2892E3"/>
<stop offset="1" stop-color="#135FC0"/>
</linearGradient>
<linearGradient id="paint8_linear_6150_939" x1="77.9821" y1="45.8491" x2="69.6156" y2="88.9242" gradientUnits="userSpaceOnUse">
<stop stop-color="#F26F21"/>
<stop offset="1" stop-color="#DB4C15"/>
</linearGradient>
<radialGradient id="paint9_radial_6150_939" cx="0" cy="0" r="1" gradientUnits="userSpaceOnUse" gradientTransform="translate(111.535 56.2191) rotate(-165.328) scale(43.2849 46.3535)">
<stop stop-color="#FFBF67"/>
<stop offset="0.58" stop-color="#FFB65E"/>
<stop offset="0.8" stop-color="#FFA34A"/>
<stop offset="1" stop-color="#FF9036"/>
</radialGradient>
<radialGradient id="paint10_radial_6150_939" cx="0" cy="0" r="1" gradientUnits="userSpaceOnUse" gradientTransform="translate(58.7405 105.796) rotate(-169.089) scale(8.69899 21.4733)">
<stop stop-color="white"/>
<stop offset="0.61" stop-color="#F5F8FC"/>
<stop offset="0.82" stop-color="#DEE7F6"/>
<stop offset="1" stop-color="#C6D6EF"/>
</radialGradient>
<linearGradient id="paint11_linear_6150_939" x1="81.7399" y1="114.445" x2="85.9325" y2="107.178" gradientUnits="userSpaceOnUse">
<stop stop-color="#FF9036"/>
<stop offset="1" stop-color="#FFBF67"/>
</linearGradient>
<linearGradient id="paint12_linear_6150_939" x1="79.7558" y1="110.375" x2="85.0941" y2="107.475" gradientUnits="userSpaceOnUse">
<stop stop-color="#F26F21"/>
<stop offset="1" stop-color="#FFBF67" stop-opacity="0"/>
</linearGradient>
<linearGradient id="paint13_linear_6150_939" x1="54.8763" y1="86.8192" x2="70.3601" y2="100.527" gradientUnits="userSpaceOnUse">
<stop stop-color="#2EA0ED"/>
<stop offset="0.26" stop-color="#1C7FD5"/>
<stop offset="0.5" stop-color="#1573CD"/>
<stop offset="0.74" stop-color="#1469C0"/>
<stop offset="1" stop-color="#10509F"/>
</linearGradient>
<radialGradient id="paint14_radial_6150_939" cx="0" cy="0" r="1" gradientUnits="userSpaceOnUse" gradientTransform="translate(74.4151 111.27) rotate(156.184) scale(29.0695 11.9637)">
<stop stop-color="white"/>
<stop offset="0.59" stop-color="#F5F7FC"/>
<stop offset="0.81" stop-color="#DEE7F6"/>
<stop offset="1" stop-color="#C6D6EF"/>
</radialGradient>
<linearGradient id="paint15_linear_6150_939" x1="93.2445" y1="157.425" x2="104.574" y2="148.153" gradientUnits="userSpaceOnUse">
<stop stop-color="#FF9036"/>
<stop offset="1" stop-color="#FFBF67"/>
</linearGradient>
<linearGradient id="paint16_linear_6150_939" x1="67.9063" y1="157.805" x2="78.8292" y2="145.26" gradientUnits="userSpaceOnUse">
<stop stop-color="#FF9036"/>
<stop offset="1" stop-color="#FFBF67"/>
</linearGradient>
<linearGradient id="paint17_linear_6150_939" x1="81.9973" y1="148.424" x2="81.9973" y2="142.997" gradientUnits="userSpaceOnUse">
<stop stop-color="#FFBF67" stop-opacity="0"/>
<stop offset="1" stop-color="#F26F21"/>
</linearGradient>
<linearGradient id="paint18_linear_6150_939" x1="81.9974" y1="148.425" x2="81.9974" y2="142.998" gradientUnits="userSpaceOnUse">
<stop stop-color="#FFBF67" stop-opacity="0"/>
<stop offset="1" stop-color="#F26F21"/>
</linearGradient>
<linearGradient id="paint19_linear_6150_939" x1="103.888" y1="127.043" x2="84.3115" y2="131.855" gradientUnits="userSpaceOnUse">
<stop stop-color="#002468"/>
<stop offset="0.54" stop-color="#001F5A"/>
<stop offset="1" stop-color="#000F2A"/>
</linearGradient>
<linearGradient id="paint20_linear_6150_939" x1="85.1784" y1="127.043" x2="58.7403" y2="137.039" gradientUnits="userSpaceOnUse">
<stop stop-color="#002468"/>
<stop offset="0.59" stop-color="#00205D"/>
<stop offset="0.81" stop-color="#001844"/>
<stop offset="1" stop-color="#000F2A"/>
</linearGradient>
<linearGradient id="paint21_linear_6150_939" x1="119.357" y1="90.982" x2="123.611" y2="91.9506" gradientUnits="userSpaceOnUse">
<stop stop-color="#135FC0"/>
<stop offset="0.38" stop-color="#278EE1"/>
<stop offset="0.74" stop-color="#2E9FED"/>
<stop offset="1" stop-color="#135FC0"/>
</linearGradient>
<linearGradient id="paint22_linear_6150_939" x1="116.112" y1="115.988" x2="119.566" y2="101.556" gradientUnits="userSpaceOnUse">
<stop stop-color="#FF9036"/>
<stop offset="1" stop-color="#FFBF67"/>
</linearGradient>
<linearGradient id="paint23_linear_6150_939" x1="116.112" y1="115.988" x2="119.566" y2="101.556" gradientUnits="userSpaceOnUse">
<stop stop-color="#FF9036"/>
<stop offset="1" stop-color="#FFBF67"/>
</linearGradient>
<radialGradient id="paint24_radial_6150_939" cx="0" cy="0" r="1" gradientUnits="userSpaceOnUse" gradientTransform="translate(120.694 104.422) rotate(-139.818) scale(15.0235 11.3587)">
<stop stop-color="#FF9036" stop-opacity="0"/>
<stop offset="0.62" stop-color="#FD8B33" stop-opacity="0.16"/>
<stop offset="0.82" stop-color="#F87E2A" stop-opacity="0.56"/>
<stop offset="1" stop-color="#F26F21"/>
</radialGradient>
<radialGradient id="paint25_radial_6150_939" cx="0" cy="0" r="1" gradientUnits="userSpaceOnUse" gradientTransform="translate(120.694 104.422) rotate(-139.818) scale(15.0235 11.3587)">
<stop stop-color="#FF9036" stop-opacity="0"/>
<stop offset="0.62" stop-color="#FD8B33" stop-opacity="0.16"/>
<stop offset="0.82" stop-color="#F87E2A" stop-opacity="0.56"/>
<stop offset="1" stop-color="#F26F21"/>
</radialGradient>
<linearGradient id="paint26_linear_6150_939" x1="100.438" y1="71.3763" x2="102.773" y2="51.6534" gradientUnits="userSpaceOnUse">
<stop stop-color="#FD9E48"/>
<stop offset="0.45" stop-color="#F99644"/>
<stop offset="1" stop-color="#EE8239"/>
</linearGradient>
<linearGradient id="paint27_linear_6150_939" x1="118.226" y1="42.3742" x2="112.79" y2="82.6707" gradientUnits="userSpaceOnUse">
<stop stop-color="#135FC0"/>
<stop offset="0.55" stop-color="#0F51AB"/>
<stop offset="1" stop-color="#021E59"/>
</linearGradient>
<linearGradient id="paint28_linear_6150_939" x1="124.408" y1="80.8509" x2="131.946" y2="45.5963" gradientUnits="userSpaceOnUse">
<stop stop-color="#FD9E48"/>
<stop offset="0.55" stop-color="#FA9845"/>
<stop offset="1" stop-color="#EE8239"/>
</linearGradient>
<linearGradient id="paint29_linear_6150_939" x1="126.965" y1="64.3474" x2="130.854" y2="54.2155" gradientUnits="userSpaceOnUse">
<stop stop-color="white"/>
<stop offset="0.56" stop-color="#F7FAFD"/>
<stop offset="1" stop-color="#D8E5F5"/>
</linearGradient>
<radialGradient id="paint30_radial_6150_939" cx="0" cy="0" r="1" gradientUnits="userSpaceOnUse" gradientTransform="translate(36.7162 138.491) rotate(-13.8061) scale(26.5809 16.418)">
<stop stop-color="#021E59"/>
<stop offset="0.53" stop-color="#062D71"/>
<stop offset="1" stop-color="#135FC0"/>
</radialGradient>
<radialGradient id="paint31_radial_6150_939" cx="0" cy="0" r="1" gradientUnits="userSpaceOnUse" gradientTransform="translate(40.2995 130.215) rotate(-1.1966) scale(22.7726 17.1616)">
<stop stop-color="#2E9FED"/>
<stop offset="0.5" stop-color="#278FE2"/>
<stop offset="1" stop-color="#135FC0"/>
</radialGradient>
<linearGradient id="paint32_linear_6150_939" x1="66.6804" y1="136.381" x2="17.8775" y2="128.019" gradientUnits="userSpaceOnUse">
<stop stop-color="white"/>
<stop offset="0.57" stop-color="#F6F8FC"/>
<stop offset="0.79" stop-color="#E3EBF7"/>
<stop offset="1" stop-color="#D1DEF2"/>
</linearGradient>
<linearGradient id="paint33_linear_6150_939" x1="66.6793" y1="136.381" x2="17.8764" y2="128.018" gradientUnits="userSpaceOnUse">
<stop stop-color="white"/>
<stop offset="0.57" stop-color="#F6F8FC"/>
<stop offset="0.79" stop-color="#E3EBF7"/>
<stop offset="1" stop-color="#D1DEF2"/>
</linearGradient>
<linearGradient id="paint34_linear_6150_939" x1="51.3306" y1="141.883" x2="39.8859" y2="138.18" gradientUnits="userSpaceOnUse">
<stop stop-color="#EFD03D"/>
<stop offset="0.43" stop-color="#EFD03D"/>
<stop offset="0.65" stop-color="#F05123"/>
<stop offset="1" stop-color="#F05123"/>
</linearGradient>
<linearGradient id="paint35_linear_6150_939" x1="44.1781" y1="139.061" x2="39.1961" y2="137.291" gradientUnits="userSpaceOnUse">
<stop stop-color="#EFD03D"/>
<stop offset="0.6" stop-color="#F1822B"/>
<stop offset="1" stop-color="#F1822B"/>
</linearGradient>
<linearGradient id="paint36_linear_6150_939" x1="40.7834" y1="137.134" x2="44.453" y2="139.476" gradientUnits="userSpaceOnUse">
<stop stop-color="white"/>
<stop offset="1" stop-color="#E4E4E4"/>
</linearGradient>
<linearGradient id="paint37_linear_6150_939" x1="40.6783" y1="135.98" x2="43.9655" y2="139.309" gradientUnits="userSpaceOnUse">
<stop stop-color="white"/>
<stop offset="1" stop-color="#D9D9D8"/>
</linearGradient>
<linearGradient id="paint38_linear_6150_939" x1="52.6388" y1="145.868" x2="42.1032" y2="139.881" gradientUnits="userSpaceOnUse">
<stop stop-color="#EFD03D"/>
<stop offset="0.21" stop-color="#EFD03D"/>
<stop offset="0.61" stop-color="#F05123"/>
<stop offset="1" stop-color="#F05123"/>
</linearGradient>
<linearGradient id="paint39_linear_6150_939" x1="94.9129" y1="87.8502" x2="97.5136" y2="85.1504" gradientUnits="userSpaceOnUse">
<stop stop-color="#E23E2D"/>
<stop offset="1" stop-color="#FE6343"/>
</linearGradient>
<radialGradient id="paint40_radial_6150_939" cx="0" cy="0" r="1" gradientUnits="userSpaceOnUse" gradientTransform="translate(108.517 17.1548) rotate(-165.49) scale(24.1433 11.9547)">
<stop stop-color="white"/>
<stop offset="0.48" stop-color="#F0F4FB"/>
<stop offset="1" stop-color="#C6D6EF"/>
</radialGradient>
<radialGradient id="paint41_radial_6150_939" cx="0" cy="0" r="1" gradientUnits="userSpaceOnUse" gradientTransform="translate(105.984 7.29951) rotate(7.82741) scale(15.6346 3.8244)">
<stop stop-color="white"/>
<stop offset="0.54" stop-color="#F3F6FC"/>
<stop offset="1" stop-color="#C6D6EF"/>
</radialGradient>
</defs>
</svg>
