<svg width="385" height="24" viewBox="0 0 385 24" fill="none"
    xmlns="http://www.w3.org/2000/svg">
    <path fill-rule="evenodd" clip-rule="evenodd" d="M0.359131 0H384.359V15.25C384.359 17.8112 384.359 19.0917 383.975 20.1135C383.366 21.7306 382.09 23.0068 380.473 23.6154C379.451 24 378.17 24 375.609 24C373.909 24 373.059 24 372.49 23.8888C370.794 23.5578 371.393 23.8255 370.016 22.7819C369.553 22.4314 367.638 20.2894 363.808 16.0053C361.611 13.5472 358.416 12 354.859 12C350.317 12 346.364 14.524 344.326 18.2462C342.735 21.1529 340.173 24 336.859 24C333.545 24 330.983 21.1529 329.392 18.2462C327.355 14.524 323.402 12 318.859 12C314.317 12 310.364 14.524 308.326 18.2462C306.735 21.1529 304.173 24 300.859 24C297.545 24 294.983 21.1529 293.392 18.2462C291.355 14.524 287.402 12 282.859 12C278.317 12 274.364 14.524 272.326 18.2462C270.735 21.1529 268.173 24 264.859 24C261.545 24 258.983 21.1529 257.392 18.2462C255.355 14.524 251.402 12 246.859 12C242.317 12 238.364 14.524 236.326 18.2462C234.735 21.1529 232.173 24 228.859 24C225.545 24 222.983 21.1529 221.392 18.2462C219.355 14.524 215.402 12 210.859 12C206.317 12 202.364 14.524 200.326 18.2462C198.735 21.1529 196.173 24 192.859 24C189.545 24 186.983 21.1529 185.392 18.2462C183.355 14.524 179.402 12 174.859 12C170.317 12 166.364 14.524 164.326 18.2462C162.735 21.1529 160.173 24 156.859 24C153.545 24 150.983 21.1529 149.392 18.2462C147.355 14.524 143.402 12 138.859 12C134.317 12 130.364 14.524 128.326 18.2462C126.735 21.1529 124.173 24 120.859 24C117.545 24 114.983 21.1529 113.392 18.2462C111.355 14.524 107.402 12 102.859 12C98.3166 12 94.3635 14.524 92.326 18.2462C90.7348 21.1529 88.1728 24 84.8591 24C81.5454 24 78.9835 21.1529 77.3923 18.2462C75.3547 14.524 71.4017 12 66.8591 12C62.3166 12 58.3635 14.524 56.326 18.2462C54.7348 21.1529 52.1728 24 48.8591 24C45.5454 24 42.9835 21.1529 41.3923 18.2462C39.3547 14.524 35.4017 12 30.8591 12C27.4824 12 24.4315 13.3947 22.2509 15.6395C17.7117 20.3123 15.4421 22.6487 14.8975 23.008C13.6826 23.8097 14.3044 23.5469 12.8827 23.8598C12.2455 24 11.3667 24 9.60913 24C6.57855 24 5.06325 24 3.88289 23.4652C2.55699 22.8644 1.4947 21.8021 0.893948 20.4762C0.359131 19.2959 0.359131 17.7806 0.359131 14.75V0Z" fill="white" />
</svg>