<svg width="328" height="177" viewBox="0 0 328 177" fill="none"
    xmlns="http://www.w3.org/2000/svg">
    <mask id="mask0_5475_375167" style="mask-type:alpha" maskUnits="userSpaceOnUse" x="6" y="0" width="315" height="177">
        <rect x="6.5" width="314" height="176.627" fill="#D9D9D9"/>
    </mask>
    <g mask="url(#mask0_5475_375167)">
        <mask id="mask1_5475_375167" style="mask-type:alpha" maskUnits="userSpaceOnUse" x="200" y="68" width="160" height="108">
            <rect x="200.555" y="68.0762" width="158.854" height="107.884" fill="url(#paint0_linear_5475_375167)"/>
        </mask>
        <g mask="url(#mask1_5475_375167)">
            <path d="M237.474 103.987C237.474 103.987 236.02 107.034 237.107 108.434C238.194 109.835 240.43 107.25 241.865 105.66C245.507 111.841 245.177 107.613 245.157 105.636C246.435 107.61 247.004 108.176 250.039 109.414C247.633 101.9 246.822 97.7191 243.243 98.4393C241.142 98.869 236.61 100.88 230.948 105.925C232.511 106.219 235.471 104.69 237.474 103.987Z" fill="url(#paint1_linear_5475_375167)"/>
            <path d="M210.497 134.215C245.07 138.712 345.991 157.51 345.991 157.51C256.428 138.29 255.899 125.512 251.883 114.704C251.169 112.776 250.564 111.008 250.05 109.361C247.008 108.155 246.439 107.59 245.168 105.583C245.188 107.56 245.514 111.801 241.875 105.607C240.441 107.197 238.205 109.782 237.118 108.381C236.031 106.981 237.484 103.934 237.484 103.934C235.477 104.657 232.518 106.186 230.966 105.839C224.906 111.277 217.551 120.136 210.497 134.215Z" fill="url(#paint2_linear_5475_375167)"/>
            <path d="M210.497 134.215C245.07 138.712 345.991 157.51 345.991 157.51C256.428 138.29 255.899 125.512 251.883 114.704C251.169 112.776 250.564 111.008 250.05 109.361C247.008 108.155 246.439 107.59 245.168 105.583C245.188 107.56 245.514 111.801 241.875 105.607C240.441 107.197 238.205 109.782 237.118 108.381C236.031 106.981 237.484 103.934 237.484 103.934C235.477 104.657 232.518 106.186 230.966 105.839C224.906 111.277 217.551 120.136 210.497 134.215Z" fill="url(#paint3_linear_5475_375167)"/>
            <path d="M211.172 124.465C211.529 128.08 211.823 131.214 212.645 131.973C211.172 133.018 208.646 131.787 208.646 131.787C209.29 130.076 210.057 129.411 209.94 124.558C209.824 119.705 211.172 124.465 211.172 124.465Z" fill="#CBCAE0"/>
            <path d="M205.171 110.123C206.233 109.837 206.721 108.157 207.178 108.243C207.635 108.328 206.31 109.651 207.341 110.425C208.371 111.199 208.976 108.924 209.557 108.8C210.138 108.676 209.557 110.681 210.556 111.47C211.556 112.26 211.408 110.007 211.99 109.512C212.571 109.017 212.865 112.685 214.213 112.561C215.562 112.438 213.624 109.93 214.213 109.551C214.438 109.396 214.895 109.713 215.445 110.162C215.298 109.798 215.143 109.388 214.996 109.001C214.058 106.315 213.067 103.459 209.076 105.967C207.519 107.089 206.194 108.5 205.171 110.123Z" fill="url(#paint4_linear_5475_375167)"/>
            <path d="M202.806 123.505C204.944 125.564 213.281 125.703 213.281 125.703C218.031 125.773 220.991 122.747 218.992 117.863C217.303 113.73 216.311 112.159 215.451 110.123C214.901 109.674 214.444 109.349 214.219 109.512C213.63 109.891 215.559 112.399 214.219 112.523C212.878 112.647 212.584 108.978 211.995 109.473C211.406 109.969 211.569 112.229 210.562 111.431C209.554 110.634 210.151 108.63 209.562 108.761C208.973 108.893 208.384 111.199 207.338 110.425C206.292 109.651 207.664 108.351 207.176 108.25C206.688 108.15 206.23 109.845 205.169 110.131C202.201 114.481 199.978 120.719 202.806 123.505Z" fill="url(#paint5_linear_5475_375167)"/>
            <path d="M202.806 123.505C204.944 125.564 213.281 125.703 213.281 125.703C218.031 125.773 220.991 122.747 218.992 117.863C217.303 113.73 216.311 112.159 215.451 110.123C214.901 109.674 214.444 109.349 214.219 109.512C213.63 109.891 215.559 112.399 214.219 112.523C212.878 112.647 212.584 108.978 211.995 109.473C211.406 109.969 211.569 112.229 210.562 111.431C209.554 110.634 210.151 108.63 209.562 108.761C208.973 108.893 208.384 111.199 207.338 110.425C206.292 109.651 207.664 108.351 207.176 108.25C206.688 108.15 206.23 109.845 205.169 110.131C202.201 114.481 199.978 120.719 202.806 123.505Z" fill="url(#paint6_linear_5475_375167)"/>
        </g>
        <mask id="mask2_5475_375167" style="mask-type:alpha" maskUnits="userSpaceOnUse" x="63" y="76" width="138" height="94">
            <rect x="63.5" y="76" width="137.146" height="93.1422" fill="url(#paint7_linear_5475_375167)"/>
        </mask>
        <g mask="url(#mask2_5475_375167)">
            <path d="M84.7953 113.912C84.7953 113.912 84.4175 116.802 85.6843 117.661C86.9511 118.52 88.0948 115.799 88.8471 114.11C93.4905 118.21 92.0886 114.827 91.5433 113.21C93.1205 114.488 93.7389 114.801 96.5616 115.005C92.5763 109.481 90.7916 106.266 88.0469 107.815C86.4369 108.73 83.2547 111.593 79.9572 117.249C81.3193 117.072 83.3394 115.025 84.7953 113.912Z" fill="url(#paint8_linear_5475_375167)"/>
            <path d="M70.7393 145.943C100.322 140.385 188.192 128.813 188.192 128.813C109.532 136.999 105.679 126.652 99.4905 118.855C98.3886 117.463 97.4192 116.173 96.5563 114.959C93.7365 114.784 93.1182 114.471 91.5379 113.164C92.0832 114.782 93.4863 118.176 88.8417 114.065C88.0895 115.754 86.9457 118.474 85.6789 117.615C84.4121 116.756 84.79 113.867 84.79 113.867C83.3358 114.997 81.3157 117.044 79.9489 117.175C76.4292 123.259 72.7623 132.499 70.7393 145.943Z" fill="url(#paint9_linear_5475_375167)"/>
            <path d="M70.7393 145.943C100.322 140.385 188.192 128.813 188.192 128.813C109.532 136.999 105.679 126.652 99.4905 118.855C98.3886 117.463 97.4192 116.173 96.5563 114.959C93.7365 114.784 93.1182 114.471 91.5379 113.164C92.0832 114.782 93.4863 118.176 88.8417 114.065C88.0895 115.754 86.9457 118.474 85.6789 117.615C84.4121 116.756 84.79 113.867 84.79 113.867C83.3358 114.997 81.3157 117.044 79.9489 117.175C76.4292 123.259 72.7623 132.499 70.7393 145.943Z" fill="url(#paint10_linear_5475_375167)"/>
            <path d="M108.38 125.843C108.635 128.435 108.847 130.683 109.436 131.227C108.38 131.976 106.569 131.094 106.569 131.094C107.03 129.867 107.58 129.39 107.496 125.91C107.413 122.43 108.38 125.843 108.38 125.843Z" fill="#CBCAE0"/>
            <path d="M104.078 115.559C104.839 115.353 105.189 114.149 105.517 114.21C105.845 114.271 104.895 115.22 105.633 115.775C106.372 116.33 106.806 114.698 107.223 114.61C107.639 114.521 107.223 115.958 107.939 116.524C108.656 117.091 108.551 115.475 108.967 115.12C109.384 114.765 109.595 117.396 110.562 117.307C111.529 117.218 110.14 115.42 110.562 115.148C110.723 115.037 111.051 115.265 111.445 115.586C111.34 115.326 111.229 115.031 111.123 114.754C110.451 112.828 109.74 110.78 106.878 112.578C105.762 113.383 104.811 114.395 104.078 115.559Z" fill="url(#paint11_linear_5475_375167)"/>
            <path d="M102.378 125.155C103.912 126.631 109.89 126.731 109.89 126.731C113.296 126.781 115.419 124.611 113.985 121.109C112.774 118.145 112.063 117.019 111.446 115.559C111.052 115.237 110.724 115.004 110.563 115.121C110.14 115.393 111.524 117.191 110.563 117.28C109.601 117.368 109.39 114.738 108.968 115.093C108.546 115.448 108.662 117.069 107.94 116.497C107.218 115.925 107.646 114.488 107.223 114.582C106.801 114.677 106.379 116.331 105.629 115.776C104.879 115.221 105.862 114.288 105.512 114.216C105.162 114.144 104.834 115.359 104.073 115.565C101.945 118.684 100.35 123.157 102.378 125.155Z" fill="url(#paint12_linear_5475_375167)"/>
            <path d="M102.378 125.155C103.912 126.631 109.89 126.731 109.89 126.731C113.296 126.781 115.419 124.611 113.985 121.109C112.774 118.145 112.063 117.019 111.446 115.559C111.052 115.237 110.724 115.004 110.563 115.121C110.14 115.393 111.524 117.191 110.563 117.28C109.601 117.368 109.39 114.738 108.968 115.093C108.546 115.448 108.662 117.069 107.94 116.497C107.218 115.925 107.646 114.488 107.223 114.582C106.801 114.677 106.379 116.331 105.629 115.776C104.879 115.221 105.862 114.288 105.512 114.216C105.162 114.144 104.834 115.359 104.073 115.565C101.945 118.684 100.35 123.157 102.378 125.155Z" fill="url(#paint13_linear_5475_375167)"/>
        </g>
        <ellipse cx="157.849" cy="187.633" rx="177.162" ry="61.3456" transform="rotate(-0.554191 157.849 187.633)" fill="url(#paint14_linear_5475_375167)"/>
        <g opacity="0.3">
            <path d="M60.8961 136.475C62.049 136.148 62.5861 134.483 62.0959 132.756C61.6056 131.029 60.2736 129.895 59.1207 130.222C57.9678 130.549 57.4306 132.214 57.9209 133.941C58.4112 135.668 59.7432 136.803 60.8961 136.475Z" fill="#FF9C61"/>
            <path d="M48.5172 139.966C49.6701 139.638 50.2072 137.973 49.717 136.246C49.2267 134.519 47.8947 133.385 46.7418 133.712C45.5889 134.039 45.0517 135.705 45.542 137.432C46.0323 139.158 47.3643 140.293 48.5172 139.966Z" fill="#FF9C61"/>
            <path d="M48.0687 111.343C42.9989 112.752 32.1076 115.614 31.6696 116.747C27.2719 117.756 19.0652 119.663 16.6722 120.677C17.8409 119.143 30.2821 115.144 34.114 114.107C37.4392 113.375 44.713 111.494 48.0687 111.343Z" fill="#FFE2AB"/>
            <path d="M50.2581 136.407L50.2629 136.424C29.3677 142.356 22.5294 144.097 22.5294 144.097C17.4042 131.666 15.5111 125.852 16.5544 120.861C16.5862 120.796 16.6259 120.734 16.6727 120.678C19.0712 119.662 25.9249 117.502 31.6767 116.75C30.895 121.547 38.5835 139.673 50.2581 136.407Z" fill="url(#paint15_linear_5475_375167)"/>
            <g opacity="0.69">
                <path d="M26.9375 134.218C30.0783 133.246 31.8263 129.881 30.8419 126.703C29.8575 123.525 26.5133 121.737 23.3725 122.709C20.2317 123.682 18.4836 127.047 19.468 130.225C20.4525 133.403 23.7966 135.191 26.9375 134.218Z" fill="url(#paint16_linear_5475_375167)"/>
                <path d="M22.001 123.332C20.854 124.066 20.2109 124.882 19.7448 125.954C19.7236 125.963 19.7125 125.967 19.7125 125.967L19.3331 127.075C19.3331 127.075 18.2452 131.224 22.2287 133.689L28.0423 123.217C26.1787 122.164 23.8167 122.17 22.0016 123.331L22.001 123.332Z" fill="url(#paint17_linear_5475_375167)"/>
                <path d="M28.6971 129.528C28.0728 131.498 25.967 132.59 23.995 131.967C22.0238 131.343 20.9321 129.24 21.5575 127.27C22.1819 125.3 24.2877 124.208 26.2605 124.831C28.2314 125.454 29.3232 127.557 28.698 129.528L28.6971 129.528Z" fill="url(#paint18_linear_5475_375167)"/>
                <g style="mix-blend-mode:screen">
                    <path d="M27.4579 125.552L23.865 132.012L23.551 132.02L27.1978 125.49L27.4579 125.552Z" fill="#E6E8E2"/>
                </g>
                <g style="mix-blend-mode:multiply">
                    <path d="M27.4601 125.551L23.9075 131.938L23.2878 131.789L26.9234 125.253L27.4601 125.551Z" fill="#E6E8E2"/>
                </g>
                <path d="M28.0413 131.063C27.0058 132.193 25.393 132.624 23.9322 132.162C21.8558 131.505 20.7028 129.283 21.361 127.209C21.5359 126.656 21.8225 126.16 22.2118 125.735C23.2472 124.605 24.8603 124.175 26.3209 124.636C27.3265 124.954 28.1472 125.644 28.6328 126.58C29.1183 127.516 29.2102 128.584 28.8909 129.589C28.716 130.142 28.4294 130.638 28.0399 131.062L28.0413 131.063ZM22.5143 126.013C22.1654 126.393 21.9095 126.837 21.7518 127.333C21.1614 129.193 22.1959 131.184 24.0567 131.773C25.3656 132.187 26.8116 131.799 27.7393 130.787C28.0881 130.407 28.3441 129.963 28.5017 129.467C28.7871 128.566 28.7057 127.608 28.2706 126.77C27.8355 125.932 27.0995 125.312 26.198 125.028C24.8882 124.614 23.4428 125.001 22.5143 126.013Z" fill="url(#paint19_linear_5475_375167)"/>
            </g>
            <path d="M58.0711 134.206C55.4251 134.957 53.089 135.62 51.0283 136.187C41.1814 138.935 37.7558 139.779 37.7558 139.779C33.0503 127.315 31.2316 121.531 31.6749 116.75C31.9969 115.631 36.1201 113.974 40.392 112.791C44.5125 111.647 48.7713 110.941 49.874 111.583C51.9624 113.642 54.9738 122.894 58.0711 134.206Z" fill="url(#paint20_linear_5475_375167)"/>
            <path d="M52.0494 117.836C46.2781 118.695 36.7969 122.166 35.1876 124.125C34.5398 125.198 35.0996 131.401 38.7636 139.688C55.6207 134.872 56.0906 134.768 56.0906 134.768L52.0494 117.836Z" fill="url(#paint21_linear_5475_375167)"/>
            <path d="M59.6641 121.947C61.0575 121.608 62.0684 121.771 62.4226 123.083C62.7769 124.394 61.4111 124.972 61.4111 124.972L59.6641 121.947Z" fill="#FF7F33"/>
            <path d="M47.4584 137.024C47.6693 135.839 47.4301 132.051 42.8633 130.133C42.226 129.929 40.7423 125.946 40.4564 124.261C40.1704 122.576 40.3468 121.488 44.0593 120.001C47.7717 118.515 51.3149 117.541 54.0415 117.568C56.7681 117.595 58.0653 118.739 61.4392 124.118C63.0245 124.257 65.8386 126.372 65.4927 131.333C57.4216 133.627 47.4584 137.024 47.4584 137.024Z" fill="url(#paint22_linear_5475_375167)"/>
            <path d="M42.8633 130.133C42.226 129.929 40.7423 125.946 40.4564 124.261C40.1704 122.576 40.3468 121.488 44.0593 120.001C47.7717 118.515 51.315 117.541 54.0415 117.568C56.7681 117.595 58.0653 118.739 61.4392 124.118C59.6877 125.058 47.8553 129.384 42.8633 130.133Z" fill="url(#paint23_radial_5475_375167)"/>
            <path d="M35.8431 126.273C35.8431 126.273 37.2891 130.723 37.4292 131.859C38.633 131.7 40.7693 131.081 40.7693 131.081C40.3343 127.72 39.628 125.317 38.7872 125.011C37.9464 124.704 35.8431 126.273 35.8431 126.273Z" fill="url(#paint24_linear_5475_375167)"/>
            <path d="M46.5627 136.759L23.284 143.368C22.9136 143.473 22.6985 143.859 22.8037 144.229C22.9089 144.6 23.2944 144.815 23.6648 144.71L46.9436 138.101C47.314 137.996 47.529 137.61 47.4239 137.24C47.3187 136.869 46.9332 136.654 46.5627 136.759Z" fill="url(#paint25_linear_5475_375167)"/>
            <path d="M65.3653 131.421L47.0106 136.632C46.6401 136.737 46.4251 137.123 46.5303 137.493C46.6354 137.863 47.021 138.078 47.3914 137.973L65.7461 132.762C66.1165 132.657 66.3316 132.272 66.2264 131.901C66.1212 131.531 65.7357 131.316 65.3653 131.421Z" fill="url(#paint26_linear_5475_375167)"/>
            <path d="M52.1197 130.575C52.4656 131.261 52.7315 131.984 52.9124 132.731L61.2419 130.366C61.0201 129.203 60.6724 128.579 60.3583 128.236C57.8938 128.863 52.1197 130.575 52.1197 130.575Z" fill="#FFC6A5"/>
            <path d="M60.137 128.852L52.7148 130.959L52.7575 131.109L60.1796 129.002L60.137 128.852Z" fill="#FEB03E"/>
            <path d="M60.4651 129.299L53.043 131.406L53.0856 131.556L60.5077 129.449L60.4651 129.299Z" fill="#FEB03E"/>
            <path d="M60.6077 129.799L53.1855 131.906L53.2582 132.162L60.6803 130.055L60.6077 129.799Z" fill="#FEB03E"/>
            <path d="M64.8655 129.034C65.2278 128.309 64.7707 127.347 63.8445 126.886C62.9183 126.424 61.8738 126.637 61.5115 127.362C61.1492 128.086 61.6063 129.048 62.5325 129.51C63.4587 129.972 64.5032 129.759 64.8655 129.034Z" fill="url(#paint27_linear_5475_375167)"/>
            <path d="M63.506 126.747L62.5066 129.499C62.1402 129.316 61.8325 129.034 61.618 128.685L62.3417 126.707C62.7254 126.606 63.1303 126.62 63.506 126.747Z" fill="url(#paint28_linear_5475_375167)"/>
            <path d="M64.7095 127.636L63.9591 129.703C63.5749 129.79 63.1739 129.765 62.8036 129.631L63.8113 126.873L63.846 126.89C64.1947 127.058 64.4926 127.315 64.7095 127.636Z" fill="url(#paint29_linear_5475_375167)"/>
            <path d="M51.8948 133.003C52.2571 132.278 51.8 131.316 50.8738 130.854C49.9476 130.393 48.903 130.606 48.5408 131.33C48.1785 132.055 48.6356 133.017 49.5618 133.479C50.488 133.94 51.5325 133.727 51.8948 133.003Z" fill="url(#paint30_linear_5475_375167)"/>
            <path d="M50.5392 130.716L49.5398 133.467C49.1735 133.284 48.8657 133.003 48.6512 132.654L49.3749 130.676C49.7586 130.575 50.1635 130.589 50.5392 130.716Z" fill="url(#paint31_linear_5475_375167)"/>
            <path d="M51.7428 131.606L50.9925 133.674C50.6082 133.76 50.2072 133.735 49.837 133.601L50.837 130.838L50.8716 130.854C51.2239 131.023 51.5246 131.282 51.7428 131.606Z" fill="url(#paint32_linear_5475_375167)"/>
            <path d="M44.9678 129.459C49.0878 128.18 54.8688 126.288 60.2768 124.947C57.2195 121.318 56.5627 118.39 52.0161 119.157C47.4695 119.923 42.5996 122.17 42.7189 123.508C42.8381 124.847 43.6934 127.732 44.9678 129.459Z" fill="url(#paint33_linear_5475_375167)"/>
            <path d="M55.5732 119.553L52.8629 127.007L51.5282 127.411L54.5402 119.164C54.9006 119.247 55.2481 119.378 55.5732 119.553Z" fill="url(#paint34_linear_5475_375167)"/>
            <path d="M52.9674 119.05L49.7251 127.97L46.9486 128.84L44.9316 129.413C44.4036 128.655 43.9693 127.837 43.6382 126.976L46.2997 120.812C48.1298 120.053 50.0386 119.5 51.9909 119.163C52.3141 119.107 52.6401 119.069 52.9674 119.05Z" fill="url(#paint35_linear_5475_375167)"/>
            <path d="M56.768 120.468L54.576 126.498C54.1289 126.625 53.6835 126.751 53.2461 126.891L55.8653 119.725C56.1926 119.938 56.4954 120.188 56.768 120.468Z" fill="url(#paint36_linear_5475_375167)"/>
            <path d="M41.5966 127.78C41.901 128.442 42.4014 129.439 42.5818 130.399C41.4959 130.812 40.4343 130.613 40.1737 129.349C39.9131 128.085 41.5966 127.78 41.5966 127.78Z" fill="#FF7F33"/>
            <path d="M43.7145 141.827C44.8673 141.5 45.4045 139.834 44.9142 138.108C44.424 136.381 43.0919 135.246 41.939 135.573C40.7862 135.901 40.249 137.566 40.7393 139.293C41.2295 141.02 42.5616 142.154 43.7145 141.827Z" fill="#FF9C61"/>
            <path d="M42.9717 140.992C43.7444 140.773 44.1451 139.8 43.8667 138.819C43.5883 137.838 42.7362 137.221 41.9635 137.441C41.1908 137.66 40.7901 138.633 41.0686 139.614C41.347 140.594 42.199 141.211 42.9717 140.992Z" fill="#FFC6A5"/>
            <path d="M31.8746 145.188C33.0275 144.861 33.5646 143.196 33.0744 141.469C32.5841 139.742 31.2521 138.607 30.0992 138.935C28.9463 139.262 28.4092 140.927 28.8994 142.654C29.3897 144.381 30.7217 145.516 31.8746 145.188Z" fill="#FF9C61"/>
            <path d="M31.1241 144.357C31.8968 144.138 32.2975 143.165 32.019 142.184C31.7406 141.204 30.8886 140.587 30.1159 140.806C29.3432 141.025 28.9425 141.998 29.2209 142.979C29.4993 143.959 30.3514 144.577 31.1241 144.357Z" fill="#FFC6A5"/>
        </g>
        <path opacity="0.7" d="M81.3929 46.0342C81.3289 45.5374 81.1207 45.0707 80.7944 44.6924C80.4682 44.3142 80.0384 44.0412 79.5587 43.9076C79.0791 43.774 78.5709 43.7858 78.0979 43.9415C77.6249 44.0972 77.208 44.3898 76.8995 44.7828C76.7416 44.2452 76.4468 43.7585 76.0443 43.3711C75.6418 42.9837 75.1456 42.7089 74.605 42.5743C74.0644 42.4396 73.4982 42.4496 72.9626 42.6033C72.4271 42.757 71.9408 43.0491 71.552 43.4505C71.166 42.5236 70.4732 41.7598 69.5913 41.2888C68.7093 40.8178 67.6926 40.6686 66.7137 40.8665C65.7349 41.0644 64.8543 41.5973 64.2215 42.3747C63.5886 43.152 63.2426 44.1259 63.2422 45.1309C63.2426 45.4372 63.2744 45.7426 63.3371 46.0423L81.3929 46.0342Z" fill="url(#paint37_linear_5475_375167)"/>
        <path opacity="0.5" d="M308.508 58.0703C308.401 57.2359 308.05 56.4514 307.501 55.8142C306.954 55.1771 306.23 54.718 305.42 54.4956C304.614 54.2688 303.758 54.2885 302.964 54.5528C302.167 54.8137 301.465 55.3043 300.946 55.9632C300.682 55.0612 300.187 54.2441 299.511 53.5907C298.835 52.9407 297.999 52.4787 297.089 52.2504C296.179 52.0245 295.226 52.0427 294.325 52.3021C293.423 52.5595 292.604 53.0497 291.951 53.7234C291.304 52.1675 290.138 50.8834 288.651 50.0894C287.17 49.294 285.458 49.0405 283.809 49.3729C282.161 49.7102 280.68 50.6058 279.617 51.9081C278.55 53.2189 277.968 54.8561 277.969 56.5456C277.969 57.0609 278.022 57.5747 278.128 58.0792L308.508 58.0703Z" fill="url(#paint38_linear_5475_375167)"/>
        <path opacity="0.7" d="M231.625 62.5066C231.816 62.3224 231.92 62.1113 231.928 61.895C231.936 61.6788 231.846 61.4652 231.668 61.2764C231.491 61.0876 231.232 60.9304 230.918 60.821C230.604 60.7117 230.247 60.6541 229.883 60.6543H229.816C229.672 60.2368 229.303 59.8587 228.765 59.5771C228.227 59.2954 227.549 59.1257 226.834 59.0935C226.12 59.0613 225.407 59.1684 224.804 59.3987C224.201 59.6289 223.74 59.9697 223.492 60.3694C222.701 60.4237 221.97 60.649 221.44 61.0024C220.91 61.3559 220.617 61.8128 220.617 62.2864C220.618 62.3603 220.626 62.4341 220.64 62.5076L231.625 62.5066Z" fill="url(#paint39_linear_5475_375167)"/>
        <g clip-path="url(#clip0_5475_375167)">
            <path fill-rule="evenodd" clip-rule="evenodd" d="M186.006 73.8848C186.006 73.8848 200.488 79.4832 204.996 89.1489C209.503 98.8157 203.698 105.389 203.698 105.389L194.226 107.766L188.808 82.1872L186.006 73.8848Z" fill="url(#paint40_radial_5475_375167)"/>
            <path fill-rule="evenodd" clip-rule="evenodd" d="M178.569 134.021C180.005 135.409 181.974 136.087 185.911 135.751C189.025 135.487 194.051 134.834 195.092 131.425C195.582 129.824 194.545 128.076 193.447 127.044C191.694 125.395 189.022 123.548 186.565 123.207C184.108 122.864 180.396 122.174 178.767 123.312C177.282 124.348 176.905 127.035 176.793 130.03C176.745 131.313 177.519 133.006 178.569 134.021Z" fill="url(#paint41_linear_5475_375167)"/>
            <path fill-rule="evenodd" clip-rule="evenodd" d="M178.569 134.021C180.005 135.409 181.974 136.087 185.911 135.751C189.025 135.487 194.051 134.834 195.092 131.425C195.582 129.824 194.545 128.076 193.447 127.044C191.694 125.395 189.022 123.548 186.565 123.207C184.108 122.864 180.396 122.174 178.767 123.312C177.282 124.348 176.905 127.035 176.793 130.03C176.745 131.313 177.519 133.006 178.569 134.021Z" fill="url(#paint42_linear_5475_375167)"/>
            <path fill-rule="evenodd" clip-rule="evenodd" d="M165.836 133.355C164.473 135.167 162.908 136.068 158.712 136.604C155.392 137.028 150.004 137.468 148.44 133.995C147.705 132.363 148.56 130.224 149.576 128.848C151.199 126.651 153.764 124.03 156.308 123.095C158.852 122.16 162.218 121.708 164.279 121.636C166.401 121.561 167.236 122.48 167.521 124.072C167.768 125.451 167.325 131.376 165.836 133.355Z" fill="url(#paint43_linear_5475_375167)"/>
            <path fill-rule="evenodd" clip-rule="evenodd" d="M165.836 133.355C164.473 135.167 162.908 136.068 158.712 136.604C155.392 137.028 150.004 137.468 148.44 133.995C147.705 132.363 148.56 130.224 149.576 128.848C151.199 126.651 153.764 124.03 156.308 123.095C158.852 122.16 162.218 121.708 164.279 121.636C166.401 121.561 167.236 122.48 167.521 124.072C167.768 125.451 167.325 131.376 165.836 133.355Z" fill="url(#paint44_linear_5475_375167)"/>
            <path fill-rule="evenodd" clip-rule="evenodd" d="M176.261 125.287C176.261 125.287 185.484 127.892 193.895 124.949C195.217 118.48 196.44 108.014 196.44 108.014L185.116 102.896C185.116 102.896 176.946 102.271 176.079 106.849C175.211 111.426 176.261 125.287 176.261 125.287Z" fill="url(#paint45_linear_5475_375167)"/>
            <path fill-rule="evenodd" clip-rule="evenodd" d="M151.77 125.623C151.77 125.623 159.716 127.727 167.829 126.401C170.442 122.67 176.792 112.103 176.792 112.103C176.792 112.103 171.396 104.482 166.779 104.183C162.161 103.884 153.344 108.994 153.344 108.994L151.77 125.623Z" fill="url(#paint46_linear_5475_375167)"/>
            <path fill-rule="evenodd" clip-rule="evenodd" d="M149.927 116.075C149.927 116.075 154.745 121.002 172.953 120.493C175.104 117.079 176.79 113.172 176.79 113.172C176.79 113.172 179.533 119.02 179.906 120.144C181.94 119.899 192.247 116.921 198.024 114.963C197.148 102.872 192.201 83.9969 188.964 75.8033C185.727 67.6098 180.728 60.4244 180.728 60.4244C180.728 60.4244 176.658 55.623 168.987 57.5654C161.315 59.5078 155.383 68.9626 154.377 73.2537C153.371 77.5448 149.927 116.075 149.927 116.075Z" fill="url(#paint47_radial_5475_375167)"/>
            <mask id="mask3_5475_375167" style="mask-type:luminance" maskUnits="userSpaceOnUse" x="149" y="57" width="50" height="64">
                <path d="M149.927 116.075C149.927 116.075 154.745 121.002 172.953 120.493C175.104 117.079 176.79 113.172 176.79 113.172C176.79 113.172 179.533 119.02 179.906 120.144C181.94 119.899 192.247 116.921 198.024 114.963C197.148 102.872 192.201 83.9969 188.964 75.8033C185.727 67.6098 180.728 60.4244 180.728 60.4244C180.728 60.4244 176.658 55.623 168.987 57.5654C161.315 59.5078 155.383 68.9626 154.377 73.2537C153.371 77.5448 149.927 116.075 149.927 116.075Z" fill="white"/>
            </mask>
            <g mask="url(#mask3_5475_375167)">
                <path fill-rule="evenodd" clip-rule="evenodd" d="M176.748 113.549C176.748 113.549 177.164 108.42 177.287 105.056C177.41 101.693 178.101 94.4727 178.101 94.4727L172.49 93.8652L174.682 120.257L176.625 115.813L176.748 113.549Z" fill="url(#paint48_linear_5475_375167)"/>
            </g>
            <path fill-rule="evenodd" clip-rule="evenodd" d="M163.61 69.8442L178.347 97.2539C178.347 97.2539 170.209 93.5193 168.254 92.6228C167.998 92.505 167.83 92.2526 167.821 91.9701C167.784 90.8091 167.688 87.8532 167.688 87.8532C167.688 87.8532 161.719 85.6625 159.895 84.9928C159.599 84.8845 159.437 84.5668 159.523 84.2642C160.281 81.5919 163.61 69.8442 163.61 69.8442Z" fill="url(#paint49_linear_5475_375167)" stroke="#A0B2D3" stroke-width="0.650698" stroke-miterlimit="1.5" stroke-linecap="round" stroke-linejoin="round"/>
            <path fill-rule="evenodd" clip-rule="evenodd" d="M182.498 66.4111L178.348 97.2533C178.348 97.2533 183.058 91.4409 184.327 89.8737C184.522 89.6351 184.579 89.3122 184.48 89.0199L183.242 85.3725C183.196 85.2373 183.23 85.0879 183.328 84.9849C184.116 84.1657 187.566 80.5748 188.648 79.4487C188.843 79.2457 188.889 78.9416 188.761 78.6908C187.641 76.4948 182.498 66.4111 182.498 66.4111Z" fill="url(#paint50_linear_5475_375167)" stroke="#A0B2D3" stroke-width="0.650698" stroke-miterlimit="1.5" stroke-linecap="round" stroke-linejoin="round"/>
            <path fill-rule="evenodd" clip-rule="evenodd" d="M178.346 97.256L181.681 75.4728L166.217 75.332L178.346 97.256Z" fill="url(#paint51_linear_5475_375167)"/>
            <mask id="mask4_5475_375167" style="mask-type:luminance" maskUnits="userSpaceOnUse" x="166" y="75" width="16" height="23">
                <path d="M178.346 97.256L181.681 75.4728L166.217 75.332L178.346 97.256Z" fill="white"/>
            </mask>
            <g mask="url(#mask4_5475_375167)">
                <path fill-rule="evenodd" clip-rule="evenodd" d="M168.238 81.1125C168.238 81.1125 171.413 84.8312 176.144 84.3749C180.875 83.9185 182.216 80.2793 182.216 80.2793L181.58 97.6968L174.676 99.4608L168.238 81.1125Z" fill="url(#paint52_linear_5475_375167)"/>
            </g>
            <path fill-rule="evenodd" clip-rule="evenodd" d="M191.207 88.2744C191.076 87.5701 190.424 87.179 189.751 87.4002L187.995 87.9765C187.322 88.1976 186.881 88.9473 187.011 89.6516L187.737 93.575C187.868 94.2782 188.52 94.6703 189.193 94.4492L190.949 93.8729C191.622 93.6518 192.063 92.901 191.933 92.1978L191.207 88.2744Z" fill="white" stroke="#A0B2D3" stroke-width="0.653644" stroke-miterlimit="1.5" stroke-linecap="round" stroke-linejoin="round"/>
            <path fill-rule="evenodd" clip-rule="evenodd" d="M179.837 99.3153C181.762 96.4354 188.311 95.6512 192.557 95.4481C200.256 95.0791 202.99 96.2704 205.013 98.3986C207.468 100.983 208.276 104.627 208.447 107.62C208.618 110.624 208.413 112.919 206.988 116.261C204.564 121.945 200.091 122.71 195.481 123.524C191.624 124.206 186.615 123.387 183.938 121.354C181.12 119.214 178.935 116.516 178.467 110.701C178.127 106.478 178.199 101.766 179.837 99.3153Z" fill="url(#paint53_radial_5475_375167)"/>
            <mask id="mask5_5475_375167" style="mask-type:luminance" maskUnits="userSpaceOnUse" x="178" y="95" width="31" height="29">
                <path d="M179.837 99.3153C181.762 96.4354 188.311 95.6512 192.557 95.4481C200.256 95.0791 202.99 96.2704 205.013 98.3986C207.468 100.983 208.276 104.627 208.447 107.62C208.618 110.624 208.413 112.919 206.988 116.261C204.564 121.945 200.091 122.71 195.481 123.524C191.624 124.206 186.615 123.387 183.938 121.354C181.12 119.214 178.935 116.516 178.467 110.701C178.127 106.478 178.199 101.766 179.837 99.3153Z" fill="white"/>
            </mask>
            <g mask="url(#mask5_5475_375167)">
                <path fill-rule="evenodd" clip-rule="evenodd" d="M181.955 94.789C183.896 91.9222 190.45 91.1828 194.697 91.0087C202.397 90.6923 205.124 91.9023 207.135 94.0443C209.576 96.6454 210.363 100.295 210.517 103.289C210.671 106.294 210.453 108.588 209.009 111.92C206.553 117.588 202.076 118.322 197.461 119.105C193.601 119.76 188.597 118.908 185.931 116.856C183.126 114.697 180.957 111.984 180.521 106.166C180.204 101.94 180.303 97.2281 181.955 94.789Z" fill="url(#paint54_radial_5475_375167)"/>
                <mask id="mask6_5475_375167" style="mask-type:luminance" maskUnits="userSpaceOnUse" x="180" y="90" width="31" height="30">
                    <path d="M181.955 94.789C183.896 91.9222 190.45 91.1828 194.697 91.0087C202.397 90.6923 205.124 91.9023 207.135 94.0443C209.576 96.6454 210.363 100.295 210.517 103.289C210.671 106.294 210.453 108.588 209.009 111.92C206.553 117.588 202.076 118.322 197.461 119.105C193.601 119.76 188.597 118.908 185.931 116.856C183.126 114.697 180.957 111.984 180.521 106.166C180.204 101.94 180.303 97.2281 181.955 94.789Z" fill="white"/>
                </mask>
                <g mask="url(#mask6_5475_375167)">
                    <path fill-rule="evenodd" clip-rule="evenodd" d="M169.29 112.885C177.151 115.236 185.578 116.722 198.336 115.652C205.558 115.047 216.225 110.039 216.225 110.039L215.123 101.825C215.123 101.825 204.455 106.834 197.233 107.439C184.476 108.508 176.048 107.024 168.187 104.672C160.294 102.311 161.397 110.525 169.29 112.885Z" fill="url(#paint55_linear_5475_375167)"/>
                    <path fill-rule="evenodd" clip-rule="evenodd" d="M168.304 103.682C176.165 106.034 184.593 107.52 197.351 106.45C204.572 105.844 215.24 100.836 215.24 100.836L214.928 99.8614C214.928 99.8614 204.26 104.87 197.038 105.475C184.281 106.545 175.853 105.06 167.992 102.708C160.099 100.348 160.412 101.322 168.304 103.682Z" fill="url(#paint56_linear_5475_375167)"/>
                    <path d="M186.314 110.955C186.401 111.047 186.471 111.157 186.519 111.278C186.563 111.388 186.589 111.506 186.601 111.625C186.645 112.067 186.69 112.508 186.74 112.949C186.562 112.937 186.384 112.924 186.207 112.91C186.16 112.495 186.118 112.08 186.077 111.665C186.064 111.539 186.02 111.418 185.935 111.33C185.851 111.246 185.742 111.208 185.63 111.201C185.579 111.198 185.528 111.2 185.478 111.212C185.445 111.219 185.414 111.23 185.384 111.247C185.365 111.258 185.347 111.272 185.331 111.287C185.243 111.373 185.225 111.512 185.229 111.634C185.23 111.655 185.231 111.676 185.233 111.697C185.27 112.077 185.308 112.456 185.35 112.835C185.175 112.819 185 112.802 184.825 112.783C184.749 112.085 184.687 111.384 184.627 110.684C184.799 110.695 184.971 110.706 185.143 110.716C185.151 110.797 185.158 110.878 185.165 110.959C185.184 110.924 185.207 110.89 185.233 110.861C185.252 110.84 185.272 110.821 185.293 110.804C185.421 110.701 185.586 110.678 185.74 110.686C185.844 110.691 185.947 110.714 186.043 110.757C186.144 110.803 186.235 110.872 186.314 110.955L186.314 110.955Z" fill="#F05123"/>
                    <path d="M188.713 111.02C188.805 111.113 188.878 111.226 188.928 111.351C188.973 111.462 188.999 111.581 189.011 111.701C189.059 112.156 189.106 112.61 189.156 113.064C188.975 113.059 188.794 113.053 188.612 113.047C188.565 112.619 188.52 112.19 188.475 111.762C188.462 111.632 188.415 111.509 188.327 111.42C188.24 111.337 188.127 111.301 188.013 111.299C187.959 111.297 187.905 111.301 187.853 111.315C187.82 111.324 187.787 111.338 187.758 111.356C187.739 111.368 187.721 111.382 187.706 111.399C187.616 111.491 187.598 111.634 187.604 111.762C187.605 111.784 187.607 111.806 187.609 111.827C187.65 112.221 187.691 112.615 187.735 113.008C187.556 112.999 187.376 112.989 187.197 112.978C187.085 111.977 186.987 110.941 186.885 109.939C187.062 109.944 187.239 109.947 187.417 109.95C187.456 110.321 187.493 110.693 187.531 111.065C187.551 111.027 187.574 110.992 187.6 110.961C187.619 110.938 187.639 110.918 187.661 110.9C187.791 110.79 187.961 110.76 188.121 110.763C188.225 110.764 188.33 110.783 188.429 110.824C188.534 110.868 188.631 110.936 188.713 111.02L188.713 111.02Z" fill="#F05123"/>
                    <path d="M191.03 111.093C191.02 111.003 191.011 110.912 191.001 110.821C191.185 110.817 191.369 110.813 191.552 110.808C191.634 111.565 191.708 112.323 191.785 113.081C191.601 113.083 191.418 113.085 191.235 113.087C191.226 112.996 191.217 112.906 191.207 112.815C191.176 112.864 191.14 112.91 191.099 112.95C191.071 112.977 191.041 113.002 191.01 113.024C190.873 113.119 190.709 113.152 190.548 113.152C190.417 113.151 190.285 113.125 190.163 113.071C190.02 113.009 189.893 112.911 189.781 112.797C189.672 112.684 189.579 112.553 189.512 112.405C189.448 112.265 189.409 112.113 189.392 111.957C189.378 111.816 189.382 111.671 189.414 111.532C189.449 111.382 189.516 111.244 189.606 111.125C189.705 110.996 189.83 110.892 189.974 110.832C190.078 110.788 190.188 110.768 190.299 110.767C190.421 110.766 190.544 110.783 190.659 110.827C190.801 110.881 190.927 110.973 191.03 111.093L191.03 111.093ZM190.592 112.591C190.707 112.591 190.822 112.562 190.917 112.489C190.946 112.467 190.972 112.442 190.996 112.414C191.021 112.383 191.044 112.35 191.062 112.314C191.118 112.205 191.132 112.078 191.119 111.955C191.111 111.87 191.09 111.787 191.054 111.711C191.017 111.631 190.964 111.562 190.902 111.504C190.84 111.445 190.769 111.399 190.692 111.369C190.618 111.341 190.539 111.329 190.461 111.329C190.347 111.33 190.233 111.36 190.139 111.433C190.109 111.456 190.082 111.482 190.058 111.512C190.035 111.539 190.014 111.57 189.997 111.602C189.94 111.711 189.927 111.838 189.939 111.961C189.948 112.046 189.969 112.129 190.004 112.205C190.04 112.285 190.091 112.356 190.152 112.415C190.214 112.474 190.284 112.52 190.361 112.55C190.435 112.578 190.513 112.591 190.592 112.591Z" fill="#F05123"/>
                    <path d="M194.004 110.994C194.115 111.103 194.21 111.232 194.278 111.378C194.343 111.518 194.381 111.672 194.395 111.829C194.408 111.965 194.403 112.104 194.375 112.238C194.34 112.41 194.267 112.57 194.165 112.707C194.064 112.847 193.935 112.96 193.784 113.027C193.682 113.071 193.573 113.093 193.464 113.098C193.354 113.103 193.244 113.09 193.138 113.056C192.986 113.007 192.849 112.911 192.741 112.783C192.797 113.362 192.852 113.942 192.91 114.521C192.728 114.525 192.546 114.528 192.364 114.53C192.235 113.285 192.12 112.038 191.987 110.793C192.171 110.787 192.356 110.78 192.54 110.773C192.55 110.864 192.559 110.956 192.569 111.047C192.6 110.996 192.636 110.948 192.676 110.906C192.755 110.824 192.85 110.765 192.953 110.728C193.042 110.696 193.135 110.68 193.228 110.675C193.361 110.669 193.494 110.686 193.62 110.735C193.763 110.79 193.892 110.883 194.004 110.994L194.004 110.994ZM193.309 112.531C193.378 112.528 193.448 112.515 193.513 112.488C193.591 112.455 193.66 112.402 193.715 112.333C193.772 112.263 193.813 112.178 193.832 112.086C193.848 112.013 193.85 111.936 193.843 111.861C193.835 111.777 193.815 111.695 193.781 111.619C193.744 111.539 193.691 111.469 193.627 111.412C193.565 111.353 193.492 111.308 193.414 111.281C193.34 111.256 193.262 111.247 193.185 111.251C193.115 111.254 193.045 111.268 192.98 111.295C192.902 111.329 192.833 111.382 192.778 111.452C192.753 111.483 192.731 111.516 192.713 111.553C192.658 111.664 192.644 111.791 192.657 111.915C192.665 111.999 192.685 112.082 192.719 112.158C192.755 112.239 192.806 112.311 192.868 112.37C192.931 112.428 193.003 112.473 193.081 112.5C193.154 112.525 193.232 112.534 193.309 112.531Z" fill="#F05123"/>
                    <path d="M195.851 110.564C195.87 110.756 195.889 110.948 195.906 111.14C195.745 111.154 195.585 111.167 195.424 111.18C195.454 111.496 195.482 111.812 195.508 112.128C195.514 112.201 195.54 112.271 195.599 112.31C195.615 112.321 195.632 112.328 195.649 112.334C195.694 112.347 195.743 112.345 195.788 112.344C195.861 112.341 195.935 112.333 196.007 112.323C196.022 112.505 196.036 112.687 196.05 112.87C195.882 112.906 195.707 112.93 195.536 112.911C195.436 112.9 195.334 112.873 195.248 112.813C195.226 112.799 195.205 112.782 195.186 112.763C195.055 112.64 194.996 112.451 194.97 112.269C194.965 112.235 194.961 112.202 194.958 112.168C194.931 111.852 194.902 111.537 194.872 111.221C194.748 111.23 194.624 111.238 194.5 111.246C194.481 111.055 194.462 110.863 194.442 110.671C194.566 110.663 194.691 110.655 194.815 110.646C194.798 110.484 194.781 110.323 194.764 110.162C194.942 110.085 195.119 110.007 195.296 109.928C195.321 110.153 195.345 110.378 195.367 110.604C195.528 110.591 195.689 110.578 195.851 110.564L195.851 110.564Z" fill="#F05123"/>
                    <path d="M198.009 110.537C198.045 110.571 198.078 110.608 198.108 110.649C198.224 110.807 198.278 111.007 198.293 111.208C198.329 111.679 198.36 112.152 198.388 112.625C198.209 112.647 198.031 112.668 197.852 112.689C197.823 112.241 197.793 111.793 197.757 111.345C197.747 111.218 197.706 111.091 197.615 111.007C197.527 110.928 197.411 110.909 197.301 110.921C197.244 110.927 197.188 110.939 197.135 110.961C197.1 110.976 197.067 110.995 197.037 111.02C197.018 111.035 197 111.053 196.984 111.072C196.882 111.197 196.87 111.377 196.883 111.536C196.917 111.952 196.947 112.368 196.977 112.784C196.796 112.802 196.615 112.819 196.434 112.836C196.351 111.707 196.27 110.757 196.145 109.632C196.328 109.615 196.512 109.597 196.695 109.579C196.738 109.965 196.777 110.351 196.813 110.738C196.836 110.691 196.863 110.646 196.895 110.606C196.917 110.578 196.941 110.552 196.967 110.528C197.093 110.413 197.254 110.362 197.414 110.344C197.51 110.334 197.608 110.338 197.701 110.362C197.815 110.392 197.92 110.453 198.009 110.537Z" fill="#F05123"/>
                    <path d="M200.143 111.302C200.118 110.889 200.089 110.477 200.054 110.066C200.231 110.038 200.407 110.011 200.584 109.982C200.647 110.747 200.689 111.514 200.72 112.281C200.546 112.311 200.372 112.34 200.198 112.367C200.194 112.279 200.19 112.191 200.186 112.103C200.159 112.159 200.126 112.212 200.088 112.26C200.02 112.344 199.936 112.409 199.843 112.454C199.763 112.492 199.679 112.515 199.593 112.528C199.503 112.541 199.412 112.54 199.323 112.518C199.21 112.491 199.107 112.43 199.02 112.346C198.991 112.317 198.964 112.285 198.94 112.251C198.822 112.087 198.771 111.879 198.758 111.673C198.727 111.202 198.691 110.732 198.648 110.263C198.828 110.24 199.008 110.216 199.187 110.191C199.226 110.635 199.26 111.08 199.288 111.525C199.296 111.651 199.333 111.778 199.421 111.862C199.506 111.94 199.618 111.955 199.724 111.939C199.779 111.931 199.834 111.916 199.885 111.892C199.918 111.875 199.95 111.855 199.979 111.83C199.998 111.814 200.016 111.795 200.032 111.775C200.134 111.647 200.153 111.465 200.143 111.302L200.143 111.302Z" fill="#F05123"/>
                    <path d="M203.345 113.259C203.77 113.146 204.139 112.858 204.437 112.514C204.599 112.326 204.743 112.118 204.869 111.899C205.053 111.58 205.199 111.233 205.296 110.869C205.383 110.54 205.426 110.196 205.408 109.854C205.39 109.51 205.307 109.172 205.16 108.867C205.11 108.762 205.052 108.662 204.988 108.566C204.628 108.03 204.063 107.646 203.45 107.605C203.282 107.594 203.112 107.61 202.948 107.649C202.87 107.668 202.794 107.692 202.719 107.721C202.346 107.865 202.021 108.131 201.758 108.452C201.592 108.654 201.449 108.879 201.33 109.118C201.052 109.679 200.906 110.325 200.957 110.964C200.973 111.161 201.007 111.357 201.06 111.546C201.098 111.683 201.147 111.817 201.204 111.945C201.249 112.046 201.299 112.144 201.355 112.238C201.398 112.311 201.445 112.382 201.494 112.451C201.791 112.86 202.207 113.188 202.683 113.283C202.76 113.298 202.838 113.307 202.916 113.31C203.06 113.314 203.205 113.297 203.345 113.259Z" fill="url(#paint57_linear_5475_375167)"/>
                    <path d="M202.393 107.881C202.169 108.025 201.963 108.2 201.787 108.41C201.626 108.602 201.493 108.819 201.377 109.047C201.372 109.048 201.368 109.05 201.363 109.051C201.292 109.218 201.219 109.383 201.144 109.548C201.119 109.613 201.1 109.681 201.082 109.749C201.05 109.865 201.024 109.982 201.004 110.101C200.953 110.394 200.934 110.695 200.96 110.993C200.98 111.229 201.028 111.462 201.104 111.684C201.233 112.062 201.441 112.4 201.693 112.691C202.684 111.186 203.78 109.763 204.663 108.174C204.276 107.799 203.763 107.572 203.242 107.6C203.128 107.606 203.015 107.623 202.904 107.653C202.725 107.701 202.553 107.779 202.394 107.881L202.393 107.881Z" fill="url(#paint58_linear_5475_375167)"/>
                    <path d="M204.415 111.05C204.377 111.132 204.335 111.212 204.288 111.289C204.253 111.347 204.215 111.403 204.175 111.457C203.935 111.781 203.6 112.041 203.219 112.106C203.161 112.116 203.102 112.121 203.043 112.121C202.962 112.122 202.88 112.112 202.801 112.094C202.697 112.069 202.597 112.028 202.504 111.973C202.407 111.917 202.317 111.845 202.237 111.763C202.167 111.689 202.104 111.608 202.05 111.519C202.002 111.441 201.961 111.358 201.927 111.272C201.814 110.984 201.781 110.662 201.822 110.352C201.848 110.148 201.905 109.949 201.988 109.763C202.178 109.335 202.507 108.971 202.919 108.809C202.978 108.786 203.038 108.767 203.1 108.753C203.173 108.736 203.248 108.726 203.323 108.723C203.415 108.72 203.507 108.728 203.598 108.747C203.708 108.771 203.816 108.811 203.917 108.867C204.022 108.925 204.12 108.999 204.206 109.087C204.279 109.16 204.343 109.243 204.398 109.334C204.443 109.408 204.481 109.487 204.513 109.57C204.539 109.639 204.56 109.71 204.577 109.782C204.673 110.208 204.594 110.662 204.416 111.05L204.415 111.05Z" fill="url(#paint59_linear_5475_375167)"/>
                    <path d="M204.303 109.243C203.723 110.162 203.059 111.089 202.451 111.986C202.413 111.982 202.374 111.978 202.335 111.974C202.955 111.066 203.624 110.139 204.213 109.205C204.243 109.218 204.273 109.23 204.303 109.243Z" fill="#E6E8E2"/>
                    <path d="M204.304 109.242C203.729 110.153 203.075 111.067 202.473 111.954C202.402 111.921 202.331 111.887 202.259 111.854C202.887 110.941 203.541 110.032 204.13 109.087C204.188 109.139 204.246 109.191 204.304 109.242Z" fill="#E6E8E2"/>
                    <path d="M204.041 111.733C203.794 111.989 203.48 112.179 203.138 112.213C203.078 112.218 203.018 112.22 202.959 112.216C202.882 112.211 202.806 112.198 202.732 112.177C202.639 112.15 202.548 112.111 202.463 112.061C202.361 112.001 202.266 111.925 202.182 111.837C202.108 111.759 202.042 111.672 201.985 111.579C201.935 111.496 201.891 111.408 201.855 111.317C201.736 111.013 201.701 110.674 201.743 110.346C201.771 110.131 201.831 109.92 201.918 109.724C202.023 109.487 202.166 109.27 202.343 109.091C202.464 108.967 202.602 108.862 202.751 108.783C202.961 108.672 203.195 108.615 203.428 108.627C203.511 108.631 203.593 108.644 203.674 108.665C203.77 108.691 203.864 108.729 203.952 108.777C204.167 108.896 204.351 109.079 204.479 109.304C204.556 109.439 204.612 109.587 204.647 109.741C204.663 109.811 204.675 109.882 204.683 109.954C204.723 110.343 204.638 110.737 204.478 111.084C204.367 111.325 204.22 111.546 204.041 111.732L204.041 111.733ZM202.439 109.237C202.281 109.396 202.152 109.589 202.057 109.801C201.979 109.976 201.925 110.164 201.9 110.357C201.862 110.654 201.894 110.963 202.005 111.238C202.037 111.318 202.076 111.395 202.121 111.467C202.171 111.548 202.23 111.624 202.296 111.692C202.37 111.768 202.454 111.834 202.544 111.886C202.619 111.93 202.699 111.963 202.78 111.986C202.845 112.004 202.911 112.016 202.977 112.02C203.031 112.024 203.085 112.024 203.138 112.019C203.448 111.991 203.736 111.823 203.961 111.592C204.122 111.427 204.253 111.23 204.353 111.016C204.522 110.647 204.596 110.218 204.503 109.814C204.472 109.676 204.421 109.543 204.352 109.423C204.238 109.223 204.074 109.06 203.881 108.955C203.804 108.913 203.722 108.88 203.638 108.858C203.568 108.839 203.496 108.828 203.424 108.824C203.211 108.811 202.998 108.863 202.806 108.964C202.672 109.034 202.549 109.127 202.439 109.237Z" fill="url(#paint60_linear_5475_375167)"/>
                    <path d="M207.502 110.971C206.865 111.199 206.221 111.407 205.573 111.595C205.539 111.605 205.509 111.629 205.485 111.657C205.441 111.711 205.415 111.784 205.415 111.856C205.413 112.072 205.411 112.289 205.408 112.505C205.408 112.518 205.408 112.531 205.409 112.543C205.416 112.605 205.443 112.677 205.501 112.697C205.509 112.7 205.517 112.701 205.525 112.702C205.537 112.703 205.548 112.701 205.56 112.698C206.201 112.509 206.838 112.302 207.469 112.073C207.503 112.061 207.53 112.033 207.551 112.003C207.595 111.94 207.619 111.86 207.622 111.782C207.629 111.566 207.636 111.349 207.642 111.133C207.644 111.07 207.625 110.989 207.563 110.968C207.555 110.966 207.546 110.964 207.537 110.964C207.525 110.964 207.513 110.967 207.502 110.971Z" fill="url(#paint61_linear_5475_375167)"/>
                    <path d="M205.737 112.413C205.724 112.396 205.72 112.374 205.721 112.353C205.721 112.329 205.727 112.304 205.739 112.284C205.749 112.267 205.764 112.252 205.782 112.247C205.797 112.242 205.813 112.245 205.824 112.258C205.837 112.274 205.84 112.296 205.84 112.317C205.84 112.342 205.834 112.366 205.822 112.387C205.812 112.405 205.798 112.421 205.779 112.426C205.763 112.431 205.748 112.427 205.737 112.413Z" fill="white"/>
                    <path d="M205.985 112.323C205.948 112.304 205.921 112.269 205.904 112.229C205.882 112.18 205.876 112.124 205.876 112.069C205.877 112.009 205.888 111.949 205.909 111.893C205.929 111.842 205.957 111.794 205.994 111.755C206.028 111.719 206.069 111.692 206.114 111.678C206.146 111.668 206.181 111.664 206.214 111.675C206.244 111.684 206.269 111.704 206.287 111.731C206.266 111.766 206.244 111.801 206.223 111.836C206.204 111.809 206.177 111.791 206.146 111.792C206.136 111.792 206.126 111.794 206.117 111.797C206.09 111.805 206.066 111.822 206.046 111.844C206.023 111.868 206.007 111.898 205.996 111.93C205.983 111.965 205.977 112.002 205.976 112.039C205.976 112.073 205.98 112.107 205.992 112.138C206.002 112.163 206.018 112.184 206.039 112.196C206.061 112.208 206.086 112.208 206.109 112.201C206.159 112.185 206.194 112.139 206.218 112.091C206.238 112.114 206.259 112.137 206.279 112.16C206.26 112.201 206.234 112.239 206.202 112.27C206.173 112.298 206.139 112.319 206.102 112.331C206.063 112.343 206.022 112.343 205.985 112.324L205.985 112.323Z" fill="white"/>
                    <path d="M206.419 112.186C206.382 112.167 206.356 112.132 206.339 112.092C206.318 112.043 206.311 111.988 206.312 111.933C206.314 111.874 206.324 111.814 206.346 111.759C206.365 111.707 206.394 111.658 206.43 111.619C206.464 111.583 206.505 111.554 206.55 111.54C206.588 111.527 206.629 111.525 206.667 111.542C206.703 111.558 206.729 111.59 206.746 111.628C206.768 111.676 206.773 111.731 206.772 111.784C206.771 111.845 206.759 111.905 206.738 111.962C206.718 112.016 206.69 112.067 206.654 112.109C206.621 112.147 206.581 112.177 206.536 112.192C206.497 112.204 206.456 112.205 206.419 112.186ZM206.606 112.015C206.628 111.99 206.643 111.959 206.655 111.927C206.667 111.891 206.674 111.854 206.674 111.816C206.675 111.783 206.672 111.749 206.66 111.718C206.65 111.695 206.635 111.674 206.614 111.663C206.593 111.652 206.569 111.653 206.547 111.66C206.521 111.668 206.498 111.685 206.48 111.707C206.458 111.731 206.442 111.761 206.431 111.793C206.418 111.827 206.412 111.864 206.411 111.902C206.411 111.935 206.414 111.97 206.426 112.001C206.436 112.025 206.451 112.047 206.472 112.059C206.493 112.071 206.516 112.071 206.539 112.063C206.565 112.055 206.588 112.037 206.606 112.015Z" fill="white"/>
                    <path d="M207.21 111.951C207.214 111.823 207.218 111.695 207.221 111.568C207.177 111.686 207.134 111.805 207.091 111.925C207.077 111.929 207.063 111.934 207.049 111.939C207.012 111.85 206.974 111.762 206.936 111.674C206.933 111.799 206.929 111.924 206.926 112.049C206.896 112.059 206.866 112.07 206.836 112.08C206.842 111.87 206.847 111.659 206.852 111.449C206.878 111.44 206.905 111.431 206.931 111.422C206.981 111.533 207.03 111.644 207.077 111.755C207.13 111.609 207.184 111.463 207.238 111.317C207.264 111.308 207.29 111.299 207.316 111.29C207.311 111.5 207.305 111.709 207.299 111.919C207.27 111.93 207.24 111.94 207.211 111.951L207.21 111.951Z" fill="white"/>
                    <path d="M207.01 109.925C206.949 110.048 206.863 110.163 206.753 110.236C206.655 110.301 206.539 110.341 206.426 110.307C206.399 110.301 206.374 110.291 206.35 110.277C206.329 110.266 206.31 110.253 206.292 110.237C206.182 110.143 206.132 109.989 206.128 109.839C206.123 109.627 206.204 109.414 206.336 109.262C206.408 109.179 206.497 109.113 206.598 109.082C206.606 109.079 206.614 109.078 206.622 109.076C206.625 109.074 206.63 109.074 206.634 109.073C206.649 109.069 206.665 109.067 206.681 109.065C206.778 109.054 206.883 109.079 206.952 109.158C206.967 109.172 206.98 109.187 206.992 109.203C207.092 109.037 207.19 108.871 207.287 108.703C207.287 108.703 207.287 108.702 207.287 108.702C207.247 108.658 207.202 108.619 207.154 108.586C207.118 108.561 207.079 108.54 207.039 108.523C206.887 108.46 206.72 108.459 206.565 108.507C206.54 108.515 206.516 108.525 206.492 108.535C206.441 108.557 206.392 108.584 206.344 108.615C206.253 108.674 206.167 108.746 206.091 108.827C206.085 108.834 206.079 108.84 206.074 108.847C206.061 108.861 206.05 108.875 206.038 108.889C205.851 109.121 205.726 109.416 205.685 109.722C205.683 109.736 205.682 109.751 205.68 109.765C205.678 109.782 205.677 109.799 205.676 109.816C205.667 109.966 205.681 110.117 205.716 110.261C205.756 110.425 205.823 110.583 205.931 110.706C205.936 110.712 205.941 110.718 205.947 110.724C205.958 110.735 205.969 110.746 205.981 110.757C205.994 110.769 206.006 110.78 206.019 110.791C206.027 110.797 206.034 110.802 206.042 110.807C206.059 110.82 206.076 110.832 206.095 110.843C206.099 110.846 206.103 110.848 206.108 110.85C206.197 110.9 206.296 110.928 206.396 110.929C206.47 110.931 206.545 110.918 206.616 110.895C206.648 110.885 206.679 110.873 206.709 110.859C206.71 110.858 206.711 110.858 206.712 110.857C206.743 110.843 206.772 110.827 206.801 110.81L206.801 110.81C207.019 110.677 207.192 110.461 207.315 110.225C207.214 110.124 207.112 110.025 207.009 109.927L207.01 109.925Z" fill="#F05123"/>
                </g>
            </g>
            <path fill-rule="evenodd" clip-rule="evenodd" d="M157.293 106.06C152.172 106.129 148.846 100.511 148.164 96.8562C147.138 91.343 149.733 74.4727 155.089 74.1484C160.447 73.825 166.44 87.9547 166.61 96.4616C166.7 100.986 163.987 105.968 157.293 106.06Z" fill="url(#paint62_radial_5475_375167)"/>
            <path fill-rule="evenodd" clip-rule="evenodd" d="M180.82 96.8679C178.246 94.299 176.066 88.8655 169.545 84.3415C162.29 79.3086 157.341 76.7176 153.285 74.8692C152.725 74.614 151.499 75.719 151.115 76.1842C150.568 76.8453 149.578 78.5937 150.208 78.9613C153.413 80.8326 157.302 82.6684 165.374 87.524C170.332 90.5068 172.697 97.46 174.813 99.6228C174.815 99.6212 176.1 96.8647 176.102 96.863C177.624 95.883 178.331 96.8263 180.82 96.8679Z" fill="url(#paint63_linear_5475_375167)"/>
            <path fill-rule="evenodd" clip-rule="evenodd" d="M174.447 104.775L183.047 103.335C183.047 103.335 184.77 106.27 190.592 106.061C196.414 105.851 200.06 104.541 199.969 98.5713C199.879 92.6028 194.741 89.9239 191.344 90.1021C187.946 90.2803 184.436 91.4813 182.904 91.4359C181.373 91.3916 174.273 90.9886 174.273 90.9886L174.447 104.775Z" fill="url(#paint64_linear_5475_375167)"/>
            <path fill-rule="evenodd" clip-rule="evenodd" d="M174.447 104.775L183.047 103.335C183.047 103.335 184.77 106.27 190.592 106.061C196.414 105.851 200.06 104.541 199.969 98.5713C199.879 92.6028 194.741 89.9239 191.344 90.1021C187.946 90.2803 184.436 91.4813 182.904 91.4359C181.373 91.3916 174.273 90.9886 174.273 90.9886L174.447 104.775Z" fill="url(#paint65_linear_5475_375167)"/>
            <path fill-rule="evenodd" clip-rule="evenodd" d="M174.447 104.775L183.047 103.335C183.047 103.335 184.77 106.27 190.592 106.061C196.414 105.851 200.06 104.541 199.969 98.5713C199.879 92.6028 194.741 89.9239 191.344 90.1021C187.946 90.2803 184.436 91.4813 182.904 91.4359C181.373 91.3916 174.273 90.9886 174.273 90.9886L174.447 104.775Z" fill="url(#paint66_radial_5475_375167)"/>
            <path fill-rule="evenodd" clip-rule="evenodd" d="M194.568 96.8828C197.234 96.7331 199.83 97.5531 199.97 98.8326C200.055 99.5973 199.85 100.871 199.288 102.645C198.733 104.393 197.977 105.686 196.49 106.55C195.275 107.256 193.468 107.601 192.345 107.607C189.393 107.62 189.405 105.456 189.279 102.414C189.099 98.1059 191.623 97.0487 194.568 96.8828Z" fill="url(#paint67_linear_5475_375167)"/>
            <path fill-rule="evenodd" clip-rule="evenodd" d="M159.81 107.267C151.6 106.064 148.845 100.512 148.163 96.8569C147.136 91.3438 159.846 89.7951 165.202 89.4719C167.486 89.3333 176.789 90.1024 176.789 90.1024L176.789 108.627C176.789 108.627 170.59 108.846 159.81 107.267Z" fill="url(#paint68_radial_5475_375167)"/>
            <mask id="mask7_5475_375167" style="mask-type:luminance" maskUnits="userSpaceOnUse" x="148" y="89" width="29" height="20">
                <path d="M159.81 107.267C151.6 106.064 148.845 100.512 148.163 96.8569C147.136 91.3438 159.846 89.7951 165.202 89.4719C167.486 89.3333 176.789 90.1024 176.789 90.1024L176.789 108.627C176.789 108.627 170.59 108.846 159.81 107.267Z" fill="white"/>
            </mask>
            <g mask="url(#mask7_5475_375167)">
                <path d="M172.428 88.7031L172.277 110.078" stroke="#A0B2D3" stroke-width="0.650699" stroke-miterlimit="1.5" stroke-linecap="round" stroke-linejoin="round"/>
            </g>
            <path fill-rule="evenodd" clip-rule="evenodd" d="M176.788 9.95997L176.808 9.96615C177.529 10.1839 179.856 10.8126 180.551 11.0828L187.049 13.5006L185.942 14.6239C196.126 22.3411 201.116 36.5071 197.455 50.6186C193.28 66.7112 179.242 77.3969 164.504 76.7404L164.13 77.8229L157.869 75.6623C156.825 75.3661 155.808 75.0141 154.821 74.6109L154.512 74.504L154.518 74.4851C140.256 68.4643 132.405 51.6291 136.752 34.8717C141.49 16.6073 158.937 5.30632 175.687 9.6513C176.058 9.7484 176.425 9.85097 176.788 9.95997Z" fill="url(#paint69_linear_5475_375167)"/>
            <mask id="mask8_5475_375167" style="mask-type:luminance" maskUnits="userSpaceOnUse" x="135" y="8" width="64" height="70">
                <path d="M176.788 9.95997L176.808 9.96615C177.529 10.1839 179.856 10.8126 180.551 11.0828L187.049 13.5006L185.942 14.6239C196.126 22.3411 201.116 36.5071 197.455 50.6186C193.28 66.7112 179.242 77.3969 164.504 76.7404L164.13 77.8229L157.869 75.6623C156.825 75.3661 155.808 75.0141 154.821 74.6109L154.512 74.504L154.518 74.4851C140.256 68.4643 132.405 51.6291 136.752 34.8717C141.49 16.6073 158.937 5.30632 175.687 9.6513C176.058 9.7484 176.425 9.85097 176.788 9.95997Z" fill="white"/>
            </mask>
            <g mask="url(#mask8_5475_375167)">
                <path fill-rule="evenodd" clip-rule="evenodd" d="M205.666 35.3505C202.928 24.1575 194.908 15.042 183.789 12.1579C167.038 7.81251 149.556 19.2474 144.776 37.6774C139.995 56.1075 149.713 74.5982 166.465 78.9436C183.216 83.2889 200.698 71.8541 205.479 53.424C205.647 52.7744 205.798 52.1247 205.931 51.4756C203.933 50.9635 202.347 47.5913 202.284 43.4819C202.22 39.382 203.693 35.9551 205.666 35.3505Z" fill="#FFCF8D"/>
            </g>
            <path fill-rule="evenodd" clip-rule="evenodd" d="M205.981 35.5695C203.22 24.4645 195.184 15.4082 184.066 12.524C167.314 8.1786 149.868 19.4794 145.13 37.7442C140.392 56.0091 150.145 74.3658 166.897 78.7113C183.648 83.0566 201.095 71.7558 205.833 53.4909C206 52.8471 206.149 52.2032 206.281 51.5598C204.283 51.0477 202.69 47.7004 202.619 43.6253C202.546 39.5597 204.011 36.1648 205.981 35.5695Z" fill="url(#paint70_radial_5475_375167)"/>
            <path fill-rule="evenodd" clip-rule="evenodd" d="M206.103 51.5046C188.578 53.6616 145.94 58.9089 145.94 58.9089C145.94 58.9089 140.763 56.8026 140.311 49.7894C139.904 43.4913 144.37 41.1771 144.37 41.1771L205.695 35.6751C203.871 36.4972 202.549 39.757 202.618 43.6234C202.688 47.5771 204.189 50.8453 206.103 51.5046Z" fill="url(#paint71_linear_5475_375167)"/>
            <path fill-rule="evenodd" clip-rule="evenodd" d="M179.967 90.4051L183.309 90.3574C183.309 90.3574 184.275 100.232 182.974 103.548C182.165 104.037 181.092 104.234 179.789 103.921C180.635 99.1104 179.967 90.4051 179.967 90.4051Z" fill="#000F2A"/>
            <path fill-rule="evenodd" clip-rule="evenodd" d="M178.857 89.5679C179.631 89.2648 180.631 89.082 181.723 89.082C182.814 89.082 183.814 89.2648 184.59 89.5679H186.175V91.148C186.175 92.2876 184.18 93.2128 181.723 93.2128C179.266 93.2128 177.271 92.2876 177.271 91.148V89.5679H178.857Z" fill="url(#paint72_linear_5475_375167)"/>
            <mask id="mask9_5475_375167" style="mask-type:luminance" maskUnits="userSpaceOnUse" x="177" y="89" width="10" height="5">
                <path d="M178.857 89.5679C179.631 89.2648 180.631 89.082 181.723 89.082C182.814 89.082 183.814 89.2648 184.59 89.5679H186.175V91.148C186.175 92.2876 184.18 93.2128 181.723 93.2128C179.266 93.2128 177.271 92.2876 177.271 91.148V89.5679H178.857Z" fill="white"/>
            </mask>
            <g mask="url(#mask9_5475_375167)">
                <path d="M181.722 91.7289C184.234 91.7289 186.27 90.8041 186.27 89.6633C186.27 88.5225 184.234 87.5977 181.722 87.5977C179.21 87.5977 177.174 88.5225 177.174 89.6633C177.174 90.8041 179.21 91.7289 181.722 91.7289Z" fill="#2E9FED"/>
            </g>
            <path d="M181.722 91.6332C184.18 91.6332 186.174 90.7084 186.174 89.5676C186.174 88.4268 184.18 87.502 181.722 87.502C179.263 87.502 177.27 88.4268 177.27 89.5676C177.27 90.7084 179.263 91.6332 181.722 91.6332Z" fill="#002468"/>
            <path d="M181.723 91.1451C183.956 91.1451 185.767 90.4078 185.767 89.4984C185.767 88.5889 183.956 87.8516 181.723 87.8516C179.49 87.8516 177.68 88.5889 177.68 89.4984C177.68 90.4078 179.49 91.1451 181.723 91.1451Z" fill="white"/>
            <path d="M181.723 89.4551L184.879 90.0124" stroke="#E83719" stroke-width="0.326327" stroke-miterlimit="1.5" stroke-linecap="round" stroke-linejoin="round"/>
            <path d="M181.723 89.4546L180.877 88.9688" stroke="#000F2A" stroke-width="0.650699" stroke-miterlimit="1.5" stroke-linecap="round" stroke-linejoin="round"/>
            <path d="M181.723 89.4539L183.955 88.6445" stroke="#000F2A" stroke-width="0.650699" stroke-miterlimit="1.5" stroke-linecap="round" stroke-linejoin="round"/>
            <path d="M161.775 54.769C164.762 55.2336 167.621 52.7931 168.161 49.3181C168.702 45.8431 166.719 42.6494 163.733 42.1849C160.747 41.7203 157.888 44.1608 157.347 47.6358C156.807 51.1108 158.789 54.3045 161.775 54.769Z" fill="url(#paint73_linear_5475_375167)"/>
            <mask id="mask10_5475_375167" style="mask-type:luminance" maskUnits="userSpaceOnUse" x="157" y="42" width="12" height="13">
                <path d="M161.775 54.769C164.762 55.2336 167.621 52.7931 168.161 49.3181C168.702 45.8431 166.719 42.6494 163.733 42.1849C160.747 41.7203 157.888 44.1608 157.347 47.6358C156.807 51.1108 158.789 54.3045 161.775 54.769Z" fill="white"/>
            </mask>
            <g mask="url(#mask10_5475_375167)">
                <path d="M163.355 55.4741C165.831 55.8593 168.221 53.7173 168.692 50.6897C169.163 47.6621 167.537 44.8954 165.06 44.5101C162.584 44.1248 160.194 46.2669 159.723 49.2945C159.252 52.3221 160.878 55.0888 163.355 55.4741Z" fill="black"/>
                <path d="M166.331 48.7356C166.786 48.6445 167.052 48.0752 166.925 47.4641C166.798 46.8529 166.325 46.4314 165.87 46.5225C165.414 46.6136 165.148 47.1829 165.275 47.7941C165.403 48.4052 165.875 48.8268 166.331 48.7356Z" fill="white"/>
            </g>
            <path d="M189.337 51.3904C186.64 50.913 184.928 47.8418 185.514 44.5306C186.1 41.2193 188.762 38.922 191.459 39.3994C194.157 39.8767 195.869 42.9479 195.283 46.2592C194.697 49.5704 192.035 51.8677 189.337 51.3904Z" fill="url(#paint74_linear_5475_375167)"/>
            <mask id="mask11_5475_375167" style="mask-type:luminance" maskUnits="userSpaceOnUse" x="185" y="39" width="11" height="13">
                <path d="M189.337 51.3904C186.64 50.913 184.928 47.8418 185.514 44.5306C186.1 41.2193 188.762 38.922 191.459 39.3994C194.157 39.8767 195.869 42.9479 195.283 46.2592C194.697 49.5704 192.035 51.8677 189.337 51.3904Z" fill="white"/>
            </mask>
            <g mask="url(#mask11_5475_375167)">
                <path d="M188.227 52.5214C185.99 52.1255 184.59 49.4659 185.101 46.581C185.611 43.696 187.839 41.6783 190.076 42.0742C192.313 42.4701 193.713 45.1297 193.203 48.0146C192.692 50.8995 190.465 52.9173 188.227 52.5214Z" fill="black"/>
                <path d="M191.16 46.2425C190.75 46.334 190.319 45.9332 190.197 45.3473C190.075 44.7614 190.309 44.2122 190.719 44.1207C191.129 44.0293 191.56 44.43 191.681 45.0159C191.803 45.6018 191.569 46.151 191.16 46.2425Z" fill="white"/>
            </g>
            <path fill-rule="evenodd" clip-rule="evenodd" d="M167.367 35.2558C166.723 35.4502 166.497 34.785 165.784 34.6286C165.043 34.4661 164.469 34.7042 163.997 34.3617C163.216 33.7955 163.25 32.7391 163.901 32.2314C164.504 31.7606 165.316 31.8844 166.193 32.085C167.19 32.3123 167.482 32.725 167.944 33.2504C168.463 33.8402 168.628 34.8762 167.367 35.2558Z" fill="black"/>
            <path fill-rule="evenodd" clip-rule="evenodd" d="M189.658 23.2806C189.081 23.6282 188.698 23.0393 187.969 23.0637C187.211 23.089 186.713 23.4617 186.171 23.2463C185.275 22.8903 185.047 21.8583 185.552 21.2056C186.021 20.6004 186.838 20.52 187.737 20.4978C188.759 20.4721 189.144 20.7999 189.722 21.1949C190.371 21.6383 190.786 22.6015 189.658 23.2806Z" fill="black"/>
            <path d="M176.708 67.6635C176.708 67.6635 177.674 65.5003 179.745 64.8386C182.065 64.0967 182.331 65.314 182.331 65.314" stroke="black" stroke-width="1.62772" stroke-miterlimit="1.5" stroke-linecap="round" stroke-linejoin="round"/>
            <path fill-rule="evenodd" clip-rule="evenodd" d="M177.752 0.568069L181.476 11.3305C181.476 11.3305 179.308 13.2811 170.319 14.7899C160.092 16.5068 153.431 12.9259 153.431 12.9259L155.005 3.25302L177.752 0.568069Z" fill="url(#paint75_radial_5475_375167)"/>
            <path d="M166.663 4.19617C160.386 4.98657 155.173 4.64368 155.02 3.43033C154.867 2.21698 159.833 0.592632 166.11 -0.197765C172.388 -0.988162 177.6 -0.645296 177.753 0.568054C177.906 1.7814 172.941 3.40577 166.663 4.19617Z" fill="url(#paint76_radial_5475_375167)"/>
            <path fill-rule="evenodd" clip-rule="evenodd" d="M172.444 12.0812C172.276 12.1141 172.108 12.1382 171.94 12.1677C171.724 12.2049 171.495 12.1611 171.314 12.0447C171.115 11.9215 170.979 11.7132 170.943 11.4879C170.899 11.2204 170.86 10.952 170.812 10.6852C170.523 10.7314 170.236 10.7819 169.948 10.8285C169.75 10.859 169.544 10.8177 169.375 10.7178C169.207 10.6203 169.078 10.4646 169.016 10.2851C168.99 10.2121 168.98 10.1351 168.967 10.0591C168.912 9.72924 168.857 9.39959 168.802 9.06969C168.768 8.86466 168.819 8.64652 168.944 8.4747C169.051 8.32332 169.211 8.207 169.391 8.15098C169.473 8.1249 169.557 8.11486 169.641 8.1002C169.88 8.05966 170.12 8.02113 170.359 7.97945C170.323 7.75403 170.284 7.52915 170.247 7.30392C170.233 7.21513 170.212 7.12658 170.213 7.0361C170.213 6.85568 170.278 6.67533 170.394 6.53198C170.528 6.35947 170.736 6.24352 170.956 6.21211C171.23 6.16889 171.503 6.11666 171.777 6.07154C171.897 6.05367 172.016 6.02633 172.137 6.01611C172.349 5.99739 172.566 6.05876 172.733 6.18489C172.898 6.30793 173.013 6.49185 173.047 6.69119C173.093 6.96251 173.138 7.23395 173.184 7.50523C173.476 7.45703 173.767 7.40553 174.059 7.35822C174.251 7.33432 174.45 7.37085 174.613 7.46744C174.824 7.58719 174.974 7.79837 175.013 8.03113C175.061 8.31854 175.109 8.60594 175.157 8.8933C175.181 9.05012 175.224 9.20811 175.196 9.36807C175.148 9.70668 174.862 10.0009 174.513 10.0683C174.221 10.1181 173.93 10.1654 173.638 10.2152C173.683 10.4906 173.73 10.7657 173.776 11.0409C173.802 11.225 173.762 11.4182 173.661 11.5789C173.533 11.7911 173.302 11.9424 173.051 11.9812C172.849 12.0138 172.646 12.0511 172.444 12.0812Z" fill="#E83719"/>
            <path d="M192.049 8.12442C193.069 8.12442 193.896 7.29732 193.896 6.27705C193.896 5.25677 193.069 4.42969 192.049 4.42969C191.028 4.42969 190.201 5.25677 190.201 6.27705C190.201 7.29732 191.028 8.12442 192.049 8.12442Z" fill="#2EA0ED"/>
            <path d="M198.482 8.12442C199.502 8.12442 200.329 7.29732 200.329 6.27705C200.329 5.25677 199.502 4.42969 198.482 4.42969C197.462 4.42969 196.635 5.25677 196.635 6.27705C196.635 7.29732 197.462 8.12442 198.482 8.12442Z" fill="#2EA0ED"/>
            <path d="M204.916 8.12442C205.936 8.12442 206.763 7.29732 206.763 6.27705C206.763 5.25677 205.936 4.42969 204.916 4.42969C203.895 4.42969 203.068 5.25677 203.068 6.27705C203.068 7.29732 203.895 8.12442 204.916 8.12442Z" fill="#2EA0ED"/>
        </g>
    </g>
    <defs>
        <linearGradient id="paint0_linear_5475_375167" x1="279.981" y1="68.0762" x2="279.981" y2="150.328" gradientUnits="userSpaceOnUse">
            <stop offset="0.0526068" stop-color="#D9D9D9"/>
            <stop offset="1" stop-color="#D9D9D9" stop-opacity="0"/>
        </linearGradient>
        <linearGradient id="paint1_linear_5475_375167" x1="245.875" y1="84.888" x2="240.136" y2="109.342" gradientUnits="userSpaceOnUse">
            <stop offset="0.641738" stop-color="#CAE7FF"/>
            <stop offset="1" stop-color="#F2FBFF"/>
        </linearGradient>
        <linearGradient id="paint2_linear_5475_375167" x1="285.051" y1="114.142" x2="277.651" y2="148.626" gradientUnits="userSpaceOnUse">
            <stop offset="0.641738" stop-color="#CBE9EF"/>
            <stop offset="1" stop-color="#A4DCDF"/>
        </linearGradient>
        <linearGradient id="paint3_linear_5475_375167" x1="235.943" y1="135.94" x2="260.791" y2="127.442" gradientUnits="userSpaceOnUse">
            <stop offset="0.120369" stop-color="#D0E6F8"/>
            <stop offset="1" stop-color="#E0F0FA"/>
        </linearGradient>
        <linearGradient id="paint4_linear_5475_375167" x1="210.563" y1="96.2073" x2="210.178" y2="112.561" gradientUnits="userSpaceOnUse">
            <stop offset="0.641738" stop-color="#DAE9F5"/>
            <stop offset="1" stop-color="#E7F8FF"/>
        </linearGradient>
        <linearGradient id="paint5_linear_5475_375167" x1="210.563" y1="108.246" x2="210.563" y2="125.705" gradientUnits="userSpaceOnUse">
            <stop offset="0.641738" stop-color="#D3EFF1"/>
            <stop offset="1" stop-color="#C8E8EE"/>
        </linearGradient>
        <linearGradient id="paint6_linear_5475_375167" x1="211.116" y1="118.5" x2="219.624" y2="116.997" gradientUnits="userSpaceOnUse">
            <stop offset="0.120369" stop-color="#CFE6F8"/>
            <stop offset="1" stop-color="#DAE9F5"/>
        </linearGradient>
        <linearGradient id="paint7_linear_5475_375167" x1="132.073" y1="76" x2="132.073" y2="147.013" gradientUnits="userSpaceOnUse">
            <stop offset="0.0526068" stop-color="#D9D9D9"/>
            <stop offset="1" stop-color="#D9D9D9" stop-opacity="0"/>
        </linearGradient>
        <linearGradient id="paint8_linear_5475_375167" x1="86.5817" y1="95.9869" x2="88.4132" y2="117.596" gradientUnits="userSpaceOnUse">
            <stop offset="0.641738" stop-color="#CAE7FF"/>
            <stop offset="1" stop-color="#F2FBFF"/>
        </linearGradient>
        <linearGradient id="paint9_linear_5475_375167" x1="126.566" y1="109.519" x2="129.718" y2="139.805" gradientUnits="userSpaceOnUse">
            <stop offset="0.641738" stop-color="#CBE9EF"/>
            <stop offset="1" stop-color="#A4DCDF"/>
        </linearGradient>
        <linearGradient id="paint10_linear_5475_375167" x1="92.0877" y1="140.551" x2="110.21" y2="126.928" gradientUnits="userSpaceOnUse">
            <stop offset="0.120369" stop-color="#D0E6F8"/>
            <stop offset="1" stop-color="#E0F0FA"/>
        </linearGradient>
        <linearGradient id="paint11_linear_5475_375167" x1="107.945" y1="105.58" x2="107.668" y2="117.307" gradientUnits="userSpaceOnUse">
            <stop offset="0.641738" stop-color="#DAE9F5"/>
            <stop offset="1" stop-color="#E7F8FF"/>
        </linearGradient>
        <linearGradient id="paint12_linear_5475_375167" x1="107.941" y1="114.213" x2="107.941" y2="126.732" gradientUnits="userSpaceOnUse">
            <stop offset="0.641738" stop-color="#D3EFF1"/>
            <stop offset="1" stop-color="#C8E8EE"/>
        </linearGradient>
        <linearGradient id="paint13_linear_5475_375167" x1="108.337" y1="121.566" x2="114.439" y2="120.488" gradientUnits="userSpaceOnUse">
            <stop offset="0.120369" stop-color="#CFE6F8"/>
            <stop offset="1" stop-color="#DAE9F5"/>
        </linearGradient>
        <linearGradient id="paint14_linear_5475_375167" x1="157.849" y1="126.287" x2="158.197" y2="161.337" gradientUnits="userSpaceOnUse">
            <stop stop-color="#F5DCAB"/>
            <stop offset="1" stop-color="#F5EEAB" stop-opacity="0"/>
        </linearGradient>
        <linearGradient id="paint15_linear_5475_375167" x1="40.2787" y1="98.4384" x2="37.6188" y2="148.574" gradientUnits="userSpaceOnUse">
            <stop offset="0.310766" stop-color="#FFD68A"/>
            <stop offset="0.991928" stop-color="#FE7321"/>
        </linearGradient>
        <linearGradient id="paint16_linear_5475_375167" x1="41.6471" y1="128.226" x2="20.6903" y2="128.518" gradientUnits="userSpaceOnUse">
            <stop offset="0.43" stop-color="#EFD03D"/>
            <stop offset="0.65" stop-color="#F05123"/>
        </linearGradient>
        <linearGradient id="paint17_linear_5475_375167" x1="28.2616" y1="128.171" x2="19.0593" y2="127.961" gradientUnits="userSpaceOnUse">
            <stop stop-color="#EFD03D"/>
            <stop offset="0.6" stop-color="#F1822B"/>
        </linearGradient>
        <linearGradient id="paint18_linear_5475_375167" x1="21.5581" y1="127.271" x2="28.6952" y2="129.537" gradientUnits="userSpaceOnUse">
            <stop stop-color="white"/>
            <stop offset="1" stop-color="#E4E4E4"/>
        </linearGradient>
        <linearGradient id="paint19_linear_5475_375167" x1="20.7056" y1="125.615" x2="27.3859" y2="129.831" gradientUnits="userSpaceOnUse">
            <stop stop-color="white"/>
            <stop offset="1" stop-color="#D9D9D8"/>
        </linearGradient>
        <linearGradient id="paint20_linear_5475_375167" x1="49.3523" y1="117.605" x2="35.3416" y2="148.324" gradientUnits="userSpaceOnUse">
            <stop offset="0.177173" stop-color="#FDD396"/>
            <stop offset="0.623119" stop-color="#FF7F33"/>
        </linearGradient>
        <linearGradient id="paint21_linear_5475_375167" x1="37.3922" y1="137.67" x2="51.8826" y2="124.844" gradientUnits="userSpaceOnUse">
            <stop stop-color="#FEB03E"/>
            <stop offset="1" stop-color="#FF7F33"/>
        </linearGradient>
        <linearGradient id="paint22_linear_5475_375167" x1="55.9662" y1="116.21" x2="60.628" y2="135.18" gradientUnits="userSpaceOnUse">
            <stop stop-color="#FFA876"/>
            <stop offset="0.77" stop-color="#FFC36B"/>
            <stop offset="0.928599" stop-color="#FF7F33"/>
        </linearGradient>
        <radialGradient id="paint23_radial_5475_375167" cx="0" cy="0" r="1" gradientUnits="userSpaceOnUse" gradientTransform="translate(55.7391 117.965) rotate(109.398) scale(4.83786 16.9091)">
            <stop stop-color="#FCE7C0"/>
            <stop offset="0.77" stop-color="#FFCE74" stop-opacity="0"/>
        </radialGradient>
        <linearGradient id="paint24_linear_5475_375167" x1="42.7821" y1="125.994" x2="37.8873" y2="131.739" gradientUnits="userSpaceOnUse">
            <stop stop-color="#C1D9FF"/>
            <stop offset="1" stop-color="#E3F1F5" stop-opacity="0.68"/>
        </linearGradient>
        <linearGradient id="paint25_linear_5475_375167" x1="34.9234" y1="140.064" x2="35.3042" y2="141.405" gradientUnits="userSpaceOnUse">
            <stop stop-color="#FCE7C0"/>
            <stop offset="1" stop-color="#FEB03E"/>
        </linearGradient>
        <linearGradient id="paint26_linear_5475_375167" x1="56.1879" y1="134.026" x2="56.5687" y2="135.368" gradientUnits="userSpaceOnUse">
            <stop stop-color="#FFC6A5"/>
            <stop offset="1" stop-color="#FF7F33"/>
        </linearGradient>
        <linearGradient id="paint27_linear_5475_375167" x1="66.7262" y1="132.658" x2="67.6421" y2="127.457" gradientUnits="userSpaceOnUse">
            <stop stop-color="#C1D9FF"/>
            <stop offset="1" stop-color="#E3F1F5"/>
        </linearGradient>
        <linearGradient id="paint28_linear_5475_375167" x1="64.828" y1="125.291" x2="63.0306" y2="129.353" gradientUnits="userSpaceOnUse">
            <stop stop-color="#FFFEFD"/>
            <stop offset="1" stop-color="#FFFEFD" stop-opacity="0"/>
        </linearGradient>
        <linearGradient id="paint29_linear_5475_375167" x1="65.2464" y1="125.896" x2="64.0567" y2="129.678" gradientUnits="userSpaceOnUse">
            <stop stop-color="#FFFEFD"/>
            <stop offset="1" stop-color="#FFFEFD" stop-opacity="0"/>
        </linearGradient>
        <linearGradient id="paint30_linear_5475_375167" x1="53.7555" y1="136.627" x2="54.6714" y2="131.425" gradientUnits="userSpaceOnUse">
            <stop stop-color="#C1D9FF"/>
            <stop offset="1" stop-color="#E3F1F5"/>
        </linearGradient>
        <linearGradient id="paint31_linear_5475_375167" x1="51.7533" y1="129.486" x2="50.0635" y2="133.322" gradientUnits="userSpaceOnUse">
            <stop stop-color="#FFFEFD"/>
            <stop offset="1" stop-color="#FFFEFD" stop-opacity="0"/>
        </linearGradient>
        <linearGradient id="paint32_linear_5475_375167" x1="52.5525" y1="129.742" x2="51.0903" y2="133.649" gradientUnits="userSpaceOnUse">
            <stop stop-color="#FFFEFD"/>
            <stop offset="1" stop-color="#FFFEFD" stop-opacity="0"/>
        </linearGradient>
        <linearGradient id="paint33_linear_5475_375167" x1="41.1021" y1="137.969" x2="55.7559" y2="118.084" gradientUnits="userSpaceOnUse">
            <stop stop-color="#C1D9FF"/>
            <stop offset="1" stop-color="#E3F1F5"/>
        </linearGradient>
        <linearGradient id="paint34_linear_5475_375167" x1="56.7384" y1="113.817" x2="52.3815" y2="125.692" gradientUnits="userSpaceOnUse">
            <stop stop-color="#FFFEFD"/>
            <stop offset="1" stop-color="#FFFEFD" stop-opacity="0"/>
        </linearGradient>
        <linearGradient id="paint35_linear_5475_375167" x1="53.4418" y1="114.995" x2="49.1176" y2="126.136" gradientUnits="userSpaceOnUse">
            <stop stop-color="#FFFEFD"/>
            <stop offset="1" stop-color="#FFFEFD" stop-opacity="0"/>
        </linearGradient>
        <linearGradient id="paint36_linear_5475_375167" x1="59.2907" y1="115.991" x2="55.7302" y2="126.193" gradientUnits="userSpaceOnUse">
            <stop stop-color="#FFFEFD"/>
            <stop offset="1" stop-color="#FFFEFD" stop-opacity="0"/>
        </linearGradient>
        <linearGradient id="paint37_linear_5475_375167" x1="69.687" y1="40.7813" x2="67.188" y2="47.8837" gradientUnits="userSpaceOnUse">
            <stop stop-color="white"/>
            <stop offset="1" stop-color="white" stop-opacity="0"/>
        </linearGradient>
        <linearGradient id="paint38_linear_5475_375167" x1="295.082" y1="51.4406" x2="290.883" y2="63.3848" gradientUnits="userSpaceOnUse">
            <stop stop-color="white"/>
            <stop offset="1" stop-color="white" stop-opacity="0"/>
        </linearGradient>
        <linearGradient id="paint39_linear_5475_375167" x1="224.634" y1="59.0879" x2="222.956" y2="63.6602" gradientUnits="userSpaceOnUse">
            <stop stop-color="white"/>
            <stop offset="1" stop-color="white" stop-opacity="0"/>
        </linearGradient>
        <radialGradient id="paint40_radial_5475_375167" cx="0" cy="0" r="1" gradientUnits="userSpaceOnUse" gradientTransform="translate(195.651 92.0424) rotate(-38.6828) scale(10.9002 20.2238)">
            <stop stop-color="white"/>
            <stop offset="0.58" stop-color="#F4F7FC"/>
            <stop offset="0.8" stop-color="#DDE6F5"/>
            <stop offset="1" stop-color="#C6D6EF"/>
        </radialGradient>
        <linearGradient id="paint41_linear_5475_375167" x1="183.634" y1="134.835" x2="185.579" y2="128.802" gradientUnits="userSpaceOnUse">
            <stop stop-color="#FF9036"/>
            <stop offset="1" stop-color="#FFBF67"/>
        </linearGradient>
        <linearGradient id="paint42_linear_5475_375167" x1="184.857" y1="126.077" x2="185.27" y2="132.383" gradientUnits="userSpaceOnUse">
            <stop stop-color="#F26F21"/>
            <stop offset="0.56" stop-color="#FBA752" stop-opacity="0.3"/>
            <stop offset="1" stop-color="#FFBF67" stop-opacity="0"/>
        </linearGradient>
        <linearGradient id="paint43_linear_5475_375167" x1="159.433" y1="136.653" x2="156.266" y2="129.975" gradientUnits="userSpaceOnUse">
            <stop stop-color="#FF9036"/>
            <stop offset="1" stop-color="#FFBF67"/>
        </linearGradient>
        <linearGradient id="paint44_linear_5475_375167" x1="158.702" y1="126.697" x2="158.209" y2="132.135" gradientUnits="userSpaceOnUse">
            <stop stop-color="#F26F21"/>
            <stop offset="1" stop-color="#FFBF67" stop-opacity="0"/>
        </linearGradient>
        <linearGradient id="paint45_linear_5475_375167" x1="172.724" y1="123.475" x2="174.738" y2="107.66" gradientUnits="userSpaceOnUse">
            <stop stop-color="#002468"/>
            <stop offset="1" stop-color="#000F2A"/>
        </linearGradient>
        <linearGradient id="paint46_linear_5475_375167" x1="172.723" y1="123.476" x2="174.737" y2="107.661" gradientUnits="userSpaceOnUse">
            <stop stop-color="#002468"/>
            <stop offset="1" stop-color="#000F2A"/>
        </linearGradient>
        <radialGradient id="paint47_radial_5475_375167" cx="0" cy="0" r="1" gradientUnits="userSpaceOnUse" gradientTransform="translate(173.636 95.4354) rotate(-1.54182) scale(26.5162 30.1896)">
            <stop stop-color="white"/>
            <stop offset="0.57" stop-color="#F4F7FC"/>
            <stop offset="0.79" stop-color="#DCE6F5"/>
            <stop offset="1" stop-color="#C6D6EF"/>
        </radialGradient>
        <linearGradient id="paint48_linear_5475_375167" x1="173.386" y1="105.098" x2="178.168" y2="105.21" gradientUnits="userSpaceOnUse">
            <stop stop-color="white" stop-opacity="0"/>
            <stop offset="1" stop-color="#8295B5"/>
        </linearGradient>
        <linearGradient id="paint49_linear_5475_375167" x1="178.001" y1="84.2353" x2="177.583" y2="75.2192" gradientUnits="userSpaceOnUse">
            <stop stop-color="white"/>
            <stop offset="0.48" stop-color="#E9EDF5"/>
            <stop offset="1" stop-color="#ADBDD8"/>
        </linearGradient>
        <linearGradient id="paint50_linear_5475_375167" x1="178.001" y1="84.2347" x2="177.583" y2="75.2186" gradientUnits="userSpaceOnUse">
            <stop stop-color="white"/>
            <stop offset="0.48" stop-color="#E9EDF5"/>
            <stop offset="1" stop-color="#ADBDD8"/>
        </linearGradient>
        <linearGradient id="paint51_linear_5475_375167" x1="176.466" y1="85.2599" x2="176.081" y2="79.1135" gradientUnits="userSpaceOnUse">
            <stop stop-color="#FF9036"/>
            <stop offset="0.54" stop-color="#FC8931"/>
            <stop offset="1" stop-color="#F26F21"/>
        </linearGradient>
        <linearGradient id="paint52_linear_5475_375167" x1="174.738" y1="87.3342" x2="180.691" y2="87.8775" gradientUnits="userSpaceOnUse">
            <stop stop-color="#2EA0ED"/>
            <stop offset="0.5" stop-color="#2895E5"/>
            <stop offset="1" stop-color="#1573CD"/>
        </linearGradient>
        <radialGradient id="paint53_radial_5475_375167" cx="0" cy="0" r="1" gradientUnits="userSpaceOnUse" gradientTransform="translate(194.085 108.155) rotate(107.222) scale(15.3385 16.9685)">
            <stop stop-color="#021E59"/>
            <stop offset="0.49" stop-color="#062F73"/>
            <stop offset="1" stop-color="#135FC0"/>
        </radialGradient>
        <radialGradient id="paint54_radial_5475_375167" cx="0" cy="0" r="1" gradientUnits="userSpaceOnUse" gradientTransform="translate(191.381 105.471) rotate(-179) scale(12.6113 10.8452)">
            <stop stop-color="#2E9FED"/>
            <stop offset="0.51" stop-color="#2890E2"/>
            <stop offset="1" stop-color="#135FC0"/>
        </radialGradient>
        <linearGradient id="paint55_linear_5475_375167" x1="181.295" y1="111.589" x2="208.778" y2="109.618" gradientUnits="userSpaceOnUse">
            <stop stop-color="white"/>
            <stop offset="0.57" stop-color="#F6F8FC"/>
            <stop offset="0.79" stop-color="#E3EBF7"/>
            <stop offset="1" stop-color="#D1DEF2"/>
        </linearGradient>
        <linearGradient id="paint56_linear_5475_375167" x1="181.296" y1="111.589" x2="208.779" y2="109.618" gradientUnits="userSpaceOnUse">
            <stop stop-color="white"/>
            <stop offset="0.57" stop-color="#F6F8FC"/>
            <stop offset="0.79" stop-color="#E3EBF7"/>
            <stop offset="1" stop-color="#D1DEF2"/>
        </linearGradient>
        <linearGradient id="paint57_linear_5475_375167" x1="208.85" y1="111.161" x2="200.947" y2="110.027" gradientUnits="userSpaceOnUse">
            <stop stop-color="#EFD03D"/>
            <stop offset="0.43" stop-color="#EFD03D"/>
            <stop offset="0.65" stop-color="#F05123"/>
            <stop offset="1" stop-color="#F05123"/>
        </linearGradient>
        <linearGradient id="paint58_linear_5475_375167" x1="203.865" y1="110.056" x2="200.406" y2="109.46" gradientUnits="userSpaceOnUse">
            <stop stop-color="#EFD03D"/>
            <stop offset="0.6" stop-color="#F1822B"/>
            <stop offset="1" stop-color="#F1822B"/>
        </linearGradient>
        <linearGradient id="paint59_linear_5475_375167" x1="201.436" y1="109.145" x2="204.107" y2="110.263" gradientUnits="userSpaceOnUse">
            <stop stop-color="white"/>
            <stop offset="1" stop-color="#E4E4E4"/>
        </linearGradient>
        <linearGradient id="paint60_linear_5475_375167" x1="201.243" y1="108.397" x2="203.778" y2="110.21" gradientUnits="userSpaceOnUse">
            <stop stop-color="white"/>
            <stop offset="1" stop-color="#D9D9D8"/>
        </linearGradient>
        <linearGradient id="paint61_linear_5475_375167" x1="210.139" y1="113.645" x2="202.558" y2="110.922" gradientUnits="userSpaceOnUse">
            <stop stop-color="#EFD03D"/>
            <stop offset="0.21" stop-color="#EFD03D"/>
            <stop offset="0.61" stop-color="#F05123"/>
            <stop offset="1" stop-color="#F05123"/>
        </linearGradient>
        <radialGradient id="paint62_radial_5475_375167" cx="0" cy="0" r="1" gradientUnits="userSpaceOnUse" gradientTransform="translate(158.405 91.501) rotate(-100.824) scale(23.1857 14.1075)">
            <stop stop-color="white"/>
            <stop offset="0.48" stop-color="#E5EAF3"/>
            <stop offset="1" stop-color="#A0B2D3"/>
        </radialGradient>
        <linearGradient id="paint63_linear_5475_375167" x1="179.786" y1="95.9668" x2="151.739" y2="75.3112" gradientUnits="userSpaceOnUse">
            <stop stop-color="#10509F"/>
            <stop offset="0.1" stop-color="#125FB2"/>
            <stop offset="0.2" stop-color="#146DC5"/>
            <stop offset="0.52" stop-color="#1573CD"/>
            <stop offset="0.8" stop-color="#1A7BD3"/>
            <stop offset="0.91" stop-color="#248EE0"/>
            <stop offset="1" stop-color="#2EA1EE"/>
        </linearGradient>
        <linearGradient id="paint64_linear_5475_375167" x1="182.675" y1="104.02" x2="187.257" y2="91.8119" gradientUnits="userSpaceOnUse">
            <stop stop-color="#FF9036"/>
            <stop offset="1" stop-color="#FFBF67"/>
        </linearGradient>
        <linearGradient id="paint65_linear_5475_375167" x1="176.18" y1="97.6836" x2="181.954" y2="96.8902" gradientUnits="userSpaceOnUse">
            <stop stop-color="#F26F21"/>
            <stop offset="1" stop-color="#FFBF67" stop-opacity="0"/>
        </linearGradient>
        <radialGradient id="paint66_radial_5475_375167" cx="0" cy="0" r="1" gradientUnits="userSpaceOnUse" gradientTransform="translate(191.597 103.368) rotate(-91.9855) scale(7.70133 5.31904)">
            <stop stop-color="#F26F21"/>
            <stop offset="0.56" stop-color="#F57F2F" stop-opacity="0.8"/>
            <stop offset="1" stop-color="#FFBF67" stop-opacity="0"/>
        </radialGradient>
        <linearGradient id="paint67_linear_5475_375167" x1="192.119" y1="106.757" x2="194.852" y2="98.7755" gradientUnits="userSpaceOnUse">
            <stop stop-color="#FF9036"/>
            <stop offset="1" stop-color="#FFBF67"/>
        </linearGradient>
        <radialGradient id="paint68_radial_5475_375167" cx="0" cy="0" r="1" gradientUnits="userSpaceOnUse" gradientTransform="translate(166.941 96.4496) rotate(-176.684) scale(27.3979 14.0305)">
            <stop stop-color="white"/>
            <stop offset="0.48" stop-color="#E6EBF3"/>
            <stop offset="1" stop-color="#A0B2D3"/>
        </radialGradient>
        <linearGradient id="paint69_linear_5475_375167" x1="162.415" y1="39.6872" x2="163.065" y2="75.256" gradientUnits="userSpaceOnUse">
            <stop stop-color="#F26F21"/>
            <stop offset="0.44" stop-color="#EB641D"/>
            <stop offset="1" stop-color="#DB4C15"/>
        </linearGradient>
        <radialGradient id="paint70_radial_5475_375167" cx="0" cy="0" r="1" gradientUnits="userSpaceOnUse" gradientTransform="translate(188.521 39.3369) rotate(-137.962) scale(33.2384 52.9052)">
            <stop stop-color="#FFBF67"/>
            <stop offset="0.61" stop-color="#FFB75F"/>
            <stop offset="0.82" stop-color="#FFA44B"/>
            <stop offset="1" stop-color="#FF9036"/>
        </radialGradient>
        <linearGradient id="paint71_linear_5475_375167" x1="174.92" y1="55.0492" x2="173.324" y2="39.1287" gradientUnits="userSpaceOnUse">
            <stop stop-color="#FD9E48"/>
            <stop offset="0.45" stop-color="#F99543"/>
            <stop offset="1" stop-color="#EE8138"/>
        </linearGradient>
        <linearGradient id="paint72_linear_5475_375167" x1="179.791" y1="92.2967" x2="186.801" y2="91.3128" gradientUnits="userSpaceOnUse">
            <stop stop-color="#002468"/>
            <stop offset="0.52" stop-color="#04327C"/>
            <stop offset="1" stop-color="#135FC0"/>
        </linearGradient>
        <linearGradient id="paint73_linear_5475_375167" x1="162.579" y1="54.2626" x2="162.922" y2="43.2279" gradientUnits="userSpaceOnUse">
            <stop stop-color="white"/>
            <stop offset="0.56" stop-color="#F7FAFD"/>
            <stop offset="1" stop-color="#D8E5F5"/>
        </linearGradient>
        <linearGradient id="paint74_linear_5475_375167" x1="193.396" y1="51.8099" x2="193.396" y2="51.8099" gradientUnits="userSpaceOnUse">
            <stop stop-color="white"/>
            <stop offset="0.56" stop-color="#F7FAFD"/>
            <stop offset="1" stop-color="#D8E5F5"/>
        </linearGradient>
        <radialGradient id="paint75_radial_5475_375167" cx="0" cy="0" r="1" gradientUnits="userSpaceOnUse" gradientTransform="translate(170.843 9.15466) rotate(179.076) scale(19.4507 9.6311)">
            <stop stop-color="white"/>
            <stop offset="0.48" stop-color="#F0F4FB"/>
            <stop offset="1" stop-color="#C6D6EF"/>
        </radialGradient>
        <radialGradient id="paint76_radial_5475_375167" cx="0" cy="0" r="1" gradientUnits="userSpaceOnUse" gradientTransform="translate(166.764 2.04434) rotate(-7.60601) scale(12.5958 3.08106)">
            <stop stop-color="white"/>
            <stop offset="0.54" stop-color="#F3F6FC"/>
            <stop offset="1" stop-color="#C6D6EF"/>
        </radialGradient>
        <clipPath id="clip0_5475_375167">
            <rect width="140" height="140" fill="white" transform="translate(102 -1.99805)"/>
        </clipPath>
    </defs>
</svg>
