<svg width="46" height="46" viewBox="0 0 46 46" fill="none"
    xmlns="http://www.w3.org/2000/svg">
    <rect x="1.76953" y="1.26953" width="42.5" height="42.5" rx="21.25" fill="white"/>
    <path d="M7.17555 21.002C7.4123 21.2363 7.53068 21.5545 7.53068 21.9559V23.8829H6.68298V22.0568C6.68298 21.8516 6.62408 21.6906 6.5057 21.5732C6.39194 21.4646 6.23372 21.41 6.03219 21.41C5.55001 21.41 5.30922 21.6697 5.30922 22.1885V23.8829H4.46094V20.7445H5.30864V21.0957C5.51017 20.8029 5.83643 20.6562 6.288 20.6562C6.6518 20.6562 6.94745 20.7715 7.17555 21.0014V21.002Z" fill="#F05123"/>
    <path d="M10.9679 21.0055C11.2047 21.2399 11.3231 21.558 11.3231 21.9594V23.8865H10.4754V22.0603C10.4754 21.8552 10.4165 21.6942 10.2981 21.5768C10.1843 21.4682 10.0261 21.4136 9.82458 21.4136C9.34241 21.4136 9.10161 21.6733 9.10161 22.1921V23.8865H8.25391V19.5918H9.10161V21.0998C9.30314 20.807 9.6294 20.6604 10.081 20.6604C10.4448 20.6604 10.7404 20.7756 10.9685 21.0055H10.9679Z" fill="#F05123"/>
    <path d="M14.5434 21.115V20.7445H15.3911V23.8829H14.5434V23.5124C14.2893 23.8179 13.9319 23.9706 13.4722 23.9706C13.0126 23.9706 12.6569 23.8118 12.3416 23.4937C12.0303 23.1717 11.875 22.778 11.875 22.3137C11.875 21.8494 12.0303 21.4624 12.3416 21.1398C12.6569 20.8178 13.0339 20.6562 13.4722 20.6562C13.9325 20.6562 14.2893 20.809 14.5434 21.1144V21.115ZM13.6299 23.1987C13.8926 23.1987 14.1097 23.1171 14.2807 22.9539C14.4556 22.7868 14.5434 22.5734 14.5434 22.3137C14.5434 22.054 14.4556 21.8428 14.2807 21.6796C14.1097 21.5125 13.8926 21.4287 13.6299 21.4287C13.3671 21.4287 13.15 21.5125 12.9791 21.6796C12.8082 21.8428 12.7227 22.054 12.7227 22.3137C12.7227 22.5734 12.8082 22.7868 12.9791 22.9539C13.15 23.1171 13.3671 23.1987 13.6299 23.1987Z" fill="#F05123"/>
    <path d="M19.1018 21.1393C19.4171 21.4613 19.5753 21.8528 19.5753 22.3132C19.5753 22.7736 19.4176 23.175 19.1018 23.4931C18.7951 23.8113 18.4181 23.9701 17.9711 23.9701C17.5242 23.9701 17.1558 23.8173 16.9063 23.5119V25.7312H16.0586V20.7439H16.9063V21.1144C17.1563 20.809 17.5109 20.6562 17.9711 20.6562C18.4313 20.6562 18.7905 20.8173 19.1018 21.1398V21.1393ZM17.8135 23.1981C18.0762 23.1981 18.2933 23.1165 18.4643 22.9533C18.6392 22.7862 18.727 22.5729 18.727 22.3132C18.727 22.0535 18.6392 21.8423 18.4643 21.6791C18.2933 21.512 18.0762 21.4282 17.8135 21.4282C17.5507 21.4282 17.3336 21.512 17.1627 21.6791C16.9918 21.8423 16.9063 22.0535 16.9063 22.3132C16.9063 22.5729 16.9918 22.7862 17.1627 22.9533C17.3336 23.1165 17.5507 23.1981 17.8135 23.1981Z" fill="#F05123"/>
    <path d="M21.979 20.7486V21.5271H21.2364V22.8328C21.2364 22.9834 21.2999 23.082 21.4269 23.1278C21.5147 23.157 21.6983 23.1653 21.979 23.1526V23.8871C21.4004 23.9499 20.9909 23.8975 20.7496 23.7299C20.5088 23.5667 20.3881 23.2679 20.3881 22.8323V21.5266H19.8164V20.748H20.3881V20.114L21.2358 19.8691V20.748H21.9784L21.979 20.7486Z" fill="#F05123"/>
    <path d="M25.2927 21.0055C25.5295 21.2399 25.6473 21.558 25.6473 21.9594V23.8865H24.7996V22.0603C24.7996 21.8552 24.7407 21.6942 24.6223 21.5768C24.5086 21.4682 24.3509 21.4136 24.1488 21.4136C23.6666 21.4136 23.4258 21.6733 23.4258 22.1921V23.8865H22.5781V19.5918H23.4258V21.0998C23.6274 20.807 23.9536 20.6604 24.4052 20.6604C24.769 20.6604 25.0646 20.7756 25.2927 21.0055Z" fill="#F05123"/>
    <path d="M28.5398 22.4391V20.7447H29.3875V23.8832H28.5398V23.5319C28.3383 23.8247 28.0115 23.9714 27.5605 23.9714C27.2013 23.9714 26.9033 23.8561 26.6666 23.6262C26.4344 23.3919 26.3184 23.0737 26.3184 22.6723V20.7441H27.1661V22.5703C27.1661 22.7754 27.2255 22.9364 27.3433 23.0539C27.4571 23.1625 27.6147 23.2171 27.8169 23.2171C28.299 23.2171 28.5398 22.9579 28.5398 22.4385V22.4391Z" fill="#F05123"/>
    <path d="M33.7342 25.7229C35.8162 25.6757 37.4633 24.0049 37.4133 21.9911C37.3632 19.9772 35.6349 18.383 33.5529 18.4302C31.471 18.4774 29.8238 20.1482 29.8739 22.162C29.9239 24.1758 31.6523 25.7701 33.7342 25.7229Z" fill="url(#paint0_linear_3574_519775)"/>
    <path d="M32.6101 18.5611C31.7844 18.7988 31.2514 19.1676 30.7819 19.7152C30.7675 19.7168 30.76 19.7174 30.76 19.7174L30.3373 20.2996C30.3373 20.2996 28.9566 22.5366 30.9575 24.6307L36.311 19.493C35.3576 18.5716 33.9175 18.1845 32.6107 18.5606L32.6101 18.5611Z" fill="url(#paint1_linear_3574_519775)"/>
    <path d="M35.6218 23.281C34.9006 24.3253 33.4287 24.6131 32.335 23.9239C31.2419 23.2347 30.9404 21.8292 31.6622 20.7854C32.3835 19.7411 33.8554 19.4533 34.9497 20.1425C36.0428 20.8312 36.3442 22.2367 35.6224 23.281H35.6218Z" fill="url(#paint2_linear_3574_519775)"/>
    <g style="mix-blend-mode:screen">
        <path d="M35.556 20.7566L32.2495 23.9248L32.0566 23.878L35.4082 20.6777L35.556 20.7566Z" fill="#E6E8E2"/>
    </g>
    <g style="mix-blend-mode:multiply">
        <path d="M35.5548 20.7586L32.2853 23.8915L31.9336 23.7018L35.2794 20.4961L35.5548 20.7586Z" fill="#E6E8E2"/>
    </g>
    <path d="M34.9573 24.0641C34.131 24.551 33.0736 24.5356 32.2635 24.025C31.112 23.2988 30.7939 21.8139 31.5538 20.7145C31.7559 20.4217 32.0163 20.1802 32.327 19.9971C33.1533 19.5103 34.2106 19.5262 35.0208 20.0363C35.5786 20.3875 35.9592 20.9257 36.0931 21.5509C36.2271 22.1762 36.0983 22.8136 35.7299 23.3462C35.5278 23.639 35.2674 23.8805 34.9567 24.063L34.9573 24.0641ZM32.4633 20.2089C32.1849 20.3726 31.9522 20.5888 31.7703 20.8518C31.0889 21.8371 31.3748 23.1681 32.4067 23.8188C33.1325 24.2764 34.0807 24.2896 34.821 23.8535C35.0993 23.6897 35.3321 23.4736 35.514 23.2106C35.8437 22.7331 35.9598 22.1619 35.8396 21.6017C35.7195 21.0414 35.3783 20.559 34.8782 20.2441C34.1517 19.7865 33.2041 19.7727 32.4633 20.2089Z" fill="url(#paint3_linear_3574_519775)"/>
    <path d="M41.2927 24.4199H37.6767C37.5198 24.4199 37.3926 24.5414 37.3926 24.6912V25.4725C37.3926 25.6223 37.5198 25.7438 37.6767 25.7438H41.2927C41.4496 25.7438 41.5768 25.6223 41.5768 25.4725V24.6912C41.5768 24.5414 41.4496 24.4199 41.2927 24.4199Z" fill="url(#paint4_linear_3574_519775)"/>
    <path d="M37.9966 25.48C37.9752 25.4596 37.9648 25.4348 37.9648 25.4044C37.9648 25.3741 37.9752 25.3488 37.9966 25.3295C38.018 25.3102 38.044 25.3008 38.0746 25.3008C38.1052 25.3008 38.1311 25.3102 38.1525 25.3295C38.1733 25.3488 38.1843 25.3736 38.1843 25.4044C38.1843 25.4353 38.1739 25.4596 38.1525 25.48C38.1311 25.5004 38.1052 25.5103 38.0746 25.5103C38.044 25.5103 38.0174 25.5004 37.9966 25.48Z" fill="white"/>
    <path d="M38.4538 25.4655C38.3885 25.4319 38.3371 25.3856 38.3002 25.326C38.2626 25.2665 38.2441 25.1997 38.2441 25.1248C38.2441 25.0498 38.2626 24.983 38.3002 24.9235C38.3377 24.8639 38.3885 24.8176 38.4538 24.7846C38.519 24.7509 38.5923 24.7344 38.6738 24.7344C38.7425 24.7344 38.8043 24.746 38.8597 24.7691C38.9151 24.7923 38.9613 24.8254 38.9994 24.8684L38.8816 24.972C38.8279 24.913 38.7615 24.8832 38.6824 24.8832C38.6333 24.8832 38.59 24.8937 38.5513 24.9141C38.5127 24.9345 38.4832 24.9632 38.4613 25.0001C38.4399 25.0371 38.4289 25.0784 38.4289 25.1253C38.4289 25.1722 38.4399 25.2141 38.4613 25.2505C38.4826 25.2869 38.5127 25.3155 38.5513 25.3365C38.59 25.3569 38.6333 25.3674 38.6824 25.3674C38.7615 25.3674 38.8279 25.3376 38.8816 25.278L38.9994 25.3817C38.9619 25.4258 38.9151 25.4589 38.8591 25.482C38.8031 25.5052 38.7413 25.5168 38.6726 25.5168C38.5918 25.5168 38.519 25.5002 38.4538 25.4666V25.4655Z" fill="white"/>
    <path d="M39.2655 25.465C39.1996 25.4313 39.1477 25.3845 39.1107 25.3249C39.0732 25.2654 39.0547 25.1986 39.0547 25.1248C39.0547 25.0509 39.0732 24.9842 39.1107 24.9246C39.1482 24.8651 39.1996 24.8187 39.2655 24.7851C39.3313 24.7515 39.4052 24.7344 39.4878 24.7344C39.5703 24.7344 39.6437 24.7515 39.7095 24.7851C39.7753 24.8187 39.8267 24.8656 39.8643 24.9246C39.9018 24.9836 39.9209 25.0509 39.9209 25.1248C39.9209 25.1986 39.9018 25.2654 39.8643 25.3249C39.8267 25.3845 39.7748 25.4308 39.7095 25.465C39.6443 25.4986 39.5703 25.5157 39.4878 25.5157C39.4052 25.5157 39.3319 25.4986 39.2655 25.465ZM39.6142 25.3359C39.6518 25.3155 39.6812 25.2869 39.7032 25.2499C39.7251 25.213 39.7355 25.1716 39.7355 25.1248C39.7355 25.0779 39.7245 25.0365 39.7032 24.9996C39.6818 24.9626 39.6523 24.9345 39.6142 24.9136C39.5767 24.8932 39.5345 24.8827 39.4878 24.8827C39.441 24.8827 39.3988 24.8932 39.3613 24.9136C39.3238 24.934 39.2943 24.9626 39.2724 24.9996C39.251 25.0365 39.24 25.0779 39.24 25.1248C39.24 25.1716 39.251 25.2135 39.2724 25.2499C39.2938 25.2863 39.3232 25.315 39.3613 25.3359C39.3988 25.3563 39.441 25.3668 39.4878 25.3668C39.5345 25.3668 39.5767 25.3563 39.6142 25.3359Z" fill="white"/>
    <path d="M40.78 25.502L40.7789 25.0488L40.5462 25.4221H40.4636L40.232 25.0582V25.5015H40.0605V24.7461H40.2118L40.5081 25.2153L40.7997 24.7461H40.9498L40.9521 25.5015H40.7806L40.78 25.502Z" fill="white"/>
    <path d="M40.3295 22.7721C40.2105 22.9188 40.0396 23.0384 39.8444 23.0869C39.6244 23.1421 39.4217 23.1261 39.2358 23.0412C38.9228 22.9072 38.7039 22.6078 38.7039 22.2593C38.7039 21.7862 39.1058 21.4025 39.6013 21.4025C39.6163 21.4025 39.6307 21.4041 39.6452 21.4047C39.6527 21.4047 39.6602 21.4052 39.6677 21.4058C39.6971 21.408 39.7266 21.4113 39.7549 21.4163C39.9489 21.4455 40.1302 21.5315 40.2486 21.6677C40.274 21.693 40.2977 21.7201 40.3196 21.7487L40.9046 21.1885C40.9046 21.1885 40.904 21.188 40.9034 21.1874C40.5882 20.8307 40.1193 20.6035 39.5949 20.6035C39.5499 20.6035 39.5054 20.6068 39.461 20.6101C39.3691 20.619 39.2773 20.6344 39.1855 20.6576C39.0105 20.7011 38.8523 20.7629 38.7097 20.8423C38.6987 20.8489 38.6872 20.8549 38.6762 20.8621C38.6531 20.8753 38.6317 20.8902 38.6092 20.9046C38.2599 21.1406 38.0058 21.4984 37.9134 21.9142C37.9093 21.9335 37.9059 21.9527 37.9024 21.972C37.8984 21.9952 37.8943 22.0184 37.8914 22.0421C37.8672 22.2466 37.8845 22.4595 37.9446 22.68C38.0196 22.9552 38.1473 23.1884 38.3251 23.3808C38.3349 23.3908 38.3442 23.4012 38.354 23.4112C38.3742 23.4316 38.3956 23.4514 38.4169 23.4707C38.44 23.4917 38.4625 23.5121 38.4868 23.5319C38.5001 23.5429 38.5139 23.5529 38.5278 23.5633C38.5596 23.5876 38.5913 23.6113 38.6248 23.6334C38.6329 23.6389 38.641 23.6433 38.6491 23.6488C38.9205 23.8214 39.245 23.9228 39.5944 23.9228C39.6533 23.9228 39.711 23.9201 39.7682 23.9146C39.7705 23.9146 39.7722 23.9146 39.7745 23.914C39.8305 23.9085 39.886 23.9002 39.9402 23.8898H39.9414C40.3266 23.8137 40.6638 23.613 40.9081 23.3334L40.3277 22.7743L40.3295 22.7721Z" fill="#F05123"/>
    <rect x="1.76953" y="1.26953" width="42.5" height="42.5" rx="21.25" stroke="url(#paint5_linear_3574_519775)" stroke-width="2.5"/>
    <defs>
        <linearGradient id="paint0_linear_3574_519775" x1="43.7335" y1="24.6648" x2="30.9948" y2="21.0819" gradientUnits="userSpaceOnUse">
            <stop offset="0.43" stop-color="#EFD03D"/>
            <stop offset="0.65" stop-color="#F05123"/>
        </linearGradient>
        <linearGradient id="paint1_linear_3574_519775" x1="35.5877" y1="22.4146" x2="30.0625" y2="20.63" gradientUnits="userSpaceOnUse">
            <stop stop-color="#EFD03D"/>
            <stop offset="0.6" stop-color="#F1822B"/>
        </linearGradient>
        <linearGradient id="paint2_linear_3574_519775" x1="31.6624" y1="20.7863" x2="35.5088" y2="23.4455" gradientUnits="userSpaceOnUse">
            <stop stop-color="white"/>
            <stop offset="1" stop-color="#E4E4E4"/>
        </linearGradient>
        <linearGradient id="paint3_linear_3574_519775" x1="31.43" y1="19.6782" x2="34.6051" y2="23.3805" gradientUnits="userSpaceOnUse">
            <stop stop-color="white"/>
            <stop offset="1" stop-color="#D9D9D8"/>
        </linearGradient>
        <linearGradient id="paint4_linear_3574_519775" x1="45.5762" y1="28.4191" x2="34.3517" y2="21.6739" gradientUnits="userSpaceOnUse">
            <stop offset="0.21" stop-color="#EFD03D"/>
            <stop offset="0.61" stop-color="#F05123"/>
        </linearGradient>
        <linearGradient id="paint5_linear_3574_519775" x1="43.0195" y1="42.5195" x2="3.01953" y2="2.51953" gradientUnits="userSpaceOnUse">
            <stop stop-color="#D35900"/>
            <stop offset="1" stop-color="#FF9900"/>
        </linearGradient>
    </defs>
</svg>
