<svg width="936" height="114" viewBox="0 0 936 114" fill="none"
    xmlns="http://www.w3.org/2000/svg">
    <g clip-path="url(#clip0_624_426320)">
        <rect width="936" height="114" rx="12" fill="white"/>
        <mask id="mask0_624_426320" style="mask-type:alpha" maskUnits="userSpaceOnUse" x="0" y="0" width="936" height="114">
            <path d="M0 0H936V102C936 108.627 930.627 114 924 114H12C5.37255 114 0 108.627 0 102V0Z" fill="url(#paint0_linear_624_426320)"/>
        </mask>
        <g mask="url(#mask0_624_426320)">
            <path d="M0 -36H937V102C937 108.627 931.627 114 925 114H12C5.37259 114 0 108.627 0 102V-36Z" fill="url(#paint1_linear_624_426320)"/>
        </g>
        <g clip-path="url(#clip1_624_426320)">
            <g opacity="0.5">
                <path d="M-8.769 23.2222C4.06744 21.7931 25.6994 22.4891 40.3453 26.9182C54.9912 31.3472 64.9762 28.4013 63.5767 24.7017C62.1773 21.0021 54.3427 17.8397 39.6508 17.3504C35.815 17.2947 29.2944 18.5429 29.9375 14.3035C30.3235 12.3245 40.7501 14.5496 40.1338 9.42083C39.5175 4.2921 28.4991 1.75295 18.7193 2.16215C8.93945 2.57136 -2.41226 4.57435 -0.471687 8.32458C1.46889 12.0748 9.69089 9.11824 7.58542 13.1523C5.47994 17.1863 -16.0265 12.8496 -13.3558 21.181C-12.8006 23.3896 -8.769 23.2222 -8.769 23.2222Z" fill="url(#paint2_linear_624_426320)"/>
                <path d="M-8.769 23.2222C4.06744 21.7931 25.6994 22.4891 40.3453 26.9182C54.9912 31.3472 64.9762 28.4013 63.5767 24.7017C62.1773 21.0021 54.3427 17.8397 39.6508 17.3504C35.815 17.2947 29.2944 18.5429 29.9375 14.3035C30.3235 12.3245 40.7501 14.5496 40.1338 9.42083C39.5175 4.2921 28.4991 1.75295 18.7193 2.16215C8.93945 2.57136 -2.41226 4.57435 -0.471687 8.32458C1.46889 12.0748 9.69089 9.11824 7.58542 13.1523C5.47994 17.1863 -16.0265 12.8496 -13.3558 21.181C-12.8006 23.3896 -8.769 23.2222 -8.769 23.2222Z" fill="url(#paint3_linear_624_426320)"/>
            </g>
            <g opacity="0.4">
                <path d="M893.227 26.2378C906.064 24.8087 927.696 25.5047 942.341 29.9338C956.987 34.3628 966.972 31.417 965.573 27.7173C964.173 24.0177 956.339 20.8554 941.647 20.3661C937.811 20.3104 931.29 21.5586 931.934 17.3191C932.32 15.3401 942.746 17.5652 942.13 12.4365C941.514 7.30773 930.495 4.76857 920.715 5.17778C910.936 5.58698 899.584 7.58998 901.524 11.3402C903.465 15.0904 911.687 12.1339 909.582 16.1679C907.476 20.2019 885.97 15.8652 888.64 24.1967C889.195 26.4053 893.227 26.2378 893.227 26.2378Z" fill="url(#paint4_linear_624_426320)"/>
                <path d="M893.227 26.2378C906.064 24.8087 927.696 25.5047 942.341 29.9338C956.987 34.3628 966.972 31.417 965.573 27.7173C964.173 24.0177 956.339 20.8554 941.647 20.3661C937.811 20.3104 931.29 21.5586 931.934 17.3191C932.32 15.3401 942.746 17.5652 942.13 12.4365C941.514 7.30773 930.495 4.76857 920.715 5.17778C910.936 5.58698 899.584 7.58998 901.524 11.3402C903.465 15.0904 911.687 12.1339 909.582 16.1679C907.476 20.2019 885.97 15.8652 888.64 24.1967C889.195 26.4053 893.227 26.2378 893.227 26.2378Z" fill="url(#paint5_linear_624_426320)"/>
            </g>
            <path d="M467.143 122.057C453.837 110.663 429.695 107.482 409.772 105.962C397.901 105.287 383.517 107.636 377.18 102.76C370.844 97.8842 369.675 94.9525 358.882 96.8036C348.088 98.6546 281.805 117.579 260.098 147.751C355.314 137.495 467.143 122.057 467.143 122.057Z" fill="url(#paint6_linear_624_426320)"/>
            <path d="M817.143 122.057C803.837 110.663 779.695 107.482 759.772 105.962C747.901 105.287 733.517 107.636 727.18 102.76C720.844 97.8842 719.675 94.9525 708.882 96.8036C698.088 98.6546 631.805 117.579 610.098 147.751C705.314 137.495 817.143 122.057 817.143 122.057Z" fill="url(#paint7_linear_624_426320)"/>
            <path d="M557.569 114.997C544.263 103.602 520.121 100.421 500.198 98.9019C488.326 98.2265 473.943 100.576 467.606 95.6997C461.27 90.8237 460.101 87.8919 449.307 89.743C438.514 91.5941 372.231 110.519 350.524 140.69C445.739 130.434 557.569 114.997 557.569 114.997Z" fill="url(#paint8_linear_624_426320)"/>
            <path d="M659.332 111.821C673.907 102.137 698.252 101.932 718.212 102.861C730.077 103.642 744.073 107.733 750.947 103.668C757.822 99.6024 759.334 96.8352 769.826 99.9926C780.318 103.15 843.843 130.041 861.772 162.645C768.487 140.821 659.332 111.821 659.332 111.821Z" fill="url(#paint9_linear_624_426320)"/>
            <path d="M119.06 136.751C131.319 124.264 155.096 119.032 174.817 115.816C186.587 114.128 201.126 115.238 207.012 109.84C212.898 104.442 213.805 101.422 224.723 102.342C235.641 103.263 303.353 116.445 327.633 144.64C231.852 142.566 119.06 136.751 119.06 136.751Z" fill="url(#paint10_linear_624_426320)"/>
            <path d="M535.428 133.69C546.216 119.845 569.713 113.36 588.937 107.86C600.436 104.808 611.725 99.7135 619.773 96.6677C627.821 93.6219 641.094 95.0607 655.894 96.6665C670.694 98.2723 682.031 107.86 743.389 117.181C648.06 126.302 535.428 133.69 535.428 133.69Z" fill="url(#paint11_linear_624_426320)"/>
            <path d="M300.481 78.4527C300.481 78.4527 299.601 82.1891 301.127 83.4877C302.654 84.7863 304.504 81.3765 305.708 79.2653C311.175 85.2724 309.814 80.6475 309.325 78.4527C311.198 80.3437 311.957 80.8373 315.59 81.4904C311.168 73.7063 309.287 69.2485 305.52 70.9041C303.308 71.8837 298.796 75.2024 293.757 82.1663C295.547 82.1208 298.442 79.7134 300.481 78.4527Z" fill="url(#paint12_linear_624_426320)"/>
            <path d="M277.933 118.519C317.041 115.268 432.539 112.088 432.539 112.088C329.441 112.088 325.84 97.999 318.869 86.9342C317.628 84.9597 316.545 83.137 315.59 81.4283C311.957 80.8132 311.197 80.3196 309.325 78.3906C309.814 80.5854 311.175 85.2255 305.707 79.2032C304.504 81.3144 302.654 84.7242 301.127 83.4256C299.6 82.127 300.48 78.3906 300.48 78.3906C298.442 79.6741 295.547 82.0814 293.757 82.0662C288.372 89.5618 282.37 101.173 277.933 118.519Z" fill="url(#paint13_linear_624_426320)"/>
            <path d="M277.933 118.519C317.041 115.268 432.539 112.088 432.539 112.088C329.441 112.088 325.84 97.999 318.869 86.9342C317.628 84.9597 316.545 83.137 315.59 81.4283C311.957 80.8132 311.197 80.3196 309.325 78.3906C309.814 80.5854 311.175 85.2255 305.707 79.2032C304.504 81.3144 302.654 84.7242 301.127 83.4256C299.6 82.127 300.48 78.3906 300.48 78.3906C298.442 79.6741 295.547 82.0814 293.757 82.0662C288.372 89.5618 282.37 101.173 277.933 118.519Z" fill="url(#paint14_linear_624_426320)"/>
            <path d="M272.038 106.358C272.44 110.471 272.771 114.037 273.695 114.9C272.038 116.089 269.195 114.689 269.195 114.689C269.919 112.743 270.783 111.985 270.652 106.464C270.521 100.943 272.038 106.358 272.038 106.358Z" fill="#CBCAE0"/>
            <path d="M265.276 90.0421C266.471 89.7162 267.02 87.8054 267.535 87.9022C268.049 87.9991 266.558 89.5049 267.718 90.3855C268.878 91.2661 269.558 88.6771 270.212 88.5362C270.866 88.3954 270.212 90.6761 271.337 91.5743C272.462 92.4725 272.296 89.91 272.95 89.3464C273.604 88.7828 273.936 92.9568 275.453 92.8159C276.971 92.675 274.79 89.8219 275.453 89.3904C275.706 89.2143 276.221 89.5753 276.84 90.0861C276.674 89.6722 276.5 89.2055 276.334 88.7652C275.279 85.7095 274.163 82.4602 269.671 85.3133C267.919 86.5899 266.427 88.1954 265.276 90.0421Z" fill="url(#paint15_linear_624_426320)"/>
            <path d="M262.62 105.268C265.027 107.61 274.411 107.769 274.411 107.769C279.757 107.848 283.088 104.405 280.838 98.8481C278.937 94.1457 277.821 92.3581 276.853 90.0422C276.234 89.5314 275.719 89.1616 275.466 89.3465C274.803 89.778 276.975 92.6311 275.466 92.772C273.957 92.9129 273.626 88.7389 272.963 89.3025C272.3 89.8661 272.484 92.4374 271.35 91.5304C270.216 90.6234 270.888 88.3426 270.225 88.4923C269.562 88.642 268.899 91.2662 267.722 90.3856C266.545 89.505 268.088 88.0256 267.539 87.9111C266.99 87.7967 266.475 89.7252 265.28 90.051C261.94 94.9999 259.437 102.098 262.62 105.268Z" fill="url(#paint16_linear_624_426320)"/>
            <path d="M262.62 105.268C265.027 107.61 274.411 107.769 274.411 107.769C279.757 107.848 283.088 104.405 280.838 98.8481C278.937 94.1457 277.821 92.3581 276.853 90.0422C276.234 89.5314 275.719 89.1616 275.466 89.3465C274.803 89.778 276.975 92.6311 275.466 92.772C273.957 92.9129 273.626 88.7389 272.963 89.3025C272.3 89.8661 272.484 92.4374 271.35 91.5304C270.216 90.6234 270.888 88.3426 270.225 88.4923C269.562 88.642 268.899 91.2662 267.722 90.3856C266.545 89.505 268.088 88.0256 267.539 87.9111C266.99 87.7967 266.475 89.7252 265.28 90.051C261.94 94.9999 259.437 102.098 262.62 105.268Z" fill="url(#paint17_linear_624_426320)"/>
            <path d="M560.544 108.165C560.828 111.082 561.063 113.611 561.719 114.223C560.544 115.066 558.528 114.073 558.528 114.073C559.041 112.693 559.653 112.156 559.56 108.24C559.468 104.325 560.544 108.165 560.544 108.165Z" fill="#CBCAE0"/>
            <path d="M555.753 96.5966C556.6 96.3656 556.99 95.0105 557.354 95.0792C557.719 95.1479 556.662 96.2157 557.484 96.8402C558.307 97.4647 558.789 95.6287 559.253 95.5288C559.717 95.4289 559.253 97.0463 560.051 97.6832C560.849 98.3202 560.731 96.503 561.195 96.1033C561.659 95.7036 561.894 98.6636 562.97 98.5637C564.046 98.4638 562.5 96.4405 562.97 96.1345C563.149 96.0096 563.514 96.2657 563.953 96.6279C563.836 96.3344 563.712 96.0034 563.594 95.6912C562.846 93.5242 562.055 91.2199 558.87 93.2432C557.627 94.1485 556.569 95.2871 555.753 96.5966Z" fill="url(#paint18_linear_624_426320)"/>
            <path d="M553.865 107.394C555.571 109.055 562.226 109.167 562.226 109.167C566.017 109.224 568.379 106.782 566.784 102.841C565.435 99.5068 564.644 98.2391 563.957 96.5967C563.518 96.2345 563.153 95.9723 562.974 96.1034C562.504 96.4094 564.044 98.4327 562.974 98.5326C561.904 98.6325 561.669 95.6725 561.199 96.0722C560.729 96.4718 560.859 98.2953 560.055 97.6521C559.251 97.0089 559.727 95.3915 559.257 95.4977C558.787 95.6038 558.317 97.4647 557.482 96.8403C556.648 96.2158 557.742 95.1667 557.353 95.0855C556.963 95.0043 556.598 96.3719 555.751 96.603C553.382 100.113 551.607 105.146 553.865 107.394Z" fill="url(#paint19_linear_624_426320)"/>
            <path d="M553.865 107.394C555.571 109.055 562.226 109.167 562.226 109.167C566.017 109.224 568.379 106.782 566.784 102.841C565.435 99.5068 564.644 98.2391 563.957 96.5967C563.518 96.2345 563.153 95.9723 562.974 96.1034C562.504 96.4094 564.044 98.4327 562.974 98.5326C561.904 98.6325 561.669 95.6725 561.199 96.0722C560.729 96.4718 560.859 98.2953 560.055 97.6521C559.251 97.0089 559.727 95.3915 559.257 95.4977C558.787 95.6038 558.317 97.4647 557.482 96.8403C556.648 96.2158 557.742 95.1667 557.353 95.0855C556.963 95.0043 556.598 96.3719 555.751 96.603C553.382 100.113 551.607 105.146 553.865 107.394Z" fill="url(#paint20_linear_624_426320)"/>
            <g opacity="0.5">
                <path d="M802.544 109.345C802.781 111.776 802.977 113.883 803.523 114.393C802.544 115.096 800.864 114.268 800.864 114.268C801.292 113.118 801.802 112.671 801.725 109.408C801.648 106.145 802.544 109.345 802.544 109.345Z" fill="#CBCAE0"/>
                <path d="M798.557 99.7045C799.263 99.5119 799.588 98.3827 799.892 98.4399C800.196 98.4972 799.315 99.387 800 99.9074C800.686 100.428 801.087 98.8979 801.474 98.8146C801.861 98.7314 801.474 100.079 802.139 100.61C802.804 101.141 802.706 99.6264 803.092 99.2934C803.479 98.9603 803.675 101.427 804.571 101.344C805.468 101.26 804.18 99.5744 804.571 99.3194C804.721 99.2153 805.025 99.4287 805.391 99.7305C805.293 99.4859 805.19 99.2101 805.092 98.9499C804.468 97.1442 803.809 95.224 801.154 96.91C800.119 97.6644 799.237 98.6132 798.557 99.7045Z" fill="url(#paint21_linear_624_426320)"/>
                <path d="M796.985 108.701C798.407 110.085 803.953 110.179 803.953 110.179C807.112 110.226 809.08 108.191 807.751 104.907C806.627 102.129 805.968 101.072 805.396 99.7036C805.03 99.4018 804.726 99.1832 804.576 99.2925C804.185 99.5475 805.468 101.234 804.576 101.317C803.685 101.4 803.489 98.9335 803.097 99.2665C802.705 99.5995 802.814 101.119 802.144 100.583C801.474 100.047 801.871 98.6993 801.479 98.7877C801.087 98.8762 800.696 100.427 800 99.9066C799.304 99.3862 800.216 98.5119 799.892 98.4443C799.567 98.3766 799.263 99.5163 798.557 99.7088C796.583 102.633 795.104 106.828 796.985 108.701Z" fill="url(#paint22_linear_624_426320)"/>
                <path d="M796.985 108.701C798.407 110.085 803.953 110.179 803.953 110.179C807.112 110.226 809.08 108.191 807.751 104.907C806.627 102.129 805.968 101.072 805.396 99.7036C805.03 99.4018 804.726 99.1832 804.576 99.2925C804.185 99.5475 805.468 101.234 804.576 101.317C803.685 101.4 803.489 98.9335 803.097 99.2665C802.705 99.5995 802.814 101.119 802.144 100.583C801.474 100.047 801.871 98.6993 801.479 98.7877C801.087 98.8762 800.696 100.427 800 99.9066C799.304 99.3862 800.216 98.5119 799.892 98.4443C799.567 98.3766 799.263 99.5163 798.557 99.7088C796.583 102.633 795.104 106.828 796.985 108.701Z" fill="url(#paint23_linear_624_426320)"/>
            </g>
            <g opacity="0.9">
                <path d="M105.767 113.1C108.177 113.1 110.131 110.168 110.131 106.551C110.131 102.934 108.177 100.002 105.767 100.002C103.356 100.002 101.402 102.934 101.402 106.551C101.402 110.168 103.356 113.1 105.767 113.1Z" fill="#FEB03E"/>
                <path d="M79.9034 113.051C82.3138 113.051 84.2677 110.119 84.2677 106.502C84.2677 102.885 82.3138 99.9531 79.9034 99.9531C77.493 99.9531 75.5391 102.885 75.5391 106.502C75.5391 110.119 77.493 113.051 79.9034 113.051Z" fill="#FEB03E"/>
                <path d="M94.7552 57.3285C84.1722 57.2703 61.528 56.8238 60.0577 58.7804C50.9954 58.3146 34.0696 57.4954 28.8828 58.1437C31.9863 55.8145 58.2538 54.91 66.2376 55.007C73.0732 55.4185 88.1796 55.7757 94.7552 57.3285Z" fill="#FFC16F"/>
                <path d="M85.2212 107.113V107.147C41.5352 107.147 27.3482 106.759 27.3482 106.759C24.2602 79.8446 23.7907 67.5345 28.5508 58.4348C28.6484 58.3246 28.7591 58.2268 28.8805 58.1436C34.0789 57.4953 48.5259 57.0799 60.0671 58.7881C55.92 67.6548 60.8391 107.019 85.2212 107.113Z" fill="url(#paint24_linear_624_426320)"/>
                <path d="M85.2212 107.113V107.147C41.5352 107.147 27.3482 106.759 27.3482 106.759C24.2602 79.8446 23.7907 67.5345 28.5508 58.4348C28.6484 58.3246 28.7591 58.2268 28.8805 58.1436C34.0789 57.4953 48.5259 57.0799 60.0671 58.7881C55.92 67.6548 60.8391 107.019 85.2212 107.113Z" fill="url(#paint25_linear_624_426320)"/>
                <path d="M101.536 107.149C96.0038 107.149 91.1196 107.149 86.8212 107.114C66.2603 107.021 59.1688 106.772 59.1688 106.772C56.911 80.0244 56.5696 67.8113 60.0533 58.7893C61.2908 56.7978 70.1786 55.8545 79.0934 55.9127C87.6941 55.9632 96.3219 56.9376 98.1025 58.7893C101.012 63.9292 101.757 83.5183 101.536 107.149Z" fill="url(#paint26_linear_624_426320)"/>
                <path d="M98.8801 72.1063C87.2419 70.5961 66.9914 72.1063 62.8016 75.0178C60.9589 76.7415 58.6351 89.0711 61.1723 107.15C96.4322 107.092 97.3982 107.15 97.3982 107.15L98.8801 72.1063Z" fill="url(#paint27_linear_624_426320)"/>
                <path d="M111.363 84.2656C114.246 84.3743 116.112 85.2478 116.077 87.9847C116.042 90.7216 113.082 91.0904 113.082 91.0904L111.363 84.2656Z" fill="#FEB03E"/>
                <path d="M79.4633 106.773C80.5224 104.591 82.1401 97.118 74.358 90.8872C73.2368 90.1419 72.5541 81.6051 72.9265 78.1811C73.2989 74.7571 74.2377 72.7462 82.2371 71.9076C90.2364 71.0691 97.6267 71.1312 102.887 72.684C108.148 74.2369 110.029 77.1679 113.602 89.4509C116.593 90.5922 120.876 96.2407 117.482 105.666C100.606 105.67 79.4633 106.773 79.4633 106.773Z" fill="url(#paint28_linear_624_426320)"/>
                <path opacity="0.7" d="M63.8527 78.0389C63.8527 78.0389 63.2476 88.9593 62.8945 91.2381C65.3114 91.5913 69.7844 91.568 69.7844 91.568C70.7891 84.8132 70.7426 79.7664 69.2839 78.7105C67.8253 77.6546 63.8527 78.0389 63.8527 78.0389Z" fill="url(#paint29_linear_624_426320)"/>
                <path d="M79.3556 105.641H26.8594V108.649H79.3556V105.641Z" fill="#FF7F33"/>
                <path d="M118.728 105.641H79.3516V108.649H118.728V105.641Z" fill="#FFC6A5"/>
                <path d="M92.0273 96.8336C92.3196 98.3538 92.4367 99.9025 92.3765 101.449H109.791C110.001 99.0736 109.671 97.6721 109.252 96.8336C104.139 96.6938 92.0273 96.8336 92.0273 96.8336Z" fill="#FFC6A5"/>
                <path d="M108.486 97.9023H92.9688V98.2168H108.486V97.9023Z" fill="#FEB03E"/>
                <path d="M108.873 98.9531H93.3555V99.2676H108.873V98.9531Z" fill="#FEB03E"/>
                <path d="M108.873 100.002H93.3555V100.538H108.873V100.002Z" fill="#FEB03E"/>
                <path d="M117.533 100.86C118.632 99.6544 118.276 97.5386 116.738 96.1339C115.2 94.7292 113.062 94.5675 111.963 95.7728C110.864 96.978 111.22 99.0938 112.758 100.499C114.296 101.903 116.434 102.065 117.533 100.86Z" fill="url(#paint30_linear_624_426320)"/>
                <path d="M116.167 95.6811L112.722 100.464C112.113 99.9076 111.673 99.1922 111.449 98.3986L113.936 94.9629C114.734 94.978 115.51 95.2278 116.167 95.6811Z" fill="url(#paint31_linear_624_426320)"/>
                <path d="M117.998 98.0659L115.411 101.661C114.62 101.617 113.858 101.348 113.215 100.884L116.679 96.0938L116.737 96.1442C117.32 96.6623 117.755 97.3253 117.998 98.0659Z" fill="url(#paint32_linear_624_426320)"/>
                <path d="M90.26 101.418C91.3591 100.213 91.0029 98.0972 89.4645 96.6925C87.9262 95.2878 85.7882 95.1261 84.6892 96.3314C83.5901 97.5366 83.9463 99.6524 85.4847 101.057C87.023 102.462 89.161 102.624 90.26 101.418Z" fill="url(#paint33_linear_624_426320)"/>
                <path d="M88.8892 96.2377L85.4443 101.02C84.836 100.464 84.3953 99.7489 84.1719 98.9552L86.6586 95.5195C87.4565 95.5347 88.2322 95.7844 88.8892 96.2377Z" fill="url(#paint34_linear_624_426320)"/>
                <path d="M90.7286 98.6263L88.1411 102.221C87.3501 102.178 86.5881 101.908 85.9453 101.445L89.398 96.6387L89.4562 96.6891C90.0449 97.2101 90.4842 97.8788 90.7286 98.6263Z" fill="url(#paint35_linear_624_426320)"/>
                <path d="M78.801 90.7377C87.4753 90.5242 99.6994 90.0389 110.899 90.4155C106.977 81.7002 107.315 75.6635 98.0972 74.6464C88.8797 73.6293 78.223 75.3063 77.7186 77.9656C77.2143 80.6248 77.2841 86.6887 78.801 90.7377Z" fill="url(#paint36_linear_624_426320)"/>
                <path d="M104.76 77.3707L95.422 90.3253L92.6172 90.3757L102.975 76.0469C103.627 76.4055 104.227 76.8508 104.76 77.3707Z" fill="url(#paint37_linear_624_426320)"/>
                <path d="M99.9973 74.9615L88.8246 90.4666L82.9745 90.6258H78.7576C78.1518 88.8678 77.761 87.0428 77.5938 85.1908L86.1285 74.7091C90.0862 74.2451 94.0833 74.223 98.046 74.6431C98.7018 74.7133 99.3532 74.8196 99.9973 74.9615Z" fill="url(#paint38_linear_624_426320)"/>
                <path d="M106.569 79.8024L99.0159 90.2841C98.0809 90.2841 97.1499 90.2841 96.2266 90.3151L105.231 77.8652C105.747 78.4598 106.195 79.1094 106.569 79.8024Z" fill="url(#paint39_linear_624_426320)"/>
                <path d="M73.9482 85.0703C74.1732 86.5222 74.5689 89.593 74.3904 91.5534C72.0628 91.7553 69.3937 90.4781 69.5838 87.8848C69.7739 85.2916 73.9482 85.0703 73.9482 85.0703Z" fill="#FEB03E"/>
                <path d="M69.587 114.018C71.9973 114.018 73.9513 111.086 73.9513 107.469C73.9513 103.852 71.9973 100.92 69.587 100.92C67.1766 100.92 65.2227 103.852 65.2227 107.469C65.2227 111.086 67.1766 114.018 69.587 114.018Z" fill="#FEB03E"/>
                <path d="M68.6009 111.993C70.2163 111.993 71.5259 110.328 71.5259 108.274C71.5259 106.22 70.2163 104.555 68.6009 104.555C66.9854 104.555 65.6758 106.22 65.6758 108.274C65.6758 110.328 66.9854 111.993 68.6009 111.993Z" fill="#FCE7C0"/>
                <path d="M44.8253 114.018C47.2356 114.018 49.1896 111.086 49.1896 107.469C49.1896 103.852 47.2356 100.92 44.8253 100.92C42.4149 100.92 40.4609 103.852 40.4609 107.469C40.4609 111.086 42.4149 114.018 44.8253 114.018Z" fill="#FEB03E"/>
                <path d="M43.8391 111.993C45.4546 111.993 46.7642 110.328 46.7642 108.274C46.7642 106.22 45.4546 104.555 43.8391 104.555C42.2237 104.555 40.9141 106.22 40.9141 108.274C40.9141 110.328 42.2237 111.993 43.8391 111.993Z" fill="#FCE7C0"/>
                <g opacity="0.7">
                    <path d="M41.9986 93.1778C47.3908 93.0497 51.6569 88.5147 51.5272 83.0486C51.3975 77.5825 46.9212 73.2552 41.529 73.3833C36.1368 73.5114 31.8708 78.0464 32.0004 83.5125C32.1301 88.9786 36.6064 93.3059 41.9986 93.1778Z" fill="url(#paint40_linear_624_426320)"/>
                    <path d="M39.0889 73.7479C36.9502 74.393 35.5698 75.3942 34.3539 76.8803C34.3165 76.8848 34.2971 76.8863 34.2971 76.8863L33.2023 78.4667C33.2023 78.4667 29.6264 84.5385 34.8086 90.2226L48.6741 76.2772C46.2049 73.7764 42.4749 72.7258 39.0904 73.7464L39.0889 73.7479Z" fill="url(#paint41_linear_624_426320)"/>
                    <path d="M46.8777 86.554C45.0098 89.3885 41.1975 90.1698 38.3649 88.299C35.5338 86.4282 34.7531 82.6134 36.6226 79.7803C38.4905 76.9458 42.3028 76.1645 45.1369 78.0353C47.968 79.9046 48.7487 83.7194 46.8792 86.554H46.8777Z" fill="url(#paint42_linear_624_426320)"/>
                    <g style="mix-blend-mode:screen">
                        <path d="M46.7077 79.7082L38.1441 88.3076L37.6445 88.1804L46.3249 79.4941L46.7077 79.7082Z" fill="#E6E8E2"/>
                    </g>
                    <g style="mix-blend-mode:multiply">
                        <path d="M46.703 79.7085L38.235 88.2122L37.3242 87.6973L45.9896 78.9961L46.703 79.7085Z" fill="#E6E8E2"/>
                    </g>
                    <path d="M45.1584 88.6849C43.0183 90.0064 40.2799 89.9645 38.1816 88.5786C35.1994 86.6076 34.3753 82.5772 36.3435 79.593C36.867 78.7983 37.5415 78.1428 38.3461 77.6459C40.4863 76.3244 43.2247 76.3678 45.323 77.7522C46.7677 78.7055 47.7533 80.1662 48.1002 81.8634C48.4472 83.5605 48.1137 85.2906 47.1595 86.7363C46.6361 87.531 45.9616 88.1865 45.1569 88.6819L45.1584 88.6849ZM38.699 78.2206C37.9782 78.6651 37.3755 79.2518 36.9043 79.9657C35.1396 82.6401 35.8799 86.2529 38.5525 88.0189C40.4324 89.2611 42.8882 89.297 44.8055 88.1132C45.5264 87.6687 46.1291 87.082 46.6002 86.3681C47.4542 85.0721 47.7548 83.5216 47.4437 82.0011C47.1326 80.4805 46.2487 79.171 44.9535 78.3164C43.0721 77.0742 40.6179 77.0368 38.699 78.2206Z" fill="url(#paint43_linear_624_426320)"/>
                </g>
            </g>
        </g>
        <g opacity="0.9">
            <path d="M822.059 74.4983V114.881H844.311V63.127L822.059 74.4983Z" fill="#FFE7B8"/>
            <path d="M846.691 49.8346V115.325H906.971V15.5195L846.691 49.8346Z" fill="#FFDFAF"/>
            <path d="M906.977 15.5195L936.501 26.9924V115.325H906.977V15.5195Z" fill="url(#paint44_linear_624_426320)"/>
            <path d="M850.188 52.5433L904.265 21.7051V115.328H850.188V52.5433Z" fill="#FFC6A5"/>
            <path d="M851.547 115.328V53.4955L871.472 42.3398V115.328H851.547Z" fill="url(#paint45_linear_624_426320)"/>
            <path d="M851.547 115.328V53.4955L871.472 42.3398V115.328H851.547Z" fill="url(#paint46_linear_624_426320)"/>
            <path d="M873.93 115.328V40.9802L902.352 25.1953V115.328H873.93Z" fill="url(#paint47_linear_624_426320)"/>
            <g opacity="0.34">
                <path d="M902.349 34.2285V49.489L878.082 87.3909H873.934V78.7021L902.349 34.2285Z" fill="url(#paint48_linear_624_426320)"/>
                <path d="M902.352 53.1211V68.3557L890.167 87.3908H880.457L902.352 53.1211Z" fill="url(#paint49_linear_624_426320)"/>
                <path d="M871.472 50.6289V65.857L857.685 87.3913H851.547V81.8103L871.472 50.6289Z" fill="url(#paint50_linear_624_426320)"/>
                <path d="M865.463 45.707L851.547 67.3903V62.3854L860.388 48.5494L865.463 45.707Z" fill="url(#paint51_linear_624_426320)"/>
                <path d="M901.053 25.9141L873.934 68.2834V40.9738L879.676 37.7884L879.683 37.7819L882.736 36.0856L901.053 25.9141Z" fill="url(#paint52_linear_624_426320)"/>
            </g>
        </g>
    </g>
    <defs>
        <linearGradient id="paint0_linear_624_426320" x1="485" y1="114" x2="485" y2="34.5" gradientUnits="userSpaceOnUse">
            <stop stop-color="#D9D9D9"/>
            <stop offset="1" stop-color="#D9D9D9" stop-opacity="0"/>
        </linearGradient>
        <linearGradient id="paint1_linear_624_426320" x1="3.93565e-06" y1="38.9999" x2="937.984" y2="65.0304" gradientUnits="userSpaceOnUse">
            <stop stop-color="#FFEDCC"/>
            <stop offset="0.388379" stop-color="#E7F3FB"/>
            <stop offset="0.579647" stop-color="#E2EEF5"/>
            <stop offset="0.77222" stop-color="#EFF0E8"/>
            <stop offset="0.911887" stop-color="#FEF0D5"/>
            <stop offset="1" stop-color="#FFEDCE"/>
        </linearGradient>
        <linearGradient id="paint2_linear_624_426320" x1="92.3544" y1="39.7226" x2="-10.5425" y2="11.8822" gradientUnits="userSpaceOnUse">
            <stop stop-color="#B9D4FF"/>
            <stop offset="1" stop-color="#B9D4FF" stop-opacity="0"/>
        </linearGradient>
        <linearGradient id="paint3_linear_624_426320" x1="67.6296" y1="17.0631" x2="-9.27016" y2="20.8736" gradientUnits="userSpaceOnUse">
            <stop offset="0.000303591" stop-color="#FFD1B9"/>
            <stop offset="1" stop-color="#FCE7C0"/>
        </linearGradient>
        <linearGradient id="paint4_linear_624_426320" x1="994.351" y1="42.7382" x2="891.454" y2="14.8978" gradientUnits="userSpaceOnUse">
            <stop stop-color="#B9D4FF"/>
            <stop offset="1" stop-color="#B9D4FF" stop-opacity="0"/>
        </linearGradient>
        <linearGradient id="paint5_linear_624_426320" x1="969.626" y1="20.0787" x2="892.726" y2="23.8893" gradientUnits="userSpaceOnUse">
            <stop offset="0.000303591" stop-color="#FFD1B9"/>
            <stop offset="1" stop-color="#FCE7C0"/>
        </linearGradient>
        <linearGradient id="paint6_linear_624_426320" x1="359.578" y1="96.6327" x2="452.816" y2="128.379" gradientUnits="userSpaceOnUse">
            <stop stop-color="#D1E6F8"/>
            <stop offset="1" stop-color="#E1F2FF"/>
        </linearGradient>
        <linearGradient id="paint7_linear_624_426320" x1="709.578" y1="96.6327" x2="802.816" y2="128.379" gradientUnits="userSpaceOnUse">
            <stop stop-color="#D1E6F8"/>
            <stop offset="1" stop-color="#E1F2FF"/>
        </linearGradient>
        <linearGradient id="paint8_linear_624_426320" x1="450.003" y1="89.5722" x2="543.242" y2="121.319" gradientUnits="userSpaceOnUse">
            <stop stop-color="#D1E6F8"/>
            <stop offset="1" stop-color="#E1F2FF"/>
        </linearGradient>
        <linearGradient id="paint9_linear_624_426320" x1="769.155" y1="99.7379" x2="672.837" y2="120.043" gradientUnits="userSpaceOnUse">
            <stop stop-color="#D1E6F8"/>
            <stop offset="1" stop-color="#E1F2FF"/>
        </linearGradient>
        <linearGradient id="paint10_linear_624_426320" x1="224.015" y1="102.232" x2="133.972" y2="142.005" gradientUnits="userSpaceOnUse">
            <stop stop-color="#D1E6F8"/>
            <stop offset="1" stop-color="#E1F2FF"/>
        </linearGradient>
        <linearGradient id="paint11_linear_624_426320" x1="636.479" y1="94.223" x2="558.673" y2="148.25" gradientUnits="userSpaceOnUse">
            <stop stop-color="#D1E6F8"/>
            <stop offset="1" stop-color="#E1F2FF"/>
        </linearGradient>
        <linearGradient id="paint12_linear_624_426320" x1="305.216" y1="55.2007" x2="304.663" y2="83.7744" gradientUnits="userSpaceOnUse">
            <stop offset="0.641738" stop-color="#CAE7FF"/>
            <stop offset="1" stop-color="#F2FBFF"/>
        </linearGradient>
        <linearGradient id="paint13_linear_624_426320" x1="355.236" y1="78.3906" x2="355.236" y2="118.519" gradientUnits="userSpaceOnUse">
            <stop offset="0.641738" stop-color="#CBE9EF"/>
            <stop offset="1" stop-color="#A4DCDF"/>
        </linearGradient>
        <linearGradient id="paint14_linear_624_426320" x1="306.342" y1="114.363" x2="331.824" y2="99.2219" gradientUnits="userSpaceOnUse">
            <stop offset="0.120369" stop-color="#D0E6F8"/>
            <stop offset="1" stop-color="#E0F0FA"/>
        </linearGradient>
        <linearGradient id="paint15_linear_624_426320" x1="271.345" y1="74.2088" x2="270.902" y2="92.8157" gradientUnits="userSpaceOnUse">
            <stop offset="0.641738" stop-color="#DAE9F5"/>
            <stop offset="1" stop-color="#E7F8FF"/>
        </linearGradient>
        <linearGradient id="paint16_linear_624_426320" x1="271.351" y1="87.9062" x2="271.351" y2="107.77" gradientUnits="userSpaceOnUse">
            <stop offset="0.641738" stop-color="#D3EFF1"/>
            <stop offset="1" stop-color="#C8E8EE"/>
        </linearGradient>
        <linearGradient id="paint17_linear_624_426320" x1="271.973" y1="99.5729" x2="281.556" y2="97.8981" gradientUnits="userSpaceOnUse">
            <stop offset="0.120369" stop-color="#CFE6F8"/>
            <stop offset="1" stop-color="#DAE9F5"/>
        </linearGradient>
        <linearGradient id="paint18_linear_624_426320" x1="560.057" y1="85.3685" x2="559.743" y2="98.5636" gradientUnits="userSpaceOnUse">
            <stop offset="0.641738" stop-color="#DAE9F5"/>
            <stop offset="1" stop-color="#E7F8FF"/>
        </linearGradient>
        <linearGradient id="paint19_linear_624_426320" x1="560.056" y1="95.082" x2="560.056" y2="109.168" gradientUnits="userSpaceOnUse">
            <stop offset="0.641738" stop-color="#D3EFF1"/>
            <stop offset="1" stop-color="#C8E8EE"/>
        </linearGradient>
        <linearGradient id="paint20_linear_624_426320" x1="560.497" y1="103.355" x2="567.293" y2="102.168" gradientUnits="userSpaceOnUse">
            <stop offset="0.120369" stop-color="#CFE6F8"/>
            <stop offset="1" stop-color="#DAE9F5"/>
        </linearGradient>
        <linearGradient id="paint21_linear_624_426320" x1="802.144" y1="90.348" x2="801.882" y2="101.344" gradientUnits="userSpaceOnUse">
            <stop offset="0.641738" stop-color="#DAE9F5"/>
            <stop offset="1" stop-color="#E7F8FF"/>
        </linearGradient>
        <linearGradient id="paint22_linear_624_426320" x1="802.145" y1="98.4414" x2="802.145" y2="110.18" gradientUnits="userSpaceOnUse">
            <stop offset="0.641738" stop-color="#D3EFF1"/>
            <stop offset="1" stop-color="#C8E8EE"/>
        </linearGradient>
        <linearGradient id="paint23_linear_624_426320" x1="802.512" y1="105.336" x2="808.175" y2="104.346" gradientUnits="userSpaceOnUse">
            <stop offset="0.120369" stop-color="#CFE6F8"/>
            <stop offset="1" stop-color="#DAE9F5"/>
        </linearGradient>
        <linearGradient id="paint24_linear_624_426320" x1="73.6663" y1="77.6643" x2="11.4037" y2="118.364" gradientUnits="userSpaceOnUse">
            <stop stop-color="#FCE7C0"/>
            <stop offset="1" stop-color="#FF7F33"/>
        </linearGradient>
        <linearGradient id="paint25_linear_624_426320" x1="37.4708" y1="79.4301" x2="24.9998" y2="75.6046" gradientUnits="userSpaceOnUse">
            <stop stop-color="#FFC6A5" stop-opacity="0"/>
            <stop offset="1" stop-color="#DDF1FC" stop-opacity="0.37"/>
        </linearGradient>
        <linearGradient id="paint26_linear_624_426320" x1="99.8689" y1="54.252" x2="54.9069" y2="112.756" gradientUnits="userSpaceOnUse">
            <stop stop-color="#FFC774"/>
            <stop offset="1" stop-color="#FFC6A5"/>
        </linearGradient>
        <linearGradient id="paint27_linear_624_426320" x1="52.1398" y1="109.509" x2="84.442" y2="87.8022" gradientUnits="userSpaceOnUse">
            <stop stop-color="#FF7F33"/>
            <stop offset="1" stop-color="#FF9C61"/>
        </linearGradient>
        <linearGradient id="paint28_linear_624_426320" x1="94.7676" y1="70.6537" x2="96.7177" y2="108.38" gradientUnits="userSpaceOnUse">
            <stop stop-color="#FCE7C0"/>
            <stop offset="0.584724" stop-color="#FFCE74"/>
            <stop offset="1" stop-color="#FF7F33"/>
        </linearGradient>
        <linearGradient id="paint29_linear_624_426320" x1="60.4519" y1="103.486" x2="74.0716" y2="100.612" gradientUnits="userSpaceOnUse">
            <stop stop-color="#C1D9FF"/>
            <stop offset="1" stop-color="#E3F1F5"/>
        </linearGradient>
        <linearGradient id="paint30_linear_624_426320" x1="119.143" y1="108.908" x2="123.785" y2="99.3371" gradientUnits="userSpaceOnUse">
            <stop stop-color="#C1D9FF"/>
            <stop offset="1" stop-color="#E3F1F5"/>
        </linearGradient>
        <linearGradient id="paint31_linear_624_426320" x1="113.808" y1="94.9629" x2="113.808" y2="100.464" gradientUnits="userSpaceOnUse">
            <stop stop-color="#FFFEFD"/>
            <stop offset="1" stop-color="#FFFEFD" stop-opacity="0"/>
        </linearGradient>
        <linearGradient id="paint32_linear_624_426320" x1="115.607" y1="96.0938" x2="115.607" y2="101.661" gradientUnits="userSpaceOnUse">
            <stop stop-color="#FFFEFD"/>
            <stop offset="1" stop-color="#FFFEFD" stop-opacity="0"/>
        </linearGradient>
        <linearGradient id="paint33_linear_624_426320" x1="91.8695" y1="109.466" x2="96.512" y2="99.8956" gradientUnits="userSpaceOnUse">
            <stop stop-color="#C1D9FF"/>
            <stop offset="1" stop-color="#E3F1F5"/>
        </linearGradient>
        <linearGradient id="paint34_linear_624_426320" x1="86.5306" y1="95.5195" x2="86.5306" y2="101.02" gradientUnits="userSpaceOnUse">
            <stop stop-color="#FFFEFD"/>
            <stop offset="1" stop-color="#FFFEFD" stop-opacity="0"/>
        </linearGradient>
        <linearGradient id="paint35_linear_624_426320" x1="88.337" y1="96.6387" x2="88.337" y2="102.221" gradientUnits="userSpaceOnUse">
            <stop stop-color="#FFFEFD"/>
            <stop offset="1" stop-color="#FFFEFD" stop-opacity="0"/>
        </linearGradient>
        <linearGradient id="paint36_linear_624_426320" x1="66.6473" y1="105.105" x2="105.975" y2="74.6936" gradientUnits="userSpaceOnUse">
            <stop stop-color="#C1D9FF"/>
            <stop offset="1" stop-color="#E3F1F5"/>
        </linearGradient>
        <linearGradient id="paint37_linear_624_426320" x1="98.6885" y1="76.0469" x2="98.6885" y2="90.3757" gradientUnits="userSpaceOnUse">
            <stop stop-color="#FFFEFD"/>
            <stop offset="1" stop-color="#FFFEFD" stop-opacity="0"/>
        </linearGradient>
        <linearGradient id="paint38_linear_624_426320" x1="88.7955" y1="74.3438" x2="88.7955" y2="90.6258" gradientUnits="userSpaceOnUse">
            <stop stop-color="#FFFEFD"/>
            <stop offset="1" stop-color="#FFFEFD" stop-opacity="0"/>
        </linearGradient>
        <linearGradient id="paint39_linear_624_426320" x1="101.398" y1="77.8652" x2="101.398" y2="90.3151" gradientUnits="userSpaceOnUse">
            <stop stop-color="#FFFEFD"/>
            <stop offset="1" stop-color="#FFFEFD" stop-opacity="0"/>
        </linearGradient>
        <linearGradient id="paint40_linear_624_426320" x1="67.8962" y1="90.3058" x2="34.6858" y2="81.3927" gradientUnits="userSpaceOnUse">
            <stop offset="0.43" stop-color="#EFD03D"/>
            <stop offset="0.65" stop-color="#F05123"/>
        </linearGradient>
        <linearGradient id="paint41_linear_624_426320" x1="46.8008" y1="84.2073" x2="32.3686" y2="79.7593" gradientUnits="userSpaceOnUse">
            <stop stop-color="#EFD03D"/>
            <stop offset="0.6" stop-color="#F1822B"/>
        </linearGradient>
        <linearGradient id="paint42_linear_624_426320" x1="36.6229" y1="79.7826" x2="46.882" y2="86.5503" gradientUnits="userSpaceOnUse">
            <stop stop-color="white"/>
            <stop offset="1" stop-color="#E4E4E4"/>
        </linearGradient>
        <linearGradient id="paint43_linear_624_426320" x1="36.023" y1="76.7802" x2="44.6936" y2="86.4273" gradientUnits="userSpaceOnUse">
            <stop stop-color="white"/>
            <stop offset="1" stop-color="#D9D9D8"/>
        </linearGradient>
        <linearGradient id="paint44_linear_624_426320" x1="906.977" y1="15.5942" x2="942.558" y2="103.999" gradientUnits="userSpaceOnUse">
            <stop stop-color="#FCE7C0"/>
            <stop offset="1" stop-color="#FEB03E"/>
        </linearGradient>
        <linearGradient id="paint45_linear_624_426320" x1="845.122" y1="126.874" x2="881.521" y2="120.776" gradientUnits="userSpaceOnUse">
            <stop stop-color="#C1D9FF"/>
            <stop offset="1" stop-color="#E3F1F5"/>
        </linearGradient>
        <linearGradient id="paint46_linear_624_426320" x1="845.122" y1="126.874" x2="881.521" y2="120.776" gradientUnits="userSpaceOnUse">
            <stop stop-color="#FCE7C0"/>
            <stop offset="1" stop-color="#FFEECF"/>
        </linearGradient>
        <linearGradient id="paint47_linear_624_426320" x1="864.765" y1="141.901" x2="916.591" y2="132.929" gradientUnits="userSpaceOnUse">
            <stop stop-color="#FCE7C0"/>
            <stop offset="1" stop-color="#FFEECF"/>
        </linearGradient>
        <linearGradient id="paint48_linear_624_426320" x1="888.142" y1="34.2285" x2="888.142" y2="87.3909" gradientUnits="userSpaceOnUse">
            <stop stop-color="#FFFEFD"/>
            <stop offset="1" stop-color="#FFFEFD" stop-opacity="0"/>
        </linearGradient>
        <linearGradient id="paint49_linear_624_426320" x1="891.405" y1="53.1211" x2="891.405" y2="87.3908" gradientUnits="userSpaceOnUse">
            <stop stop-color="#FFFEFD"/>
            <stop offset="1" stop-color="#FFFEFD" stop-opacity="0"/>
        </linearGradient>
        <linearGradient id="paint50_linear_624_426320" x1="861.509" y1="50.6289" x2="861.509" y2="87.3913" gradientUnits="userSpaceOnUse">
            <stop stop-color="#FFFEFD"/>
            <stop offset="1" stop-color="#FFFEFD" stop-opacity="0"/>
        </linearGradient>
        <linearGradient id="paint51_linear_624_426320" x1="858.505" y1="45.707" x2="858.505" y2="67.3903" gradientUnits="userSpaceOnUse">
            <stop stop-color="#FFFEFD"/>
            <stop offset="1" stop-color="#FFFEFD" stop-opacity="0"/>
        </linearGradient>
        <linearGradient id="paint52_linear_624_426320" x1="887.493" y1="25.9141" x2="887.493" y2="68.2834" gradientUnits="userSpaceOnUse">
            <stop stop-color="#FFFEFD"/>
            <stop offset="1" stop-color="#FFFEFD" stop-opacity="0"/>
        </linearGradient>
        <clipPath id="clip0_624_426320">
            <rect width="936" height="114" rx="12" fill="white"/>
        </clipPath>
        <clipPath id="clip1_624_426320">
            <rect width="1440" height="250" fill="white" transform="translate(0 -86)"/>
        </clipPath>
    </defs>
</svg>
